<?xml version="1.0" encoding="utf-8"?>
<!-- Generator: Adobe Illustrator 28.0.0, SVG Export Plug-In . SVG Version: 6.00 Build 0)  -->
<svg version="1.1" id="Layer_1" xmlns="http://www.w3.org/2000/svg" xmlns:xlink="http://www.w3.org/1999/xlink" x="0px" y="0px"
	 viewBox="0 0 27.3 35" style="enable-background:new 0 0 27.3 35;" xml:space="preserve">
<path d="M0.4,28.9v4.7c0,0.5,0.4,0.9,0.8,0.9c0,0,0,0,0,0h24.8c0.5,0,0.9-0.4,0.9-0.8c0,0,0,0,0,0v-4.7c0-5.7-3.7-10.8-9.2-12.6
	C21.8,14,23.3,8.9,21,4.8c-2.3-4.1-7.4-5.5-11.4-3.3C5.5,3.8,4.1,9,6.3,13c0.8,1.4,1.9,2.5,3.3,3.3C4.1,18,0.4,23.1,0.4,28.9
	L0.4,28.9z M7,8.9c0-3.7,2.9-6.7,6.6-6.7c3.7,0,6.7,2.9,6.7,6.6s-2.9,6.7-6.6,6.7c0,0,0,0-0.1,0C10,15.6,7,12.6,7,8.9L7,8.9z
	 M13.7,17.3c6.4,0,11.5,5.2,11.5,11.5v3.9H2.1v-3.9C2.1,22.5,7.3,17.3,13.7,17.3L13.7,17.3z"/>
</svg>
