<?xml version="1.0" encoding="utf-8"?>
<!-- Generator: Adobe Illustrator 28.0.0, SVG Export Plug-In . SVG Version: 6.00 Build 0)  -->
<svg version="1.1" id="Layer_1" xmlns="http://www.w3.org/2000/svg" xmlns:xlink="http://www.w3.org/1999/xlink" x="0px" y="0px"
	 viewBox="0 0 35 35" style="enable-background:new 0 0 35 35;" xml:space="preserve">
<g transform="translate(70.285 217.928) rotate(-135)">
	<path d="M171.6,106.1L171.6,106.1l0.5,7l0,0l0.4,5.6c0.1,0.7,0.6,1.2,1.3,1.1l7-0.5c0.7-0.1,1.2-0.6,1.1-1.3l-0.3-3.3l1.7,3.4
		c0.4,0.8,1.4,1.1,2.2,0.7l5.6-2.8c0.8-0.4,1.1-1.4,0.7-2.2l-1.2-2.3l1.1,1c0.7,0.6,1.7,0.6,2.3-0.1l4.3-4.6
		c0.6-0.7,0.6-1.7-0.1-2.3l-3.8-3.6l0,0l-10-9.4l0,0l-6.9-6.4c-0.3-0.3-0.7-0.4-1.1-0.4h-0.1c-0.4,0-0.8,0.2-1.1,0.5l-1.7,1.8
		c0,0,0,0,0,0.1l-2.4,0.2c-0.7,0.1-1.2,0.6-1.1,1.3L171.6,106.1z M188.4,97.7l-2.8,3l-1.9-3.9l0,0l-0.7-1.4l1.4-1.5L188.4,97.7z
		 M193.5,102.5l-4.6,4.9l-2.8-5.6l0,0l3.1-3.4L193.5,102.5z M172.8,106.6l7.2-0.6l0.4,5.7l0,0l0,0.1l-7.2,0.6L172.8,106.6z
		 M185.3,102.9l-4.2,2.1l-0.5-6l2.2-1.1L185.3,102.9z M181.6,111.5l-0.4-5.3l4.6-2.3l2.6,5.2l-6.4,3.2L181.6,111.5z M182.4,94.3
		l-2.1-4.3l3.3,3.1L182.4,94.3z M182.3,96.9l-1.8,0.9l-0.4-5.3L182.3,96.9z M179.9,104.9l-7.2,0.6l-0.4-5.5l7.2-0.6L179.9,104.9z
		 M180.9,118.1l-7,0.6c0,0-0.1,0-0.1-0.1l-0.4-5l7.2-0.6L180.9,118.1C180.9,118.1,180.9,118.1,180.9,118.1z M190.8,115l-5.6,2.8
		c-0.2,0.1-0.5,0-0.6-0.2l-2.1-4.2l6.4-3.2l2.1,4.2C191.2,114.6,191.1,114.9,190.8,115L190.8,115z M197.8,107.1l-4.3,4.6
		c-0.2,0.2-0.5,0.2-0.6,0l-3.4-3.1l0,0l4.9-5.3l3.4,3.2C198,106.6,198,106.9,197.8,107.1L197.8,107.1z M176.4,87.1
		c0.1-0.1,0.2-0.1,0.3-0.1c0.1,0,0.2,0,0.3,0.1l0.8,0.8l-2.3,0.2L176.4,87.1z M171.6,89.5l7-0.5h0c0,0,0.1,0,0.1,0.1l0.7,9.2
		l-7.2,0.6L171.6,89.5C171.5,89.5,171.5,89.5,171.6,89.5L171.6,89.5z"/>
	<path d="M174.3,93.3c0-0.6,0.5-1,1-1s1,0.5,1,1c0,0.6-0.5,1-1,1h0C174.8,94.3,174.3,93.8,174.3,93.3"/>
</g>
</svg>
