<?xml version="1.0" encoding="utf-8"?>
<!-- Generator: Adobe Illustrator 28.0.0, SVG Export Plug-In . SVG Version: 6.00 Build 0)  -->
<svg version="1.1" id="Layer_1" xmlns="http://www.w3.org/2000/svg" xmlns:xlink="http://www.w3.org/1999/xlink" x="0px" y="0px"
	 viewBox="0 0 35 35" style="enable-background:new 0 0 35 35;" xml:space="preserve">
<g transform="translate(-78.004 -72)">
	<path d="M83.1,72.5c-2.6,0-4.6,2.1-4.6,4.6c0,2.6,2.1,4.6,4.6,4.6c2.6,0,4.6-2.1,4.6-4.6c0-1.2-0.5-2.4-1.4-3.3
		C85.6,73,84.4,72.5,83.1,72.5z M83.1,80.2c-1.7,0-3.1-1.4-3.1-3.1c0-1.7,1.4-3.1,3.1-3.1s3.1,1.4,3.1,3.1c0,0.8-0.3,1.6-0.9,2.2
		C84.8,79.9,84,80.2,83.1,80.2z"/>
	<path d="M92.4,76.4h20.1v1.5H92.4V76.4z"/>
	<path d="M83.1,84.9c-2.6,0-4.6,2.1-4.6,4.6c0,2.6,2.1,4.6,4.6,4.6s4.6-2.1,4.6-4.6c0-1.2-0.5-2.4-1.4-3.3
		C85.6,85.3,84.4,84.9,83.1,84.9z M83.1,92.6c-1.7,0-3.1-1.4-3.1-3.1c0-1.7,1.4-3.1,3.1-3.1c1.7,0,3.1,1.4,3.1,3.1
		c0,0.8-0.3,1.6-0.9,2.2C84.8,92.3,84,92.6,83.1,92.6z"/>
	<path d="M92.4,88.7h20.1v1.5H92.4V88.7z"/>
	<path d="M83.1,97.2c-2.6,0-4.6,2.1-4.6,4.6s2.1,4.6,4.6,4.6c2.6,0,4.6-2.1,4.6-4.6c0-1.2-0.5-2.4-1.4-3.3
		C85.6,97.7,84.4,97.2,83.1,97.2z M83.1,104.9c-1.7,0-3.1-1.4-3.1-3.1c0-1.7,1.4-3.1,3.1-3.1c1.7,0,3.1,1.4,3.1,3.1
		c0,0.8-0.3,1.6-0.9,2.2C84.8,104.6,84,104.9,83.1,104.9z"/>
	<path d="M92.4,101.1h20.1v1.5H92.4V101.1z"/>
	<path d="M84.7,101.9c0,0.9-0.7,1.5-1.5,1.5c-0.9,0-1.5-0.7-1.5-1.5c0-0.9,0.7-1.5,1.5-1.5C84,100.3,84.7,101,84.7,101.9L84.7,101.9
		"/>
</g>
</svg>
