<?xml version="1.0" encoding="utf-8"?>
<!-- Generator: Adobe Illustrator 28.0.0, SVG Export Plug-In . SVG Version: 6.00 Build 0)  -->
<svg version="1.1" id="Layer_1" xmlns="http://www.w3.org/2000/svg" xmlns:xlink="http://www.w3.org/1999/xlink" x="0px" y="0px"
	 viewBox="0 0 50.9 35" style="enable-background:new 0 0 50.9 35;" xml:space="preserve">
<style type="text/css">
	.st0{fill-rule:evenodd;clip-rule:evenodd;}
</style>
<path class="st0" d="M25.4,27.3c-0.3,0-0.6-0.3-0.6-0.6l0-15.8l-5.9,5.9c-0.1,0.1-0.3,0.2-0.4,0.2c-0.2,0-0.3-0.1-0.4-0.2
	c-0.1-0.1-0.2-0.3-0.2-0.4s0.1-0.3,0.2-0.4L25,9c0.1-0.1,0.3-0.2,0.4-0.2c0.2,0,0.3,0.1,0.4,0.2l6.9,6.9c0.1,0.1,0.2,0.3,0.2,0.4
	s-0.1,0.3-0.2,0.4c-0.1,0.1-0.3,0.2-0.4,0.2c-0.2,0-0.3-0.1-0.4-0.2l-5.9-5.9v15.9C26,27.1,25.8,27.3,25.4,27.3L25.4,27.3z"/>
<path d="M14.3,4.6c3.1-2.7,7-4.1,11.1-4.1c8.2-0.1,15.1,6,16,14.2c5.5,0.7,9.4,5.6,8.7,11.1c-0.6,5.1-5,8.9-10.2,8.8H12.4
	C6,34.6,0.8,29.5,0.7,23.1c0-5.4,3.8-10,9.1-11.1C10.4,9.1,12,6.5,14.3,4.6z M40.2,33c4.3,0,7.9-3.2,8.4-7.5
	c0.3-2.2-0.4-4.5-1.7-6.2c-1.4-1.8-3.4-2.9-5.6-3.2L40,16l-0.1-1.2C39.1,7.5,33,2,25.6,2l-0.2,0c-3.7,0-7.3,1.4-10.2,3.8
	c-2,1.6-3.5,4-4,6.5l-0.2,1l-1,0.2c-4.5,1-7.9,5-7.9,9.6c0.1,5.5,4.6,9.9,10,9.9H40L40.2,33z"/>
</svg>
