<?xml version="1.0" encoding="utf-8"?>
<!-- Generator: Adobe Illustrator 28.0.0, SVG Export Plug-In . SVG Version: 6.00 Build 0)  -->
<svg version="1.1" id="Layer_1" xmlns="http://www.w3.org/2000/svg" xmlns:xlink="http://www.w3.org/1999/xlink" x="0px" y="0px"
	 viewBox="0 0 41.9 35" style="enable-background:new 0 0 41.9 35;" xml:space="preserve">
<path d="M35.9,0.5H6.1C3,0.5,0.6,2.9,0.6,6c0,0,0,0,0,0v17.4c0,3,2.4,5.5,5.5,5.5c0,0,0,0,0,0h16.8l5.9,5.1c1,0.9,2.6,0.8,3.5-0.3
	c0.4-0.5,0.6-1,0.6-1.6v-3.2h3c3,0,5.5-2.4,5.5-5.5c0,0,0,0,0,0V6C41.3,2.9,38.9,0.5,35.9,0.5z M30.4,33c-0.2,0-0.4,0-0.6-0.2
	l-6.4-5.4H6.1c-2.2,0-4-1.8-4-4V6c0-2.2,1.8-4,4-4h29.8c2.2,0,4,1.8,4,4v17.4c0,2.2-1.8,4-4,4h-4.5V32c0,0.2-0.1,0.5-0.2,0.6
	C31,32.9,30.7,33,30.4,33z"/>
</svg>
