<svg xmlns="http://www.w3.org/2000/svg" width="23.951" height="20.311" viewBox="0 0 23.951 20.311"><path d="M19.975,15.469H9.067a2.755,2.755,0,0,1-2.751-2.751h0V4.246L5.059,1.9a1.046,1.046,0,0,0-.932-.552H.672A.675.675,0,0,1,0,.672.675.675,0,0,1,.672,0H4.127A2.421,2.421,0,0,1,6.24,1.257L7.388,3.4H21.936a2.023,2.023,0,0,1,2.015,2v5.72a3.6,3.6,0,0,1-.455,1.733l-.477.834a3.5,3.5,0,0,1-3.044,1.777M7.659,4.745v7.973a1.405,1.405,0,0,0,1.408,1.408H19.975a2.17,2.17,0,0,0,1.874-1.083l.477-.834a2.172,2.172,0,0,0,.282-1.072V5.416a.675.675,0,0,0-.672-.672Zm4.106,13.779a1.787,1.787,0,1,1-1.787-1.787,1.789,1.789,0,0,1,1.787,1.787h0m10.811,0a1.787,1.787,0,1,1-1.787-1.787,1.789,1.789,0,0,1,1.787,1.787h0"/></svg>