<?xml version="1.0" encoding="UTF-8"?><svg id="a" xmlns="http://www.w3.org/2000/svg" width="143.41" height="51.79" viewBox="0 0 143.41 51.79"><g id="b"><g id="c"><path id="d" d="m60.18,48.64c-.57,0-1.13-.15-1.62-.44-.47-.28-.87-.67-1.15-1.14v1.43h-1.15v-10.68h1.29v4.57c.3-.48.71-.89,1.18-1.2.49-.31,1.06-.47,1.64-.45.49,0,.98.11,1.42.34.41.22.78.52,1.08.89.3.38.54.81.69,1.27.16.48.24.98.24,1.49,0,.52-.09,1.04-.28,1.52-.17.46-.43.88-.76,1.25-.32.36-.71.64-1.15.85-.45.21-.93.32-1.43.32m-.32-1.11c.36,0,.73-.08,1.05-.23.32-.15.6-.37.83-.63.23-.26.42-.57.54-.9.13-.34.19-.7.19-1.06,0-.37-.06-.73-.18-1.08-.11-.33-.29-.64-.51-.92-.22-.26-.49-.48-.79-.64-.31-.16-.66-.25-1.02-.24-.26,0-.53.05-.77.14-.24.1-.47.23-.68.39-.21.16-.4.35-.56.56-.16.22-.3.45-.42.69v2.21c.05.25.16.48.32.67.16.21.35.39.57.53.22.15.45.27.7.36.23.08.48.13.72.13" fill="#fff"/><path id="e" d="m66.2,50.57c.13.02.25.03.38.04s.23.01.29.01c.11,0,.22-.03.32-.08.12-.08.21-.19.28-.32.12-.21.22-.43.31-.65.12-.28.26-.64.44-1.09l-3.23-7.64h1.33l2.6,6.48,2.37-6.48h1.23l-3.71,9.64c-.15.35-.38.66-.68.9-.38.28-.84.41-1.31.39-.09,0-.18,0-.27-.01-.12-.01-.23-.03-.34-.06v-1.14Z" fill="#fff"/><path id="f" d="m78.8,48.5v-10.39h6.86v1.17h-5.55v3.47h4.67v1.1h-4.67v4.65h-1.32Z" fill="#fff"/><path id="g" d="m90.77,48.64c-.54,0-1.08-.1-1.58-.32-.46-.2-.88-.49-1.23-.86-.35-.37-.62-.8-.8-1.27-.19-.49-.29-1.01-.28-1.53,0-.52.09-1.04.28-1.52.18-.47.46-.89.81-1.26.35-.36.77-.66,1.24-.86.5-.21,1.04-.32,1.58-.32,1.58-.03,3,.94,3.55,2.42.18.47.27.97.27,1.47,0,.11,0,.21,0,.29,0,.07-.01.13-.02.2h-6.33c.02.36.11.71.26,1.04.14.3.33.57.57.81.23.22.5.4.8.53.3.13.62.19.94.19.23,0,.46-.04.69-.1.22-.06.43-.15.63-.26.19-.1.37-.24.52-.39.15-.15.26-.33.34-.53l1.11.32c-.13.29-.3.55-.52.78-.22.24-.48.44-.76.61-.3.18-.62.31-.96.4-.36.1-.73.15-1.1.15m2.62-4.48c-.03-.35-.12-.69-.27-1-.14-.29-.33-.56-.57-.78-.74-.68-1.8-.87-2.73-.5-.3.12-.57.29-.8.51-.23.22-.42.49-.56.78-.15.32-.23.65-.26,1h5.18Z" fill="#fff"/><path id="h" d="m96.8,37.81h1.29v8.71c-.01.24.07.48.23.67.17.17.4.26.64.24.13,0,.26-.02.38-.05.14-.03.28-.07.41-.12l.21,1.04c-.25.1-.5.17-.76.22-.25.05-.51.08-.78.09-.43.02-.86-.13-1.18-.43-.3-.32-.46-.75-.43-1.18v-9.17Z" fill="#fff"/><path id="i" d="m101.71,37.81h1.29v8.71c-.01.24.07.48.23.67.17.17.4.26.64.24.13,0,.26-.02.38-.05.14-.03.28-.07.41-.12l.21,1.04c-.25.1-.5.17-.76.22-.25.05-.51.08-.78.09-.43.02-.86-.13-1.18-.43-.3-.32-.46-.75-.43-1.18v-9.17Z" fill="#fff"/><path id="j" d="m109.94,48.64c-1.05.02-2.07-.41-2.79-1.18-.34-.36-.61-.79-.78-1.26-.19-.48-.28-.99-.28-1.51,0-.52.09-1.04.28-1.52.18-.47.45-.89.79-1.26,1.46-1.54,3.88-1.6,5.42-.14.05.05.1.09.14.14.34.37.61.79.79,1.26.19.48.29,1,.28,1.52,0,.52-.09,1.03-.28,1.51-.18.47-.45.89-.79,1.26-.35.36-.76.66-1.22.86-.5.22-1.03.33-1.57.32m-2.53-3.94c0,.38.06.76.2,1.11.12.33.31.63.54.89.23.25.5.46.81.6.63.29,1.35.29,1.98,0,.31-.15.58-.35.81-.61.24-.27.42-.57.55-.91.13-.36.2-.74.2-1.12,0-.38-.07-.75-.2-1.11-.12-.33-.31-.64-.55-.91-.23-.25-.5-.46-.81-.61-.31-.15-.65-.22-.99-.22-.34,0-.68.08-.99.23-.31.15-.58.36-.81.61-.23.27-.42.57-.54.91-.13.36-.2.74-.2,1.12" fill="#fff"/><path id="k" d="m125.41,40.86h1.24l-3.25,7.64h-1.07l-1.54-3.73-1.52,3.73h-1.07l-3.25-7.64h1.23l2.63,6.37,1.29-3.18-1.32-3.18h1.07l.94,2.44.94-2.44h1.07l-1.3,3.18,1.29,3.18,2.62-6.37Z" fill="#fff"/><path id="l" d="m131.7,48.64c-.54,0-1.08-.1-1.58-.32-.46-.2-.88-.49-1.23-.86-.35-.37-.62-.8-.8-1.27-.19-.49-.29-1.01-.29-1.53,0-.52.09-1.04.29-1.52.18-.47.46-.89.81-1.26.35-.36.77-.66,1.24-.86.5-.21,1.04-.32,1.58-.32,1.58-.03,3,.94,3.55,2.42.18.47.27.97.27,1.47,0,.11,0,.21,0,.29,0,.07-.01.13-.02.2h-6.33c.02.36.11.71.26,1.04.14.3.33.57.57.81.23.22.5.4.8.53.3.13.62.19.94.19.23,0,.46-.04.69-.1.22-.06.43-.15.63-.26.19-.1.37-.24.52-.39.15-.15.26-.33.34-.53l1.11.31c-.13.29-.3.55-.52.78-.22.24-.48.44-.76.61-.3.18-.62.31-.96.4-.36.1-.73.15-1.1.15m2.62-4.47c-.03-.35-.12-.69-.27-1-.14-.29-.33-.56-.57-.78-.74-.68-1.8-.87-2.73-.5-.3.12-.57.29-.8.51-.23.22-.42.49-.56.78-.15.32-.23.65-.26,1h5.18Z" fill="#fff"/><path id="m" d="m140.38,48.64c-.62,0-1.23-.1-1.82-.29-.56-.17-1.08-.45-1.54-.83l.56-.86c.41.32.86.58,1.35.77.45.17.93.26,1.42.26.46.02.92-.09,1.32-.33.32-.2.5-.55.49-.93,0-.17-.04-.33-.13-.47-.1-.14-.24-.26-.39-.34-.21-.11-.44-.2-.67-.26-.27-.08-.59-.16-.95-.25-.46-.12-.85-.23-1.18-.34-.29-.09-.57-.22-.82-.38-.2-.13-.36-.31-.47-.53-.1-.24-.15-.5-.15-.76,0-.35.07-.7.23-1.02.15-.29.36-.55.62-.75.28-.21.59-.36.93-.45.37-.11.76-.16,1.15-.15.55,0,1.09.09,1.61.28.46.16.89.41,1.26.73l-.59.78c-.32-.28-.68-.5-1.08-.64-.39-.14-.81-.21-1.23-.21-.42-.01-.83.09-1.19.3-.33.2-.52.57-.49.96,0,.15.03.3.1.44.08.13.18.24.32.31.18.1.37.18.56.23.23.07.5.14.83.22.51.12.95.24,1.32.36.33.1.64.25.94.43.23.15.42.35.56.59.13.25.19.53.18.82.02.67-.28,1.3-.82,1.7-.65.45-1.42.67-2.21.63" fill="#fff"/></g><g id="n"><g id="o"><path id="p" d="m55.82,4.78v27.54h18.5v-2.4h-15.82v-10.51h13.5v-2.29h-13.5V7.18h15.48v-2.41h-18.15Z" fill="#fff"/><path id="q" d="m84.02,32.7c-.97.01-1.93-.15-2.83-.49-.81-.3-1.56-.75-2.19-1.34-.6-.56-1.08-1.23-1.42-1.98-.33-.74-.5-1.55-.5-2.37-.01-.89.2-1.76.62-2.54.43-.78,1.02-1.45,1.75-1.96.82-.58,1.73-1,2.7-1.26,1.13-.31,2.3-.46,3.47-.45,1.04,0,2.08.09,3.1.27.97.16,1.92.42,2.83.78v-1.82c.08-1.57-.47-3.1-1.54-4.25-1.1-1.08-2.6-1.65-4.13-1.57-1.11,0-2.21.21-3.24.62-1.16.46-2.26,1.06-3.28,1.78l-.93-1.75c1.19-.81,2.48-1.48,3.84-1.98,1.25-.44,2.56-.66,3.88-.66,2.16-.11,4.27.66,5.86,2.13,1.51,1.58,2.3,3.72,2.17,5.9v9.12c0,.72.31,1.09.93,1.09v2.33c-.21.03-.4.05-.58.06-.18.01-.34.02-.47.02-.51,0-1.01-.16-1.42-.47-.44-.33-.7-.85-.72-1.4l-.08-1.59c-.9,1.21-2.1,2.16-3.47,2.77-1.37.64-2.85.98-4.36.99m.66-2.02c1.2,0,2.38-.26,3.47-.76,1.07-.45,2.02-1.16,2.73-2.08.18-.23.34-.49.47-.76.12-.23.19-.49.19-.76v-3.3c-.89-.34-1.81-.6-2.75-.78-.92-.18-1.86-.27-2.79-.27-1.61-.07-3.21.33-4.6,1.14-1.12.66-1.79,1.87-1.76,3.16,0,.55.11,1.09.31,1.59.21.53.54,1.01.95,1.4.45.43.99.78,1.57,1.01.7.27,1.46.41,2.21.39" fill="#fff"/><path id="r" d="m110.01,14.43c-1.66.01-3.29.53-4.65,1.47-1.33.94-2.31,2.29-2.79,3.84v12.57h-2.64V12.1h2.48v4.85c.66-1.37,1.6-2.58,2.76-3.55,1.02-.9,2.33-1.4,3.69-1.42h.66c.17,0,.33.01.5.04v2.41Z" fill="#fff"/><path id="s" d="m123.31,31.35c-.15.08-.38.18-.68.31s-.64.26-1.03.39c-.43.14-.87.26-1.32.35-.51.11-1.03.16-1.55.15-.55,0-1.1-.08-1.63-.23-.5-.14-.96-.39-1.36-.71-.4-.34-.71-.75-.93-1.23-.24-.54-.36-1.12-.35-1.71v-14.47h-2.79v-2.1h2.79v-6.82h2.64v6.82h4.65v2.1h-4.65v13.73c0,.64.28,1.24.78,1.65.48.35,1.07.54,1.67.52.68.01,1.35-.11,1.98-.37.37-.15.74-.32,1.09-.52l.7,2.13Z" fill="#fff"/><path id="t" d="m143.4,32.32h-2.64v-11.29c.13-1.8-.29-3.59-1.18-5.16-.78-1.13-2.1-1.78-3.47-1.71-.77,0-1.52.16-2.23.45-.75.3-1.45.72-2.07,1.22-.65.52-1.22,1.14-1.69,1.82-.48.7-.84,1.47-1.07,2.29v12.37h-2.63V4h2.64v12.68c.78-1.48,1.95-2.73,3.37-3.61,1.37-.86,2.96-1.32,4.58-1.32,1.03-.03,2.04.19,2.97.64.8.41,1.48,1.03,1.98,1.78.54.84.91,1.78,1.11,2.75.24,1.17.36,2.36.35,3.55v11.83Z" fill="#fff"/></g><path id="u" d="m20.61,0C10.17,0,1.71,8.45,1.7,18.88c0,4.67,1.73,9.18,4.86,12.66-2.13,1.36-4.31,2.63-6.56,3.8l.75,1.43c2.39-1.24,4.71-2.6,6.97-4.06,7.63,7.12,19.59,6.71,26.71-.92,7.12-7.63,6.71-19.59-.92-26.71C30.01,1.82,25.4,0,20.61,0m0,36.2c-3.87,0-7.62-1.3-10.66-3.69h21.32c-3.04,2.39-6.79,3.69-10.66,3.69m-10.17-5.31c2.13-1.49,4.2-3.07,6.2-4.75h19.67c-.81,1.75-1.91,3.36-3.25,4.75H10.44Zm-1.83-24.42c1.95-1.89,4.33-3.3,6.92-4.1v22.59c-2.22,1.86-4.53,3.6-6.92,5.23V6.47ZM17.15,1.96c2.28-.46,4.63-.46,6.92,0v14.83c-.89.97-1.79,1.92-2.72,2.85-1.36,1.36-2.76,2.67-4.2,3.93V1.96Zm8.53.41c2.48.77,4.76,2.08,6.66,3.85-2.03,3.06-4.26,5.98-6.66,8.76V2.38Zm12.02,13.92h-11.03c2.46-2.82,4.74-5.79,6.83-8.9,2.24,2.5,3.69,5.59,4.2,8.9m-19.18,8.22c1.36-1.2,2.68-2.45,3.97-3.74.93-.93,1.85-1.89,2.74-2.87h12.64c.02.33.03.66.03.99,0,1.91-.32,3.81-.94,5.62h-18.44Zm-11.52,5.02c-4.9-6.25-4.9-15.04,0-21.28v21.28Z" fill="#fff"/></g></g></svg>