<?xml version="1.0" encoding="UTF-8"?><svg id="a" xmlns="http://www.w3.org/2000/svg" width="112.05" height="78.76" viewBox="0 0 112.05 78.76"><g id="b" isolation="isolate"><g isolation="isolate"><path d="m73.98.03c.15,0,.28.03.38.09.1.06.18.15.26.26.08.12.12.24.12.38s-.04.26-.12.38c-.08.12-.17.2-.29.26s-.23.09-.35.09c-1.04,0-2.51.04-4.41.12-1.39.04-2.86.1-4.41.17-2.86.16-5.82.33-8.87.52-6.19.46-12.06,1.01-17.63,1.62-3.21.39-6.15.75-8.82,1.1l-.41,1.1-.87,2.32-1.74,4.64-3.54,9.28-4.81,12.82c.08,0,.18-.02.32-.06.13-.04.24-.06.32-.06,3.33-.62,6.28-1.1,8.87-1.45,1.28-.15,2.03-.23,2.26-.23,1.2-.15,1.93-.23,2.2-.23l1.16-.12h1.1c.31-.04,1.08-.04,2.32,0,.15,0,.3.06.44.17.14.12.18.27.15.46,0,.39-.19.58-.58.58h-.06c-1.24,0-1.97.02-2.2.06-.04,0-.19,0-.46.03-.27.02-.46.03-.58.03l-1.1.12c-.27.04-1.01.14-2.2.29-.19.04-.93.16-2.2.35-2.55.39-5.47.93-8.76,1.62-.39.08-.97.19-1.74.35l-1.45,3.83-6.96,18.56-3.54,9.28-1.8,4.64-.87,2.32-.46,1.16-.46,1.22c-.12.27-.32.46-.61.58s-.57.12-.84,0c-.58-.23-.81-.64-.7-1.22.46-2.28.79-3.83.99-4.64.23-1.01.42-1.8.58-2.38.12-.46.37-1.24.75-2.32.08-.23.22-.4.43-.49.21-.1.44-.11.67-.03.12.04.21.12.29.23l3.48-9.11,7.02-18.56.93-2.49c-1.39.31-2.86.66-4.41,1.04-3.25.77-6.13,1.51-8.64,2.2-.23.08-.43.09-.61.03-.17-.06-.33-.15-.46-.29-.14-.13-.24-.3-.32-.49-.08-.35,0-.68.23-.99.12-.12.23-.23.35-.35l.06-.06.06-.06.17-.12c.08-.08.27-.19.58-.35.27-.19.64-.39,1.1-.58.58-.27,1.31-.56,2.2-.87.54-.19,1.28-.42,2.2-.7,1.08-.35,1.8-.6,2.15-.75.23-.08.45-.06.67.06.21.12.36.29.44.52.08.27.04.52-.12.75,1.74-.39,3.44-.73,5.1-1.04l5.28-14.04,3.54-9.28,1.74-4.64.87-2.26c-2.17.35-4.21.7-6.15,1.04-3.36.66-6.21,1.33-8.53,2.03-.39.12-.79.23-1.22.35.19.12.35.29.46.52.08.27.06.53-.06.78-.12.25-.29.42-.52.49-.08.04-.17.06-.29.06-.43.08-.95.17-1.57.29-.58.12-1.12.25-1.62.41-.58.16-1.1.31-1.57.46-.62.19-1.14.37-1.57.52-.27.12-.53.12-.78,0-.25-.12-.44-.31-.55-.58-.16-.35-.12-.68.12-.99l.12-.17c.5-.62,1.18-1.16,2.03-1.62.62-.39,1.31-.75,2.09-1.1,1.2-.5,2.65-.99,4.35-1.45,2.4-.7,5.3-1.35,8.7-1.97,2.28-.42,4.74-.81,7.37-1.16l.12-.35c.08-.19.19-.35.35-.46.15-.12.33-.18.52-.2.19-.02.39,0,.58.03.31.12.52.35.64.7,2.51-.35,5.22-.68,8.12-.99,5.61-.54,11.5-1,17.69-1.39,3.05-.19,6.01-.35,8.87-.46,1.58-.08,3.07-.13,4.47-.17,1.93-.04,3.42-.04,4.47,0Z" fill="#fff"/><path d="m48.4,42.19c.27.19.31.42.12.7-.93,1.28-1.74,2.32-2.44,3.13-.5.58-.99,1.04-1.45,1.39-.31.23-.6.44-.87.64-.19.08-.37.15-.52.23-.23.08-.44.14-.64.17-.23.04-.46.04-.7,0-.27-.08-.5-.21-.7-.41-.27-.27-.48-.66-.64-1.16-.12-.62-.15-1.33-.12-2.15v-.7c-.43.58-.79,1.06-1.1,1.45-.62.81-1.18,1.47-1.68,1.97-.39.42-.72.75-.99.99-.31.23-.54.39-.7.46-.35.19-.7.31-1.04.35h-.06l-.35-.06c-.23-.12-.44-.27-.61-.46-.17-.19-.32-.41-.44-.64-.12-.35-.17-.73-.17-1.16.04-.5.17-1.06.41-1.68.31-.81.77-1.7,1.39-2.67,1.12-1.66,2.4-3.15,3.83-4.47.85-.77,1.66-1.37,2.44-1.8.62-.31,1.18-.5,1.68-.58h.52c.08,0,.17.02.29.06h.06l.12.06c.08,0,.15.02.23.06.27.16.48.39.64.7.08.19.12.41.12.64.04.23.04.52,0,.87-.04.23-.1.5-.17.81-.12.43-.27.89-.46,1.39-.16.43-.33.87-.52,1.33-.12.27-.23.5-.35.7-.12.27-.23.5-.35.7-.27.39-.62.46-1.04.23v-.06c-.15.66-.27,1.2-.35,1.62-.04.35-.06.66-.06.93,0,.35.02.62.06.81.04.27.13.44.29.52.04.04.08.08.12.12h.26c.1,0,.2-.03.32-.09.12-.06.25-.11.41-.14.23-.16.46-.33.7-.52.42-.31.89-.72,1.39-1.22.7-.74,1.51-1.72,2.44-2.96.19-.27.42-.31.7-.12Zm-13.28,4.87s-.04.07,0,.09c.04.02.1.03.17.03h.17l-.35-.12Zm3.19-2.44c.5-.58,1.01-1.24,1.51-1.97.19-.27.44-.62.75-1.04l.35-.52.17-.29c.12-.15.19-.27.23-.35.27-.35.6-.39.99-.12.12.08.19.19.23.35.12-.31.23-.6.35-.87.12-.46.21-.89.29-1.28.04-.23.08-.43.12-.58v-.35c-.27.04-.6.17-.99.41-.58.31-1.24.83-1.97,1.57-1.24,1.2-2.36,2.59-3.36,4.18-.54.85-.93,1.6-1.16,2.26-.15.42-.23.77-.23,1.04v.06s.1-.02.17-.06c.27-.12.58-.33.93-.64.5-.46,1.04-1.06,1.62-1.8Z" fill="#fff"/><path d="m70.21,42.17c.27.17.33.42.17.72-.39.58-1.01,1.37-1.86,2.38-.31.35-.64.7-.99,1.04-.35.39-.7.75-1.04,1.1-.7.7-1.41,1.37-2.15,2.03-.5.42-.91.75-1.22.99-.16.12-.29.19-.41.23-.19.12-.37.19-.52.23-.19.08-.37.1-.52.06-.19,0-.37-.04-.52-.12-.19-.12-.35-.29-.46-.52-.08-.12-.12-.27-.12-.46v-.17l-.06-.06v-.29c-.04-.12-.06-.25-.06-.41.04-.19.06-.41.06-.64.04-.31.12-.7.23-1.16.08-.39.23-1.1.46-2.15.23-.93.39-1.6.46-2.03-.15.08-.37.21-.64.41-.54.39-1.08.81-1.62,1.28-.16.15-.42.4-.78.72-.37.33-.63.57-.78.73-.31.23-.6.48-.87.75-.19.19-.48.48-.87.87h-.06c-.31.15-.64.14-.99-.06-.15-.08-.3-.19-.44-.35-.14-.16-.24-.33-.32-.52-.12-.27-.17-.58-.17-.93s.1-.77.29-1.28c.15-.46.46-1.1.93-1.91.12-.23.27-.52.46-.87-.27.23-.5.46-.7.7-.93.93-1.97,2.03-3.13,3.31-.35.39-.87.97-1.57,1.74-.23.27-.72.87-1.45,1.8-1.24,1.47-2.13,2.73-2.67,3.77-.19.23-.44.37-.75.41-.31.04-.58-.04-.81-.23-.12-.12-.21-.25-.29-.41-.04-.08-.08-.15-.12-.23,0-.04-.02-.1-.06-.17v-.64c.04-.15.08-.35.12-.58.08-.23.17-.52.29-.87.15-.46.37-1.03.64-1.68.39-.89.87-1.93,1.45-3.13.35-.74.75-1.6,1.22-2.61-.12-.04-.21-.1-.29-.17-.27-.27-.29-.58-.06-.93.35-.46.73-.95,1.16-1.45.42-.5.85-.97,1.28-1.39.23-.19.5-.27.81-.23.31.04.56.17.75.41.31.35.37.73.17,1.16l-.06.06c-.08.16-.33.66-.75,1.51l-.75,1.57c-.58,1.12-1.08,2.13-1.51,3.02-.27.62-.54,1.22-.81,1.8l3.02-3.36c.54-.62,1.06-1.2,1.57-1.74.58-.66,1.1-1.24,1.57-1.74.73-.77,1.29-1.33,1.68-1.68.35-.35.66-.62.93-.81.08-.08.17-.15.29-.23.15-.08.29-.14.41-.17.12-.04.23-.08.35-.12h.12s.06.02.06.06h.23c.15.08.29.17.41.29.12.19.19.41.23.64v.41l-.06.06c-.08.27-.21.6-.41.99-.12.27-.25.58-.41.93-.5.97-.79,1.55-.87,1.74-.35.66-.58,1.22-.7,1.68v.06c.19-.12.39-.23.58-.35.62-.46,1.16-.89,1.62-1.28.15-.12.7-.6,1.62-1.45.5-.42.77-.68.81-.75.58-.5.91-.79.99-.87l-.35.23c.15-.15.31-.27.46-.35.27-.12.5-.17.7-.17.23.04.44.12.64.23.12.08.23.19.35.35.08.16.15.33.23.52v.29c.04.12.04.25,0,.41,0,.31-.04.72-.12,1.22-.12.46-.29,1.18-.52,2.15-.23,1.04-.39,1.75-.46,2.12-.08.37-.14.69-.17.96.19-.08.41-.19.64-.35.66-.43,1.41-1.01,2.26-1.74.39-.31.75-.62,1.1-.93.35-.35.68-.68.99-.99.77-.81,1.37-1.55,1.8-2.2.19-.27.42-.32.7-.14Zm-13.92,3.74v-.06.06Zm5.45,3.02s.06.04.17,0h-.17Z" fill="#fff"/><path d="m78.5,42.25c.23.19.25.41.06.64-.23.31-.56.7-.99,1.16-.31.31-.66.66-1.04,1.04-.7.7-1.41,1.37-2.15,2.03-.77.73-1.51,1.39-2.2,1.97-.43.35-.81.66-1.16.93-.5.39-.93.68-1.28.87-.16.12-.29.19-.41.23-.15.08-.31.13-.46.17h-.17c-.08.04-.15.06-.23.06-.12-.04-.21-.06-.29-.06-.04,0-.12-.02-.23-.06-.23-.12-.42-.29-.58-.52-.19-.27-.33-.64-.41-1.1,0-.27.02-.58.06-.93.08-.77.33-1.78.75-3.02.27-.74.62-1.59,1.04-2.55-.12-.04-.19-.12-.23-.23-.15-.31-.12-.6.12-.87l.06-.06c.08-.08.19-.19.35-.35.19-.31.31-.5.35-.58.27-.39.58-.77.93-1.16l.06-.06c.23-.19.5-.27.81-.23.31.04.56.17.75.41.31.35.35.75.12,1.22-.04.08-.1.18-.17.32-.08.14-.14.25-.17.35-.04.1-.1.2-.17.32-.08.12-.14.21-.17.29-.23.5-.45.93-.64,1.28-.5.97-.91,1.84-1.22,2.61-.46,1.04-.73,1.89-.81,2.55-.04.23-.06.42-.06.58v.12c.08,0,.17-.04.29-.12.31-.16.7-.39,1.16-.7.35-.23.73-.5,1.16-.81.7-.54,1.45-1.14,2.26-1.8.73-.66,1.45-1.3,2.15-1.91.39-.35.75-.68,1.1-.99.42-.43.75-.75.99-.99v-.06c.19-.23.42-.23.7,0Zm-6.5-3.31c-.27-.12-.46-.31-.58-.58-.12-.27-.12-.56,0-.87.27-.58.62-1.2,1.04-1.86.15-.23.39-.38.7-.43.31-.06.59,0,.84.14.25.16.41.39.46.7.06.31-.01.6-.2.87-.35.5-.62.99-.81,1.45-.19.46-.52.7-.99.7-.16,0-.31-.04-.46-.12Z" fill="#fff"/><path d="m92.77,21.6c.12.27.17.62.17,1.04-.04.23-.1.48-.17.75-.04.23-.1.46-.17.7l-.23.58c0,.08-.08.27-.23.58-.12.27-.19.46-.23.58-.27.66-.64,1.41-1.1,2.26-1.47,2.63-3.34,5.34-5.63,8.12-1.2,1.47-2.28,2.69-3.25,3.65-.66.66-1.26,1.22-1.8,1.68-.43.35-.75.62-.99.81-.19.12-.35.21-.46.29-.16.5-.29.97-.41,1.39-.5,1.7-.85,3.21-1.04,4.52-.04.39-.06.73-.06,1.04,0,.39.04.7.12.93,0,.08.02.15.06.23h.17c.15,0,.31-.02.46-.06.5-.12,1.16-.39,1.97-.81.66-.35,1.31-.73,1.97-1.16,1.35-.93,2.61-1.9,3.77-2.9.58-.5,1.14-1.04,1.68-1.62.27-.31.52-.6.75-.87.27-.35.48-.66.64-.93v-.06c.15-.27.37-.33.64-.17.27.12.35.31.23.58-.23.66-.66,1.41-1.28,2.26-.43.54-.97,1.16-1.62,1.86-1.2,1.24-2.46,2.34-3.77,3.31-.74.54-1.43,1.01-2.09,1.39-.43.23-.81.44-1.16.64-.46.19-.89.35-1.28.46-.27.08-.54.12-.81.12-.35.04-.66.02-.93-.06-.23-.08-.43-.17-.58-.29-.15-.12-.31-.25-.46-.41-.19-.27-.33-.56-.41-.87-.15-.43-.23-.93-.23-1.51,0-.43.02-.87.06-1.33.12-1.32.44-2.96.99-4.93.43-1.51.95-3.07,1.57-4.7.54-1.39,1.18-2.92,1.91-4.58.81-1.66,1.57-3.11,2.26-4.35.89-1.58,1.78-3,2.67-4.23.54-.73,1.06-1.39,1.57-1.97.66-.73,1.29-1.33,1.91-1.8.42-.31.83-.56,1.22-.75.5-.23,1-.39,1.51-.46h.41c.23,0,.42.04.58.12.23.04.44.16.64.35.19.16.35.35.46.58Zm-2.03,1.86c.04-.15.08-.31.12-.46.04-.15.06-.29.06-.41-.5.08-1.06.37-1.68.87-.5.39-1.02.91-1.57,1.57-.46.54-.93,1.14-1.39,1.8-.81,1.16-1.64,2.51-2.49,4.06-1.47,2.71-2.78,5.59-3.94,8.64-.16.39-.31.75-.46,1.1.5-.46,1.02-1,1.57-1.62,1.12-1.28,2.15-2.53,3.07-3.77.85-1.16,1.76-2.46,2.73-3.89.89-1.39,1.68-2.76,2.38-4.12.42-.85.75-1.57.99-2.15.04-.12.12-.29.23-.52.12-.31.19-.5.23-.58l.17-.52Z" fill="#fff"/><path d="m111.85,42.19c.27.31.27.6,0,.87h-.06c-.5.42-1.18.91-2.03,1.45-.62.39-1.33.79-2.15,1.22-.81.46-2.24,1.24-4.29,2.32-.5.23-1.72.85-3.65,1.86-1.08,2.4-2.26,4.79-3.54,7.19-.93,1.62-1.8,3.02-2.61,4.18-.58.85-1.06,1.53-1.45,2.03-.58.73-1.14,1.37-1.68,1.91-.66.66-1.33,1.22-2.03,1.68-.35.23-.74.44-1.19.64-.44.19-.9.33-1.36.41-.5.12-.99.14-1.45.06-.54-.08-1.02-.23-1.45-.46-.85-.54-1.43-1.32-1.74-2.32-.23-.85-.25-1.76-.06-2.73.04-.15.1-.37.17-.64.08-.35.14-.56.17-.64.16-.39.37-.79.64-1.22.43-.58,1.01-1.2,1.74-1.86.58-.5,1.24-1.03,1.97-1.57,1.97-1.39,4.77-3.05,8.41-4.99.81-.46,1.82-1.01,3.02-1.62.39-.81.81-1.68,1.28-2.61.81-1.7,1.49-3.15,2.03-4.35.31-.73.62-1.47.93-2.2l.06-.17c-.23.15-.48.35-.75.58l-2.61,1.91c-2.47,1.82-4.27,3.07-5.39,3.77-.58.31-1.08.56-1.51.75-.31.15-.6.27-.87.35-.35.12-.68.17-.99.17-.12,0-.22-.01-.32-.03-.1-.02-.16-.03-.2-.03-.08-.04-.15-.08-.23-.12-.19-.08-.35-.19-.46-.35-.12-.12-.19-.25-.23-.41-.04-.19-.08-.43-.12-.7,0-.16.02-.33.06-.52.04-.46.17-1.04.41-1.74.15-.5.35-1.04.58-1.62-.08-.04-.15-.08-.23-.12-.19-.23-.21-.48-.06-.75l.06-.06,1.16-1.86c.23-.39.44-.72.64-.99.15-.19.27-.35.35-.46.15-.19.31-.37.46-.52.23-.19.5-.28.81-.26.31.02.56.14.75.38.35.43.37.87.06,1.33-1.2,1.86-2.17,3.71-2.9,5.57-.19.54-.33,1-.41,1.39v.23c.12-.04.25-.08.41-.12.19-.04.42-.1.7-.17.42-.19.89-.43,1.39-.7.77-.39,1.68-.93,2.73-1.62.85-.54,1.72-1.14,2.61-1.8.46-.35,1.33-.99,2.61-1.91.5-.39.93-.71,1.28-.99l.7-.52c.31-.27.52-.46.64-.58.43-.27.77-.19,1.04.23.12.16.15.33.12.52l-.06.06c-.04.35-.14.77-.29,1.28-.12.31-.25.7-.41,1.16-.19.62-.46,1.39-.81,2.32-.62,1.66-1.22,3.17-1.8,4.52,0,.04-.02.08-.06.12,1.08-.54,1.89-.97,2.44-1.28,1.58-.81,3.02-1.59,4.29-2.32.77-.43,1.45-.83,2.03-1.22.77-.5,1.39-.97,1.86-1.39.31-.27.6-.25.87.06Zm-17.75,13.75c.73-1.31,1.51-2.76,2.32-4.35-.77.39-1.35.68-1.74.87-1.47.81-2.86,1.62-4.18,2.44-1.62.93-2.98,1.8-4.06,2.61-.7.54-1.29,1.04-1.8,1.51-.66.62-1.16,1.18-1.51,1.68-.23.35-.41.66-.52.93,0,.04-.06.21-.17.52-.04.27-.08.46-.12.58-.12.77-.06,1.47.17,2.09.19.66.58,1.12,1.16,1.39.5.27,1.1.31,1.8.12.31-.08.62-.19.93-.35.35-.19.66-.39.93-.58.46-.39.99-.91,1.57-1.57.85-1.01,1.78-2.28,2.78-3.83.85-1.32,1.66-2.67,2.44-4.06Z" fill="#fff"/></g></g></svg>