<svg xmlns="http://www.w3.org/2000/svg" xmlns:xlink="http://www.w3.org/1999/xlink" width="182" height="62.502" viewBox="0 0 182 62.502">
  <defs>
    <clipPath id="clip-path">
      <rect id="Rectangle_705" data-name="Rectangle 705" width="182" height="62.502" fill="none"/>
    </clipPath>
  </defs>
  <g id="Group_3597" data-name="Group 3597" clip-path="url(#clip-path)">
    <path id="Path_2025" data-name="Path 2025" d="M33.7,40.927c5.909,1.64,24.06-2.039,27.762-9.964.871,7.79-21.03,16.164-27.762,9.964" transform="translate(-8.078 -7.421)" fill="#fff"/>
    <path id="Path_2026" data-name="Path 2026" d="M31.99,46.653c6.908,1.213,27.381-2.565,30.8-11.7,1.056,9.449-22.807,18.158-30.8,11.7" transform="translate(-7.667 -8.378)" fill="#fff"/>
    <path id="Path_2027" data-name="Path 2027" d="M33.984,53.259c7.356,2.321,23.982-2.47,27.11-9.747,1.769,7.528-21.2,16.612-27.11,9.747" transform="translate(-8.145 -10.428)" fill="#fff"/>
    <path id="Path_2028" data-name="Path 2028" d="M36.262,60.514c4.741.93,20.173-1.642,23.206-8.447.28,6.81-16.689,12.891-23.206,8.447" transform="translate(-8.691 -12.479)" fill="#fff"/>
    <path id="Path_2029" data-name="Path 2029" d="M38.793,30.077c1.64-5.909-2.038-24.06-9.962-27.761,7.789-.873,16.164,21.028,9.962,27.761" transform="translate(-6.91 -0.549)" fill="#fff"/>
    <path id="Path_2030" data-name="Path 2030" d="M44.521,30.832c1.213-6.908-2.566-27.383-11.7-30.8,9.449-1.057,18.158,22.805,11.7,30.8" transform="translate(-7.867 0)" fill="#fff"/>
    <path id="Path_2031" data-name="Path 2031" d="M51.127,29.979C53.446,22.623,48.658,6,41.38,2.868c7.528-1.769,16.612,21.2,9.747,27.11" transform="translate(-9.917 -0.664)" fill="#fff"/>
    <path id="Path_2032" data-name="Path 2032" d="M58.384,28.96c.929-4.739-1.644-20.174-8.449-23.205,6.807-.279,12.89,16.69,8.449,23.205" transform="translate(-11.968 -1.379)" fill="#fff"/>
    <path id="Path_2033" data-name="Path 2033" d="M30.078,37.455c-5.909-1.639-24.06,2.039-27.762,9.963-.873-7.789,21.029-16.163,27.762-9.963" transform="translate(-0.549 -8.46)" fill="#fff"/>
    <path id="Path_2034" data-name="Path 2034" d="M30.832,31.157c-6.909-1.213-27.382,2.568-30.8,11.7-1.055-9.449,22.806-18.158,30.8-11.7" transform="translate(0 -6.933)" fill="#fff"/>
    <path id="Path_2035" data-name="Path 2035" d="M29.981,25.1C22.623,22.784,6,27.571,2.87,34.849,1.1,27.324,24.075,18.238,29.981,25.1" transform="translate(-0.665 -5.434)" fill="#fff"/>
    <path id="Path_2036" data-name="Path 2036" d="M28.96,18.548C24.221,17.619,8.788,20.19,5.755,27c-.278-6.81,16.69-12.891,23.205-8.447" transform="translate(-1.378 -4.082)" fill="#fff"/>
    <path id="Path_2037" data-name="Path 2037" d="M29.926,43.368c-1.64,5.908,2.038,24.059,9.963,27.759C32.1,72,23.725,50.1,29.926,43.368" transform="translate(-6.656 -10.394)" fill="#fff"/>
    <path id="Path_2038" data-name="Path 2038" d="M23.629,41.653c-1.213,6.908,2.567,27.383,11.7,30.8-9.449,1.055-18.159-22.808-11.7-30.8" transform="translate(-5.129 -9.983)" fill="#fff"/>
    <path id="Path_2039" data-name="Path 2039" d="M17.574,43.647c-2.32,7.356,2.469,23.981,9.747,27.11-7.528,1.769-16.613-21.2-9.747-27.11" transform="translate(-3.629 -10.461)" fill="#fff"/>
    <path id="Path_2040" data-name="Path 2040" d="M11.017,45.925c-.93,4.741,1.642,20.175,8.447,23.207-6.808.278-12.889-16.69-8.447-23.207" transform="translate(-2.277 -11.007)" fill="#fff"/>
    <path id="Path_2041" data-name="Path 2041" d="M99.123,53.05c-9.54.023-15.209-7-15.228-15.5v-.09C83.877,29.3,89.775,21.82,98.8,21.8a15.845,15.845,0,0,1,11.058,3.945l-1.464,1.688a13.6,13.6,0,0,0-9.72-3.6c-7.337.015-12.46,6.243-12.444,13.538v.085c.017,7.815,4.907,13.63,12.98,13.611a15.527,15.527,0,0,0,9.617-3.472l-.018-8.675-10.1.019,0-2.072,12.258-.027.025,11.655a18.165,18.165,0,0,1-11.86,4.559" transform="translate(-20.107 -5.225)" fill="#fff"/>
    <rect id="Rectangle_704" data-name="Rectangle 704" width="2.245" height="30.215" transform="translate(99.24 17.048) rotate(-0.125)" fill="#fff"/>
    <path id="Path_2042" data-name="Path 2042" d="M157.622,52.774l-1.986,0-13.362-30.4,2.5-.007,11.889,27.773,11.81-27.824,2.371,0Z" transform="translate(-34.098 -5.349)" fill="#fff"/>
    <path id="Path_2043" data-name="Path 2043" d="M188.331,52.495l-.065-30.214,21.495-.046,0,2.073-19.251.043.026,11.869,17.31-.039,0,2.071-17.311.04.027,12.129,19.468-.043,0,2.073Z" transform="translate(-45.121 -5.329)" fill="#fff"/>
    <path id="Path_2044" data-name="Path 2044" d="M228.845,27.128h-1.114V23.22h-1.459v-.985h4.034v.985h-1.461Zm4.986-1.16h-.094l-1.35-2.142v3.3h-1.05V22.235h1.175L233.8,24.3l1.288-2.064h1.142v4.893h-1.05v-3.3Z" transform="translate(-54.23 -5.329)" fill="#fff"/>
  </g>
</svg>
