<?xml version="1.0" encoding="UTF-8"?><svg id="a" xmlns="http://www.w3.org/2000/svg" width="182" height="62.5" viewBox="0 0 182 62.5"><g id="b"><path id="c" d="m25.62,33.51c5.91,1.64,24.06-2.04,27.76-9.96.87,7.79-21.03,16.16-27.76,9.96" fill="#fff"/><path id="d" d="m24.32,38.27c6.91,1.21,27.38-2.56,30.8-11.7,1.06,9.45-22.81,18.16-30.8,11.7" fill="#fff"/><path id="e" d="m25.84,42.83c7.36,2.32,23.98-2.47,27.11-9.75,1.77,7.53-21.2,16.61-27.11,9.75" fill="#fff"/><path id="f" d="m27.57,48.03c4.74.93,20.17-1.64,23.21-8.45.28,6.81-16.69,12.89-23.21,8.45" fill="#fff"/><path id="g" d="m31.88,29.53c1.64-5.91-2.04-24.06-9.96-27.76,7.79-.87,16.16,21.03,9.96,27.76" fill="#fff"/><path id="h" d="m36.65,30.83C37.87,23.92,34.09,3.45,24.95.03c9.45-1.06,18.16,22.81,11.7,30.8" fill="#fff"/><path id="i" d="m41.21,29.31c2.32-7.36-2.47-23.98-9.75-27.11,7.53-1.77,16.61,21.2,9.75,27.11" fill="#fff"/><path id="j" d="m46.42,27.58c.93-4.74-1.64-20.17-8.45-23.2,6.81-.28,12.89,16.69,8.45,23.2" fill="#fff"/><path id="k" d="m29.53,28.99c-5.91-1.64-24.06,2.04-27.76,9.96-.87-7.79,21.03-16.16,27.76-9.96" fill="#fff"/><path id="l" d="m30.83,24.22C23.92,23.01,3.45,26.79.03,35.92c-1.05-9.45,22.81-18.16,30.8-11.7" fill="#fff"/><path id="m" d="m29.32,19.67c-7.36-2.32-23.98,2.47-27.11,9.75-1.77-7.52,21.21-16.61,27.11-9.75" fill="#fff"/><path id="n" d="m27.58,14.47c-4.74-.93-20.17,1.64-23.2,8.45-.28-6.81,16.69-12.89,23.2-8.45" fill="#fff"/><path id="o" d="m23.27,32.97c-1.64,5.91,2.04,24.06,9.96,27.76-7.79.87-16.16-21.03-9.96-27.76" fill="#fff"/><path id="p" d="m18.5,31.67c-1.21,6.91,2.57,27.38,11.7,30.8-9.45,1.06-18.16-22.81-11.7-30.8" fill="#fff"/><path id="q" d="m13.95,33.19c-2.32,7.36,2.47,23.98,9.75,27.11-7.53,1.77-16.61-21.2-9.75-27.11" fill="#fff"/><path id="r" d="m8.74,34.92c-.93,4.74,1.64,20.17,8.45,23.21-6.81.28-12.89-16.69-8.45-23.21" fill="#fff"/><path id="s" d="m79.02,47.82c-9.54.02-15.21-7-15.23-15.5v-.09c-.02-8.16,5.88-15.64,14.9-15.66,4.06-.15,8.01,1.26,11.06,3.94l-1.46,1.69c-2.64-2.44-6.13-3.73-9.72-3.6-7.34.01-12.46,6.24-12.44,13.54v.08c.02,7.81,4.91,13.63,12.98,13.61,3.51-.04,6.9-1.26,9.62-3.47l-.02-8.67-10.1.02v-2.07l12.26-.03.03,11.65c-3.28,2.9-7.49,4.52-11.86,4.56" fill="#fff"/><rect id="t" x="99.27" y="17.04" width="2.25" height="30.22" transform="translate(-.07 .22) rotate(-.12)" fill="#fff"/><path id="u" d="m123.52,47.42h-1.99l-13.36-30.4h2.5s11.89,27.77,11.89,27.77l11.81-27.82h2.37l-13.22,30.46Z" fill="#fff"/><path id="v" d="m143.21,47.17l-.07-30.21,21.49-.05v2.07l-19.25.04.03,11.87,17.31-.04v2.07l-17.31.04.03,12.13,19.47-.04v2.07l-21.7.04Z" fill="#fff"/><path id="w" d="m174.62,21.8h-1.11v-3.91h-1.46v-.99h4.03v.99h-1.46v3.91Zm4.99-1.16h-.09l-1.35-2.14v3.3h-1.05v-4.89h1.18l1.29,2.06,1.29-2.06h1.14v4.89h-1.05v-3.3l-1.35,2.14Z" fill="#fff"/></g></svg>