<?xml version="1.0" encoding="utf-8"?>
<!-- Generator: Adobe Illustrator 27.1.1, SVG Export Plug-In . SVG Version: 6.00 Build 0)  -->
<svg version="1.1" id="Layer_1" xmlns="http://www.w3.org/2000/svg" xmlns:xlink="http://www.w3.org/1999/xlink" x="0px" y="0px"
	 viewBox="0 0 55.2 62.5" style="enable-background:new 0 0 55.2 62.5;" xml:space="preserve">
<style type="text/css">
	.st0{fill:#FFFFFF;}
</style>
<g>
	<path id="Path_2025" class="st0" d="M25.6,33.5c5.9,1.6,24.1-2,27.8-10C54.3,31.3,32.4,39.7,25.6,33.5"/>
	<path id="Path_2026" class="st0" d="M24.3,38.3c6.9,1.2,27.4-2.6,30.8-11.7C56.2,36,32.3,44.7,24.3,38.3"/>
	<path id="Path_2027" class="st0" d="M25.8,42.8c7.4,2.3,24-2.5,27.1-9.7C54.7,40.6,31.8,49.7,25.8,42.8"/>
	<path id="Path_2028" class="st0" d="M27.6,48c4.7,0.9,20.2-1.6,23.2-8.4C51.1,46.4,34.1,52.5,27.6,48"/>
	<path id="Path_2029" class="st0" d="M31.9,29.5c1.6-5.9-2-24.1-10-27.8C29.7,0.9,38.1,22.8,31.9,29.5"/>
	<path id="Path_2030" class="st0" d="M36.7,30.8C37.9,23.9,34.1,3.5,25,0C34.4-1,43.1,22.8,36.7,30.8"/>
	<path id="Path_2031" class="st0" d="M41.2,29.3c2.3-7.4-2.5-24-9.7-27.1C39,0.4,48.1,23.4,41.2,29.3"/>
	<path id="Path_2032" class="st0" d="M46.4,27.6c0.9-4.7-1.6-20.2-8.4-23.2C44.8,4.1,50.9,21.1,46.4,27.6"/>
	<path id="Path_2033" class="st0" d="M29.5,29c-5.9-1.6-24.1,2-27.8,10C0.9,31.2,22.8,22.8,29.5,29"/>
	<path id="Path_2034" class="st0" d="M30.8,24.2C23.9,23,3.5,26.8,0,35.9C-1,26.5,22.8,17.8,30.8,24.2"/>
	<path id="Path_2035" class="st0" d="M29.3,19.7c-7.4-2.3-24,2.5-27.1,9.7C0.4,21.9,23.4,12.8,29.3,19.7"/>
	<path id="Path_2036" class="st0" d="M27.6,14.5c-4.7-0.9-20.2,1.6-23.2,8.5C4.1,16.1,21.1,10,27.6,14.5"/>
	<path id="Path_2037" class="st0" d="M23.3,33c-1.6,5.9,2,24.1,10,27.8C25.4,61.6,17.1,39.7,23.3,33"/>
	<path id="Path_2038" class="st0" d="M18.5,31.7c-1.2,6.9,2.6,27.4,11.7,30.8C20.8,63.5,12,39.7,18.5,31.7"/>
	<path id="Path_2039" class="st0" d="M13.9,33.2c-2.3,7.4,2.5,24,9.7,27.1C16.2,62.1,7.1,39.1,13.9,33.2"/>
	<path id="Path_2040" class="st0" d="M8.7,34.9c-0.9,4.7,1.6,20.2,8.4,23.2C10.4,58.4,4.3,41.4,8.7,34.9"/>
</g>
</svg>
