<svg xmlns="http://www.w3.org/2000/svg" xmlns:xlink="http://www.w3.org/1999/xlink" width="62.122" height="45.192" viewBox="0 0 62.122 45.192">
  <defs>
    <clipPath id="clip-path">
      <rect id="Rectangle_1107" data-name="Rectangle 1107" width="62.122" height="45.192" fill="#4498d8"/>
    </clipPath>
  </defs>
  <g id="Group_5211" data-name="Group 5211" transform="translate(0 -1368.172)">
    <g id="Group_5188" data-name="Group 5188" transform="translate(0 1368.172)" clip-path="url(#clip-path)">
      <path id="Path_2330" data-name="Path 2330" d="M62.122,9.191C41.415,20.846,20.707-2.463,0,9.191V3.364c20.707-11.654,41.415,11.654,62.122,0V9.191" transform="translate(0 0)" fill="#4498d8"/>
      <path id="Path_2331" data-name="Path 2331" d="M62.122,23.067C41.415,34.72,20.707,11.413,0,23.067V17.24c20.707-11.654,41.415,11.654,62.122,0v5.827" transform="translate(0 2.442)" fill="#4498d8"/>
      <path id="Path_2332" data-name="Path 2332" d="M62.122,36.943C41.415,48.6,20.707,25.289,0,36.943V31.116c20.707-11.654,41.415,11.654,62.122,0v5.827" transform="translate(0 4.884)" fill="#4498d8"/>
    </g>
  </g>
</svg>
