<svg xmlns="http://www.w3.org/2000/svg" xmlns:xlink="http://www.w3.org/1999/xlink" width="60.93" height="47.613" viewBox="0 0 60.93 47.613">
  <defs>
    <clipPath id="clip-path">
      <rect id="Rectangle_1109" data-name="Rectangle 1109" width="60.93" height="47.613" fill="#4498d8"/>
    </clipPath>
  </defs>
  <g id="Group_5212" data-name="Group 5212" transform="translate(0 -1367.489)">
    <g id="Group_5190" data-name="Group 5190" transform="translate(0 1367.489)" clip-path="url(#clip-path)">
      <path id="Path_2333" data-name="Path 2333" d="M.223,28.64v-14H6.258a4.266,4.266,0,0,1,1.893.425,4.927,4.927,0,0,1,1.489,1.1,5.174,5.174,0,0,1,.976,1.559,4.678,4.678,0,0,1,.355,1.765A5.132,5.132,0,0,1,9.7,22.852,4.443,4.443,0,0,1,8.24,23.937a4.363,4.363,0,0,1-1.883.4H4.068v4.3Zm3.845-7.652H6.1a.9.9,0,0,0,.661-.325,1.735,1.735,0,0,0,.3-1.174,1.553,1.553,0,0,0-.354-1.184A1.078,1.078,0,0,0,6,17.991H4.068Z" transform="translate(0.039 2.577)" fill="#4498d8"/>
      <path id="Path_2334" data-name="Path 2334" d="M21.262,28.64V21.265l-2.347,5.187H16.864l-2.347-5.187V28.64H10.671v-14h4.2l3.018,6.587,3.038-6.587h4.181v14Z" transform="translate(1.878 2.577)" fill="#4498d8"/>
      <path id="Path_2335" data-name="Path 2335" d="M28.346,28.664a20.851,20.851,0,0,1,.119-2.377,6.115,6.115,0,0,1,.473-1.805,4.093,4.093,0,0,1,1.036-1.389,7.714,7.714,0,0,1,1.8-1.135q.612-.295,1.164-.581a6.02,6.02,0,0,0,.976-.622,2.761,2.761,0,0,0,.67-.749,1.813,1.813,0,0,0,.247-.947,1.1,1.1,0,0,0-.386-.976,1.532,1.532,0,0,0-.9-.267A3.153,3.153,0,0,0,32,18.252a6.5,6.5,0,0,0-1.351.984l-2.307-2.5a5.642,5.642,0,0,1,.977-.837,7.313,7.313,0,0,1,1.321-.721,8.45,8.45,0,0,1,1.608-.493,9.106,9.106,0,0,1,1.833-.178A5.426,5.426,0,0,1,37.8,15.667,4.224,4.224,0,0,1,39.115,19a4.865,4.865,0,0,1-.187,1.421,3.669,3.669,0,0,1-.543,1.095,4.5,4.5,0,0,1-.877.888,10.473,10.473,0,0,1-1.174.779l-.848.483a7.439,7.439,0,0,0-.779.5,2.756,2.756,0,0,0-.562.542.982.982,0,0,0-.218.6h5.206v3.353Z" transform="translate(4.989 2.553)" fill="#4498d8"/>
      <rect id="Rectangle_1108" data-name="Rectangle 1108" width="3.038" height="3.629" transform="translate(46.055 27.588)" fill="#4498d8"/>
      <path id="Path_2336" data-name="Path 2336" d="M48.6,19.452a5.081,5.081,0,0,1,1.873.335,4.453,4.453,0,0,1,1.47.937,4.211,4.211,0,0,1,.967,1.441,5.069,5.069,0,0,1-.049,3.8,4.351,4.351,0,0,1-1.115,1.518,5.233,5.233,0,0,1-1.716.985,6.978,6.978,0,0,1-4.97-.216,4.341,4.341,0,0,1-1.9-1.637l2.051-2.367a4.4,4.4,0,0,0,1.271.957,3.082,3.082,0,0,0,1.371.346,1.587,1.587,0,0,0,1.143-.4,1.4,1.4,0,0,0,.414-1.065,1.453,1.453,0,0,0-.374-1.044,1.3,1.3,0,0,0-.987-.4,1.566,1.566,0,0,0-.759.188,1.287,1.287,0,0,0-.523.5H43.549l1.657-8.718h7.021v3.412H47.907l-.216,1.518c.052-.013.125-.026.216-.039.066-.013.158-.027.276-.039a3.55,3.55,0,0,1,.414-.021" transform="translate(7.595 2.574)" fill="#4498d8"/>
      <path id="Path_2337" data-name="Path 2337" d="M5.5,7.633A2.752,2.752,0,1,1,2.753,4.881,2.752,2.752,0,0,1,5.5,7.633" transform="translate(0 0.859)" fill="#4498d8"/>
      <path id="Path_2338" data-name="Path 2338" d="M14.227,7.633a2.752,2.752,0,1,1-2.752-2.752,2.752,2.752,0,0,1,2.752,2.752" transform="translate(1.535 0.859)" fill="#4498d8"/>
      <path id="Path_2339" data-name="Path 2339" d="M9.952,2.752A2.752,2.752,0,1,1,7.2,0,2.752,2.752,0,0,1,9.952,2.752" transform="translate(0.783 0)" fill="#4498d8"/>
      <path id="Path_2340" data-name="Path 2340" d="M47.131,33.679a2.752,2.752,0,1,1,2.752,2.752,2.752,2.752,0,0,1-2.752-2.752" transform="translate(8.295 5.443)" fill="#4498d8"/>
      <path id="Path_2341" data-name="Path 2341" d="M38.409,33.679a2.752,2.752,0,1,1,2.752,2.752,2.752,2.752,0,0,1-2.752-2.752" transform="translate(6.76 5.443)" fill="#4498d8"/>
      <path id="Path_2342" data-name="Path 2342" d="M42.685,38.559a2.752,2.752,0,1,1,2.752,2.752,2.752,2.752,0,0,1-2.752-2.752" transform="translate(7.512 6.302)" fill="#4498d8"/>
    </g>
  </g>
</svg>
