<svg id="Group_5210" data-name="Group 5210" xmlns="http://www.w3.org/2000/svg" xmlns:xlink="http://www.w3.org/1999/xlink" width="80.619" height="59.568" viewBox="0 0 80.619 59.568">
  <defs>
    <clipPath id="clip-path">
      <rect id="Rectangle_1106" data-name="Rectangle 1106" width="80.619" height="59.568" fill="none"/>
    </clipPath>
  </defs>
  <g id="Group_5186" data-name="Group 5186" transform="translate(0)" clip-path="url(#clip-path)">
    <path id="Path_2326" data-name="Path 2326" d="M55.72,18.638a19.079,19.079,0,0,0-37.912,0A17.716,17.716,0,0,0,19.441,54H54.086A17.716,17.716,0,0,0,55.72,18.638Z" transform="translate(3.546 1.924)" fill="none" stroke="#4498d8" stroke-miterlimit="10" stroke-width="2.8"/>
    <path id="Path_2327" data-name="Path 2327" d="M15.459,28.5a7.722,7.722,0,0,1,2.093-5.257,7.96,7.96,0,0,1,2.487-1.766,7.878,7.878,0,0,1,3.336-.676,7.813,7.813,0,0,1,3.893.927,6.056,6.056,0,0,1,2.454,2.454l-3.249,2.312a2.761,2.761,0,0,0-.579-.938,2.927,2.927,0,0,0-.8-.588,3.38,3.38,0,0,0-.9-.306,5,5,0,0,0-.906-.087,3.28,3.28,0,0,0-1.582.36,3.237,3.237,0,0,0-1.09.938,4.033,4.033,0,0,0-.633,1.308,5.274,5.274,0,0,0-.207,1.45,5.009,5.009,0,0,0,.24,1.55,4.047,4.047,0,0,0,.7,1.308,3.432,3.432,0,0,0,1.123.906,3.25,3.25,0,0,0,1.495.338,4.323,4.323,0,0,0,.895-.1,3.358,3.358,0,0,0,.883-.328,2.97,2.97,0,0,0,.762-.589,2.6,2.6,0,0,0,.535-.883L29.875,32.9a4.417,4.417,0,0,1-1.058,1.528A6.714,6.714,0,0,1,27.2,35.566a8.545,8.545,0,0,1-1.942.7,8.993,8.993,0,0,1-2.017.24,7.18,7.18,0,0,1-3.152-.687A8.017,8.017,0,0,1,17.629,34a8.273,8.273,0,0,1-1.6-2.574,7.9,7.9,0,0,1-.567-2.922" transform="translate(5.963 5.281)" fill="#4498d8"/>
    <path id="Path_2328" data-name="Path 2328" d="M35.538,36.578a6.167,6.167,0,0,1-3.054-.73,7.114,7.114,0,0,1-2.192-1.877,8.21,8.21,0,0,1-1.33-2.54,8.862,8.862,0,0,1-.447-2.7A8.7,8.7,0,0,1,30.4,23.394a7.136,7.136,0,0,1,2.2-1.822,6.518,6.518,0,0,1,5.976.054,7.28,7.28,0,0,1,2.2,1.909,8.39,8.39,0,0,1,1.33,2.541,8.228,8.228,0,0,1-.044,5.473,8.274,8.274,0,0,1-1.4,2.52,7.183,7.183,0,0,1-2.2,1.81,6.073,6.073,0,0,1-2.933.7m-2.7-7.852a6.9,6.9,0,0,0,.153,1.441,4.681,4.681,0,0,0,.48,1.308,2.9,2.9,0,0,0,.84.96,2.236,2.236,0,0,0,2.5-.021,2.893,2.893,0,0,0,.84-1,4.938,4.938,0,0,0,.459-1.319,6.727,6.727,0,0,0-.011-2.8,4.712,4.712,0,0,0-.48-1.309,2.912,2.912,0,0,0-.84-.958,2.249,2.249,0,0,0-2.508.021,2.939,2.939,0,0,0-.829,1,4.965,4.965,0,0,0-.457,1.319,6.9,6.9,0,0,0-.142,1.363" transform="translate(8.26 5.295)" fill="#4498d8"/>
    <path id="Path_2329" data-name="Path 2329" d="M41.539,40.424a7.07,7.07,0,0,1,.131-1.439,3.683,3.683,0,0,1,.426-1.12,3.469,3.469,0,0,1,.76-.891,7.169,7.169,0,0,1,1.152-.768q.884-.473,1.4-.76c.343-.192.6-.346.776-.466a1.187,1.187,0,0,0,.335-.3.517.517,0,0,0,.073-.269.706.706,0,0,0-.261-.6,1.176,1.176,0,0,0-.72-.2,2.023,2.023,0,0,0-1.022.278,4,4,0,0,0-1.005.9l-1.962-2.3a3.339,3.339,0,0,1,.8-.629,5.952,5.952,0,0,1,1.088-.49,8.108,8.108,0,0,1,1.267-.32,8.253,8.253,0,0,1,1.374-.114A4.505,4.505,0,0,1,49,31.7a2.619,2.619,0,0,1,.973,2.167,2.715,2.715,0,0,1-.482,1.61,2.941,2.941,0,0,1-.532.58,7.126,7.126,0,0,1-.654.49q-.409.279-.858.532t-.89.564h3.6v2.779Z" transform="translate(10.553 7.064)" fill="#4498d8"/>
  </g>
</svg>
