<svg xmlns="http://www.w3.org/2000/svg" xmlns:xlink="http://www.w3.org/1999/xlink" width="70.622" height="55.386" viewBox="0 0 70.622 55.386"><defs><clipPath id="a"><rect width="70.622" height="55.386" transform="translate(0 0)" fill="none"/></clipPath></defs><g clip-path="url(#a)"><path d="M67.58,0H3.032A3.034,3.034,0,0,0,0,3.021V42.569A2.914,2.914,0,0,0,2.812,45.6c.068,0,.134,0,.2,0H28.8l-2.055,8.566H21.55a.609.609,0,0,0,0,1.218H48.977a.609.609,0,0,0,0-1.218H43.9L42.149,45.6H67.615a3,3,0,0,0,3-2.965L70.622,3.1A3.082,3.082,0,0,0,67.58,0M42.652,54.166H27.994L30.048,45.6h10.86Zm26.75-11.6a1.784,1.784,0,0,1-.082.57h.049l-.066.053a1.8,1.8,0,0,1-1.651,1.2l-1.849.042.053-.044H3.035a1.683,1.683,0,0,1-1.205-.4,1.726,1.726,0,0,1-.61-1.475l0-5.141H69.4Zm0-6.414H1.218V3.1a1.757,1.757,0,0,1,.44-1.266A1.8,1.8,0,0,1,2.895,1.22l.149,0h64.54A1.866,1.866,0,0,1,69.4,3.109Z" fill="#4498d8"/><path d="M54.431,7.38H54.2a11.275,11.275,0,1,0,.235,0M51.312,28.323a10.092,10.092,0,0,1,1.683-19.64L53.7,8.59l-.009,10.042-1.7,9.9ZM64.32,20a10.138,10.138,0,0,1-10.006,8.777c-.143,0-.287,0-.429-.011l-.69-.047,1.618-9.426h9.6Zm.093-1.923H54.92V8.587l.707.093a10.131,10.131,0,0,1,8.692,8.687Z" fill="#4498d8"/><path d="M36.183,5.375a3.587,3.587,0,0,0-3.662,5.714l.277.35-4.182,6.534-.436-.108A3.566,3.566,0,0,0,25,18.621l-.346.3L19.294,15.63l.1-.435a3.575,3.575,0,1,0-6.979-1.553,3.6,3.6,0,0,0,.746,3.069l.286.342L8.828,24.691l-.272.053a3.575,3.575,0,0,0,.676,7.085h.221a3.575,3.575,0,0,0,1.576-6.677l-.557-.317,4.236-7.011.436.095a3.544,3.544,0,0,0,3.031-.738l.344-.285,5.382,3.3-.088.429a3.576,3.576,0,1,0,6.314-1.5l-.274-.349,4.193-6.542.433.106a3.587,3.587,0,1,0,1.7-6.969M11.352,28.255a2.1,2.1,0,0,1-2.1,2.093H9.249a2.1,2.1,0,1,1,2.1-2.093M15.9,16.515a2.1,2.1,0,1,1,2.1-2.1,2.1,2.1,0,0,1-2.1,2.1m11.419,6.916a2.1,2.1,0,1,1,2.1-2.1,2.1,2.1,0,0,1-2.1,2.1m8.012-12.469a2.1,2.1,0,1,1,2.1-2.1,2.1,2.1,0,0,1-2.1,2.1" fill="#4498d8"/></g></svg>