<svg xmlns="http://www.w3.org/2000/svg" xmlns:xlink="http://www.w3.org/1999/xlink" width="59.855" height="55.347" viewBox="0 0 59.855 55.347"><defs><clipPath id="a"><rect width="59.855" height="55.347" transform="translate(0 0)" fill="none"/></clipPath></defs><g clip-path="url(#a)"><path d="M59.855,11.9a5.15,5.15,0,0,0-5.136-5.139H48.586V.628a.628.628,0,1,0-1.256,0V6.761H30.556V.628a.628.628,0,0,0-1.256,0V6.761H12.525V.628A.629.629,0,0,0,11.9,0h0a.627.627,0,0,0-.627.628V6.761H5.135A5.149,5.149,0,0,0,0,11.9V50.212a5.149,5.149,0,0,0,5.136,5.135H54.72a5.151,5.151,0,0,0,5.135-5.136ZM58.6,50.212a3.89,3.89,0,0,1-3.879,3.88H5.135a3.889,3.889,0,0,1-3.88-3.879V21.54H58.6Zm0-29.927H1.255V11.9a3.888,3.888,0,0,1,3.878-3.88h6.136v6.134a.628.628,0,1,0,1.256,0V8.017H29.3v6.134a.628.628,0,1,0,1.256,0V8.017H47.33v6.137a.628.628,0,1,0,1.256,0V8.02H54.72A3.89,3.89,0,0,1,58.6,11.9Z" fill="#4498d8"/><path d="M20.555,39.455l6.772,4.518a.615.615,0,0,0,.345.106h0a.628.628,0,0,0,.484-.227L39.423,30.328a.629.629,0,0,0-.982-.782L27.551,42.615l-6.291-4.2A.659.659,0,0,0,20.9,38.3a.612.612,0,0,0-.128.014.626.626,0,0,0-.485.744.62.62,0,0,0,.271.4" fill="#4498d8"/></g></svg>