<svg xmlns="http://www.w3.org/2000/svg" xmlns:xlink="http://www.w3.org/1999/xlink" width="18.114" height="21.614" viewBox="0 0 18.114 21.614"><defs><clipPath id="a"><rect width="18.114" height="21.614" fill="none" stroke="#000" stroke-width="0.25"/></clipPath></defs><g transform="translate(-361.5 -439)"><g transform="translate(361.5 439)"><g transform="translate(0 0)" clip-path="url(#a)"><path d="M17.808,0H.3A.3.3,0,0,0,0,.305V21.542l14.308.072h0c.008,0,.014,0,.021,0a.314.314,0,0,0,.1-.02c.009,0,.016-.011.024-.016a.293.293,0,0,0,.072-.047l3.5-3.5s0-.007.007-.01a.3.3,0,0,0,.083-.209V.3a.3.3,0,0,0-.306-.3M14,21H.611V.611H17.5V17.5H14.3a.3.3,0,0,0-.3.306Zm3.073-2.888L14.614,20.57V18.113Z" transform="translate(0 0)"/><path d="M.3-.125H17.81A.43.43,0,0,1,18.239.3V17.807a.427.427,0,0,1-.108.285.137.137,0,0,1-.018.022l-3.5,3.5a.384.384,0,0,1-.1.067h0a.179.179,0,0,1-.039.023.417.417,0,0,1-.125.029.156.156,0,0,1-.04.005L-.125,21.666V.305A.43.43,0,0,1,.3-.125ZM17.927,17.947a.136.136,0,0,1,.016-.019.176.176,0,0,0,.047-.12V.306a.18.18,0,0,0-.18-.181v0H.306A.18.18,0,0,0,.125.3V21.417l14.173.071.025,0a.251.251,0,0,0,.048-.008l.024-.015h0a.206.206,0,0,0,.037-.023ZM.486.486H17.623v17.14H14.3a.18.18,0,0,0-.181.181v3.32H.486Zm16.887.25H.736v20.14H13.873V17.807a.43.43,0,0,1,.427-.431h3.074ZM14.489,17.988h2.884l-2.884,2.884Zm2.28.25h-2.03v2.03Z" transform="translate(0 0)"/><path d="M6.467,26.134a.274.274,0,1,1,0-.547h11.56a.274.274,0,0,1,0,.547Z" transform="translate(-3.284 -13.568)"/><path d="M18.027,26.259H6.467a.4.4,0,1,1,0-.8h11.56a.4.4,0,0,1,0,.8Zm-11.56-.547a.149.149,0,1,0,0,.3h11.56a.149.149,0,0,0,0-.3Z" transform="translate(-3.284 -13.568)"/><path d="M6.467,32.458a.274.274,0,1,1,0-.547h11.56a.274.274,0,0,1,0,.547Z" transform="translate(-3.284 -16.922)"/><path d="M18.027,32.583H6.467a.4.4,0,1,1,0-.8h11.56a.4.4,0,0,1,0,.8Zm-11.56-.547a.149.149,0,1,0,0,.3h11.56a.149.149,0,0,0,0-.3Z" transform="translate(-3.284 -16.922)"/><path d="M6.194,6.886a.274.274,0,0,1,.273-.273h6.341a.274.274,0,1,1,0,.547H6.467a.274.274,0,0,1-.273-.273" transform="translate(-3.285 -3.507)"/><path d="M12.809,7.285H6.467a.4.4,0,0,1-.4-.4h0a.4.4,0,0,1,.4-.4h6.342a.4.4,0,1,1,0,.8Zm-6.49-.4a.15.15,0,0,0,.149.149h6.341a.149.149,0,1,0,0-.3H6.467A.15.15,0,0,0,6.319,6.887Z" transform="translate(-3.285 -3.507)"/><path d="M18.027,13.485H6.467a.274.274,0,1,1,0-.547h11.56a.274.274,0,0,1,0,.547" transform="translate(-3.284 -6.861)"/><path d="M18.027,13.61H6.467a.4.4,0,1,1,0-.8h11.56a.4.4,0,0,1,0,.8Zm-11.56-.547a.149.149,0,1,0,0,.3h11.56a.149.149,0,0,0,0-.3Z" transform="translate(-3.284 -6.861)"/><path d="M18.027,19.809H6.467a.274.274,0,1,1,0-.547h11.56a.274.274,0,0,1,0,.547" transform="translate(-3.284 -10.214)"/><path d="M18.027,19.934H6.467a.4.4,0,1,1,0-.8h11.56a.4.4,0,0,1,0,.8Zm-11.56-.547a.149.149,0,1,0,0,.3h11.56a.149.149,0,0,0,0-.3Z" transform="translate(-3.284 -10.214)"/></g></g></g></svg>