<svg xmlns="http://www.w3.org/2000/svg" width="12.583" height="13.981" viewBox="0 0 12.583 13.981"><path d="M10.486,13.981a2.088,2.088,0,0,1-2.1-2.1q0-.1.052-.489L3.53,8.529A2.074,2.074,0,0,1,2.1,9.088,2.023,2.023,0,0,1,.612,8.476,2.023,2.023,0,0,1,0,6.991,2.023,2.023,0,0,1,.612,5.505,2.023,2.023,0,0,1,2.1,4.893a2.074,2.074,0,0,1,1.433.559L8.441,2.587A1.25,1.25,0,0,1,8.4,2.351q-.008-.114-.008-.254A2.023,2.023,0,0,1,9,.612a2.11,2.11,0,0,1,2.971,0A2.023,2.023,0,0,1,12.583,2.1a2.023,2.023,0,0,1-.612,1.486,2.023,2.023,0,0,1-1.486.612,2.074,2.074,0,0,1-1.433-.559L4.142,6.5a1.25,1.25,0,0,1,.044.236q.008.114.008.254t-.008.254a1.25,1.25,0,0,1-.044.236l4.911,2.866a2.074,2.074,0,0,1,1.433-.559,2.1,2.1,0,0,1,1.486,3.583,2.023,2.023,0,0,1-1.486.612m0-1.4a.688.688,0,1,0-.5-.2.675.675,0,0,0,.5.2M2.1,7.69a.7.7,0,1,0,0-1.4.7.7,0,1,0,0,1.4M10.486,2.8a.688.688,0,0,0,.7-.7.7.7,0,1,0-1.4,0,.688.688,0,0,0,.7.7"/></svg>