<svg xmlns="http://www.w3.org/2000/svg" width="23.249" height="20.291" viewBox="0 0 23.249 20.291"><path d="M19.665,20.291H14.2a.532.532,0,0,1-.51-.551V13.786H9.555V19.74a.532.532,0,0,1-.51.551H3.583a.532.532,0,0,1-.51-.551V10.994H.51a.514.514,0,0,1-.48-.365.579.579,0,0,1,.156-.611L11.3.126a.482.482,0,0,1,.65,0l11.114,9.893a.579.579,0,0,1,.156.611.514.514,0,0,1-.48.365H20.176V19.74a.532.532,0,0,1-.51.551m-4.951-1.1h4.44V10.443a.532.532,0,0,1,.51-.551h1.652L11.624,1.265,1.931,9.893H3.583a.532.532,0,0,1,.51.551v8.746H8.534V13.235a.532.532,0,0,1,.51-.551H14.2a.532.532,0,0,1,.51.551Z" transform="translate(0)"/></svg>