<svg xmlns="http://www.w3.org/2000/svg" width="13.981" height="6.991" viewBox="0 0 13.981 6.991"><path d="M6.292,6.991H3.5A3.372,3.372,0,0,1,1.022,5.969,3.373,3.373,0,0,1,0,3.5,3.373,3.373,0,0,1,1.022,1.022,3.372,3.372,0,0,1,3.5,0h2.8V1.4H3.5A2.023,2.023,0,0,0,2.01,2.01,2.023,2.023,0,0,0,1.4,3.5,2.023,2.023,0,0,0,2.01,4.981,2.023,2.023,0,0,0,3.5,5.593h2.8ZM4.194,2.8H9.787v1.4H4.194Zm3.5,4.194v-1.4h2.8a2.023,2.023,0,0,0,1.486-.612A2.023,2.023,0,0,0,12.583,3.5a2.023,2.023,0,0,0-.612-1.486A2.023,2.023,0,0,0,10.486,1.4H7.69V0h2.8a3.373,3.373,0,0,1,2.473,1.022A3.373,3.373,0,0,1,13.981,3.5a3.373,3.373,0,0,1-1.022,2.473,3.373,3.373,0,0,1-2.473,1.022Z"/></svg>