<svg xmlns="http://www.w3.org/2000/svg" width="20.427" height="20.427" viewBox="0 0 20.427 20.427"><g transform="translate(-361.375 -278.698)"><path d="M-1395-1499v-20l20,20Zm.689-.689h17.651l-17.651-17.651Zm3.323-2.088v-8.581l8.581,8.581Zm.681-.689h6.241l-6.241-6.232Zm-3.919.688v-.689h1.607v.689Zm0-2.469v-.689h.989v.689Zm16.058-.943-11.411-11.411,2.337-2.337,11.412,11.411.781,3.1Zm-8.615-9.567,8.959,8.932,1.822.472-.472-1.822-8.945-8.945Zm-1.867-1.86,1.379,1.374,1.365-1.364-1.376-1.376Zm-5.576,9.9v-.689h1.607v.689Zm0-2.469v-.689h.989v.689Zm0-2.469v-.689h1.607v.689Z" transform="translate(1756.5 1798)"/><path d="M-1374.7-1498.875h-20.427V-1519.3Zm-20.177-.25h19.573l-19.573-19.573Zm18.517-.439h-18.078v-18.078Zm-17.828-.25h17.225l-17.225-17.225v4.571h1.692v.939h-1.692v1.53h1.074v.939h-1.074v1.53h1.692v.939h-1.692v1.53h1.074v.939h-1.074v1.53h1.692v.939h-1.692Zm.085-2.088h1.357v-.439h-1.357Zm0-2.469h.739v-.439h-.739Zm0-2.469h1.357v-.439h-1.357Zm0-2.469h.739v-.439h-.739Zm0-2.469h1.357v-.439h-1.357Zm12,10.127h-9.008v-9.008Zm-8.758-.25h8.154l-8.154-8.154Zm7.1-.439h-6.668V-1509Zm-6.418-.25h5.814l-5.814-5.806Zm15.3-1.662-3.354-.824-11.524-11.524,2.514-2.514,11.524,11.524Zm-3.227-1.05,2.883.708-.722-2.868-11.3-11.3-2.16,2.16Zm2.276.125-2.06-.534-.024-.024-9.048-9.02,1.541-1.54,9.058,9.058Zm-1.932-.759,1.583.411-.41-1.584-8.833-8.833-1.187,1.187Zm-9.511-9.129-1.556-1.551,1.544-1.544,1.553,1.553Zm-1.2-1.551,1.2,1.2,1.188-1.188-1.2-1.2Z" transform="translate(1756.5 1798)"/></g></svg>