<svg xmlns="http://www.w3.org/2000/svg" xmlns:xlink="http://www.w3.org/1999/xlink" width="52.778" height="60" viewBox="0 0 52.778 60"><defs><clipPath id="a"><rect width="52.778" height="60" fill="none"/></clipPath></defs><g clip-path="url(#a)"><path d="M12.394,12.321a.52.52,0,0,0,.647,0l.1-.1a.52.52,0,0,0,0-.647l-1.246-1.246a.52.52,0,0,0-.647,0l-.1.1a.52.52,0,0,0,0,.647Z" transform="translate(-8.36 -7.738)" fill="#1f0f10"/><path d="M68.664,12.531a.52.52,0,0,0,.647,0l1.246-1.246a.52.52,0,0,0,0-.647l-.1-.1a.52.52,0,0,0-.647,0l-1.246,1.246a.426.426,0,0,0,0,.647Z" transform="translate(-51.828 -7.897)" fill="#1f0f10"/><path d="M12.932,68.058a.52.52,0,0,0-.647,0L11.038,69.3a.372.372,0,0,0,0,.6l.1.1a.52.52,0,0,0,.647,0l1.246-1.246a.454.454,0,0,0,0-.6Z" transform="translate(-8.248 -51.471)" fill="#1f0f10"/><path d="M51.754,34.571a23.511,23.511,0,0,0,.4-4.932V21.27A5.286,5.286,0,0,0,47.523,13.5H21.27V2.291A2.285,2.285,0,0,0,18.979,0H2.291A2.285,2.285,0,0,0,0,2.291V18.979A2.285,2.285,0,0,0,2.291,21.27H9.565l2.74,1.147a5.162,5.162,0,0,0,3.685,1.544h4.384L22.216,26.1l.051.051a2.11,2.11,0,0,0,1.494.6h12.6a2.1,2.1,0,0,0,1.494-.6l1.894-2.192h4.333V29.64c0,1.246-2.243,2.291-3.038,2.541h-.051l-3.77,1.481a13.137,13.137,0,0,0-6.28,2.461C24.612,38.6,17.41,41.41,16.186,41.845a3.5,3.5,0,0,0-2.64,3.637v13.1h9.315V51.308c.051-.647.3-1,1.695-1.593.154-.064.57-.247,1.189-.522A13.211,13.211,0,1,0,49.159,38.681a7.784,7.784,0,0,0,2.595-4.11m-1.792-.5a5.8,5.8,0,0,1-2.068,3.2A13.259,13.259,0,0,0,44.2,34.762c2.524-1.242,2.823-2.187,3.322-3.878l.051-.25h.5c.747,0,1.445-.051,2.192-.1-.051,1.2-.15,2.393-.3,3.537m-11.228.955A11.759,11.759,0,1,1,26.975,46.786,11.772,11.772,0,0,1,38.734,35.027M48.069,27.9c.8,0,1.544,0,2.192-.051v.946a21.361,21.361,0,0,1-4.384,0v-.946c.647.051,1.394.051,2.192.051m-2.192-1.1v-2.89h1.644a5,5,0,0,0,2.74-.8V26.8a32.255,32.255,0,0,1-4.384,0m-39.1-7.521v.15H2.291a.5.5,0,0,1-.5-.5V2.291a.5.5,0,0,1,.5-.5H18.979a.5.5,0,0,1,.5.5V13.548H17.234A7.122,7.122,0,1,0,6.726,16.785a.05.05,0,0,1,.051.051Zm0-10.411v6.675A6.165,6.165,0,0,1,14.5,5.928,6.213,6.213,0,0,1,16.14,13.5h-.1a5.254,5.254,0,0,0-1.544.25V8.867A1.573,1.573,0,0,0,12.9,7.274H8.418A1.556,1.556,0,0,0,6.774,8.867m1.794,1.843V8.915h4.085v1.894a8.55,8.55,0,0,1-4.085-.1m4.085,1.147v1a8.583,8.583,0,0,1-4.085-.1v-.946c.1,0,.15.051.2.051a8.6,8.6,0,0,0,1.942.15,13.16,13.16,0,0,0,1.944-.153M10.809,18.73a3.686,3.686,0,0,0,.051.747L8.568,18.182V13.75c.1,0,.15.051.2.051a8.6,8.6,0,0,0,1.942.15,12.779,12.779,0,0,0,1.942-.15v.9a5.3,5.3,0,0,0-1.843,4.032m25.753,6.178a.376.376,0,0,1-.2.1H23.71a.377.377,0,0,1-.2-.1l-.8-.946H37.357ZM15.99,22.117a3.413,3.413,0,0,1-.148-6.825h31.73a3.413,3.413,0,1,1,.048,6.825H15.99Zm29.739,8.469c.25,0,.548.051.8.051-.5,1.644-.647,2.243-2.791,3.288-.165.08-.431.2-.777.345a13.1,13.1,0,0,0-1.438-.4l.122-.049c.5-.15,3.387-1.2,4.085-3.237m-28.942,12.9c1.034-.36,5.946-2.263,11.139-4.287a13.181,13.181,0,0,0-.9,1.463c-5.4,2.134-10.064,4-11.739,4.72a1.846,1.846,0,0,1,1.5-1.9m4.233,13.349-5.678.051V55.74h5.678Zm0-2.092H15.342v-1h5.678Zm2.791-6.723c-1.346.6-2.689,1.295-2.74,3.188V52.8H15.342V46.476c.9-.45,5.7-2.336,11.075-4.466a13.141,13.141,0,0,0-.9,4.776c0,.153.007.3.012.455-.912.412-1.527.691-1.721.779" fill="#1f0f10"/><path d="M127.853,164h1.4a2.352,2.352,0,0,0,4.466,0h8.755a.8.8,0,0,0,0-1.605H133.72a2.354,2.354,0,0,0-4.466,0h-1.4a.8.8,0,0,0,0,1.605m3.632-1.61a.809.809,0,1,1-.807.807.809.809,0,0,1,.807-.807" transform="translate(-96.246 -121.806)" fill="#1f0f10"/><path d="M127.843,187.325h7.7a2.357,2.357,0,0,0,4.471,0h2.454a.8.8,0,0,0,0-1.605h-2.454a2.357,2.357,0,0,0-4.471,0h-7.7a.8.8,0,1,0,0,1.605m9.936-1.612a.809.809,0,1,1,0,1.617.806.806,0,0,1-.8-.725l0-.148a.814.814,0,0,1,.807-.744" transform="translate(-96.239 -139.472)" fill="#1f0f10"/><path d="M127.843,210.645h3.542a2.352,2.352,0,0,0,4.466,0h6.614a.8.8,0,1,0,0-1.605h-6.614a2.354,2.354,0,0,0-4.466,0h-3.542a.8.8,0,1,0,0,1.605m5.778-1.61a.809.809,0,1,1-.8.892l0-.148a.814.814,0,0,1,.807-.744" transform="translate(-96.239 -157.138)" fill="#1f0f10"/></g></svg>