<svg xmlns="http://www.w3.org/2000/svg" xmlns:xlink="http://www.w3.org/1999/xlink" width="63" height="59" viewBox="0 0 63 59"><defs><clipPath id="a"><rect width="63" height="59" fill="none"/></clipPath></defs><g transform="translate(0)" clip-path="url(#a)"><path d="M169.755,228.517h16.877a1.055,1.055,0,0,0,1.055-1.055V214.8a1.055,1.055,0,0,0-1.055-1.055H169.755A1.055,1.055,0,0,0,168.7,214.8v12.658a1.055,1.055,0,0,0,1.055,1.055m1.055-12.658h14.767v10.548H170.81Z" transform="translate(-159.497 -201.796)"/><path d="M619.755,228.517h16.877a1.055,1.055,0,0,0,1.055-1.055V214.8a1.055,1.055,0,0,0-1.055-1.055H619.755A1.055,1.055,0,0,0,618.7,214.8v12.658a1.055,1.055,0,0,0,1.055,1.055m1.055-12.658h14.767v10.548H620.81Z" transform="translate(-584.182 -201.796)"/><rect width="4.219" height="2.11" transform="translate(9.203 28.831)"/><rect width="12.658" height="2.11" transform="translate(15.531 28.831)"/><rect width="18.986" height="2.11" transform="translate(9.203 33.05)"/><rect width="2.11" height="2.11" transform="translate(34.518 28.831)"/><rect width="14.767" height="2.11" transform="translate(38.737 28.831)"/><rect width="18.986" height="2.11" transform="translate(34.518 33.05)"/><path d="M58.014,0H5.274A5.281,5.281,0,0,0,1.547,1.547C.558,2.535,0,2.751,0,6.962V40.97a5.679,5.679,0,0,0,1.547,3.613A5.281,5.281,0,0,0,5.274,46.13H23.065l-.791,6.329H20.041a3.164,3.164,0,1,0,0,6.329H43.247a3.164,3.164,0,1,0,0-6.329H41.014l-.791-6.329H58.014a5.281,5.281,0,0,0,3.727-1.547,4.474,4.474,0,0,0,1.547-3.165V6.962c0-4.211-.558-4.426-1.547-5.415A5.281,5.281,0,0,0,58.014,0ZM5.274,2.11h52.74a3.165,3.165,0,0,1,3.164,3.164V6.751H2.11V5.274A3.165,3.165,0,0,1,5.274,2.11m55.9,36.285H2.11V8.86H61.178ZM44.3,55.623a1.055,1.055,0,0,1-1.055,1.055H20.041a1.055,1.055,0,1,1,0-2.11H43.247A1.055,1.055,0,0,1,44.3,55.623Zm-5.414-3.164H24.4l.791-6.329H38.1ZM58.014,44.02H5.274a3.165,3.165,0,0,1-3.164-3.164V40.5H61.178v.352a3.165,3.165,0,0,1-3.164,3.164" transform="translate(-0.288 -0.07)"/></g></svg>