<svg xmlns="http://www.w3.org/2000/svg" xmlns:xlink="http://www.w3.org/1999/xlink" width="53.745" height="64.352" viewBox="0 0 53.745 64.352"><defs><clipPath id="a"><rect width="53.745" height="64.352" fill="none"/></clipPath></defs><g clip-path="url(#a)"><path d="M52.883,0H21.421a.69.69,0,0,1-.1.1.5.5,0,0,0,0,.134.623.623,0,0,0,0,.149V8.938H.745A.745.745,0,0,0,0,9.683V63.31a.745.745,0,0,0,.745.745H34.724a.745.745,0,0,0,.745-.745V55.117H52.883a.745.745,0,0,0,.745-.745V.745A.745.745,0,0,0,52.883,0M22.628,2.234l9.727,6.7H22.628ZM33.979,14.822V62.565H1.49V10.428H33.979ZM52.138,53.628H35.469V44.168h6.748a.745.745,0,1,0,0-1.49H35.469V38.21h8.238a.745.745,0,1,0,0-1.49H35.469V32.251h6.748a.745.745,0,0,0,0-1.49H35.469V26.292h8.238a.745.745,0,1,0,0-1.49H35.469V19.5h8.476a2.235,2.235,0,0,0,2.234-2.234V16.252a2.235,2.235,0,0,0-2.234-2.234H35.469V9.683a.417.417,0,0,0,0-.149V9.4l-.074-.119-.1-.1L24.252,1.49H52.138ZM35.469,18.01v-2.5h8.476a.745.745,0,0,1,.745.745v1.013a.745.745,0,0,1-.745.745Z" transform="translate(0 0)"/><path d="M23.4,28.88H7.2A2.235,2.235,0,0,0,4.97,31.114v1.013A2.235,2.235,0,0,0,7.2,34.362H23.4a2.235,2.235,0,0,0,2.234-2.234V31.114A2.235,2.235,0,0,0,23.4,28.88m.745,3.247a.759.759,0,0,1-.745.745H7.2a.759.759,0,0,1-.745-.745V31.114A.745.745,0,0,1,7.2,30.37H23.4a.745.745,0,0,1,.745.745Z" transform="translate(2.434 14.141)"/><path d="M22.061,34.74H7.165a.759.759,0,0,0-.745.745.745.745,0,0,0,.745.745h14.9a.745.745,0,0,0,.745-.745.759.759,0,0,0-.745-.745" transform="translate(3.144 17.011)"/><path d="M22.061,37.79H7.165a.745.745,0,0,0-.745.745.759.759,0,0,0,.745.745h14.9a.759.759,0,0,0,.745-.745.745.745,0,0,0-.745-.745" transform="translate(3.144 18.504)"/><path d="M25.559,29.64H5.262V9.343h20.3ZM6.753,28.15H24.07V10.833H6.753Z" transform="translate(2.577 4.575)"/></g></svg>