<svg xmlns="http://www.w3.org/2000/svg" width="25" height="24.911" viewBox="0 0 25 24.911"><g transform="translate(-225.771 -1060.953)"><path d="M0,24.911V.36A.388.388,0,0,1,.36,0H20.589a.346.346,0,0,1,.36.36v2.66a5.747,5.747,0,0,1,.42,8.5l3.542,3.542h0a.34.34,0,0,1-.48.48l-3.481-3.481v8.523a.419.419,0,0,1-.12.24l-3.9,3.9c-.181.18-.3.18-.6.18Zm.72-.6H16.207V20.589a.386.386,0,0,1,.36-.36h3.721V12.541a5.472,5.472,0,0,1-2.941.6,5.684,5.684,0,0,1-4.006-1.621h-5.3a.3.3,0,0,1,0-.6h4.768A5.68,5.68,0,0,1,11.67,7.984H8.043a.3.3,0,0,1,0-.6h3.6a5.706,5.706,0,0,1,8.643-4.829V.72H.72Zm16.207-.541,2.881-2.882H16.927Zm.48-11.225a5.015,5.015,0,0,0,2.881-.9V3.379a4.993,4.993,0,0,0-2.881-.917,5.073,5.073,0,0,0-5.041,4.923h5.281a.3.3,0,0,1,0,.6h-5.26A5.036,5.036,0,0,0,13.7,10.925h3.948a.3.3,0,0,1,0,.6H14.359A5.015,5.015,0,0,0,17.407,12.546ZM20.949,11.1a5.027,5.027,0,0,0,0-7.166ZM3.6,19.448a.442.442,0,0,1-.481-.48v-1.8a.474.474,0,0,1,.481-.48H5.4a.474.474,0,0,1,.48.48v1.8a.473.473,0,0,1-.48.48Zm.06-.54h1.56V17.347H3.661Zm4.381-.481a.3.3,0,0,1,0-.6h9.6a.3.3,0,0,1,0,.6ZM3.6,15.968a.474.474,0,0,1-.481-.48v-1.8a.474.474,0,0,1,.481-.48H5.4a.474.474,0,0,1,.48.48v1.8a.474.474,0,0,1-.48.48Zm.06-.541h1.56V13.866H3.661Zm21.249-.36h.06v.06Zm-16.868-.12a.3.3,0,0,1,0-.6h9.6a.3.3,0,0,1,0,.6ZM3.6,12.546a.474.474,0,0,1-.481-.481v-1.8a.474.474,0,0,1,.481-.48H5.4a.474.474,0,0,1,.48.48v1.8a.474.474,0,0,1-.48.481Zm.06-.6h1.56V10.384H3.661ZM3.6,9a.474.474,0,0,1-.481-.481v-1.8a.475.475,0,0,1,.481-.48H5.4a.474.474,0,0,1,.48.48v1.8A.474.474,0,0,1,5.4,9Zm.06-.54h1.56V6.9H3.661Z" transform="translate(225.771 1060.953)"/></g></svg>