<svg xmlns="http://www.w3.org/2000/svg" xmlns:xlink="http://www.w3.org/1999/xlink" width="56.147" height="57.66" viewBox="0 0 56.147 57.66"><defs><clipPath id="a"><rect width="56.147" height="57.66" fill="none"/></clipPath></defs><g transform="translate(0 0)"><g transform="translate(0 0)" clip-path="url(#a)"><path d="M56.143,12.812c0-5.1-2.672-7.75-7.785-7.764-1.587,0-3.175,0-4.84,0V1a1,1,0,0,0-2,0V4.922h-27V1a1,1,0,0,0-2,0V5.05c-1.617.007-3.069.09-4.5-.02C2.895,4.638-.051,8.351,0,12.965.137,25.082.046,37.2.047,49.32c0,5.683,2.548,8.253,8.177,8.263q19.945.036,39.889.077c5.146.011,8.029-2.846,8.031-7.988q.006-18.43,0-36.86M1.923,11.144A4.736,4.736,0,0,1,6.691,6.8c1.885-.074,3.778-.019,5.83-.016V11a1,1,0,1,0,2,0V6.908h27V11a1,1,0,1,0,2,0V8.7c.007-.211.006-.43,0-.657V6.836c2.333,0,4.453-.118,6.554.033a4.816,4.816,0,0,1,4.282,4.673c.146,2.507.032,5.029.032,7.69H1.875c0-2.739-.168-5.429.048-8.089m52.5,38.643c-.005,3.986-2.163,6.174-6.12,6.167q-20.369-.036-40.737-.113c-3.75-.014-5.783-2.079-5.791-5.877-.018-9.09.017-18.181-.032-27.271-.007-1.248.334-1.63,1.6-1.622,8.248.053,16.5.027,24.746.027,8.192,0,16.385.032,24.577-.031,1.4-.01,1.8.384,1.787,1.785-.06,8.978-.024,17.957-.034,26.935" transform="translate(0 0)"/><rect width="3.551" height="3.482" transform="translate(26.32 27.764)"/><rect width="3.543" height="3.403" transform="translate(45.534 27.793)"/><rect width="3.504" height="3.461" transform="translate(26.36 36.748)"/><rect width="3.487" height="3.493" transform="translate(7.154 45.711)"/><rect width="3.559" height="3.467" transform="translate(26.273 45.75)"/><rect width="3.498" height="3.54" transform="translate(45.508 45.687)"/><rect width="3.42" height="3.526" transform="translate(16.804 27.717)"/><rect width="3.364" height="3.479" transform="translate(36 27.77)"/><rect width="3.436" height="3.459" transform="translate(7.197 36.74)"/><rect width="3.458" height="3.451" transform="translate(16.798 36.744)"/><rect width="3.438" height="3.38" transform="translate(35.978 36.78)"/><rect width="3.381" height="3.552" transform="translate(16.821 45.701)"/><rect width="3.443" height="3.501" transform="translate(35.928 45.726)"/><path d="M49.936,35.531,46.46,39.876l-1.407-1.408a.75.75,0,1,0-1.061,1.061l2,2a.75.75,0,0,0,.53.22h.042a.749.749,0,0,0,.544-.281l4-5a.75.75,0,0,0-1.171-.937" transform="translate(-0.005 -0.005)"/></g></g></svg>