<svg xmlns="http://www.w3.org/2000/svg" xmlns:xlink="http://www.w3.org/1999/xlink" width="60" height="60" viewBox="0 0 60 60"><defs><clipPath id="a"><rect width="60" height="60" fill="none" stroke="#f6f5f3" stroke-width="1"/></clipPath></defs><g clip-path="url(#a)"><path d="M48.841,26.249,29.853,45.308a.9.9,0,0,1-1.271,0L23.5,40.226A1.4,1.4,0,1,0,21.524,42.2l5.082,5.082a3.751,3.751,0,0,0,5.224,0L50.818,28.3a1.365,1.365,0,0,0,0-1.976,1.428,1.428,0,0,0-1.976-.071" transform="translate(-6.206 -7.614)"/><path d="M29.218,48.843a4.27,4.27,0,0,1-2.965-1.205L21.17,42.556a1.856,1.856,0,0,1,0-2.684,1.864,1.864,0,0,1,2.684,0l5.082,5.082a.395.395,0,0,0,.563,0L48.512,25.873a1.983,1.983,0,0,1,1.308-.486,1.819,1.819,0,0,1,1.363.591,1.864,1.864,0,0,1-.011,2.672L32.183,47.638A4.27,4.27,0,0,1,29.218,48.843ZM22.512,40.3a.9.9,0,0,0-.635.277.868.868,0,0,0,0,1.269l5.082,5.082a3.251,3.251,0,0,0,4.516,0L50.464,27.943a.865.865,0,0,0,0-1.269l-.023-.024a.808.808,0,0,0-.622-.262,1,1,0,0,0-.638.229L30.207,45.661a1.395,1.395,0,0,1-1.978,0l-5.082-5.082A.9.9,0,0,0,22.512,40.3Z" transform="translate(-6.206 -7.614)" fill="#f6f5f3"/><path d="M30,0A30,30,0,1,0,60,30,29.975,29.975,0,0,0,30,0m0,57.176A27.176,27.176,0,1,1,57.176,30,27.234,27.234,0,0,1,30,57.176"/><path d="M30,60.5A30.529,30.529,0,0,1,1.894,18.12a30.53,30.53,0,0,1,56.2.029,30.409,30.409,0,0,1,0,23.7A30.744,30.744,0,0,1,41.851,58.1,30.172,30.172,0,0,1,30,60.5Zm0-60A29.5,29.5,0,1,0,59.5,30,29.533,29.533,0,0,0,30,.5Zm0,57.176a27.384,27.384,0,0,1-10.755-2.182,27.893,27.893,0,0,1-14.74-14.74,27.6,27.6,0,0,1,0-21.51,27.893,27.893,0,0,1,14.74-14.74,27.6,27.6,0,0,1,21.51,0,27.893,27.893,0,0,1,14.74,14.74,27.6,27.6,0,0,1,0,21.51,27.893,27.893,0,0,1-14.74,14.74A27.384,27.384,0,0,1,30,57.676ZM30,3.324A26.676,26.676,0,1,0,56.676,30,26.707,26.707,0,0,0,30,3.324Z" fill="#f6f5f3"/></g></svg>