<svg xmlns="http://www.w3.org/2000/svg" xmlns:xlink="http://www.w3.org/1999/xlink" width="34.731" height="26.205" viewBox="0 0 34.731 26.205"><defs><clipPath id="a"><rect width="34.731" height="26.205" fill="#aebed3"/></clipPath></defs><g transform="translate(0 0)" clip-path="url(#a)"><path d="M25.637,26.205H9.093A9.095,9.095,0,0,1,7.76,8.114a9.744,9.744,0,0,1,19.213,0,9.1,9.1,0,0,1-1.335,18.092M17.383,1.332a8.547,8.547,0,0,0-.971.056,8.373,8.373,0,0,0-7.4,7.4l-.061.54-.541.048a7.763,7.763,0,0,0,.688,15.495H25.608a7.762,7.762,0,0,0,.718-15.494l-.541-.048-.061-.54a8.414,8.414,0,0,0-8.34-7.459" transform="translate(0 0)" fill="#aebed3"/><path d="M17.613,27.5a3.672,3.672,0,0,1,1-2.5,3.79,3.79,0,0,1,1.183-.84,4.095,4.095,0,0,1,3.439.119A2.88,2.88,0,0,1,24.4,25.445l-1.546,1.1a1.318,1.318,0,0,0-.275-.446,1.394,1.394,0,0,0-.381-.28,1.6,1.6,0,0,0-.428-.146,2.384,2.384,0,0,0-.431-.041,1.561,1.561,0,0,0-.753.171,1.541,1.541,0,0,0-.519.446,1.921,1.921,0,0,0-.3.622,2.505,2.505,0,0,0-.1.69,2.381,2.381,0,0,0,.114.737,1.928,1.928,0,0,0,.333.622,1.636,1.636,0,0,0,.534.431,1.548,1.548,0,0,0,.711.161,2.067,2.067,0,0,0,.426-.048,1.6,1.6,0,0,0,.42-.156,1.423,1.423,0,0,0,.363-.28,1.24,1.24,0,0,0,.255-.42l1.649.983a2.1,2.1,0,0,1-.5.727,3.192,3.192,0,0,1-.769.541,4.069,4.069,0,0,1-.924.333,4.289,4.289,0,0,1-.96.114,3.417,3.417,0,0,1-1.5-.327,3.816,3.816,0,0,1-1.17-.865,3.936,3.936,0,0,1-.761-1.225,3.761,3.761,0,0,1-.27-1.39" transform="translate(-9.233 -12.496)" fill="#aebed3"/><path d="M36.307,31.4a2.934,2.934,0,0,1-1.453-.347,3.384,3.384,0,0,1-1.043-.893,3.906,3.906,0,0,1-.633-1.208,4.209,4.209,0,0,1-.213-1.285,4.139,4.139,0,0,1,.9-2.539,3.4,3.4,0,0,1,1.047-.867,3.1,3.1,0,0,1,2.843.026,3.467,3.467,0,0,1,1.047.908,3.986,3.986,0,0,1,.633,1.209,4.037,4.037,0,0,1-.687,3.8,3.414,3.414,0,0,1-1.047.861,2.89,2.89,0,0,1-1.4.333m-1.285-3.736a3.291,3.291,0,0,0,.073.686,2.239,2.239,0,0,0,.228.622,1.38,1.38,0,0,0,.4.457,1.064,1.064,0,0,0,1.189-.01,1.374,1.374,0,0,0,.4-.476,2.352,2.352,0,0,0,.218-.628,3.2,3.2,0,0,0-.005-1.332,2.237,2.237,0,0,0-.228-.623,1.388,1.388,0,0,0-.4-.456,1.07,1.07,0,0,0-1.193.01,1.4,1.4,0,0,0-.394.476,2.349,2.349,0,0,0-.217.628,3.3,3.3,0,0,0-.068.648" transform="translate(-17.282 -12.542)" fill="#aebed3"/><path d="M48.283,40.264a3.34,3.34,0,0,1,.062-.685,1.758,1.758,0,0,1,.2-.533,1.651,1.651,0,0,1,.362-.424,3.38,3.38,0,0,1,.548-.365q.42-.225.666-.362c.163-.091.285-.165.369-.222a.571.571,0,0,0,.159-.143.242.242,0,0,0,.035-.128.335.335,0,0,0-.124-.285.562.562,0,0,0-.343-.1.961.961,0,0,0-.486.132,1.9,1.9,0,0,0-.478.428l-.933-1.094a1.6,1.6,0,0,1,.381-.3,2.825,2.825,0,0,1,.518-.233,3.817,3.817,0,0,1,.6-.152,3.961,3.961,0,0,1,.654-.054,2.145,2.145,0,0,1,1.355.363,1.246,1.246,0,0,1,.463,1.031,1.29,1.29,0,0,1-.229.766,1.408,1.408,0,0,1-.253.276,3.377,3.377,0,0,1-.311.233q-.195.133-.408.253t-.423.268h1.713v1.322Z" transform="translate(-25.312 -18.739)" fill="#aebed3"/></g></svg>