<svg xmlns="http://www.w3.org/2000/svg" xmlns:xlink="http://www.w3.org/1999/xlink" width="41.1" height="26.182" viewBox="0 0 41.1 26.182"><defs><clipPath id="a"><rect width="41.1" height="26.182" transform="translate(0 0)" fill="#aebed3"/></clipPath></defs><g transform="translate(0 0)" clip-path="url(#a)"><path d="M16.9,9.365c1.891.009,5.5.031,8.786-.015A4.742,4.742,0,0,0,30.25,5.137a4.681,4.681,0,0,0-9.04-2.1c-.131.368-.421.93-.18,1.311a.549.549,0,0,0,.542.219c.476-.074.644-.514.793-.911a4.718,4.718,0,0,1,.289-.638,3.281,3.281,0,0,1,.919-1.06A3.391,3.391,0,0,1,25.792,1.3a3.353,3.353,0,0,1,.726.131,3.39,3.39,0,0,1-.932,6.652c-2.937.021-6.726.013-8.686.009a.635.635,0,0,0,0,1.27" transform="translate(-9.156 0)" fill="#aebed3"/><path d="M19.826,36.338c-3.286-.046-16.461-.024-18.352-.015a.635.635,0,0,0,0,1.27c1.96,0,15.315-.012,18.252.01a3.394,3.394,0,1,1-2.01,6.125,3.276,3.276,0,0,1-.919-1.06,4.854,4.854,0,0,1-.289-.638c-.148-.4-.317-.836-.793-.91a.546.546,0,0,0-.542.219c-.243.381.046.943.179,1.314a4.681,4.681,0,0,0,9.041-2.1,4.743,4.743,0,0,0-4.566-4.214" transform="translate(-0.485 -20.412)" fill="#aebed3"/><path d="M46.263,30.443l-5.927-5.927a6.5,6.5,0,0,0-3.69-11.02,4.652,4.652,0,0,0-9-1.212c-.131.368-.421.93-.179,1.311a.547.547,0,0,0,.542.219c.476-.074.645-.514.793-.911a4.855,4.855,0,0,1,.289-.638,3.281,3.281,0,0,1,.919-1.06,3.389,3.389,0,0,1,2.219-.657,3.292,3.292,0,0,1,.726.131,3.436,3.436,0,0,1,2.419,2.762,6.516,6.516,0,0,0-5.613,3.9c-5.789.011-18.039,0-19.709,0a.635.635,0,0,0,0,1.27c1.579.007,13.152.025,19.3,0a6.508,6.508,0,0,0,10.131,6.636l5.985,5.985a.558.558,0,0,0,.788-.788M35.729,25.327A5.39,5.39,0,1,1,40.2,22.949a5.39,5.39,0,0,1-4.473,2.378" transform="translate(-5.308 -5.197)" fill="#aebed3"/><path d="M12.342,19.791a.635.635,0,1,0-.611-.611.635.635,0,0,0,.611.611" transform="translate(-6.594 -10.412)" fill="#aebed3"/><path d="M32.885,44.013a.635.635,0,1,0-.611-.611.635.635,0,0,0,.611.611" transform="translate(-18.142 -24.028)" fill="#aebed3"/><path d="M5.02,29.041a.635.635,0,1,0-.611-.611.635.635,0,0,0,.611.611" transform="translate(-2.478 -15.612)" fill="#aebed3"/><path d="M.612,29.041a.635.635,0,0,0,0-1.27.635.635,0,0,0,0,1.27" transform="translate(0 -15.612)" fill="#aebed3"/></g></svg>