<svg xmlns="http://www.w3.org/2000/svg" width="106.87" height="106.87" viewBox="0 0 106.87 106.87"><g transform="translate(8.383 9)"><path d="M44.435-.282A44.728,44.728,0,0,1,61.841,85.637a44.728,44.728,0,0,1-34.811-82.4A44.437,44.437,0,0,1,44.435-.282Zm0,88.87A44.153,44.153,0,1,0,.282,44.435,44.2,44.2,0,0,0,44.435,88.588Z" transform="translate(0 0)" fill="#233757"/><path d="M348.484,105.192a53.418,53.418,0,0,1-43.465-84.5L319.705,31.1a35.425,35.425,0,1,0,28.778-14.782v-18a53.435,53.435,0,1,1,0,106.87Z" transform="translate(-303.432 -7.322)" fill="#778495"/><text transform="translate(47.193 52.786)" fill="#778495" font-size="26" font-family="Raleway-Medium, Raleway" font-weight="500"><tspan x="-23.153" y="0">81%</tspan></text></g></svg>