<svg xmlns="http://www.w3.org/2000/svg" xmlns:xlink="http://www.w3.org/1999/xlink" width="32.044" height="31.204" viewBox="0 0 32.044 31.204"><defs><clipPath id="a"><rect width="32.044" height="31.204" fill="#aebed3"/></clipPath></defs><g transform="translate(0 0)" clip-path="url(#a)"><path d="M22.172,1.8l.749,1.633a1.533,1.533,0,0,0,1.412.918l1.8.021a3.053,3.053,0,0,1,2.982,3.678l-.354,1.761a1.576,1.576,0,0,0,.069.88l.017.047a1.573,1.573,0,0,0,.519.647L30.8,12.458a3.055,3.055,0,0,1,.249,4.729L29.731,18.4a1.532,1.532,0,0,0-.436,1.63l.536,1.715a3.061,3.061,0,0,1-2.581,3.972l-1.784.208a1.527,1.527,0,0,0-1.309,1.059l-.574,1.7a3,3,0,0,1-1.813,1.891.617.617,0,0,1-.068.022,2.99,2.99,0,0,1-2.54-.213l-1.566-.88a1.528,1.528,0,0,0-1.684.086l-1.465,1.039a3.054,3.054,0,0,1-4.574-1.226l-.749-1.633a1.533,1.533,0,0,0-1.412-.918l-1.8-.02a3.081,3.081,0,0,1-1.31-.3A3.045,3.045,0,0,1,3.559,25.7a2.989,2.989,0,0,1-.625-2.541L3.288,21.4a1.577,1.577,0,0,0-.069-.88L3.2,20.472a1.567,1.567,0,0,0-.52-.647L1.241,18.753a3.054,3.054,0,0,1-.249-4.728l1.321-1.217a1.532,1.532,0,0,0,.436-1.63L2.213,9.463A3.107,3.107,0,0,1,3.522,5.927c.017-.01.032-.02.05-.028a3.064,3.064,0,0,1,1.223-.407l1.784-.208A1.527,1.527,0,0,0,7.888,4.224l.574-1.7A2.992,2.992,0,0,1,10.275.634h0v0a3,3,0,0,1,2.607.191l1.566.88a1.582,1.582,0,0,0,.857.21,1.572,1.572,0,0,0,.827-.3L17.6.577A3.054,3.054,0,0,1,22.172,1.8ZM16.022,6.79a8.816,8.816,0,1,0,6.233,2.582A8.784,8.784,0,0,0,16.022,6.79M8.727,8.309A10.316,10.316,0,1,1,5.706,15.6,10.286,10.286,0,0,1,8.727,8.309Zm1.326,7.435a.749.749,0,0,1,1.062-1.056l3.954,3.964,5.794-7.686a.75.75,0,0,1,1.2.9l-6.313,8.375h0a.677.677,0,0,1-.07.08.749.749,0,0,1-1.059,0l-4.565-4.576ZM21.56,4.055l-.749-1.633A1.556,1.556,0,0,0,18.468,1.8L17,2.835a3.032,3.032,0,0,1-3.287.175l-1.565-.88a1.506,1.506,0,0,0-1.34-.1v0A1.516,1.516,0,0,0,9.884,3L9.309,4.7A3.034,3.034,0,0,1,6.75,6.772L4.965,6.98a1.586,1.586,0,0,0-.619.2l-.03.021a1.573,1.573,0,0,0-.489.487,1.553,1.553,0,0,0-.246.641,1.57,1.57,0,0,0,.066.689l.536,1.715a3.028,3.028,0,0,1-.853,3.178L2.008,15.125a1.559,1.559,0,0,0-.4.559,1.66,1.66,0,0,0,.069,1.348,1.559,1.559,0,0,0,.454.514l1.442,1.073A3.072,3.072,0,0,1,4.59,19.912a.74.74,0,0,1,.031.071,3.056,3.056,0,0,1,.132,1.708L4.4,23.452a1.562,1.562,0,0,0,1.526,1.887l1.8.02a3.027,3.027,0,0,1,2.762,1.793l.749,1.633a1.557,1.557,0,0,0,2.345.627l1.465-1.039a3.03,3.03,0,0,1,3.287-.174l1.565.88a1.555,1.555,0,0,0,.657.206,1.573,1.573,0,0,0,.632-.087l.051-.022a1.505,1.505,0,0,0,.927-.965l.574-1.7A3.034,3.034,0,0,1,25.3,24.435l1.785-.208a1.5,1.5,0,0,0,1.137-.706,1.553,1.553,0,0,0,.246-.641,1.57,1.57,0,0,0-.066-.689l-.536-1.715a3.028,3.028,0,0,1,.853-3.178l1.321-1.217a1.559,1.559,0,0,0,.4-.559,1.581,1.581,0,0,0,.109-.683,1.5,1.5,0,0,0-.632-1.18l-1.442-1.073A3.072,3.072,0,0,1,27.456,11.3c-.012-.024-.022-.047-.031-.071a3.056,3.056,0,0,1-.132-1.708l.353-1.762a1.514,1.514,0,0,0-.321-1.3,1.581,1.581,0,0,0-.536-.435,1.563,1.563,0,0,0-.67-.151l-1.8-.021a3.024,3.024,0,0,1-2.762-1.792Z" transform="translate(0 -0.004)" fill="#aebed3"/></g></svg>