<?xml version="1.0" encoding="UTF-8"?>
<svg xmlns="http://www.w3.org/2000/svg" version="1.1" xmlns:xlink="http://www.w3.org/1999/xlink" viewBox="0 0 53.1 86">
  <defs>
    <style>
      .cls-1 {
        fill: #778495;
      }

      .cls-2 {
        fill: #aebed3;
      }

      .cls-3 {
        fill: none;
      }

      .cls-4 {
        clip-path: url(#clippath);
      }

      .cls-5 {
        fill: #f7f7f7;
      }
    </style>
    <clipPath id="clippath">
      <rect class="cls-3" y=".5" width="53.1" height="85"/>
    </clipPath>
  </defs>
  <!-- Generator: Adobe Illustrator 28.6.0, SVG Export Plug-In . SVG Version: 1.2.0 Build 709)  -->
  <g>
    <g id="Layer_1">
      <g class="cls-4">
        <g>
          <path class="cls-1" d="M26.6,85.5c-.4,0-.8,0-1.2,0-9-.4-17.2-5.3-21.6-13.1-4.7-8-5-17.9-.7-26.1L26.6.5l23.5,45.7c4.3,8.2,4,18.1-.7,26.1-4.5,7.8-12.7,12.8-21.7,13.1-.4,0-.8,0-1.2,0M26.6,9.6L6.7,48.1c-3.6,7-3.4,15.3.6,22.1,3.8,6.6,10.7,10.8,18.2,11.1.4,0,.8,0,1.1,0,.3,0,.6,0,.9,0,7.6-.3,14.5-4.4,18.3-11.1,4-6.8,4.2-15.1.6-22.1L26.6,9.6Z"/>
          <path class="cls-5" d="M26.6,86c-.4,0-.8,0-1.2,0-9.2-.4-17.5-5.4-22.1-13.4-4.8-8.2-5.1-18.2-.7-26.6L26.6-.6l24,46.6c4.3,8.4,4.1,18.4-.7,26.6-4.6,7.9-12.9,13-22.1,13.4-.4,0-.8,0-1.2,0ZM26.6,1.6L3.5,46.5c-4.2,8.1-3.9,17.8.7,25.6,4.4,7.7,12.4,12.5,21.2,12.9.4,0,.8,0,1.2,0s.8,0,1.1,0h0c8.8-.4,16.8-5.2,21.3-12.9,4.6-7.9,4.9-17.5.7-25.6L26.6,1.6ZM26.5,81.8c-.4,0-.7,0-1,0-7.7-.3-14.8-4.6-18.6-11.3-4.1-6.9-4.3-15.4-.6-22.6L26.6,8.5l20.3,39.4c3.7,7.1,3.5,15.7-.6,22.6-3.8,6.8-10.9,11.1-18.7,11.3-.3,0-.6,0-.9,0h-.1ZM26.6,10.7L7.2,48.4c-3.5,6.8-3.3,15,.6,21.6,3.7,6.4,10.4,10.5,17.8,10.8.3,0,.6,0,1,0h.1c.3,0,.6,0,.8,0h0c7.4-.3,14.2-4.4,17.9-10.8,3.9-6.6,4.1-14.8.6-21.6L26.6,10.7Z"/>
          <path class="cls-2" d="M26.3,77.1c-1.1,0-2.1-.9-2.1-2.1,0-.9.6-1.7,1.5-2,7.8-2.4,13.7-8.9,15.4-16.8.2-1.1,1.4-1.8,2.5-1.6s1.8,1.4,1.6,2.5h0c-2,9.5-9,17.1-18.2,19.9-.2,0-.4,0-.6,0"/>
          <path class="cls-5" d="M26.3,77.6c-1.1,0-2.1-.8-2.5-1.8-.4-1.4.4-2.8,1.7-3.2,0,0,0,0,0,0,7.6-2.4,13.4-8.7,15-16.5.3-1.2,1.3-2,2.5-2,.2,0,.4,0,.6,0,1.4.3,2.3,1.7,2,3.1-2.1,9.6-9.2,17.4-18.6,20.3-.2,0-.5.1-.7.1ZM43.1,55c-.7,0-1.4.5-1.6,1.2-1.7,8.2-7.7,14.7-15.7,17.2-.8.2-1.3,1.1-1.1,2,0,0,0,0,0,0,.2.7.8,1.1,1.5,1.1.2,0,.3,0,.5,0,9.1-2.8,15.9-10.3,17.9-19.6.2-.9-.4-1.7-1.2-1.9-.1,0-.2,0-.3,0Z"/>
        </g>
      </g>
    </g>
  </g>
</svg>