<svg xmlns="http://www.w3.org/2000/svg" width="181.08" height="181.081" viewBox="0 0 181.08 181.081"><g transform="translate(7.867 9)"><path d="M81.54-.282A82.426,82.426,0,0,1,98.03,1.381a81.375,81.375,0,0,1,29.258,12.312,82.06,82.06,0,0,1,29.644,36A81.411,81.411,0,0,1,161.7,65.051a82.616,82.616,0,0,1,0,32.979,81.375,81.375,0,0,1-12.312,29.258,82.06,82.06,0,0,1-36,29.644A81.411,81.411,0,0,1,98.03,161.7a82.616,82.616,0,0,1-32.979,0,81.375,81.375,0,0,1-29.258-12.312,82.06,82.06,0,0,1-29.644-36A81.413,81.413,0,0,1,1.381,98.03a82.617,82.617,0,0,1,0-32.979A81.375,81.375,0,0,1,13.693,35.793a82.06,82.06,0,0,1,36-29.644A81.412,81.412,0,0,1,65.051,1.381,82.426,82.426,0,0,1,81.54-.282Zm0,163.081A81.259,81.259,0,1,0,.281,81.54,81.351,81.351,0,0,0,81.54,162.8Z" transform="translate(0 0)" fill="#233757"/><path d="M385.589,179.4A90.51,90.51,0,0,1,311.961,36.21l14.686,10.408a72.521,72.521,0,1,0,58.942-30.3v-18a90.54,90.54,0,1,1,0,181.081Z" transform="translate(-302.916 -7.322)" fill="#778495"/><text transform="translate(88.396 98.823)" fill="#778495" font-size="49" font-family="Raleway-Medium, Raleway" font-weight="500"><tspan x="-43.634" y="0">81%</tspan></text></g></svg>