<?xml version="1.0" encoding="UTF-8"?>
<svg xmlns="http://www.w3.org/2000/svg" version="1.1" xmlns:xlink="http://www.w3.org/1999/xlink" viewBox="0 0 80.1 86">
  <defs>
    <style>
      .cls-1 {
        fill: #778495;
      }

      .cls-2 {
        fill: #aebed3;
      }

      .cls-3 {
        fill: none;
      }

      .cls-4 {
        clip-path: url(#clippath-1);
      }

      .cls-5 {
        clip-path: url(#clippath);
      }

      .cls-6 {
        fill: #f7f7f7;
      }
    </style>
    <clipPath id="clippath">
      <rect class="cls-3" y="1" width="80.1" height="84.9"/>
    </clipPath>
    <clipPath id="clippath-1">
      <rect class="cls-3" x="5.6" y="33.3" width="68.8" height="48.9"/>
    </clipPath>
  </defs>
  <!-- Generator: Adobe Illustrator 28.6.0, SVG Export Plug-In . SVG Version: 1.2.0 Build 709)  -->
  <g>
    <g id="Layer_1">
      <g>
        <path class="cls-2" d="M37,1v14.3h-2.7l5.7,9.9,5.7-9.9h-2.7V1h-6Z"/>
        <path class="cls-6" d="M36,0h8v14.3h3.4l-7.4,12.9-7.4-12.9h3.4V0ZM42.1,2h-4v14.3h-2l4,6.9,4-6.9h-2V2Z"/>
        <path class="cls-2" d="M62.1,1v14.3h-2.7l5.7,9.9,5.7-9.9h-2.7V1h-6Z"/>
        <path class="cls-6" d="M61.1,0h8v14.3h3.4l-7.4,12.9-7.4-12.9h3.4V0ZM67.1,2h-4v14.3h-2l4,6.9,4-6.9h-2V2Z"/>
        <path class="cls-2" d="M12,1v14.3h-2.7l5.7,9.9,5.7-9.9h-2.7V1h-6Z"/>
        <path class="cls-6" d="M11,0h8v14.3h3.4l-7.4,12.9-7.4-12.9h3.4V0ZM17,2h-4v14.3h-2l4,6.9,4-6.9h-2V2Z"/>
        <g class="cls-5">
          <g class="cls-4">
            <g>
              <path class="cls-1" d="M58,44c-6.1,0-12.2-1.7-18.2-3.4-10.4-2.9-20.3-5.7-30.3,0-.5.3-1.1,0-1.4-.4-.3-.5,0-1.1.4-1.3,10.7-6,21.4-3,31.8,0,10.4,2.9,20.3,5.7,30.3,0,.5-.3,1.1,0,1.4.4.3.5,0,1.1-.4,1.3-4.2,2.3-8.8,3.5-13.6,3.5"/>
              <path class="cls-1" d="M58,44.5c-6.2,0-12.4-1.7-18.3-3.4-6.1-1.7-11.8-3.3-17.5-3.3-4.3,0-8.6,1.1-12.4,3.2-.7.4-1.6.1-2-.6-.4-.7-.1-1.6.6-2,4.2-2.4,9-3.6,13.9-3.6,6.2,0,12.4,1.7,18.3,3.4,6.1,1.7,11.8,3.3,17.5,3.3,4.3,0,8.6-1.1,12.4-3.2.7-.4,1.6-.1,2,.6.4.7.2,1.6-.6,2,0,0,0,0,0,0-4.2,2.4-9,3.6-13.9,3.6ZM22.1,36.8c5.9,0,11.7,1.6,17.8,3.4,5.9,1.7,12,3.4,18.1,3.4,4.7,0,9.3-1.1,13.4-3.4.2-.1.3-.4.2-.7-.1-.2-.4-.3-.7-.2,0,0,0,0,0,0-3.9,2.2-8.4,3.4-12.9,3.3-5.9,0-11.7-1.6-17.8-3.4-5.9-1.7-12-3.4-18.1-3.4-4.7,0-9.3,1.1-13.4,3.4-.2.1-.3.4-.2.7.1.2.4.3.7.2,0,0,0,0,0,0,3.9-2.2,8.4-3.4,12.9-3.3Z"/>
              <path class="cls-1" d="M58,62c-6.1,0-12.2-1.7-18.2-3.4-10.4-2.9-20.3-5.7-30.3,0-.5.3-1.1,0-1.4-.4-.3-.5,0-1.1.4-1.3,10.7-6,21.4-3,31.8,0,10.4,2.9,20.3,5.7,30.3,0,.5-.3,1.1,0,1.4.4.3.5,0,1.1-.4,1.3-4.2,2.3-8.8,3.5-13.6,3.5"/>
              <path class="cls-1" d="M58,62.5c-6.2,0-12.4-1.7-18.3-3.4-6.1-1.7-11.8-3.3-17.5-3.3-4.3,0-8.6,1.1-12.4,3.2-.7.4-1.6.1-2-.6-.4-.7-.1-1.6.6-2,4.2-2.4,9-3.6,13.9-3.6,6.2,0,12.4,1.7,18.3,3.4,6.1,1.7,11.8,3.3,17.5,3.3,4.3,0,8.6-1.1,12.4-3.2.7-.4,1.6-.1,2,.6.4.7.2,1.6-.6,2,0,0,0,0,0,0-4.2,2.4-9,3.6-13.9,3.6ZM22.1,54.8c5.9,0,11.7,1.6,17.8,3.4,5.9,1.7,12,3.4,18.1,3.4,4.7,0,9.3-1.1,13.4-3.4.2-.1.3-.4.2-.7-.1-.2-.4-.3-.7-.2,0,0,0,0,0,0-3.9,2.2-8.4,3.4-12.9,3.3-5.9,0-11.7-1.6-17.8-3.4-5.9-1.7-12-3.4-18.1-3.4-4.7,0-9.3,1.1-13.4,3.4-.2.1-.3.4-.2.7s.4.3.7.2c0,0,0,0,0,0,3.9-2.2,8.4-3.4,12.9-3.3Z"/>
              <path class="cls-1" d="M58,79c-6.1,0-12.2-1.7-18.2-3.4-10.4-2.9-20.3-5.7-30.3,0-.5.3-1.1,0-1.4-.4-.3-.5,0-1.1.4-1.3,10.7-6,21.4-3,31.8,0,10.4,2.9,20.3,5.7,30.3,0,.5-.3,1.1,0,1.4.4.3.5,0,1.1-.4,1.3-4.2,2.3-8.8,3.5-13.6,3.5"/>
              <path class="cls-1" d="M58,79.5c-6.2,0-12.4-1.7-18.3-3.4h0c-6.1-1.7-11.8-3.3-17.5-3.3-4.3,0-8.6,1.1-12.4,3.2-.7.4-1.6.1-2-.6,0,0,0,0,0,0-.4-.7-.1-1.6.6-2,4.2-2.4,9-3.6,13.9-3.6,6.2,0,12.4,1.7,18.3,3.4,6.1,1.7,11.8,3.3,17.5,3.3,4.3,0,8.6-1.1,12.4-3.2.7-.4,1.6-.1,2,.6.4.7.2,1.6-.6,2,0,0,0,0,0,0-4.2,2.4-9,3.6-13.9,3.5ZM22.1,71.8c5.9,0,11.7,1.6,17.8,3.4h0c5.9,1.7,12,3.4,18.1,3.4,4.7,0,9.3-1.1,13.4-3.4.2-.1.3-.4.2-.7-.1-.2-.4-.3-.7-.2,0,0,0,0,0,0-3.9,2.2-8.4,3.4-12.9,3.3-5.9,0-11.7-1.6-17.8-3.4-5.9-1.7-12-3.4-18.1-3.4-4.7,0-9.3,1.1-13.4,3.4-.2.1-.3.4-.2.7s.4.3.7.2c0,0,0,0,0,0,3.9-2.2,8.4-3.4,12.9-3.3Z"/>
            </g>
          </g>
        </g>
      </g>
    </g>
  </g>
</svg>