<svg xmlns="http://www.w3.org/2000/svg" xmlns:xlink="http://www.w3.org/1999/xlink" width="79.363" height="79.391" viewBox="0 0 79.363 79.391"><defs><clipPath id="a"><rect width="79.363" height="79.391" fill="#aebed3" stroke="#aebed3" stroke-width="0.5"/></clipPath></defs><g clip-path="url(#a)"><path d="M67.488,43.831l0,0,58.286,33.652L121.9,78.52a.949.949,0,1,0,.491,1.832l6.09-1.631h0a.95.95,0,0,0,.671-1.162l-1.632-6.09a.949.949,0,0,0-1.832.491l1.039,3.88L68.437,42.188h0a.949.949,0,1,0-.949,1.643" transform="translate(-57.742 -36.242)" fill="#aebed3"/><path d="M122.119,80.641a1.2,1.2,0,0,1-.285-2.363l3.294-.882L67.368,44.05A1.2,1.2,0,0,1,68.5,41.938h0l.018.011.036.021,0,0,57.764,33.349-.884-3.3a1.2,1.2,0,0,1,1.166-1.481,1.205,1.205,0,0,1,1.149.86l0,.006,1.632,6.09a1.2,1.2,0,0,1-.847,1.468l-.032.009-6.056,1.622A1.2,1.2,0,0,1,122.119,80.641ZM67.553,43.578l.062.035,58.809,33.954-4.469,1.2a.7.7,0,1,0,.362,1.349l.006,0,6.1-1.633a.7.7,0,0,0,.486-.854l-1.631-6.087a.7.7,0,0,0-.851-.475.7.7,0,0,0-.5.837l1.194,4.459L68.307,42.4a.7.7,0,0,0-.753,1.176Z" transform="translate(-57.742 -36.242)" fill="#aebed3"/><path d="M79.085,77.772a.948.948,0,0,0-.671-.277H74.183V52.884a.948.948,0,0,0-.948-.948H63.552a.948.948,0,0,0-.949.948V77.495h-6.66V45.453a.949.949,0,0,0-.949-.949H45.312a.949.949,0,0,0-.949.949V77.495H37.7v-43.3a.948.948,0,0,0-.949-.948H27.073a.948.948,0,0,0-.949.948v43.3H19.468V20.007a.949.949,0,0,0-.949-.949H8.832a.949.949,0,0,0-.949.949V77.495H1.9V.978a.949.949,0,1,0-1.9,0V78.443a.949.949,0,0,0,.949.949H78.414a.949.949,0,0,0,.949-.949h0a.948.948,0,0,0-.278-.671M64.5,53.832h7.786V77.493H64.5ZM46.26,46.4h7.786V77.494H46.26ZM28.021,35.142H35.8V77.493H28.021ZM17.566,20.956V77.494H9.78V20.956Z" transform="translate(0)" fill="#aebed3"/><path d="M78.414,79.641H.949a1.2,1.2,0,0,1-1.2-1.2V.981A1.2,1.2,0,0,1,.949-.25,1.2,1.2,0,0,1,2.147.981V77.245H7.633V20.007a1.2,1.2,0,0,1,1.2-1.2h9.687a1.2,1.2,0,0,1,1.2,1.2V77.245h6.156V34.193a1.191,1.191,0,0,1,.351-.847A1.207,1.207,0,0,1,27.072,33h9.683a1.207,1.207,0,0,1,.847.35,1.191,1.191,0,0,1,.351.847V77.245h6.159V45.453a1.206,1.206,0,0,1,.351-.848,1.191,1.191,0,0,1,.848-.351h9.683a1.191,1.191,0,0,1,.848.351,1.207,1.207,0,0,1,.351.848V77.245h6.16V52.884a1.2,1.2,0,0,1,1.2-1.2h9.684a1.2,1.2,0,0,1,1.2,1.2V77.245h3.981a1.207,1.207,0,0,1,.847.35,1.191,1.191,0,0,1,.351.848v.573l-.1-.093A1.2,1.2,0,0,1,78.414,79.641ZM.949.25a.7.7,0,0,0-.7.72V78.443a.7.7,0,0,0,.7.7H78.414a.7.7,0,0,0,.7-.7v-.014a.694.694,0,0,0-.2-.48.7.7,0,0,0-.493-.2H73.933V52.884a.7.7,0,0,0-.7-.7H63.552a.7.7,0,0,0-.7.7V77.745h-7.16V45.453a.7.7,0,0,0-.2-.494.7.7,0,0,0-.494-.2H45.312a.7.7,0,0,0-.494.2.7.7,0,0,0-.2.494V77.745H37.453V34.193a.694.694,0,0,0-.2-.494.7.7,0,0,0-.493-.2H27.073a.7.7,0,0,0-.494.2.694.694,0,0,0-.2.494V77.745H19.218V20.007a.7.7,0,0,0-.7-.7H8.832a.7.7,0,0,0-.7.7V77.745H1.647V.97a.7.7,0,0,0-.7-.72ZM54.3,77.744H46.01V46.152H54.3Zm-7.786-.5H53.8V46.652H46.51Zm-28.694.5H9.53V20.706h8.286Zm-7.786-.5h7.286V21.206H10.03Zm26.022.5H27.771V34.892h8.282Zm-7.782-.5h7.282V35.392H28.271Zm44.266.5H64.25V53.582h8.286Zm-7.786-.5h7.286V54.082H64.75Z" transform="translate(0)" fill="#aebed3"/></g></svg>