<svg xmlns="http://www.w3.org/2000/svg" xmlns:xlink="http://www.w3.org/1999/xlink" width="27.569" height="26.867" viewBox="0 0 27.569 26.867"><defs><clipPath id="a"><rect width="27.569" height="26.867" fill="#aebed3" stroke="#aebed3" stroke-width="0.2"/></clipPath></defs><g transform="translate(-77.858 -13.913)"><g transform="translate(77.858 13.913)" clip-path="url(#a)"><path d="M187.69,271.207a.979.979,0,0,0-1.621,1.005l-8.475,8.475a.8.8,0,0,0-.146.014l-2.906-2.906a.735.735,0,0,0,.016-.153.783.783,0,1,0-1.51.285l-4.007,4.007a.981.981,0,1,0,.616.616l4.127-4.127a.8.8,0,0,0,.146-.014l2.906,2.906a.739.739,0,0,0-.016.153.783.783,0,1,0,1.51-.285l8.355-8.355a.979.979,0,0,0,1.005-1.621" transform="translate(-163.081 -263.382)" fill="#aebed3"/><path d="M168.729,283.942a1.073,1.073,0,0,1-.764-.316,1.084,1.084,0,0,1,0-1.529,1.067,1.067,0,0,1,.759-.314,1.089,1.089,0,0,1,.288.039l3.92-3.92a.864.864,0,0,1-.04-.259.883.883,0,0,1,1.765,0,.855.855,0,0,1-.008.119l2.834,2.833.069-.006,8.4-8.4a1.081,1.081,0,1,1,1.045.8,1.124,1.124,0,0,1-.288-.039l-8.268,8.268a.864.864,0,0,1,.04.259.883.883,0,0,1-1.765,0,.856.856,0,0,1,.008-.119l-2.834-2.834-.069.006-4.057,4.057a1.076,1.076,0,0,1-1.041,1.364Zm0-1.96a.868.868,0,0,0-.618.256.884.884,0,0,0,0,1.247.879.879,0,0,0,1.455-.9l-.019-.058,4.2-4.2h.041a.7.7,0,0,0,.128-.012l.052-.01,2.982,2.982-.011.053a.644.644,0,0,0-.013.132.683.683,0,1,0,1.317-.249l-.024-.061,8.445-8.445.059.02a.891.891,0,0,0,.285.047.868.868,0,0,0,.618-.256.884.884,0,0,0,0-1.247.879.879,0,0,0-1.455.9l.019.059-8.548,8.548h-.041a.691.691,0,0,0-.128.012l-.052.01-2.982-2.982.011-.053a.638.638,0,0,0,.013-.132.683.683,0,1,0-1.316.249l.024.061-4.1,4.1-.059-.02A.89.89,0,0,0,168.724,281.983Z" transform="translate(-163.081 -263.382)" fill="#aebed3"/><rect width="5.044" height="0.87" transform="translate(5.913 3.906)" fill="#aebed3"/><path d="M-.1-.1H5.144V.97H-.1ZM4.944.1H.1V.77H4.944Z" transform="translate(5.913 3.906)" fill="#aebed3"/><rect width="5.044" height="0.87" transform="translate(5.913 5.558)" fill="#aebed3"/><path d="M-.1-.1H5.144V.97H-.1ZM4.944.1H.1V.77H4.944Z" transform="translate(5.913 5.558)" fill="#aebed3"/><rect width="3.739" height="0.87" transform="translate(5.913 7.21)" fill="#aebed3"/><path d="M-.1-.1H3.839V.97H-.1ZM3.639.1H.1V.77H3.639Z" transform="translate(5.913 7.21)" fill="#aebed3"/><rect width="5.044" height="0.87" transform="translate(12.348 7.21)" fill="#aebed3"/><path d="M-.1-.1H5.144V.97H-.1ZM4.944.1H.1V.77H4.944Z" transform="translate(12.348 7.21)" fill="#aebed3"/><rect width="5.044" height="0.87" transform="translate(12.348 5.558)" fill="#aebed3"/><path d="M-.1-.1H5.144V.97H-.1ZM4.944.1H.1V.77H4.944Z" transform="translate(12.348 5.558)" fill="#aebed3"/><rect width="3.739" height="0.87" transform="translate(13.653 3.906)" fill="#aebed3"/><path d="M-.1-.1H3.839V.97H-.1ZM3.639.1H.1V.77H3.639Z" transform="translate(13.653 3.906)" fill="#aebed3"/><path d="M308.131,643.043l-2.939,2.645-2.475-1.546-3.207,1.6-3.183-1.591-4.012,2.005.388.779,3.624-1.812,3.183,1.591,3.16-1.581,2.617,1.637,3.426-3.083Z" transform="translate(-284.181 -625.149)" fill="#aebed3"/><path d="M308.138,642.9l.716.8-3.556,3.2-2.634-1.647-3.155,1.578-.045-.022-3.138-1.569-3.669,1.835-.477-.958,4.146-2.072.045.022,3.138,1.569,3.212-1.606,2.458,1.536Zm.434.781-.449-.5-2.921,2.629-2.491-1.556-3.2,1.6-.045-.022-3.138-1.569-3.878,1.938.3.6,3.579-1.79.045.022,3.138,1.569,3.165-1.584,2.6,1.626Z" transform="translate(-284.181 -625.149)" fill="#aebed3"/><path d="M27.569,25.566l-2.252-1.3v.866H1.736V2.252H2.6L1.3,0,0,2.252H.866V26H25.317v.866Z" fill="#aebed3"/><path d="M25.217,27.04V26.1H.766V2.352H-.173L1.3-.2,2.775,2.352H1.836V25.031H25.217v-.939l2.552,1.474ZM.966,25.9H25.417v.793l1.952-1.128-1.952-1.128v.793H1.636V2.152h.793L1.3.2.173,2.152H.966Z" fill="#aebed3"/></g></g></svg>