<svg xmlns="http://www.w3.org/2000/svg" xmlns:xlink="http://www.w3.org/1999/xlink" width="95.772" height="88.63" viewBox="0 0 95.772 88.63"><defs><clipPath id="a"><rect width="95.772" height="88.63" fill="#aebed3"/></clipPath></defs><g transform="translate(0 0)"><g transform="translate(0 0)" clip-path="url(#a)"><path d="M75.245,25.725C70.131,20.8,55.941,13.848,55.1,26.2c-.165,2.547-.115,5.138-.115,7.706-1.911-1.461-3.843-2.852-5.844-4.218l0-28.444a1.249,1.249,0,0,0-2.5,0V29.683h-.007c-2,1.366-3.937,2.757-5.844,4.218,0-2.567.049-5.163-.115-7.706-.851-12.349-15.035-5.394-20.149-.471C4.853,40.781-.4,59.167.024,80.448c.165,8.956,9.8,8.675,16.307,7.73,9.427-1.341,24.062-3.818,24.137-16.1.07-11.643.211-23.286.305-34.925,2.287-1.841,4.689-3.583,7.116-5.234,2.427,1.651,4.829,3.393,7.116,5.234.094,11.644.26,23.282.305,34.925.07,12.278,14.706,14.755,24.132,16.1,6.529.945,16.145,1.226,16.307-7.73.425-21.28-4.828-39.663-20.5-54.724M38.221,35.9c-1.742,1.436-3.393,2.876-5.043,4.383-4.239,1.251-7.867.615-11.97-.586h0a1.276,1.276,0,0,0-.706,2.452,25.117,25.117,0,0,0,9.451,1.321,71.958,71.958,0,0,0-7.87,9.617c-4.078,2.072-7.495,2.167-11.949,1.766A1.291,1.291,0,0,0,9.9,57.427c1.3.07,2.571.211,3.888.211-.706.966-1.485,1.837-2.286,2.757a1.279,1.279,0,0,0,1.931,1.676,31.794,31.794,0,0,0,3.583-4.689,22.35,22.35,0,0,0,2.782-.615,48.953,48.953,0,0,0-2.9,5.774,22.74,22.74,0,0,1-7.45,4.5A1.283,1.283,0,0,0,10.465,69.4a37.472,37.472,0,0,0,4.713-2.311C14.567,69.045,14.092,71,13.647,73a1.28,1.28,0,0,0,2.5.566,53.908,53.908,0,0,1,11.288-23.4,20.562,20.562,0,0,0,1.977,6.954,31.057,31.057,0,0,0-1.791,5.609,1.275,1.275,0,0,0,2.477.61c.284-1.155.565-2.286.966-3.442a33.88,33.88,0,0,0,2.4,3.062,1.272,1.272,0,0,0,1.957-1.626c-3.747-4.478-5.658-8.036-5.49-14.095A80.6,80.6,0,0,1,38.2,39.25l-.024,1.741c-.1,10.368-.211,20.715-.285,31.087C37.846,82.495,24.032,84.471,15.95,85.653c-3.3.471-10.061,1.131-12.373-1.837A5.664,5.664,0,0,1,2.562,80.4C2.161,59.9,7.18,42.1,22.29,27.562c2.616-2.522,10.463-7.211,13.975-5.349,1.415.756,1.741,2.733,1.861,4.169.211,3.157.115,6.364.1,9.521M93.2,80.4a5.664,5.664,0,0,1-1.016,3.417c-2.311,2.968-9.071,2.307-12.373,1.837-8.082-1.182-21.9-3.158-21.941-13.576q-.105-16.4-.305-32.827a80.522,80.522,0,0,1,8.271,7.991c.165,6.059-1.746,9.617-5.494,14.095A1.272,1.272,0,0,0,62.3,62.961c.846-.987,1.671-1.981,2.427-3.062.375,1.155.656,2.286.941,3.442a1.275,1.275,0,0,0,2.477-.61,29.673,29.673,0,0,0-1.791-5.609,20.477,20.477,0,0,0,1.981-6.954,53.476,53.476,0,0,1,11.288,23.4,1.28,1.28,0,0,0,2.5-.566c-.446-2-.916-3.957-1.531-5.914A35.854,35.854,0,0,0,85.305,69.4a1.283,1.283,0,0,0,1.016-2.357,22.78,22.78,0,0,1-7.446-4.5,49.7,49.7,0,0,0-2.9-5.774,22.369,22.369,0,0,0,2.781.615,31.794,31.794,0,0,0,3.583,4.689,1.279,1.279,0,0,0,1.932-1.676c-.8-.92-1.582-1.791-2.287-2.757,1.346,0,2.567-.14,3.888-.211a1.291,1.291,0,0,0-.235-2.571c-4.454.4-7.871.306-11.949-1.766a71.714,71.714,0,0,0-7.871-9.617,25.244,25.244,0,0,0,9.451-1.321,1.276,1.276,0,0,0-.706-2.452c-4.1,1.2-7.73,1.837-11.977.586-1.65-1.485-3.3-2.968-5.043-4.383-.02-3.112-.115-6.434.1-9.521.119-1.437.446-3.413,1.862-4.169,3.512-1.862,11.358,2.827,13.974,5.349C88.586,42.1,93.6,59.9,93.2,80.4" transform="translate(0 0)" fill="#aebed3" fill-rule="evenodd"/></g></g></svg>