<?xml version="1.0" encoding="UTF-8"?>
<svg id="Layer_1" xmlns="http://www.w3.org/2000/svg" version="1.1" viewBox="0 0 181.08 181.08099">
  <!-- Generator: Adobe Illustrator 29.0.1, SVG Export Plug-In . SVG Version: 2.1.0 Build 192)  -->
  <defs>
    <style>
      .st0 {
        isolation: isolate;
      }

      .st1 {
        fill: #778495;
      }

      .st2 {
        fill: #233757;
      }
    </style>
  </defs>
  <path class="st2" d="M89.407,8.718c5.53858-.00109,11.06316.55606,16.49,1.663,10.46632,2.14359,20.4081,6.32718,29.258,12.312,13.15492,8.88063,23.45213,21.38567,29.644,36,2.09229,4.94943,3.68941,10.09386,4.76801,15.358,2.21642,10.88128,2.21642,22.09772,0,32.979-2.1436,10.46632-6.32718,20.4081-12.312,29.258-8.88063,13.15492-21.38568,23.45213-36,29.644-4.94943,2.09229-10.09386,3.68941-15.358,4.76801-10.88128,2.21642-22.09772,2.21642-32.979,0-10.46632-2.1436-20.4081-6.32718-29.258-12.312-13.15493-8.88063-23.45214-21.38568-29.644-36-2.09227-4.94944-3.6894-10.09386-4.768-15.358-2.21639-10.88129-2.21639-22.09772,0-32.979,2.14359-10.46632,6.32718-20.4081,12.312-29.258,8.88063-13.15493,21.38567-23.45214,36-29.644,4.94944-2.09228,10.09386-3.68941,15.358-4.768,5.42651-1.10688,10.95075-1.66403,16.489-1.663ZM89.407,171.799c44.87811,0,81.25901-36.3809,81.25901-81.259S134.28511,9.28099,89.407,9.28099,8.148,45.66188,8.148,90.53999c0,0,0,0,0,0,.05015,44.85748,36.40152,81.2093,81.259,81.26v-.00101Z"/>
  <path class="st1" d="M90.54001,181.07799C40.5527,181.09375.01724,140.58383.00146,90.59653c-.00595-18.90439,5.90753-37.33618,16.91055-52.70854l14.686,10.408c-23.31802,32.56459-15.82217,77.86639,16.7424,101.1844,32.56461,23.31802,77.86639,15.82219,101.18442-16.7424,23.31799-32.56458,15.82217-77.86639-16.7424-101.1844-12.31885-8.82096-27.09109-13.56207-42.24243-13.5576V-.00401C140.54413-.00401,181.08051,40.53236,181.08051,90.53648s-40.53638,90.5405-90.5405,90.5405v.00101Z"/>
  <g class="st0">
    <g class="st0">
      <path class="st1" d="M79.52979,97.97461c0,1.56738-.33545,2.98145-1.00439,4.23828-.66992,1.25781-1.56787,2.32715-2.69482,3.20898-1.12695.88281-2.43408,1.56836-3.91992,2.05859-1.4873.49023-3.0625.73438-4.72852.73438-1.73193,0-3.34082-.26953-4.82666-.80762-1.48682-.53906-2.76855-1.27441-3.84668-2.20508-1.07812-.93164-1.92773-2.03418-2.54785-3.30762-.62109-1.27441-.93115-2.64648-.93115-4.11621,0-1.07812.19629-2.07422.58789-2.98926.39209-.91406.88965-1.73047,1.49463-2.4502.604-.71777,1.29883-1.34668,2.08252-1.88574.78418-.53906,1.56787-.95605,2.35205-1.25-.71875-.29395-1.40479-.67773-2.05811-1.15137-.65381-.47363-1.2251-1.01172-1.71484-1.61719-.49023-.60352-.87451-1.26562-1.15137-1.98438-.27783-.71777-.4165-1.48633-.4165-2.30273,0-1.4707.33447-2.76855,1.00439-3.89551.66895-1.12695,1.53516-2.08301,2.59717-2.86719,1.06104-.7832,2.24561-1.37109,3.55225-1.76367,1.30615-.3916,2.61328-.58789,3.91992-.58789,1.30615,0,2.62158.19629,3.94482.58789,1.32275.39258,2.51465.97266,3.57666,1.73926,1.06152.76855,1.92725,1.71582,2.59717,2.84277.66895,1.12695,1.00439,2.4248,1.00439,3.89551,0,1.63379-.53906,3.07031-1.6167,4.31152-1.07812,1.24219-2.35205,2.17285-3.82227,2.79297.88184.36035,1.72266.81738,2.52344,1.37207.80029.55566,1.49463,1.2002,2.08252,1.93555s1.06104,1.56055,1.4209,2.47461c.35938.91504.53906,1.91113.53906,2.98926ZM75.16895,97.68066c0-1.0459-.2373-1.98535-.71045-2.81836-.47412-.83301-1.08643-1.53418-1.8374-2.10645-.75195-.57129-1.60107-1.00488-2.54834-1.29883-.94775-.29395-1.89453-.44043-2.8418-.44043-.97998,0-1.93555.15527-2.8667.46484-.93066.31152-1.76367.75977-2.49902,1.34766-.73486.58789-1.32275,1.29883-1.76367,2.13184s-.66162,1.75586-.66162,2.76855c0,1.0459.23633,1.97656.71045,2.79297.47314.81641,1.08545,1.50293,1.8374,2.05762.75098.55566,1.59277.98828,2.52344,1.29883.93115.31055,1.86963.46582,2.81787.46582.97998,0,1.93555-.16309,2.86621-.49023.93115-.32617,1.76416-.78418,2.49902-1.37207s1.33057-1.29004,1.78857-2.10742c.45703-.81543.68604-1.71484.68604-2.69434ZM60.56689,82.29395c0,.88184.20361,1.6582.6123,2.32812.4082.66992.93896,1.2334,1.59277,1.69043.65283.45801,1.37207.80078,2.15576,1.02832.78418.22949,1.56836.34375,2.35205.34375.78418,0,1.56836-.12305,2.35205-.36816.78418-.24512,1.50244-.5957,2.15625-1.05273.65283-.45703,1.18359-1.0293,1.59229-1.71582.4082-.68555.6123-1.46973.6123-2.35156,0-.81641-.18799-1.55078-.56348-2.20508-.37549-.65332-.87402-1.20801-1.49414-1.66602-.62109-.45703-1.33984-.80859-2.15625-1.05371-.81689-.24512-1.66602-.36719-2.54785-.36719s-1.72363.12207-2.52344.36719c-.80078.24512-1.50293.60547-2.10693,1.07812-.60498.47363-1.09521,1.0459-1.47021,1.71484-.37598.66992-.56348,1.41406-.56348,2.22949Z"/>
      <path class="st1" d="M102.80469,103.90332v3.91992h-17.59082v-3.91992h6.95801v-19.11035c-.29395.39258-.75195.80859-1.37207,1.25-.62109.44043-1.31543.84961-2.08252,1.22461-.76807.37598-1.56055.69434-2.37646.95605-.81689.26172-1.53613.3916-2.15625.3916v-4.11621c.71826,0,1.51904-.20312,2.40088-.6123.88232-.4082,1.72266-.88184,2.52393-1.4209.7998-.53906,1.48584-1.06152,2.05762-1.56836.57129-.50586.90723-.85742,1.00488-1.05273h4.41016v24.05859h6.22266Z"/>
      <path class="st1" d="M113.33984,86.85156c-1.0459,0-2.02637-.1875-2.94043-.56348-.91504-.37598-1.71484-.88281-2.40039-1.51953-.68652-.63672-1.22559-1.39648-1.61719-2.27832-.39258-.88184-.58789-1.81348-.58789-2.79297,0-.98047.19531-1.91113.58789-2.79297.3916-.88184.93066-1.6416,1.61719-2.27832.68555-.6377,1.48535-1.14355,2.40039-1.51953.91406-.375,1.89453-.56348,2.94043-.56348,1.04492,0,2.02539.18848,2.93945.56348.91504.37598,1.71582.88184,2.40137,1.51953.68652.63672,1.22461,1.39648,1.61719,2.27832.3916.88184.58789,1.8125.58789,2.79297,0,.97949-.19629,1.91113-.58789,2.79297-.39258.88184-.93066,1.6416-1.61719,2.27832-.68555.63672-1.48633,1.14355-2.40137,1.51953-.91406.37598-1.89453.56348-2.93945.56348ZM107.45996,106.20605l13.71973-16.5127,13.13184-16.90527,2.10742,1.81348-13.57324,16.41504-13.32812,17.05176-2.05762-1.8623ZM113.33984,84.49902c.62012,0,1.2002-.12988,1.73926-.3916s1.00488-.6123,1.39648-1.05371c.39258-.44141.70215-.94727.93066-1.51855s.34375-1.18359.34375-1.83789c0-.65332-.12305-1.27441-.36816-1.8623-.24414-.58789-.56348-1.10254-.95508-1.54297-.3916-.44141-.85742-.78418-1.39648-1.0293s-1.10254-.36719-1.69043-.36719c-.62109,0-1.2002.13086-1.73926.3916-.53906.26172-1.00488.6123-1.39648,1.05371-.39258.44141-.70312.95508-.93164,1.54297-.22852.58887-.34277,1.19336-.34277,1.81348,0,.6543.11426,1.27441.34277,1.8623s.54688,1.10254.95605,1.54297c.4082.44141.88184.78418,1.4209,1.0293s1.10254.36719,1.69043.36719ZM130.53809,108.31348c-1.0459,0-2.02539-.18848-2.93945-.56348-.91504-.375-1.71484-.88184-2.40137-1.51953-.68555-.63672-1.22461-1.39648-1.61621-2.27832-.39258-.88184-.58789-1.8125-.58789-2.79297,0-.97949.19531-1.91113.58789-2.79297.3916-.88184.93066-1.6416,1.61621-2.27832.68652-.63672,1.48633-1.14355,2.40137-1.51953.91406-.375,1.89355-.56348,2.93945-.56348s2.02539.18848,2.94043.56348c.91406.37598,1.71484.88281,2.40137,1.51953.68555.63672,1.22461,1.39648,1.61621,2.27832.39258.88184.58789,1.81348.58789,2.79297,0,.98047-.19531,1.91113-.58789,2.79297-.3916.88184-.93066,1.6416-1.61621,2.27832-.68652.6377-1.4873,1.14453-2.40137,1.51953-.91504.375-1.89453.56348-2.94043.56348ZM130.53809,105.96094c.62012,0,1.20117-.12988,1.74023-.3916.53906-.26074,1.00391-.6123,1.39648-1.05371.3916-.44043.70215-.94727.93066-1.51855s.34277-1.18359.34277-1.83789c0-.65332-.12207-1.27441-.36719-1.8623s-.56348-1.10254-.95605-1.54297c-.3916-.44141-.85742-.78418-1.39648-1.0293-.53809-.24512-1.10156-.36719-1.69043-.36719-.62012,0-1.2002.13086-1.73926.3916-.53906.26172-1.00391.6123-1.39648,1.05371-.3916.44141-.70312.95508-.93066,1.54395-.22949.58789-.34277,1.19238-.34277,1.8125,0,.6543.11328,1.27441.34277,1.8623.22754.58789.54688,1.10254.95508,1.54297.4082.44141.88184.78418,1.4209,1.0293s1.10254.36719,1.69043.36719Z"/>
    </g>
  </g>
</svg>