<?xml version="1.0" encoding="UTF-8"?>
<svg xmlns="http://www.w3.org/2000/svg" version="1.1" xmlns:xlink="http://www.w3.org/1999/xlink" viewBox="0 0 24.6 86">
  <defs>
    <style>
      .cls-1 {
        fill: #778495;
      }

      .cls-2 {
        fill: #aebed3;
      }

      .cls-3 {
        fill: none;
      }

      .cls-4 {
        clip-path: url(#clippath);
      }
    </style>
    <clipPath id="clippath">
      <rect class="cls-3" y="11.9" width="24.6" height="62.3"/>
    </clipPath>
  </defs>
  <!-- Generator: Adobe Illustrator 28.6.0, SVG Export Plug-In . SVG Version: 1.2.0 Build 709)  -->
  <g>
    <g id="Layer_1">
      <g class="cls-4">
        <g>
          <path class="cls-2" d="M16.3,27.4h-4c-.8,0-1.4-.6-1.4-1.4s.6-1.4,1.4-1.4h4c.8,0,1.4.6,1.4,1.4s-.6,1.4-1.4,1.4"/>
          <path class="cls-2" d="M16.3,34.5h-4c-.8,0-1.4-.6-1.4-1.4,0-.8.6-1.4,1.4-1.4h4c.8,0,1.4.6,1.4,1.4,0,.8-.6,1.4-1.4,1.4"/>
          <path class="cls-2" d="M16.3,41.6h-4c-.8,0-1.4-.6-1.4-1.4,0-.8.6-1.4,1.4-1.4h4c.8,0,1.4.6,1.4,1.4,0,.8-.6,1.4-1.4,1.4"/>
          <path class="cls-1" d="M12.3,74.1c-6.8,0-12.3-5.5-12.3-12.3,0-1.2.2-2.5.6-3.7.9-2.8,2.8-5.2,5.3-6.8V18.3c0-3.6,2.9-6.4,6.4-6.4h0c3.6,0,6.4,2.9,6.4,6.4v33.1c5.8,3.6,7.6,11.1,4,16.9-2.2,3.6-6.2,5.8-10.4,5.8M12.3,14.7h0c-2,0-3.6,1.6-3.6,3.6v34.8l-.7.4c-4.6,2.4-6.4,8.2-4,12.8,2.4,4.6,8.2,6.4,12.8,4,2.2-1.2,3.9-3.2,4.7-5.6,1.4-4.4-.6-9.1-4.7-11.2l-.8-.4V18.3c0-2-1.6-3.6-3.6-3.6"/>
        </g>
      </g>
    </g>
  </g>
</svg>