<svg xmlns="http://www.w3.org/2000/svg" xmlns:xlink="http://www.w3.org/1999/xlink" width="30" height="30" viewBox="0 0 30 30"><defs><clipPath id="a"><rect width="4.512" height="2.926" fill="#aebed3" stroke="#aebed3" stroke-width="0.1"/></clipPath><clipPath id="b"><rect width="17.783" height="4.977" fill="#aebed3" stroke="#aebed3" stroke-width="0.1"/></clipPath><clipPath id="c"><rect width="30" height="30" transform="translate(-0.065 -0.065)" fill="none" stroke="rgba(0,0,0,0)" stroke-width="1"/></clipPath></defs><g transform="translate(-43.329 -21.343)"><g transform="translate(49.532 32.744)"><g transform="translate(6.726 8.408)"><g transform="translate(0 0)" clip-path="url(#a)"><path d="M0,.993A.953.953,0,0,1,.081.6.982.982,0,0,1,.3.287,1.032,1.032,0,0,1,.63.077,1.076,1.076,0,0,1,1.037,0a1.047,1.047,0,0,1,.432.087A.893.893,0,0,1,1.8.337a1.173,1.173,0,0,1,.21.4,1.745,1.745,0,0,1,.075.533,3.011,3.011,0,0,1-.076.72,1.6,1.6,0,0,1-.22.519.947.947,0,0,1-.345.314.957.957,0,0,1-.448.105A1.02,1.02,0,0,1,.486,2.8a1,1,0,0,1-.37-.357l.263-.274A.7.7,0,0,0,1,2.534a.567.567,0,0,0,.484-.254,1.244,1.244,0,0,0,.186-.718.641.641,0,0,1-.264.287.8.8,0,0,1-.41.1A1.018,1.018,0,0,1,.6,1.879a.986.986,0,0,1-.315-.2.959.959,0,0,1-.21-.3A.938.938,0,0,1,0,.993M1.033.375A.57.57,0,0,0,.8.424.615.615,0,0,0,.607.557a.642.642,0,0,0-.131.2A.584.584,0,0,0,.427.989a.57.57,0,0,0,.049.234A.619.619,0,0,0,.8,1.545a.6.6,0,0,0,.472,0,.635.635,0,0,0,.194-.129A.6.6,0,0,0,1.6,1.224.577.577,0,0,0,1.646.993.6.6,0,0,0,1.6.755.63.63,0,0,0,1.269.424.583.583,0,0,0,1.033.375" transform="translate(0 0)" fill="#aebed3"/><path d="M.993,2.976a1.074,1.074,0,0,1-.531-.133,1.057,1.057,0,0,1-.388-.375l-.02-.033.337-.352.033.06A.652.652,0,0,0,1,2.484a.515.515,0,0,0,.444-.233,1.045,1.045,0,0,0,.167-.507.72.72,0,0,1-.179.147A.851.851,0,0,1,.993,2a1.072,1.072,0,0,1-.411-.078,1.042,1.042,0,0,1-.331-.214A1.014,1.014,0,0,1,.031,1.39.992.992,0,0,1-.05.993,1.007,1.007,0,0,1,.035.581,1.036,1.036,0,0,1,.266.25,1.088,1.088,0,0,1,.611.03a1.132,1.132,0,0,1,.426-.08,1.1,1.1,0,0,1,.452.091.947.947,0,0,1,.347.264,1.228,1.228,0,0,1,.219.414,1.8,1.8,0,0,1,.077.548A3.075,3.075,0,0,1,2.054,2a1.661,1.661,0,0,1-.228.535,1,1,0,0,1-.363.331A1.01,1.01,0,0,1,.993,2.976ZM.18,2.448a.953.953,0,0,0,.331.307.976.976,0,0,0,.482.121.911.911,0,0,0,.425-.1.9.9,0,0,0,.326-.3,1.561,1.561,0,0,0,.213-.5,2.976,2.976,0,0,0,.075-.708A1.7,1.7,0,0,0,1.96.749a1.129,1.129,0,0,0-.2-.381A.848.848,0,0,0,1.449.132,1,1,0,0,0,1.037.05,1.032,1.032,0,0,0,.648.123a.988.988,0,0,0-.313.2.936.936,0,0,0-.208.3A.908.908,0,0,0,.05.993a.892.892,0,0,0,.072.357.913.913,0,0,0,.2.289.942.942,0,0,0,.3.193A.972.972,0,0,0,.993,1.9a.743.743,0,0,0,.384-.1.6.6,0,0,0,.244-.264l.1.022a1.3,1.3,0,0,1-.195.747A.617.617,0,0,1,1,2.584.753.753,0,0,1,.37,2.249Zm.857-.8a.628.628,0,0,1-.256-.053A.669.669,0,0,1,.572,1.45.676.676,0,0,1,.43,1.243.622.622,0,0,1,.377.989.636.636,0,0,1,.43.733.7.7,0,0,1,.571.522.667.667,0,0,1,.779.378a.647.647,0,0,1,.51,0,.68.68,0,0,1,.355.357A.656.656,0,0,1,1.7.993a.629.629,0,0,1-.052.252.655.655,0,0,1-.142.208.688.688,0,0,1-.209.139A.633.633,0,0,1,1.037,1.644Zm0-1.219A.523.523,0,0,0,.819.469.567.567,0,0,0,.643.592.6.6,0,0,0,.522.772.537.537,0,0,0,.477.989.523.523,0,0,0,.522,1.2a.577.577,0,0,0,.12.177.57.57,0,0,0,.179.12.546.546,0,0,0,.432,0,.588.588,0,0,0,.179-.119.555.555,0,0,0,.12-.176A.529.529,0,0,0,1.6.993.557.557,0,0,0,1.552.774a.58.58,0,0,0-.3-.3A.536.536,0,0,0,1.033.425Z" transform="translate(0 0)" fill="#aebed3"/><path d="M9.37,2.1a.755.755,0,0,1-.083.353.842.842,0,0,1-.224.272,1.03,1.03,0,0,1-.327.174,1.269,1.269,0,0,1-.4.06,1.192,1.192,0,0,1-.4-.066,1.018,1.018,0,0,1-.325-.184A.859.859,0,0,1,7.4,2.429a.8.8,0,0,1-.079-.351.608.608,0,0,1,.045-.234.764.764,0,0,1,.115-.2A.859.859,0,0,1,7.638,1.5a1.035,1.035,0,0,1,.178-.1.722.722,0,0,1-.282-.222A.531.531,0,0,1,7.416.831.634.634,0,0,1,7.5.5.826.826,0,0,1,7.719.26a.974.974,0,0,1,.3-.149A1.115,1.115,0,0,1,8.344.06a1.133,1.133,0,0,1,.329.05,1.033,1.033,0,0,1,.3.147A.78.78,0,0,1,9.2.5.633.633,0,0,1,9.28.826a.535.535,0,0,1-.119.341.728.728,0,0,1-.289.224,1.062,1.062,0,0,1,.188.111.787.787,0,0,1,.159.158.776.776,0,0,1,.109.2A.673.673,0,0,1,9.37,2.1M8.921,2.07a.415.415,0,0,0-.05-.208.509.509,0,0,0-.133-.155.582.582,0,0,0-.186-.1.689.689,0,0,0-.208-.032.672.672,0,0,0-.212.034.571.571,0,0,0-.182.1.523.523,0,0,0-.127.155.432.432,0,0,0-.048.2.411.411,0,0,0,.051.2.489.489,0,0,0,.131.153.607.607,0,0,0,.184.1.646.646,0,0,0,.208.035.648.648,0,0,0,.4-.137.507.507,0,0,0,.129-.153.4.4,0,0,0,.049-.2M7.864.847a.315.315,0,0,0,.045.169.394.394,0,0,0,.113.121.527.527,0,0,0,.154.075.568.568,0,0,0,.169.026.585.585,0,0,0,.171-.026.5.5,0,0,0,.156-.077.411.411,0,0,0,.113-.125A.324.324,0,0,0,8.828.839a.319.319,0,0,0-.04-.159A.4.4,0,0,0,8.681.558.488.488,0,0,0,8.528.482.627.627,0,0,0,8.344.455a.586.586,0,0,0-.183.028.517.517,0,0,0-.154.078.366.366,0,0,0-.1.123.337.337,0,0,0-.039.161" transform="translate(-4.858 -0.04)" fill="#aebed3"/><path d="M8.34,3.007a1.233,1.233,0,0,1-.418-.069,1.073,1.073,0,0,1-.341-.193.911.911,0,0,1-.229-.294.848.848,0,0,1-.084-.373.661.661,0,0,1,.049-.253.817.817,0,0,1,.122-.208.911.911,0,0,1,.169-.16,1.16,1.16,0,0,1,.1-.065A.789.789,0,0,1,7.494,1.2a.583.583,0,0,1-.128-.37A.686.686,0,0,1,7.458.476.88.88,0,0,1,7.689.22,1.028,1.028,0,0,1,8,.063a1.145,1.145,0,0,1,.684,0,1.088,1.088,0,0,1,.318.154.833.833,0,0,1,.233.255A.685.685,0,0,1,9.33.826.587.587,0,0,1,9.2,1.2a.793.793,0,0,1-.218.193,1.142,1.142,0,0,1,.108.07.843.843,0,0,1,.17.168.831.831,0,0,1,.116.213A.726.726,0,0,1,9.42,2.1a.808.808,0,0,1-.089.376.886.886,0,0,1-.238.288,1.083,1.083,0,0,1-.342.182A1.324,1.324,0,0,1,8.34,3.007Zm0-2.9a1.072,1.072,0,0,0-.312.048A.928.928,0,0,0,7.748.3a.78.78,0,0,0-.2.227.587.587,0,0,0-.077.3.479.479,0,0,0,.107.308.677.677,0,0,0,.263.207l.1.045-.1.046a.987.987,0,0,0-.169.1.811.811,0,0,0-.15.142.718.718,0,0,0-.107.183.561.561,0,0,0-.041.215.749.749,0,0,0,.074.329.812.812,0,0,0,.2.262.973.973,0,0,0,.309.175,1.135,1.135,0,0,0,.385.063,1.224,1.224,0,0,0,.38-.058.984.984,0,0,0,.311-.165.789.789,0,0,0,.211-.257A.709.709,0,0,0,9.32,2.1a.626.626,0,0,0-.038-.221.724.724,0,0,0-.251-.335,1.019,1.019,0,0,0-.179-.105l-.1-.047.1-.045a.682.682,0,0,0,.269-.209A.483.483,0,0,0,9.23.826a.587.587,0,0,0-.078-.3A.734.734,0,0,0,8.947.3a.988.988,0,0,0-.289-.14A1.088,1.088,0,0,0,8.344.11Zm0,2.5a.7.7,0,0,1-.224-.037.652.652,0,0,1-.2-.1A.54.54,0,0,1,7.782,2.3a.461.461,0,0,1-.057-.227.484.484,0,0,1,.054-.227.577.577,0,0,1,.14-.171.622.622,0,0,1,.2-.108.734.734,0,0,1,.451,0,.632.632,0,0,1,.2.105.56.56,0,0,1,.146.17.467.467,0,0,1,.057.232.454.454,0,0,1-.055.222.557.557,0,0,1-.141.168.7.7,0,0,1-.427.148Zm0-.981a.625.625,0,0,0-.2.031.523.523,0,0,0-.165.09.477.477,0,0,0-.115.141.384.384,0,0,0-.042.18.363.363,0,0,0,.044.179.441.441,0,0,0,.118.138.555.555,0,0,0,.169.089.587.587,0,0,0,.387,0,.575.575,0,0,0,.17-.093.457.457,0,0,0,.116-.138.351.351,0,0,0,.043-.174.363.363,0,0,0-.044-.183.462.462,0,0,0-.12-.141.533.533,0,0,0-.17-.089A.641.641,0,0,0,8.344,1.627Zm0-.339A.622.622,0,0,1,8.16,1.26a.579.579,0,0,1-.168-.082.444.444,0,0,1-.126-.135.365.365,0,0,1-.052-.2A.388.388,0,0,1,7.858.662a.417.417,0,0,1,.119-.14A.572.572,0,0,1,8.146.436a.632.632,0,0,1,.2-.031.681.681,0,0,1,.2.028.539.539,0,0,1,.169.085.448.448,0,0,1,.12.136.37.37,0,0,1,.047.184.375.375,0,0,1-.052.2.462.462,0,0,1-.126.14.549.549,0,0,1-.171.084A.635.635,0,0,1,8.344,1.288Zm0-.783a.534.534,0,0,0-.168.026A.466.466,0,0,0,8.037.6a.313.313,0,0,0-.091.107.286.286,0,0,0-.033.138A.264.264,0,0,0,7.951.99a.346.346,0,0,0,.1.106.48.48,0,0,0,.14.068.514.514,0,0,0,.311,0,.451.451,0,0,0,.14-.069.36.36,0,0,0,.1-.111A.273.273,0,0,0,8.778.839.271.271,0,0,0,8.745.7.344.344,0,0,0,8.651.6.439.439,0,0,0,8.514.53.573.573,0,0,0,8.344.505Z" transform="translate(-4.858 -0.04)" fill="#aebed3"/></g></g><g transform="translate(0 0)"><g clip-path="url(#b)"><path d="M0,2.7a2.5,2.5,0,0,1,.155-.858,2.373,2.373,0,0,1,.454-.767,2.292,2.292,0,0,1,.73-.548A2.21,2.21,0,0,1,2.314.319,2.071,2.071,0,0,1,3.43.608a1.882,1.882,0,0,1,.7.754l-.592.4A1.353,1.353,0,0,0,3.3,1.4a1.189,1.189,0,0,0-.309-.235,1.346,1.346,0,0,0-.35-.124A1.786,1.786,0,0,0,2.287,1a1.371,1.371,0,0,0-.659.152,1.459,1.459,0,0,0-.474.4,1.785,1.785,0,0,0-.289.558,2.043,2.043,0,0,0-.1.619,1.943,1.943,0,0,0,.114.666,1.8,1.8,0,0,0,.319.558,1.57,1.57,0,0,0,.488.387,1.336,1.336,0,0,0,.619.145,1.556,1.556,0,0,0,.36-.044A1.343,1.343,0,0,0,3.023,4.3a1.44,1.44,0,0,0,.316-.245A1.23,1.23,0,0,0,3.578,3.7l.626.357a1.47,1.47,0,0,1-.323.474,2.06,2.06,0,0,1-.471.346,2.42,2.42,0,0,1-.555.216,2.35,2.35,0,0,1-.575.074,1.981,1.981,0,0,1-.921-.215,2.42,2.42,0,0,1-.72-.562A2.584,2.584,0,0,1,.168,3.6,2.5,2.5,0,0,1,0,2.7" transform="translate(0 -0.212)" fill="#aebed3"/><path d="M2.28,5.212a2.039,2.039,0,0,1-.944-.22A2.481,2.481,0,0,1,.6,4.418a2.647,2.647,0,0,1-.48-.8,2.518,2.518,0,0,1-.014-1.79,2.435,2.435,0,0,1,.464-.783,2.353,2.353,0,0,1,.745-.56,2.269,2.269,0,0,1,1-.214,2.128,2.128,0,0,1,1.143.3,1.94,1.94,0,0,1,.718.773l.02.04-.677.454L3.493,1.78a1.31,1.31,0,0,0-.233-.35,1.144,1.144,0,0,0-.3-.226,1.3,1.3,0,0,0-.337-.12,1.743,1.743,0,0,0-.34-.036,1.329,1.329,0,0,0-.635.146,1.416,1.416,0,0,0-.458.386,1.743,1.743,0,0,0-.281.543,2,2,0,0,0-.1.6,1.9,1.9,0,0,0,.111.649,1.754,1.754,0,0,0,.311.543,1.527,1.527,0,0,0,.472.375,1.355,1.355,0,0,0,.944.1A1.3,1.3,0,0,0,3,4.254,1.4,1.4,0,0,0,3.3,4.017a1.185,1.185,0,0,0,.229-.342l.023-.05.712.406-.017.041a1.527,1.527,0,0,1-.334.49,2.12,2.12,0,0,1-.482.355,2.481,2.481,0,0,1-.566.22A2.411,2.411,0,0,1,2.28,5.212ZM2.314.369a2.17,2.17,0,0,0-.953.2,2.253,2.253,0,0,0-.714.536A2.335,2.335,0,0,0,.2,1.86,2.418,2.418,0,0,0,.215,3.58a2.547,2.547,0,0,0,.462.772,2.381,2.381,0,0,0,.7.55,1.94,1.94,0,0,0,.9.209,2.311,2.311,0,0,0,.563-.072,2.38,2.38,0,0,0,.543-.211,2.02,2.02,0,0,0,.46-.338,1.428,1.428,0,0,0,.294-.417L3.6,3.766a1.262,1.262,0,0,1-.225.322,1.5,1.5,0,0,1-.327.254,1.4,1.4,0,0,1-.37.146,1.455,1.455,0,0,1-1.013-.105,1.627,1.627,0,0,1-.5-.4A1.854,1.854,0,0,1,.834,3.41a2,2,0,0,1-.117-.683,2.1,2.1,0,0,1,.1-.634,1.842,1.842,0,0,1,.3-.574,1.515,1.515,0,0,1,.49-.413A1.427,1.427,0,0,1,2.287.948a1.845,1.845,0,0,1,.36.038,1.4,1.4,0,0,1,.363.129,1.244,1.244,0,0,1,.323.245,1.375,1.375,0,0,1,.226.324l.507-.34A1.846,1.846,0,0,0,3.4.651,2.031,2.031,0,0,0,2.314.369Z" transform="translate(0 -0.212)" fill="#aebed3"/><path d="M14.319,0h.74V3.894a.438.438,0,0,0,.1.306.362.362,0,0,0,.283.111.649.649,0,0,0,.172-.027,1.828,1.828,0,0,0,.185-.06l.108.578a1.707,1.707,0,0,1-.384.118,2.091,2.091,0,0,1-.4.044.813.813,0,0,1-.595-.209.792.792,0,0,1-.212-.592Z" transform="translate(-9.503 0)" fill="#aebed3"/><path d="M14.269-.05h.84V3.894a.392.392,0,0,0,.088.272.312.312,0,0,0,.246.095.6.6,0,0,0,.158-.025,1.786,1.786,0,0,0,.18-.059l.056-.022.126.676-.035.016a1.744,1.744,0,0,1-.395.122,2.15,2.15,0,0,1-.407.045.864.864,0,0,1-.63-.223.843.843,0,0,1-.227-.628Zm.74.1h-.64V4.163a.748.748,0,0,0,.2.556.768.768,0,0,0,.56.194,2.051,2.051,0,0,0,.387-.043,1.718,1.718,0,0,0,.337-.1l-.09-.481c-.043.015-.088.029-.133.041a.7.7,0,0,1-.185.029.411.411,0,0,1-.32-.127.488.488,0,0,1-.114-.339Z" transform="translate(-9.503 0)" fill="#aebed3"/><path d="M21.462,7.606a1.867,1.867,0,0,1-.746-.145,1.725,1.725,0,0,1-.575-.393,1.773,1.773,0,0,1-.37-.578,1.873,1.873,0,0,1-.131-.7,1.9,1.9,0,0,1,.131-.7,1.807,1.807,0,0,1,.37-.585,1.708,1.708,0,0,1,.575-.4,1.886,1.886,0,0,1,.753-.145,1.814,1.814,0,0,1,.743.148,1.784,1.784,0,0,1,.568.393,1.7,1.7,0,0,1,.36.572,1.906,1.906,0,0,1,.124.683c0,.054,0,.1-.007.151s-.009.086-.013.118H20.426a1.21,1.21,0,0,0,.111.423,1.111,1.111,0,0,0,.236.327,1.034,1.034,0,0,0,.716.286,1.188,1.188,0,0,0,.293-.037,1.035,1.035,0,0,0,.266-.107.946.946,0,0,0,.215-.172.807.807,0,0,0,.148-.222l.632.181a1.469,1.469,0,0,1-.6.649,1.865,1.865,0,0,1-.979.252m1.07-2.092a1.186,1.186,0,0,0-.111-.411,1.063,1.063,0,0,0-.232-.319,1.03,1.03,0,0,0-.329-.2,1.076,1.076,0,0,0-.4-.074,1.048,1.048,0,0,0-.393.074,1.037,1.037,0,0,0-.326.2,1.009,1.009,0,0,0-.229.319,1.229,1.229,0,0,0-.108.411Z" transform="translate(-13.034 -2.628)" fill="#aebed3"/><path d="M21.462,7.656a1.925,1.925,0,0,1-.766-.149,1.782,1.782,0,0,1-.591-.4,1.832,1.832,0,0,1-.381-.594,1.932,1.932,0,0,1-.135-.718,1.961,1.961,0,0,1,.135-.721,1.866,1.866,0,0,1,.381-.6,1.766,1.766,0,0,1,.592-.408,1.944,1.944,0,0,1,.773-.149,1.87,1.87,0,0,1,.764.152,1.843,1.843,0,0,1,.584.4,1.755,1.755,0,0,1,.371.588,1.965,1.965,0,0,1,.128.7c0,.056,0,.107-.007.156s-.009.09-.014.12l-.006.043H20.482a1.14,1.14,0,0,0,.1.352,1.067,1.067,0,0,0,.225.312.98.98,0,0,0,.314.2,1.045,1.045,0,0,0,.648.035.991.991,0,0,0,.253-.1.9.9,0,0,0,.2-.163.761.761,0,0,0,.139-.208l.018-.039.73.209-.024.053a1.525,1.525,0,0,1-.622.671A1.922,1.922,0,0,1,21.462,7.656Zm.007-3.646a1.844,1.844,0,0,0-.734.141,1.666,1.666,0,0,0-.559.385,1.766,1.766,0,0,0-.36.569,1.862,1.862,0,0,0-.128.684,1.832,1.832,0,0,0,.128.681,1.732,1.732,0,0,0,.36.562,1.683,1.683,0,0,0,.559.382,1.962,1.962,0,0,0,1.679-.1,1.443,1.443,0,0,0,.557-.575l-.535-.153a.861.861,0,0,1-.139.2,1,1,0,0,1-.226.181,1.091,1.091,0,0,1-.279.113,1.144,1.144,0,0,1-.71-.039,1.08,1.08,0,0,1-.346-.222,1.167,1.167,0,0,1-.246-.341,1.265,1.265,0,0,1-.116-.441l0-.054H23.2c0-.021,0-.045.007-.072,0-.047.007-.094.007-.147a1.865,1.865,0,0,0-.121-.665,1.656,1.656,0,0,0-.35-.555,1.743,1.743,0,0,0-.552-.382A1.771,1.771,0,0,0,21.469,4.01Zm1.117,1.554H20.351l0-.055a1.285,1.285,0,0,1,.112-.427,1.065,1.065,0,0,1,.24-.335,1.1,1.1,0,0,1,.753-.292,1.13,1.13,0,0,1,.415.077,1.085,1.085,0,0,1,.345.215,1.119,1.119,0,0,1,.243.334,1.242,1.242,0,0,1,.116.428Zm-2.124-.1h2.014a1.127,1.127,0,0,0-.1-.339,1.02,1.02,0,0,0-.221-.3.985.985,0,0,0-.313-.195,1.031,1.031,0,0,0-.379-.071,1,1,0,0,0-.685.265.965.965,0,0,0-.217.3A1.166,1.166,0,0,0,20.462,5.464Z" transform="translate(-13.034 -2.628)" fill="#aebed3"/><path d="M32.65,7.606a1.315,1.315,0,0,1-.474-.084,1.148,1.148,0,0,1-.377-.232,1.082,1.082,0,0,1-.249-.35,1.053,1.053,0,0,1-.091-.437.944.944,0,0,1,.108-.451,1.052,1.052,0,0,1,.306-.35,1.48,1.48,0,0,1,.471-.229,2.114,2.114,0,0,1,.6-.081,2.748,2.748,0,0,1,.491.044,2.475,2.475,0,0,1,.437.118V5.312a.816.816,0,0,0-.222-.609.873.873,0,0,0-.639-.219,1.538,1.538,0,0,0-.555.1,2.787,2.787,0,0,0-.562.3l-.229-.471A2.493,2.493,0,0,1,33.08,3.96a1.61,1.61,0,0,1,1.13.37,1.369,1.369,0,0,1,.4,1.063V6.664c0,.157.065.237.2.242v.632c-.072.013-.134.022-.185.027s-.1.007-.152.007a.477.477,0,0,1-.333-.108.461.461,0,0,1-.145-.276l-.02-.222a1.568,1.568,0,0,1-.582.474,1.711,1.711,0,0,1-.743.165m.2-.545a1.333,1.333,0,0,0,.508-.1.873.873,0,0,0,.373-.272.341.341,0,0,0,.141-.256V5.971a2.3,2.3,0,0,0-.814-.155,1.131,1.131,0,0,0-.649.172.526.526,0,0,0-.252.454.572.572,0,0,0,.2.441.708.708,0,0,0,.5.178" transform="translate(-20.879 -2.628)" fill="#aebed3"/><path d="M32.65,7.656a1.369,1.369,0,0,1-.492-.087,1.2,1.2,0,0,1-.393-.242,1.137,1.137,0,0,1-.26-.366,1.108,1.108,0,0,1-.1-.458,1,1,0,0,1,.113-.474,1.107,1.107,0,0,1,.32-.366,1.534,1.534,0,0,1,.487-.237,2.173,2.173,0,0,1,.616-.083,2.811,2.811,0,0,1,.5.045,2.653,2.653,0,0,1,.378.1V5.312a.762.762,0,0,0-.207-.573.83.83,0,0,0-.6-.2,1.5,1.5,0,0,0-.537.1,2.749,2.749,0,0,0-.552.294l-.048.032L31.6,4.4l.036-.024a2.553,2.553,0,0,1,1.44-.466,1.665,1.665,0,0,1,1.164.383,1.422,1.422,0,0,1,.42,1.1V6.664c0,.166.078.19.147.192l.048,0V7.58l-.041.008c-.071.013-.135.023-.189.028s-.107.007-.156.007a.526.526,0,0,1-.367-.121.512.512,0,0,1-.16-.3l-.009-.1a1.614,1.614,0,0,1-.522.393A1.769,1.769,0,0,1,32.65,7.656Zm.3-2.213a2.074,2.074,0,0,0-.588.079,1.435,1.435,0,0,0-.455.221,1.008,1.008,0,0,0-.292.333.9.9,0,0,0-.1.427,1.008,1.008,0,0,0,.086.417,1.037,1.037,0,0,0,.237.334,1.1,1.1,0,0,0,.36.222,1.27,1.27,0,0,0,.456.081,1.67,1.67,0,0,0,.722-.16,1.525,1.525,0,0,0,.563-.459l.078-.1.032.35a.407.407,0,0,0,.129.243.43.43,0,0,0,.3.094c.047,0,.1,0,.147-.007s.087-.01.139-.019V6.951c-.088-.017-.2-.08-.2-.287V5.393a1.327,1.327,0,0,0-.387-1.026,1.569,1.569,0,0,0-1.1-.357,2.441,2.441,0,0,0-1.348.425l.185.38a2.789,2.789,0,0,1,.524-.273,1.6,1.6,0,0,1,.573-.108.925.925,0,0,1,.674.233.868.868,0,0,1,.237.644v.315L33.856,5.6a2.439,2.439,0,0,0-.428-.115A2.71,2.71,0,0,0,32.945,5.443Zm-.094,1.668a.759.759,0,0,1-.531-.191.622.622,0,0,1-.212-.477.575.575,0,0,1,.274-.5,1.185,1.185,0,0,1,.677-.18,2.35,2.35,0,0,1,.832.158l.032.012v.5a.387.387,0,0,1-.155.29.928.928,0,0,1-.391.284A1.39,1.39,0,0,1,32.851,7.111Zm.209-1.244a1.088,1.088,0,0,0-.621.163.474.474,0,0,0-.23.413.519.519,0,0,0,.179.4.662.662,0,0,0,.464.165,1.29,1.29,0,0,0,.489-.094.827.827,0,0,0,.352-.257l.007-.008a.292.292,0,0,0,.124-.218v-.43a2.2,2.2,0,0,0-.36-.1A2.168,2.168,0,0,0,33.06,5.866Z" transform="translate(-20.879 -2.628)" fill="#aebed3"/><path d="M46.653,7.538h-.74V5.568a1.282,1.282,0,0,0-.158-.723.533.533,0,0,0-.467-.225.915.915,0,0,0-.323.061,1.131,1.131,0,0,0-.3.172,1.356,1.356,0,0,0-.252.262,1.2,1.2,0,0,0-.172.333V7.538H43.5V4.021h.673v.706a1.435,1.435,0,0,1,.585-.562A1.768,1.768,0,0,1,45.6,3.96a1.045,1.045,0,0,1,.518.114.858.858,0,0,1,.319.313,1.354,1.354,0,0,1,.165.457,3.043,3.043,0,0,1,.047.548Z" transform="translate(-28.869 -2.628)" fill="#aebed3"/><path d="M46.7,7.588h-.84V5.568a1.244,1.244,0,0,0-.149-.694.482.482,0,0,0-.427-.2.871.871,0,0,0-.305.057,1.086,1.086,0,0,0-.289.164,1.312,1.312,0,0,0-.243.253,1.157,1.157,0,0,0-.162.311V7.588h-.84V3.971h.773v.587a1.515,1.515,0,0,1,.512-.437A1.825,1.825,0,0,1,45.6,3.91a1.1,1.1,0,0,1,.542.121.911.911,0,0,1,.338.331,1.408,1.408,0,0,1,.171.474,3.109,3.109,0,0,1,.048.557Zm-.74-.1h.64v-2.1a3.01,3.01,0,0,0-.047-.539,1.309,1.309,0,0,0-.159-.441.812.812,0,0,0-.3-.295A1,1,0,0,0,45.6,4.01a1.726,1.726,0,0,0-.824.2,1.392,1.392,0,0,0-.565.542l-.093.165V4.071h-.573V7.488h.64V5.438l0-.008a1.257,1.257,0,0,1,.179-.347,1.412,1.412,0,0,1,.262-.272,1.186,1.186,0,0,1,.316-.179.971.971,0,0,1,.34-.064.582.582,0,0,1,.508.247,1.315,1.315,0,0,1,.167.752Z" transform="translate(-28.869 -2.628)" fill="#aebed3"/></g></g></g><g transform="translate(43.394 21.408)"><g transform="translate(0 0)" clip-path="url(#c)"><path d="M15.007,30.014A15.007,15.007,0,1,1,30.014,15.007,15.024,15.024,0,0,1,15.007,30.014m0-28.65A13.643,13.643,0,1,0,28.649,15.007,13.658,13.658,0,0,0,15.007,1.364" transform="translate(-0.071 -0.072)" fill="#aebed3"/><path d="M15.007,30.514A15.507,15.507,0,1,1,30.514,15.007,15.525,15.525,0,0,1,15.007,30.514ZM15.007.5A14.507,14.507,0,1,0,29.514,15.007,14.523,14.523,0,0,0,15.007.5Zm0,28.65A14.143,14.143,0,1,1,29.149,15.007,14.159,14.159,0,0,1,15.007,29.15Zm0-27.286A13.143,13.143,0,1,0,28.149,15.007,13.158,13.158,0,0,0,15.007,1.864Z" transform="translate(-0.071 -0.072)" fill="rgba(0,0,0,0)"/></g></g></g></svg>