<?xml version="1.0" encoding="UTF-8"?>
<svg xmlns="http://www.w3.org/2000/svg" version="1.1" xmlns:xlink="http://www.w3.org/1999/xlink" viewBox="0 0 112 86">
  <defs>
    <style>
      .cls-1 {
        fill: #778495;
      }

      .cls-2 {
        fill: #aebed3;
      }

      .cls-3 {
        fill: none;
      }

      .cls-4 {
        clip-path: url(#clippath);
      }

      .cls-5 {
        fill: #f7f7f7;
      }
    </style>
    <clipPath id="clippath">
      <rect class="cls-3" y=".8" width="112" height="84.5"/>
    </clipPath>
  </defs>
  <!-- Generator: Adobe Illustrator 28.6.0, SVG Export Plug-In . SVG Version: 1.2.0 Build 709)  -->
  <g>
    <g id="Layer_1">
      <g class="cls-4">
        <g>
          <path class="cls-2" d="M87,26.9C84.1,9.8,67.8-1.7,50.7,1.2c-13.2,2.2-23.5,12.5-25.7,25.7C9,29.3-2.1,44.2.3,60.2c2.1,14.4,14.5,25.1,29,25h53.4c16.2,0,29.3-13.1,29.3-29.3,0-14.5-10.6-26.9-25-29M100.3,73.7c-4.7,4.7-11.1,7.3-17.7,7.3H29.3c-13.8,0-25-11.2-25-25.1,0-12.9,9.9-23.8,22.8-24.9l1.7-.2.2-1.7c1.4-12.6,11.3-22.5,23.9-23.9,1-.1,2.1-.2,3.1-.2,13.8,0,25.3,10.4,26.9,24l.2,1.7,1.7.2c13.8,1.2,23.9,13.4,22.7,27.2-.5,5.9-3.1,11.4-7.3,15.5"/>
          <path class="cls-5" d="M82.7,85.8H29.3c-16.5,0-29.8-13.3-29.9-29.8,0-14.7,10.6-27.2,25.1-29.5C27.1,12.6,38.4,2,52.4.5c1.2-.1,2.4-.2,3.7-.2,15.4,0,28.6,11,31.3,26.2,3.4.5,6.8,1.7,9.8,3.4,6.2,3.4,10.9,8.9,13.4,15.5,1.3,3.4,1.9,7,1.9,10.7,0,16.4-13.4,29.7-29.8,29.7ZM56.1,1.3c-1.2,0-2.4,0-3.6.2-13.7,1.5-24.8,11.9-27,25.5v.4c0,0-.4,0-.4,0C9.3,29.7-1.5,44.4.8,60.1c2.1,14.1,14.2,24.6,28.5,24.6h53.4c15.9,0,28.7-12.9,28.8-28.7.2-14.4-10.4-26.6-24.6-28.6h-.4c0,0,0-.4,0-.4-1.3-7.5-5.3-14.3-11.2-19-5.4-4.4-12.2-6.7-19.2-6.7ZM29.3,81.5c-14.1,0-25.5-11.4-25.5-25.5,0-13.2,10.1-24.3,23.3-25.4h1.3c0-.1.2-1.5.2-1.5,1.4-12.8,11.5-22.9,24.3-24.3,1.1-.1,2.1-.2,3.2-.2,3.1,0,6.1.5,9,1.5,10,3.5,17.1,12.4,18.3,23l.2,1.3h1.3c14,1.4,24.4,13.8,23.2,27.8-.9,9.5-6.9,17.7-15.7,21.3-3.1,1.3-6.4,1.9-9.8,1.9H29.3ZM56.1,5.5c-1,0-2.1,0-3.1.2-12.3,1.4-22.1,11.1-23.4,23.4l-.2,2.1-2.1.2c-13.5,1.2-23.5,13.1-22.2,26.6,1.1,12.6,11.7,22.3,24.4,22.3h53.2c13.5,0,24.6-10.9,24.6-24.4,0-12.7-9.7-23.4-22.3-24.5l-2.2-.2-.2-2.1c-1.5-13.4-12.9-23.6-26.4-23.6h0Z"/>
          <path class="cls-1" d="M43,54.1c-.3.4-.7.7-1.2.9-.4.2-.9.4-1.4.5-.5,0-.9.1-1.4.2-.8,0-1.6-.2-2.3-.5-.7-.3-1.3-.8-1.7-1.4-.5-.6-.8-1.3-1.1-2-.2-.8-.4-1.6-.4-2.4,0-.8.1-1.5.3-2.2.2-.7.5-1.4,1-2,.4-.6,1-1.1,1.7-1.4.8-.4,1.6-.6,2.4-.6.5,0,.9,0,1.4.1.5,0,.9.2,1.4.5.5.2.9.5,1.2.9.4.4.7.9.9,1.4l5-3.5c-.9-1.6-2.2-2.9-3.8-3.8-1.8-1-3.9-1.5-6-1.4-1.8,0-3.5.3-5.1,1-1.4.6-2.7,1.6-3.8,2.7-2.1,2.2-3.2,5.1-3.2,8.1h0c0,1.5.3,3.1.9,4.5.6,1.5,1.4,2.8,2.5,3.9,1.1,1.2,2.3,2.1,3.8,2.8,1.5.7,3.2,1.1,4.8,1.1,1,0,2.1-.1,3.1-.4,1-.2,2-.6,3-1.1.9-.5,1.7-1,2.5-1.7.7-.7,1.3-1.5,1.6-2.3l-5.3-3.2c-.2.5-.5,1-.8,1.4"/>
          <path class="cls-5" d="M38.8,61.9c-1.7,0-3.4-.4-4.9-1.1-1.5-.7-2.8-1.7-3.9-2.9-1.1-1.2-2-2.6-2.6-4.1-.6-1.4-.9-3-.9-4.5h0v-.2c0-3.1,1.2-6.1,3.3-8.4,1.1-1.2,2.5-2.1,4-2.8,1.6-.7,3.4-1.1,5.1-1.1h.2c2.2,0,4.3.5,6.2,1.5,1.7.9,3.1,2.3,4,4l.2.4-5.9,4.2-.2-.6c-.2-.5-.4-.9-.8-1.3-.3-.3-.7-.6-1.1-.8-.4-.2-.8-.3-1.2-.4-.4,0-.9-.1-1.3-.1h0c-.8,0-1.5.2-2.2.5-.6.3-1.1.8-1.5,1.3-.4.6-.7,1.2-.9,1.8h0c-.2.7-.3,1.4-.3,2.1,0,.8.1,1.5.3,2.2.2.7.5,1.3,1,1.8.4.5,1,1,1.6,1.3.6.3,1.3.5,2.1.5.4,0,.9,0,1.3-.1.4,0,.8-.2,1.2-.5.4-.2.7-.5,1-.8.3-.3.6-.7.7-1.2l.2-.6,6.2,3.7-.2.4c-.4,1-1,1.8-1.7,2.5-.8.7-1.6,1.4-2.6,1.8-1,.5-2,.9-3.1,1.1-1,.2-2.1.4-3.2.4h-.1ZM27.5,49h0v.2c0,1.5.3,2.9.8,4.3.5,1.4,1.3,2.7,2.4,3.8,1,1.1,2.3,2,3.6,2.7,1.4.7,3,1,4.6,1,1,0,2-.1,3-.4,1-.2,2-.6,2.9-1,.9-.4,1.7-1,2.4-1.7.5-.5,1-1.1,1.3-1.8l-4.4-2.7c-.2.4-.4.7-.7,1-.4.4-.8.7-1.3,1-.5.3-1,.4-1.5.6-.5.1-1,.2-1.5.2h0c-.8,0-1.7-.2-2.4-.6-.7-.4-1.4-.9-1.9-1.5-.5-.6-.9-1.4-1.2-2.2-.3-.8-.4-1.7-.4-2.5,0-.8.1-1.6.3-2.4.2-.8.6-1.5,1-2.2.5-.7,1.1-1.2,1.8-1.6h0c.8-.4,1.7-.6,2.7-.6.5,0,1,0,1.5.1.5,0,1,.3,1.5.5.5.3,1,.6,1.4,1h0c.3.3.5.6.7,1l4.1-2.9c-.8-1.3-2-2.4-3.3-3.2-1.8-.9-3.7-1.4-5.7-1.4h-.2c-1.6,0-3.2.3-4.7,1-1.4.6-2.6,1.5-3.7,2.6-1.9,2-3,4.7-3.1,7.6h0Z"/>
          <path class="cls-1" d="M69.4,41.5c-.9-1.2-2.1-2.2-3.4-2.9-2.9-1.5-6.3-1.5-9.2,0-1.3.7-2.5,1.6-3.4,2.8-1.8,2.3-2.9,5.2-2.9,8.2,0,1.4.2,2.8.7,4.1.4,1.4,1.1,2.7,2,3.9.9,1.2,2.1,2.2,3.4,2.9,1.4.8,3.1,1.2,4.7,1.1h0c1.6,0,3.1-.3,4.5-1.1,1.3-.7,2.4-1.6,3.4-2.8,2.8-3.4,3.6-8.1,2.2-12.3-.5-1.4-1.1-2.7-2-3.9M65.3,51.6c-.1.7-.4,1.4-.7,2-.3.6-.7,1.1-1.3,1.5-1.2.8-2.7.8-3.8,0-.5-.4-1-.9-1.3-1.5-.3-.6-.6-1.3-.7-2-.2-.7-.2-1.5-.2-2.2h0c0-.7,0-1.4.2-2.1.1-.7.4-1.4.7-2,.3-.6.7-1.1,1.3-1.5,1.2-.8,2.7-.8,3.8,0,.5.4,1,.9,1.3,1.5.3.6.6,1.3.7,2,.3,1.4.3,2.9,0,4.3"/>
          <path class="cls-5" d="M61.5,62h-.2c-1.7,0-3.4-.4-4.9-1.2h0c-1.4-.8-2.6-1.8-3.5-3-.9-1.2-1.7-2.6-2.1-4-.5-1.4-.7-2.8-.7-4.3h0c0-3.1,1.1-6.1,3-8.5,1-1.2,2.2-2.2,3.5-2.9h0c3-1.5,6.6-1.5,9.6,0h0c1.4.8,2.6,1.8,3.5,3.1.9,1.2,1.7,2.6,2.1,4,1.4,4.4.6,9.2-2.3,12.7-1,1.2-2.2,2.2-3.5,2.9-1.4.7-3,1.1-4.6,1.1ZM61.3,61h0c0,0,0,0,0,0,1.5,0,3-.3,4.3-1,1.2-.7,2.3-1.6,3.2-2.7.9-1.1,1.6-2.4,2.1-3.7h0c.9-2.6,1-5.5,0-8.1h0c-.4-1.4-1.1-2.6-2-3.8-.9-1.1-2-2.1-3.2-2.8-2.7-1.4-6-1.5-8.7,0-1.2.7-2.3,1.6-3.2,2.7-1.8,2.2-2.8,5-2.8,7.9,0,1.4.2,2.7.7,4h0c.4,1.4,1.1,2.6,2,3.7.9,1.1,2,2.1,3.2,2.7,1.4.7,2.9,1.1,4.4,1.1h0ZM61.3,56.3c-.8,0-1.5-.2-2.2-.7h0c-.6-.4-1.1-1-1.4-1.7-.4-.7-.6-1.4-.8-2.1-.2-.8-.2-1.5-.2-2.3v-1.2h0c0-.3,0-.6.2-1,.1-.7.4-1.5.7-2.2.3-.7.8-1.2,1.4-1.7h0c1.3-.9,3.1-.9,4.4,0h0c.6.4,1.1,1,1.4,1.6.4.7.6,1.4.8,2.1.3,1.5.3,3,0,4.5-.1.7-.4,1.5-.8,2.2-.3.7-.8,1.2-1.4,1.7h0c-.7.5-1.4.7-2.2.7h0ZM59.7,54.8c1,.7,2.3.6,3.3,0,.5-.4.9-.8,1.1-1.4.3-.6.5-1.2.7-1.9h0c.3-1.4.3-2.7,0-4.1h0c-.1-.7-.4-1.3-.7-1.9-.3-.5-.7-1-1.1-1.3-1-.7-2.3-.6-3.3,0-.5.4-.9.8-1.1,1.4-.3.6-.5,1.2-.7,1.9h0c-.1.7-.2,1.3-.2,2v.3c0,.6,0,1.2.2,1.8.1.7.4,1.3.7,1.9.3.5.7,1,1.1,1.3h0Z"/>
          <path class="cls-1" d="M83.1,65c.5-.3.9-.5,1.3-.8.3-.2.7-.5,1-.8.3-.3.6-.6.8-.9.5-.7.8-1.6.7-2.5,0-1.3-.5-2.5-1.5-3.3-1.3-.9-2.8-1.3-4.4-1.2-.7,0-1.4,0-2.1.2-.7.1-1.3.3-1.9.5-.6.2-1.1.4-1.7.8-.5.3-.9.6-1.2,1l3,3.5c.4-.5,1-1,1.5-1.4.5-.3,1-.4,1.6-.4.4,0,.8,0,1.1.3.3.2.4.6.4.9,0,.1,0,.3-.1.4-.1.2-.3.3-.5.5-.3.2-.7.4-1.2.7s-1.2.7-2.1,1.2c-.6.3-1.2.7-1.8,1.2-.5.4-.9.8-1.2,1.4-.3.5-.5,1.1-.7,1.7-.1.7-.2,1.5-.2,2.2h13.2v-4.3h-5.5c.5-.3.9-.6,1.4-.9"/>
          <path class="cls-5" d="M73.6,70.7v-.5c0-.8,0-1.5.2-2.3.1-.7.4-1.3.7-1.9h0c.3-.6.8-1.1,1.3-1.5.6-.5,1.2-.9,1.9-1.2.9-.5,1.6-.9,2.1-1.2.5-.3.9-.5,1.2-.7h0c.1,0,.3-.2.4-.3,0,0,0,0,0-.1h0c0-.2,0-.4-.2-.5-.2-.2-.5-.2-.8-.2h0c-.5,0-.9.1-1.3.4-.5.3-1,.8-1.4,1.3l-.4.5-3.7-4.3.3-.3c.4-.4.8-.8,1.3-1.1.6-.3,1.1-.6,1.8-.8.7-.2,1.3-.4,2-.5.7-.1,1.4-.2,2.2-.2.2,0,.3,0,.5,0,1.5,0,2.9.4,4.2,1.3h0c1.1.9,1.7,2.3,1.7,3.7,0,1-.3,1.9-.8,2.7-.3.4-.6.7-.9,1-.3.3-.7.5-1,.8-.4.3-.8.5-1.2.8h4.3v5.3h-14.2ZM75.4,66.5c-.3.5-.5,1-.6,1.6-.1.5-.2,1.1-.2,1.6h12.2v-3.3h-6.6l1.3-.9c.5-.3.9-.6,1.4-.9.4-.3.9-.5,1.3-.8h0c.3-.2.7-.5,1-.7.3-.2.5-.5.7-.8.4-.6.7-1.4.6-2.2h0c0-1.2-.4-2.2-1.3-2.9-1.1-.7-2.3-1.1-3.6-1.1-.2,0-.3,0-.5,0h0c-.7,0-1.4,0-2,.2-.6.1-1.3.3-1.9.5-.5.2-1.1.4-1.6.7-.3.2-.5.3-.8.6l2.3,2.7c.4-.4.8-.7,1.3-1h0c.5-.3,1.2-.5,1.8-.5.5,0,1,.1,1.4.4h0c.4.3.6.8.6,1.4,0,.2,0,.5-.2.7h0s0,0,0,0c-.2.2-.4.4-.6.6-.3.2-.7.4-1.2.7-.6.3-1.3.7-2.2,1.2-.6.3-1.2.7-1.7,1.1-.4.3-.8.8-1.1,1.2Z"/>
        </g>
      </g>
    </g>
  </g>
</svg>