<svg xmlns="http://www.w3.org/2000/svg" xmlns:xlink="http://www.w3.org/1999/xlink" width="32.528" height="25.853" viewBox="0 0 32.528 25.853"><defs><clipPath id="a"><rect width="32.528" height="25.853" fill="#aebed3"/></clipPath></defs><g clip-path="url(#a)"><path d="M12.538,10.993a6.794,6.794,0,0,1,1.374-.976v9.726a4.483,4.483,0,0,1-2.64,4.05A42.291,42.291,0,0,1,5.523,25.71a3.971,3.971,0,0,1-1.122.144,4.257,4.257,0,0,1-2.6-.867A4.44,4.44,0,0,1,.027,21.7a27.165,27.165,0,0,1,.614-6.726C2.45,5.929,6.9,1.518,10.368,1.879c1.627.144,3.363,1.483,3.544,4.7-.434.181-.867.4-1.338.651V7.195c0-2.35-.867-3.834-2.35-3.978H9.971c-1.266,0-2.784.941-4.086,2.6a21.439,21.439,0,0,0-3.906,9.438,26.48,26.48,0,0,0-.614,6.4,3.024,3.024,0,0,0,1.229,2.278,3.122,3.122,0,0,0,2.568.506A46.416,46.416,0,0,0,10.694,22.6a3.036,3.036,0,0,0,1.845-2.784ZM31.92,15.006c-1.808-9.04-6.256-13.451-9.726-13.09-1.627.144-3.363,1.483-3.544,4.7.434.181.867.4,1.338.651V7.232c0-2.35.867-3.834,2.35-3.978h.253c1.266,0,2.784.941,4.086,2.6A21.439,21.439,0,0,1,30.583,15.3a26.27,26.27,0,0,1,.579,6.4,3.024,3.024,0,0,1-1.229,2.278,3.122,3.122,0,0,1-2.568.506,46.417,46.417,0,0,1-5.533-1.845,3.036,3.036,0,0,1-1.845-2.784V10.993a6.794,6.794,0,0,0-1.374-.976v9.726a4.483,4.483,0,0,0,2.64,4.05A42.29,42.29,0,0,0,27,25.71a3.97,3.97,0,0,0,1.122.144,4.257,4.257,0,0,0,2.6-.867A4.44,4.44,0,0,0,32.5,21.7a26.7,26.7,0,0,0-.578-6.69ZM20.2,10.089a8.707,8.707,0,0,1,1.229,1.122,3.818,3.818,0,0,1-.037,4.773.689.689,0,0,0,.072.976.749.749,0,0,0,.434.181.584.584,0,0,0,.506-.253,5.436,5.436,0,0,0,1.157-2.64C25.3,16.38,27,16.489,27.108,16.489h.037a.7.7,0,0,0,.686-.651.685.685,0,0,0-.651-.723s-1.771-.181-3.4-3a11.84,11.84,0,0,0-1.013-1.483,4.063,4.063,0,0,0,2.206-1.952.645.645,0,0,0-.325-.9.659.659,0,0,0-.9.29,2.5,2.5,0,0,1-1.338,1.229,1.538,1.538,0,0,1-1.338-.362,10.848,10.848,0,0,0-3.037-1.7,1.644,1.644,0,0,1-1.048-1.555V.687a.686.686,0,1,0-1.373,0V5.713a1.647,1.647,0,0,1-1.048,1.555,13.878,13.878,0,0,0-3.037,1.7,1.692,1.692,0,0,1-1.338.362A2.508,2.508,0,0,1,8.852,8.1a.679.679,0,1,0-1.229.579,4.052,4.052,0,0,0,2.206,1.952,11.86,11.86,0,0,0-1.048,1.483c-1.667,2.819-3.366,3-3.438,3a.741.741,0,0,0-.651.723.705.705,0,0,0,.686.651h.037a5.611,5.611,0,0,0,3.544-2.242,5.436,5.436,0,0,0,1.157,2.64.759.759,0,0,0,.506.253.529.529,0,0,0,.434-.181.689.689,0,0,0,.072-.976,3.82,3.82,0,0,1-.037-4.773,11.433,11.433,0,0,1,1.194-1.122,11.469,11.469,0,0,1,2.675-1.518,2.8,2.8,0,0,0,1.229-.9,3.026,3.026,0,0,0,1.229.9A8.825,8.825,0,0,1,20.2,10.089h0Z" transform="translate(0 -0.001)" fill="#aebed3"/></g></svg>