<svg xmlns="http://www.w3.org/2000/svg" width="58" height="58" viewBox="0 0 58 58"><g transform="translate(-335 -10755)"><circle cx="29" cy="29" r="29" transform="translate(335 10755)" fill="#aebed3"/><path d="M1.935,0a18.483,18.483,0,0,1,.292-3.375A9.745,9.745,0,0,1,3.33-6.39,11.275,11.275,0,0,1,5.557-9.135a20.34,20.34,0,0,1,3.713-2.61q1.35-.72,2.745-1.417a21.41,21.41,0,0,0,2.543-1.485,9.1,9.1,0,0,0,1.89-1.687,3.221,3.221,0,0,0,.743-2.115,3.566,3.566,0,0,0-.36-1.53A4.069,4.069,0,0,0,15.8-21.33a5.211,5.211,0,0,0-1.688-.945,6.9,6.9,0,0,0-2.317-.36,7.446,7.446,0,0,0-2.453.382,8.783,8.783,0,0,0-1.957.945,9.385,9.385,0,0,0-1.485,1.193q-.63.63-1.035,1.125L2.3-21.87a11.274,11.274,0,0,1,1.215-1.1A14.578,14.578,0,0,1,5.67-24.39a15.579,15.579,0,0,1,3.015-1.238,13.182,13.182,0,0,1,3.825-.517,11.627,11.627,0,0,1,3.735.563,8.331,8.331,0,0,1,2.813,1.552,7,7,0,0,1,1.777,2.317,6.479,6.479,0,0,1,.63,2.813,5.941,5.941,0,0,1-.765,3.06,9.561,9.561,0,0,1-1.868,2.3,12.829,12.829,0,0,1-2.363,1.688q-1.26.7-2.25,1.193T11.993-9.472A19.025,19.025,0,0,0,9.63-7.9,10.99,10.99,0,0,0,7.672-5.94,5.329,5.329,0,0,0,6.615-3.6H21.96V0Z" transform="translate(353 10796)" fill="#fff"/></g></svg>