<svg xmlns="http://www.w3.org/2000/svg" xmlns:xlink="http://www.w3.org/1999/xlink" width="53.463" height="52.101" viewBox="0 0 53.463 52.101"><defs><clipPath id="a"><rect width="53.463" height="52.101" fill="#778495"/></clipPath></defs><g clip-path="url(#a)"><path d="M206.419,271.477a1.9,1.9,0,0,0-3.143,1.949l-16.435,16.435a1.549,1.549,0,0,0-.283.027l-5.636-5.636a1.427,1.427,0,0,0,.03-.3,1.518,1.518,0,1,0-2.927.553l-7.771,7.771a1.9,1.9,0,1,0,1.194,1.194l8-8a1.553,1.553,0,0,0,.283-.027l5.636,5.636a1.429,1.429,0,0,0-.03.3,1.518,1.518,0,1,0,2.927-.553l16.2-16.2a1.9,1.9,0,0,0,1.949-3.143" transform="translate(-158.696 -256.301)" fill="#778495"/><rect width="9.781" height="1.686" transform="translate(11.467 7.574)" fill="#778495"/><rect width="9.781" height="1.686" transform="translate(11.467 10.778)" fill="#778495"/><rect width="7.251" height="1.686" transform="translate(11.467 13.982)" fill="#778495"/><rect width="9.781" height="1.686" transform="translate(23.946 13.982)" fill="#778495"/><rect width="9.781" height="1.686" transform="translate(23.946 10.778)" fill="#778495"/><rect width="7.251" height="1.686" transform="translate(26.476 7.574)" fill="#778495"/><path d="M322.986,643.043l-5.7,5.13-4.8-3-6.219,3.11L300.1,645.2l-7.781,3.889.752,1.511,7.029-3.514,6.172,3.086L312.4,647.1l5.076,3.174,6.644-5.98Z" transform="translate(-276.541 -608.343)" fill="#778495"/><path d="M53.463,49.578,49.1,47.055v1.68H3.366V4.368h1.68L2.523,0,0,4.368H1.68V50.421H49.1V52.1Z" fill="#778495"/></g></svg>