<svg xmlns="http://www.w3.org/2000/svg" xmlns:xlink="http://www.w3.org/1999/xlink" width="74.258" height="49.373" viewBox="0 0 74.258 49.373"><defs><clipPath id="a"><rect width="74.258" height="49.373" fill="#778495" stroke="#778495" stroke-width="0.5"/></clipPath></defs><g clip-path="url(#a)"><path d="M33.1,49.373a27.389,27.389,0,0,1-10-1.815C15.76,44.7,2.894,33.658,1.365,31.859S-.35,26.122.525,23.952c.729-1.807,5.189-9.6,5.378-9.933l.005-.009L7.03,12.142C9.148,8.065,11.038,7.274,12.7,6.577l.313-.132c1.818-.774,15.49-4.439,20-5.615C37.778-.412,43.306-.137,45.9.846c1.791.679,6.984,3.3,11.158,5.4,1.416.714,2.712,1.369,3.711,1.864a14.9,14.9,0,0,1,6.035,5.605c.725,1.235,7.143,12.247,7.406,14.752.249,4-.513,4.885-1.9,6.5-.326.38-.693.8-1.1,1.335-2.046,2.7-5.067,4.092-7.469,5.008-2.049.781-7.863,2.919-7.863,2.919a.5.5,0,0,1-.563-.157.5.5,0,0,1-.031-.584,9.92,9.92,0,0,0,.6-1.086,2.693,2.693,0,0,1-.391.076,4.568,4.568,0,0,0-1.776,1.085,4.621,4.621,0,0,0-.381.54c-.347.534-.556.84-.842.947-.363.136-7.659,2.617-11.091,3.352a39.449,39.449,0,0,1-8.3.969M6.768,14.52c-.132.23-4.618,8.079-5.315,9.806-.75,1.86-.586,5.4.673,6.885,1.5,1.767,14.134,12.612,21.34,15.415,6.836,2.658,13.393,1.731,17.732.8,3.375-.723,10.589-3.175,10.948-3.31.017-.034.228-.36.354-.555a3.827,3.827,0,0,1,.57-.755,5.23,5.23,0,0,1,2.322-1.32,2.629,2.629,0,0,0,.454-.109c.368-.109.786-.233,1.083.09a.872.872,0,0,1,.052.929q-.09.225-.189.436c1.824-.673,5.153-1.9,6.6-2.454a15.425,15.425,0,0,0,7.028-4.68c.416-.547.794-.988,1.133-1.381,1.292-1.505,1.882-2.191,1.66-5.761-.2-1.918-5.323-11-7.279-14.343a14.144,14.144,0,0,0-5.61-5.2c-1-.5-2.3-1.152-3.718-1.867-4.152-2.1-9.319-4.7-11.062-5.363-2.4-.908-7.77-1.16-12.277.016C28.113,3.142,15.079,6.654,13.41,7.365l-.319.134C11.507,8.162,9.868,8.847,7.9,12.63Z" fill="#778495"/><path d="M33.1,49.623a27.724,27.724,0,0,1-10.092-1.832C15.631,44.92,2.71,33.828,1.175,32.021A7.133,7.133,0,0,1-.209,28.062a9.674,9.674,0,0,1,.5-4.2c.686-1.7,4.6-8.574,5.377-9.935l.024-.042L6.812,12.02c2.159-4.152,4.092-4.961,5.8-5.674l.312-.132c1.832-.78,15.521-4.45,20.032-5.627A27.646,27.646,0,0,1,39.822-.25,18.769,18.769,0,0,1,45.99.612c1.8.684,7,3.308,11.182,5.416l.546.275c1.18.6,2.3,1.158,3.163,1.588A15.047,15.047,0,0,1,67.023,13.6c.743,1.266,7.166,12.271,7.437,14.849v.011A10.7,10.7,0,0,1,74.11,32.7,7.565,7.565,0,0,1,72.5,35.132l-.041.047c-.311.363-.664.774-1.045,1.276a16.573,16.573,0,0,1-7.579,5.091c-2.027.773-7.808,2.9-7.866,2.92a.751.751,0,0,1-.891-1.11l.01-.015c.029-.044.173-.274.345-.594a5.135,5.135,0,0,0-1.548,1,4.552,4.552,0,0,0-.338.489c-.376.578-.605.911-.964,1.046-.383.144-7.645,2.617-11.126,3.362A39.837,39.837,0,0,1,33.1,49.623ZM6.124,14.135l-.021.036c-.775,1.356-4.673,8.2-5.347,9.874a9.157,9.157,0,0,0-.468,3.974A6.647,6.647,0,0,0,1.555,31.7c1.522,1.791,14.325,12.784,21.638,15.628a27.227,27.227,0,0,0,9.91,1.8,39.354,39.354,0,0,0,8.251-.963c3.384-.725,10.69-3.2,11.056-3.342.212-.079.412-.374.72-.849a3.646,3.646,0,0,1,.423-.589l.005,0a4.605,4.605,0,0,1,1.912-1.144,2.438,2.438,0,0,0,.355-.069l.515-.134-.225.482a9.915,9.915,0,0,1-.612,1.114h0a.251.251,0,0,0,.3.373c.059-.022,5.837-2.147,7.861-2.918,2.372-.9,5.353-2.282,7.359-4.926.39-.514.748-.931,1.064-1.3l.041-.047c1.385-1.612,2.08-2.421,1.839-6.313-.218-2.02-4.736-10.155-7.372-14.646l0-.008a14.782,14.782,0,0,0-5.926-5.5c-.87-.431-1.985-.994-3.166-1.589l-.546-.275c-4.168-2.1-9.354-4.72-11.134-5.394A18.276,18.276,0,0,0,39.822.25a27.139,27.139,0,0,0-6.742.822c-4.5,1.174-18.156,4.834-19.963,5.6l-.314.132c-1.629.681-3.474,1.452-5.55,5.45l-.008.013ZM33.109,48.622h0a26.745,26.745,0,0,1-9.733-1.763c-7.239-2.816-19.93-13.711-21.44-15.486A6.194,6.194,0,0,1,.787,27.93a8.652,8.652,0,0,1,.434-3.7c.716-1.773,5.284-9.757,5.33-9.837l1.133-1.888c2-3.856,3.684-4.559,5.308-5.239l.32-.135C15,6.418,28.047,2.9,33.206,1.555a26.87,26.87,0,0,1,6.62-.8,17.794,17.794,0,0,1,5.809.792c1.749.662,6.9,3.261,11.038,5.349l.73.368c1.13.57,2.2,1.108,3.035,1.523a14.471,14.471,0,0,1,5.716,5.3c.069.118,7.061,12.072,7.31,14.441v.011c.228,3.67-.422,4.428-1.719,5.938-.367.426-.729.85-1.125,1.371a15.651,15.651,0,0,1-7.138,4.762c-1.062.4-3.284,1.23-6.6,2.455l-.571.211.258-.551c.065-.138.126-.28.183-.423.091-.229.161-.486,0-.668a.386.386,0,0,0-.309-.126,1.972,1.972,0,0,0-.518.107l-.047.014a2.519,2.519,0,0,1-.453.1A4.823,4.823,0,0,0,53.233,43a3.8,3.8,0,0,0-.523.7l-.023.036c-.095.146-.29.448-.319.5l-.042.084-.092.035c-.36.135-7.587,2.593-10.984,3.32A38.771,38.771,0,0,1,33.109,48.622ZM39.826,1.255a26.364,26.364,0,0,0-6.494.784C28.184,3.382,15.167,6.888,13.508,7.6l-.32.134c-1.545.647-3.14,1.314-5.063,5.016l-.008.013-1.135,1.89c-.043.075-4.606,8.057-5.3,9.771a8.138,8.138,0,0,0-.4,3.47,5.8,5.8,0,0,0,1.031,3.159c1.5,1.759,14.07,12.555,21.24,15.344a26.247,26.247,0,0,0,9.552,1.729,38.287,38.287,0,0,0,8.037-.941c3.231-.692,9.961-2.964,10.833-3.271.047-.074.131-.206.288-.449l.024-.037a3.949,3.949,0,0,1,.617-.809,5.428,5.428,0,0,1,2.459-1.379,2.123,2.123,0,0,0,.362-.086l.047-.014a2.365,2.365,0,0,1,.66-.127.883.883,0,0,1,.677.288,1.049,1.049,0,0,1,.135,1.1c3.019-1.115,5.055-1.872,6.057-2.253,2.246-.856,5.062-2.152,6.918-4.6.405-.533.772-.963,1.143-1.393,1.284-1.5,1.815-2.114,1.6-5.577-.184-1.678-4.54-9.62-7.246-14.238l0,0a13.92,13.92,0,0,0-5.5-5.1c-.839-.416-1.907-.954-3.038-1.524l-.73-.368c-4.128-2.083-9.266-4.675-10.99-5.328A17.569,17.569,0,0,0,39.826,1.255Z" fill="#778495"/><path d="M34.38,21.136A15.509,15.509,0,0,1,26.6,19.415c-1.3-.783-2.868-1.689-4.435-2.6a69.318,69.318,0,0,1-7.65-4.745,1.69,1.69,0,0,1-.614-1.655c.184-.757.988-1.387,2.264-1.773C17.76,8.163,31.735,4.108,35,3.256h0a17.929,17.929,0,0,1,9.283.016c1.068.4,5.014,2.506,8.83,4.538,2.271,1.208,4.415,2.351,5.493,2.885.232.118,2.215,1.169,2.156,2.535-.032.75-.641,1.369-1.809,1.842C55.367,16.521,42.6,19.917,40.266,20.5a26.691,26.691,0,0,1-5.886.636m.872-16.912h0c-3.256.85-17.206,4.9-18.8,5.379-.869.264-1.49.676-1.581,1.052-.048.2.065.437.337.7a75.648,75.648,0,0,0,7.455,4.6c1.573.911,3.144,1.82,4.45,2.606,4.024,2.422,10.841,1.488,12.91.971,2.324-.58,15.017-3.955,18.555-5.385.739-.3,1.171-.649,1.185-.958.022-.521-.945-1.262-1.6-1.6-1.087-.538-3.237-1.683-5.514-2.9-3.613-1.924-7.706-4.1-8.714-4.485a17.072,17.072,0,0,0-8.678.016" fill="#778495"/><path d="M34.38,21.386a16,16,0,0,1-7.911-1.757c-1.282-.771-2.85-1.678-4.366-2.556l-.066-.038a68.686,68.686,0,0,1-7.7-4.782,1.925,1.925,0,0,1-.683-1.894c.206-.847,1.071-1.541,2.435-1.953,1.594-.482,15.567-4.537,18.845-5.393l.032-.008a19.98,19.98,0,0,1,4.923-.6,13.629,13.629,0,0,1,4.481.628c1.084.411,5.037,2.516,8.859,4.551l.391.208c2.1,1.117,4.083,2.172,5.1,2.674.4.2,2.359,1.277,2.295,2.77-.037.856-.7,1.55-1.965,2.063-3.6,1.454-16.383,4.855-18.72,5.439A26.78,26.78,0,0,1,34.38,21.386Zm.651-17.88c-3.33.872-17.208,4.9-18.8,5.379-1.188.359-1.931.925-2.093,1.593a1.455,1.455,0,0,0,.545,1.416,69.927,69.927,0,0,0,7.6,4.708l.066.038c1.518.879,3.087,1.787,4.373,2.56a15.516,15.516,0,0,0,7.653,1.685,26.584,26.584,0,0,0,5.825-.629c2.332-.582,15.08-3.973,18.654-5.417,1.069-.433,1.625-.978,1.653-1.621.053-1.233-1.935-2.258-2.02-2.3-1.017-.5-3-1.56-5.106-2.679L53,8.031C49.187,6,45.249,3.906,44.194,3.506a13.135,13.135,0,0,0-4.3-.6,19.45,19.45,0,0,0-4.828.587ZM34.349,20.4h0a14.929,14.929,0,0,1-7.364-1.623c-1.269-.764-2.82-1.662-4.32-2.53l-.146-.085a74.532,74.532,0,0,1-7.484-4.623,1.012,1.012,0,0,1-.406-.938c.115-.474.769-.935,1.751-1.233,1.59-.481,15.535-4.527,18.81-5.382a19.126,19.126,0,0,1,4.712-.57,12.606,12.606,0,0,1,4.117.562c1.027.389,5.126,2.572,8.743,4.5l.1.052c2.233,1.188,4.341,2.311,5.409,2.839.5.254,1.776,1.076,1.744,1.834-.024.536-.743.937-1.341,1.179-3.562,1.439-16.265,4.816-18.588,5.4A25.849,25.849,0,0,1,34.349,20.4ZM39.9,3.912a18.619,18.619,0,0,0-4.586.554c-3.27.854-17.2,4.9-18.791,5.376-.85.258-1.353.634-1.41.872-.025.1.073.273.268.461a76.306,76.306,0,0,0,7.387,4.55l.146.085c1.5.87,3.054,1.769,4.327,2.535A14.448,14.448,0,0,0,34.348,19.9h0a25.646,25.646,0,0,0,5.614-.609c2.317-.578,14.984-3.944,18.522-5.374.8-.325,1.024-.624,1.029-.738.013-.309-.7-.973-1.469-1.365-1.072-.531-3.184-1.655-5.42-2.845l-.1-.052c-3.6-1.919-7.688-4.094-8.685-4.472A12.3,12.3,0,0,0,39.9,3.912Z" fill="#778495"/><path d="M41.307,17.1a.5.5,0,0,1-.141-.98l8.81-2.585a.5.5,0,0,1,.281.96l-8.809,2.585a.49.49,0,0,1-.141.02" fill="#778495"/><path d="M41.307,17.355a.752.752,0,0,1-.719-.54.749.749,0,0,1,.508-.93l8.81-2.585a.741.741,0,0,1,.211-.031.75.75,0,0,1,.212,1.47l-8.81,2.585A.742.742,0,0,1,41.307,17.355Zm8.81-3.586a.242.242,0,0,0-.069.01l-8.811,2.585a.25.25,0,0,0,.071.49.241.241,0,0,0,.07-.01l8.81-2.585a.25.25,0,0,0-.07-.491Z" fill="#778495"/><path d="M55.713,44.262a.5.5,0,0,1-.271-.08L53.768,43.1a.5.5,0,1,1,.543-.84l1.673,1.085a.5.5,0,0,1-.271.92" fill="#778495"/><path d="M55.713,44.512a.75.75,0,0,1-.406-.12l-1.675-1.086a.749.749,0,0,1,.408-1.379.753.753,0,0,1,.405.118l1.675,1.086a.75.75,0,0,1-.407,1.38ZM54.04,42.428a.249.249,0,0,0-.137.459l1.675,1.085a.25.25,0,0,0,.271-.42l-1.674-1.085A.252.252,0,0,0,54.04,42.428Z" fill="#778495"/><path d="M32.9,47.389c-7.1,0-15.788-2.93-30.645-14.629a.5.5,0,1,1,.62-.785C24.473,48.981,32.736,47.154,42.3,45.039l.8-.176c9.825-2.154,27.708-9.71,27.888-9.787a.5.5,0,0,1,.391.92c-.181.078-18.149,7.67-28.064,9.843l-.8.177A43.389,43.389,0,0,1,32.9,47.389" fill="#778495"/><path d="M32.9,47.639A30.063,30.063,0,0,1,20.386,44.69C15.131,42.343,9.15,38.505,2.1,32.956a.75.75,0,0,1,.465-1.339.742.742,0,0,1,.464.161C15.8,41.833,24.751,46.123,32.961,46.123A41.834,41.834,0,0,0,42.244,44.8l.8-.176c9.812-2.151,27.667-9.7,27.843-9.773a.736.736,0,0,1,.293-.061.75.75,0,0,1,.293,1.441C71.3,36.3,53.4,43.886,43.37,46.083l-.8.177A43.487,43.487,0,0,1,32.9,47.639ZM2.569,32.117a.25.25,0,0,0-.156.447C15.387,42.78,24.505,47.139,32.9,47.139a43.1,43.1,0,0,0,9.558-1.367l.8-.177c9.815-2.151,27.845-9.753,28.019-9.828a.25.25,0,0,0-.1-.481.24.24,0,0,0-.1.02c-.177.076-18.078,7.641-27.934,9.8l-.8.176a42.219,42.219,0,0,1-9.392,1.34,29.393,29.393,0,0,1-12.261-2.9C15.541,41.413,9.661,37.635,2.723,32.171A.247.247,0,0,0,2.569,32.117Z" fill="#778495"/><path d="M33.7,44.125c-7,0-15.484-3-30.75-15.021-.9-.739-2.976-2.564-2.824-3.665a.5.5,0,0,1,.991.137c-.019.37,1.153,1.681,2.458,2.749,21.947,17.281,29.56,15.612,39.2,13.495l.325-.071c7.7-2.2,28.2-8.65,30.228-11.994a.5.5,0,0,1,.856.517c-2.645,4.364-29.69,12.119-30.84,12.446l-.354.079a42.407,42.407,0,0,1-9.29,1.328" fill="#778495"/><path d="M33.7,44.375A29.1,29.1,0,0,1,21.321,41.35C16.117,38.96,10.057,35.018,2.8,29.3c-1.162-.949-3.08-2.712-2.917-3.9a.756.756,0,0,1,.748-.646.767.767,0,0,1,.095.006.749.749,0,0,1,.646.823,9.211,9.211,0,0,0,2.366,2.544C20.217,41.109,28.163,42.859,33.762,42.859a40.938,40.938,0,0,0,8.962-1.283l.318-.069c4.137-1.181,11.125-3.344,17.217-5.559,9.57-3.48,12.275-5.359,12.859-6.322a.758.758,0,0,1,.644-.361A.749.749,0,0,1,74.4,30.4c-1.133,1.869-6.554,4.508-16.112,7.844-7.408,2.585-14.572,4.628-14.873,4.714l-.014,0-.376.084A42.58,42.58,0,0,1,33.7,44.375ZM.628,25.259a.253.253,0,0,0-.252.214c-.092.667.956,1.984,2.735,3.437C19.853,42.1,27.97,43.875,33.7,43.875a42.2,42.2,0,0,0,9.216-1.318l.367-.082c.388-.11,7.493-2.139,14.839-4.7,11.766-4.106,15.113-6.416,15.849-7.63a.25.25,0,0,0-.085-.343.245.245,0,0,0-.127-.036.252.252,0,0,0-.217.121c-.909,1.5-5.322,3.7-13.115,6.532-6.107,2.221-13.114,4.39-17.258,5.572l-.015,0-.325.071a41.317,41.317,0,0,1-9.069,1.295,28.447,28.447,0,0,1-12.124-2.975C16.53,38.031,10.572,34.151,3.422,28.521a16.359,16.359,0,0,1-1.757-1.666c-.815-.912-.8-1.188-.8-1.292l0-.022a.246.246,0,0,0-.048-.184.249.249,0,0,0-.166-.1Z" fill="#778495"/><path d="M33.478,30.805c-5.668,0-12.4-2.536-25.26-12.3A7.14,7.14,0,0,1,6.2,16.15c-.491-.944-.584-1.644-.286-2.14a.5.5,0,1,1,.857.515c-.058.1-.056.448.316,1.164a6.159,6.159,0,0,0,1.74,2.021C27.41,31.821,32.873,30.546,41.139,28.619c.674-.157,1.367-.319,2.086-.476,6.29-1.694,23.115-6.837,25.141-10.178a.5.5,0,1,1,.856.518C66.574,22.849,44.4,28.861,43.462,29.114c-.737.163-1.426.323-2.1.479a34.107,34.107,0,0,1-7.887,1.212" fill="#778495"/><path d="M33.478,31.055a23.5,23.5,0,0,1-10.039-2.512c-4.174-1.935-9.2-5.153-15.373-9.838a7.391,7.391,0,0,1-2.094-2.44,2.428,2.428,0,0,1-.279-2.384.754.754,0,0,1,.643-.364.751.751,0,0,1,.652,1.12,1.926,1.926,0,0,0,.314.937,5.911,5.911,0,0,0,1.67,1.937c11.251,8.541,18.368,12.025,24.567,12.025a32.468,32.468,0,0,0,7.539-1.16l.1-.024c.639-.149,1.3-.3,1.984-.452,3.376-.909,9.1-2.623,14.143-4.463,7.9-2.886,10.26-4.639,10.843-5.6a.75.75,0,0,1,1.284.777c-1.134,1.87-5.727,4.213-13.652,6.965-6.113,2.123-12.009,3.712-12.257,3.778l-.011,0c-.752.166-1.465.332-2.094.478A34.108,34.108,0,0,1,33.478,31.055ZM6.338,14.017a.248.248,0,0,0-.215.121c-.25.416-.154,1.036.293,1.9a6.889,6.889,0,0,0,1.952,2.272c11.458,8.7,18.733,12.248,25.109,12.248a33.739,33.739,0,0,0,7.83-1.205c.629-.146,1.342-.312,2.094-.478.317-.085,6.161-1.663,12.218-3.766,7.7-2.674,12.331-5.009,13.388-6.751a.25.25,0,0,0-.429-.258c-.909,1.5-4.643,3.454-11.1,5.811-5.058,1.847-10.806,3.566-14.19,4.478l-.012,0c-.682.149-1.343.3-1.983.452l-.1.023a32.852,32.852,0,0,1-7.655,1.173,22.873,22.873,0,0,1-9.792-2.464A87.257,87.257,0,0,1,8.671,17.909,6.414,6.414,0,0,1,6.86,15.8c-.346-.667-.456-1.167-.308-1.41a.25.25,0,0,0-.086-.341A.247.247,0,0,0,6.338,14.017Z" fill="#778495"/></g></svg>