<svg xmlns="http://www.w3.org/2000/svg" xmlns:xlink="http://www.w3.org/1999/xlink" width="52.673" height="52.222" viewBox="0 0 52.673 52.222"><defs><clipPath id="a"><rect width="52.673" height="52.222" transform="translate(0 0)" fill="#778495"/></clipPath></defs><g clip-path="url(#a)"><path d="M26.08,25.837a2.993,2.993,0,0,0-2.99-2.99H8.265a2.993,2.993,0,0,0-2.99,2.99v3.342a2.993,2.993,0,0,0,2.99,2.99H23.09a2.993,2.993,0,0,0,2.99-2.99Zm-1.646,3.342a1.345,1.345,0,0,1-1.343,1.343H8.265a1.345,1.345,0,0,1-1.344-1.343V25.837a1.345,1.345,0,0,1,1.344-1.343H23.09a1.345,1.345,0,0,1,1.343,1.343Zm1.646-15.82a2.993,2.993,0,0,0-2.99-2.99H8.265a2.993,2.993,0,0,0-2.99,2.99V16.7a2.993,2.993,0,0,0,2.99,2.99H23.09a2.993,2.993,0,0,0,2.99-2.99ZM24.433,16.7a1.345,1.345,0,0,1-1.343,1.343H8.265A1.345,1.345,0,0,1,6.921,16.7V13.359a1.345,1.345,0,0,1,1.344-1.343H23.09a1.345,1.345,0,0,1,1.343,1.343ZM23.09,35.325H8.265a2.993,2.993,0,0,0-2.99,2.99v3.342a2.993,2.993,0,0,0,2.99,2.99H23.09a2.993,2.993,0,0,0,2.99-2.99V38.315a2.993,2.993,0,0,0-2.99-2.99m1.343,6.332A1.345,1.345,0,0,1,23.09,43H8.265a1.345,1.345,0,0,1-1.344-1.343V38.315a1.345,1.345,0,0,1,1.344-1.343H23.09a1.345,1.345,0,0,1,1.343,1.343ZM51.151,5.315A10.719,10.719,0,0,0,42.112.008c-.178,0-.357,0-.535,0a10.72,10.72,0,0,0-9.04,5.307,10.81,10.81,0,0,0-.277,10.567l8.855,16.943a.823.823,0,0,0,1.459,0l8.855-16.943a10.81,10.81,0,0,0-.277-10.567Zm-1.182,9.8L41.844,30.668,33.718,15.12a9.175,9.175,0,0,1,.236-8.968,9.084,9.084,0,0,1,7.66-4.5l.23,0,.23,0a9.085,9.085,0,0,1,7.66,4.5,9.174,9.174,0,0,1,.236,8.968ZM48.612,25.529a.823.823,0,0,0-.823.823V48.394A2.189,2.189,0,0,1,45.6,50.58H3.832a2.189,2.189,0,0,1-2.186-2.186V6.623A2.189,2.189,0,0,1,3.832,4.437h26.5a.823.823,0,0,0,0-1.646H3.832A3.837,3.837,0,0,0,0,6.623V48.394a3.837,3.837,0,0,0,3.832,3.833H45.6a3.837,3.837,0,0,0,3.832-3.833V26.353a.823.823,0,0,0-.823-.823ZM41.844,4.594a5.429,5.429,0,1,0,5.429,5.429A5.434,5.434,0,0,0,41.844,4.594Zm0,9.21a3.782,3.782,0,1,1,3.782-3.782A3.786,3.786,0,0,1,41.844,13.8" transform="translate(0 -0.005)" fill="#778495"/></g></svg>