<svg xmlns="http://www.w3.org/2000/svg" xmlns:xlink="http://www.w3.org/1999/xlink" width="79.532" height="64.335" viewBox="0 0 79.532 64.335"><defs><clipPath id="a"><rect width="79.532" height="64.335" transform="translate(-4 -3)" fill="#778495" stroke="#778495" stroke-width="0.5"/></clipPath></defs><g transform="translate(4 3)" clip-path="url(#a)"><path d="M67.619,25.567h0l-3.1-1.265A29.3,29.3,0,0,0,35.769,0,28.933,28.933,0,0,0,18.564,5.615,8,8,0,0,0,17.3,5.379a6.232,6.232,0,0,0-2.209.094l-11.4,2.55A4.411,4.411,0,0,0,.011,12.675L3.525,34.623a9.135,9.135,0,0,0,2.353,5.505A10.442,10.442,0,0,0,8.056,41.9a18.879,18.879,0,0,0,1.906.838,29.158,29.158,0,0,0,42.731,10.19l-.013-.018,11.006-.251.063,0A5.937,5.937,0,0,0,65.826,52l.1.033.034-.1a5.88,5.88,0,0,0,2.9-4.124l2.579-15.309a6.335,6.335,0,0,0-3.823-6.927M63.269,23.79,48.138,17.611l7.82-7.82a27.846,27.846,0,0,1,7.311,14M55.143,8.981l-8.159,8.158L19.9,6.079a27.94,27.94,0,0,1,35.245,2.9M19.05,7.125l.868.355,1.432.585,4.039,1.65L27,10.374,46,18.129,26.441,37.682l-.954-.314a6.5,6.5,0,0,1-4.446-5.843L19.25,16.233l-.2-1.729-.507-4.332L18.36,8.64l-.212-1.809a6.6,6.6,0,0,1,.9.294M4.812,34.508l-.97-6.056L1.294,12.562A3.127,3.127,0,0,1,3.919,9.291l9.221-2.063,2.307-.517c.065-.01.131-.016.2-.025a6.636,6.636,0,0,1,1.183-.053l.354,3.019.186,1.586.536,4.607.22,1.871,1.631,13.9a7.779,7.779,0,0,0,5.327,6.976l.341.112-5.368,5.367L19.017,43.8l-5.49-1.445-1.778-.467L10.657,41.6c-.02-.041-.044-.079-.064-.12l-.137.067a7.894,7.894,0,0,1-5.644-7.035M19,45.121l-3.453,3.452a28.2,28.2,0,0,1-4.065-5.427ZM16.351,49.4l3.94-3.94,28.043,7.367A9.016,9.016,0,0,0,50.09,53c.143,0,.287-.018.43-.025A28.052,28.052,0,0,1,16.351,49.4M63.62,51.367,58,51.493l-1.972.044-4.926.11-.063,0c-.235.028-.471.044-.705.052a7.762,7.762,0,0,1-2.163-.24c-.09-.023-.181-.045-.272-.072l-5.177-1.362-2.537-.667L21.525,44.456l-.183-.048,5.3-5.3L47.892,46.1l1.521.5,3.909,1.287,1.4.46,3.468,1.141,1.351.445,4.271,1.406c-.064.011-.126.024-.19.032m6.553-19.092h0L67.588,47.584a4.6,4.6,0,0,1-1.916,3l-5.2-1.711-1.325-.436-3.394-1.116-1.364-.452-3.774-1.242-1.443-.475L27.665,38.084,47.15,18.6,55.7,22.093l1.585.648,4.062,1.66,1.418.579,3.517,1.437.847.346a4.987,4.987,0,0,1,.5.239,5.042,5.042,0,0,1,2.544,5.274" transform="translate(0 0)" fill="#778495"/><path d="M35.769,58.584A29.221,29.221,0,0,1,9.788,42.939a19.866,19.866,0,0,1-1.844-.819l-.008,0A10.612,10.612,0,0,1,5.7,40.3L5.694,40.3a9.426,9.426,0,0,1-2.417-5.645L-.239,12.692a4.661,4.661,0,0,1,3.88-4.915l11.4-2.55a7.246,7.246,0,0,1,1.371-.155c.286,0,.557.024.908.058a8.037,8.037,0,0,1,1.191.213,29.465,29.465,0,0,1,46.236,18.78l2.968,1.212h0a6.585,6.585,0,0,1,3.972,7.2L69.109,47.844A6.107,6.107,0,0,1,66.168,52.1l-.082.249-.238-.078a6.163,6.163,0,0,1-2.069.632h-.012l-.075.005L52.8,53.153A29.219,29.219,0,0,1,35.769,58.584ZM8.174,41.676a18.578,18.578,0,0,0,1.869.822l.1.032.047.089A28.908,28.908,0,0,0,52.345,52.865l-.14-.2,11.47-.262.051,0a5.666,5.666,0,0,0,1.983-.626l.094-.05h0l.031-.018a5.609,5.609,0,0,0,2.779-3.949l2.579-15.308A6.052,6.052,0,0,0,67.523,25.8h0L64.3,24.481l-.023-.137A29.178,29.178,0,0,0,35.769.25,28.693,28.693,0,0,0,18.712,5.817l-.1.07-.115-.03a7.738,7.738,0,0,0-1.228-.229,6.078,6.078,0,0,0-2.135.09L3.73,8.269A4.145,4.145,0,0,0,.26,12.647L3.775,34.605a8.924,8.924,0,0,0,2.286,5.352A10.409,10.409,0,0,0,8.174,41.676Zm27.6,15.758a28.067,28.067,0,0,1-19.592-7.855l-.183-.177,4.222-4.222,28.174,7.4a8.791,8.791,0,0,0,1.7.171c.078,0,.159-.006.244-.013.058,0,.115-.009.173-.012l.962-.046-.818.508A28.167,28.167,0,0,1,35.769,57.434ZM16.708,49.4A27.808,27.808,0,0,0,49.6,53.239a9.276,9.276,0,0,1-1.314-.168l-.014,0-27.9-7.331ZM50.1,51.956a8.023,8.023,0,0,1-1.99-.251l-.039-.01c-.077-.019-.157-.04-.238-.063L40.118,49.6l-19.26-5.065,5.719-5.719L63.888,51.1l-.037.484-.061.011c-.044.008-.089.016-.138.023l-.027,0L51.111,51.9l-.051,0c-.227.027-.463.045-.721.053C50.258,51.955,50.176,51.956,50.1,51.956Zm-28.269-7.68,26.139,6.874c.073.022.146.04.223.059l.04.01a7.525,7.525,0,0,0,2.094.232c.245-.008.468-.025.683-.05h.012l.076-.005,11.336-.253L26.713,39.39Zm43.885,6.589-10.037-3.3-1.365-.452-5.217-1.717L27.2,38.195,47.09,18.306l20.138,8.225a5.31,5.31,0,0,1,3.191,5.787l-.049.287h0L67.834,47.626a4.881,4.881,0,0,1-2.021,3.169ZM28.129,37.974l26.337,8.662,1.365.452,9.8,3.223a4.38,4.38,0,0,0,1.712-2.77l2.61-15.474a4.811,4.811,0,0,0-2.915-5.075l-19.828-8.1ZM15.545,48.931l-.177-.185a28.513,28.513,0,0,1-4.1-5.475l-.3-.518,8.517,2.238Zm-3.537-5.389a28.072,28.072,0,0,0,3.547,4.673l2.963-2.962Zm8.121.805-9.646-2.538,0,0-.093-.028a8.144,8.144,0,0,1-5.822-7.247L1.044,12.577A3.367,3.367,0,0,1,3.871,9.046L15.409,6.465c.044-.007.089-.012.133-.017l.07-.008a6.915,6.915,0,0,1,1.226-.055l.212.009.564,4.816.756,6.478L20,31.6a7.484,7.484,0,0,0,5.156,6.751l.727.239Zm-9.3-2.965,9.153,2.408,4.979-4.978A8.029,8.029,0,0,1,19.5,31.635l-1.85-15.76-.721-6.193-.329-2.8a6.39,6.39,0,0,0-.926.057l-.078.009-.107.013L3.958,9.538a2.869,2.869,0,0,0-2.416,3L5.061,34.491a7.675,7.675,0,0,0,5.373,6.785l.272-.134.111.222Zm15.683-3.415-1.1-.361a6.746,6.746,0,0,1-4.617-6.059L17.857,6.5l.351.087a6.874,6.874,0,0,1,.936.306L27.1,10.142l19.339,7.9Zm-8.07-30.8L19.5,16.2l1.793,15.309a6.285,6.285,0,0,0,4.275,5.618l.808.265L45.552,18.218,18.955,7.356C18.787,7.288,18.614,7.226,18.439,7.172ZM63.6,24.2,47.7,17.7l8.266-8.266.177.183a28.063,28.063,0,0,1,7.376,14.124ZM48.581,17.521l14.35,5.86a27.564,27.564,0,0,0-6.976-13.233Zm-1.538-.088L19.376,6.135l.381-.262A28.156,28.156,0,0,1,46.431,3.011,28.468,28.468,0,0,1,55.316,8.8l.185.177ZM20.425,6.024l26.5,10.821,7.86-7.859a27.689,27.689,0,0,0-34.36-2.962Z" transform="translate(0 0)" fill="#778495"/><path d="M63.5,50.78l-9.076-3.143A.645.645,0,1,0,54,48.856L63.078,52A.645.645,0,0,0,63.5,50.78" transform="translate(-12.506 -11.112)" fill="#778495"/><path d="M63.289,52.284h0A.894.894,0,0,1,63,52.235L53.92,49.092a.895.895,0,1,1,.586-1.691l9.076,3.143a.9.9,0,0,1-.293,1.741Zm-9.076-4.433a.395.395,0,0,0-.129.768l9.076,3.143a.394.394,0,0,0,.5-.244.394.394,0,0,0-.243-.5l-9.076-3.143A.4.4,0,0,0,54.213,47.851Z" transform="translate(-12.506 -11.112)" fill="#778495"/></g></svg>