<svg xmlns="http://www.w3.org/2000/svg" xmlns:xlink="http://www.w3.org/1999/xlink" width="55.924" height="52.573" viewBox="0 0 55.924 52.573"><defs><clipPath id="a"><rect width="55.924" height="52.573" transform="translate(0 0)" fill="#778495" stroke="#f7f7f7" stroke-width="1.5"/></clipPath></defs><g clip-path="url(#a)"><path d="M39.472,0a4.292,4.292,0,0,0-4.263,4.263v2.8H1.651a1.645,1.645,0,1,0,0,3.29H35.209v2.8a4.292,4.292,0,0,0,4.263,4.263h6.251a4.292,4.292,0,0,0,4.263-4.263v-2.8h4.285a1.645,1.645,0,1,0,0-3.29H49.987v-2.8A4.292,4.292,0,0,0,45.723,0Zm0,3.29h6.251a.938.938,0,0,1,.973.973v8.9a.935.935,0,0,1-.973.97H39.472a.933.933,0,0,1-.97-.97v-8.9a.936.936,0,0,1,.97-.973Zm-23.75,16.04a4.289,4.289,0,0,0-4.26,4.263v2.8H1.651a1.645,1.645,0,1,0,0,3.29h9.811v2.792a4.289,4.289,0,0,0,4.26,4.263h6.255a4.289,4.289,0,0,0,4.26-4.263V29.686H54.272a1.645,1.645,0,1,0,0-3.29H26.237v-2.8a4.289,4.289,0,0,0-4.26-4.263Zm0,3.29h6.255a.936.936,0,0,1,.97.973v8.886a.936.936,0,0,1-.97.973H15.722a.936.936,0,0,1-.97-.973V23.592a.936.936,0,0,1,.97-.973m23.75,12.545a4.289,4.289,0,0,0-4.263,4.26v2.792H1.651a1.646,1.646,0,1,0,0,3.293H35.209v2.8a4.289,4.289,0,0,0,4.263,4.26h6.251a4.289,4.289,0,0,0,4.263-4.26v-2.8h4.285a1.646,1.646,0,1,0,0-3.293H49.987V39.423a4.289,4.289,0,0,0-4.263-4.26Zm0,3.29h6.251a.936.936,0,0,1,.973.97v8.889a.936.936,0,0,1-.973.97H39.472a.933.933,0,0,1-.97-.97V39.423a.933.933,0,0,1,.97-.97Z" transform="translate(0 0.001)" fill="#778495"/><path d="M39.472-.751h6.251a5.041,5.041,0,0,1,5.013,5.013V6.317h3.542A2.395,2.395,0,0,1,56.673,8.7a2.411,2.411,0,0,1-.7,1.7,2.379,2.379,0,0,1-1.693.7H50.737v2.055a5.041,5.041,0,0,1-5.013,5.013H39.472a5.041,5.041,0,0,1-5.013-5.013V11.106H1.644a2.379,2.379,0,0,1-1.693-.7,2.411,2.411,0,0,1-.7-1.7A2.395,2.395,0,0,1,1.644,6.317H34.459V4.262A5.041,5.041,0,0,1,39.472-.751Zm14.8,8.568H49.237V4.262A3.56,3.56,0,0,0,45.723.749H39.472a3.56,3.56,0,0,0-3.513,3.513V7.817H1.644a.895.895,0,0,0-.894.891.895.895,0,0,0,.895.9H35.959v3.555a3.56,3.56,0,0,0,3.513,3.513h6.251a3.56,3.56,0,0,0,3.513-3.513V9.606h5.042a.889.889,0,0,0,.633-.262.9.9,0,0,0,.262-.636.895.895,0,0,0-.894-.891Zm-14.8-5.278h6.252a1.686,1.686,0,0,1,1.723,1.723v8.9a1.684,1.684,0,0,1-1.723,1.72H39.472a1.682,1.682,0,0,1-1.72-1.72v-8.9A1.684,1.684,0,0,1,39.472,2.539Zm6.252,10.842c.154,0,.223-.068.223-.22v-8.9a.2.2,0,0,0-.223-.223H39.472c-.152,0-.22.069-.22.223v8.9c0,.152.068.22.22.22Zm-30,5.2h6.255a5.039,5.039,0,0,1,5.01,5.013v2.055H54.279a2.395,2.395,0,0,1,2.394,2.386,2.411,2.411,0,0,1-.7,1.7,2.379,2.379,0,0,1-1.693.7H26.987v2.042a5.039,5.039,0,0,1-5.01,5.013H15.722a5.039,5.039,0,0,1-5.01-5.013V30.436H1.645a2.379,2.379,0,0,1-1.693-.7,2.411,2.411,0,0,1-.7-1.7,2.395,2.395,0,0,1,2.395-2.386h9.068V23.592a5.039,5.039,0,0,1,5.01-5.013Zm38.55,8.568H25.487V23.592a3.559,3.559,0,0,0-3.51-3.513H15.722a3.559,3.559,0,0,0-3.51,3.513v3.555H1.645a.895.895,0,0,0-.895.891.895.895,0,0,0,.895.9H12.212v3.542a3.559,3.559,0,0,0,3.51,3.513h6.255a3.559,3.559,0,0,0,3.51-3.513V28.936H54.279a.889.889,0,0,0,.633-.262.9.9,0,0,0,.262-.636.895.895,0,0,0-.895-.891Zm-38.55-5.278h6.255a1.684,1.684,0,0,1,1.72,1.723v8.886a1.684,1.684,0,0,1-1.72,1.723H15.722A1.684,1.684,0,0,1,14,32.478V23.592A1.684,1.684,0,0,1,15.722,21.868ZM21.977,32.7c.152,0,.22-.069.22-.223V23.592c0-.154-.068-.223-.22-.223H15.722c-.152,0-.22.069-.22.223v8.886c0,.154.068.223.22.223Zm17.5,1.712h6.251a5.039,5.039,0,0,1,5.013,5.01v2.042h3.542a2.38,2.38,0,0,1,1.694.7,2.411,2.411,0,0,1,.7,1.7,2.395,2.395,0,0,1-2.394,2.389H50.737v2.055a5.039,5.039,0,0,1-5.013,5.01H39.472a5.039,5.039,0,0,1-5.013-5.01V46.258H1.644A2.395,2.395,0,0,1-.75,43.868a2.41,2.41,0,0,1,.7-1.7,2.38,2.38,0,0,1,1.694-.7H34.459V39.423a5.039,5.039,0,0,1,5.013-5.01Zm14.8,8.551H49.237V39.423a3.559,3.559,0,0,0-3.513-3.51H39.473a3.559,3.559,0,0,0-3.513,3.51v3.542H1.645a.89.89,0,0,0-.633.262.9.9,0,0,0,0,1.271.889.889,0,0,0,.63.26H35.959v3.555a3.559,3.559,0,0,0,3.513,3.51h6.251a3.559,3.559,0,0,0,3.513-3.51V44.758h5.042a.889.889,0,0,0,.631-.26.9.9,0,0,0,0-1.271.89.89,0,0,0-.633-.262ZM39.472,37.7h6.252a1.684,1.684,0,0,1,1.723,1.72v8.889a1.684,1.684,0,0,1-1.723,1.72H39.472a1.682,1.682,0,0,1-1.72-1.72V39.423A1.682,1.682,0,0,1,39.472,37.7Zm6.252,10.829c.154,0,.223-.068.223-.22V39.423c0-.152-.069-.22-.223-.22H39.473c-.153,0-.221.068-.221.22v8.889c0,.152.068.22.22.22Z" transform="translate(0 0.001)" fill="#f7f7f7"/></g></svg>