<svg xmlns="http://www.w3.org/2000/svg" xmlns:xlink="http://www.w3.org/1999/xlink" width="59.164" height="57.755" viewBox="0 0 59.164 57.755"><defs><clipPath id="a"><rect width="59.164" height="57.755" fill="#778495" stroke="#778495" stroke-width="0.5"/></clipPath></defs><g clip-path="url(#a)"><path d="M52.175,28.859l6.99-26.446L18.7.006,18.593,0l-8.4,4.888L.032,42.985,0,43.1l3.85,8.623,40.38,5.982.307.047,1.086-4.11,9.248.666c.076.006.152.008.229.008a3.066,3.066,0,0,0,2.949-3.87ZM43.967,50.867a4.215,4.215,0,0,1,.119-1.515L54.8,8.927a4.21,4.21,0,0,1,.74-1.5l2.4-3.116L44.433,55.43ZM18.761.706,58.044,3.043,54.99,7a4.879,4.879,0,0,0-.336.5l-43-2.664ZM10.752,5.481l43.568,2.7a4.841,4.841,0,0,0-.193.569L43.493,48.876.8,42.813ZM.954,43.537l42.377,6.018a4.906,4.906,0,0,0-.056,1.383l.614,6.018L4.329,51.1Zm55.967,9.222a2.323,2.323,0,0,1-2,.858L45.8,52.96,51.82,30.2l5.558,20.43a2.342,2.342,0,0,1-.457,2.128" transform="translate(0 0)" fill="#778495"/><path d="M44.722,58.036l-.529-.08-40.515-6L-.264,43.125l.055-.2L9.976,4.724,18.533-.254,59.485,2.181,52.434,28.858,58.29,50.384a3.316,3.316,0,0,1-3.19,4.185c-.083,0-.164,0-.247-.009l-9.041-.651ZM4.022,51.5l40.331,5.975,1.082-4.094,9.455.681c.071.005.14.008.211.008a2.816,2.816,0,0,0,2.707-3.554L51.916,28.86,58.845,2.644,18.654.254l-8.248,4.8L.264,43.083Zm40.149,5.75L4.156,51.322l-3.614-8.1,43.082,6.118-.046.256a4.666,4.666,0,0,0-.053,1.313ZM4.5,50.868l39.107,5.793-.581-5.7a5.128,5.128,0,0,1,.018-1.2L1.367,43.848Zm40.174,4.626-.49-.038-.466-4.563a4.465,4.465,0,0,1,.126-1.6L54.559,8.863a4.457,4.457,0,0,1,.784-1.59l2.4-3.116.44.217ZM57.386,5.442,55.738,7.578a3.959,3.959,0,0,0-.7,1.413L44.328,49.417a3.967,3.967,0,0,0-.112,1.425l.326,3.2ZM55.116,53.875c-.071,0-.143,0-.215-.009l-9.415-.678,6.331-23.952,5.8,21.329a2.623,2.623,0,0,1-2.5,3.31Zm-8.992-1.143,8.816.635c.06,0,.119.007.176.007A2.123,2.123,0,0,0,57.137,50.7l-5.313-19.53Zm-2.445-3.578L.483,43.021l10.08-37.8L54.682,7.952l-.129.321a4.58,4.58,0,0,0-.183.539ZM1.111,42.6l42.2,5.992L53.886,8.685c.024-.089.051-.181.083-.276L10.941,5.743ZM54.791,7.763,10.817,5.039,18.7.452,58.53,2.821,55.188,7.153a4.626,4.626,0,0,0-.319.478Zm-42.3-3.121,42.024,2.6a4.807,4.807,0,0,1,.274-.4l2.765-3.584L18.822.96Z" transform="translate(0 0)" fill="#778495"/></g></svg>