<svg width="334" height="334" viewBox="0 0 334 334" fill="none" xmlns="http://www.w3.org/2000/svg">
<g clip-path="url(#clip0_1800_4320)">
<path d="M167 334C259.232 334 334 259.232 334 167C334 74.7684 259.232 0 167 0C74.7684 0 0 74.7684 0 167C0 259.232 74.7684 334 167 334Z" fill="#F0F0F0"/>
<path d="M334.001 167C334.001 100.791 295.47 43.5831 239.609 16.5708V317.428C295.47 290.417 334.001 233.209 334.001 167Z" fill="#D80027"/>
<path d="M0 167C0 233.209 38.5307 290.417 94.3915 317.429V16.5708C38.5307 43.5831 0 100.791 0 167Z" fill="#D80027"/>
<path d="M196.044 188.782L225.087 174.26L210.566 167V152.478L181.523 167L196.044 137.956H181.523L167.001 116.174L152.479 137.956H137.957L152.479 167L123.435 152.478V167L108.914 174.26L137.957 188.782L130.696 203.304H159.74V225.087H174.261V203.304H203.305L196.044 188.782Z" fill="#D80027"/>
</g>
<defs>
<clipPath id="clip0_1800_4320">
<rect width="334" height="334" fill="white"/>
</clipPath>
</defs>
</svg>
