<svg width="512" height="512" viewBox="0 0 512 512" fill="none" xmlns="http://www.w3.org/2000/svg">
<g clip-path="url(#clip0_1800_4401)">
<path d="M256 512C397.385 512 512 397.385 512 256C512 114.615 397.385 0 256 0C114.615 0 0 114.615 0 256C0 397.385 114.615 512 256 512Z" fill="#D80027"/>
<path d="M140.1 155.8L162.2 223.8H233.7L175.9 265.9L198 333.9L140.1 291.9L82.2 333.9L104.4 265.9L46.5 223.8H118L140.1 155.8Z" fill="#FFDA44"/>
<path d="M303.499 396.5L286.599 375.7L261.599 385.4L276.099 362.9L259.199 342L285.099 348.9L299.699 326.4L301.099 353.2L327.099 360.1L301.999 369.7L303.499 396.5Z" fill="#FFDA44"/>
<path d="M337.099 335.5L345.099 309.9L323.199 294.4L349.999 294L357.899 268.4L366.599 293.8L393.399 293.5L371.899 309.5L380.499 334.9L358.599 319.4L337.099 335.5Z" fill="#FFDA44"/>
<path d="M382.401 187.9L370.601 212L389.801 230.7L363.301 226.9L351.501 250.9L346.901 224.5L320.301 220.7L344.101 208.2L339.501 181.7L358.701 200.4L382.401 187.9Z" fill="#FFDA44"/>
<path d="M304.198 114.9L302.198 141.6L327.098 151.7L300.998 158.1L299.098 184.9L284.998 162.1L258.898 168.5L276.198 148L261.998 125.3L286.898 135.4L304.198 114.9Z" fill="#FFDA44"/>
</g>
<defs>
<clipPath id="clip0_1800_4401">
<rect width="512" height="512" fill="white"/>
</clipPath>
</defs>
</svg>
