<svg width="256" height="256" viewBox="0 0 256 256" fill="none" xmlns="http://www.w3.org/2000/svg">
<g clip-path="url(#clip0_1800_4326)">
<path d="M128 256C198.692 256 256 198.692 256 128C256 57.3075 198.692 0 128 0C57.3075 0 0 57.3075 0 128C0 198.692 57.3075 256 128 256Z" fill="#F0F0F0"/>
<path d="M256.002 128C256.002 72.9644 221.266 26.0469 172.523 7.96143V248.039C221.266 229.953 256.002 183.035 256.002 128Z" fill="#D80027"/>
<path d="M0 128C0 183.035 34.7365 229.953 83.4785 248.038V7.96143C34.7365 26.0469 0 72.9644 0 128Z" fill="#0052B4"/>
</g>
<defs>
<clipPath id="clip0_1800_4326">
<rect width="256" height="256" fill="white"/>
</clipPath>
</defs>
</svg>
