<svg width="369" height="369" viewBox="0 0 369 369" fill="none" xmlns="http://www.w3.org/2000/svg">
<g clip-path="url(#clip0_1800_4330)">
<path d="M11.4766 248.674C37.5451 318.931 105.172 369 184.501 369C263.829 369 331.456 318.931 357.525 248.674L184.501 232.631L11.4766 248.674Z" fill="#FFDA44"/>
<path d="M184.501 0C105.172 0 37.5451 50.0687 11.4766 120.326L184.501 136.369L357.525 120.326C331.456 50.0687 263.829 0 184.501 0Z" fill="black"/>
<path d="M11.4758 120.327C4.05972 140.314 0 161.932 0 184.5C0 207.068 4.05972 228.687 11.4758 248.674H357.525C364.941 228.687 369 207.068 369 184.5C369 161.932 364.941 140.314 357.524 120.327H11.4758Z" fill="#D80027"/>
</g>
<defs>
<clipPath id="clip0_1800_4330">
<rect width="369" height="369" fill="white"/>
</clipPath>
</defs>
</svg>
