<svg width="303" height="303" viewBox="0 0 303 303" fill="none" xmlns="http://www.w3.org/2000/svg">
<g clip-path="url(#clip0_1800_4334)">
<path d="M151.5 303C235.171 303 303 235.171 303 151.5C303 67.8289 235.171 0 151.5 0C67.8289 0 0 67.8289 0 151.5C0 235.171 67.8289 303 151.5 303Z" fill="#F0F0F0"/>
<path d="M303 151.5C303 86.3605 261.887 30.8292 204.195 9.42334V293.578C261.887 272.171 303 216.64 303 151.5Z" fill="#D80027"/>
<path d="M0 151.5C0 216.64 41.1133 272.171 98.8046 293.577V9.42334C41.1133 30.8292 0 86.3605 0 151.5Z" fill="#6DA544"/>
</g>
<defs>
<clipPath id="clip0_1800_4334">
<rect width="303" height="303" fill="white"/>
</clipPath>
</defs>
</svg>
