<svg width="356" height="356" viewBox="0 0 356 356" fill="none" xmlns="http://www.w3.org/2000/svg">
<g clip-path="url(#clip0_1800_4366)">
<path d="M178 356C276.307 356 356 276.307 356 178C356 79.6933 276.307 0 178 0C79.6933 0 0 79.6933 0 178C0 276.307 79.6933 356 178 356Z" fill="#F0F0F0"/>
<path d="M170.262 178H356.001C356.001 161.933 353.859 146.371 349.869 131.565H170.262V178Z" fill="#D80027"/>
<path d="M170.262 85.1306H329.875C318.979 67.3501 305.048 51.6339 288.803 38.6956H170.262V85.1306Z" fill="#D80027"/>
<path d="M178.002 356C219.894 356 258.398 341.521 288.805 317.304H67.1992C97.6059 341.521 136.11 356 178.002 356Z" fill="#D80027"/>
<path d="M26.1265 270.869H329.875C338.623 256.596 345.406 240.992 349.869 224.434H6.13281C10.5946 240.992 17.3788 256.596 26.1265 270.869Z" fill="#D80027"/>
<path d="M178 178C178 79.6939 178 68.1045 178 0C79.6939 0 0 79.6939 0 178H178Z" fill="#0052B4"/>
<path d="M118.365 152.364C94.0555 152.364 74.349 132.657 74.349 108.348C74.349 84.0389 94.0562 64.3317 118.365 64.3317C125.945 64.3317 133.076 66.2487 139.303 69.6223C129.535 60.0708 116.177 54.1746 101.436 54.1746C71.517 54.1746 47.2617 78.4291 47.2617 108.348C47.2617 138.268 71.517 162.522 101.436 162.522C116.177 162.522 129.535 156.626 139.303 147.075C133.076 150.447 125.945 152.364 118.365 152.364Z" fill="#FFDA44"/>
<path d="M130.769 77.3911L138.584 93.7323L156.231 89.655L148.329 105.952L162.521 117.207L144.851 121.191L144.9 139.305L130.769 127.972L116.638 139.305L116.686 121.191L99.0156 117.207L113.208 105.952L105.305 89.655L122.954 93.7323L130.769 77.3911Z" fill="#FFDA44"/>
</g>
<defs>
<clipPath id="clip0_1800_4366">
<rect width="356" height="356" fill="white"/>
</clipPath>
</defs>
</svg>
