<svg width="345" height="345" viewBox="0 0 345 345" fill="none" xmlns="http://www.w3.org/2000/svg">
<g clip-path="url(#clip0_1800_4316)">
<path d="M172.5 345C267.769 345 345 267.769 345 172.5C345 77.2309 267.769 0 172.5 0C77.2309 0 0 77.2309 0 172.5C0 267.769 77.2309 345 172.5 345Z" fill="#F0F0F0"/>
<path d="M172.501 0C98.3322 0 35.1035 46.8122 10.7305 112.5H334.272C309.899 46.8122 246.67 0 172.501 0Z" fill="#A2001D"/>
<path d="M172.501 345C246.67 345 309.899 298.188 334.272 232.5H10.7305C35.1035 298.188 98.3322 345 172.501 345Z" fill="#0052B4"/>
</g>
<defs>
<clipPath id="clip0_1800_4316">
<rect width="345" height="345" fill="white"/>
</clipPath>
</defs>
</svg>
