<svg width="345" height="345" viewBox="0 0 345 345" fill="none" xmlns="http://www.w3.org/2000/svg">
<g clip-path="url(#clip0_1800_4354)">
<path d="M0 172.5C0 193.6 3.79567 213.812 10.7294 232.499L172.5 247.5L334.271 232.499C341.204 213.812 345 193.6 345 172.5C345 151.4 341.204 131.187 334.271 112.5L172.5 97.5L10.7294 112.5C3.79567 131.187 0 151.4 0 172.5H0Z" fill="#FFDA44"/>
<path d="M334.272 112.5C309.899 46.8129 246.67 0 172.501 0C98.3322 0 35.1035 46.8129 10.7305 112.5H334.272Z" fill="#D80027"/>
<path d="M10.7305 232.5C35.1035 298.187 98.3322 345 172.501 345C246.67 345 309.899 298.187 334.272 232.5H10.7305Z" fill="#D80027"/>
</g>
<defs>
<clipPath id="clip0_1800_4354">
<rect width="345" height="345" fill="white"/>
</clipPath>
</defs>
</svg>
