<svg xmlns="http://www.w3.org/2000/svg" width="10.701" height="11.415" viewBox="0 0 10.701 11.415"><g transform="translate(-156.641 -73.729)"><path d="M157,381.41a.356.356,0,0,0-.356.356v2.188a.356.356,0,0,0,.356.356h9.988a.356.356,0,0,0,.356-.356v-2.188a.356.356,0,1,0-.713,0V383.6h-9.275v-1.831a.357.357,0,0,0-.357-.357Z" transform="translate(0 -299.167)"/><path d="M237.318,73.729a.356.356,0,0,0-.356.356v7.673L234.7,79.573a.357.357,0,0,0-.5.513l2.862,2.765h0l0,0a.3.3,0,0,0,.045.028.345.345,0,0,0,.068.045.349.349,0,0,0,.27,0,13.7,13.7,0,0,0,.113-.073l2.867-2.77a.357.357,0,0,0-.5-.513l-2.262,2.186V74.086a.358.358,0,0,0-.357-.357Z" transform="translate(-75.31)"/></g></svg>