<svg xmlns="http://www.w3.org/2000/svg" xmlns:xlink="http://www.w3.org/1999/xlink" width="23.299" height="29.928" viewBox="0 0 23.299 29.928"><defs><clipPath id="a"><rect width="23.299" height="29.928" transform="translate(0 0)" fill="none"/></clipPath></defs><g transform="translate(0 0)" clip-path="url(#a)"><path d="M21.878,0H6.653L0,6.65V28.5a1.423,1.423,0,0,0,1.422,1.422l20.456.009A1.423,1.423,0,0,0,23.3,28.507V1.419A1.423,1.423,0,0,0,21.878,0M6.818,1.442V6.815H1.452ZM22.16,28.788H1.14V7.955h5.4A1.423,1.423,0,0,0,7.961,6.533v-5.4h14.2Z" transform="translate(0 0)" fill="#1a1818"/><path d="M28.85,53.3h1.025V50.261h.646A1.786,1.786,0,0,0,32.5,48.242v-.8c0-1.329-.657-2.061-1.85-2.061h-1.8Zm2.623-5.022c0,.742-.249,1-.952,1h-.646V46.363h.773c.586,0,.826.3.826,1.047Z" transform="translate(-21.057 -33.121)" fill="#1a1818"/><path d="M51.806,52.312H49.488V45.38H48.463v7.915h3.343Z" transform="translate(-35.372 -33.121)" fill="#1a1818"/></g></svg>