<svg xmlns="http://www.w3.org/2000/svg" xmlns:xlink="http://www.w3.org/1999/xlink" width="23.299" height="29.928" viewBox="0 0 23.299 29.928"><defs><clipPath id="a"><rect width="23.299" height="29.928" transform="translate(0 0)" fill="none"/></clipPath></defs><g transform="translate(0 0)" clip-path="url(#a)"><path d="M21.878,0H6.653L0,6.65V28.5a1.423,1.423,0,0,0,1.422,1.422l20.456.009A1.423,1.423,0,0,0,23.3,28.507V1.419A1.423,1.423,0,0,0,21.878,0M6.818,1.442V6.815H1.452ZM22.16,28.788H1.14V7.955h5.4A1.423,1.423,0,0,0,7.961,6.533v-5.4h14.2Z" transform="translate(0 0)" fill="#1a1818"/><path d="M15.773,45.34l-1.73,7.925h.994l.369-1.633h1.864l.369,1.633h1.038L16.913,45.34Zm1.3,5.331H15.6l.73-3.273Z" transform="translate(-10.25 -33.092)" fill="#1a1818"/><path d="M38.763,53.186c1.165,0,1.861-.8,1.861-2.135V49.938h-1v1.145c0,.747-.277,1.11-.847,1.11s-.847-.363-.847-1.11V47.247c0-.754.277-1.121.847-1.121s.847.367.847,1.121v.913h1v-.881c0-1.337-.7-2.135-1.861-2.135s-1.861.8-1.861,2.135v3.772c0,1.337.7,2.135,1.861,2.135" transform="translate(-26.934 -32.949)" fill="#1a1818"/><path d="M57.971,50.436l.227-.36,1.887,3.217H61.21l-2.395-4.205,2.276-3.71H59.951l-1.981,3.215V45.378H56.945v7.915h1.025Z" transform="translate(-41.563 -33.12)" fill="#1a1818"/></g></svg>