<svg xmlns="http://www.w3.org/2000/svg" xmlns:xlink="http://www.w3.org/1999/xlink" width="27.235" height="33.81" viewBox="0 0 27.235 33.81"><defs><clipPath id="a"><rect width="27.235" height="33.81" fill="none"/></clipPath></defs><g transform="translate(-333 -1547)"><g transform="translate(333 1547)"><g transform="translate(0 0)" clip-path="url(#a)"><path d="M1.411,29.7A1.413,1.413,0,0,1,0,28.292V6.6L6.6,0H21.719A1.413,1.413,0,0,1,23.13,1.409V28.3a1.413,1.413,0,0,1-1.411,1.411ZM22,1.13H7.9V6.487A1.413,1.413,0,0,1,6.492,7.9H1.132V28.58H22Zm-15.231.3L1.441,6.766H6.768Z" transform="translate(0 -0.001)" fill="#040504"/><path d="M16.438,40.623v3.24H37.306V16.413H33.777a1.169,1.169,0,0,0-.094-1.129h3.342a1.413,1.413,0,0,1,1.411,1.408V43.584A1.413,1.413,0,0,1,37.025,45l-20.308-.009a1.413,1.413,0,0,1-1.411-1.411V40.65c.378,0,.756-.007,1.132-.027" transform="translate(-11.201 -11.185)" fill="#040504"/><rect width="1.017" height="7.858" transform="translate(5.433 12.169)" fill="#1a1818"/><path d="M33.49,48.016l1.832,5.221h.992V45.379h-.976v4.894L33.6,45.379H32.514v7.858h.976Z" transform="translate(-23.795 -33.21)" fill="#1a1818"/><path d="M54.34,53.237l1.706-7.858h-1l-1.27,5.784-1.27-5.784H51.468L53.2,53.237Z" transform="translate(-37.666 -33.21)" fill="#1a1818"/></g></g></g></svg>