<svg xmlns="http://www.w3.org/2000/svg" xmlns:xlink="http://www.w3.org/1999/xlink" width="23.293" height="29.92" viewBox="0 0 23.293 29.92"><defs><clipPath id="a"><rect width="23.293" height="29.92" transform="translate(0 0)" fill="none"/></clipPath></defs><g transform="translate(-329 -1713.398)"><g transform="translate(329 1713.398)"><g transform="translate(0 0)" clip-path="url(#a)"><path d="M21.872,0H6.651L0,6.648V28.49a1.423,1.423,0,0,0,1.421,1.421l20.45.009A1.423,1.423,0,0,0,23.293,28.5V1.418A1.423,1.423,0,0,0,21.872,0M6.816,1.442V6.813H1.451ZM22.154,28.78H1.14V7.953h5.4A1.423,1.423,0,0,0,7.959,6.532V1.137h14.2Z" transform="translate(0 0)" fill="#1a1818"/><rect width="1.025" height="7.913" transform="translate(5.348 12.255)" fill="#1a1818"/><path d="M33.041,48.035l1.845,5.257h1V45.379H34.9v4.928l-1.751-4.928H32.059v7.913h.982Z" transform="translate(-23.401 -33.124)" fill="#1a1818"/><path d="M53.905,53.292l1.718-7.913h-1L53.34,51.2l-1.278-5.825H51.013l1.741,7.913Z" transform="translate(-37.237 -33.124)" fill="#1a1818"/></g></g></g></svg>