<svg xmlns="http://www.w3.org/2000/svg" xmlns:xlink="http://www.w3.org/1999/xlink" width="23.3" height="29.93" viewBox="0 0 23.3 29.93"><defs><clipPath id="a"><rect width="23.3" height="29.93" fill="none"/></clipPath></defs><g transform="translate(0 0)" clip-path="url(#a)"><path d="M21.879,0H6.653L0,6.65V28.5a1.423,1.423,0,0,0,1.422,1.422l20.457.009A1.423,1.423,0,0,0,23.3,28.508V1.419A1.423,1.423,0,0,0,21.879,0M6.818,1.443V6.815H1.452ZM22.162,28.79H1.14V7.956h5.4A1.423,1.423,0,0,0,7.961,6.534v-5.4h14.2Z" transform="translate(0 0)" fill="#1a1818"/><path d="M17.016,45.379v7.915h1.85a1.742,1.742,0,0,0,1.882-1.977v-.643a1.785,1.785,0,0,0-.684-1.589,1.7,1.7,0,0,0,.547-1.445v-.422c0-1.238-.581-1.84-1.777-1.84Zm1.577,3.255h-.552V46.362h.783c.584,0,.763.21.763.9v.474c0,.715-.2.9-.994.9m-.552.983h.646c.765,0,1.036.268,1.036,1.026v.664c0,.723-.24,1-.857,1h-.826Z" transform="translate(-12.419 -33.12)" fill="#1a1818"/><path d="M38.862,53.186c1.192,0,1.9-.8,1.9-2.135V47.279c0-1.337-.712-2.135-1.9-2.135a1.874,1.874,0,0,0-1.882,2.135v3.772a1.874,1.874,0,0,0,1.882,2.135m0-7.059c.583,0,.878.377.878,1.12v3.835c0,.744-.3,1.121-.878,1.121s-.857-.367-.857-1.121V47.247c0-.754.28-1.12.857-1.12" transform="translate(-26.99 -32.949)" fill="#1a1818"/><path d="M60.64,52.311H58.322V45.379H57.3v7.916H60.64Z" transform="translate(-41.818 -33.12)" fill="#1a1818"/></g></svg>