<?xml version="1.0" encoding="UTF-8"?><svg id="a" xmlns="http://www.w3.org/2000/svg" viewBox="0 0 20 20"><path d="m10,19.5c5.246704816818237,0,9.5-4.253295183181763,9.5-9.5S15.246704816818237.5,10,.5.5,4.7532949000597.5,10c0,5.246704816818237,4.2532949000597,9.5,9.5,9.5Zm8.3125-9.5c0,4.590867280960083-3.721632719039917,8.3125-8.3125,8.3125S1.6875,14.590867280960083,1.6875,10,5.409133285284042,1.6875,10,1.6875c4.590867280960083,0,8.3125,3.721633285284042,8.3125,8.3125Z" fill="#4cad44" stroke-width="0"/><path d="m9.40625,13.562717437744141c-.15771484375,0-.30731201171875-.0626220703125-.42095947265625-.1739501953125l-3.140380859375-3.143280029296875c-.2064208984375-.222076416015625-.20526123046875-.5751953125.0069580078125-.802490234375.11480712890625-.122344970703125.26904296875-.189605712890625.43487548828125-.189605712890625.1507568359375,0,.29339599609375.05682373046875.403564453125.1600341796875l2.620849609375,2.620849609375,4.42529296875-5.422607421875c.111328125-.11016845703125.2574462890625-.171630859375.41748046875-.171630859375.153076171875,0,.29803466796875.058563232421875.4105224609375.1646728515625.1136474609375.1090087890625.1785888671875.25628662109375.1832275390625.415740966796875.00347900390625.158294677734375-.0556640625.3084716796875-.16351318359375.423858642578125l-4.75811767578125,5.9444580078125c-.11248779296875.11248779296875-.25860595703125.1739501953125-.4197998046875.1739501953125Z" fill="#4cad44" stroke-width="0"/></svg>