<?xml version="1.0" encoding="UTF-8"?><svg id="a" xmlns="http://www.w3.org/2000/svg" viewBox="0 0 20 20"><path d="m17.682057133642957,6.817721211653406c.077837292235927.188505397680274.148789535345713.379837289212446.212566832524317.573560829388043l1.128060943821765-.371647704459974c-.146035515695985-.443252215382927-.324684421993879-.875053506953918-.534352286464127-1.291925113048819l-1.060370039773261.534352286464127c.091389967885334.182055193760789.176184783453209.367444200782302.254094549891306.555659701656623Z" fill="#666" stroke-width="0"/><path d="m17.769968339864135,4.528406139793333c-.269531554775313-.379982237614058-.566385883455951-.742135821699776-.887011750171951-1.080590341947754l-.859688976270263.819320846125265c.281344849590823.295622267256476.540512593575841.611537310888707.775401480113942.945208533848017l.971299246328272-.683939038025528Z" fill="#666" stroke-width="0"/><path d="m18.311423098060914,9.794599031606595h.001159587220172l1.187417314718914-.02971442254875c-.011885769017681-.465429320991461-.058196783673338-.930931116185093-.137700982540991-1.389257965445722l-1.169661135390925.201840650726808c.069502759080933.402231817424763.109146147213323.809029509534412.11878521599283,1.217131737267664Z" fill="#666" stroke-width="0"/><path d="m14.620891817532538,3.088053862405104c.169807053734985.113422125093166.335410603791388.233004557300774.496375804963463.358602348219392l.730250052682095-.936874000694843c-.367951520194765-.286997837297349-.75648571356578-.54652795228867-1.162486189459742-.776561067335024l-.585374124206282,1.033047265869754c.177634267478425.100449243054754.351499876487651.207421164229345.521234456020466.320625866718729v.001159587221991Z" fill="#666" stroke-width="0"/><path d="m18.155893461989763,11.620876431119541c-.040368130146817.200608589304466-.087911206224817.398970478363481-.14255675403183.594868244581448l1.144730010131752.317002156651142c.12472810050167-.449774893502763.216045594188472-.908174216965563.273082790641638-1.371429311915563l-1.179082781567558-.146035515695985c-.024931125259172.203000237946981-.057037196453166.403681301449978-.096173265174002.605594426378957Z" fill="#666" stroke-width="0"/><path d="m15.880783333592262,15.876561533677886c-1.558630173974962,1.558412751368451-3.672412730193173,2.434046051934274-5.876498141280535,2.434191000334977-4.590588386941818.000362371007213-8.312211099842898-3.720753022484132-8.312573470849202-8.31134140942504-.000289896805043-4.590515912740557,3.720825496686302-8.312138625641637,8.31134140942595-8.312500996647941.20401487676645,0,.408029753531991.007537316939306.611537310888707.022539476615748l.087838732021737-1.183866078853498c-.232714660495731-.01724884720079-.466009114602457-.025945728829356-.699376042910444-.026090712482073-2.521449938745718-.000652248320876-4.939769088987305,1.001013668878841-6.722272070892359,2.784458815401194-3.709157079494616,3.711258902108966-3.7074901728638,9.726617613153394.003696184268847,13.43577476342125,3.711258902108966,3.709157150271494,9.726617613153394,3.707490243639768,13.43577476342125-.003696184267028.164951282244147-.165096230648487.32374225737658-.336207820007985.476155502790789-.51297239707128l-.900057106413442-.775329005911772c-.131758098032151.154370048850978-.270691141999123.303956800413289-.415567070471297.448832728885463Z" fill="#666" stroke-width="0"/><path d="m13.421661207994475,1.135961178593789c-.4346277854238-.168647466512994-.882300927085453-.303956729635502-1.337076540479757-.406145388909863l-.260037434400147,1.158934988981855c.398028313746181.089505638652554.788954155763349.208145906241953,1.169588661188754.355051112353976l.427525313691149-1.107840712425968Z" fill="#666" stroke-width="0"/><path d="m17.025440869521844,14.445703376666643l1.003332843320095.635308848926798c.249383726804808-.394259655276983.469053031058138-.805115902661782.659080386965798-1.232568742154399l-1.085301165032433-.480938800075819c-.16625581786866.372879765880498-.358602348220302.733873762746953-.577112065253459,1.07819869330342Z" fill="#666" stroke-width="0"/><path d="m10.003053130888475,4.655453414738986c0-.327873286852991-.265835370507375-.593708657360366-.593708657359457-.593708657360366-.327873286852991,0-.593708657360366.265835370507375-.593708657360366.593708657360366v6.530795230956755c.00007247420217.2130016777337.114291815510114.409696660164627.299245977324063.515364045713795l4.155960601517108,2.374834629437828c.278808252547606.15067386458395.626901841573272.055732660828653.790621062395076-.215683223181259.169372208529239-.280765055980737.079069353661907-.645672659717093-.201695702322468-.815044868242694l-3.856714624193955-2.203795514283229v-6.186470300401197Z" fill="#666" stroke-width="0"/></svg>