<svg xmlns="http://www.w3.org/2000/svg" width="63.543" height="59.531" viewBox="0 0 63.543 59.531"><g transform="translate(-2543.5 -6361.026)"><path d="M268.773,289.949a1.422,1.422,0,0,0-1.288,1.422v46.92a1.421,1.421,0,0,0,.866,1.289l19.7,8.442h0a1.416,1.416,0,0,0,.133.067l.066.022.067.022a1.4,1.4,0,0,0,.2.067l.066.022c.03,0,.059,0,.089,0h.044c.029,0,.059,0,.089,0h.066a1.408,1.408,0,0,0,.222-.022h.044l.067-.022h.022l.067-.022c.022-.014.045-.029.066-.045l.133-.044.044-.022,19.167-8.22,19.345,8.286a1.421,1.421,0,0,0,1.977-1.288V299.9a1.422,1.422,0,0,0-.866-1.311l-19.678-8.42a1.4,1.4,0,0,0-.177-.089l-.044-.022h0a1.321,1.321,0,0,0-.133-.044,1.419,1.419,0,0,0-.422-.067h-.022a1.374,1.374,0,0,0-.155,0c-.03.007-.06.014-.089.022a1.325,1.325,0,0,0-.155.044l-.022.022c-.037.006-.074.013-.111.022l-19.345,8.286L269.46,290.06a1.422,1.422,0,0,0-.688-.111Zm1.555,3.555,17.057,7.309v43.854l-17.057-7.309V293.5Zm36.957,0v43.854l-17.057,7.309V300.813l17.057-7.309Zm2.843,0,17.057,7.309v43.854l-17.057-7.309V293.5Z" transform="translate(2276.516 6071.777)"/><path d="M308.761,289.248l.754.38a1.905,1.905,0,0,1,.192.1l19.65,8.408a1.922,1.922,0,0,1,1.17,1.771v46.927a1.921,1.921,0,0,1-2.672,1.741l-19.15-8.2L289.752,348.5l-.043.021-.028.013-.1.032-.021.013-.046.029-.051.019c-.032.012-.064.022-.1.032l-.069.021h-.014l-.006,0-.063.019-.066,0h-.016a1.918,1.918,0,0,1-.249.022h-.21c-.037,0-.074,0-.111,0h-.015v.059l-.442-.189-.022-.008-.1-.036c-.051-.022-.1-.047-.151-.074l-19.679-8.433a1.921,1.921,0,0,1-1.169-1.741V291.371a1.922,1.922,0,0,1,1.741-1.919l.029.3-.026-.3c.056,0,.112-.007.168-.007a1.909,1.909,0,0,1,.763.158l19.147,8.2,19.185-8.218.039-.01h0l.084-.03a1.824,1.824,0,0,1,.2-.058c.034-.01.069-.018.105-.026l.039-.009.04,0a1.9,1.9,0,0,1,.2,0h.065Zm-19.956,9.642-19.542-8.371a.917.917,0,0,0-1.279.849v46.918a.921.921,0,0,0,.561.833l19,8.144v-.1l.747.424c.023.013.045.025.068.035l.057.019.037.012.027.008.026.011a.9.9,0,0,0,.129.043l.026.007h.2a.915.915,0,0,0,.143-.014l.05-.009h0l.036-.013.034-.025.176-.058h0l.035-.016,19.364-8.3,19.542,8.371a.921.921,0,0,0,1.28-.833V299.9a.921.921,0,0,0-.562-.85l-19.71-8.433-.028-.017a.9.9,0,0,0-.114-.057l-.052-.025c-.021-.008-.044-.015-.067-.022l-.018-.005a.918.918,0,0,0-.273-.043H308.6l-.019.005-.029.007h0l-.047.047-.161.025-.034.006Zm-18.281-5.847,17.36,7.439v44.942l-18.057-7.738V293.5h.5Zm16.36,8.1-16.057-6.88v42.766l16.057,6.881Zm23.44-8.1,17.36,7.439v44.942l-18.057-7.738V293.5h.5Zm16.36,8.1-16.057-6.88v42.766l16.057,6.881Zm-19.6-8.1.2.459h.5v44.184l-18.057,7.738V300.483Zm-.3,43.983V294.262l-16.057,6.88v42.766Z" transform="translate(2276.516 6071.777)" fill="#948d8a"/></g></svg>