<svg xmlns="http://www.w3.org/2000/svg" width="22.3" height="19.95" viewBox="0 0 22.3 19.95"><g transform="translate(-250.35 -500.35)"><path d="M35.3,105.909H31.728a1.882,1.882,0,0,1-1.876-1.876V97.057a1.882,1.882,0,0,1,1.876-1.876H35.3V91.214a.463.463,0,0,1,.463-.463H45.942a.463.463,0,0,1,.463.463v3.967h3.571a1.874,1.874,0,0,1,1.326.55l.028.03a1.871,1.871,0,0,1,.522,1.3v6.976a1.874,1.874,0,0,1-.55,1.326l-.03.028a1.871,1.871,0,0,1-1.3.522H46.4v4.029a.463.463,0,0,1-.463.463H35.762a.463.463,0,0,1-.463-.463v-4.029Zm.926-10.728h9.253v-3.5H36.225Zm12.249,3.8a.463.463,0,0,1,0-.926h.757a.463.463,0,0,1,0,.926Zm-2.374,0a.463.463,0,1,1,0-.926h.757a.463.463,0,0,1,0,.926Zm.3,6h3.571a.951.951,0,0,0,.652-.258l.019-.021a.947.947,0,0,0,.279-.671V97.057a.951.951,0,0,0-.258-.652l-.021-.019a.947.947,0,0,0-.672-.279H31.728a.948.948,0,0,0-.95.95v6.976a.953.953,0,0,0,.951.95H35.3v-2.652H34.139a.463.463,0,0,1,0-.926H47.567a.463.463,0,0,1,0,.926H46.406v2.652Zm-.926-2.651H36.224v7.143h9.254Z" transform="translate(220.648 409.749)"/><path d="M45.942,110.551H35.762a.614.614,0,0,1-.613-.613v-3.879H31.728a2.032,2.032,0,0,1-2.026-2.026V97.057a2.032,2.032,0,0,1,2.026-2.026h3.421V91.214a.614.614,0,0,1,.613-.613H45.942a.614.614,0,0,1,.613.613v3.817h3.421a2.015,2.015,0,0,1,1.432.594l.032.034a2.016,2.016,0,0,1,.563,1.4v6.976a2.015,2.015,0,0,1-.594,1.432l-.034.032a2.016,2.016,0,0,1-1.4.563H46.555v3.879A.614.614,0,0,1,45.942,110.551ZM35.3,105.909h.149v4.029a.314.314,0,0,0,.313.313h10.18a.314.314,0,0,0,.313-.313v-4.179h3.721a1.718,1.718,0,0,0,1.192-.481l.029-.027a1.717,1.717,0,0,0,.5-1.218V97.057a1.718,1.718,0,0,0-.481-1.192l-.027-.029a1.717,1.717,0,0,0-1.218-.5H46.255V91.214a.314.314,0,0,0-.313-.313H35.762a.314.314,0,0,0-.313.313v4.117H31.728A1.732,1.732,0,0,0,30,97.057v6.976a1.732,1.732,0,0,0,1.726,1.726H35.3Zm10.329,3.717H36.074v-7.443h9.554Zm-9.254-.3h8.954v-6.843H36.374Zm13.6-4.192H46.4l-.024-.151h-.124v-2.8h1.311a.313.313,0,0,0,0-.626H34.139a.313.313,0,1,0,0,.626H35.45v2.952H31.729a1.1,1.1,0,0,1-1.1-1.1V97.056a1.1,1.1,0,0,1,1.1-1.1H49.975a1.093,1.093,0,0,1,.776.321l.026.025a1.1,1.1,0,0,1,.3.755v6.976a1.092,1.092,0,0,1-.321.775l-.025.026A1.1,1.1,0,0,1,49.975,105.133Zm-3.419-.3h3.419a.8.8,0,0,0,.546-.215l.019-.021a.794.794,0,0,0,.235-.565V97.057a.8.8,0,0,0-.214-.546l-.021-.019a.8.8,0,0,0-.566-.235H31.728a.8.8,0,0,0-.8.8v6.976a.8.8,0,0,0,.8.8H35.15v-2.352H34.139a.613.613,0,1,1,0-1.227H47.567a.613.613,0,0,1,0,1.227H46.556Zm2.675-5.7h-.757a.613.613,0,0,1,0-1.227h.757a.613.613,0,1,1,0,1.227Zm-.757-.926a.313.313,0,1,0,0,.627h.757a.313.313,0,1,0,0-.627Zm-1.617.926H46.1a.613.613,0,1,1,0-1.227h.757a.613.613,0,0,1,0,1.227ZM46.1,98.2a.313.313,0,1,0,0,.627h.757a.313.313,0,0,0,0-.627Zm-.472-2.872H36.075v-3.8h9.553Zm-9.253-.3h8.953v-3.2H36.375Z" transform="translate(220.648 409.749)" fill="#262424"/></g></svg>