<svg xmlns="http://www.w3.org/2000/svg" xmlns:xlink="http://www.w3.org/1999/xlink" width="15.53" height="20.831" viewBox="0 0 15.53 20.831"><defs><clipPath id="a"><rect width="15.53" height="20.831" fill="#262424"/></clipPath></defs><g transform="translate(0 0)"><g clip-path="url(#a)"><path d="M259.971,4.117l.974-1.023V5.663h0v6.113a.864.864,0,1,0,1.726,0V3.1l.972,1.02a.834.834,0,0,0,1.215-.006.931.931,0,0,0,.006-1.275L262.411.263a.83.83,0,0,0-.6-.259L261.8,0a.829.829,0,0,0-.6.262l-2.451,2.573a.938.938,0,0,0,.006,1.275.828.828,0,0,0,1.215.006" transform="translate(-254.043 -0.001)" fill="#262424"/><path d="M13.809,349.994H11.216v1.811H13.8v10.868H1.725V351.805H4.314v-1.811H1.721A1.765,1.765,0,0,0,0,351.8v10.879a1.766,1.766,0,0,0,1.721,1.806H13.809a1.765,1.765,0,0,0,1.721-1.806V351.8a1.766,1.766,0,0,0-1.721-1.806" transform="translate(0 -343.654)" fill="#262424"/></g></g></svg>