<svg xmlns="http://www.w3.org/2000/svg" xmlns:xlink="http://www.w3.org/1999/xlink" width="20" height="20" viewBox="0 0 20 20"><defs><clipPath id="a"><rect width="20" height="20" transform="translate(-0.374 -0.374)" fill="none"/></clipPath></defs><g transform="translate(-222.587 77.968)"><g transform="translate(222.961 -77.594)" clip-path="url(#a)"><path d="M18.44,477.6a.7.7,0,0,0-.687.687v4.524a1.308,1.308,0,0,1-1.145,1.432H2.52a1.308,1.308,0,0,1-1.145-1.432v-4.524a.7.7,0,0,0-.687-.687.739.739,0,0,0-.687.687v4.524a2.712,2.712,0,0,0,2.577,2.863h14.03a2.712,2.712,0,0,0,2.577-2.863v-4.524a.75.75,0,0,0-.744-.687Z" transform="translate(0.034 -466.456)"/><path d="M161.687,15.061a.706.706,0,0,0,1.088.057l4.868-4.868a.729.729,0,0,0-1.031-1.031l-3.665,3.665V.687A.7.7,0,0,0,162.26,0a.739.739,0,0,0-.687.687v12.2l-3.722-3.722a.729.729,0,0,0-1.031,1.031Z" transform="translate(-152.834 -0.251)"/></g></g></svg>