<svg xmlns="http://www.w3.org/2000/svg" width="56.92" height="56.92" viewBox="0 0 56.92 56.92"><g transform="translate(-62.486 -62.489)"><path d="M751.666,287.233a4.633,4.633,0,1,1-4.633-4.633,4.633,4.633,0,0,1,4.633,4.633" transform="translate(-643.914 -208.457)" fill-rule="evenodd"/><path d="M88.529,64.695a7.535,7.535,0,0,1,5.9-2.184l19.106,1.472a4.756,4.756,0,0,1,4.376,4.376l1.472,19.106a7.535,7.535,0,0,1-2.184,5.9L93.363,117.2a7.524,7.524,0,0,1-10.645,0L64.692,99.177a7.524,7.524,0,0,1,0-10.645ZM91.338,67.5,67.5,91.341a3.56,3.56,0,0,0,0,5.03L85.524,114.4a3.56,3.56,0,0,0,5.03,0l23.84-23.84a3.558,3.558,0,0,0,1.03-2.788l-1.469-19.106a.784.784,0,0,0-.723-.723L94.126,66.471a3.558,3.558,0,0,0-2.788,1.03Z" transform="translate(0)" fill-rule="evenodd"/></g></svg>