<?xml version="1.0" encoding="UTF-8"?><svg id="a" xmlns="http://www.w3.org/2000/svg" width="50" height="50" xmlns:xlink="http://www.w3.org/1999/xlink" viewBox="0 0 50 50"><defs><clipPath id="b"><rect x="4.76" y="1.25" width="40.48" height="47.5" fill="none"/></clipPath></defs><g clip-path="url(#b)"><g id="c"><path id="d" d="m25.74,17.9h-1.87c-.61,0-1.11-.48-1.12-1.09,0-.47-.38-.86-.86-.86s-.86.38-.86.86c0,1.56,1.28,2.82,2.84,2.81h.08v1.39c0,.47.38.86.86.86s.86-.38.86-.86v-1.39h.07c1.55,0,2.81-1.26,2.81-2.81,0-1.55-1.26-2.81-2.81-2.81h-1.87c-.6.06-1.14-.39-1.2-.99-.06-.6.39-1.14.99-1.2.07,0,.14,0,.21,0h1.87c.61,0,1.11.48,1.12,1.09,0,.47.38.86.86.86s.86-.38.86-.86c0-1.56-1.28-2.82-2.84-2.81h-.07v-1.39c0-.47-.38-.86-.86-.86s-.86.38-.86.86v1.39h-.08c-1.55-.03-2.84,1.21-2.86,2.76-.03,1.55,1.21,2.84,2.76,2.86.04,0,.07,0,.11,0h1.87c.6-.03,1.11.44,1.14,1.05.03.6-.44,1.11-1.05,1.14-.03,0-.06,0-.09,0" fill="#657471"/><path id="e" d="m12.16,40.59h-6.54c-.47,0-.86.38-.86.86v6.45c0,.47.38.86.86.86h6.54c.47,0,.86-.38.86-.86v-6.45c0-.47-.38-.86-.86-.86m-.86,6.45h-4.82v-4.73h4.82v4.73Z" fill="#657471"/><path id="f" d="m28.27,40.59h-6.54c-.47,0-.86.38-.86.86v6.45c0,.47.38.86.86.86h6.54c.47,0,.86-.38.86-.86v-6.45c0-.47-.38-.86-.86-.86m-.86,6.45h-4.82v-4.73h4.82v4.73Z" fill="#657471"/><path id="g" d="m44.38,40.59h-6.54c-.47,0-.86.38-.86.86v6.45c0,.47.38.86.86.86h6.54c.47,0,.86-.38.86-.86v-6.45c0-.47-.38-.86-.86-.86m-.85,6.45h-4.83v-4.73h4.83v4.73Z" fill="#657471"/><path id="h" d="m8.28,38.24c.33.33.87.33,1.2,0l2.9-2.86c.34-.33.34-.88,0-1.21-.33-.34-.88-.34-1.21,0l-1.44,1.42v-4.9h14.4v4.9l-1.44-1.42c-.34-.33-.88-.33-1.22,0-.33.34-.33.88,0,1.22l2.9,2.86s.05.04.08.05c.06.05.12.09.19.13.21.09.45.09.65,0,.07-.03.14-.08.19-.13.03-.02.06-.03.08-.05l2.9-2.86c.37-.3.43-.84.13-1.21-.3-.37-.84-.43-1.21-.13-.04.03-.08.07-.11.11l-1.44,1.42v-4.9h14.36v4.9l-1.44-1.42c-.36-.31-.9-.27-1.21.09-.28.33-.28.81.01,1.14l2.9,2.86c.33.33.87.33,1.21,0l2.9-2.86c.34-.33.34-.88,0-1.21s-.88-.34-1.21,0l-1.44,1.42v-5.76c0-.47-.38-.86-.86-.86h-15.22v-4.16h7.55c.47,0,.86-.38.86-.86,0,0,0,0,0,0l-.09-10.05h3.59c.47,0,.86-.38.86-.86v-.1c0-.25-.11-.5-.31-.66L25.35,1.45c-.32-.27-.78-.27-1.1,0l-12.96,10.84c-.2.2-.31.46-.31.74,0,.47.38.86.86.86h3.59v10.06c0,.47.38.86.86.86h7.85v4.16h-15.25c-.47,0-.86.38-.86.86v5.76l-1.44-1.42c-.34-.33-.88-.33-1.21,0-.33.34-.33.88,0,1.21h0l2.9,2.86Zm8.01-26.08h-2.19L24.8,3.23l10.71,8.94h-2.21c-.47,0-.86.38-.86.86,0,0,0,0,0,0l.09,10.05h-15.39v-10.06c0-.47-.38-.86-.86-.86" fill="#657471"/></g></g></svg>