<?xml version="1.0" encoding="UTF-8"?><svg id="a" xmlns="http://www.w3.org/2000/svg" width="50" height="50" xmlns:xlink="http://www.w3.org/1999/xlink" viewBox="0 0 50 50"><defs><clipPath id="b"><rect x="4.6" y=".19" width="40.81" height="49.61" fill="none"/></clipPath></defs><g clip-path="url(#b)"><g id="c"><path id="d" d="m27.41,10.61c-.45,0-.81-.36-.81-.81v-4.01c0-.45.36-.81.81-.81.45,0,.81.36.81.81h0v4.01c0,.45-.36.81-.81.81" fill="#657471"/><path id="e" d="m22.59,10.61c-.45,0-.81-.36-.81-.81v-4.01c0-.45.36-.81.81-.81.44,0,.81.36.81.81v4.01c0,.45-.36.81-.81.81" fill="#657471"/><path id="f" d="m38.4,15.38c-.45,0-.81-.36-.81-.81,0-.17.05-.33.15-.46l2.12-3c.26-.36.76-.45,1.12-.19.36.26.45.76.19,1.12l-2.12,3c-.15.21-.4.34-.66.34" fill="#657471"/><path id="g" d="m35.13,13.07c-.45,0-.81-.36-.81-.81,0-.17.05-.33.15-.46l1.88-2.65c.26-.36.76-.45,1.12-.19s.45.76.19,1.12l-1.88,2.65c-.15.21-.4.34-.66.34" fill="#657471"/><path id="h" d="m42.67,13.84c-.16,0-.32-.05-.45-.14l-7.53-5.13c-.37-.25-.46-.75-.21-1.12.25-.37.75-.46,1.12-.21l7.53,5.13c.37.25.46.75.21,1.12-.15.22-.4.35-.67.35" fill="#657471"/><path id="i" d="m25,32.67c-1.8,0-3.27-1.46-3.27-3.27s1.46-3.27,3.27-3.27,3.27,1.46,3.27,3.27c0,1.8-1.46,3.26-3.27,3.27m0-4.92c-.91,0-1.65.74-1.65,1.66s.74,1.66,1.66,1.66,1.65-.74,1.65-1.66c0-.91-.74-1.65-1.66-1.65" fill="#657471"/><path id="j" d="m25,49.81c-11.27,0-20.4-9.13-20.4-20.4S13.73,9.01,25,9.01s20.4,9.13,20.4,20.4c-.01,11.26-9.14,20.39-20.4,20.4m0-39.19c-10.38,0-18.79,8.41-18.79,18.79,0,10.38,8.41,18.79,18.79,18.79,10.38,0,18.79-8.41,18.79-18.79h0c-.01-10.37-8.42-18.78-18.79-18.79" fill="#657471"/><path id="k" d="m30.13,6.61h-10.24c-.45,0-.81-.36-.81-.81V1c0-.45.36-.81.81-.81h10.24c.45,0,.81.36.81.81v4.8c0,.44-.36.81-.81.81m-9.44-1.61h8.63V1.81h-8.63v3.19Z" fill="#657471"/><path id="l" d="m25,44.41c-8.28,0-14.99-6.72-15-15,0-.45.36-.81.81-.81h11.73c.45,0,.81.36.81.81,0,.45-.36.81-.81.81h-10.91c.4,7.38,6.71,13.04,14.1,12.64,7.13-.39,12.71-6.31,12.66-13.45,0-.45.36-.81.81-.81.45,0,.81.36.81.81h0c0,8.28-6.72,14.99-15,15" fill="#657471"/><path id="m" d="m25.02,16.01c-.45,0-.81-.36-.82-.81,0-.44.35-.8.79-.81,0,0,0,0,0,0h.02c.45,0,.81.36.81.81,0,.44-.36.81-.81.81" fill="#657471"/><path id="n" d="m38.84,27.06c-.38,0-.71-.26-.79-.64-.1-.44.17-.87.6-.98.43-.11.86.16.97.59,0,0,0,0,0,0v.05c.1.43-.17.86-.61.96,0,0,0,0,0,0-.06.01-.11.02-.17.02m-1.04-3c-.31,0-.59-.17-.72-.45l-.02-.04c-.19-.4-.02-.88.38-1.07s.88-.02,1.07.38v.02c.21.39.05.88-.34,1.08-.11.06-.24.09-.37.09m-1.69-2.69c-.24,0-.48-.11-.63-.3-.28-.35-.23-.86.12-1.15.34-.28.84-.23,1.12.11,0,0,0,0,0,0l.02.03c.28.35.22.86-.13,1.13-.14.11-.32.18-.5.18m-2.24-2.25c-.18,0-.36-.06-.5-.17l-.03-.03c-.35-.28-.4-.79-.13-1.13.28-.35.79-.4,1.13-.13h.02c.35.29.41.8.14,1.15-.15.2-.39.31-.64.31m-2.69-1.7c-.12,0-.23-.03-.34-.08l-.03-.02c-.4-.19-.57-.67-.38-1.08s.67-.57,1.08-.38h.01c.4.2.57.68.39,1.08-.13.28-.41.46-.73.46m-2.98-1.05c-.06,0-.11,0-.17-.02h-.03c-.43-.1-.71-.53-.61-.97.1-.43.53-.71.96-.61h.02c.43.1.71.53.62.96-.08.37-.4.63-.78.63" fill="#657471"/><path id="o" d="m39.2,30.21c-.45,0-.81-.36-.81-.81,0-.45.36-.81.81-.81.44,0,.81.35.81.8v.02c0,.45-.36.81-.81.81" fill="#657471"/></g></g></svg>