<?xml version="1.0" encoding="UTF-8"?><svg id="a" xmlns="http://www.w3.org/2000/svg" width="50" height="50" xmlns:xlink="http://www.w3.org/1999/xlink" viewBox="0 0 50 50"><defs><clipPath id="c"><rect x=".6" y=".92" width="48.8" height="48.16" fill="none"/></clipPath></defs><g id="b"><g clip-path="url(#c)"><g id="d"><path id="e" d="m48.39,49.08H1.69c-.4,0-.73-.33-.73-.73s.33-.73.73-.73h46.7c.4,0,.73.33.73.73s-.33.73-.73.73" fill="#657471"/><path id="f" d="m40.37,10.53c-1.82-.3-3.21-1.77-3.39-3.6l-.18-1.56c-.06-.41-.04-.83.03-1.24.36-1.86,1.99-3.2,3.89-3.2h.37c.42,0,.83.05,1.23.18,1.8.58,2.95,2.35,2.73,4.23l-.2,1.74c-.25,2.17-2.21,3.72-4.38,3.47-.03,0-.07,0-.1-.01m.35-8.15c-1.38,0-2.49,1.12-2.49,2.49,0,.1,0,.19.02.29l.19,1.66c.11,1.09.9,1.99,1.96,2.24,1.35.29,2.67-.58,2.96-1.92.02-.08.03-.15.04-.23l.2-1.74c.16-1.37-.82-2.6-2.19-2.76-.09-.01-.19-.02-.29-.02h-.4Z" fill="#657471"/><path id="g" d="m37.73,48.35h-1.4s-.03-.01-.03-.03v-20.6s.01-.03.03-.03h1.4s.03.01.03.03v20.6s-.01.03-.03.03" fill="#657471"/><path id="h" d="m45.52,48.35h-1.41s-.03-.01-.03-.03v-20.6s.01-.03.03-.03h1.41s.03.01.03.03v20.6s-.01.03-.03.03" fill="#657471"/><path id="i" d="m46.21,28.42h-1.37c-.42,0-.76-.34-.76-.76v-7.84c0-.4.33-.73.73-.73s.73.33.73.73v7.14h.67c.86,0,1.73-1.29,1.73-2.22v-7.32c-.17-1.77-1.54-3.19-3.3-3.43-2.44-.65-5.01-.65-7.45,0-1.76.23-3.13,1.65-3.3,3.43v7.32c0,.93.87,2.22,1.73,2.22h.67v-7.14c0-.4.33-.73.73-.73s.73.33.73.73v7.84c0,.42-.34.76-.75.76h-1.36c-1.77,0-3.19-2.01-3.19-3.68v-7.32c.16-2.46,2-4.48,4.44-4.85,2.65-.7,5.43-.7,8.08,0,2.44.37,4.28,2.39,4.44,4.85v7.31c0,1.67-1.42,3.68-3.19,3.68" fill="#657471"/><path id="j" d="m41.62,48.35h-1.41s-.03-.01-.03-.03v-18.41c0-.4.33-.73.73-.73.4,0,.73.33.73.73v18.41s-.01.03-.03.03" fill="#657471"/><path id="k" d="m29.54,8.47h-10.18s-.03-.01-.03-.03c0,0,0,0,0,0v-1.4s.01-.03.03-.03h10.18c.4,0,.73.33.73.73s-.33.73-.73.73h0" fill="#657471"/><path id="l" d="m21.84,11.29l-3.01-3.01c-.3-.3-.3-.78,0-1.07l3.01-3.01c.29-.28.75-.26,1.03.03.27.28.27.72,0,1l-2.5,2.49s-.01.03,0,.04c0,0,0,0,0,0l2.49,2.5c.28.29.26.75-.03,1.03-.28.27-.72.27-1,0" fill="#657471"/><path id="m" d="m9.22,11.3c-1.96-.32-3.45-1.91-3.65-3.88l-.2-1.72c-.06-.44-.05-.89.04-1.33.39-2,2.15-3.45,4.19-3.45h.4c.45,0,.89.05,1.32.19,1.95.62,3.18,2.53,2.95,4.56l-.22,1.91c-.27,2.33-2.38,4.01-4.72,3.74-.03,0-.07,0-.1-.01m.37-8.92c-1.54,0-2.79,1.23-2.8,2.77,0,.13,0,.27.03.4.05.42.13,1.11.2,1.72.13,1.34,1.16,2.41,2.49,2.59,1.52.16,2.9-.93,3.08-2.46l.22-1.86c.05-.32.04-.65-.03-.96-.28-1.28-1.42-2.2-2.74-2.2h-.45Z" fill="#657471"/><path id="n" d="m6.02,48.35h-1.4s-.03-.01-.03-.03c0,0,0,0,0,0v-20.16s.01-.03.03-.03h1.4s.03.01.03.03v20.16s-.01.03-.03.03" fill="#657471"/><path id="o" d="m15.01,48.35h-1.4s-.03-.01-.03-.03v-20.16s.01-.03.03-.03h1.4s.03.01.03.03v20.16s-.01.03-.03.03" fill="#657471"/><path id="p" d="m15.6,28.87h-1.27c-.42,0-.76-.34-.76-.76v-7.63c0-.4.33-.73.73-.73s.73.33.73.73v6.93h.57c.99,0,1.96-1.43,1.96-2.5v-5.99c0-1.77-1.51-3.35-3.66-3.82-2.68-.72-5.5-.72-8.18,0-2.16.48-3.66,2.05-3.66,3.82v5.98c0,1.07.97,2.5,1.96,2.5h.56v-6.92c0-.4.33-.73.73-.73s.73.33.73.73v7.63c0,.42-.34.76-.76.76h-1.27c-1.9,0-3.42-2.17-3.42-3.96v-5.98c0-2.46,1.98-4.62,4.81-5.24,2.89-.76,5.92-.76,8.81,0,2.83.62,4.81,2.78,4.81,5.24v5.98c0,1.79-1.52,3.96-3.42,3.96" fill="#657471"/><path id="q" d="m10.51,48.35h-1.41s-.03-.01-.03-.03c0,0,0,0,0,0v-15.46c0-.4.33-.73.73-.73.4,0,.73.33.73.73v15.46s-.01.03-.03.03" fill="#657471"/><path id="r" d="m30.41,35.62h-10.18c-.4,0-.73-.33-.73-.73s.33-.73.73-.73h10.18s.03.01.03.03v1.4s-.01.03-.03.03" fill="#657471"/><path id="s" d="m26.89,38.44h0c-.28-.28-.29-.74,0-1.03,0,0,0,0,0,0l2.49-2.49s.01-.03,0-.04c0,0,0,0,0,0l-2.49-2.5c-.28-.29-.26-.75.03-1.03.28-.27.72-.27,1,0l3.01,3.01c.3.3.3.78,0,1.07l-3.01,3.01c-.29.28-.75.28-1.03,0" fill="#657471"/></g></g></g></svg>