<?xml version="1.0" encoding="UTF-8"?><svg id="a" xmlns="http://www.w3.org/2000/svg" width="50" height="50" xmlns:xlink="http://www.w3.org/1999/xlink" viewBox="0 0 50 50"><defs><clipPath id="c"><rect x="2.79" y="3.59" width="44.42" height="42.81" fill="none"/></clipPath></defs><g id="b"><g clip-path="url(#c)"><g id="d"><path id="e" d="m23.56,3.71C11.81,4.94,3.28,15.46,4.51,27.21c.47,4.5,2.36,8.73,5.38,12.09-2.16,1.38-4.37,2.67-6.63,3.88-.44.23-.62.78-.38,1.22.24.45.79.63,1.25.39,0,0,0,0,0,0,2.41-1.29,4.77-2.68,7.07-4.16,8.64,8.06,22.18,7.6,30.25-1.05,8.06-8.64,7.6-22.18-1.05-30.25-4.53-4.23-10.68-6.29-16.84-5.64m2.24,40.87c-4.38,0-8.63-1.47-12.07-4.18h24.14c-3.44,2.71-7.69,4.18-12.07,4.18m-11.52-6.01c2.42-1.69,4.76-3.48,7.02-5.38h22.27c-.92,1.98-2.16,3.8-3.68,5.38H14.29Zm-2.06-27.64c2.21-2.14,4.9-3.73,7.84-4.64v25.57c-2.52,2.11-5.13,4.08-7.84,5.92V10.92Zm9.66-5.11c2.58-.53,5.25-.53,7.83,0v16.79c-1,1.1-2.03,2.17-3.08,3.23-1.54,1.54-3.12,3.02-4.75,4.45V5.82Zm9.66.47c2.81.87,5.39,2.36,7.54,4.36-2.3,3.46-4.82,6.77-7.54,9.91V6.28Zm13.61,15.77h-12.49c2.79-3.19,5.37-6.56,7.74-10.08,2.53,2.83,4.19,6.33,4.76,10.08m-21.72,9.31c1.54-1.36,3.04-2.77,4.5-4.23,1.06-1.06,2.09-2.14,3.1-3.25h14.31c.02.37.03.74.03,1.12,0,2.16-.36,4.31-1.07,6.36h-20.88Zm-13.05,5.69c-5.55-7.07-5.55-17.03,0-24.1v24.1Z" fill="#657471"/></g></g></g></svg>