<?xml version="1.0" encoding="utf-8"?>
<!-- Generator: Adobe Illustrator 27.2.0, SVG Export Plug-In . SVG Version: 6.00 Build 0)  -->
<svg version="1.1" id="Layer_1" xmlns="http://www.w3.org/2000/svg" xmlns:xlink="http://www.w3.org/1999/xlink" x="0px" y="0px"
	 viewBox="0 0 150 150" style="enable-background:new 0 0 150 150;" xml:space="preserve">
<g>
	<g id="Group_4947-2">
		<path id="Path_2480" d="M116.4,37.1c-14.2-0.3-24.3-4.3-30.3-7.6c-3.6-1.9-6.9-4.3-9.7-7.3c-0.7-0.8-1.8-0.8-2.6-0.2c0,0,0,0,0,0
			c-0.1,0.1-0.1,0.1-0.2,0.2c-2.8,2.9-6.1,5.4-9.7,7.3c-6,3.3-16.1,7.4-30.3,7.6c-1,0-1.8,0.8-1.8,1.8v36.5
			c0.6,7.3,2.6,14.5,5.9,21.1c5,10.5,15.5,24.7,36.6,33c0.4,0.2,0.9,0.2,1.3,0c21.1-8.2,31.6-22.5,36.6-33
			c3.3-6.6,5.3-13.8,5.9-21.1V38.9C118.2,37.9,117.4,37.1,116.4,37.1 M114.5,75.3c-0.6,6.8-2.5,13.5-5.5,19.7
			c-4.7,9.8-14.4,23-34,30.9c-15.7-6.3-27.1-16.6-33.9-30.7c-3.1-6.2-5-12.9-5.6-19.8V40.7C58.4,39.8,71,29.8,75,26
			c4,3.8,16.6,13.8,39.5,14.7L114.5,75.3z"/>
		<path id="Path_2481" d="M70.4,41.8c-0.5,0-0.9,0.3-1,0.7L67,49l-4.5,1.8l-6.2-2.9c-0.4-0.2-0.9-0.1-1.3,0.2l-6.5,6.5
			c-0.3,0.3-0.4,0.8-0.2,1.3l2.9,6.2l-1.8,4.5L43,68.9c-0.4,0.2-0.7,0.6-0.7,1v9.3c0,0.5,0.3,0.9,0.7,1l6.5,2.3l1.8,4.5l-2.9,6.2
			c-0.2,0.4-0.1,0.9,0.2,1.3l6.5,6.5c0.3,0.3,0.8,0.4,1.3,0.2l6.2-2.9l4.5,1.8l2.3,6.5c0.2,0.4,0.6,0.7,1,0.7h9.3
			c0.5,0,0.9-0.3,1-0.7l2.3-6.5l4.5-1.8l6.2,2.9c0.4,0.2,0.9,0.1,1.3-0.2l6.5-6.5c0.3-0.3,0.4-0.8,0.2-1.3L98.7,87l1.8-4.5l6.5-2.3
			c0.4-0.2,0.7-0.6,0.7-1V70c0-0.5-0.3-0.9-0.7-1l-6.5-2.3l-1.8-4.5l2.9-6.2c0.2-0.4,0.1-0.9-0.2-1.3l-6.6-6.5
			c-0.3-0.3-0.8-0.4-1.3-0.2l-6.2,2.9L83,49l-2.3-6.5c-0.2-0.4-0.6-0.7-1-0.7L70.4,41.8L70.4,41.8z M94.9,61.6
			c-0.1,0.3-0.1,0.6,0,0.9l2.7,6.6c0.1,0.3,0.4,0.5,0.7,0.6l5.8,2.1v5.6l-5.8,2.1c-0.3,0.1-0.5,0.3-0.7,0.6l-2.7,6.6
			c-0.1,0.3-0.1,0.6,0,0.9l2.7,5.6l-4,4L88,94.4c-0.3-0.1-0.6-0.1-0.9,0l-6.6,2.7c-0.3,0.1-0.5,0.4-0.6,0.7l-2.1,5.8h-5.6l-2.1-5.8
			c-0.1-0.3-0.3-0.5-0.6-0.7l-6.6-2.7c-0.3-0.1-0.6-0.1-0.9,0l-5.6,2.7l-4-4l2.7-5.6c0.1-0.3,0.1-0.6,0-0.9l-2.7-6.6
			c-0.1-0.3-0.4-0.5-0.7-0.6L46,77.4v-5.6l5.8-2.1c0.3-0.1,0.5-0.3,0.6-0.6l2.7-6.6c0.1-0.3,0.1-0.6,0-0.9L52.5,56l4-4l5.6,2.7
			c0.3,0.1,0.6,0.1,0.9,0l6.6-2.7c0.3-0.1,0.5-0.4,0.6-0.7l2.1-5.8h5.6l2.1,5.8c0.1,0.3,0.3,0.5,0.6,0.6l6.6,2.7
			c0.3,0.1,0.6,0.1,0.9,0l5.6-2.7l4,4L94.9,61.6z"/>
		<path id="Path_2482" d="M91.4,69.1c-0.1,0-0.1,0-0.2,0c-1.1,0.2-1.8,1.3-1.6,2.4c1.7,8.1-3.5,16.1-11.6,17.8
			c-0.2,0-0.5,0.1-0.7,0.1c-7.6,1.2-14.9-3.6-16.9-11c-2.1-8,2.7-16.2,10.7-18.3c3.6-0.9,7.5-0.5,10.8,1.2c1,0.5,2.2,0.1,2.7-0.9
			c0.5-1,0.1-2.2-0.8-2.7c-9.3-4.9-20.8-1.3-25.7,8s-1.3,20.8,8,25.7s20.8,1.3,25.7-8c2.1-3.9,2.7-8.5,1.8-12.8
			C93.4,69.6,92.4,68.9,91.4,69.1"/>
		<path id="Path_2483" d="M68,72.5L68,72.5c-0.4-0.4-0.9-0.6-1.5-0.6c-1.2,0-2.1,1-2,2.1c0,0.5,0.2,1.1,0.6,1.5l6.7,6.7
			c0.3,0.3,0.6,0.5,1,0.5v0.1l1,0v-0.1c0.4-0.1,0.7-0.3,1-0.6l14.5-16c0.8-0.8,0.8-2.2-0.1-3c-0.4-0.4-0.9-0.6-1.5-0.6
			c-0.6,0-1.1,0.3-1.5,0.7l-13,14.4L68,72.5z"/>
	</g>
</g>
</svg>
