<?xml version="1.0" encoding="utf-8"?>
<!-- Generator: Adobe Illustrator 27.2.0, SVG Export Plug-In . SVG Version: 6.00 Build 0)  -->
<svg version="1.1" id="Layer_1" xmlns="http://www.w3.org/2000/svg" xmlns:xlink="http://www.w3.org/1999/xlink" x="0px" y="0px"
	 viewBox="0 0 150 150" style="enable-background:new 0 0 150 150;" xml:space="preserve">
<g>
	<g id="Group_4930">
		<path id="Path_2385" d="M111.7,44.8c-1.6-0.9-3.4-1.4-5.2-1.4H53.8V20.9c0-2.6-2.1-4.6-4.6-4.6H15.7c-2.6,0-4.6,2.1-4.6,4.6v33.5
			c0,2.6,2.1,4.6,4.6,4.6h14.6l5.5,2.3c2,2,4.6,3.1,7.4,3.1H52l3.7,4.3l0.1,0.1c0.8,0.8,1.9,1.2,3,1.2h25.3c1.1,0,2.2-0.4,3-1.2
			l3.8-4.4h8.7v11.4c0,2.5-4.5,4.6-6.1,5.1l-0.1,0c-0.5,0.2-45.3,17.8-49.8,19.4c-5.3,1.9-5.3,5.8-5.3,7.3v26.3h18.7v-14.6
			c0.1-1.3,0.6-2,3.4-3.2c2.4-1,36.7-16.5,45.8-20.1c4.4-1.7,7.4-5.3,8.8-10.3c0.6-3.3,0.9-6.6,0.8-9.9V59
			C118.5,54,116.7,47.7,111.7,44.8 M15.7,55.3c-0.6,0-1-0.5-1-1V20.9c0-0.6,0.5-1,1-1h33.5c0.6,0,1,0.5,1,1v22.6h-4.5
			c3-7.3-0.4-15.7-7.7-18.7s-15.7,0.4-18.7,7.7c-2.7,6.4-0.4,13.7,5.3,17.5c0,0,0.1,0,0.1,0.1V55c0,0.1,0,0.2,0,0.3L15.7,55.3z
			 M24.7,34.1v13.4c-5.3-4.3-6.1-12-1.9-17.4s12-6.1,17.4-1.9c4.5,3.7,5.9,10,3.3,15.2h-0.2c-1.1,0-2.1,0.2-3.1,0.5v-9.8
			c0-1.8-1.4-3.2-3.2-3.2h-9C26.1,30.8,24.7,32.3,24.7,34.1 M28.3,37.8v-3.6h8.2V38C34.6,38.6,29.5,38.5,28.3,37.8 M36.5,40.1v2
			c-1.9,0.6-7,0.5-8.2-0.2v-1.9c0.2,0,0.3,0.1,0.4,0.1c1.3,0.2,2.6,0.4,3.9,0.3C33.9,40.4,35.2,40.3,36.5,40.1 M32.8,53.9L32.8,53.9
			c0,0.5,0,1,0.1,1.5l-4.6-2.6v-8.9c0.2,0,0.3,0.1,0.4,0.1c1.3,0.2,2.6,0.4,3.9,0.3c1.3,0,2.6-0.1,3.9-0.3v1.8
			C34.1,47.9,32.8,50.8,32.8,53.9 M84.5,66.3c-0.1,0.1-0.3,0.2-0.4,0.2H58.7c-0.1,0-0.3-0.1-0.4-0.2l-1.6-1.9h29.4L84.5,66.3z
			 M44.8,103.6c4.6-1.6,47.4-18.4,49.9-19.4c1-0.3,6.8-2.4,8.2-6.5c0.5,0,1.1,0.1,1.6,0.1c-1,3.3-1.3,4.5-5.6,6.6
			c-2.7,1.3-18.3,7.5-32.2,13c-11.4,4.5-21.4,8.5-24.9,10C41.9,106.1,42,104.6,44.8,103.6 M53.3,130.4l-11.4,0.1v-2.3h11.4V130.4z
			 M53.3,126.2H41.9v-2h11.4V126.2z M111.4,84.7c-1.1,3.9-3.3,6.5-6.6,7.8c-9.2,3.6-43.5,19.1-45.9,20.2c-2.7,1.2-5.4,2.6-5.5,6.4
			v3.2H41.9v-12.7c2-1,13.5-5.5,25.6-10.3C82,93.4,97,87.5,99.8,86.1c5.1-2.5,5.7-4.4,6.7-7.8l0.1-0.5c0.3,0,0.7,0,1,0
			c1.5,0,2.9-0.1,4.4-0.2C111.9,80,111.7,82.4,111.4,84.7L111.4,84.7z M112,74.1c-2.9,0.3-5.9,0.3-8.8,0v-1.9
			c1.3,0.1,2.8,0.1,4.4,0.1s3.1,0,4.4-0.1L112,74.1z M112,70.1c-2.9,0.2-5.9,0.2-8.8,0v-5.8h3.3c1.9,0,3.8-0.5,5.5-1.6V70.1z
			 M106.7,60.7c-0.1,0-0.1,0-0.2,0H43.2c-3.8,0.1-6.9-2.9-7-6.7c-0.1-3.8,2.9-6.9,6.7-7c0.1,0,0.1,0,0.2,0h63.5c3.8,0,6.9,3,6.9,6.8
			C113.5,57.6,110.5,60.7,106.7,60.7"/>
		<path id="Path_2386" d="M106.2,35.8L106.2,35.8c1,0,1.8-0.8,1.8-1.8V23.2c0-1-0.8-1.8-1.8-1.8c-1,0-1.8,0.8-1.8,1.8V34
			C104.4,35,105.2,35.8,106.2,35.8L106.2,35.8"/>
		<path id="Path_2387" d="M137.2,52.5h-10.8c-1,0-1.8,0.8-1.8,1.8c0,1,0.8,1.8,1.8,1.8h10.8c1,0,1.8-0.8,1.8-1.8
			C139,53.3,138.2,52.5,137.2,52.5"/>
		<path id="Path_2388" d="M124.6,45.7l9.3-5.4c0.9-0.5,1.1-1.6,0.6-2.5c-0.5-0.8-1.6-1.1-2.4-0.7l-9.3,5.4c-0.9,0.5-1.2,1.6-0.7,2.5
			C122.6,45.9,123.7,46.3,124.6,45.7L124.6,45.7"/>
		<path id="Path_2389" d="M122.6,25.9c-0.9-0.5-2-0.2-2.5,0.7c0,0,0,0,0,0l0,0l-5.4,9.3c-0.5,0.9-0.2,2,0.6,2.5s2,0.2,2.5-0.6l0,0
			l5.4-9.3C123.8,27.5,123.5,26.4,122.6,25.9"/>
		<path id="Path_2390" d="M37,90.5l-7.2-8c-0.7-0.7-1.8-0.8-2.6-0.1c-0.7,0.7-0.8,1.8-0.1,2.5l7.2,8c0.6,0.8,1.8,0.9,2.5,0.2
			C37.6,92.5,37.7,91.4,37,90.5C37.1,90.6,37.1,90.6,37,90.5C37,90.6,37,90.5,37,90.5"/>
		<path id="Path_2391" d="M30.5,98.8L30.5,98.8l-10.3-3.4c-0.9-0.3-2,0.2-2.3,1.1c-0.3,0.9,0.2,2,1.1,2.3l0.1,0l10.2,3.3
			c0.9,0.3,2-0.1,2.3-1.1C32,100.2,31.5,99.1,30.5,98.8C30.6,98.8,30.5,98.8,30.5,98.8"/>
		<path id="Path_2392" d="M29,109.1L29,109.1L29,109.1l-10.6,2.2c-1,0.2-1.6,1.1-1.4,2.1c0.2,1,1.1,1.6,2.1,1.4c0,0,0,0,0.1,0
			l10.5-2.2c1-0.2,1.6-1.1,1.4-2.1S30,108.9,29,109.1L29,109.1"/>
		<path id="Path_2393" d="M19.2,25.5c0.3,0.3,0.9,0.3,1.3,0l0.2-0.2c0.3-0.3,0.3-0.9,0-1.3l-2.5-2.5c-0.3-0.3-0.9-0.3-1.3,0
			l-0.2,0.2c-0.3,0.3-0.3,0.9,0,1.3L19.2,25.5z"/>
		<path id="Rectangle_1064" d="M44.7,24.1l2.5-2.5c0.3-0.3,0.9-0.3,1.3,0c0,0,0,0,0,0l0.2,0.2c0.3,0.3,0.3,0.9,0,1.3c0,0,0,0,0,0
			l-2.5,2.5c-0.3,0.3-0.9,0.3-1.3,0l-0.2-0.2C44.3,25,44.3,24.5,44.7,24.1z"/>
		<path id="Rectangle_1065" d="M16.7,52.1l2.5-2.5c0.3-0.3,0.9-0.3,1.3,0c0,0,0,0,0,0l0.2,0.2c0.3,0.3,0.3,0.9,0,1.2c0,0,0,0,0,0
			l-2.5,2.5c-0.3,0.3-0.9,0.3-1.3,0l-0.2-0.2C16.3,53,16.3,52.5,16.7,52.1z"/>
	</g>
</g>
</svg>
