<?xml version="1.0" encoding="UTF-8"?><svg id="a" xmlns="http://www.w3.org/2000/svg" width="150.23" height="31.64" viewBox="0 0 150.23 31.64"><path d="m0,31.64V0h20.9v3.57H4.01v10.56h14.22v3.34H4.01v14.17H0Z" fill="#fff"/><path d="m33.16,0h3.39l12.92,31.64h-4.28l-3.55-9.27h-13.61l-3.56,9.27h-4.28L33.16,0Zm7.29,19.25l-5.6-14.62-5.62,14.62h11.22Z" fill="#fff"/><path d="m81.07,31.64V7.49l-10.43,18.58h-2.45l-10.47-18.58v24.15h-4.01V0h4.23l11.45,20.55L80.89,0h4.19v31.64h-4.01Z" fill="#fff"/><path d="m92.65,31.64V0h4.01v31.64h-4.01Z" fill="#fff"/><path d="m104.24,31.64V0h4.01v28.08h17.65v3.57h-21.66Z" fill="#fff"/><path d="m126.61,0l9.58,16.49L145.86,0h4.37l-12.03,20.1v11.54h-4.01v-11.63L122.2,0h4.41Z" fill="#fff"/></svg>