<?xml version="1.0" encoding="utf-8"?>
<!-- Generator: Adobe Illustrator 27.2.0, SVG Export Plug-In . SVG Version: 6.00 Build 0)  -->
<svg version="1.1" id="Layer_1" xmlns="http://www.w3.org/2000/svg" xmlns:xlink="http://www.w3.org/1999/xlink" x="0px" y="0px"
	 viewBox="0 0 150 150" style="enable-background:new 0 0 150 150;" xml:space="preserve">
<g>
	<g id="Group_4950">
		<path id="Path_2487" d="M43,76.7c0.3,0.4,1,0.5,1.4,0.1c0,0,0.1-0.1,0.1-0.1L63,55.8c0.4-0.5,0.4-1.2,0-1.6
			c-0.3-0.4-1-0.5-1.4-0.1c0,0-0.1,0.1-0.1,0.1l0,0l0,0L43,75.1C42.6,75.6,42.6,76.3,43,76.7"/>
		<path id="Path_2488" d="M43.2,66.5l10.3-11.6c0.4-0.5,0.4-1.2,0-1.6c-0.4-0.4-1-0.4-1.4-0.1c0,0-0.1,0.1-0.1,0.1L41.7,64.9
			c-0.4,0.5-0.4,1.2,0,1.6C42.1,66.9,42.7,67,43.2,66.5C43.1,66.6,43.2,66.6,43.2,66.5"/>
		<path id="Path_2489" d="M128.4,74.3l0.7-4.7l-8.2,3.7l6.4,7.8l0.7-4.5c5.2,2.2,5.2,3.6,5.2,3.6c0,0.1-0.1,0.2-0.2,0.3
			c-1.3,1.7-6.6,3.1-14.4,4V48.7c0-0.7-0.5-1.2-1.1-1.3l-49.2-3.8c0.4-1.9,0.8-3.8,1.2-5.5c2.8-11.7,5.4-14.8,6.5-14.8
			c0.8,0,2.3,2,3.4,9.3l-4.2,0.5l6.1,9.5l4.3-10.7l-4.2,0.5c-1.1-7.7-2.9-11.4-5.5-11.4c-1.6,0-3.2,1.6-4.7,4.8
			c-1.6,3.8-2.9,7.7-3.8,11.7c-0.5,1.9-0.9,3.9-1.3,6l-33.2-2.6c-0.2,0-0.5,0.1-0.6,0.2c-0.2,0.2-0.3,0.4-0.3,0.7V78
			c-3.9-0.9-7.7-2.2-11.4-3.8c-4-1.9-4.1-3.1-4.1-3.1s0.2-1.4,5.2-2.7l0.2,4l7.2-6.4l-1.5-1c0,0,0,0,0,0l-0.1,0l-6.2-4.2l0.2,5.4
			c-0.6,0.2-1.2,0.3-1.7,0.5C15.5,68,15,69.8,15,71.1c0,2,1.6,3.6,5.2,5.3c3.9,1.7,7.9,3,12,4v26.9c0,0.7,0.5,1.2,1.1,1.3l4.9,0.4
			l10.3,0.8l13.1,1c0.6,9.1,2,15.5,4,18c0.5,0.8,1.4,1.2,2.3,1.3c1.9,0,3.8-2.3,5.6-6.9l4,1.5l-2.1-11.4l-7.8,7.7l3.9,1.5
			c-2,5-3.3,5.3-3.6,5.3c-0.3,0-0.6-0.2-0.8-0.5c-1.5-1.8-2.8-7.5-3.4-16.2l54.2,4.2c0.2,0,0.5-0.1,0.6-0.2c0.2-0.2,0.3-0.4,0.3-0.7
			V86.9c8-0.8,13.8-2.3,15.6-4.6c0.5-0.6,0.7-1.3,0.7-2C135,78.7,134.1,76.7,128.4,74.3 M116.1,49.7v35.1c-0.6,0.1-1.2,0.1-1.8,0.1
			V51.6l-46.7-3.7c0.1-0.7,0.2-1.3,0.4-2L116.1,49.7z M38.9,81.9c6.7,1.4,14.4,2.6,22.6,3.5c-0.3,6.6-0.4,12.9-0.2,18.4l-12.2-1
			l-9.1-0.7l-1.1-0.1V81.9z M112,85.1c-3.2,0.2-6.6,0.3-10.2,0.3l7.1-8.1c0.4-0.5,0.4-1.2,0-1.6l0,0c-0.3-0.4-1-0.5-1.4-0.1
			c0,0-0.1,0.1-0.1,0.1l0,0l-8.6,9.7c-7.4,0-15.5-0.4-23.8-1c-3.9-0.3-7.7-0.7-11.4-1.1c0.1-2.5,0.3-5.1,0.5-7.7
			c0.7-8.9,1.7-17.5,3-25.2L112,54L112,85.1z M62.1,75.4c-0.2,2.6-0.4,5.2-0.5,7.7c-8.2-1-16-2.2-22.7-3.6V48.2l26.2,2.1
			C63.8,57.9,62.8,66.5,62.1,75.4 M63.5,85.7c3.7,0.4,7.5,0.8,11.4,1.1c7.3,0.6,14.7,0.9,21.8,1l-7.9,8.9c-0.4,0.5-0.4,1.2,0,1.6
			c0.4,0.4,1,0.4,1.4,0.1c0,0,0.1-0.1,0.1-0.1l9.3-10.5h0.1c2.5,0,5,0,7.3-0.1l-8.8,9.9c-0.4,0.5-0.4,1.2,0,1.6
			c0.4,0.4,1,0.4,1.4,0.1c0,0,0.1-0.1,0.1-0.1l10.3-11.6c0,0,0,0,0,0c0.6,0,1.2-0.1,1.8-0.1v20.4L63.3,104
			C63.2,98.6,63.2,92.5,63.5,85.7 M65.8,45.8c-0.1,0.6-0.2,1.3-0.4,2l-28.9-2.3V79c-0.6-0.1-1.2-0.3-1.8-0.4V43.3L65.8,45.8z
			 M49.1,107.5l-10.2-0.8l-4.1-0.3V81c0.6,0.1,1.2,0.3,1.8,0.4v23l3.2,0.3l21.6,1.7c0,0.7,0.1,1.3,0.1,2L49.1,107.5z M116.1,112.7
			l-52.6-4.1c0-0.6-0.1-1.3-0.1-2l50.9,4V87.3c0.6,0,1.2-0.1,1.8-0.1L116.1,112.7z"/>
	</g>
</g>
</svg>
