<?xml version="1.0" encoding="utf-8"?>
<!-- Generator: Adobe Illustrator 27.2.0, SVG Export Plug-In . SVG Version: 6.00 Build 0)  -->
<svg version="1.1" id="Layer_1" xmlns="http://www.w3.org/2000/svg" xmlns:xlink="http://www.w3.org/1999/xlink" x="0px" y="0px"
	 viewBox="0 0 150 150" style="enable-background:new 0 0 150 150;" xml:space="preserve">
<g id="Group_4943" transform="translate(0 -0.004)">
	<g>
		<g id="Group_4946" transform="translate(0 0.004)">
			<path id="Path_2470" d="M128.5,54.5C116.9,26.9,85.1,14,57.5,25.6S17,68.9,28.6,96.5S72,137,99.6,125.4
				c20.1-8.5,33.2-28.1,33.1-49.9C132.7,68.3,131.3,61.1,128.5,54.5 M112.5,112.2c-20.3,18.6-51.8,17.3-70.4-2.9
				c-17.5-19.1-17.5-48.4,0-67.5L112.5,112.2z M45,38.8c20.2-18.6,51.8-17.3,70.4,2.9c17.6,19.1,17.6,48.4,0,67.5L45,38.8z"/>
			<path id="Path_2471" d="M62.5,80.8c0.3,0.4,0.8,0.6,1.3,0.6h0.1c0.5,0,0.9-0.2,1.3-0.5l6.9-6.4l-2.7-2.7l-6.8,6.3
				C61.9,78.9,61.8,80.1,62.5,80.8C62.5,80.8,62.5,80.8,62.5,80.8"/>
			<path id="Path_2472" d="M72.3,54.2c-0.5-0.2-1-0.2-1.5-0.1c-1.8,0.7-3.6,1.5-5.2,2.6l2.7,2.7c1.2-0.7,2.4-1.3,3.7-1.8
				c1-0.4,1.5-1.4,1.1-2.4C73.2,54.8,72.8,54.5,72.3,54.2"/>
			<path id="Path_2473" d="M73.4,91.7L73.4,91.7c0.4,0.3,0.8,0.5,1.3,0.5l0,0c0.5,0,1-0.2,1.4-0.6l6.3-6.8l-2.7-2.7L73.3,89
				C72.6,89.8,72.6,91,73.4,91.7C73.4,91.7,73.4,91.7,73.4,91.7"/>
			<path id="Path_2474" d="M57.7,84.5c3.3,7.7,10.5,13,18.9,13.8c0.7,0.1,1.4,0.1,2.1,0.1c4.7,0,9.3-1.4,13.1-4.2L89,91.5
				c-3.1,2-6.7,3.1-10.4,3.1c-0.6,0-1.2,0-1.7-0.1c-9.1-0.8-16.3-8.1-17.2-17.2c-0.1-0.6-0.1-1.1-0.1-1.7c0-3.7,1.1-7.3,3.1-10.4
				L60,62.5c-2.7,3.8-4.2,8.4-4.2,13.1c0,0.7,0,1.4,0.1,2.1C56.2,80,56.7,82.3,57.7,84.5"/>
			<path id="Path_2475" d="M45.1,83.5l1.2,0.2c0.7,3,1.9,5.9,3.4,8.5c0.1,0.2,0.2,0.4,0.4,0.6l-0.7,1c-1.6,2.2-1.4,5.2,0.5,7.2
				l3.5,3.5c1.9,1.9,5,2.1,7.2,0.5l1-0.7c0.2,0.1,0.4,0.2,0.6,0.4c2.7,1.5,5.5,2.7,8.5,3.4l0.2,1.2c0.4,2.7,2.7,4.7,5.4,4.7h4.9
				c2.7,0,5-2,5.4-4.7l0.2-1.2c3.2-0.8,6.3-2.1,9.1-3.8l1,0.7c1.7,1.3,4.1,1.5,6,0.4l-3.1-3.1c-0.2-0.1-0.4-0.2-0.6-0.3l-1.5-1.1
				c-0.9-0.7-2.2-0.7-3.2-0.1c-2.8,1.8-6,3.1-9.2,3.8c-1.1,0.3-2,1.2-2.1,2.3l-0.3,1.9c-0.1,0.8-0.8,1.4-1.7,1.4h-4.9
				c-0.8,0-1.5-0.6-1.7-1.4l-0.3-1.9c-0.2-1.1-1-2.1-2.1-2.3c-2.9-0.6-5.6-1.7-8.2-3.2c-0.3-0.2-0.7-0.4-1.1-0.6
				c-1-0.6-2.2-0.6-3.2,0.1l-1.5,1.1c-0.7,0.5-1.6,0.4-2.2-0.2l-3.5-3.5c-0.6-0.6-0.7-1.5-0.2-2.2l1.1-1.5c0.7-0.9,0.7-2.2,0.1-3.2
				c-0.2-0.4-0.4-0.7-0.6-1.1c-1.5-2.5-2.5-5.3-3.2-8.2c-0.3-1.1-1.2-2-2.3-2.1l-1.9-0.3c-0.8-0.1-1.4-0.8-1.4-1.7v-4.9
				c0-0.8,0.6-1.5,1.4-1.7l1.9-0.3c1.1-0.2,2.1-1,2.3-2.1c0.7-3.3,2-6.4,3.8-9.2c0.6-1,0.6-2.2-0.1-3.2l-1.1-1.5
				c-0.1-0.2-0.2-0.4-0.3-0.6L49,51.4c-1.1,1.9-0.9,4.3,0.4,6l0.7,1c-1.7,2.8-3,5.9-3.8,9.1l-1.2,0.2c-2.7,0.4-4.7,2.7-4.7,5.4V78
				C40.4,80.8,42.4,83.1,45.1,83.5"/>
			<path id="Path_2476" d="M114.2,53.7c-1.7-0.7-3.6-0.3-4.8,1L101,63c-0.8,0.8-2,0.8-2.8,0l-7-7c-0.8-0.8-0.8-2,0-2.8c0,0,0,0,0,0
				l8.4-8.4c1.8-1.8,1.7-4.6,0-6.4c-0.8-0.8-1.9-1.3-3-1.3c-5.8-0.1-11.4,2.1-15.4,6.2c-3,3-4.9,6.9-5.6,11.1
				c-0.3,2.1-0.4,4.3-0.1,6.4c0.2,1.7,0,3.4-0.7,4.9l2.8,2.8c1.4-2.5,2-5.4,1.6-8.2c-0.2-1.8-0.2-3.6,0.1-5.3c0.5-3.4,2.1-6.6,4.5-9
				c0.6-0.6,1.3-1.2,2-1.8c1.5-1.1,3.3-2,5.1-2.5c1.8-0.5,3.7-0.8,5.5-0.8c0.4,0,0.7,0.3,0.7,0.7c0,0.2-0.1,0.3-0.2,0.5l-8.4,8.4
				c-2.3,2.3-2.3,5.9,0,8.2l7,7c1.1,1.1,2.6,1.7,4.1,1.7l0,0c1.5,0,3-0.6,4.1-1.7l8.4-8.4c0.3-0.3,0.7-0.3,1,0
				c0.1,0.1,0.2,0.3,0.2,0.5c0,1.9-0.2,3.7-0.8,5.5c-0.6,1.8-1.4,3.5-2.5,5.1c-0.5,0.7-1.1,1.4-1.8,2c-2.5,2.4-5.6,4-9,4.5
				c-1.8,0.3-3.6,0.3-5.3,0.1c-2.8-0.3-5.7,0.2-8.2,1.6l2.8,2.8c1.5-0.7,3.2-0.9,4.9-0.7c2.1,0.3,4.3,0.2,6.4-0.1
				c4.2-0.6,8.1-2.6,11.1-5.6c0.8-0.8,1.5-1.6,2.1-2.5c2.7-3.8,4.2-8.3,4-12.9C117,55.9,115.9,54.3,114.2,53.7"/>
			<path id="Path_2477" d="M98.9,80.9c-1-0.4-2.1,0.2-2.4,1.1c0,0,0,0,0,0c-0.5,1.3-1.1,2.5-1.8,3.7l2.7,2.7c1.1-1.6,2-3.3,2.6-5.2
				C100.4,82.4,99.9,81.3,98.9,80.9C98.9,80.9,98.9,80.9,98.9,80.9"/>
			<path id="Path_2478" d="M76.2,41.2H80c1,0,1.9-0.9,1.9-1.9c0-1-0.9-1.9-1.9-1.9l0,0h-3.8c-2.7,0-5,2-5.4,4.7l-0.2,1.2
				c-3.2,0.8-6.3,2.1-9.1,3.8l-1-0.7c-1.7-1.3-3.9-1.5-5.8-0.5l3.8,3.8l1.2,0.9c0.5,0.4,1.1,0.6,1.7,0.6c0.5,0,1-0.1,1.5-0.4
				c2.8-1.8,6-3.1,9.2-3.8c1.1-0.3,2-1.2,2.1-2.3l0.3-1.9C74.7,41.8,75.4,41.2,76.2,41.2"/>
			<path id="Path_2479" d="M115,72.4c-1,0-1.9,0.9-1.9,1.9v0V78c0,0.8-0.6,1.5-1.4,1.7l-1.9,0.3c-1.1,0.2-2.1,1-2.3,2.1
				c-0.7,3.3-2,6.4-3.8,9.2c-0.6,1-0.6,2.2,0.1,3.2l0.9,1.2l3.8,3.8c0.9-1.9,0.7-4.1-0.5-5.8l-0.7-1c1.7-2.8,3-5.9,3.8-9.1l1.2-0.2
				c2.7-0.4,4.7-2.7,4.7-5.4v-3.8C116.9,73.2,116,72.4,115,72.4L115,72.4"/>
		</g>
	</g>
</g>
</svg>
