<?xml version="1.0" encoding="utf-8"?>
<!-- Generator: Adobe Illustrator 27.2.0, SVG Export Plug-In . SVG Version: 6.00 Build 0)  -->
<svg version="1.1" id="Layer_1" xmlns="http://www.w3.org/2000/svg" xmlns:xlink="http://www.w3.org/1999/xlink" x="0px" y="0px"
	 viewBox="0 0 150 150" style="enable-background:new 0 0 150 150;" xml:space="preserve">
<g>
	<g id="Group_4960">
		<path id="Path_2516" d="M74.6,57.7L59.2,70.1c-0.8,0.6-0.9,1.8-0.3,2.6c0.1,0.1,0.2,0.2,0.3,0.3l15.4,12.5c0.7,0.5,1.6,0.5,2.3,0
			L92.3,73c0.8-0.6,0.9-1.8,0.3-2.6c-0.1-0.1-0.2-0.2-0.3-0.3L76.9,57.7C76.2,57.1,75.2,57.1,74.6,57.7 M88.2,71.6L75.7,81.6
			L63.2,71.6l12.5-10.1L88.2,71.6z"/>
		<path id="Path_2517" d="M95.9,81.2c0.1-1-0.7-1.9-1.7-2c-0.5,0-1,0.1-1.3,0.4L76.4,93.3L60,79.7c-0.8-0.7-1.9-0.5-2.6,0.2
			c-0.7,0.8-0.5,1.9,0.2,2.6l0,0l17.6,14.7c0.7,0.6,1.7,0.6,2.4,0l17.6-14.7C95.6,82.2,95.8,81.7,95.9,81.2"/>
		<path id="Path_2518" d="M89.2,60.8L89.2,60.8c0.7,0.7,1.9,0.7,2.6,0l6.9-6.9v4.4c0,1,0.8,1.8,1.8,1.8s1.8-0.8,1.8-1.8v-8.8
			c0-1-0.8-1.8-1.8-1.8h-8.8c-1,0-1.8,0.8-1.8,1.8c0,1,0.8,1.8,1.8,1.8h4.4l-6.9,6.9C88.5,58.9,88.5,60.1,89.2,60.8"/>
		<path id="Path_2519" d="M89.9,103.3c0,1,0.8,1.8,1.8,1.8h8.8c1,0,1.8-0.8,1.8-1.8v-8.8c0-1-0.8-1.8-1.8-1.8c-1,0-1.8,0.8-1.8,1.8
			c0,0,0,0,0,0v4.4L91.8,92c-0.7-0.7-1.9-0.6-2.6,0.1c-0.6,0.7-0.6,1.8,0,2.5l6.9,6.9h-4.3C90.7,101.5,89.9,102.3,89.9,103.3"/>
		<path id="Path_2520" d="M48.1,103.3c0,1,0.8,1.8,1.8,1.8h8.8c1,0,1.8-0.8,1.8-1.8c0-1-0.8-1.8-1.8-1.8h-4.4l6.9-6.9
			c0.7-0.7,0.7-1.9,0-2.6c-0.7-0.7-1.9-0.7-2.6,0l-6.9,6.9v-4.3c0-1-0.8-1.8-1.8-1.8c-1,0-1.8,0.8-1.8,1.8c0,0,0,0,0,0L48.1,103.3z"
			/>
		<path id="Path_2521" d="M60.6,49.5c0-1-0.8-1.8-1.8-1.8h-8.8c-1,0-1.8,0.8-1.8,1.8v8.8c0,1,0.8,1.8,1.8,1.8c1,0,1.8-0.8,1.8-1.8
			c0,0,0,0,0,0v-4.4l6.9,6.9c0.8,0.7,1.9,0.6,2.6-0.2c0.6-0.7,0.6-1.7,0-2.4l-6.9-6.9h4.3C59.7,51.3,60.6,50.5,60.6,49.5"/>
		<path id="Path_2522" d="M126.6,52.6c-1.1-0.1-2.1,0.6-2.3,1.7l-0.9,6.4C115,34,86.5,19.3,59.8,27.7C42,33.4,28.7,48.4,25.4,66.8
			c-0.2,1,0.5,2,1.5,2.2c1,0.2,2-0.5,2.2-1.5l0,0C33.8,42,58.2,25.2,83.7,29.9c16.7,3.1,30.5,15,35.9,31.1l-4-3.2
			c-0.9-0.7-2.1-0.5-2.8,0.4c-0.6,0.9-0.5,2.1,0.3,2.8l10.2,8c0.9,0.7,2.1,0.5,2.8-0.3c0.2-0.3,0.4-0.6,0.4-1l1.8-12.8
			C128.5,53.8,127.7,52.7,126.6,52.6"/>
		<path id="Path_2523" d="M123.5,83.7c-1-0.2-2,0.4-2.2,1.4l0,0c-5.4,25.3-30.4,41.5-55.7,36c-16.6-3.6-30-15.9-35-32.1l4,3.3
			c0.9,0.7,2.1,0.6,2.8-0.3c0.7-0.9,0.6-2.1-0.3-2.8l-10-8.3c-0.9-0.7-2.1-0.6-2.8,0.3c-0.2,0.3-0.4,0.6-0.4,0.9l-2.2,12.8
			c-0.2,1.1,0.5,2.1,1.6,2.3c0.1,0,0.2,0,0.3,0c1,0,1.8-0.7,2-1.7l1.1-6.4c7.7,26.9,35.7,42.5,62.6,34.8c18-5.1,31.7-19.8,35.6-38.1
			C125.2,84.9,124.5,83.9,123.5,83.7"/>
	</g>
</g>
</svg>
