<svg xmlns="http://www.w3.org/2000/svg" width="465.671" height="81.008" viewBox="0 0 465.671 81.008">
  <g id="ACH_Calculation" transform="translate(-67.5 -36.7)">
    <g id="Group_4982" data-name="Group 4982" transform="translate(67.747 36.7)" style="isolation: isolate">
      <path id="Path_2606" data-name="Path 2606" d="M90.206,38.7h12.108L123.5,96.806H109.75l-4.508-13.013H87.179L82.753,96.806H69Zm12.848,35.847L96.26,54,89.3,74.547Z" transform="translate(-69 -38.371)" fill="#778495"/>
      <path id="Path_2607" data-name="Path 2607" d="M392.9,65.588a29.485,29.485,0,0,1,1.958-10.43,28.7,28.7,0,0,1,5.725-9.295,29.154,29.154,0,0,1,9.163-6.63A28.519,28.519,0,0,1,422.019,36.7a27.545,27.545,0,0,1,14.2,3.521,22.83,22.83,0,0,1,8.966,9.163L434.867,56.59a11.75,11.75,0,0,0-2.5-3.8,13.664,13.664,0,0,0-6.992-3.767,19.024,19.024,0,0,0-3.685-.362,13.855,13.855,0,0,0-6.712,1.563,14.846,14.846,0,0,0-4.754,4.014,16.51,16.51,0,0,0-2.78,5.561,22.271,22.271,0,0,0-.9,6.3,20.881,20.881,0,0,0,1.069,6.63,17.366,17.366,0,0,0,3.076,5.643,14.806,14.806,0,0,0,4.837,3.883,13.82,13.82,0,0,0,6.35,1.431,16.483,16.483,0,0,0,3.718-.444,14.3,14.3,0,0,0,3.685-1.4,13.468,13.468,0,0,0,3.241-2.451,11.26,11.26,0,0,0,2.369-3.718l10.973,6.465a17.241,17.241,0,0,1-3.883,5.725,23.947,23.947,0,0,1-5.939,4.261,31,31,0,0,1-7.123,2.616,32.128,32.128,0,0,1-7.37.9,26.036,26.036,0,0,1-11.582-2.583,29.206,29.206,0,0,1-9.081-6.827,31.69,31.69,0,0,1-5.89-9.673A30.068,30.068,0,0,1,392.9,65.588Z" transform="translate(-339.614 -36.7)" fill="#778495"/>
      <path id="Path_2608" data-name="Path 2608" d="M796.6,38.7V96.806H783.188V72.985H760.024V96.806H746.6V38.7h13.424V61.205h23.163V38.7Z" transform="translate(-635.126 -38.371)" fill="#778495"/>
    </g>
    <g id="Group_4983" data-name="Group 4983" transform="translate(67.5 102.555)" style="isolation: isolate">
      <path id="Path_2609" data-name="Path 2609" d="M71.613,439h2.353l4.113,11.286H75.413l-.872-2.534H71.021l-.855,2.534H67.5Zm2.5,6.959-1.316-4-1.349,4Z" transform="translate(-67.5 -438.671)" fill="#778495"/>
      <path id="Path_2610" data-name="Path 2610" d="M137.3,439.3V437h2.55v2.3Zm0,9.311v-8.341h2.55v8.341Z" transform="translate(-125.817 -437)" fill="#778495"/>
      <path id="Path_2611" data-name="Path 2611" d="M168.7,458.318a5.242,5.242,0,0,0-1.662.3,2.139,2.139,0,0,0-1.086.855v5H163.4V456.13h2.336v1.678a3.5,3.5,0,0,1,1.1-1.316A2.633,2.633,0,0,1,168.27,456h.247a.615.615,0,0,1,.165.016v2.3Z" transform="translate(-147.623 -452.872)" fill="#778495"/>
      <path id="Path_2612" data-name="Path 2612" d="M219.6,444.2a5.868,5.868,0,0,1,.378-2.023,5.459,5.459,0,0,1,1.119-1.81,5.859,5.859,0,0,1,1.777-1.283,5.52,5.52,0,0,1,2.385-.494,5.386,5.386,0,0,1,2.764.691,4.516,4.516,0,0,1,1.744,1.777l-2.007,1.4a2.734,2.734,0,0,0-.477-.74,2.506,2.506,0,0,0-.642-.477,2.423,2.423,0,0,0-.707-.247,3.537,3.537,0,0,0-.707-.066,2.706,2.706,0,0,0-1.3.3,2.823,2.823,0,0,0-.921.773,3.065,3.065,0,0,0-.543,1.086,4.363,4.363,0,0,0-.181,1.217,3.752,3.752,0,0,0,.214,1.283,3.4,3.4,0,0,0,.592,1.1,2.976,2.976,0,0,0,.938.757,2.724,2.724,0,0,0,1.234.28,3.759,3.759,0,0,0,.724-.082,3.3,3.3,0,0,0,.707-.263,2.346,2.346,0,0,0,1.086-1.2l2.122,1.25a3.367,3.367,0,0,1-.757,1.119,4.441,4.441,0,0,1-1.152.823,5.555,5.555,0,0,1-1.382.51,6.317,6.317,0,0,1-1.431.181,5.138,5.138,0,0,1-2.254-.494,5.429,5.429,0,0,1-1.76-1.333,6.477,6.477,0,0,1-1.152-1.875A5.758,5.758,0,0,1,219.6,444.2Z" transform="translate(-194.577 -438.33)" fill="#778495"/>
      <path id="Path_2613" data-name="Path 2613" d="M296.745,448.615h-2.55v-4.689a1.791,1.791,0,0,0-.313-1.185,1.109,1.109,0,0,0-.872-.378,1.3,1.3,0,0,0-.477.1,1.79,1.79,0,0,0-.51.3,4.058,4.058,0,0,0-.461.461,1.939,1.939,0,0,0-.313.609v4.787H288.7V437h2.55v4.656a3.145,3.145,0,0,1,1.217-1.152,3.55,3.55,0,0,1,1.662-.411,2.755,2.755,0,0,1,1.365.3,2.149,2.149,0,0,1,.79.74,2.912,2.912,0,0,1,.378,1.02,6.38,6.38,0,0,1,.1,1.1v5.363Z" transform="translate(-252.31 -437)" fill="#778495"/>
      <path id="Path_2614" data-name="Path 2614" d="M347.51,464.468a3.322,3.322,0,0,1-1.152-.2,2.614,2.614,0,0,1-.921-.559,2.741,2.741,0,0,1-.609-.839,2.524,2.524,0,0,1-.23-1.053,2.4,2.4,0,0,1,.263-1.135,2.687,2.687,0,0,1,.74-.872,3.679,3.679,0,0,1,1.135-.576,4.956,4.956,0,0,1,1.448-.214,6.927,6.927,0,0,1,1.02.082,3.745,3.745,0,0,1,.855.263v-.378c0-.971-.559-1.448-1.662-1.448a3.783,3.783,0,0,0-1.3.23,5.571,5.571,0,0,0-1.3.691l-.74-1.6a6.491,6.491,0,0,1,1.711-.806,6.417,6.417,0,0,1,1.892-.263,4.356,4.356,0,0,1,2.928.888,3.242,3.242,0,0,1,1.036,2.6v2.139a.861.861,0,0,0,.115.526.579.579,0,0,0,.428.181v2.139a5.137,5.137,0,0,1-.609.1c-.181.016-.345.016-.494.016a1.82,1.82,0,0,1-1.086-.28,1.208,1.208,0,0,1-.461-.79l-.049-.378a3.894,3.894,0,0,1-1.333,1.1A3.1,3.1,0,0,1,347.51,464.468Zm.74-1.826a2.258,2.258,0,0,0,.806-.148,2.008,2.008,0,0,0,.642-.378.79.79,0,0,0,.362-.609v-.79a4.649,4.649,0,0,0-.724-.2,3.824,3.824,0,0,0-.724-.066,1.941,1.941,0,0,0-1.152.313,1,1,0,0,0-.461.823.944.944,0,0,0,.346.757A1.392,1.392,0,0,0,348.25,462.642Z" transform="translate(-299.012 -452.705)" fill="#778495"/>
      <path id="Path_2615" data-name="Path 2615" d="M412.378,464.392h-2.55V459.7a1.842,1.842,0,0,0-.313-1.2,1.032,1.032,0,0,0-.823-.378,1.29,1.29,0,0,0-.543.115,2.469,2.469,0,0,0-.526.313,4.058,4.058,0,0,0-.461.461,2.545,2.545,0,0,0-.313.592v4.787H404.3v-8.341h2.287v1.4a3.054,3.054,0,0,1,1.3-1.152,4.5,4.5,0,0,1,1.941-.411,2.493,2.493,0,0,1,1.3.3,2.086,2.086,0,0,1,.757.757,3.145,3.145,0,0,1,.362,1.02,6.15,6.15,0,0,1,.082,1.086v5.347Z" transform="translate(-348.892 -452.777)" fill="#778495"/>
      <path id="Path_2616" data-name="Path 2616" d="M464.5,464.432a3.52,3.52,0,0,1-1.514-.329,3.718,3.718,0,0,1-1.168-.9,4.075,4.075,0,0,1-.757-1.333,4.859,4.859,0,0,1-.263-1.645,5.253,5.253,0,0,1,.28-1.711,4.442,4.442,0,0,1,.79-1.365,3.729,3.729,0,0,1,1.217-.921,3.576,3.576,0,0,1,1.579-.329,3.194,3.194,0,0,1,1.662.411,2.961,2.961,0,0,1,1.135,1.119v-1.365h2.2v7.765a3.864,3.864,0,0,1-1.349,3.011,4.551,4.551,0,0,1-1.53.823,6.19,6.19,0,0,1-1.958.28,5.7,5.7,0,0,1-2.3-.428,4.877,4.877,0,0,1-1.662-1.234l1.365-1.382a3.53,3.53,0,0,0,1.152.839,3.394,3.394,0,0,0,1.464.313,3.021,3.021,0,0,0,.872-.132,1.821,1.821,0,0,0,.724-.395,1.658,1.658,0,0,0,.494-.691,2.665,2.665,0,0,0,.181-1v-.806a2.44,2.44,0,0,1-1.1,1.053A3.264,3.264,0,0,1,464.5,464.432Zm.872-2.024a1.81,1.81,0,0,0,1.053-.329,2.065,2.065,0,0,0,.707-.839V459.5a2.3,2.3,0,0,0-.773-1.053,1.821,1.821,0,0,0-1.119-.395,1.656,1.656,0,0,0-.757.181,1.7,1.7,0,0,0-.592.494,2.257,2.257,0,0,0-.378.707,2.8,2.8,0,0,0-.132.839,2.4,2.4,0,0,0,.148.855,2.05,2.05,0,0,0,.428.674,1.809,1.809,0,0,0,.625.444A1.837,1.837,0,0,0,465.371,462.408Z" transform="translate(-396.095 -452.784)" fill="#778495"/>
      <path id="Path_2617" data-name="Path 2617" d="M526.974,464.386a4.771,4.771,0,0,1-1.875-.346,4.252,4.252,0,0,1-1.415-.938,4,4,0,0,1-.888-1.365,4.441,4.441,0,0,1-.3-1.612,4.922,4.922,0,0,1,.3-1.711,3.991,3.991,0,0,1,2.287-2.369,5.353,5.353,0,0,1,3.784,0,4.18,4.18,0,0,1,1.4.938,4.025,4.025,0,0,1,.872,1.382,4.621,4.621,0,0,1,.3,1.645,4.011,4.011,0,0,1-.016.444c-.016.148-.033.263-.049.378H525.2a1.77,1.77,0,0,0,.609,1.283,1.907,1.907,0,0,0,1.25.444,2.237,2.237,0,0,0,1.069-.263,1.4,1.4,0,0,0,.691-.724l2.155.609a3.985,3.985,0,0,1-1.53,1.612A4.808,4.808,0,0,1,526.974,464.386Zm1.76-5.116a1.864,1.864,0,0,0-.576-1.25,1.7,1.7,0,0,0-1.217-.461,1.727,1.727,0,0,0-1.234.477,1.886,1.886,0,0,0-.559,1.25h3.586Z" transform="translate(-447.646 -452.624)" fill="#778495"/>
      <path id="Path_2618" data-name="Path 2618" d="M584.25,464.3a6.643,6.643,0,0,1-2.106-.345,4.875,4.875,0,0,1-1.744-.987l.9-1.563a7.367,7.367,0,0,0,1.481.806,3.6,3.6,0,0,0,1.4.28,1.388,1.388,0,0,0,.757-.181.554.554,0,0,0,.263-.51.581.581,0,0,0-.345-.526,5.209,5.209,0,0,0-1.2-.428c-.559-.165-1.036-.313-1.415-.461a3.529,3.529,0,0,1-.938-.494,1.7,1.7,0,0,1-.526-.625,2.092,2.092,0,0,1-.165-.823,2.755,2.755,0,0,1,.247-1.168,2.458,2.458,0,0,1,.707-.888,3.408,3.408,0,0,1,1.053-.576,4.349,4.349,0,0,1,1.333-.214,6.073,6.073,0,0,1,1.76.247,4.357,4.357,0,0,1,1.579.921l-.987,1.53a6.849,6.849,0,0,0-1.267-.707,2.926,2.926,0,0,0-1.086-.23,1.365,1.365,0,0,0-.707.164.617.617,0,0,0,.033,1.053,5.1,5.1,0,0,0,1.152.378,13.616,13.616,0,0,1,1.5.477,3.907,3.907,0,0,1,.987.526,1.949,1.949,0,0,1,.559.675,2.163,2.163,0,0,1,.181.9,2.42,2.42,0,0,1-.921,1.974A3.578,3.578,0,0,1,584.25,464.3Z" transform="translate(-496.021 -452.539)" fill="#778495"/>
      <path id="Path_2619" data-name="Path 2619" d="M655.8,450.285V439h4.82a3.372,3.372,0,0,1,1.481.329,3.894,3.894,0,0,1,1.925,2.089,3.768,3.768,0,0,1,.28,1.382,3.873,3.873,0,0,1-.263,1.431,3.917,3.917,0,0,1-.724,1.217,3.455,3.455,0,0,1-1.135.855,3.364,3.364,0,0,1-1.481.313h-2.287v3.636H655.8Zm2.6-5.922h2.122a.987.987,0,0,0,.79-.395,1.736,1.736,0,0,0,.329-1.168,2.187,2.187,0,0,0-.1-.691,1.356,1.356,0,0,0-.28-.477,1.086,1.086,0,0,0-.395-.28,1.063,1.063,0,0,0-.444-.082h-2.04v3.093Z" transform="translate(-559.017 -438.67)" fill="#778495"/>
      <path id="Path_2620" data-name="Path 2620" d="M715.374,464.386a4.772,4.772,0,0,1-1.875-.345,4.254,4.254,0,0,1-1.415-.938,4,4,0,0,1-.888-1.365,4.44,4.44,0,0,1-.3-1.612,4.921,4.921,0,0,1,.3-1.711,3.991,3.991,0,0,1,2.287-2.369,5.353,5.353,0,0,1,3.784,0,4.18,4.18,0,0,1,1.4.938,4.027,4.027,0,0,1,.872,1.382,4.621,4.621,0,0,1,.3,1.645,4.042,4.042,0,0,1-.016.444c-.016.148-.033.263-.049.378H713.6a1.771,1.771,0,0,0,.609,1.283,1.906,1.906,0,0,0,1.25.444,2.236,2.236,0,0,0,1.069-.263,1.4,1.4,0,0,0,.691-.724l2.155.609a3.986,3.986,0,0,1-1.53,1.612A4.78,4.78,0,0,1,715.374,464.386Zm1.76-5.116a1.864,1.864,0,0,0-.576-1.25,1.7,1.7,0,0,0-1.217-.461,1.727,1.727,0,0,0-1.234.477,1.885,1.885,0,0,0-.559,1.25h3.586Z" transform="translate(-605.052 -452.624)" fill="#778495"/>
      <path id="Path_2621" data-name="Path 2621" d="M777.5,458.318a5.242,5.242,0,0,0-1.662.3,2.139,2.139,0,0,0-1.086.855v5H772.2V456.13h2.336v1.678a3.5,3.5,0,0,1,1.1-1.316A2.633,2.633,0,0,1,777.07,456h.247a.615.615,0,0,1,.164.016v2.3Z" transform="translate(-656.268 -452.872)" fill="#778495"/>
      <path id="Path_2622" data-name="Path 2622" d="M842.19,439v11.286h-2.6v-4.623H835.1v4.623h-2.6V439h2.6v4.376h4.491V439Z" transform="translate(-706.648 -438.671)" fill="#778495"/>
      <path id="Path_2623" data-name="Path 2623" d="M903.975,464.554a4.851,4.851,0,0,1-1.892-.345,4.426,4.426,0,0,1-1.415-.938,4.028,4.028,0,0,1-.872-1.382,4.719,4.719,0,0,1,0-3.29,3.8,3.8,0,0,1,.872-1.382,4.373,4.373,0,0,1,1.415-.954,5.126,5.126,0,0,1,3.784,0,4.22,4.22,0,0,1,1.4.954,4.025,4.025,0,0,1,.872,1.382,4.718,4.718,0,0,1,0,3.29,3.8,3.8,0,0,1-.872,1.382,4.092,4.092,0,0,1-1.415.938A4.824,4.824,0,0,1,903.975,464.554Zm-1.859-4.327a2.316,2.316,0,0,0,.526,1.579,1.69,1.69,0,0,0,1.333.592,1.708,1.708,0,0,0,1.3-.609,2.369,2.369,0,0,0,.395-.691,2.513,2.513,0,0,0,.148-.888,2.316,2.316,0,0,0-.526-1.579,1.68,1.68,0,0,0-1.316-.592,1.626,1.626,0,0,0-.74.164,1.565,1.565,0,0,0-.592.444,2.367,2.367,0,0,0-.395.691A3.133,3.133,0,0,0,902.116,460.227Z" transform="translate(-762.625 -452.791)" fill="#778495"/>
      <path id="Path_2624" data-name="Path 2624" d="M963.7,465.305a2.329,2.329,0,0,1-1.941-.806,3.711,3.711,0,0,1-.658-2.353V456.8h2.55v4.787a1.942,1.942,0,0,0,.3,1.168,1.032,1.032,0,0,0,.855.411,1.931,1.931,0,0,0,.987-.263,2.374,2.374,0,0,0,.839-.938v-5.149h2.55v5.478a.86.86,0,0,0,.115.526.579.579,0,0,0,.428.181v2.139a5.978,5.978,0,0,1-.625.1c-.165.016-.329.016-.461.016-.9,0-1.431-.362-1.563-1.069l-.049-.51a3.58,3.58,0,0,1-1.415,1.217A4.321,4.321,0,0,1,963.7,465.305Z" transform="translate(-814.091 -453.543)" fill="#778495"/>
      <path id="Path_2625" data-name="Path 2625" d="M1027.4,458.318a5.241,5.241,0,0,0-1.662.3,2.139,2.139,0,0,0-1.086.855v5h-2.55V456.13h2.336v1.678a3.5,3.5,0,0,1,1.1-1.316,2.633,2.633,0,0,1,1.431-.494h.247a.614.614,0,0,1,.164.016v2.3Z" transform="translate(-865.056 -452.872)" fill="#778495"/>
    </g>
    <path id="Path_2626" data-name="Path 2626" d="M1199.4,265.135V257.6h23.41v7.535Zm0,14.921v-7.535h23.41v7.535Z" transform="translate(-945.688 -184.559)" fill="#778495"/>
    <g id="Group_4984" data-name="Group 4984" transform="translate(302.054 93.901)" style="isolation: isolate">
      <path id="Path_2627" data-name="Path 2627" d="M1493.25,395.07a7.491,7.491,0,0,1,4.376-6.86,7.332,7.332,0,0,1,3.191-.658,7.164,7.164,0,0,1,3.685.921,5.872,5.872,0,0,1,2.32,2.385l-2.682,1.875a3.016,3.016,0,0,0-.642-.987,3.531,3.531,0,0,0-1.809-.987,4.825,4.825,0,0,0-.954-.1,3.506,3.506,0,0,0-1.744.411,3.784,3.784,0,0,0-1.234,1.036,4.437,4.437,0,0,0-.724,1.448,6.18,6.18,0,0,0-.23,1.629,5.59,5.59,0,0,0,.28,1.727,4.488,4.488,0,0,0,.79,1.464,3.873,3.873,0,0,0,1.25,1,3.619,3.619,0,0,0,1.645.378,4.008,4.008,0,0,0,.971-.115,3.931,3.931,0,0,0,.954-.362,3.164,3.164,0,0,0,.839-.642,3.047,3.047,0,0,0,.609-.971l2.846,1.678a4.3,4.3,0,0,1-1,1.481,5.863,5.863,0,0,1-1.546,1.1,7.974,7.974,0,0,1-1.843.674,8.634,8.634,0,0,1-1.908.23,6.845,6.845,0,0,1-3.011-.674,7.4,7.4,0,0,1-2.352-1.777,8.317,8.317,0,0,1-1.53-2.5A7.45,7.45,0,0,1,1493.25,395.07Z" transform="translate(-1493.25 -387.032)" fill="#778495"/>
      <path id="Path_2628" data-name="Path 2628" d="M1588.537,423.528a3.166,3.166,0,0,1-2.6-1.069,4.916,4.916,0,0,1-.889-3.159v-7.14h3.406v6.4a2.527,2.527,0,0,0,.411,1.563,1.349,1.349,0,0,0,1.152.543,2.563,2.563,0,0,0,1.316-.362,3.009,3.009,0,0,0,1.119-1.25V412.16h3.405V419.5a1.088,1.088,0,0,0,.165.707.811.811,0,0,0,.559.247v2.869a7.482,7.482,0,0,1-.823.132c-.23.016-.428.033-.609.033-1.218,0-1.908-.477-2.089-1.431l-.066-.674a4.641,4.641,0,0,1-1.908,1.629A6.147,6.147,0,0,1,1588.537,423.528Z" transform="translate(-1569.947 -407.593)" fill="#778495"/>
      <path id="Path_2629" data-name="Path 2629" d="M1673.262,401.421a4.461,4.461,0,0,1-2.237-.543,4.051,4.051,0,0,1-1.513-1.514v1.849h-2.961V385.7h3.405v6.186a3.92,3.92,0,0,1,1.481-1.5,4.213,4.213,0,0,1,2.172-.543,4.139,4.139,0,0,1,1.958.461,4.875,4.875,0,0,1,1.53,1.25,6.105,6.105,0,0,1,1,1.859,6.939,6.939,0,0,1,.362,2.287,6.458,6.458,0,0,1-.395,2.27,5.371,5.371,0,0,1-1.1,1.826,4.815,4.815,0,0,1-3.7,1.629Zm-.954-2.879a2.62,2.62,0,0,0,1.086-.23,2.4,2.4,0,0,0,.839-.609,3.346,3.346,0,0,0,.559-.9,3.164,3.164,0,0,0,.2-1.135,3.29,3.29,0,0,0-.2-1.135,2.893,2.893,0,0,0-.526-.938,2.712,2.712,0,0,0-.79-.642,2.3,2.3,0,0,0-1-.23,2.219,2.219,0,0,0-1.481.559,3.649,3.649,0,0,0-1.036,1.382V397a2.761,2.761,0,0,0,.987,1.135A2.577,2.577,0,0,0,1672.308,398.542Z" transform="translate(-1638.04 -385.486)" fill="#778495"/>
      <path id="Path_2630" data-name="Path 2630" d="M1749.35,388.736V385.66h3.406v3.076Zm0,12.437V390.02h3.406V401.18Z" transform="translate(-1707.218 -385.452)" fill="#778495"/>
      <path id="Path_2631" data-name="Path 2631" d="M1780.249,416.668a5.9,5.9,0,0,1,.411-2.2,5.257,5.257,0,0,1,1.168-1.843,5.634,5.634,0,0,1,1.875-1.267,6.5,6.5,0,0,1,2.534-.461,6.138,6.138,0,0,1,3.257.823,5.25,5.25,0,0,1,1.974,2.139l-3.323,1a2.155,2.155,0,0,0-1.941-1.069,2.3,2.3,0,0,0-1.777.79,3.021,3.021,0,0,0-.707,2.106,3.467,3.467,0,0,0,.2,1.2,2.938,2.938,0,0,0,.526.921,2.493,2.493,0,0,0,.79.592,2.327,2.327,0,0,0,2.139-.1,2.024,2.024,0,0,0,.79-.79l3.323,1.02a4.947,4.947,0,0,1-1.958,2.122,6.108,6.108,0,0,1-3.29.823,6.416,6.416,0,0,1-2.517-.477,5.505,5.505,0,0,1-1.892-1.283,5.71,5.71,0,0,1-1.184-1.843A6.286,6.286,0,0,1,1780.249,416.668Z" transform="translate(-1733.034 -406.534)" fill="#778495"/>
      <path id="Path_2632" data-name="Path 2632" d="M1889.65,403.386V388.3h10.258v3.06h-6.761v3.257h5.561v2.83h-5.561V403.4h-3.488Z" transform="translate(-1824.437 -387.658)" fill="#778495"/>
      <path id="Path_2633" data-name="Path 2633" d="M1959.054,422.442a6.416,6.416,0,0,1-2.517-.461,5.667,5.667,0,0,1-1.892-1.25,5.748,5.748,0,0,1-1.185-1.81,5.976,5.976,0,0,1-.411-2.155,6.262,6.262,0,0,1,.411-2.287,5.456,5.456,0,0,1,3.044-3.159,7.2,7.2,0,0,1,5.067,0,5.631,5.631,0,0,1,1.875,1.267,5.359,5.359,0,0,1,1.151,1.843,6.133,6.133,0,0,1,.395,2.188c0,.2,0,.395-.016.592a3.262,3.262,0,0,1-.066.494h-8.242a2.256,2.256,0,0,0,.823,1.711,2.6,2.6,0,0,0,1.661.592,2.983,2.983,0,0,0,1.431-.362,1.81,1.81,0,0,0,.921-.971l2.9.806a5.192,5.192,0,0,1-2.04,2.139A6.4,6.4,0,0,1,1959.054,422.442Zm2.352-6.844a2.517,2.517,0,0,0-.773-1.678,2.481,2.481,0,0,0-3.274.016,2.574,2.574,0,0,0-.757,1.662Z" transform="translate(-1877.406 -406.506)" fill="#778495"/>
      <path id="Path_2634" data-name="Path 2634" d="M2037.053,422.442a6.416,6.416,0,0,1-2.517-.461,5.668,5.668,0,0,1-1.892-1.25,5.745,5.745,0,0,1-1.184-1.81,5.974,5.974,0,0,1-.411-2.155,6.272,6.272,0,0,1,.411-2.287,5.455,5.455,0,0,1,3.044-3.159,7.2,7.2,0,0,1,5.067,0,5.631,5.631,0,0,1,1.875,1.267,5.366,5.366,0,0,1,1.152,1.843,6.136,6.136,0,0,1,.395,2.188c0,.2,0,.395-.016.592a3.326,3.326,0,0,1-.066.494h-8.242a2.255,2.255,0,0,0,.823,1.711,2.6,2.6,0,0,0,1.662.592,2.982,2.982,0,0,0,1.431-.362,1.811,1.811,0,0,0,.922-.971l2.9.806a5.192,5.192,0,0,1-2.04,2.139A6.319,6.319,0,0,1,2037.053,422.442Zm2.369-6.844a2.517,2.517,0,0,0-.773-1.678,2.481,2.481,0,0,0-3.274.016,2.575,2.575,0,0,0-.757,1.662Z" transform="translate(-1942.574 -406.506)" fill="#778495"/>
      <path id="Path_2635" data-name="Path 2635" d="M2116.112,404.659a15.1,15.1,0,0,1-1.612.559,6.877,6.877,0,0,1-1.809.263,4.075,4.075,0,0,1-1.2-.165,2.569,2.569,0,0,1-.987-.51,2.44,2.44,0,0,1-.674-.921,3.453,3.453,0,0,1-.247-1.382V396.68h-1.431v-2.566h1.431V390.56h3.406v3.553h2.27v2.566h-2.27v4.656a.918.918,0,0,0,.987,1.036,2.737,2.737,0,0,0,.79-.132,4.879,4.879,0,0,0,.708-.28Z" transform="translate(-2006.991 -389.546)" fill="#778495"/>
      <path id="Path_2636" data-name="Path 2636" d="M2196.756,422.434a6.443,6.443,0,0,1-2.533-.461,5.63,5.63,0,0,1-1.875-1.267,5.367,5.367,0,0,1-1.151-1.843,6.354,6.354,0,0,1,0-4.409,5.217,5.217,0,0,1,1.152-1.843,5.924,5.924,0,0,1,1.875-1.283,6.214,6.214,0,0,1,2.533-.477,6.441,6.441,0,0,1,2.533.477,5.525,5.525,0,0,1,3.043,3.126,6.229,6.229,0,0,1,.017,4.409,5.214,5.214,0,0,1-1.152,1.843,5.636,5.636,0,0,1-1.875,1.267A7.058,7.058,0,0,1,2196.756,422.434Zm-2.484-5.791a3.093,3.093,0,0,0,.707,2.122,2.287,2.287,0,0,0,1.793.79,2.1,2.1,0,0,0,.971-.214,2.49,2.49,0,0,0,.773-.592,2.937,2.937,0,0,0,.526-.921,3.434,3.434,0,0,0,.2-1.184,3.093,3.093,0,0,0-.708-2.122,2.244,2.244,0,0,0-1.76-.79,2.171,2.171,0,0,0-.987.214,2.553,2.553,0,0,0-.79.592,2.943,2.943,0,0,0-.527.921,3.437,3.437,0,0,0-.205,1.184Z" transform="translate(-2076.045 -406.498)" fill="#778495"/>
      <path id="Path_2637" data-name="Path 2637" d="M2269.581,400.125v-7.666h-1.431v-2.566h1.431v-.921a6.189,6.189,0,0,1,.28-1.892,4.1,4.1,0,0,1,.79-1.448,3.577,3.577,0,0,1,1.234-.921,3.893,3.893,0,0,1,1.6-.313,7.4,7.4,0,0,1,2.912.658l-.609,2.55a4.537,4.537,0,0,0-.757-.247,3.434,3.434,0,0,0-.773-.1c-.839,0-1.25.526-1.25,1.579v1.036h2.6v2.566h-2.616v7.666h-3.405Z" transform="translate(-2140.668 -384.397)" fill="#778495"/>
      <path id="Path_2638" data-name="Path 2638" d="M2353.112,404.659a15.135,15.135,0,0,1-1.612.559,6.879,6.879,0,0,1-1.81.263,4.076,4.076,0,0,1-1.2-.165,2.566,2.566,0,0,1-.987-.51,2.437,2.437,0,0,1-.675-.921,3.453,3.453,0,0,1-.247-1.382V396.68h-1.431v-2.566h1.431V390.56h3.406v3.553h2.27v2.566h-2.27v4.656a.917.917,0,0,0,.987,1.036,2.736,2.736,0,0,0,.79-.132,4.857,4.857,0,0,0,.707-.28Z" transform="translate(-2205.001 -389.546)" fill="#778495"/>
      <path id="Path_2639" data-name="Path 2639" d="M2412.293,401.214h-3.406v-6.268a2.5,2.5,0,0,0-.427-1.6,1.42,1.42,0,0,0-1.168-.51,1.943,1.943,0,0,0-.642.132,2.653,2.653,0,0,0-.674.411,3.653,3.653,0,0,0-.609.625,2.907,2.907,0,0,0-.428.806v6.4h-3.389V385.7h3.406v6.219a4.318,4.318,0,0,1,1.628-1.546,4.624,4.624,0,0,1,2.221-.543,3.6,3.6,0,0,1,1.81.395,2.863,2.863,0,0,1,1.069,1,3.773,3.773,0,0,1,.494,1.366,9.346,9.346,0,0,1,.132,1.481v7.14Z" transform="translate(-2252.123 -385.486)" fill="#778495"/>
      <path id="Path_2640" data-name="Path 2640" d="M2482.554,422.442a6.415,6.415,0,0,1-2.517-.461,5.671,5.671,0,0,1-1.892-1.25,5.748,5.748,0,0,1-1.185-1.81,5.979,5.979,0,0,1-.411-2.155,6.27,6.27,0,0,1,.411-2.287,5.456,5.456,0,0,1,3.043-3.159,7.2,7.2,0,0,1,5.067,0,5.633,5.633,0,0,1,1.875,1.267,5.367,5.367,0,0,1,1.152,1.843,6.139,6.139,0,0,1,.395,2.188c0,.2,0,.395-.017.592a3.263,3.263,0,0,1-.066.494h-8.242a2.256,2.256,0,0,0,.823,1.711,2.6,2.6,0,0,0,1.662.592,2.984,2.984,0,0,0,1.431-.362,1.809,1.809,0,0,0,.921-.971l2.9.806a5.19,5.19,0,0,1-2.04,2.139A6.4,6.4,0,0,1,2482.554,422.442Zm2.353-6.844a2.517,2.517,0,0,0-.773-1.678,2.481,2.481,0,0,0-3.274.016,2.575,2.575,0,0,0-.757,1.662Z" transform="translate(-2314.783 -406.506)" fill="#778495"/>
      <path id="Path_2641" data-name="Path 2641" d="M2583.361,388.16h3.142l5.511,15.086h-3.57l-1.168-3.373h-4.705l-1.151,3.373h-3.57Zm3.323,9.311-1.76-5.33-1.81,5.33Z" transform="translate(-2399.419 -387.541)" fill="#778495"/>
      <path id="Path_2642" data-name="Path 2642" d="M2678.24,414.25a6.448,6.448,0,0,0-2.238.411,2.719,2.719,0,0,0-1.448,1.152v6.7h-3.406V411.361h3.126v2.254a4.61,4.61,0,0,1,1.481-1.76,3.435,3.435,0,0,1,1.925-.658h.345a.934.934,0,0,1,.214.016Z" transform="translate(-2477.37 -406.787)" fill="#778495"/>
      <path id="Path_2643" data-name="Path 2643" d="M2721.5,422.442a6.415,6.415,0,0,1-2.517-.461,5.669,5.669,0,0,1-1.892-1.25,5.743,5.743,0,0,1-1.184-1.81,5.969,5.969,0,0,1-.411-2.155,6.265,6.265,0,0,1,.411-2.287,5.456,5.456,0,0,1,3.043-3.159,7.2,7.2,0,0,1,5.067,0,5.63,5.63,0,0,1,1.875,1.267,5.359,5.359,0,0,1,1.152,1.843,6.139,6.139,0,0,1,.395,2.188c0,.2,0,.395-.016.592a3.294,3.294,0,0,1-.066.494h-8.226a2.255,2.255,0,0,0,.823,1.711,2.6,2.6,0,0,0,1.662.592,2.981,2.981,0,0,0,1.431-.362,1.809,1.809,0,0,0,.921-.971l2.9.806a5.192,5.192,0,0,1-2.04,2.139A6.465,6.465,0,0,1,2721.5,422.442Zm2.369-6.844a2.518,2.518,0,0,0-.773-1.678,2.481,2.481,0,0,0-3.274.016,2.575,2.575,0,0,0-.757,1.662Z" transform="translate(-2514.422 -406.506)" fill="#778495"/>
      <path id="Path_2644" data-name="Path 2644" d="M2797.215,422.356a4.3,4.3,0,0,1-1.546-.263,3.606,3.606,0,0,1-1.218-.74,3.411,3.411,0,0,1-.806-1.119,3.348,3.348,0,0,1-.3-1.415,3.312,3.312,0,0,1,.345-1.514,3.351,3.351,0,0,1,.987-1.168,5.045,5.045,0,0,1,1.514-.773,6.424,6.424,0,0,1,1.941-.28,7.526,7.526,0,0,1,1.365.115,5.031,5.031,0,0,1,1.152.345v-.51c0-1.283-.741-1.941-2.238-1.941a4.813,4.813,0,0,0-1.744.313,7.822,7.822,0,0,0-1.744.921l-1-2.122a9.191,9.191,0,0,1,2.3-1.086,8.424,8.424,0,0,1,2.534-.362,5.859,5.859,0,0,1,3.915,1.184,4.348,4.348,0,0,1,1.382,3.488v2.863a1.088,1.088,0,0,0,.164.707.812.812,0,0,0,.56.247v2.863a5.457,5.457,0,0,1-.806.132c-.247.016-.461.033-.658.033a2.376,2.376,0,0,1-1.448-.378,1.594,1.594,0,0,1-.608-1.053l-.066-.51a5.053,5.053,0,0,1-1.777,1.464A4.618,4.618,0,0,1,2797.215,422.356Zm1-2.451a3,3,0,0,0,1.069-.2,2.414,2.414,0,0,0,.856-.51,1.043,1.043,0,0,0,.493-.806v-1.069a5.559,5.559,0,0,0-.971-.263,5.242,5.242,0,0,0-.97-.1,2.679,2.679,0,0,0-1.546.428,1.284,1.284,0,0,0-.609,1.1,1.24,1.24,0,0,0,.461,1,1.789,1.789,0,0,0,1.226.411Z" transform="translate(-2579.466 -406.42)" fill="#778495"/>
    </g>
    <rect id="Rectangle_1206" data-name="Rectangle 1206" width="236.915" height="2.468" transform="translate(296.255 81.762)" fill="#778495"/>
    <path id="Path_2645" data-name="Path 2645" d="M1576.466,74.7l3.687,11.128L1583.8,74.7h3.82l-5.944,15.678h-3.047l-6-15.675Z" transform="translate(-1257.508 -31.749)" fill="#778495"/>
    <path id="Path_2646" data-name="Path 2646" d="M1664.33,110.206a6.76,6.76,0,0,1-2.632-.485,5.758,5.758,0,0,1-1.955-1.316,5.544,5.544,0,0,1-1.2-1.922,6.58,6.58,0,0,1,0-4.57,5.521,5.521,0,0,1,1.2-1.92,5.884,5.884,0,0,1,1.954-1.326,6.642,6.642,0,0,1,2.632-.494,6.563,6.563,0,0,1,2.632.494,5.9,5.9,0,0,1,1.943,1.326,5.668,5.668,0,0,1,1.214,1.92,6.324,6.324,0,0,1,.42,2.285,6.453,6.453,0,0,1-.408,2.285,5.542,5.542,0,0,1-1.2,1.922,5.758,5.758,0,0,1-1.954,1.316,6.769,6.769,0,0,1-2.644.485Zm-2.583-6a3.2,3.2,0,0,0,.729,2.2,2.359,2.359,0,0,0,1.854.823,2.324,2.324,0,0,0,1.017-.222,2.428,2.428,0,0,0,.806-.617,2.97,2.97,0,0,0,.54-.961,3.64,3.64,0,0,0,.2-1.226,3.2,3.2,0,0,0-.729-2.2,2.333,2.333,0,0,0-1.833-.823,2.4,2.4,0,0,0-1.843.837,2.993,2.993,0,0,0-.541.961A3.675,3.675,0,0,0,1661.747,104.2Z" transform="translate(-1328.951 -51.359)" fill="#778495"/>
    <path id="Path_2647" data-name="Path 2647" d="M1743.826,72h3.532V83.988q0,1.316,1.125,1.324a2.541,2.541,0,0,0,.586-.077,2.125,2.125,0,0,0,.584-.232l.464,2.649a6.746,6.746,0,0,1-1.523.494,7.991,7.991,0,0,1-1.611.178,3.219,3.219,0,0,1-2.341-.795,3.091,3.091,0,0,1-.823-2.3Z" transform="translate(-1400.543 -29.493)" fill="#778495"/>
    <path id="Path_2648" data-name="Path 2648" d="M1792.031,111.34a3.3,3.3,0,0,1-2.7-1.114,5.059,5.059,0,0,1-.916-3.279V99.53h3.532v6.645a2.68,2.68,0,0,0,.419,1.622,1.4,1.4,0,0,0,1.193.564,2.733,2.733,0,0,0,1.369-.377,3.24,3.24,0,0,0,1.17-1.3V99.53h3.532v7.615a1.248,1.248,0,0,0,.165.74.823.823,0,0,0,.586.253v2.984a7.215,7.215,0,0,1-.862.143c-.235.023-.449.033-.64.033q-1.9,0-2.163-1.481l-.066-.706a4.83,4.83,0,0,1-1.974,1.688A6.252,6.252,0,0,1,1792.031,111.34Z" transform="translate(-1437.798 -52.494)" fill="#778495"/>
    <path id="Path_2649" data-name="Path 2649" d="M1891.528,109.988H1888v-6.516a2.641,2.641,0,0,0-.42-1.667,1.329,1.329,0,0,0-1.082-.518,1.819,1.819,0,0,0-.717.155,2.424,2.424,0,0,0-.673.429,3.466,3.466,0,0,0-.564.658,3.553,3.553,0,0,0-.408.823v6.636H1880.6v-6.516a2.64,2.64,0,0,0-.42-1.667,1.329,1.329,0,0,0-1.083-.518,2.139,2.139,0,0,0-1.379.563,3.226,3.226,0,0,0-.987,1.49v6.648H1873.2V98.395h3.18v1.943a4.193,4.193,0,0,1,1.732-1.612,5.582,5.582,0,0,1,2.55-.553,4.073,4.073,0,0,1,1.27.178,3.084,3.084,0,0,1,.938.485,2.563,2.563,0,0,1,.64.717,3.1,3.1,0,0,1,.354.872,4.578,4.578,0,0,1,1.744-1.667,5.123,5.123,0,0,1,2.468-.586,3.391,3.391,0,0,1,1.778.41,2.952,2.952,0,0,1,1.048,1.059,4.1,4.1,0,0,1,.494,1.423,9.733,9.733,0,0,1,.122,1.5Z" transform="translate(-1508.639 -51.359)" fill="#778495"/>
    <path id="Path_2650" data-name="Path 2650" d="M2000.764,110.216a6.862,6.862,0,0,1-2.615-.474,5.791,5.791,0,0,1-1.964-1.291,5.529,5.529,0,0,1-1.226-1.889,6.082,6.082,0,0,1-.419-2.241,6.688,6.688,0,0,1,.419-2.374,5.755,5.755,0,0,1,1.214-1.953,5.646,5.646,0,0,1,1.955-1.316,6.759,6.759,0,0,1,2.632-.494,6.682,6.682,0,0,1,2.632.494,5.761,5.761,0,0,1,1.943,1.316,5.592,5.592,0,0,1,1.2,1.91,6.4,6.4,0,0,1,.408,2.274c0,.207-.008.408-.021.607a4.281,4.281,0,0,1-.068.52h-8.566a2.384,2.384,0,0,0,.85,1.777,2.707,2.707,0,0,0,1.733.607,3.169,3.169,0,0,0,1.49-.375,1.919,1.919,0,0,0,.961-1.015l3,.837a5.4,5.4,0,0,1-2.119,2.231A6.634,6.634,0,0,1,2000.764,110.216Zm2.451-7.109a2.657,2.657,0,0,0-.795-1.744,2.39,2.39,0,0,0-1.7-.64,2.362,2.362,0,0,0-1.712.658,2.7,2.7,0,0,0-.783,1.732Z" transform="translate(-1610.016 -51.37)" fill="#778495"/>
    <path id="Path_2651" data-name="Path 2651" d="M2113.089,110.206a6.758,6.758,0,0,1-2.632-.485,5.757,5.757,0,0,1-1.955-1.316,5.564,5.564,0,0,1-1.2-1.922,6.6,6.6,0,0,1,0-4.57,5.552,5.552,0,0,1,1.2-1.92,5.882,5.882,0,0,1,1.955-1.326,6.641,6.641,0,0,1,2.632-.494,6.573,6.573,0,0,1,2.632.494,5.926,5.926,0,0,1,1.943,1.326,5.674,5.674,0,0,1,1.214,1.92,6.319,6.319,0,0,1,.42,2.285,6.5,6.5,0,0,1-.408,2.285,5.569,5.569,0,0,1-1.2,1.922,5.773,5.773,0,0,1-1.954,1.316A6.776,6.776,0,0,1,2113.089,110.206Zm-2.583-6a3.2,3.2,0,0,0,.729,2.2,2.359,2.359,0,0,0,1.854.823,2.324,2.324,0,0,0,1.017-.222,2.436,2.436,0,0,0,.8-.617,2.948,2.948,0,0,0,.542-.961,3.646,3.646,0,0,0,.2-1.226,3.2,3.2,0,0,0-.729-2.2,2.337,2.337,0,0,0-1.833-.823,2.4,2.4,0,0,0-1.843.837,2.956,2.956,0,0,0-.541.961A3.644,3.644,0,0,0,2110.506,104.2Z" transform="translate(-1703.884 -51.359)" fill="#778495"/>
    <path id="Path_2652" data-name="Path 2652" d="M2188.851,86.984V79.01h-1.481V76.34h1.481v-.949a6.307,6.307,0,0,1,.288-1.974,4.326,4.326,0,0,1,.823-1.5,3.547,3.547,0,0,1,1.28-.949,4.04,4.04,0,0,1,1.657-.329,7.773,7.773,0,0,1,3.024.684l-.64,2.65a4.509,4.509,0,0,0-.783-.255,3.616,3.616,0,0,0-.806-.1q-1.3,0-1.3,1.634v1.083h2.693V79h-2.693v7.979Z" transform="translate(-1771.124 -28.354)" fill="#778495"/>
    <path id="Path_2653" data-name="Path 2653" d="M2266.368,74.7h3.267l5.714,15.678h-3.71l-1.214-3.511h-4.879l-1.186,3.511h-3.71Zm3.466,9.67L2268,78.828l-1.877,5.542Z" transform="translate(-1832.348 -31.749)" fill="#778495"/>
    <path id="Path_2654" data-name="Path 2654" d="M2357.68,75.2V72h3.532v3.2Zm0,12.916V76.529h3.532V88.122Z" transform="translate(-1913.416 -29.493)" fill="#778495"/>
    <path id="Path_2655" data-name="Path 2655" d="M2401.262,101.651a6.769,6.769,0,0,0-2.318.42,2.826,2.826,0,0,0-1.5,1.193v6.957h-3.532V98.628h3.246v2.339a4.925,4.925,0,0,1,1.533-1.833,3.551,3.551,0,0,1,2-.684h.354a1.131,1.131,0,0,1,.221.023Z" transform="translate(-1943.685 -51.591)" fill="#778495"/>
    <path id="Path_2656" data-name="Path 2656" d="M2477.38,90.378V74.7h10.643v3.175H2481v3.379h5.784v2.938H2481v6.186Z" transform="translate(-2013.423 -31.749)" fill="#778495"/>
    <path id="Path_2657" data-name="Path 2657" d="M2551.7,72h3.532V83.988q0,1.316,1.125,1.324a2.536,2.536,0,0,0,.585-.077,2.14,2.14,0,0,0,.586-.232l.462,2.649a6.744,6.744,0,0,1-1.523.494,7.991,7.991,0,0,1-1.61.178,3.22,3.22,0,0,1-2.341-.795,3.091,3.091,0,0,1-.823-2.3Z" transform="translate(-2075.508 -29.493)" fill="#778495"/>
    <path id="Path_2658" data-name="Path 2658" d="M2599.027,110.206a6.768,6.768,0,0,1-2.632-.485,5.755,5.755,0,0,1-1.953-1.316,5.561,5.561,0,0,1-1.2-1.922,6.6,6.6,0,0,1,0-4.57,5.549,5.549,0,0,1,1.2-1.92,5.9,5.9,0,0,1,1.953-1.326,6.649,6.649,0,0,1,2.632-.494,6.572,6.572,0,0,1,2.632.494,5.928,5.928,0,0,1,1.943,1.326,5.674,5.674,0,0,1,1.214,1.92,6.313,6.313,0,0,1,.419,2.285,6.49,6.49,0,0,1-.408,2.285,5.568,5.568,0,0,1-1.2,1.921,5.757,5.757,0,0,1-1.953,1.316A6.774,6.774,0,0,1,2599.027,110.206Zm-2.583-6a3.2,3.2,0,0,0,.729,2.2,2.359,2.359,0,0,0,1.854.823,2.316,2.316,0,0,0,1.015-.222,2.426,2.426,0,0,0,.806-.617,2.978,2.978,0,0,0,.541-.961,3.64,3.64,0,0,0,.2-1.226,3.2,3.2,0,0,0-.729-2.2,2.336,2.336,0,0,0-1.833-.823,2.4,2.4,0,0,0-1.844.837,2.984,2.984,0,0,0-.54.961A3.637,3.637,0,0,0,2596.444,104.2Z" transform="translate(-2109.88 -51.359)" fill="#778495"/>
    <path id="Path_2659" data-name="Path 2659" d="M2683.894,99.53h3.356l-4.791,11.593h-2.892l-1.788-4.771-1.8,4.771h-2.892l-4.791-11.59h3.335l3.157,8.323,1.081-3.157-2.053-5.166h2.826l1.127,3.488,1.1-3.488h2.827l-2.03,5.166,1.081,3.157Z" transform="translate(-2172.934 -52.494)" fill="#778495"/>
    <path id="Path_2660" data-name="Path 2660" d="M1706.25,206.356a6.352,6.352,0,0,1,.164-1.4,9.43,9.43,0,0,1,.443-1.4,15.166,15.166,0,0,1,.658-1.418q.375-.712.8-1.448l1.412.6a9.969,9.969,0,0,0-.518.906,12.965,12.965,0,0,0-1.031,2.741,6,6,0,0,0-.194,1.481,6.312,6.312,0,0,0,.477,2.326,18.772,18.772,0,0,0,1.226,2.491l-1.356.679q-.429-.637-.811-1.316a11.594,11.594,0,0,1-.658-1.39,10.444,10.444,0,0,1-.444-1.413A6.175,6.175,0,0,1,1706.25,206.356Z" transform="translate(-1369.154 -137.003)" fill="#778495"/>
    <path id="Path_2661" data-name="Path 2661" d="M1734.61,204.834V203h1.854v1.843Zm0,8.263v-7.253h1.854V213.1Z" transform="translate(-1392.848 -138.941)" fill="#778495"/>
    <path id="Path_2662" data-name="Path 2662" d="M1762.787,226.9h-1.854v-4.07a2.126,2.126,0,0,0-.3-1.273,1,1,0,0,0-.846-.4,1.586,1.586,0,0,0-.568.11,2.109,2.109,0,0,0-.541.308,2.563,2.563,0,0,0-.464.479,1.87,1.87,0,0,0-.3.609V226.9h-1.856v-7.25h1.676v1.342a2.746,2.746,0,0,1,1.161-1.079,3.738,3.738,0,0,1,1.718-.388,2.188,2.188,0,0,1,1.107.25,1.811,1.811,0,0,1,.658.65,2.723,2.723,0,0,1,.329.913,5.919,5.919,0,0,1,.091,1.038Z" transform="translate(-1410.762 -152.743)" fill="#778495"/>
    <path id="Path_2663" data-name="Path 2663" d="M1824.55,209.193a5.1,5.1,0,0,1,.329-1.78,4.771,4.771,0,0,1,2.468-2.691,4.7,4.7,0,0,1,2.048-.429,4.468,4.468,0,0,1,2.346.6,3.8,3.8,0,0,1,1.481,1.55l-1.466,1.01a2.532,2.532,0,0,0-.47-.7,2.371,2.371,0,0,0-.6-.451,2.71,2.71,0,0,0-.658-.242,3.137,3.137,0,0,0-.678-.076,2.575,2.575,0,0,0-1.254.29,2.755,2.755,0,0,0-.885.755,3.3,3.3,0,0,0-.533,1.051,3.989,3.989,0,0,0-.181,1.17,3.819,3.819,0,0,0,.207,1.254,3.392,3.392,0,0,0,.589,1.059,2.928,2.928,0,0,0,.913.732,2.484,2.484,0,0,0,1.17.278,3.047,3.047,0,0,0,.693-.084,2.585,2.585,0,0,0,1.288-.727,2.142,2.142,0,0,0,.443-.684l1.565.9a2.992,2.992,0,0,1-.671.976,4.276,4.276,0,0,1-.987.712,5.025,5.025,0,0,1-1.17.444,5.172,5.172,0,0,1-1.218.151,4.173,4.173,0,0,1-1.925-.443,5,5,0,0,1-1.5-1.152,5.356,5.356,0,0,1-.987-1.619A5.054,5.054,0,0,1,1824.55,209.193Z" transform="translate(-1467.992 -140.02)" fill="#778495"/>
    <path id="Path_2664" data-name="Path 2664" d="M1886.663,227.682a2.061,2.061,0,0,1-1.7-.721,3.326,3.326,0,0,1-.581-2.13V220.29h1.854v4.139q0,1.673,1.2,1.675a1.9,1.9,0,0,0,1.045-.329,2.332,2.332,0,0,0,.823-.987v-4.5h1.854v5.121a.647.647,0,0,0,.105.415.452.452,0,0,0,.339.14v1.578a4.247,4.247,0,0,1-.464.069c-.125.008-.239.013-.339.013a1.33,1.33,0,0,1-.809-.229.891.891,0,0,1-.367-.628l-.043-.582a3.1,3.1,0,0,1-1.245,1.122A3.761,3.761,0,0,1,1886.663,227.682Z" transform="translate(-1517.979 -153.387)" fill="#778495"/>
    <path id="Path_2665" data-name="Path 2665" d="M1940.925,213.236a2.919,2.919,0,0,1-1.481-.373,2.726,2.726,0,0,1-1.025-1.025v1.26H1936.8V203h1.854v4.113a2.807,2.807,0,0,1,1.017-1.031,2.875,2.875,0,0,1,1.48-.367,2.74,2.74,0,0,1,1.287.3,3.235,3.235,0,0,1,1,.823,3.689,3.689,0,0,1,.658,1.2,4.636,4.636,0,0,1,.227,1.453,4.153,4.153,0,0,1-.255,1.467,3.654,3.654,0,0,1-.714,1.183,3.336,3.336,0,0,1-1.079.8A3.124,3.124,0,0,1,1940.925,213.236Zm-.512-1.578a1.9,1.9,0,0,0,.823-.174,1.947,1.947,0,0,0,.637-.462,2.091,2.091,0,0,0,.408-.679,2.333,2.333,0,0,0,.146-.823,2.577,2.577,0,0,0-.138-.846,2.281,2.281,0,0,0-.395-.706,1.988,1.988,0,0,0-.6-.484,1.631,1.631,0,0,0-.762-.181,1.7,1.7,0,0,0-1.114.408,2.716,2.716,0,0,0-.755,1v1.731a1.573,1.573,0,0,0,.283.494,2.055,2.055,0,0,0,.423.38,1.977,1.977,0,0,0,.512.25A1.727,1.727,0,0,0,1940.413,211.658Z" transform="translate(-1561.776 -138.941)" fill="#778495"/>
    <path id="Path_2666" data-name="Path 2666" d="M1990.14,204.834V203h1.854v1.843Zm0,8.263v-7.253h1.854V213.1Z" transform="translate(-1606.34 -138.941)" fill="#778495"/>
    <path id="Path_2667" data-name="Path 2667" d="M2008.819,223.247a3.942,3.942,0,0,1,.263-1.44,3.473,3.473,0,0,1,.76-1.189,3.713,3.713,0,0,1,1.2-.823,4,4,0,0,1,1.593-.3,3.83,3.83,0,0,1,2.028.512,3.274,3.274,0,0,1,1.252,1.344l-1.81.553a1.635,1.635,0,0,0-.623-.615,1.742,1.742,0,0,0-.857-.216,1.782,1.782,0,0,0-.749.165,1.858,1.858,0,0,0-.6.443,2.05,2.05,0,0,0-.4.686,2.581,2.581,0,0,0-.145.885,2.512,2.512,0,0,0,.151.887,2.211,2.211,0,0,0,.41.691,1.758,1.758,0,0,0,.6.451,1.722,1.722,0,0,0,.734.165,1.775,1.775,0,0,0,.92-.25,1.4,1.4,0,0,0,.589-.609l1.81.554a3.045,3.045,0,0,1-1.232,1.356,3.878,3.878,0,0,1-2.063.526,3.989,3.989,0,0,1-1.591-.3,3.61,3.61,0,0,1-1.974-2.028A3.891,3.891,0,0,1,2008.819,223.247Z" transform="translate(-1621.947 -152.719)" fill="#778495"/>
    <path id="Path_2668" data-name="Path 2668" d="M2080.34,214.468V204.64h6.6v1.675h-4.684v2.534h3.9v1.55h-3.9v4.07Z" transform="translate(-1681.701 -140.312)" fill="#778495"/>
    <path id="Path_2669" data-name="Path 2669" d="M2125.711,227.052a4.013,4.013,0,0,1-1.578-.3,3.556,3.556,0,0,1-1.974-2,3.836,3.836,0,0,1-.27-1.425,4.024,4.024,0,0,1,.263-1.461,3.538,3.538,0,0,1,.762-1.2,3.636,3.636,0,0,1,1.211-.823,4.045,4.045,0,0,1,1.6-.3,3.939,3.939,0,0,1,1.584.3,3.654,3.654,0,0,1,1.191.823,3.457,3.457,0,0,1,.747,1.189,3.95,3.95,0,0,1,.257,1.412v.347a1.443,1.443,0,0,1-.034.276h-5.607a2.178,2.178,0,0,0,.207.762,1.869,1.869,0,0,0,1.025.928,1.963,1.963,0,0,0,.691.123,2.13,2.13,0,0,0,1.047-.27,1.422,1.422,0,0,0,.669-.719l1.591.443a3.227,3.227,0,0,1-1.28,1.364A3.966,3.966,0,0,1,2125.711,227.052Zm1.884-4.374a1.883,1.883,0,0,0-2.6-1.668,1.824,1.824,0,0,0-.574.367,1.891,1.891,0,0,0-.408.568,1.974,1.974,0,0,0-.187.734Z" transform="translate(-1716.416 -152.758)" fill="#778495"/>
    <path id="Path_2670" data-name="Path 2670" d="M2176.111,227.052a4.012,4.012,0,0,1-1.578-.3,3.554,3.554,0,0,1-1.974-2,3.836,3.836,0,0,1-.27-1.425,4.019,4.019,0,0,1,.263-1.461,3.542,3.542,0,0,1,.762-1.2,3.635,3.635,0,0,1,1.211-.823,4.045,4.045,0,0,1,1.6-.3,3.939,3.939,0,0,1,1.584.3,3.652,3.652,0,0,1,1.191.823,3.465,3.465,0,0,1,.747,1.189,3.955,3.955,0,0,1,.257,1.412v.347a1.444,1.444,0,0,1-.035.276h-5.606a2.168,2.168,0,0,0,.207.762,1.868,1.868,0,0,0,1.025.928,1.975,1.975,0,0,0,.691.123,2.129,2.129,0,0,0,1.046-.27,1.424,1.424,0,0,0,.671-.712l1.591.443a3.225,3.225,0,0,1-1.28,1.364A3.967,3.967,0,0,1,2176.111,227.052Zm1.889-4.374a1.883,1.883,0,0,0-2.6-1.668,1.823,1.823,0,0,0-.574.367,1.887,1.887,0,0,0-.408.568,1.978,1.978,0,0,0-.187.734Z" transform="translate(-1758.524 -152.758)" fill="#778495"/>
    <path id="Path_2671" data-name="Path 2671" d="M2226.746,215.231a8.5,8.5,0,0,1-.913.329,3.861,3.861,0,0,1-1.135.165,2.663,2.663,0,0,1-.727-.1,1.628,1.628,0,0,1-.6-.313,1.543,1.543,0,0,1-.408-.553,2,2,0,0,1-.151-.823v-4.157h-.956v-1.425h.956V206h1.854v2.354h1.523v1.43h-1.523v3.544a.658.658,0,0,0,.2.548.772.772,0,0,0,.493.165,1.728,1.728,0,0,0,.568-.1c.184-.066.329-.12.442-.165Z" transform="translate(-1799.94 -141.448)" fill="#778495"/>
    <path id="Path_2672" data-name="Path 2672" d="M2278.74,214.467v-9.828h4.166a2.8,2.8,0,0,1,1.254.283,3.246,3.246,0,0,1,.987.749,3.532,3.532,0,0,1,.658,1.051,3.17,3.17,0,0,1,.235,1.183,3.454,3.454,0,0,1-.844,2.257,3.063,3.063,0,0,1-.969.734,2.812,2.812,0,0,1-1.247.276h-2.324v3.29Zm1.91-4.97h2.214a1.093,1.093,0,0,0,.878-.429,1.774,1.774,0,0,0,.354-1.163,1.916,1.916,0,0,0-.11-.671,1.656,1.656,0,0,0-.291-.505,1.166,1.166,0,0,0-.423-.311,1.231,1.231,0,0,0-.493-.1h-2.139Z" transform="translate(-1847.462 -140.311)" fill="#778495"/>
    <path id="Path_2673" data-name="Path 2673" d="M2330.349,227.052a4.015,4.015,0,0,1-1.578-.3,3.644,3.644,0,0,1-1.2-.809,3.593,3.593,0,0,1-.769-1.191,3.836,3.836,0,0,1-.27-1.425,4.014,4.014,0,0,1,.263-1.461,3.553,3.553,0,0,1,.76-1.2,3.637,3.637,0,0,1,1.213-.823,4.044,4.044,0,0,1,1.6-.3,3.947,3.947,0,0,1,1.584.3,3.674,3.674,0,0,1,1.191.823,3.461,3.461,0,0,1,.747,1.189,3.966,3.966,0,0,1,.257,1.412c0,.12,0,.235,0,.347a1.227,1.227,0,0,1-.035.276h-5.6a2.189,2.189,0,0,0,.207.762,1.873,1.873,0,0,0,1.023.928,1.975,1.975,0,0,0,.693.123,2.138,2.138,0,0,0,1.046-.27,1.422,1.422,0,0,0,.671-.712l1.591.443a3.238,3.238,0,0,1-1.28,1.364,3.965,3.965,0,0,1-2.106.526Zm1.882-4.374a1.925,1.925,0,0,0-.6-1.308,1.887,1.887,0,0,0-2.566,0,1.929,1.929,0,0,0-.41.568,2.013,2.013,0,0,0-.186.734Z" transform="translate(-1887.389 -152.758)" fill="#778495"/>
    <path id="Path_2674" data-name="Path 2674" d="M2384.069,221.4a3.647,3.647,0,0,0-1.509.329,1.911,1.911,0,0,0-.956.934v4.389h-1.854V219.8h1.7v1.55a3.434,3.434,0,0,1,.457-.671,3.574,3.574,0,0,1,.568-.518,2.617,2.617,0,0,1,.617-.341,1.723,1.723,0,0,1,.6-.117h.227a.841.841,0,0,1,.146.013Z" transform="translate(-1931.855 -152.894)" fill="#778495"/>
    <path id="Path_2675" data-name="Path 2675" d="M2439.8,204.64v9.828h-1.9v-4.2h-4.457v4.2h-1.91V204.64h1.91v3.973h4.457V204.64Z" transform="translate(-1975.125 -140.312)" fill="#778495"/>
    <path id="Path_2676" data-name="Path 2676" d="M2493.566,227.061a4,4,0,0,1-1.593-.3,3.567,3.567,0,0,1-1.2-.823,3.647,3.647,0,0,1-.755-1.2,3.889,3.889,0,0,1-.263-1.425,3.931,3.931,0,0,1,.263-1.439,3.647,3.647,0,0,1,.755-1.2,3.569,3.569,0,0,1,1.2-.823,4,4,0,0,1,1.593-.3,3.949,3.949,0,0,1,1.586.3,3.588,3.588,0,0,1,1.189.823,3.643,3.643,0,0,1,.755,1.2,3.968,3.968,0,0,1,.263,1.439,3.915,3.915,0,0,1-.263,1.425,3.687,3.687,0,0,1-.749,1.2,3.492,3.492,0,0,1-1.19.823,4,4,0,0,1-1.593.3Zm-1.9-3.751a2.527,2.527,0,0,0,.146.878,2.121,2.121,0,0,0,.4.684,1.788,1.788,0,0,0,2.7,0,2.082,2.082,0,0,0,.4-.691,2.586,2.586,0,0,0,.146-.887,2.543,2.543,0,0,0-.146-.872,2.12,2.12,0,0,0-.4-.693,1.8,1.8,0,0,0-.6-.449,1.772,1.772,0,0,0-.747-.165,1.707,1.707,0,0,0-.747.165,1.863,1.863,0,0,0-.6.457,2.133,2.133,0,0,0-.4.693A2.545,2.545,0,0,0,2491.669,223.31Z" transform="translate(-2023.766 -152.766)" fill="#778495"/>
    <path id="Path_2677" data-name="Path 2677" d="M2545.4,227.682a2.061,2.061,0,0,1-1.7-.721,3.326,3.326,0,0,1-.581-2.13V220.29h1.854v4.139q0,1.673,1.2,1.675a1.9,1.9,0,0,0,1.045-.329,2.327,2.327,0,0,0,.823-.987v-4.5h1.854v5.121a.646.646,0,0,0,.105.415.452.452,0,0,0,.339.14v1.578a4.19,4.19,0,0,1-.464.069c-.125.008-.238.013-.339.013a1.33,1.33,0,0,1-.81-.229.89.89,0,0,1-.367-.628l-.043-.582a3.1,3.1,0,0,1-1.245,1.122A3.76,3.76,0,0,1,2545.4,227.682Z" transform="translate(-2068.348 -153.387)" fill="#778495"/>
    <path id="Path_2678" data-name="Path 2678" d="M2599.848,221.4a3.645,3.645,0,0,0-1.509.329,1.912,1.912,0,0,0-.956.934v4.389h-1.854V219.8h1.7v1.55a3.347,3.347,0,0,1,.456-.671,3.562,3.562,0,0,1,.567-.518,2.612,2.612,0,0,1,.617-.341,1.719,1.719,0,0,1,.6-.117h.227a.835.835,0,0,1,.146.013Z" transform="translate(-2112.136 -152.894)" fill="#778495"/>
    <path id="Path_2679" data-name="Path 2679" d="M2628.453,206.289a6.08,6.08,0,0,1-.164,1.412,10.473,10.473,0,0,1-.442,1.413,11.37,11.37,0,0,1-.658,1.39q-.38.686-.809,1.316l-1.355-.679a17.311,17.311,0,0,0,1.232-2.491,6.4,6.4,0,0,0,.471-2.326,6.1,6.1,0,0,0-.194-1.481,12.979,12.979,0,0,0-1.031-2.741,10.02,10.02,0,0,0-.52-.906l1.426-.6q.43.735.8,1.448a14.484,14.484,0,0,1,.658,1.418,9.982,9.982,0,0,1,.436,1.4A6.338,6.338,0,0,1,2628.453,206.289Z" transform="translate(-2136.742 -136.936)" fill="#778495"/>
  </g>
</svg>
