<svg xmlns="http://www.w3.org/2000/svg" width="169.508" height="169.507" viewBox="0 0 169.508 169.507"><g transform="translate(-225.347 -3.643)"><path d="M229.556,6.726a81.989,81.989,0,0,1,16.4,1.654,80.947,80.947,0,0,1,29.1,12.247A81.627,81.627,0,0,1,304.55,56.435a80.981,80.981,0,0,1,4.743,15.278,82.182,82.182,0,0,1,0,32.806,80.946,80.946,0,0,1-12.247,29.1,81.627,81.627,0,0,1-35.809,29.488,80.98,80.98,0,0,1-15.278,4.743,82.182,82.182,0,0,1-32.805,0,80.949,80.949,0,0,1-29.1-12.247A81.627,81.627,0,0,1,154.561,119.8a80.978,80.978,0,0,1-4.743-15.278,82.181,82.181,0,0,1,0-32.806,80.944,80.944,0,0,1,12.247-29.1,81.627,81.627,0,0,1,35.81-29.488A80.984,80.984,0,0,1,213.153,8.38,81.993,81.993,0,0,1,229.556,6.726Zm0,162.217a80.827,80.827,0,1,0-80.829-80.827A80.919,80.919,0,0,0,229.556,168.943Z" transform="translate(77.183 3.644)" fill="#233757"/><path d="M270.219,143.662l-10.875-8.84A74.106,74.106,0,0,0,201.81,14.015V0a88.121,88.121,0,0,1,68.409,143.662Z" transform="translate(104.929 3.643)" fill="#778495"/><text transform="translate(270.264 105.364)" fill="#778495" font-size="45" font-family="'Raleway', sans-serif" font-weight="500"><tspan x="0" y="0">36%</tspan></text></g></svg>