<svg xmlns="http://www.w3.org/2000/svg" width="175.755" height="175.755" viewBox="0 0 175.755 175.755"><g transform="translate(-455.128 -4.121)"><path d="M80.87-.282A81.748,81.748,0,0,1,97.224,1.367a80.708,80.708,0,0,1,29.018,12.211,81.387,81.387,0,0,1,29.4,35.7,80.747,80.747,0,0,1,4.729,15.233,81.939,81.939,0,0,1,0,32.709,80.708,80.708,0,0,1-12.211,29.018,81.387,81.387,0,0,1-35.7,29.4,80.747,80.747,0,0,1-15.233,4.729,81.939,81.939,0,0,1-32.709,0A80.708,80.708,0,0,1,35.5,148.162a81.387,81.387,0,0,1-29.4-35.7A80.745,80.745,0,0,1,1.367,97.224a81.939,81.939,0,0,1,0-32.709A80.708,80.708,0,0,1,13.578,35.5a81.387,81.387,0,0,1,35.7-29.4A80.745,80.745,0,0,1,64.515,1.367,81.748,81.748,0,0,1,80.87-.282Zm0,161.74A80.588,80.588,0,1,0,.281,80.87,80.68,80.68,0,0,0,80.87,161.458Z" transform="translate(461.013 11.129)" fill="#233757"/><path d="M384.919,176.069A87.888,87.888,0,0,1,341.566,11.735L348.49,23.92a73.887,73.887,0,1,0,36.429-9.591V.314a87.877,87.877,0,0,1,0,175.755Z" transform="translate(158.087 3.807)" fill="#778495"/><text transform="translate(507.387 102.387)" fill="#778495" font-size="45" font-family="'Raleway', sans-serif" font-weight="500"><tspan x="0" y="0">91%</tspan></text></g></svg>