<svg xmlns="http://www.w3.org/2000/svg" width="169.507" height="176.234" viewBox="0 0 169.507 176.234"><g transform="translate(-370.382 -1676.643)"><path d="M81.391,6.726a81.989,81.989,0,0,1,16.4,1.654,80.947,80.947,0,0,1,29.1,12.247,81.626,81.626,0,0,1,29.488,35.809,80.981,80.981,0,0,1,4.743,15.278,82.181,82.181,0,0,1,0,32.806,80.946,80.946,0,0,1-12.247,29.1,81.627,81.627,0,0,1-35.809,29.488,80.981,80.981,0,0,1-15.278,4.743,82.182,82.182,0,0,1-32.805,0,80.949,80.949,0,0,1-29.1-12.247A81.626,81.626,0,0,1,6.4,119.8a80.983,80.983,0,0,1-4.743-15.278,82.181,82.181,0,0,1,0-32.806A80.945,80.945,0,0,1,13.9,42.61,81.627,81.627,0,0,1,49.71,13.123,80.984,80.984,0,0,1,64.988,8.38,81.993,81.993,0,0,1,81.391,6.726Zm0,162.217A80.827,80.827,0,1,0,.563,88.116,80.919,80.919,0,0,0,81.391,168.943Z" transform="translate(370.382 1676.644)" fill="#233757"/><path d="M69.158,176.233a87.683,87.683,0,0,1-49.272-15.054l7.846-11.613A74.1,74.1,0,1,0,69.158,14.015V0a88.117,88.117,0,0,1,0,176.234Z" transform="translate(382.615 1676.643)" fill="#778495"/><text transform="translate(412.273 1781.171)" fill="#778495" font-size="45" font-family="'Raleway', sans-serif" font-weight="500"><tspan x="0" y="0">60%</tspan></text></g></svg>