<svg xmlns="http://www.w3.org/2000/svg" xmlns:xlink="http://www.w3.org/1999/xlink" width="54.642" height="89.567" viewBox="0 0 54.642 89.567"><defs><clipPath id="a"><rect width="54.642" height="89.567" fill="#4496d8"/></clipPath></defs><g clip-path="url(#a)"><path d="M12.576,69.506c-.147-.544-.279-1-.391-1.452a3.374,3.374,0,0,1,2.292-4.441q4.89-1.842,9.818-3.582c2.18-.769,3.694-.064,4.668,2.064.17.371.35.737.589,1.24.679-.213,1.3-.386,1.907-.6,2.6-.934,5.187-1.907,7.8-2.817,2.569-.9,4.157-.149,5.139,2.361.393,1.007.784,2.016,1.133,3.039.453,1.327.3,1.72-.978,2.221-1.789.7-3.61,1.319-5.415,1.978q-13.71,5-27.42,10.01a2.9,2.9,0,0,0-1.237.731c3.9,0,7.8.028,11.7-.029a4.582,4.582,0,0,0,1.845-.627c3.653-1.832,7.286-3.7,10.933-5.545,2.355-1.189,3.478-.98,5.254.926,1.312,1.409,2.648,2.8,3.921,4.24a2.871,2.871,0,0,0,2.335,1.071c1.814.005,2.115.341,1.871,2.179-.617,4.643-1.308,9.276-1.976,13.912q-1.362,9.451-2.734,18.9c-.378,2.615-.719,5.237-1.135,7.846a5.04,5.04,0,0,1-5.248,4.476q-12.183.034-24.366,0a4.806,4.806,0,0,1-5.123-4.337c-.773-4.8-1.439-9.621-2.14-14.435q-1.35-9.27-2.685-18.543c-.232-1.6-.492-3.207-.675-4.818A28.513,28.513,0,0,0,.362,78.175c-.906-2.3-.092-4,2.212-4.893,2.689-1.039,5.412-1.989,8.115-2.989.609-.225,1.2-.5,1.886-.787M4.258,82.846c.31,2.264.586,4.385.892,6.5Q6.516,98.787,7.9,108.226c.7,4.808,1.4,9.618,2.134,14.421.274,1.792,1.144,2.629,2.845,2.635q12.171.047,24.342,0a2.773,2.773,0,0,0,2.975-2.557c.154-.825.25-1.661.37-2.493q2.346-16.21,4.685-32.421c.235-1.634.408-3.278.615-4.967Zm-.675-2.872,39.531-14.4c-.376-1.015-.7-1.846-.993-2.69A1.308,1.308,0,0,0,40.268,62c-.345.1-.679.24-1.018.363q-12.769,4.656-25.538,9.313c-3.27,1.193-6.542,2.378-9.805,3.59-1.6.595-1.74.927-1.164,2.564.233.664.512,1.312.84,2.144M15.012,68.709,27.121,64.3c-.531-2.17-.863-2.463-2.428-1.915-3.108,1.09-6.183,2.271-9.286,3.373a1.258,1.258,0,0,0-.909,1.8c.111.336.288.65.514,1.147M41.82,80.194c-1.423-1.542-2.519-2.808-3.713-3.973a1.6,1.6,0,0,0-1.384-.391c-2.786,1.325-5.524,2.752-8.277,4.148l.1.215Z" transform="translate(0 -38.053)" fill="#4496d8"/><path d="M137.8,64.486a6.336,6.336,0,0,0-.252-5.065c-.227-.491-.492-.965-.7-1.462a4.454,4.454,0,0,1,1.475-5.76c1.218-.955,1.432-1.469.881-2.115-.526-.616-1.263-.52-2.4.313a6.732,6.732,0,0,0-2.4,7.7c.274.791.689,1.533,1.016,2.307a4.5,4.5,0,0,1-1.339,5.508c-.186.151-.4.268-.593.409-.595.432-.952.99-.518,1.686.5.8,1.213.612,1.889.211a6.348,6.348,0,0,0,2.947-3.734" transform="translate(-84.843 -31.751)" fill="#4496d8"/><path d="M105.863,14.8a6.337,6.337,0,0,0-.252-5.065c-.227-.49-.492-.965-.7-1.461a4.454,4.454,0,0,1,1.475-5.76c1.218-.955,1.432-1.469.881-2.115-.526-.616-1.263-.521-2.4.313a6.732,6.732,0,0,0-2.4,7.7c.274.791.689,1.533,1.017,2.307a4.5,4.5,0,0,1-1.338,5.508c-.186.151-.4.268-.593.409-.595.432-.952.99-.518,1.686.5.8,1.213.612,1.889.211a6.348,6.348,0,0,0,2.947-3.734" transform="translate(-64.436 0)" fill="#4496d8"/><path d="M19.879,31.887a6.336,6.336,0,0,0-.252-5.065c-.227-.491-.492-.965-.7-1.462A4.454,4.454,0,0,1,20.4,19.6c1.218-.955,1.432-1.469.881-2.115-.526-.616-1.263-.52-2.4.313a6.732,6.732,0,0,0-2.4,7.7c.274.791.689,1.533,1.016,2.307a4.5,4.5,0,0,1-1.338,5.508c-.186.151-.4.268-.593.409-.595.432-.952.99-.518,1.686.5.8,1.213.612,1.889.211a6.348,6.348,0,0,0,2.947-3.734" transform="translate(-9.49 -10.92)" fill="#4496d8"/><path d="M44.311,142.422c-.048-.539-.108-1.077-.143-1.616-.073-1.1.295-1.734,1.028-1.79.706-.054,1.224.529,1.332,1.62.159,1.614.262,3.234.392,4.851q.685,8.535,1.372,17.068.223,2.786.43,5.572a9.659,9.659,0,0,1,.021,1.082c-.026.681-.327,1.17-1.056,1.22a1.073,1.073,0,0,1-1.214-1.055c-.109-.774-.212-1.55-.272-2.328-.405-5.272-.786-10.546-1.2-15.818-.229-2.935-.5-5.867-.757-8.8l.066-.005" transform="translate(-28.219 -88.833)" fill="#4496d8"/><path d="M82.323,167.372q.685-8.253,1.37-16.506.4-4.844.785-9.691c.029-.358-.054-.81.132-1.052.295-.384.793-.887,1.167-.857s.85.613.977,1.043a5.1,5.1,0,0,1,0,1.788q-1.018,12.38-2.049,24.759c-.069.838-.052,1.685-.161,2.516-.092.7-.441,1.288-1.282,1.215s-1.057-.676-1.019-1.415c.032-.6.082-1.2.125-1.8l-.042,0" transform="translate(-52.551 -88.995)" fill="#4496d8"/></g></svg>