<svg xmlns="http://www.w3.org/2000/svg" xmlns:xlink="http://www.w3.org/1999/xlink" width="94.923" height="80.156" viewBox="0 0 94.923 80.156"><defs><clipPath id="a"><rect width="94.923" height="80.156" fill="#4496d8"/></clipPath></defs><g clip-path="url(#a)"><path d="M192.065,112.591a4.7,4.7,0,0,0-7.212-4.236,1.486,1.486,0,0,0-.161.107,15.577,15.577,0,0,1-12.766,2.462,5.939,5.939,0,0,0-1.019-4,5.77,5.77,0,0,0-4.721-2.775,18.726,18.726,0,0,0-10.274-12.143l-.047-.024a1.584,1.584,0,0,1-.011-2.829,23.528,23.528,0,0,1,10.083-2.174h.01a7.677,7.677,0,0,1,5.509,2.432,7.813,7.813,0,0,1,2.178,5.652c0,.011,0,.022,0,.034a15.683,15.683,0,0,1-1.785,6.631,1.557,1.557,0,0,0,2.231,2.029h0a1.573,1.573,0,0,0,.525-.574,18.773,18.773,0,0,0,2.143-8c0-.012,0-.023,0-.035a10.947,10.947,0,0,0-3.037-7.889,10.765,10.765,0,0,0-7.745-3.4h-.026a26.613,26.613,0,0,0-11.4,2.464l-.015.008a4.7,4.7,0,0,0,.057,8.484l.006,0a15.607,15.607,0,0,1,8.551,9.992,6.958,6.958,0,0,0-.769.436,5.971,5.971,0,0,0-2.3,7.775,18.713,18.713,0,0,0-5.354,15v0a1.584,1.584,0,0,1-2.443,1.426l0,0a23.5,23.5,0,0,1-6.922-7.644l-.015-.024a7.625,7.625,0,0,1-.65-5.947,7.835,7.835,0,0,1,3.8-4.728l.022-.01a15.67,15.67,0,0,1,6.664-1.786,1.557,1.557,0,1,0-.118-3.112,18.82,18.82,0,0,0-7.96,2.122l-.042.019a10.975,10.975,0,0,0-5.353,6.624,10.715,10.715,0,0,0,.945,8.379l.01.016a26.641,26.641,0,0,0,7.832,8.641l0,0a4.609,4.609,0,0,0,5.02.181c.074-.043.147-.089.218-.136h0a4.6,4.6,0,0,0,2.1-4.325s0-.009,0-.014a15.594,15.594,0,0,1,4.249-12.268,6.086,6.086,0,0,0,6.958-.02,6.85,6.85,0,0,0,1.706-1.588,18.722,18.722,0,0,0,15.136-2.4h0c.209-.137.415-.279.618-.424L186.5,111a1.6,1.6,0,0,1,1.663-.055,1.529,1.529,0,0,1,.8,1.455v0a23.491,23.491,0,0,1-3.159,9.82c-.005.009-.009.018-.014.027a7.806,7.806,0,0,1-4.906,3.55,7.686,7.686,0,0,1-5.931-.951l-.009-.005a15.686,15.686,0,0,1-4.868-4.874,1.557,1.557,0,0,0-2.147-.489,1.538,1.538,0,0,0-.489,2.147,18.821,18.821,0,0,0,5.854,5.855h0a10.769,10.769,0,0,0,8.313,1.342,11.1,11.1,0,0,0,3.49-1.506,10.9,10.9,0,0,0,3.383-3.5c0-.007.008-.015.012-.023a26.677,26.677,0,0,0,3.572-11.119c0-.028,0-.055,0-.082m-24.748.221a2.868,2.868,0,0,1-3.97-.424,1.547,1.547,0,0,0-.1-.129l0,0c-.052-.069-.1-.139-.152-.215a3.118,3.118,0,1,1,4.228.773" transform="translate(-118.39 -70.293)" fill="#4496d8"/><path d="M129.394,41.377l-.056-.014a1.2,1.2,0,0,0-.149-.033l-.057-.007a1.356,1.356,0,0,1-.281-.055,1.273,1.273,0,0,1-.236-.131l-.058-.037a1.114,1.114,0,0,0-.139-.073.487.487,0,0,1-.066-.034l-8.92-7.614c-.023-.021-.055-.05-.084-.078a1.619,1.619,0,0,1,2.188-2.383l6.007,5.129-.11-.835A36.852,36.852,0,0,0,64.647,14.231h0a36.868,36.868,0,0,0-9.324,16.277A1.618,1.618,0,1,1,52.2,29.67a40.121,40.121,0,0,1,66.845-18.178,39.594,39.594,0,0,1,11.619,23.463l.092.726,5.029-5.889a1.617,1.617,0,1,1,2.46,2.1l-7.592,8.894a.4.4,0,0,0-.075.069,1.363,1.363,0,0,1-.221.171l-.053.037c-.035.024-.069.05-.1.076a.72.72,0,0,1-.117.081.869.869,0,0,1-.161.046c-.04.009-.08.018-.119.028l-.083.022a1.219,1.219,0,0,1-.252.052.323.323,0,0,0-.074.01" transform="translate(-43.706)" fill="#4496d8"/><path d="M47.215,281.049A39.983,39.983,0,0,1,7.534,246.44l-.1-.771L2.9,251.581a1.616,1.616,0,0,1-2.267.3,1.339,1.339,0,0,1-.154-.133,1.615,1.615,0,0,1-.146-2.134l7.113-9.29a.521.521,0,0,0,.081-.073,1.526,1.526,0,0,1,.26-.225l.046-.036a1.151,1.151,0,0,1,.18-.125,1.415,1.415,0,0,1,.252-.087l.065-.018a1.154,1.154,0,0,0,.136-.049l.052-.021a.445.445,0,0,0,.075.006h.035a.551.551,0,0,0,.116-.023l.055.014a1.21,1.21,0,0,0,.138.031,1.651,1.651,0,0,1,.315.058,1.585,1.585,0,0,1,.281.141l.016.009a1.087,1.087,0,0,0,.123.056.3.3,0,0,1,.052.022l9.312,7.131a1.558,1.558,0,0,1,.621,1.047,1.621,1.621,0,0,1-.32,1.222,1.616,1.616,0,0,1-2.268.3l-6.51-4.983.093.763a36.789,36.789,0,0,0,36.56,32.329A36.854,36.854,0,0,0,82.823,250.54a1.616,1.616,0,0,1,1.983-1.143,1.613,1.613,0,0,1,1.143,1.979l-.1.367h0a40.088,40.088,0,0,1-38.631,29.3Z" transform="translate(0 -200.893)" fill="#4496d8"/></g></svg>