<svg xmlns="http://www.w3.org/2000/svg" xmlns:xlink="http://www.w3.org/1999/xlink" width="80.586" height="80.584" viewBox="0 0 80.586 80.584"><defs><clipPath id="a"><rect width="80.586" height="80.584" fill="#4496d8"/></clipPath></defs><g transform="translate(0 0)" clip-path="url(#a)"><path d="M366.712,538.944l-1.248-1.248a14.916,14.916,0,0,0,1.608-3.885h1.763a3.286,3.286,0,0,0,2.512,1.259c2.118,0,3.778-2.212,3.778-5.037S373.465,525,371.347,525a3.287,3.287,0,0,0-2.509,1.259h-3.489a10.715,10.715,0,0,1-4.771-1.127,1.26,1.26,0,0,0-1.126,2.254,13.258,13.258,0,0,0,5.9,1.391h4.134a1.259,1.259,0,0,0,1.079-.611c.241-.4.542-.648.786-.648.514,0,1.259.981,1.259,2.518s-.746,2.518-1.259,2.518c-.244,0-.545-.252-.786-.648a1.259,1.259,0,0,0-1.079-.611h-4.134a13.26,13.26,0,0,0-5.9,1.385,1.26,1.26,0,0,0,1.126,2.254,10.7,10.7,0,0,1,3.855-1.073,12.574,12.574,0,0,1-1.612,3.292,1.259,1.259,0,0,0,.146,1.6l2.42,2.419a1.259,1.259,0,0,0,1.194.331,1.141,1.141,0,0,1,1.015.1c.363.362.2,1.585-.89,2.672s-2.307,1.259-2.672.89h0a1.141,1.141,0,0,1-.1-1.015,1.259,1.259,0,0,0-.331-1.194l-2.419-2.42a1.259,1.259,0,0,0-1.6-.146A12.554,12.554,0,0,1,356.291,542a10.692,10.692,0,0,1,1.073-3.855,1.26,1.26,0,0,0-2.254-1.126,13.262,13.262,0,0,0-1.391,5.9v4.134a1.259,1.259,0,0,0,.611,1.079c.4.241.649.541.649.786,0,.514-.981,1.259-2.518,1.259s-2.518-.746-2.518-1.259c0-.244.252-.545.648-.786a1.259,1.259,0,0,0,.611-1.079v-4.134a13.26,13.26,0,0,0-1.385-5.9,1.26,1.26,0,0,0-2.254,1.126,10.7,10.7,0,0,1,1.073,3.855,12.568,12.568,0,0,1-3.292-1.612,1.26,1.26,0,0,0-1.6.146l-2.419,2.42a1.259,1.259,0,0,0-.331,1.194,1.141,1.141,0,0,1-.1,1.015c-.365.362-1.585.2-2.672-.89s-1.259-2.309-.89-2.672h0a1.141,1.141,0,0,1,1.015-.1,1.259,1.259,0,0,0,1.194-.331l2.42-2.419a1.259,1.259,0,0,0-1.78-1.78l-1.964,1.963a3.3,3.3,0,0,0-2.664.881c-1.5,1.5-1.107,4.236.89,6.233a5.7,5.7,0,0,0,3.9,1.8,3.218,3.218,0,0,0,2.324-.909,3.286,3.286,0,0,0,.881-2.664l1.248-1.248a14.927,14.927,0,0,0,3.886,1.61v1.763a3.287,3.287,0,0,0-1.259,2.512c0,2.118,2.212,3.778,5.037,3.778s5.037-1.66,5.037-3.778a3.286,3.286,0,0,0-1.259-2.509v-1.763a14.918,14.918,0,0,0,3.885-1.608l1.248,1.248a3.287,3.287,0,0,0,.881,2.664,3.218,3.218,0,0,0,2.324.909,5.71,5.71,0,0,0,3.9-1.8c2-2,2.392-4.736.89-6.233h0a3.3,3.3,0,0,0-2.657-.886Z" transform="translate(-312.166 -489.741)" fill="#4496d8"/><path d="M270.911,276.254l1.248,1.248a14.911,14.911,0,0,0-1.6,3.885h-1.763a3.287,3.287,0,0,0-2.518-1.259c-2.118,0-3.778,2.212-3.778,5.037s1.659,5.037,3.778,5.037a3.286,3.286,0,0,0,2.509-1.259h3.489a10.714,10.714,0,0,1,4.771,1.133,1.26,1.26,0,0,0,1.126-2.254,13.261,13.261,0,0,0-5.9-1.4H268.14a1.259,1.259,0,0,0-1.079.611c-.241.4-.541.648-.786.648-.514,0-1.259-.981-1.259-2.518s.746-2.518,1.259-2.518c.244,0,.545.252.786.648a1.259,1.259,0,0,0,1.079.611h4.134a13.259,13.259,0,0,0,5.9-1.385,1.26,1.26,0,0,0-1.126-2.254,10.7,10.7,0,0,1-3.855,1.073,12.574,12.574,0,0,1,1.612-3.292,1.259,1.259,0,0,0-.146-1.6l-2.42-2.419a1.251,1.251,0,0,0-1.194-.331,1.148,1.148,0,0,1-1.015-.1c-.363-.362-.2-1.585.89-2.672s2.309-1.259,2.672-.89h0a1.14,1.14,0,0,1,.1,1.015,1.259,1.259,0,0,0,.331,1.194l2.419,2.42a1.26,1.26,0,0,0,1.6.146,12.553,12.553,0,0,1,3.292-1.612,10.7,10.7,0,0,1-1.073,3.855,1.26,1.26,0,1,0,2.254,1.126,13.261,13.261,0,0,0,1.391-5.9v-4.134a1.259,1.259,0,0,0-.611-1.079c-.4-.241-.648-.541-.648-.786,0-.514.981-1.259,2.518-1.259s2.518.746,2.518,1.259c0,.244-.252.545-.648.786a1.259,1.259,0,0,0-.611,1.079v4.134a13.259,13.259,0,0,0,1.385,5.9,1.26,1.26,0,0,0,2.254-1.126,10.7,10.7,0,0,1-1.073-3.855,12.569,12.569,0,0,1,3.292,1.612,1.259,1.259,0,0,0,1.6-.146l2.419-2.42a1.259,1.259,0,0,0,.331-1.194,1.141,1.141,0,0,1,.1-1.015c.363-.365,1.585-.2,2.672.89s1.253,2.309.89,2.672h0a1.149,1.149,0,0,1-1.015.1,1.252,1.252,0,0,0-1.194.331l-2.42,2.419a1.259,1.259,0,1,0,1.78,1.78l1.964-1.963a3.274,3.274,0,0,0,2.664-.881c1.5-1.5,1.107-4.236-.89-6.233s-4.734-2.392-6.233-.89h0a3.287,3.287,0,0,0-.881,2.664l-1.248,1.248h0a14.931,14.931,0,0,0-3.881-1.6v-1.763a3.287,3.287,0,0,0,1.259-2.518c0-2.118-2.212-3.778-5.037-3.778s-5.037,1.659-5.037,3.778a3.287,3.287,0,0,0,1.259,2.509v1.763a14.919,14.919,0,0,0-3.885,1.608l-1.248-1.248a3.286,3.286,0,0,0-.881-2.665c-1.5-1.5-4.236-1.1-6.233.89s-2.392,4.736-.89,6.233h0a3.284,3.284,0,0,0,2.662.886Z" transform="translate(-244.87 -244.871)" fill="#4496d8"/><path d="M1024.713,507.189l-5.343-5.343a1.259,1.259,0,1,0-1.78,1.78l3.193,3.193h-7.034a1.259,1.259,0,1,0,0,2.518h7.034l-3.193,3.193a1.259,1.259,0,1,0,1.78,1.78l5.343-5.343h0a1.26,1.26,0,0,0,0-1.781Z" transform="translate(-944.496 -467.786)" fill="#4496d8"/><path d="M12.592,508.083a1.259,1.259,0,0,0-1.259-1.259H4.3l3.193-3.193a1.259,1.259,0,1,0-1.78-1.78L.369,507.192a1.26,1.26,0,0,0,0,1.781l5.343,5.343a1.259,1.259,0,1,0,1.78-1.78L4.3,509.342h7.034a1.259,1.259,0,0,0,1.259-1.259Z" transform="translate(0 -467.789)" fill="#4496d8"/><path d="M512.531,1017.563l-3.193,3.193v-7.034a1.259,1.259,0,1,0-2.518,0v7.034l-3.193-3.193a1.259,1.259,0,1,0-1.78,1.78l5.343,5.343h0a1.259,1.259,0,0,0,1.781,0l5.343-5.343h0a1.259,1.259,0,0,0-1.78-1.78Z" transform="translate(-467.785 -944.47)" fill="#4496d8"/><path d="M503.627,7.494,506.82,4.3v7.034a1.259,1.259,0,1,0,2.518,0V4.3l3.193,3.193a1.259,1.259,0,1,0,1.78-1.78L508.97.371a1.26,1.26,0,0,0-1.781,0l-5.343,5.343a1.259,1.259,0,1,0,1.78,1.78Z" transform="translate(-467.786 -0.002)" fill="#4496d8"/><path d="M881.008,172.768h4.515l-4.972,4.972a1.259,1.259,0,1,0,1.78,1.78l4.972-4.972v4.515a1.259,1.259,0,0,0,2.518,0v-7.555a1.259,1.259,0,0,0-1.259-1.259h-7.555a1.259,1.259,0,0,0,0,2.518Z" transform="translate(-820.669 -158.817)" fill="#4496d8"/><path d="M179.062,887.308h-4.515l4.972-4.972a1.259,1.259,0,1,0-1.78-1.78l-4.972,4.972v-4.515a1.259,1.259,0,1,0-2.518,0v7.555a1.259,1.259,0,0,0,1.259,1.259h7.555a1.259,1.259,0,0,0,0-2.518Z" transform="translate(-158.815 -820.673)" fill="#4496d8"/><path d="M171.506,180.324a1.259,1.259,0,0,0,1.259-1.259V174.55l4.972,4.972a1.259,1.259,0,0,0,1.78-1.78l-4.972-4.972h4.515a1.259,1.259,0,1,0,0-2.518h-7.555a1.259,1.259,0,0,0-1.259,1.259v7.555a1.259,1.259,0,0,0,1.259,1.259Z" transform="translate(-158.814 -158.818)" fill="#4496d8"/><path d="M888.564,879.75a1.259,1.259,0,0,0-1.259,1.259v4.515l-4.972-4.972a1.259,1.259,0,1,0-1.78,1.78l4.972,4.972h-4.515a1.259,1.259,0,1,0,0,2.518h7.555a1.259,1.259,0,0,0,1.259-1.259v-7.555a1.259,1.259,0,0,0-1.259-1.259Z" transform="translate(-820.67 -820.67)" fill="#4496d8"/></g></svg>