<svg xmlns="http://www.w3.org/2000/svg" xmlns:xlink="http://www.w3.org/1999/xlink" width="80.616" height="66.747" viewBox="0 0 80.616 66.747"><defs><clipPath id="a"><rect width="80.616" height="66.747" fill="none"/></clipPath></defs><g clip-path="url(#a)"><path d="M5.5,39.517a2.75,2.75,0,1,1-2.75-2.752A2.75,2.75,0,0,1,5.5,39.517" transform="translate(0 -4.383)" fill="#4496d8"/><path d="M5.5,14.293a2.75,2.75,0,1,1-2.75-2.752A2.75,2.75,0,0,1,5.5,14.293" transform="translate(0 -1.376)" fill="#4496d8"/><path d="M5.5,64.741a2.75,2.75,0,1,1-2.75-2.752A2.75,2.75,0,0,1,5.5,64.741" transform="translate(0 -7.391)" fill="#4496d8"/><path d="M14.865,33.523a2.75,2.75,0,1,1-2.75-2.752,2.75,2.75,0,0,1,2.75,2.752" transform="translate(-1.117 -3.669)" fill="#4496d8"/><path d="M14.865,8.3a2.75,2.75,0,1,1-2.75-2.752A2.75,2.75,0,0,1,14.865,8.3" transform="translate(-1.117 -0.661)" fill="#4496d8"/><path d="M14.865,58.747A2.75,2.75,0,1,1,12.115,56a2.75,2.75,0,0,1,2.75,2.75" transform="translate(-1.117 -6.676)" fill="#4496d8"/><path d="M25.854,32.025a2.75,2.75,0,1,1-2.75-2.75,2.75,2.75,0,0,1,2.75,2.75" transform="translate(-2.427 -3.49)" fill="#4496d8"/><path d="M25.854,6.8a2.75,2.75,0,1,1-2.75-2.75,2.75,2.75,0,0,1,2.75,2.75" transform="translate(-2.427 -0.483)" fill="#4496d8"/><path d="M25.854,57.249A2.75,2.75,0,1,1,23.1,54.5a2.75,2.75,0,0,1,2.75,2.752" transform="translate(-2.427 -6.497)" fill="#4496d8"/><circle cx="2.75" cy="2.75" r="2.75" transform="translate(27.495 27.874)" fill="#4496d8"/><path d="M36.717,9.174a2.75,2.75,0,1,1-2.749-2.752,2.75,2.75,0,0,1,2.749,2.752" transform="translate(-3.722 -0.765)" fill="#4496d8"/><path d="M36.717,59.621a2.75,2.75,0,1,1-2.75-2.75,2.75,2.75,0,0,1,2.75,2.75" transform="translate(-3.722 -6.78)" fill="#4496d8"/><path d="M44.325,66.747a1.872,1.872,0,0,1-1.869-1.865V1.864a1.869,1.869,0,0,1,3.738,0V9.374l.394.262A34.358,34.358,0,0,0,63.181,15.28c.427.026.845.038,1.262.038A20.821,20.821,0,0,0,77.66,10.573l1.893-1.561H72.811a1.869,1.869,0,0,1,0-3.738h11a1.858,1.858,0,0,1,1.343.552,1.828,1.828,0,0,1,.526,1.308V17.921a1.88,1.88,0,0,1-3.212,1.316,1.825,1.825,0,0,1-.527-1.308V11.7l-1.458,1.263a24.329,24.329,0,0,1-15.936,5.946l-1.523,0A35.959,35.959,0,0,1,47.5,14.4l-1.311-.734V31.591l.394.262A34.361,34.361,0,0,0,63.181,37.5c.427.026.844.038,1.261.038A20.824,20.824,0,0,0,77.66,32.788l1.893-1.561H72.81a1.869,1.869,0,1,1,0-3.738h11a1.854,1.854,0,0,1,1.869,1.861V40.138a1.869,1.869,0,1,1-3.737.016V33.919l-1.458,1.264a24.333,24.333,0,0,1-15.936,5.946l-1.523,0A35.952,35.952,0,0,1,47.5,36.619l-1.311-.734V53.916l.394.262a34.364,34.364,0,0,0,16.594,5.645c.427.026.845.038,1.262.038A20.817,20.817,0,0,0,77.66,55.114l1.893-1.56H72.811a1.869,1.869,0,1,1,0-3.738h11a1.854,1.854,0,0,1,1.869,1.861V62.46a1.869,1.869,0,0,1-3.738,0V56.242l-1.458,1.264a24.336,24.336,0,0,1-15.938,5.946l-1.521,0A35.959,35.959,0,0,1,47.5,58.943l-1.311-.734v6.674a1.872,1.872,0,0,1-1.865,1.864Z" transform="translate(-5.062 0)" fill="#4496d8"/></g></svg>