<svg xmlns="http://www.w3.org/2000/svg" xmlns:xlink="http://www.w3.org/1999/xlink" width="90" height="90" viewBox="0 0 90 90"><defs><clipPath id="a"><path d="M0-92.5H90v90H0Z" transform="translate(0 92.5)" fill="none"/></clipPath><clipPath id="b"><path d="M0-2.014H90.486V-92.5H0Z" transform="translate(0 92.5)" fill="none"/></clipPath><clipPath id="c"><rect width="49.93" height="68.777" fill="none"/></clipPath></defs><g transform="translate(0 92.5)"><g transform="translate(0 -92.5)" clip-path="url(#a)"><g clip-path="url(#b)"><g transform="translate(27 9.981)"><g clip-path="url(#c)"><path d="M27.663,106.173H6.228a6.618,6.618,0,0,1,6.618-6.618h8.2A6.618,6.618,0,0,1,27.663,106.173Z" transform="translate(-5.241 -83.782)" fill="#00b7f1"/><path d="M55.875,35.609V32.785H47.688v8.107h8.186V38.068H52.881v-2.46Z" transform="translate(-40.133 -27.591)" fill="#00b7f1"/><path d="M289.5,3.148l2.749-.636L291.671,0l-2.761.639Z" transform="translate(-243.136 -0.001)" fill="#00b7f1"/><path d="M247.35,11.832l3.628-.839-.593-2.509-3.628.839Z" transform="translate(-207.662 -7.14)" fill="#00b7f1"/><path d="M204.169,21.619l3.791-.877-.593-2.509-3.791.877Z" transform="translate(-171.322 -15.344)" fill="#00b7f1"/><path d="M140.266,28.221l-8.294,1.918.581,2.512,8.306-1.921Z" transform="translate(-111.063 -23.75)" fill="#00b7f1"/><path d="M289.5,97.229l2.749.636-.581,2.511-2.761-.639Z" transform="translate(-243.136 -81.824)" fill="#00b7f1"/><path d="M247.35,87.479l3.628.839-.593,2.509-3.628-.839Z" transform="translate(-207.662 -73.619)" fill="#00b7f1"/><path d="M204.169,77.491l3.791.877-.593,2.509L203.576,80Z" transform="translate(-171.322 -65.214)" fill="#00b7f1"/><path d="M140.266,65.342l-8.294-1.918.581-2.512,8.306,1.921Z" transform="translate(-111.063 -51.262)" fill="#00b7f1"/><rect width="3.958" height="2.564" transform="translate(33.164 8.111)" fill="#00b7f1"/><rect width="3.926" height="2.564" transform="translate(40.015 8.111)" fill="#00b7f1"/><rect width="2.803" height="2.564" transform="translate(47.127 8.111)" fill="#00b7f1"/><path d="M21.71,156.768H1.626A1.626,1.626,0,0,0,0,158.394v39.692a2.621,2.621,0,0,0,2.621,2.621H20.715a2.621,2.621,0,0,0,2.621-2.621V158.394a1.626,1.626,0,0,0-1.626-1.626M6.3,194.232H3.6V174.139H6.3Zm0-25.092H3.6v-5.5H6.3Z" transform="translate(0 -131.93)" fill="#00b7f1"/></g></g></g></g></g></svg>