<svg xmlns="http://www.w3.org/2000/svg" xmlns:xlink="http://www.w3.org/1999/xlink" width="90" height="90" viewBox="0 0 90 90"><defs><clipPath id="a"><path d="M0-94H90V-4H0Z" transform="translate(0 94)" fill="none"/></clipPath><clipPath id="b"><path d="M0-3.519H90.481V-94H0Z" transform="translate(0 94)" fill="none"/></clipPath><clipPath id="c"><rect width="46.942" height="74.715" fill="none"/></clipPath></defs><g transform="translate(0 94)"><g transform="translate(0 -94)" clip-path="url(#a)"><g clip-path="url(#b)"><g transform="translate(21.684 7.207)"><g clip-path="url(#c)"><path d="M46.881,33.29h0a9.269,9.269,0,0,0-6.467-6.006l-4.406-1.2a10.866,10.866,0,0,0-.5-3.434c-.658-2.193-2.346-2.482-7.25-4.051s-6.179-.1-6.865.49a17.836,17.836,0,0,0-1.948,2.5l-4.42-1.2a9.27,9.27,0,0,0-8.616,1.913,1.311,1.311,0,0,0,.656,2.228L45.189,34.88a1.311,1.311,0,0,0,1.692-1.59M24.4,21.548c.361-.309,1.031-1.083,3.61-.258s3.466.977,3.812,2.13a6.135,6.135,0,0,1,.263,1.6l-8.594-2.332a7.688,7.688,0,0,1,.908-1.143M4.232,29.059C1.222,27.482-.861,24.885.351,21.343a39.642,39.642,0,0,1,2.331-4.592c1.323-2.671,1-5.1,0-7.8A6.8,6.8,0,0,1,6.11,12.829a8.109,8.109,0,0,1-1.131,6.539A21.871,21.871,0,0,0,3.305,22.51a5.9,5.9,0,0,0-.036,3.745c.083.319.572,2.727.962,2.8M31.828,17.3c-2.874-1.273-4.862-3.37-3.705-6.229a30.474,30.474,0,0,1,2.226-3.707c1.264-2.157.952-4.116,0-6.294.055.125,2.44.822,3.273,3.128.674,1.866.037,3.623-1.08,5.279a16.957,16.957,0,0,0-1.6,2.537,4.068,4.068,0,0,0-.034,3.024c.079.257.546,2.2.919,2.263M16.47,14.89a4.6,4.6,0,0,0-.034-3.223,18.283,18.283,0,0,0-1.6-2.7c-1.117-1.765-1.754-3.638-1.08-5.627A6.187,6.187,0,0,1,17.031,0c-.952,2.322-1.263,4.411,0,6.71a32.969,32.969,0,0,1,2.226,3.952c1.157,3.048-.832,5.283-3.705,6.64.372-.066.84-2.138.919-2.412m26.566,20.5H4.559a1.5,1.5,0,0,0-1.492,1.6L5.337,69.85a5.225,5.225,0,0,0,5.213,4.865h26.5a5.225,5.225,0,0,0,5.213-4.865l2.27-32.865a1.5,1.5,0,0,0-1.492-1.6M12.6,70.345l-2.53.088a.96.96,0,0,1-.993-.926L8.08,41.065a.961.961,0,0,1,.927-.993l2.53-.088a.961.961,0,0,1,.994.926l.993,28.442a.96.96,0,0,1-.926.993m8.4.029-2.531.044a.961.961,0,0,1-.977-.944l-.5-28.455a.961.961,0,0,1,.944-.977L20.466,40a.961.961,0,0,1,.977.944l.5,28.455a.961.961,0,0,1-.944.977m9.111-.9a.961.961,0,0,1-.977.944L26.6,70.374a.961.961,0,0,1-.944-.977l.5-28.455A.961.961,0,0,1,27.129,40l2.531.044a.961.961,0,0,1,.944.977Zm8.415-.281a.96.96,0,0,1-.994.926L35,70.032a.961.961,0,0,1-.927-.993L35.065,40.6a.961.961,0,0,1,.994-.926l2.53.088a.961.961,0,0,1,.926.994Z" transform="translate(0)" fill="#00b7f1"/></g></g></g></g></g></svg>