<svg xmlns="http://www.w3.org/2000/svg" xmlns:xlink="http://www.w3.org/1999/xlink" width="90" height="90" viewBox="0 0 90 90"><defs><clipPath id="a"><path d="M0-103H90v90H0Z" transform="translate(0 103)" fill="none"/></clipPath><clipPath id="b"><path d="M0-12.563H90.437V-103H0Z" transform="translate(0 103)" fill="none"/></clipPath><clipPath id="c"><rect width="89.985" height="89.985" fill="none"/></clipPath><clipPath id="d"><rect width="68.434" height="69.449" fill="none"/></clipPath></defs><g transform="translate(0 103)"><g transform="translate(0 -103)" clip-path="url(#a)"><g clip-path="url(#b)"><g transform="translate(0 0.015)"><g clip-path="url(#c)"><g transform="translate(10.775 10.269)"><g clip-path="url(#d)"><path d="M48.383,43.475l-4.63-.771a3.7,3.7,0,0,1-1.708-6.479L45.676,33.2a.984.984,0,0,0-.958-1.686L40.329,33.2a3.65,3.65,0,0,1-4.666-4.743L37.32,24a.973.973,0,0,0-1.659-.973l-2.972,3.69a3.6,3.6,0,0,1-6.374-1.736l-.759-4.706a.968.968,0,0,0-1.915,0l-.759,4.706a3.6,3.6,0,0,1-6.374,1.736l-2.972-3.69A.973.973,0,0,0,11.876,24l1.658,4.461A3.65,3.65,0,0,1,8.868,33.2L4.479,31.519A.984.984,0,0,0,3.521,33.2l3.631,3.021A3.7,3.7,0,0,1,5.444,42.7l-4.63.771a.989.989,0,0,0,0,1.947l4.63.771a3.7,3.7,0,0,1,1.708,6.478L3.521,55.692a.984.984,0,0,0,.958,1.686l4.389-1.685a3.65,3.65,0,0,1,4.666,4.743L11.876,64.9a.973.973,0,0,0,1.659.973l2.972-3.69a3.6,3.6,0,0,1,6.374,1.736l.759,4.706a.968.968,0,0,0,1.915,0l.759-4.706a3.6,3.6,0,0,1,6.374-1.736l2.972,3.69A.973.973,0,0,0,37.32,64.9l-1.658-4.461a3.65,3.65,0,0,1,4.666-4.743l4.39,1.685a.984.984,0,0,0,.958-1.686l-3.631-3.021a3.7,3.7,0,0,1,1.708-6.478l4.63-.771a.989.989,0,0,0,0-1.947m-34.1,3.144A1.225,1.225,0,1,1,15.5,45.394a1.225,1.225,0,0,1-1.225,1.225m6.287-13.55A1.427,1.427,0,1,1,19.139,34.5a1.427,1.427,0,0,1,1.427-1.427m-2.134,6.807a.889.889,0,1,1-.889.889.889.889,0,0,1,.889-.889m2.134,14.338a3.584,3.584,0,1,1,3.584-3.584,3.585,3.585,0,0,1-3.584,3.584m8.359,1.148a1.148,1.148,0,1,1,1.149-1.148,1.148,1.148,0,0,1-1.149,1.148m-1.148-9a.889.889,0,1,1,.889.889.889.889,0,0,1-.889-.889m1.372-4.316a4.4,4.4,0,1,1,4.4-4.4,4.4,4.4,0,0,1-4.4,4.4m5.826,4.316A1.427,1.427,0,1,1,36.4,44.932a1.427,1.427,0,0,1-1.427,1.427m31.06-25.62a1.3,1.3,0,0,0-1.107-.242,2.113,2.113,0,0,1-1.161-.025,3.2,3.2,0,0,1-1.164-.61,17.269,17.269,0,0,0-2.117-1.506,11.667,11.667,0,0,0-.121-2.991,12.161,12.161,0,0,0,1.82-.172,2.186,2.186,0,0,1,.889.031,1.58,1.58,0,0,1,.753.407.91.91,0,0,0,1.519-.774.909.909,0,0,0-1.53-.556,1.479,1.479,0,0,1-.713.391,2.24,2.24,0,0,1-.919.037,13.129,13.129,0,0,0-1.945-.177,11.8,11.8,0,0,0-.541-1.969,16.214,16.214,0,0,0,1.936-1.356,2.5,2.5,0,0,1,.9-.477,1.808,1.808,0,0,1,.978-.028,1.039,1.039,0,0,0,1.062-1.634,1.039,1.039,0,0,0-1.832.323,1.691,1.691,0,0,1-.482.795,2.556,2.556,0,0,1-.888.562,15.06,15.06,0,0,0-2.035.941,9.508,9.508,0,0,0-1.5-2.3,24.821,24.821,0,0,0,1.195-2.678,2.816,2.816,0,0,1,.607-.97,2.032,2.032,0,0,1,.937-.577,1.169,1.169,0,0,0,.115-2.189,1.169,1.169,0,0,0-1.6,1.345,1.9,1.9,0,0,1-.023,1.045,2.879,2.879,0,0,1-.549,1.048A18.125,18.125,0,0,0,57,8.6a5.236,5.236,0,0,0-2.9-1.2,19.588,19.588,0,0,0-.256-2.876,3.129,3.129,0,0,1,.045-1.27,2.259,2.259,0,0,1,.581-1.076A1.3,1.3,0,0,0,53.363.009a1.3,1.3,0,0,0-.795,2.185,2.114,2.114,0,0,1,.559,1.018,3.2,3.2,0,0,1,.054,1.313,20.04,20.04,0,0,0-.257,2.921,7.225,7.225,0,0,0-2.666.954A16.233,16.233,0,0,0,48.92,6.49a2.658,2.658,0,0,1-.493-.926,1.882,1.882,0,0,1-.041-1,1.085,1.085,0,0,0-.125-.765,1.039,1.039,0,0,0-1.87.9,1.092,1.092,0,0,0,.684.635,1.76,1.76,0,0,1,.808.5,2.725,2.725,0,0,1,.579.917A16.829,16.829,0,0,0,49.48,8.928,8.914,8.914,0,0,0,47.3,11.371,14.62,14.62,0,0,0,45.43,10.5,2.414,2.414,0,0,1,44.637,10a1.688,1.688,0,0,1-.482-.748.977.977,0,0,0-.44-.531.908.908,0,0,0-1.024,1.5.984.984,0,0,0,.808.189,1.577,1.577,0,0,1,.844.036,2.466,2.466,0,0,1,.855.45,14.741,14.741,0,0,0,1.707,1.191,9.75,9.75,0,0,0-.813,2.351,5.214,5.214,0,0,0-.1.719,19.251,19.251,0,0,0-2.788.25,3.31,3.31,0,0,1-1.307-.045,2.345,2.345,0,0,1-1.107-.581,1.351,1.351,0,0,0-.9-.343,1.3,1.3,0,0,0-.192,2.587,1.358,1.358,0,0,0,1.111-.344,2.195,2.195,0,0,1,1.048-.559,3.385,3.385,0,0,1,1.351-.054,19.672,19.672,0,0,0,2.839.252A6.537,6.537,0,0,0,47.14,19a12.463,12.463,0,0,0-1.526,1.112,2.815,2.815,0,0,1-1.01.537,2.033,2.033,0,0,1-1.1.031,1.169,1.169,0,0,0-1.194,1.838,1.169,1.169,0,0,0,2.061-.364,1.9,1.9,0,0,1,.542-.894,2.878,2.878,0,0,1,1-.633,13.365,13.365,0,0,0,1.851-.829,8.627,8.627,0,0,0,1.626,1.424,15.335,15.335,0,0,0-.953,2.118,3.128,3.128,0,0,1-.674,1.077,2.259,2.259,0,0,1-1.041.641,1.3,1.3,0,0,0-.128,2.433,1.3,1.3,0,0,0,1.781-1.495,2.112,2.112,0,0,1,.025-1.162,3.2,3.2,0,0,1,.61-1.164,15.3,15.3,0,0,0,1.356-1.881,6.769,6.769,0,0,0,2.689.723,12.025,12.025,0,0,0,.185,1.815,2.5,2.5,0,0,1-.036,1.016,1.808,1.808,0,0,1-.465.861,1.04,1.04,0,0,0,.884,1.736,1.039,1.039,0,0,0,.636-1.748,1.69,1.69,0,0,1-.447-.815,2.555,2.555,0,0,1-.043-1.05,12.13,12.13,0,0,0,.186-1.829,11.43,11.43,0,0,0,3.064-.61A15.961,15.961,0,0,0,58.4,23.839a2.815,2.815,0,0,1,.537,1.01,2.031,2.031,0,0,1,.031,1.1,1.17,1.17,0,0,0,1.839,1.194,1.169,1.169,0,0,0-.364-2.061,1.9,1.9,0,0,1-.894-.542,2.879,2.879,0,0,1-.633-1,15.035,15.035,0,0,0-.939-2.064,4.966,4.966,0,0,0,2.092-1.819c.033-.055.061-.114.09-.172a15.258,15.258,0,0,0,2.109.948,3.128,3.128,0,0,1,1.077.674,2.257,2.257,0,0,1,.641,1.041,1.3,1.3,0,0,0,2.433.128,1.307,1.307,0,0,0-.388-1.539M48.213,14.415a.552.552,0,1,1-.768-.134.552.552,0,0,1,.768.134m1.775-3.924a.791.791,0,1,1-.791.791.791.791,0,0,1,.791-.791M49.7,18.948a.4.4,0,1,1,.4-.4.4.4,0,0,1-.4.4m.291-2.081a.791.791,0,1,1,.791-.791.791.791,0,0,1-.791.791m.578-2.917a.552.552,0,1,1,.134-.768.551.551,0,0,1-.134.768m1.315-3.276a.4.4,0,1,1,.4-.4.4.4,0,0,1-.4.4m2.173-.183a.757.757,0,1,1,.757-.757.757.757,0,0,1-.757.757m13.964,40.54a.933.933,0,0,0-.749-.045,1.548,1.548,0,0,1-.767.089,2.209,2.209,0,0,1-.816-.259,11.6,11.6,0,0,0-1.523-.71,11.171,11.171,0,0,0-.231-1.972,8.013,8.013,0,0,0,.967-.291,1.364,1.364,0,0,1,.55-.076.984.984,0,0,1,.507.169.568.568,0,1,0-.149-.817.922.922,0,0,1-.4.317,1.394,1.394,0,0,1-.561.122,6.862,6.862,0,0,0-1.034.076A13.161,13.161,0,0,0,63.2,45.8a14,14,0,0,0,1.387-.985,1.772,1.772,0,0,1,.641-.33,1.281,1.281,0,0,1,.693-.01.736.736,0,0,0,.767-1.148.736.736,0,0,0-1.3.212,1.2,1.2,0,0,1-.349.558,1.814,1.814,0,0,1-.635.39,11.071,11.071,0,0,0-1.49.668,17.681,17.681,0,0,0-1.471-2.518,13.5,13.5,0,0,0,.934-1.359,1.773,1.773,0,0,1,.489-.529,1.28,1.28,0,0,1,.648-.247.737.737,0,0,0,.328-1.341A.736.736,0,0,0,62.7,39.8a1.2,1.2,0,0,1-.137.644,1.815,1.815,0,0,1-.462.584,9.809,9.809,0,0,0-1.067,1.025c-.1-.135-.2-.269-.306-.4a4.455,4.455,0,0,0-1.162-1.06,16.607,16.607,0,0,0,.331-1.872,2.08,2.08,0,0,1,.247-.769,1.326,1.326,0,0,1,.519-.536.784.784,0,0,0,.349-.466.886.886,0,0,0-.6-1.1.732.732,0,0,0-.841.435.909.909,0,0,0,.007.735,1.507,1.507,0,0,1,.141.744,2.16,2.16,0,0,1-.2.817,14.4,14.4,0,0,0-.668,1.684,2.792,2.792,0,0,0-1.244-.113,1.765,1.765,0,0,0-.381.1,11.7,11.7,0,0,0-.845-1.059,1.607,1.607,0,0,1-.318-.538,1.025,1.025,0,0,1-.044-.575.605.605,0,0,0-.09-.44.685.685,0,0,0-.945-.218.566.566,0,0,0-.18.71.7.7,0,0,0,.429.373,1.165,1.165,0,0,1,.5.3,1.667,1.667,0,0,1,.37.534,10.978,10.978,0,0,0,.621,1.232,1.072,1.072,0,0,0-.139.172q-.023.036-.044.073a2.25,2.25,0,0,0-.267,1.274,10.232,10.232,0,0,0-1.246.176,1.365,1.365,0,0,1-.555,0A.983.983,0,0,1,54,42.022a.568.568,0,0,0-.933.512.567.567,0,0,0,.964.317.924.924,0,0,1,.437-.258,1.4,1.4,0,0,1,.572-.041,8.807,8.807,0,0,0,1.284.073l.016-.074a6.846,6.846,0,0,0,.573,1.6,6.751,6.751,0,0,0-.658.547,1.368,1.368,0,0,1-.478.282.986.986,0,0,1-.533.038.568.568,0,0,0-.54.917.567.567,0,0,0,.991-.22.922.922,0,0,1,.244-.445,1.4,1.4,0,0,1,.471-.328,5.335,5.335,0,0,0,.723-.353c.419.8.889,1.558,1.157,2.162a7,7,0,0,1,.345.945,7.577,7.577,0,0,0-.934.155,1.215,1.215,0,0,1-.495.006.879.879,0,0,1-.429-.206.506.506,0,0,0-.824.471.506.506,0,0,0,.864.268.821.821,0,0,1,.386-.237,1.247,1.247,0,0,1,.509-.045,6.822,6.822,0,0,0,1.027.047,3.747,3.747,0,0,1,.048,1.1,4.229,4.229,0,0,1-.826,1.951,11.524,11.524,0,0,0-1.3-.443,1.363,1.363,0,0,1-.5-.25.986.986,0,0,1-.32-.427.567.567,0,0,0-1.063.041.567.567,0,0,0,.72.715A.923.923,0,0,1,56,50.807a1.393,1.393,0,0,1,.53.219,8.527,8.527,0,0,0,1.093.628c-.349.447-.724.88-1.053,1.33a13.378,13.378,0,0,0-1.553-.175,1.958,1.958,0,0,1-.737-.191,1.248,1.248,0,0,1-.532-.459.739.739,0,0,0-.457-.3.835.835,0,0,0-1,.624.689.689,0,0,0,.454.768.858.858,0,0,0,.691-.047,1.419,1.419,0,0,1,.692-.173,2.035,2.035,0,0,1,.779.143,10.5,10.5,0,0,0,1.259.433,3.423,3.423,0,0,0-.5,1.62,8.995,8.995,0,0,0-.859.736,1.772,1.772,0,0,1-.615.375,1.279,1.279,0,0,1-.69.061.736.736,0,0,0-.682,1.2.736.736,0,0,0,1.282-.306,1.2,1.2,0,0,1,.307-.582,1.81,1.81,0,0,1,.6-.435,5.474,5.474,0,0,0,.714-.349,2.008,2.008,0,0,0,1.811,1.443,7.683,7.683,0,0,0-.179,1.082,1.369,1.369,0,0,1-.148.536.987.987,0,0,1-.357.4.568.568,0,0,0,.25,1.036.568.568,0,0,0,.56-.849.924.924,0,0,1-.134-.49,1.4,1.4,0,0,1,.111-.564,10.215,10.215,0,0,0,.4-1.093,7.169,7.169,0,0,0,3.6-.8,9.176,9.176,0,0,0,.658.956,1.773,1.773,0,0,1,.309.651,1.28,1.28,0,0,1-.011.693.737.737,0,1,0,.952-.5A1.2,1.2,0,0,1,63,58.055a1.811,1.811,0,0,1-.37-.646,8.329,8.329,0,0,0-.462-1.171,5.482,5.482,0,0,0,1.416-2.359,11.042,11.042,0,0,0,1.316.573,1.366,1.366,0,0,1,.486.269.986.986,0,0,1,.3.44.568.568,0,0,0,1.066,0,.568.568,0,0,0-.694-.743.925.925,0,0,1-.508.016,1.4,1.4,0,0,1-.522-.239,13.928,13.928,0,0,0-1.285-.831,10.858,10.858,0,0,0,.409-2.5,11.941,11.941,0,0,0,1.359.32,2.128,2.128,0,0,1,.764.3,1.343,1.343,0,0,1,.506.563.8.8,0,0,0,.448.386.907.907,0,0,0,1.165-.527.737.737,0,0,0-.38-.881M57.748,56.391a.343.343,0,1,1,.343-.343.343.343,0,0,1-.343.343M59.63,53.26a.621.621,0,1,1,.621.621.621.621,0,0,1-.621-.621m1.522,3.131a.55.55,0,1,1,.55-.55.55.55,0,0,1-.55.55m.563-8.9a.4.4,0,1,1-.059-.569.4.4,0,0,1,.059.569m-.059-2.057a.343.343,0,1,1,.343.343.343.343,0,0,1-.343-.343m1.2,7.7a.343.343,0,1,1,.343-.343.343.343,0,0,1-.343.343m.314-1.976a.4.4,0,1,1-.059-.569.4.4,0,0,1,.059.569m-.314-2.094a.711.711,0,1,1,.711-.711.711.711,0,0,1-.711.711" transform="translate(0 0)" fill="#00b7f1"/></g></g></g></g></g></g></g></svg>