<svg xmlns="http://www.w3.org/2000/svg" xmlns:xlink="http://www.w3.org/1999/xlink" width="90" height="90" viewBox="0 0 90 90"><defs><clipPath id="a"><path d="M0-92.5H90v90H0Z" transform="translate(0 92.5)" fill="none"/></clipPath><clipPath id="b"><rect width="66.561" height="78.687" fill="none"/></clipPath></defs><g transform="translate(0 92.5)"><g transform="translate(0 -92.5)" clip-path="url(#a)"><g transform="translate(11.963 5.657)"><g clip-path="url(#b)"><path d="M178.437,21c.593.25,1.507-.576,2.042-1.845a4.15,4.15,0,0,0,.363-1.853,120.026,120.026,0,0,1,5.068-13.625c.3-.018,1.291.708,1.649.63a1.164,1.164,0,0,0,.663-1.85,1.031,1.031,0,0,1-.191-.65,1.167,1.167,0,0,0-.962-1.158,1.23,1.23,0,0,0-.245-.017,1.034,1.034,0,0,1-.782-.286A1.163,1.163,0,0,0,184.508.24a1.038,1.038,0,0,1-.668.2,1.2,1.2,0,0,0-.33.037,1.165,1.165,0,0,0,.3,2.292,6.369,6.369,0,0,1,.739.228,146.682,146.682,0,0,0-5.239,13.786,4.316,4.316,0,0,0-.976,1.469c-.535,1.269-.488,2.5.105,2.75" transform="translate(-141.805 -0.001)" fill="#00b7f1"/><path d="M49.143,87.255a1.037,1.037,0,0,1-.263-.645,1.2,1.2,0,0,0-.069-.324,1.165,1.165,0,0,0-2.252.52,6.358,6.358,0,0,1-.155.758A146.7,146.7,0,0,0,32.17,83.7c-.024-.021-.05-.041-.075-.062a7.527,7.527,0,0,0-3.877-9.424c-.012-.08-.026-.161-.042-.242a4.151,4.151,0,0,0-.737-1.738,120.007,120.007,0,0,1-3.434-14.126c.238-.182,1.466-.137,1.719-.4a1.164,1.164,0,0,0-.487-1.9,1.031,1.031,0,0,1-.522-.432,1.168,1.168,0,0,0-1.445-.421,1.208,1.208,0,0,0-.212.124,1.034,1.034,0,0,1-.808.2,1.163,1.163,0,0,0-1.33.771,1.037,1.037,0,0,1-.442.538,1.188,1.188,0,0,0-.252.215,1.165,1.165,0,0,0,1.53,1.733,6.351,6.351,0,0,1,.74-.225,146.743,146.743,0,0,0,3.382,14.355,3.506,3.506,0,0,0-.082.754A146.579,146.579,0,0,1,18.2,60.738c.167-.249,1.345-.6,1.5-.931a1.164,1.164,0,0,0-1.07-1.648A1.031,1.031,0,0,1,18,57.917a1.167,1.167,0,0,0-1.5.064,1.217,1.217,0,0,0-.162.185,1.034,1.034,0,0,1-.7.449,1.163,1.163,0,0,0-1.013,1.156,1.039,1.039,0,0,1-.247.652,1.19,1.19,0,0,0-.17.285,1.165,1.165,0,0,0,2,1.153,6.372,6.372,0,0,1,.629-.45s3.3,6.245,7.144,12.178l-.194.03A147.569,147.569,0,0,1,11.8,61.467c.106-.281,1.172-.891,1.247-1.25a1.164,1.164,0,0,0-1.42-1.359,1.032,1.032,0,0,1-.671-.09,1.182,1.182,0,0,0-.323-.094,1.168,1.168,0,0,0-1.126.5,1.2,1.2,0,0,0-.115.217,1.034,1.034,0,0,1-.58.6,1.163,1.163,0,0,0-.721,1.357A1.039,1.039,0,0,1,8,62.038a1.192,1.192,0,0,0-.1.316,1.165,1.165,0,0,0,2.214.663,6.367,6.367,0,0,1,.509-.582s5.663,6.492,11.356,11.729q-.192.086-.377.181a2.8,2.8,0,0,0-.78-.349c-4.968-3.655-7.315-5.345-8.337-6.358.063-.232.865-.8.9-1.09a.932.932,0,0,0-1.234-.974.824.824,0,0,1-.542-.021.934.934,0,0,0-1.123.434.958.958,0,0,0-.075.182.827.827,0,0,1-.416.52.93.93,0,0,0-.471,1.136.83.83,0,0,1-.02.557.962.962,0,0,0-.056.259A.932.932,0,0,0,11.259,69a5.049,5.049,0,0,1,.361-.5s3.261,2.725,8.416,6.528a2.459,2.459,0,0,0,.143.269l-.091.079a2.709,2.709,0,0,0-.58-.105A104.944,104.944,0,0,1,8.315,69.246c.021-.262.768-1.033.743-1.353a1.018,1.018,0,0,0-1.523-.8.9.9,0,0,1-.586.087,1.033,1.033,0,0,0-.294,0,1.021,1.021,0,0,0-.824.694,1.056,1.056,0,0,0-.044.21.9.9,0,0,1-.342.643,1.017,1.017,0,0,0-.276,1.315.907.907,0,0,1,.092.6,1.042,1.042,0,0,0-.007.29,1.019,1.019,0,0,0,2.021.018,5.57,5.57,0,0,1,.286-.613s4.7,2.958,10.73,5.909a2.992,2.992,0,0,0-.571.055A120.061,120.061,0,0,1,3.571,72.97c-.055-.3.542-1.369.421-1.715a1.164,1.164,0,0,0-1.918-.428,1.032,1.032,0,0,1-.621.27,1.168,1.168,0,0,0-1.03,1.1,1.219,1.219,0,0,0,.014.245,1.035,1.035,0,0,1-.187.812,1.162,1.162,0,0,0,.085,1.535,1.038,1.038,0,0,1,.28.638,1.2,1.2,0,0,0,.078.323,1.165,1.165,0,0,0,2.238-.578,6.369,6.369,0,0,1,.135-.761s6.388,1.975,14.194,3.463a96.757,96.757,0,0,1-11.091-.407c-.1-.243.226-1.267.061-1.543a1.018,1.018,0,0,0-1.718-.032.9.9,0,0,1-.485.34,1.02,1.02,0,0,0-.691,1.12,1.053,1.053,0,0,0,.055.208.9.9,0,0,1-.018.728,1.016,1.016,0,0,0,.341,1.3.907.907,0,0,1,.351.5,1.039,1.039,0,0,0,.123.263A1.019,1.019,0,0,0,6,79.459a5.591,5.591,0,0,1-.017-.676s5.256.521,11.743.5c-.049.207-.092.416-.124.63A118.948,118.948,0,0,1,3.375,81.555c-.152-.259.044-1.471-.189-1.755a1.164,1.164,0,0,0-1.949.251,1.032,1.032,0,0,1-.492.466A1.168,1.168,0,0,0,.15,81.9a1.222,1.222,0,0,0,.1.226,1.034,1.034,0,0,1,.1.827,1.163,1.163,0,0,0,.6,1.414,1.037,1.037,0,0,1,.48.5,1.2,1.2,0,0,0,.183.277A1.165,1.165,0,0,0,3.52,83.841a6.333,6.333,0,0,1-.132-.762s6.467-.309,14.15-1.52c0,.04.006.079.01.119A101.063,101.063,0,0,1,6.229,85.431c-.177-.194-.227-1.267-.477-1.468a1.018,1.018,0,0,0-1.623.565.9.9,0,0,1-.338.487,1.021,1.021,0,0,0-.26,1.29,1.056,1.056,0,0,0,.123.176.9.9,0,0,1,.235.69,1.017,1.017,0,0,0,.77,1.1.907.907,0,0,1,.5.345,1.044,1.044,0,0,0,.206.2,1.019,1.019,0,0,0,1.4-1.461,5.569,5.569,0,0,1-.25-.628s4.77-1.243,10.573-3.374A118.243,118.243,0,0,1,4.929,90.644c-.245-.173-.567-1.358-.9-1.521a1.164,1.164,0,0,0-1.672,1.032,1.032,1.032,0,0,1-.256.627,1.167,1.167,0,0,0,.029,1.5,1.216,1.216,0,0,0,.181.166,1.035,1.035,0,0,1,.433.712A1.163,1.163,0,0,0,3.879,94.2a1.037,1.037,0,0,1,.645.262,1.2,1.2,0,0,0,.281.177A1.165,1.165,0,0,0,6,92.666a6.35,6.35,0,0,1-.435-.639,146.689,146.689,0,0,0,12.7-7.5c.034,0,.069-.007.1-.011a7.518,7.518,0,0,0,.412.693c-3.687,2.9-5.962,5.05-7.037,5.631-.2-.128-.513-1.06-.783-1.176a.932.932,0,0,0-1.291.9.824.824,0,0,1-.177.512.934.934,0,0,0,.089,1.2.968.968,0,0,0,.152.125.827.827,0,0,1,.377.549.93.93,0,0,0,.95.781.778.778,0,0,1,.375.088,1.008,1.008,0,0,0-.853,1.406.9.9,0,0,1,.019.587,1.012,1.012,0,0,0,.556,1.181,1.04,1.04,0,0,0,.2.067.9.9,0,0,1,.595.41,1.008,1.008,0,0,0,1.264.422.9.9,0,0,1,.6-.022,1.041,1.041,0,0,0,.285.04.98.98,0,0,0,.326-.057c-5.315,12.268-6.583,21.1-6.855,23.647a.726.726,0,0,0,.672.8l1.356.1a.726.726,0,0,0,.778-.678c.2-3.015,1.637-15.2,12.04-33.628q.151.056.3.105c-1.755,5.632-2.443,9.491-3.056,10.751-.24.015-1.035-.562-1.321-.5a.931.931,0,0,0-.525,1.482.826.826,0,0,1,.155.519.933.933,0,0,0,.773.924.961.961,0,0,0,.2.012.828.828,0,0,1,.627.227.926.926,0,0,0,.663.274c.027,0,.054,0,.08-.007a1.12,1.12,0,0,0-.058.434,1.168,1.168,0,0,0,.478.873,1.031,1.031,0,0,1,.364.572,1.168,1.168,0,0,0,1.246.845,1.2,1.2,0,0,0,.24-.052,1.034,1.034,0,0,1,.831.057,1.163,1.163,0,0,0,1.5-.324,1.038,1.038,0,0,1,.586-.376,1.21,1.21,0,0,0,.306-.127,1.165,1.165,0,0,0-.922-2.12,6.357,6.357,0,0,1-.773-.014s.657-4.585,1.019-10.7c.639,3.877,1.248,6.446,1.228,7.544-.211.115-1.175-.075-1.409.1a.932.932,0,0,0,.147,1.565.826.826,0,0,1,.359.406.934.934,0,0,0,1.09.513.965.965,0,0,0,.183-.071.827.827,0,0,1,.664-.058.931.931,0,0,0,1.147-.443.83.83,0,0,1,.416-.37.962.962,0,0,0,.226-.139.932.932,0,0,0-.992-1.56,5.079,5.079,0,0,1-.613.085s-.777-4.434-1.526-10.034q.183-.025.362-.058a115.507,115.507,0,0,1,3.774,13.1c-.23.193-1.458.2-1.7.479a1.164,1.164,0,0,0,.572,1.88,1.032,1.032,0,0,1,.541.408,1.166,1.166,0,0,0,1.463.356,1.221,1.221,0,0,0,.206-.133,1.034,1.034,0,0,1,.8-.237,1.163,1.163,0,0,0,1.294-.83,1.037,1.037,0,0,1,.418-.558,1.2,1.2,0,0,0,.242-.226A1.165,1.165,0,0,0,32.426,101a6.354,6.354,0,0,1-.729.258s-1.333-6.1-3.724-13.3l.036-.016a2.337,2.337,0,0,0,.269.277C31.1,93.706,33.439,97.068,33.9,98.43c-.159.18-1.13.33-1.289.577a.932.932,0,0,0,.672,1.422.827.827,0,0,1,.476.26.933.933,0,0,0,1.2.111.991.991,0,0,0,.148-.129.827.827,0,0,1,.6-.281.931.931,0,0,0,.928-.807.829.829,0,0,1,.265-.49.958.958,0,0,0,.166-.207.927.927,0,0,0-.5-1.346c.006-.008.014-.015.02-.023a.827.827,0,0,1,.553-.371.931.931,0,0,0,.791-.942.83.83,0,0,1,.186-.525.959.959,0,0,0,.131-.231.932.932,0,0,0-1.623-.887,5.068,5.068,0,0,1-.5.37s-2.18-2.71-4.988-6.449a110.441,110.441,0,0,1,9.68,8.169c-.083.288-1.1.982-1.142,1.346a1.164,1.164,0,0,0,1.525,1.24,1.033,1.033,0,0,1,.677.036,1.166,1.166,0,0,0,1.412-.522,1.211,1.211,0,0,0,.1-.226,1.034,1.034,0,0,1,.53-.643,1.163,1.163,0,0,0,.61-1.411,1.036,1.036,0,0,1,.035-.7,1.208,1.208,0,0,0,.075-.323,1.165,1.165,0,0,0-2.261-.483,6.368,6.368,0,0,1-.461.621,146.7,146.7,0,0,0-11.262-9.523l-.013-.028.023-.026a2.911,2.911,0,0,0,.925.317c5.342,3.083,9.128,4.643,10.256,5.536-.037.237-.772.89-.771,1.183a.931.931,0,0,0,1.334.831.825.825,0,0,1,.541-.039.934.934,0,0,0,1.068-.556.982.982,0,0,0,.054-.189.828.828,0,0,1,.356-.563.93.93,0,0,0,.343-1.181.83.83,0,0,1-.042-.556.955.955,0,0,0,.027-.264.932.932,0,0,0-1.843-.156,5.1,5.1,0,0,1-.3.539s-4.543-2.351-9.889-5.43a115.354,115.354,0,0,1,13.129,3.5c.047.3-.577,1.354-.465,1.7a1.164,1.164,0,0,0,1.906.478,1.033,1.033,0,0,1,.628-.254,1.167,1.167,0,0,0,1.058-1.07,1.2,1.2,0,0,0-.008-.245,1.035,1.035,0,0,1,.208-.807,1.163,1.163,0,0,0-.045-1.537M12.788,94.7a3.722,3.722,0,0,1-.78-.613.931.931,0,0,0,.682-1.68,5.1,5.1,0,0,1-.375-.491s2.375-1.95,5.742-4.549A84.822,84.822,0,0,1,12.788,94.7m1.568,1.22a5.521,5.521,0,0,1-.571-.352s2.412-3,5.3-7.262C17.538,91.16,16.2,93.9,15.03,96.5a1.008,1.008,0,0,0-.675-.579m8.266,5.453a1.742,1.742,0,0,1-.657-.06.921.921,0,0,0,.311-.526.933.933,0,0,0-.918-1.116,5.072,5.072,0,0,1-.592-.18s1.159-4.344,2.833-9.735a105.013,105.013,0,0,1-.977,11.618m12.835-3.522c-.164.087-.4.2-.4.2s-.1-.17-.274-.482a.839.839,0,0,1,.483.18.939.939,0,0,0,.188.1m-1.473-1.714c-.846-1.518-2.11-3.821-3.5-6.475,2.358,2.982,4.072,4.879,4.575,5.832-.11.171-.792.411-1.074.643" transform="translate(0 -43.709)" fill="#00b7f1"/><path d="M251.463,59.145a1.215,1.215,0,0,0-.189-.157,1.034,1.034,0,0,1-.466-.69,1.163,1.163,0,0,0-1.18-.985,1.037,1.037,0,0,1-.657-.231,1.193,1.193,0,0,0-.289-.163,1.165,1.165,0,0,0-1.1,2.031,6.363,6.363,0,0,1,.465.618,146.714,146.714,0,0,0-12.326,8.1,4.32,4.32,0,0,0-1.652.619c-1.177.715-1.86,1.739-1.526,2.29s1.559.417,2.736-.3a4.148,4.148,0,0,0,1.38-1.289,120.029,120.029,0,0,1,12.092-8.069c.253.161.631,1.33.967,1.477a1.164,1.164,0,0,0,1.622-1.11,1.031,1.031,0,0,1,.226-.639,1.167,1.167,0,0,0-.1-1.5" transform="translate(-185.229 -45.291)" fill="#00b7f1"/><path d="M207.49,56.469a5.057,5.057,0,0,1,.524.328s-1.845,2.407-5.306,7.8a3.453,3.453,0,0,0-1.056.936c-.674.871-.89,1.833-.482,2.148s1.283-.137,1.957-1.008a3.321,3.321,0,0,0,.661-1.359c3.326-5.194,4.2-6.624,5.141-7.709.235.048.853.812,1.146.825a.932.932,0,0,0,.892-1.295.824.824,0,0,1-.014-.542.933.933,0,0,0-.506-1.092.965.965,0,0,0-.186-.063.827.827,0,0,1-.546-.382.93.93,0,0,0-1.164-.4.83.83,0,0,1-.557.016.954.954,0,0,0-.263-.039.932.932,0,0,0-.241,1.834" transform="translate(-160.135 -43.497)" fill="#00b7f1"/><path d="M185.586,180.9a.83.83,0,0,1-.284-.48.96.96,0,0,0-.093-.249.932.932,0,0,0-1.722.675,5.106,5.106,0,0,1-.034.618s-4.215-.538-10.607-.963a3.451,3.451,0,0,0-1.329-.472c-1.089-.169-2.035.107-2.113.616s.74,1.058,1.828,1.226a3.322,3.322,0,0,0,1.509-.078c6.154.4,9.042.559,10.449.861.072.229-.3,1.139-.168,1.4a.932.932,0,0,0,1.565.155.824.824,0,0,1,.467-.274.934.934,0,0,0,.712-.971.973.973,0,0,0-.035-.193.828.828,0,0,1,.07-.663.93.93,0,0,0-.215-1.211" transform="translate(-134.983 -143.18)" fill="#00b7f1"/><path d="M207.564,134.962a.827.827,0,0,1-.248-.618.93.93,0,0,0-.758-.969.83.83,0,0,1-.475-.291.953.953,0,0,0-.2-.176.932.932,0,0,0-1.2,1.4,5.078,5.078,0,0,1,.26.561s-1.744.7-7.589,3.324a3.452,3.452,0,0,0-1.4.206c-1.04.361-1.747,1.049-1.578,1.535s1.149.587,2.19.226a3.32,3.32,0,0,0,1.3-.776c5.624-2.53,6.018-2.946,7.4-3.339.171.169.27,1.146.509,1.318a.932.932,0,0,0,1.455-.6.825.825,0,0,1,.284-.462.934.934,0,0,0,.174-1.192.96.96,0,0,0-.121-.155" transform="translate(-154.866 -105.783)" fill="#00b7f1"/><path d="M145.668,53.8a5.079,5.079,0,0,1,.618.016s-.469,5.55-.714,11.952a3.451,3.451,0,0,0-.434,1.342c-.138,1.093.164,2.031.675,2.1s1.037-.769,1.174-1.862a3.322,3.322,0,0,0-.121-1.506c.228-6.163.354-10.377.616-11.791.227-.078,1.147.266,1.406.129A.932.932,0,0,0,149,52.61a.825.825,0,0,1-.287-.46.934.934,0,0,0-.991-.684.96.96,0,0,0-.192.04.828.828,0,0,1-.664-.052.93.93,0,0,0-1.2.249.83.83,0,0,1-.472.3.956.956,0,0,0-.246.1.932.932,0,0,0,.723,1.7" transform="translate(-115.129 -40.903)" fill="#00b7f1"/><path d="M266.358,31.478a2.748,2.748,0,0,0,.969-.918c4.408-3.242,5.582-4.149,6.723-4.743.194.119.52.966.774,1.075a.849.849,0,0,0,.9-.131.78.78,0,0,0,.255-.656.693.693,0,0,1,.142-.459.768.768,0,0,0,.105-.213.863.863,0,0,0-.239-.872.986.986,0,0,0-.146-.115.815.815,0,0,1-.372-.5.911.911,0,0,0-.376-.556.92.92,0,0,0-.536-.166.825.825,0,0,1-.5-.172.977.977,0,0,0-.22-.12.817.817,0,0,0-.735,1.456,5.1,5.1,0,0,1,.368.45s-2.31,1.4-6.894,4.763a3.038,3.038,0,0,0-1.2.432c-.842.505-1.306,1.239-1.037,1.639s1.169.315,2.01-.191" transform="translate(-210.581 -18.221)" fill="#00b7f1"/></g></g></g></g></svg>