<svg xmlns="http://www.w3.org/2000/svg" width="45" height="28" viewBox="0 0 45 28"><g transform="translate(0 0.006)"><g transform="translate(0 -0.006)"><rect width="44.893" height="28" transform="translate(0.107)" fill="#032774"/><g transform="translate(0 0.007)"><path d="M44.707-4.974v3.086L49.65-4.974Z" transform="translate(-44.707 14.225)" fill="#032774"/><path d="M54.934-15.211h-6.78l6.78,4.233Z" transform="translate(-45.657 15.211)" fill="#032774"/><path d="M44.707-13.5v3.086H49.65Z" transform="translate(-44.707 15.047)" fill="#032774"/><path d="M73.552-10.415V-13.5l-4.944,3.086Z" transform="translate(-51.293 15.047)" fill="#032774"/><path d="M69.405-15.211h-6.78v4.233Z" transform="translate(-49.644 15.211)" fill="#032774"/><path d="M73.552-1.887V-4.974H68.608Z" transform="translate(-51.293 14.225)" fill="#032774"/><path d="M48.154-.3h6.78V-4.532Z" transform="translate(-45.657 14.183)" fill="#032774"/><path d="M62.626-.3h6.78l-6.78-4.233Z" transform="translate(-49.644 14.183)" fill="#032774"/><path d="M59.526-5.96h1.662l5.777,3.607v-.521L62.022-5.96h4.944v-4.62H62.022l4.944-3.086v-1.545h-.012L59.536-10.58H57.873l7.418-4.631h-.824l-6.78,4.233v-4.233h-3.7v4.233L47.2-15.211H44.718l7.418,4.631H50.474l-5.767-3.6v.514L49.65-10.58H44.707v4.62H49.65L44.707-2.874v1.545h0L52.126-5.96h1.662L46.37-1.328H47.2l6.78-4.233v4.233h3.7V-5.561l6.78,4.233h2.476Z" transform="translate(-44.707 15.211)" fill="#fff"/><path d="M44.707-14.181l5.767,3.6h1.662l-7.418-4.631h-.011Z" transform="translate(-44.707 15.211)" fill="#df0333"/><path d="M65.162-4.974,72.58-.342H72.6V-1.367L66.825-4.974Z" transform="translate(-50.343 14.225)" fill="#df0333"/><path d="M62.882-10.58h1.663l7.418-4.631H70.3Z" transform="translate(-49.715 15.211)" fill="#df0333"/><path d="M53.789-4.974H52.126L44.708-.342h1.662Z" transform="translate(-44.707 14.225)" fill="#df0333"/><path d="M66.966-9.658H56.949v-5.553H54.723v5.553H44.707v2.777H54.723v5.553h2.226V-6.881H66.966Z" transform="translate(-44.707 15.211)" fill="#df0333"/></g><g transform="translate(7.874 2.647)"><path d="M58.828,9.286,57.38,11.144l.262-2.57-2.067-.253L57.35,6.974,56.22,4.8l1.95.89.658-2.456.657,2.456,1.95-.89-1.13,2.173,1.773,1.347-2.066.253.262,2.57Z" transform="translate(-55.576 10.794)" fill="#fff"/><path d="M90.219,11.1l-.693.889.125-1.23-.99-.121.85-.645L88.97,8.949l.933.426L90.219,8.2l.315,1.176.934-.426-.541,1.041.849.645-.99.121.126,1.23Z" transform="translate(-64.693 10.316)" fill="#fff"/><path d="M82.533-1.07l-.693.889.126-1.23-.99-.121.849-.645-.541-1.041.934.426.315-1.176.315,1.176.934-.426-.541,1.041.849.645-.989.121.125,1.23Z" transform="translate(-62.575 11.488)" fill="#fff"/><path d="M90.216-9.392l-.693.89.125-1.23-.989-.121.849-.645-.541-1.041.934.426.315-1.176.315,1.176.934-.426L90.925-10.5l.849.645-.99.121L90.91-8.5Z" transform="translate(-64.692 12.289)" fill="#fff"/><path d="M97.034-3.12l-.693.889.126-1.23-.99-.121.849-.645-.541-1.041.934.426.315-1.176.315,1.176.933-.426-.541,1.041.85.645-.99.121.125,1.23Z" transform="translate(-66.571 11.685)" fill="#fff"/><path d="M93.537,1.8l-.563.469.183-.813L92.626.937,93.3.9l.235-.792L93.772.9l.676.033-.531.524.183.813Z" transform="translate(-65.785 11.095)" fill="#fff"/></g></g></g></svg>