<svg xmlns="http://www.w3.org/2000/svg" width="45" height="28" viewBox="0 0 45 28"><rect width="11.243" height="28" fill="#d42b1e"/><rect width="22.514" height="28" transform="translate(11.243)" fill="#f7f7f7"/><rect width="11.243" height="28" transform="translate(33.757)" fill="#d42b1e"/><path d="M-9.334,36.659l4.262-3.846-1-.472a.342.342,0,0,1-.172-.4l.79-3.144-2.563.61a.3.3,0,0,1-.356-.252l-.278-1.334-2.073,2.552a.37.37,0,0,1-.632-.354l.953-5.184-1.383.785a.4.4,0,0,1-.563-.195l-1.539-3.164-1.538,3.164a.4.4,0,0,1-.565.195l-1.383-.785.953,5.184a.37.37,0,0,1-.632.354l-2.073-2.552-.278,1.334a.3.3,0,0,1-.356.252l-2.563-.61.79,3.144a.342.342,0,0,1-.172.4l-1,.472,4.264,3.846a.7.7,0,0,1,.184.726l-.383,1.22L-14.5,38a.345.345,0,0,1,.372.374l-.122,4.9h.737l-.122-4.9A.345.345,0,0,1-13.265,38l4.129.606-.384-1.22A.705.705,0,0,1-9.334,36.659Z" transform="translate(36.385 -18.771)" fill="#d42b1e"/></svg>