<svg xmlns="http://www.w3.org/2000/svg" width="45" height="28" viewBox="0 0 45 28"><g transform="translate(0.492)"><g transform="translate(-0.492)"><rect width="44.509" height="2.154" transform="translate(0.491 19.383)" fill="#f7f7f7"/><rect width="44.509" height="2.153" transform="translate(0.491 17.23)" fill="#b12233"/><rect width="44.509" height="2.154" transform="translate(0.491 15.077)" fill="#f7f7f7"/><rect width="44.509" height="2.153" transform="translate(0.491 21.537)" fill="#b12233"/><rect width="44.509" height="2.153" transform="translate(0.491 25.847)" fill="#b12233"/><rect width="44.509" height="2.154" transform="translate(0.491 23.69)" fill="#f7f7f7"/><rect width="44.884" transform="translate(0 27.947)" fill="#fff"/><rect width="44.509" height="2.154" transform="translate(0.491 2.153)" fill="#f7f7f7"/><rect width="44.509" height="2.153" transform="translate(0.491)" fill="#b12233"/><rect width="44.509" height="2.153" transform="translate(0.491 4.307)" fill="#b12233"/><rect width="44.509" height="2.153" transform="translate(0.491 8.617)" fill="#b12233"/><rect width="44.509" height="2.154" transform="translate(0.491 6.46)" fill="#f7f7f7"/><rect width="44.509" height="2.154" transform="translate(0.491 10.77)" fill="#f7f7f7"/><rect width="44.509" height="2.153" transform="translate(0.491 12.922)" fill="#b12233"/><rect width="17.802" height="15.076" transform="translate(0.491)" fill="#3c3b6d"/><path d="M3.526,25.095l.165.606h.534l-.432.374.165.606-.431-.374-.431.374.165-.606L2.828,25.7h.534Z" transform="translate(-1.554 -24.378)" fill="#fff"/><path d="M6,25.095l.165.606H6.7l-.432.374.165.606L6,26.307l-.431.374.165-.606L5.305,25.7h.533Z" transform="translate(10.807 -24.378)" fill="#fff"/><path d="M5.508,25.095l.165.606h.533l-.431.374.165.606-.431-.374-.432.374.165-.606L4.81,25.7h.534Z" transform="translate(8.335 -24.378)" fill="#fff"/><path d="M5.012,25.095l.165.606h.534l-.431.374.165.606-.432-.374-.431.374.165-.606L4.314,25.7h.533Z" transform="translate(5.863 -24.378)" fill="#fff"/><path d="M4.517,25.095l.165.606h.533l-.431.374.165.606-.431-.374-.432.374.165-.606L3.819,25.7h.534Z" transform="translate(3.39 -24.378)" fill="#fff"/><path d="M4.021,25.095l.165.606H4.72l-.431.374.165.606-.432-.374-.431.374.165-.606L3.324,25.7h.533Z" transform="translate(0.919 -24.378)" fill="#fff"/><path d="M3.526,25.516l.165.606h.534l-.432.374.165.606-.431-.374L3.1,27.1,3.26,26.5l-.432-.374h.534Z" transform="translate(-1.554 -21.787)" fill="#fff"/><path d="M6,25.516l.165.606H6.7L6.27,26.5l.165.606L6,26.728l-.431.374.165-.606-.431-.374h.533Z" transform="translate(10.807 -21.787)" fill="#fff"/><path d="M5.508,25.516l.165.606h.533l-.431.374.165.606-.431-.374-.432.374.165-.606-.432-.374h.534Z" transform="translate(8.335 -21.787)" fill="#fff"/><path d="M5.012,25.516l.165.606h.534l-.431.374.165.606-.432-.374-.431.374.165-.606-.431-.374h.533Z" transform="translate(5.863 -21.787)" fill="#fff"/><path d="M4.517,25.516l.165.606h.533l-.431.374.165.606-.431-.374-.432.374.165-.606-.432-.374h.534Z" transform="translate(3.39 -21.787)" fill="#fff"/><path d="M4.021,25.516l.165.606H4.72l-.431.374.165.606-.432-.374L3.59,27.1l.165-.606-.431-.374h.533Z" transform="translate(0.919 -21.787)" fill="#fff"/><path d="M3.526,25.937l.165.606h.534l-.432.374.165.606-.431-.374-.431.374.165-.606-.432-.374h.534Z" transform="translate(-1.554 -19.193)" fill="#fff"/><path d="M6,25.937l.165.606H6.7l-.432.374.165.606L6,27.149l-.431.374.165-.606-.431-.374h.533Z" transform="translate(10.807 -19.193)" fill="#fff"/><path d="M5.508,25.937l.165.606h.533l-.431.374.165.606-.431-.374-.432.374.165-.606-.432-.374h.534Z" transform="translate(8.335 -19.193)" fill="#fff"/><path d="M5.012,25.937l.165.606h.534l-.431.374.165.606-.432-.374-.431.374.165-.606-.431-.374h.533Z" transform="translate(5.863 -19.193)" fill="#fff"/><path d="M4.517,25.937l.165.606h.533l-.431.374.165.606-.431-.374-.432.374.165-.606-.432-.374h.534Z" transform="translate(3.39 -19.193)" fill="#fff"/><path d="M4.021,25.937l.165.606H4.72l-.431.374.165.606-.432-.374-.431.374.165-.606-.431-.374h.533Z" transform="translate(0.919 -19.193)" fill="#fff"/><path d="M3.526,26.358l.165.606h.534l-.432.374.165.606-.431-.374-.431.374.165-.606-.432-.374h.534Z" transform="translate(-1.554 -16.602)" fill="#fff"/><path d="M6,26.358l.165.606H6.7l-.432.374.165.606L6,27.57l-.431.374.165-.606-.431-.374h.533Z" transform="translate(10.807 -16.602)" fill="#fff"/><path d="M5.508,26.358l.165.606h.533l-.431.374.165.606-.431-.374-.432.374.165-.606-.432-.374h.534Z" transform="translate(8.335 -16.602)" fill="#fff"/><path d="M5.012,26.358l.165.606h.534l-.431.374.165.606-.432-.374-.431.374.165-.606-.431-.374h.533Z" transform="translate(5.863 -16.602)" fill="#fff"/><path d="M4.517,26.358l.165.606h.533l-.431.374.165.606-.431-.374-.432.374.165-.606-.432-.374h.534Z" transform="translate(3.39 -16.602)" fill="#fff"/><path d="M4.021,26.358l.165.606H4.72l-.431.374.165.606-.432-.374-.431.374.165-.606-.431-.374h.533Z" transform="translate(0.919 -16.602)" fill="#fff"/><path d="M3.526,26.78l.165.606h.534l-.432.375.165.605-.431-.374-.431.374.165-.605-.432-.375h.534Z" transform="translate(-1.554 -14.005)" fill="#fff"/><path d="M6,26.78l.165.606H6.7l-.432.375.165.605L6,27.992l-.431.374.165-.605-.431-.375h.533Z" transform="translate(10.807 -14.005)" fill="#fff"/><path d="M5.508,26.78l.165.606h.533l-.431.375.165.605-.431-.374-.432.374.165-.605-.432-.375h.534Z" transform="translate(8.335 -14.005)" fill="#fff"/><path d="M5.012,26.78l.165.606h.534l-.431.375.165.605-.432-.374-.431.374.165-.605-.431-.375h.533Z" transform="translate(5.863 -14.005)" fill="#fff"/><path d="M4.517,26.78l.165.606h.533l-.431.375.165.605-.431-.374-.432.374.165-.605-.432-.375h.534Z" transform="translate(3.39 -14.005)" fill="#fff"/><path d="M4.021,26.78l.165.606H4.72l-.431.375.165.605-.432-.374-.431.374.165-.605-.431-.375h.533Z" transform="translate(0.919 -14.005)" fill="#fff"/><path d="M5.756,26.569l.165.606h.534l-.432.374.165.606-.431-.375-.431.375.165-.606-.432-.374h.534Z" transform="translate(9.571 -15.302)" fill="#fff"/><path d="M5.261,26.569l.165.606h.533l-.431.374.165.606-.431-.375-.432.375.165-.606-.431-.374H5.1Z" transform="translate(7.099 -15.302)" fill="#fff"/><path d="M4.765,26.569l.165.606h.534l-.432.374.165.606-.431-.375-.431.375.165-.606-.432-.374H4.6Z" transform="translate(4.627 -15.302)" fill="#fff"/><path d="M4.27,26.569l.165.606h.533l-.431.374.165.606L4.27,27.78l-.432.375L4,27.549l-.431-.374H4.1Z" transform="translate(2.154 -15.302)" fill="#fff"/><path d="M3.774,26.569l.165.606h.534l-.432.374.165.606-.432-.375-.431.375.165-.606-.432-.374h.534Z" transform="translate(-0.318 -15.302)" fill="#fff"/><path d="M5.756,26.148l.165.605h.534l-.432.375.165.606-.431-.375-.431.375.165-.606-.432-.375h.534Z" transform="translate(9.571 -17.897)" fill="#fff"/><path d="M5.261,26.148l.165.605h.533l-.431.375.165.606-.431-.375-.432.375.165-.606-.431-.375H5.1Z" transform="translate(7.099 -17.897)" fill="#fff"/><path d="M4.765,26.148l.165.605h.534l-.432.375.165.606-.431-.375-.431.375.165-.606-.432-.375H4.6Z" transform="translate(4.627 -17.897)" fill="#fff"/><path d="M4.27,26.148l.165.605h.533l-.431.375.165.606-.431-.375-.432.375L4,27.128l-.431-.375H4.1Z" transform="translate(2.154 -17.897)" fill="#fff"/><path d="M3.774,26.148l.165.605h.534l-.432.375.165.606-.432-.375-.431.375.165-.606-.432-.375h.534Z" transform="translate(-0.318 -17.897)" fill="#fff"/><path d="M5.756,25.727l.165.606h.534l-.432.375.165.606-.431-.375-.431.375.165-.606-.432-.375h.534Z" transform="translate(9.571 -20.49)" fill="#fff"/><path d="M5.261,25.727l.165.606h.533l-.431.375.165.606-.431-.375-.432.375.165-.606-.431-.375H5.1Z" transform="translate(7.099 -20.49)" fill="#fff"/><path d="M4.765,25.727l.165.606h.534l-.432.375.165.606-.431-.375-.431.375.165-.606-.432-.375H4.6Z" transform="translate(4.627 -20.49)" fill="#fff"/><path d="M4.27,25.727l.165.606h.533l-.431.375.165.606-.431-.375-.432.375L4,26.707l-.431-.375H4.1Z" transform="translate(2.154 -20.49)" fill="#fff"/><path d="M3.774,25.727l.165.606h.534l-.432.375.165.606-.432-.375-.431.375.165-.606-.432-.375h.534Z" transform="translate(-0.318 -20.49)" fill="#fff"/><path d="M5.756,25.305l.165.606h.534l-.432.375.165.606-.431-.375-.431.375.165-.606-.432-.375h.534Z" transform="translate(9.571 -23.081)" fill="#fff"/><path d="M5.261,25.305l.165.606h.533l-.431.375.165.606-.431-.375-.432.375.165-.606-.431-.375H5.1Z" transform="translate(7.099 -23.081)" fill="#fff"/><path d="M4.765,25.305l.165.606h.534l-.432.375.165.606-.431-.375-.431.375.165-.606-.432-.375H4.6Z" transform="translate(4.627 -23.081)" fill="#fff"/><path d="M4.27,25.305l.165.606h.533l-.431.375.165.606-.431-.375-.432.375L4,26.286l-.431-.375H4.1Z" transform="translate(2.154 -23.081)" fill="#fff"/><path d="M3.774,25.305l.165.606h.534l-.432.375.165.606-.432-.375-.431.375.165-.606-.432-.375h.534Z" transform="translate(-0.318 -23.081)" fill="#fff"/></g></g></svg>