<svg xmlns="http://www.w3.org/2000/svg" width="45" height="28" viewBox="0 0 45 28"><g transform="translate(0 0)"><g transform="translate(0)"><path d="M15.114,26.068v6.225l9.994-6.225Z" transform="translate(-15.114 -7.409)" fill="#04247b"/><path d="M32.189,16.067H18.482L32.189,24.6Z" transform="translate(-13.433 -16.067)" fill="#04247b"/><path d="M15.114,17.737v6.225h9.994Z" transform="translate(-15.114 -14.621)" fill="#04247b"/><path d="M48.458,23.962V17.737l-9.994,6.225Z" transform="translate(-3.458 -14.621)" fill="#04247b"/><path d="M46.325,16.067H32.619V24.6Z" transform="translate(-6.375 -16.067)" fill="#04247b"/><path d="M48.458,32.293V26.068H38.464Z" transform="translate(-3.458 -7.409)" fill="#04247b"/><path d="M18.482,35.036H32.189V26.5Z" transform="translate(-13.433 -7.036)" fill="#04247b"/><path d="M32.619,35.036H46.325L32.619,26.5Z" transform="translate(-6.375 -7.036)" fill="#04247b"/><path d="M45.073,34.726h3.361L60.114,42v-1.05L50.12,34.726h9.994V25.408H50.12l9.994-6.225V16.067h-.024l-15,9.341H41.734l15-9.341H55.064L41.358,24.6V16.067H33.87V24.6L20.164,16.067H15.138l15,9.341h-3.36L15.114,18.145v1.037l9.994,6.225H15.114v9.318h9.994l-9.994,6.225v3.116h0l15-9.341h3.361l-15,9.341h1.686L33.87,35.529v8.538h7.488V35.529l13.706,8.538H60.07Z" transform="translate(-15.114 -16.067)" fill="#f7f7f7"/><path d="M15.114,18.145l11.659,7.263h3.36l-15-9.341h-.024Z" transform="translate(-15.114 -16.067)" fill="#ce152a"/><path d="M35.1,26.068l15,9.341h.044V33.343l-11.68-7.275Z" transform="translate(-5.138 -7.409)" fill="#ce152a"/><path d="M32.87,25.408h3.361l15-9.341H47.866Z" transform="translate(-6.25 -16.067)" fill="#ce152a"/><path d="M33.473,26.068H30.112l-15,9.341h3.36Z" transform="translate(-15.113 -7.409)" fill="#ce152a"/><path d="M60.114,27.266H39.865v-11.2h-4.5v11.2H15.114v5.6h20.25v11.2h4.5v-11.2h20.25Z" transform="translate(-15.114 -16.067)" fill="#ce152a"/></g></g></svg>