<?xml version="1.0" encoding="UTF-8"?><svg id="a" xmlns="http://www.w3.org/2000/svg" width="29.613998413085938" height="29.613998413085938" viewBox="0 0 29.613998413085938 29.613998413085938"><g id="b"><g id="c"><path id="d" d="m14.806999206542969,0c8.177680969238281,0,14.806999206542969,6.62932014465332,14.806999206542969,14.806999206542969,0,8.177680969238281-6.629318237304688,14.806999206542969-14.806999206542969,14.806999206542969C6.62932014465332,29.613998413085938,0,22.98468017578125,0,14.806999206542969h0C0,6.62932014465332,6.62932014465332,0,14.806999206542969,0Zm-.794998168945312,21.659999847412109l-5.399999618530273-5.465000152587891c-.367740631103516-.353813171386719-.379030227661133-.938751220703125-.025217056274414-1.306491851806641.353815078735352-.367740631103516.938749313354492-.3790283203125,1.306489944458008-.025215148925781.008398056030273.008079528808594.016641616821289.016315460205078.024726867675781.024707794189453l3.636999130249023,3.646999359130859c.179000854492188.179000854492188.325000762939453.116001129150391.325000762939453-.13800048828125v-10.065999984741211c-.01678466796875-.510034561157227.383071899414062-.937107086181641.893108367919922-.953891754150391s.937107086181641.383071899414062.953891754150391.893108367919922c.000667572021484.020256042480469.000667572021484.04052734375,0,.060783386230469v10.069002151489258c0,.255001068115234.145000457763672.318000793457031.324001312255859.13800048828125l3.637001037597656-3.647998809814453c.359813690185547-.362297058105469.945198059082031-.364311218261719,1.3074951171875-.004497528076172.362300872802734.359809875488281.364315032958984.945198059082031.004501342773438,1.3074951171875l-5.361000061035156,5.459999084472656c-.436538696289062.450618743896484-1.155723571777344.4620361328125-1.606346130371094.025497436523438-.00628662109375-.006095886230469-.012508392333984-.012260437011719-.018653869628906-.018497467041016h-.001998901367188Zm.794998168945312-19.809000015258789C7.650493621826172,1.85099983215332,1.8489990234375,7.652494430541992,1.8489990234375,14.809001922607422c0,7.156505584716797,5.801494598388672,12.958000183105469,12.958000183105469,12.958000183105469s12.958000183105469-5.801494598388672,12.958000183105469-12.958000183105469v-.000003814697266c0-7.156505584716797-5.801494598388672-12.957998275756836-12.958000183105469-12.957998275756836Z" fill="#7c7c80" fill-rule="evenodd"/></g></g></svg>