<?xml version="1.0" encoding="UTF-8"?><svg id="a" xmlns="http://www.w3.org/2000/svg" width="33.639999389648438" height="32.226999284754129" viewBox="0 0 33.639999389648438 32.226999284754129"><path id="b" d="m8.737000465393066,23.892999649047852c-.000552177429199-4.465221405029297,3.618777275085449-8.085448265075684,8.084000587463379-8.086000442504883,4.465221405029297-.000552177429199,8.085447311401367,3.618778228759766,8.08599853515625,8.083999633789062.000553131103516,4.465221405029297-3.618776321411133,8.085447311401367-8.083999633789062,8.086000442504883h-.00200080871582c-4.46444034576416-.000553131103516-8.083446502685547-3.619560241699219-8.083998680114746-8.083999633789062Zm2.026000022888184,0c0,3.346292495727539,2.712706565856934,6.059000015258789,6.059000015258789,6.059000015258789,3.346294403076172,0,6.059000015258789-2.712705612182617,6.059000015258789-6.059000015258789,0-3.346292495727539-2.712705612182617-6.059000015258789-6.059000015258789-6.059000015258789h0c-3.346293449401855-.000553131103516-6.059447288513184,2.711706161499023-6.060000419616699,6.058000564575195v.000999450683594h.00100040435791Zm5.343999862670898,3.968999862670898c-.390535354614258-.395261764526367-.396733283996582-1.029178619384766-.013999938964844-1.431999206542969l.005999565124512-.006000518798828c.192416191101074-.189594268798828.450884819030762-.297140121459961.720999717712402-.299999237060547.262235641479492-.00132942199707.51417350769043.101966857910156.700000762939453.28700065612793.392107009887695.39460563659668.3983154296875,1.029802322387695.013999938964844,1.431999206542969-.383335113525391.3975830078125-1.016393661499023.409133911132812-1.413978576660156.025798797607422-.003362655639648-.003242492675781-.00670337677002-.006507873535156-.010021209716797-.009798049926758l-.003000259399414.002998352050781Zm-.300000190734863-3.333000183105469v-3.892999649047852c.059000015258789-.494098663330078.50545597076416-.848136901855469.999999046325684-.792999267578125.494218826293945-.054010391235352.939975738525391.299474716186523,1,.792999267578125v3.893999099731445c-.06102180480957.492717742919922-.5064697265625.845069885253906-1,.791000366210938-.493803024291992.056779861450195-.94013786315918-.297496795654297-.996918678283691-.791297912597656-.000026702880859-.000234603881836-.000053405761719-.000467300415039-.000080108642578-.000701904296875h-.003000259399414Zm10.91300106048584-1.040000915527344c-.559188842773438.017580032348633-1.026750564575195-.421480178833008-1.044330596923828-.980669021606445s.421480178833008-1.026750564575195.980669021606445-1.044330596923828c.021215438842773-.000667572021484.042446136474609-.000667572021484.063661575317383,0h2.829998016357422c1.002103805541992-.000547409057617,1.814796447753906-.811897277832031,1.817001342773438-1.813999176025391V4.089999914169312c-.002748489379883-1.002198696136475-.814802169799805-1.81380295753479-1.817001342773438-1.815999984741211H4.092000007629395c-1.002264261245728.001651763916016-1.814348220825195.813735723495483-1.815999984741211,1.815999984741211v15.559999704360962c.000000238418579,1.003110885620117.812889337539673,1.816448211669922,1.815999984741211,1.816999435424805h2.828000068664551c.559188365936279.017580032348633.99824857711792.485141754150391.980669021606445,1.044330596923828-.01680326461792.534494400024414-.446175098419189.963865280151367-.980669021606445.980669021606445h-2.828000068664551c-2.120735645294189-.002754211425781-3.839245015988126-1.721263885498047-3.842000007629395-3.841999053955078V4.089999914169312c.003855662420392-2.119954824447632,1.722043514251709-3.837248178431764,3.842000007629395-3.839999914169312h25.457999229431152c2.119630813598633.002754489891231,3.837245941162109,1.720368504524231,3.840000152587891,3.839999914169312v15.559999704360962c-.002754211425781,2.119630813598633-1.720369338989258,3.837245941162109-3.840000152587891,3.840000152587891l-2.829998016357422-.001001358032227Zm2.112998962402344-3.12299919128418l-7.072999954223633-7.072999954223633c-.38911247253418-.401216506958008-.379299163818359-1.041904449462891.021917343139648-1.431015968322754.392160415649414-.380329132080078,1.015392303466797-.380764961242676,1.408082962036133-.000984191894531l7.072999954223633,7.071999549865723c.395992279052734.392862319946289.398529052734375,1.032352447509766.005666732788086,1.4283447265625-.190530776977539.192049026489258-.450141906738281.29963493347168-.720666885375977.298654556274414h-.006999969482422c-.264501571655273-.000585556030273-.517997741699219-.105937957763672-.704999923706055-.292997360229492l-.003000259399414-.001001358032227Zm-24.743999481201172.294000625610352c-.557803869247437.002021789550781-1.011632680892944-.448528289794922-1.013654708862305-1.006332397460938-.000980615615845-.270524978637695.106605768203735-.530136108398438.298654794692993-.720666885375977l7.075999021530151-7.071000099182129c.401760101318359-.388550758361816,1.042433738708496-.377842903137207,1.430984497070312.023917198181152.379779815673828.392691612243652.379344940185547,1.015922546386719-.000984191894531,1.408082962036133l-7.072999954223633,7.070999145507812c-.186199188232422.190929412841797-.441310882568359.299026489257812-.70799994468689.299999237060547l-.009999513626099-.004999160766602Zm12.729000091552734-7.059000015258789c-.837605476379395.002211570739746-1.654241561889648-.261829376220703-2.331999778747559-.753999710083008L3.499000072479248,4.913000106811523c-.448588848114014-.334318161010742-.541223287582397-.968989610671997-.206905364990234-1.417578220367432.32695460319519-.438708543777466.943195819854736-.538509845733643,1.391905307769775-.225421905517578l10.989999771118164,7.938000202178955c.682016372680664.503915786743164,1.612983703613281.503915786743164,2.295000076293945,0l10.988000869750977-7.938000202178955c.452873229980469-.327780961990356,1.085718154907227-.226373672485352,1.41349983215332.226499795913696s.226373672485352,1.085718870162964-.226499557495117,1.413500070571899l-10.988000869750977,7.940000534057617c-.675928115844727.490791320800781-1.489683151245117.755393028259277-2.325000762939453.755999565124512l-.012998580932617-.005000114440918Z" fill="#7c7c80" stroke="#fff" stroke-width=".5"/></svg>