<?xml version="1.0" encoding="UTF-8"?><svg id="a" xmlns="http://www.w3.org/2000/svg" width="30.775001049042658" height="36.400727372448273" viewBox="0 0 30.775001049042658 36.400727372448273"><g id="b"><path id="c" d="m30.024000644684747,4.62103271484375S24.721000850201563.75,15.386000633239746.75C6.051000595092773.75.75,4.6209716796875.75,4.6209716796875v15.867004394530341c0,9.75201416015625,14.63599967956543,15.114013671875,14.63599967956543,15.114013671875,0,0,14.639001369477228-5.36199951171875,14.639001369477228-15.114013671875,0-13.347961425780341-.00100040435791-15.866943359374091-.00100040435791-15.866943359374091Zm-4.737999796867371,20.558959960936591c-1.186292864382267,1.5430908203125-2.616013169288635,2.88262939453125-4.232999920845032,3.96600341796875-1.779245376586914,1.22772216796875-3.677868843078613,2.27264404296875-5.667000293732599,3.1190185546875-2.014452934265137-.8583984375-3.936347961425781-1.9195556640625-5.736000061035156-3.1669921875-1.601595878601074-1.08123779296875-3.01644229888916-2.416015625-4.189000129699707-3.9520263671875-1.071933746337891-1.3768310546875-1.673145294189453-3.06158447265625-1.715000152587891-4.80596923828125V6.625c.776224136352539-.4219970703125,1.580827713012695-.78955078125,2.407999038696289-1.0999755859375,5.968019485473633-2.1514892578125,12.499980926514581-2.1514892578125,18.468000411988214,0,.826838612556458.31048583984375,1.631108283996582.67803955078125,2.407000064849854,1.0999755859375v13.715026855467841c-.043535947799683,1.7591552734375-.654976367950439,3.45697021484375-1.742998957633972,4.8399658203125Z" fill="#7c7c80" stroke="#fff" stroke-width="1.5"/><path id="d" d="m23.601000308991388,12.6280517578125l-10.336999416352228,11.367004394530341-6.087999820709229-6.700012207030341,2.400000095367432-2.635009765625,3.691999912261963,4.059997558592841,7.94099998474212-8.732971191405341,2.391999244689941,2.6409912109375Z" fill="#7c7c80" stroke="#fff" stroke-width="1.5"/></g></svg>