<?xml version="1.0" encoding="UTF-8"?><svg id="a" xmlns="http://www.w3.org/2000/svg" width="86.001998901368097" height="85.7030029296875" xmlns:xlink="http://www.w3.org/1999/xlink" viewBox="0 0 86.001998901368097 85.7030029296875"><defs><clipPath id="d"><rect width="86.000000000000909" height="85.7030029296875" fill="none"/></clipPath></defs><path id="b" d="m.767000019550323,70.946998596191406v14.559005737304688h5.67900013923645v-1.458999633789062h-3.647000074386597v-5.333999633789062h2.931999921798706v-1.444000244140625h-2.931999921798706v-4.822006225585938h3.615000009536743v-1.5H.767000019550323Z" fill="#4498d8"/><g id="c"><g clip-path="url(#d)"><g id="e"><path id="f" d="m7.921000003814697,75.115993499755859h1.915999412536621v1.009002685546875c.666866302490234-.707046508789062,1.583019256591797-1.126388549804688,2.554000854492188-1.16900634765625,1.239999771118164,0,1.565000534057617,1.117996215820312,1.565000534057617,2.121002197265625v8.412994384765625h-1.915000915527344v-7.837997436523438c0-.740997314453125-.166000366210938-1.16900634765625-.830999374389648-1.16900634765625-.506301879882812.062698364257812-.978960037231445.286758422851562-1.347999572753906.639007568359375v8.375h-1.916000366210938l-.02500057220459-10.380996704101562Z" fill="#4498d8"/><path id="g" d="m15.094999313354492,75.116008758544922h1.916999816894531l1.277999877929688,8.354995727539062,1.277999877929688-8.354995727539062h1.916000366210938l-1.972000122070312,10.385986328125h-2.352998733520508l-2.064001083374023-10.385986328125Z" fill="#4498d8"/><path id="h" d="m22.856000900268555,71.553001403808594h1.916000366210938v2.01800537109375h-1.916000366210938v-2.01800537109375Zm0,3.563995361328125h1.916000366210938v10.386993408203125h-1.916000366210938v-10.386993408203125Z" fill="#4498d8"/><path id="i" d="m26.901998519897461,75.115001678466797h1.916000366210938v1.468994140625c.759998321533203-1.277999877929688,1.533000946044922-1.600006103515625,2.305999755859375-1.600006103515625.099830627441406-.00823974609375.200168609619141-.00823974609375.299999237060547,0v2.121002197265625c-.338596343994141-.132675170898438-.697502136230469-.206069946289062-1.061000823974609-.216995239257812-.669502258300781-.001388549804688-1.275836944580078.395111083984375-1.542999267578125,1.009002685546875v7.582000732421875h-1.917999267578125v-10.363998413085938Z" fill="#4498d8"/><path id="j" d="m32.380001068115234,81.823005676269531v-3.02099609375c0-2.337997436523438.722000122070312-3.832992553710938,3.041000366210938-3.832992553710938,2.319004058837891,0,3.020999908447266,1.4949951171875,3.020999908447266,3.832992553710938v3.02099609375c0,2.332000732421875-.722000122070312,3.832992553710938-3.020999908447266,3.832992553710938s-3.041000366210938-1.5-3.041000366210938-3.832992553710938m4.138999938964844.121002197265625v-3.263992309570312c0-1.16900634765625,0-2.300003051757812-1.099998474121094-2.300003051757812s-1.11199951171875,1.130996704101562-1.11199951171875,2.300003051757812v3.251998901367188c0,1.16900634765625,0,2.287002563476562,1.11199951171875,2.287002563476562s1.099998474121094-1.106002807617188,1.099998474121094-2.274993896484375" fill="#4498d8"/><path id="k" d="m39.541004180908203,81.427005767822266l1.794998168945312-.485992431640625c.111000061035156,1.557998657226562.5,3.123992919921875,2.069999694824219,3.123992919921875,1.041000366210938,0,1.599998474122003-.593994140625,1.599998474122003-1.70599365234375-.039863586425781-1.13427734375-.628341674805597-2.178466796875-1.578002929688409-2.800003051757812l-2.445999145507812-2.152999877929688c-.954154968261719-.777206420898438-1.476852416992188-1.965469360351562-1.404998779296875-3.194000244140625-.144508361816406-1.71539306640625,1.128944396972656-3.22314453125,2.844337463378906-3.367660522460938.190956115722656-.016082763671875.382987976074219-.0145263671875.573661804199219.004653930664062,2.319000244141534,0,3.430000305176691,1.207000732421875,3.666999816895441,3.755996704101562l-1.724998474121094.46600341796875c-.111000061035156-1.436996459960938-.433998107911066-2.658004760742188-1.916999816895441-2.658004760742188-.791023254394531-.092086791992188-1.507102966308594.474075317382812-1.599998474121094,1.264999389648438-.013496398925781.110931396484375-.013496398925781.223068237304688,0,.333999633789062-.033897399902344.779098510742188.326065063476562,1.523056030273438.958000183105469,1.979995727539062l2.458999633789972,2.15899658203125c1.267120361328125.980422973632812,2.031143188476562,2.474746704101562,2.083999633789062,4.076004028320312.105911254882812,1.81005859375-1.27557373046875,3.363250732421875-3.085632324219659,3.469161987304688-.134017944335938.007843017578125-.268394470214844.0074462890625-.402366638183594-.00115966796875-2.563003540039062-.029006958007812-3.751998901367188-1.751007080078125-3.891998291015625-4.270004272460938"/><path id="l" d="m48.312999725342706,75.115993499755859h1.7760009765625v1.009002685546875c.607345581054688-.725006103515625,1.500312805175781-1.149581909179688,2.445999145507812-1.162994384765625.802375793457031-.050125122070312,1.521339416503906.492599487304688,1.693000793457031,1.277999877929688.610603332519531-.7952880859375,1.552406311035156-1.266372680664062,2.555000305175781-1.277999877929688,1,0,1.833000183105469.677001953125,1.833000183105469,2.408004760742188v8.15899658203125h-1.731002807617188v-8.063003540039062c0-1-.358001708984375-1.277999877929688-.900001525878906-1.277999877929688-.629158020019531.0555419921875-1.210464477539062.358795166015625-1.615997314453125.843002319335938v8.464004516601562h-1.764999389648438v-8.029998779296875c0-1-.357002258300781-1.277999877929688-.893997192382812-1.277999877929688-.630088806152344.058135986328125-1.21234130859375.360748291015625-1.622001647949219.843002319335938v8.464004516601562h-1.775001525878906v-10.378021240234375Z"/><path id="m" d="m60.315002441407159,83.244003295898438c0-2.55499267578125,1.874000549316406-3.347000122070312,4.099998474121094-4.22900390625v-.735000610351562c0-1.277999877929688-.147003173828125-1.873992919921875-1.041000366210938-1.873992919921875-.791999816894531,0-1.099998474121094.574996948242188-1.099998474121094,1.475997924804688v.524002075195312l-1.916000366210938-.076995849609375c.031997680664062-2.300003051757812,1-3.363006591796875,3.124000549316406-3.363006591796875s2.843002319335938,1.149993896484375,2.843002319335938,3.289993286132812v4.746002197265625c.003532409667969.836410522460938.063339233398438,1.671630859375.179000854492188,2.5h-1.764999389648438c-.069999694824219-.376998901367188-.199996948242188-1.041000366210938-.249000549316406-1.526992797851562-.238723754882812.970077514648438-1.101112365722656,1.65753173828125-2.099998474121094,1.673995971679688-1.227035522460938-.107192993164062-2.146629333496094-1.170318603515625-2.075996398925781-2.399993896484375m4.099998474121094-.110000610351562v-2.951004028320312c-1.186996459960938.684005737304688-2.179000854492188,1.277999877929688-2.179000854492188,2.46600341796875,0,.843002319335938.325996398925781,1.348007202148438.920997619628906,1.348007202148438.52227783203125-.083908081054688.981819152832031-.391845703125,1.258003234863281-.843002319335938v-.020004272460938Z"/><path id="n" d="m68.246002197266534,75.115001678466797h1.916000366210938v1.468994140625c.761001586914062-1.277999877929688,1.532997131347656-1.600006103515625,2.305999755859375-1.600006103515625.099838256835938-.00823974609375.200164794921875-.00823974609375.300003051757812,0v2.121002197265625c-.338577270507812-.132736206054688-.697494506835938-.206130981445312-1.060997009277344-.216995239257812-.669868469238281-.001785278320312-1.276695251464844.394775390625-1.543998718261719,1.009002685546875v7.582000732421875h-1.917007446289062v-10.363998413085938Z"/><path id="o" d="m74.503002166748956,83.151996612548828v-6.75799560546875h-1.091995239257812v-1.277999877929688h1.091995239257812v-3.041000366210938h1.916000366210938v3.041000366210938h1.667007446289062v1.277999877929688h-1.667007446289062v6.649993896484375c0,.800003051757812.199996948242188,1.130996704101562.951995849609375,1.130996704101562.234130859375-.003326416015625.467864990234375-.020355224609375.699996948242188-.050994873046875v1.417999267578125c-.441436767578125.071609497070312-.887802124023438.108383178710938-1.335006713867188.110000610351562-1.647994995117188,0-2.236007690429688-.973007202148438-2.236007690429688-2.5"/><path id="p" d="m80.251007080079034,72.394996643066406h-.8489990234375v-.699996948242188h2.485000610351562v.699996948242188h-.792007446289062v3.91400146484375h-.843002319335938l-.000991821289062-3.91400146484375Zm2.152999877929688-.699996948242188h.772003173828125l1,3.194000244140625,1.078994750976562-3.194000244140625h.746994018554688v4.617996215820312h-.639999389648438v-2.8489990234375l-.932998657226562,2.8489990234375h-.345993041992188l-.964996337890625-2.83599853515625v2.83599853515625h-.639007568359375l-.074996948242188-4.617996215820312Z"/><path id="q" d="m23.004999679513276,12.46299934387207C10.302450698800385,12.460237503051758.002762022428215,22.755451202392578.000001062173396,35.458000183105469c-.002760960487649,12.702548980712891,10.292451315093786,23.002239227294922,22.995000295806676,23.005001068115234,12.702547073364258.002754211425781,23.002237319947199-10.292453765869141,23.004999160767511-22.995002746582031v-.004997253417969h0c0-12.700595855712891-10.294403076172784-22.99724006652832-22.995000839234308-23m-13.390999794006348,15.113998413085938c11.428000450134277-2.747001647949219,14.366999626159668,2.305999755859375,26.784998893737793,0,1.168998718261719-.216999053955078,2.421001434326172-.486000061035156,3.7760009765625-.8489990234375-1.238998413085938.529998779296875-2.388999938964844.992000579833984-3.467998504638672,1.391998291015625-14.416999816894531,5.410999298095703-15.85099983215332.63800048828125-27.652999877929688.465999603271484-1,0-2.062999725341797,0-3.194000244140625.063999176025391,1.367000102996826-.459999084472656,2.618999481201172-.818000793457031,3.788000106811523-1.099998474121094m27.700002670288086,13.900001525878906c-15.036998748779297,5.799999237060547-16.320999145507812.875-28.375.716999053955078-.970999717712402,0-2.01200008392334,0-3.142000198364258.055000305175781.992000102996826-.331001281738281,1.915999889373779-.638999938964844,2.800000190734863-.842998504638672,12.628998756408691-3.400001525878906,15.15200138092041,2.439998626708984,28.931000709533691-.459999084472656.830001831054688-.173000335693359,1.700000762939453-.376998901367188,2.618999481201172-.638999938964844-1,.428001403808594-1.916000366210938.799999237060547-2.830001831054688,1.150001525878906m1.143001556396484-7.211997985839844c-16.774999618530273,6.770999908447266-17.215999603271484.894001007080078-31.058000564575195,1.162998199462891l-1.628999710083008.055000305175781c.567999839782715-.192001342773438,1.111000061035156-.358001708984375,1.642000198364258-.518001556396484,13.958000183105469-4.152000427246094,16.013999938964844,2.472000122070312,31.025999069213867-.958000183105469.550998687744141-.127998352050781,1.118000030517578-.262001037597656,1.706001281738281-.422000885009766-.582000732421875.249000549316406-1.143001556396484.479000091552734-1.686000823974609.700000762939453" fill="#4498d8"/><path id="r" d="m68.785999298096613,68l-3.400001525878906-3.456001281738281c17.013130187988281-16.708042144775391,17.260444641113281-44.044454574584961.552406311035156-61.057584047317505-.000129699707031-.000138282775879-.000267028808594-.000276327133179-.000404357910156-.000414609909058l-.077003479003906-.085999965667725,3.449005126953125-3.400000095367432c18.633529663085938,18.870109558105469,18.441757202148438,49.272823333740234-.428352355957031,67.906356811523438-.000213623046875.000213623046875-.000434875488281.00042724609375-.000648498535156.000640869140625l-.094001770019531.093002319335938"/><path id="s" d="m58.839000701905206,62.550999164581299l-3.400001525878906-3.456001281738281c13.883522033691406-13.636222839355469,14.084098815917969-35.945354461669922.447998046875-49.828998565673828l-.057998657226562-.059000015258789,3.449996948242188-3.399999618530273c15.548118591308594,15.749258041381836,15.385154724121094,41.120765686035156-.363998413085938,56.668994903564453l-.077003479003906.075996398925781"/><path id="t" d="m49.296001434327081,55.920001983642578l-3.391998291015625-3.430000305175781c10.190200805664062-10.014766693115234,10.332412719726562-26.394130706787109.317642211914062-36.584327697753906-.00054931640625-.000556945800781-.001091003417969-.001113891601562-.001640319824219-.001670837402344l-.035003662109375-.035999298095703,3.446998596191406-3.405004501342773c11.9141845703125,12.063543319702148,11.793106079101562,31.50132942199707-.270431518554688,43.41551399230957-.002189636230469.002159118652344-.004379272460938.004325866699219-.006568908691406.006484985351562l-.061996459960938.060997009277344"/></g></g></g></svg>