<?xml version="1.0" encoding="UTF-8"?><svg id="a" xmlns="http://www.w3.org/2000/svg" width="123.998001098632812" height="150.947006225585938" xmlns:xlink="http://www.w3.org/1999/xlink" viewBox="0 0 123.998001098632812 150.947006225585938"><defs><clipPath id="b"><rect width="123.998001098632812" height="150.947006225585938" fill="none"/></clipPath></defs><g clip-path="url(#b)"><g id="c"><path id="d" d="m4.445000156760216,124.771999001502991h6.433000087738037c4.639999389648438,0,6.399999618530273,2.654998779296875,6.399999618530273,7.166999816894531,0,4.128005981445312-2.145000457763672,6.688003540039062-6.368999481201172,6.688003540039062h-2.850000381469727v12.063995361328125h-3.613999843597412v-25.918998718261719Zm5.28000020980835,11.263999938964844c3.100000381469727,0,4.128000259399414-.865005493164062,4.128000259399414-4.063995361328125,0-3.680000305175781-.479000091552734-4.608001708984375-4.100000381469727-4.608001708984375h-1.694000244140625v8.6719970703125h1.666000366210938Z" fill="#4498d8"/><path id="e" d="m19.389999955892563,147.172001481056213v-14.975997924804688h3.423999786376953v13.9530029296875c0,1.311004638671875.288999557495117,2.11199951171875,1.472999572753906,2.11199951171875.90412712097168-.112319946289062,1.746841430664062-.516815185546875,2.399999618530273-1.151992797851562v-14.913009643554688h3.423999786376953v18.5h-3.424999237060547v-1.8280029296875c-1.177667617797852,1.251785278320312-2.795299530029297,1.99749755859375-4.511999130249023,2.080001831054688-2.208000183105469,0-2.784000396728516-1.983001708984375-2.784000396728516-3.774993896484375" fill="#4498d8"/><path id="f" d="m33.693998396396637,132.195994257926941h3.424999237060547v2.623992919921875c1.342998504638672-2.240005493164062,2.719001770019531-2.848007202148438,4.099998474121094-2.848007202148438.181877136230469-.002883911132812.363716125488281.0078125.543998718261719.031997680664062v3.774993896484375c-.602874755859375-.234451293945312-1.241424560546875-.363983154296875-1.88800048828125-.38299560546875-1.192237854003906-.004623413085938-2.2734375.699020385742188-2.751998901367188,1.791000366210938v13.5h-3.428997039794922v-18.490982055664062Z" fill="#4498d8"/><path id="g" d="m43.422001242637634,143.554003000259399v-4.2239990234375c0-4.899993896484375,1.215999603271484-7.391006469726562,5.472999572753906-7.391006469726562,4.639999389648438,0,5.247001647949219,3.00799560546875,5.247001647949219,8.063003540039062v1.5h-7.295001983642578v3.712005615234375c0,2.240005493164062.608001708984375,3.199996948242188,2.079998016357422,3.199996948242188,1.534999847412109,0,1.855998992919922-1.184005737304688,1.855998992919922-3.03900146484375v-1.121002197265625h3.327999114990234v.699996948242188c0,3.71099853515625-1.439998626708984,5.983993530273438-5.215000152587891,5.983993530273438-4.353000640869141,0-5.472999572753906-2.55999755859375-5.472999572753906-7.391998291015625m7.360000610351562-3.899993896484375v-1.66400146484375c0-2.272003173828125-.2239990234375-3.520004272460938-1.919998168945312-3.520004272460938-1.66400146484375,0-2.015998840332031.99200439453125-2.015998840332031,4.192001342773438v.99200439453125h3.935997009277344Z" fill="#4498d8"/><path id="h" d="m53.855999410152435,124.770999550819397h3.391998291015625l4.099998474121094,19.100006103515625,3.900001525878906-19.099998474121094h3.300003051757812l-5.732002258300781,25.919990539550781h-3.167999267578125l-5.791999816894531-25.919998168945312Z"/><path id="i" d="m71.232003688812256,125.858996987342834h3.424003601074219v3.583999633789062h-3.424003601074219v-3.583999633789062Zm0,6.336006164550781h3.424003601074219v18.5h-3.424003601074219v-18.5Z"/><path id="j" d="m77.983998537063599,143.554003000259399v-4.2239990234375c0-4.899993896484375,1.21600341796875-7.391006469726562,5.472999572753906-7.391006469726562,4.639999389648438,0,5.247001647949219,3.00799560546875,5.247001647949219,8.063003540039062v1.5h-7.294998168945312v3.712005615234375c0,2.240005493164062.608001708984375,3.199996948242188,2.080001831054688,3.199996948242188,1.535003662109375,0,1.856002807617188-1.184005737304688,1.856002807617188-3.03900146484375v-1.121002197265625h3.3280029296875v.699996948242188c0,3.71099853515625-1.44000244140625,5.983993530273438-5.215003967285156,5.983993530273438-4.352996826171875,0-5.472999572753906-2.55999755859375-5.472999572753906-7.391998291015625m7.360000610351562-3.899993896484375v-1.66400146484375c0-2.272003173828125-.2239990234375-3.520004272460938-1.919998168945312-3.520004272460938-1.66400146484375,0-2.015998840332031.99200439453125-2.015998840332031,4.192001342773438v.99200439453125h3.935997009277344Z"/><path id="k" d="m90.975998878479004,132.196003556251526h2.816001892089844l1.917999267578125,13.632003784179688,2.464996337890625-13.632003784179688h2.624000549316406l2.463996887207031,13.5679931640625,1.919998168945312-13.5679931640625h2.816001892089844l-3.071998596191406,18.5h-2.879997253417969l-2.527000427246094-13.061004638671875-2.5,13.0570068359375h-3.067001342773438l-2.976997375488281-18.496002197265625Z"/><path id="l" d="m111.433000683784485,126.175999402999878h-1.511001586914062v-1.25h4.420997619628906v1.25h-1.417999267578125v6.975997924804688h-1.491996765136719v-6.975997924804688Zm3.823997497558594-1.25h1.379997253417969l1.772003173828125,5.725997924804688,1.920997619628906-5.725997924804688h1.251998901367188v8.225006103515625h-1.156997680664062v-5.072998046875l-1.660003662109375,5.072998046875h-.615997314453125l-1.717002868652344-5.054000854492188v5.054000854492188h-1.174003601074219l-.000991821289062-8.225006103515625Z"/><path id="m" d="m124,26.208000183105469l-6.300003051757812,6.200000762939453C87.230735778808594,1.382360577583313,37.379261016845703.931329131126404,6.353621482849121,31.400594711303711c-.047934532165527.047073364257812-.095808506011963.094209671020508-.143622398376465.141407012939453L0,25.24799919128418c34.421939849853516-33.976941108703613,89.870185852050781-33.616201400756836,123.847129821777344.805736541748047.051017761230469.051691055297852.101974487304688.103445053100586.152870178222656.155263900756836"/><path id="n" d="m0,81.374000549316406l6.300000190734863-6.194000244140625c30.469820976257324,31.025093078613281,80.32129955291748,31.475227355957031,111.346392631530762,1.005409240722656.047599792480469-.046745300292969.095130920410156-.093544006347656.142608642578125-.140411376953125l6.21099853515625,6.291000366210938c-34.422988891601562,33.976661682128906-89.871864318847656,33.614837646484375-123.848525255918503-.808151245117188-.050554729998112-.051223754882812-.101046308875084-.102500915527344-.151474744081497-.153846740722656"/><path id="o" d="m61.996998906135559,19.643999427556992c-18.858867645263672.001106262207031-34.146102905273438,15.290134429931641-34.144996643066406,34.149002075195312s15.290134429931641,34.146099090576172,34.149002075195312,34.145000457763672c18.857696533203125-.001106262207031,34.144447326660156-15.288307189941406,34.144996643066406-34.146003723144531,0-18.859420776367188-15.288581848144531-34.147998809814453-34.147998809814453-34.147998809814453h-.001003265380859m-19.870998382568359,22.416999816894531c16.963001251220703-4.078998565673828,21.326000213623047,3.421001434326172,39.757999420166016.03900146484375,1.740997314453125-.319000244140625,3.59100341796875-.7239990234375,5.607002258300781-1.257999420166016-1.83599853515625.780998229980469-3.542999267578125,1.463001251220703-5.147003173828125,2.066001892089844-21.400001525878906,8.028999328613281-23.527000427246094.956001281738281-41.055000305175781.694000244140625-1.480998992919922-.020999908447266-3.058998107910156,0-4.782001495361328.088001251220703,2.027999877929688-.684001922607422,3.883998870849609-1.213001251220703,5.619998931884766-1.630001068115234m41.16400146484375,20.616996765136719c-22.326999664306641,8.615997314453125-24.229999542236328,1.299999237060547-42.118999481201172,1.063999176025391-1.448001861572266-.019001007080078-2.991001129150391,0-4.666000366210938.090000152587891,1.462001800537109-.493999481201172,2.840999603271484-.909999847412109,4.145999908447266-1.262001037597656,18.747001647949219-5.035999298095703,22.5,3.628997802734375,42.947998046875-.674999237060547,1.236000061035156-.258998870849609,2.523002624511719-.556999206542969,3.889999389648438-.918998718261719-1.483001708984375.630001068115234-2.866996765136719,1.187999725341797-4.199996948242188,1.700000762939453m1.699996948242188-10.734001159667969c-24.900001525878906,10.041000366210938-25.557998657226562,1.332000732421875-46.066001892089844,1.731998443603516-.7760009765625.013999938964844-1.576999664306641.03900146484375-2.415000915527344.083000183105469.840999603271484-.284000396728516,1.646999359130859-.536998748779297,2.431999206542969-.771999359130859,20.676010131835938-6.183998107910156,23.729007720947266,3.677001953125,46.014007568359375-1.452999114990234.820999145507812-.188999176025391,1.660003662109375-.393001556396484,2.535003662109375-.625-.86199951171875.368000030517578-1.694999694824219.712001800537109-2.5,1.037998199462891" fill="#4498d8"/></g></g></svg>