<svg xmlns="http://www.w3.org/2000/svg" xmlns:xlink="http://www.w3.org/1999/xlink" width="81.724" height="81.724" viewBox="0 0 81.724 81.724">
  <defs>
    <clipPath id="clip-path">
      <rect id="Rectangle_1043" data-name="Rectangle 1043" width="81.724" height="81.724" fill="#0090c9"/>
    </clipPath>
  </defs>
  <g id="Group_4901" data-name="Group 4901" transform="translate(0 0)">
    <g id="Group_4900" data-name="Group 4900" transform="translate(0 0)" clip-path="url(#clip-path)">
      <path id="Path_2234" data-name="Path 2234" d="M80.406,18.454H21.09a1.318,1.318,0,0,0,0,2.636h58v58H10.545a7.909,7.909,0,1,1,0-15.817h1.318a3.959,3.959,0,0,0,3.955-3.955V3.955A3.959,3.959,0,0,0,11.863,0H10.545A10.557,10.557,0,0,0,0,10.545V71.18A10.557,10.557,0,0,0,10.545,81.725H80.406a1.318,1.318,0,0,0,1.318-1.318V19.772a1.318,1.318,0,0,0-1.318-1.318M2.636,10.545a7.918,7.918,0,0,1,7.909-7.909h1.318a1.32,1.32,0,0,1,1.318,1.318V59.316a1.32,1.32,0,0,1-1.318,1.318H10.545a10.513,10.513,0,0,0-7.909,3.593Z" transform="translate(0 0)" fill="#0090c9"/>
      <path id="Path_2235" data-name="Path 2235" d="M67.54,68.278a1.318,1.318,0,1,0,0,2.635h7.909A1.316,1.316,0,0,0,76.766,69.6V31.37a1.318,1.318,0,0,0-1.318-1.318H33.268A1.318,1.318,0,0,0,31.95,31.37V47.188H25.359a1.318,1.318,0,0,0-1.318,1.318V76.188a1.318,1.318,0,0,0,1.318,1.318h21.09a1.318,1.318,0,0,0,1.318-1.318V70.914H59.63a1.318,1.318,0,1,0,0-2.635H47.768V64.324a1.318,1.318,0,0,0-2.636,0V74.869H26.677V49.824H45.131v6.591a1.318,1.318,0,1,0,2.636,0V48.506a1.318,1.318,0,0,0-1.318-1.318H34.586v-14.5h21.09V48.506a1.317,1.317,0,0,0,1.318,1.318h5.273a1.318,1.318,0,0,0,0-2.636H58.313v-14.5H74.13v14.5H70.176a1.318,1.318,0,0,0,0,2.636H74.13V68.278Z" transform="translate(-2.951 -3.69)" fill="#0090c9"/>
    </g>
  </g>
</svg>
