<svg xmlns="http://www.w3.org/2000/svg" width="47.127" height="88.342" viewBox="0 0 47.127 88.342">
  <g id="Group_4899" data-name="Group 4899" transform="translate(0)">
    <path id="Path_2230" data-name="Path 2230" d="M8.579,918.75v41.089L4.3,955.555V918.75H.015v32.522h0L0,957.314l12.846,12.85v-.03l.015.015v-6.027h0V918.75Z" transform="translate(0 -892.515)" fill="#0090c9"/>
    <path id="Path_2231" data-name="Path 2231" d="M608.64,918.75h-8.564v27.127h8.564v26.809L606.5,974.83v.03l-2.141-2.147V961.582h-4.282l-.008,12.857,6.43,6.417,6.423-6.417,0-.148,0,0v-32.7h-8.564V923.033h4.282V931.6h4.282V918.75Z" transform="translate(-582.934 -892.515)" fill="#0090c9"/>
    <path id="Path_2232" data-name="Path 2232" d="M1208.71,918.75h-8.564v51.4l4.282-4.283V945.877h4.282v15.705l4.282-4.283V918.75Zm0,22.844h-4.282V923.033h4.282Z" transform="translate(-1165.876 -892.515)" fill="#0090c9"/>
    <path id="Path_2233" data-name="Path 2233" d="M7.174,14.258,5.017,12.388l2.845-.245L8.972,9.522l1.11,2.621,2.845.245-2.157,1.869.647,2.779L8.972,15.564,6.527,17.037Zm29.759-.376-2.157-1.869,2.845-.245,1.11-2.621,1.11,2.621,2.845.245L40.53,13.882l.647,2.779-2.445-1.473-2.445,1.473Zm-15.55.04-3.074-2.664,4.054-.349,1.582-3.735,1.582,3.735,4.054.349-3.074,2.664.921,3.96-3.484-2.1-3.484,2.1ZM23.959,0,.4,6.425v15.42H47.517V6.425Z" transform="translate(-0.389)" fill="#0090c9"/>
  </g>
</svg>
