<svg xmlns="http://www.w3.org/2000/svg" width="62.297" height="83.281" viewBox="0 0 62.297 83.281">
  <g id="Group_4898" data-name="Group 4898" transform="translate(-646.073 -4086.613)">
    <path id="Path_2225" data-name="Path 2225" d="M31.148,62.3A31.156,31.156,0,0,1,19.024,2.447a31.156,31.156,0,0,1,24.249,57.4A30.954,30.954,0,0,1,31.148,62.3m0-60.329A29.189,29.189,0,0,0,19.79,58.036,29.189,29.189,0,0,0,42.507,4.259,29,29,0,0,0,31.148,1.966" transform="translate(646.073 4086.614)" fill="#0090c9"/>
    <path id="Path_2226" data-name="Path 2226" d="M263.279,286.558a23.279,23.279,0,1,1,23.279-23.279,23.306,23.306,0,0,1-23.279,23.279m0-44.591a21.312,21.312,0,1,0,21.312,21.312,21.336,21.336,0,0,0-21.312-21.312" transform="translate(413.942 3854.483)" fill="#0090c9"/>
    <path id="Path_2227" data-name="Path 2227" d="M14.883,1794.148a.958.958,0,0,1-.132-.009.984.984,0,0,1-.829-.76L11.53,1782.7l-10.187,4a.984.984,0,0,1-1.228-1.377l8.462-15.935a.984.984,0,0,1,1.737.923L3.1,1783.9l8.78-3.446a.984.984,0,0,1,1.319.7l2.063,9.2,7.541-14.2a.984.984,0,0,1,1.738.923l-8.788,16.55a.984.984,0,0,1-.868.522" transform="translate(646.073 2375.746)" fill="#0090c9"/>
    <path id="Path_2228" data-name="Path 2228" d="M1157.455,1793.955a.984.984,0,0,1-.868-.522l-8.8-16.571a.984.984,0,0,1,1.738-.923l7.553,14.223,2.063-9.2a.984.984,0,0,1,1.319-.7l8.78,3.446-7.218-13.593a.984.984,0,1,1,1.737-.923l8.465,15.942a.984.984,0,0,1-1.228,1.377l-10.187-4-2.393,10.679a.985.985,0,0,1-.96.769" transform="translate(-463.969 2375.939)" fill="#0090c9"/>
    <path id="Path_2229" data-name="Path 2229" d="M504.589,470.819a.982.982,0,0,1-.572-.183l-8.609-6.149-8.609,6.149a.984.984,0,0,1-1.493-1.146L489,459.643l-8.658-7.421a.984.984,0,0,1,.64-1.73h9.81l3.7-9.854a.984.984,0,0,1,1.842,0l3.7,9.854h9.81a.984.984,0,0,1,.64,1.73l-8.658,7.421,3.693,9.848a.984.984,0,0,1-.921,1.329m-9.181-8.525a.982.982,0,0,1,.572.183l6.555,4.682-2.8-7.471a.984.984,0,0,1,.281-1.092l7.162-6.139h-7.833a.984.984,0,0,1-.921-.638l-3.014-8.036L492.4,451.82a.984.984,0,0,1-.921.638h-7.833L490.8,458.6a.984.984,0,0,1,.281,1.092l-2.8,7.471,6.555-4.682a.982.982,0,0,1,.572-.183" transform="translate(181.813 3661.041)" fill="#0090c9"/>
  </g>
</svg>
