<svg id="Group_4903" data-name="Group 4903" xmlns="http://www.w3.org/2000/svg" xmlns:xlink="http://www.w3.org/1999/xlink" width="93.328" height="81.202" viewBox="0 0 93.328 81.202">
  <defs>
    <clipPath id="clip-path">
      <rect id="Rectangle_1044" data-name="Rectangle 1044" width="93.328" height="81.201" fill="none"/>
    </clipPath>
  </defs>
  <g id="Group_4902" data-name="Group 4902" clip-path="url(#clip-path)">
    <path id="Path_2236" data-name="Path 2236" d="M88.218,35.905l-.176-.072C85.613,15.685,67.985,0,46.666,0A42.126,42.126,0,0,0,19.684,9.69L4.815,13.016a5.755,5.755,0,0,0-4.8,6.07L4.6,47.718A11.928,11.928,0,0,0,7.67,54.9a41.706,41.706,0,0,0,39,26.3,42.128,42.128,0,0,0,27.054-9.75l9.36-.208.082-.006a7.754,7.754,0,0,0,2.709-.853l.131.043.044-.134a7.674,7.674,0,0,0,3.786-5.38L93.2,44.941a8.264,8.264,0,0,0-4.987-9.036m3.329,8.75L88.173,64.627a6,6,0,0,1-2.5,3.92l-6.783-2.232-1.729-.569L72.733,64.29,70.954,63.7l-4.924-1.62-1.883-.62L33.25,51.3a8.474,8.474,0,0,1-5.8-7.622L25.113,23.728l-.264-2.255-.662-5.651-.235-2-.276-2.36a8.759,8.759,0,0,1,1.176.384l1.133.463,1.868.763,5.269,2.152,2.107.86L72.67,31.373l2.068.845,5.3,2.166,1.849.755,4.588,1.874,1.105.451a6.442,6.442,0,0,1,.646.312,6.579,6.579,0,0,1,3.319,6.88M75.662,69.726l-2.574.057-6.425.143-.082.006c-.307.037-.614.058-.921.068a10.139,10.139,0,0,1-2.822-.313c-.118-.03-.236-.059-.355-.094l-6.754-1.777-3.309-.87-24.338-6.4-3.273-.861L17.647,57.8l-2.318-.609-1.688-.444a10.3,10.3,0,0,1-7.363-9.178l-1.266-7.9L1.69,18.939a4.078,4.078,0,0,1,3.423-4.267l12.029-2.691,3.01-.674c.085-.013.171-.021.257-.032a8.745,8.745,0,0,1,1.544-.069l.461,3.938.242,2.069.7,6.01.286,2.441L25.77,43.793a10.148,10.148,0,0,0,6.95,9.1l29.759,9.793,1.984.653,5.1,1.679,1.824.6,4.523,1.488,1.762.58,5.572,1.834c-.082.014-.164.031-.247.042ZM47.931,67.5c-.42.019-.841.031-1.266.031a28.056,28.056,0,0,1-14.981-4.3ZM27.29,62.075a29.668,29.668,0,0,0,19.376,7.143,30.107,30.107,0,0,0,5.7-.546l8.119,2.136A34.551,34.551,0,0,1,19.107,59.923ZM37.5,15.192a28.236,28.236,0,0,1,9.169-1.526,27.771,27.771,0,0,1,25.054,15.5ZM73.963,30.084a29.4,29.4,0,0,0-27.3-18.1A29.855,29.855,0,0,0,35.2,14.255l-5.555-2.269A34.474,34.474,0,0,1,46.666,7.523,33.891,33.891,0,0,1,79.588,32.381Zm-27.3-28.4c20.129,0,36.828,14.554,39.582,33.418L81.5,33.163C78,17.559,63.713,5.841,46.666,5.841a36.124,36.124,0,0,0-18.973,5.347l-2.206-.9a10.418,10.418,0,0,0-2.921-.72,40.486,40.486,0,0,1,24.1-7.885m0,77.837A40.123,40.123,0,0,1,10.511,57.208a11.917,11.917,0,0,0,2.68,1.158l3.407.9a36.2,36.2,0,0,0,46.456,12.2,11.768,11.768,0,0,0,2.292.231,11.938,11.938,0,0,0,1.394-.082l4.185-.093a40.484,40.484,0,0,1-24.26,8.005" transform="translate(0)" fill="#4498d8"/>
    <path id="Path_2237" data-name="Path 2237" d="M140.327,123.4l-11.84-4.1a.841.841,0,0,0-.551,1.59l11.84,4.1a.841.841,0,0,0,.551-1.59" transform="translate(-73.801 -69.101)" fill="#4498d8"/>
  </g>
</svg>
