<?xml version="1.0" encoding="UTF-8"?><svg id="a" xmlns="http://www.w3.org/2000/svg" width="100" height="100" viewBox="0 0 100 100"><path id="b" d="m72.84,5.13c-9.02-.08-17.45,4.48-22.33,12.08-.18.28-.55.37-.84.2-.08-.05-.15-.12-.2-.2-4.87-7.6-13.3-12.16-22.33-12.08C11.42,5.24,0,18.71,1.24,34.28c2.34,29.46,37.02,53.8,46.42,59.89,1.42.92,3.25.92,4.68,0,9.4-6.09,44.08-30.43,46.42-59.89,1.24-15.58-10.17-29.04-25.92-29.15Zm8.93,48.1h-18.93c-1.42,0-2.67-.91-3.11-2.26l-3.52-11.03-9.12,32.29c-.49,1.73-2.29,2.73-4.02,2.24-1.05-.29-1.89-1.09-2.23-2.14l-6.09-19.11h-16.54v-6.46h18.93c1.42,0,2.67.91,3.11,2.26l3.51,11.03,9.12-32.29c.49-1.73,2.29-2.73,4.02-2.24,1.05.29,1.89,1.09,2.23,2.14l6.09,19.1h16.55v6.47Z" fill="#82a4b8" fill-rule="evenodd"/></svg>