<?xml version="1.0" encoding="UTF-8"?><svg id="a" xmlns="http://www.w3.org/2000/svg" width="100" height="100" viewBox="0 0 100 100"><path id="b" d="m50,2.36C23.57,2.25,2.05,23.57,1.89,50c.15,26.43,21.68,47.75,48.11,47.65,26.43.1,47.96-21.21,48.11-47.65-.16-26.43-21.68-47.74-48.11-47.64Zm0,6.21c22.97-.14,41.7,18.37,41.83,41.34,0,.03,0,.06,0,.09-.08,22.97-18.77,41.52-41.74,41.43-.03,0-.07,0-.1,0-22.97.14-41.7-18.37-41.83-41.33,0-.03,0-.07,0-.1.09-22.97,18.78-41.52,41.74-41.43.03,0,.06,0,.09,0Zm-17.78,21.75c-3.45-.02-6.26,2.76-6.28,6.21,0,0,0,0,0,0,.02,3.45,2.83,6.23,6.27,6.21h0c3.45.02,6.26-2.76,6.28-6.21,0,0,0,0,0,0-.02-3.45-2.83-6.23-6.28-6.21Zm35.56,0c-3.45-.02-6.26,2.76-6.28,6.21,0,0,0,0,0,0,.02,3.45,2.83,6.23,6.27,6.21,0,0,0,0,0,0,3.45.02,6.26-2.76,6.28-6.21,0,0,0,0,0,0-.02-3.45-2.83-6.23-6.27-6.21,0,0,0,0,0,0h0Zm-41.12,29c-1.65.04-2.96,1.4-2.92,3.05.01.65.24,1.27.63,1.78,5.71,8.59,15.31,13.77,25.63,13.83,10.31-.06,19.92-5.24,25.63-13.83.9-1.43.53-3.32-.85-4.31-1.46-.89-3.35-.53-4.38.84-4.52,6.87-12.17,11.02-20.4,11.07-8.22-.05-15.88-4.2-20.4-11.07-.71-.89-1.8-1.39-2.94-1.36Z" fill="#82a4b8" fill-rule="evenodd"/></svg>