<?xml version="1.0" encoding="UTF-8"?><svg id="a" xmlns="http://www.w3.org/2000/svg" width="100" height="100" viewBox="0 0 100 100"><path id="b" d="m4.44,94.14c-1.61-.04-2.89-1.38-2.85-2.99h0c-.04-1.61,1.23-2.95,2.85-2.99h91.12c1.61.04,2.89,1.38,2.85,2.99.04,1.61-1.23,2.95-2.85,2.99H4.44Zm0-29.92c-1.61-.04-2.89-1.38-2.85-2.99,0,0,0,0,0,0-.04-1.61,1.23-2.95,2.85-2.99h91.12c1.61.04,2.89,1.38,2.85,2.99.04,1.61-1.23,2.95-2.85,2.99H4.44Zm48.71-26.98c.81,1.41.38,3.2-.98,4.1-1.3.81-3.01.42-3.82-.88-.03-.05-.06-.1-.09-.15-3.39-5.54-3.39-12.51,0-18.04,2.31-3.63,2.31-8.26,0-11.88-.81-1.41-.38-3.21.98-4.11,1.3-.81,3.01-.42,3.82.88.03.05.06.1.09.15,3.39,5.54,3.39,12.51,0,18.04-2.31,3.63-2.31,8.26,0,11.89Zm-19.93,0c.81,1.41.38,3.2-.98,4.1-1.3.81-3.01.42-3.82-.88-.03-.05-.06-.1-.09-.15-3.39-5.54-3.39-12.51,0-18.04,2.31-3.63,2.31-8.26,0-11.88-.81-1.41-.38-3.21.98-4.11,1.3-.81,3.01-.42,3.82.88.03.05.06.1.09.15,3.39,5.54,3.39,12.51,0,18.04-2.31,3.63-2.31,8.26,0,11.89Zm39.86,0c.81,1.41.38,3.2-.98,4.1-1.3.81-3.01.42-3.82-.88-.03-.05-.06-.1-.09-.15-3.39-5.54-3.39-12.51,0-18.04,2.31-3.63,2.31-8.26,0-11.88-.81-1.41-.38-3.21.98-4.11,1.3-.81,3.01-.42,3.82.88.03.05.06.1.09.15,3.39,5.54,3.39,12.51,0,18.04-2.31,3.63-2.31,8.26,0,11.89ZM11.56,74.69c-1.61-.04-2.89-1.38-2.85-2.99-.04-1.61,1.23-2.95,2.85-2.99,1.61.04,2.89,1.38,2.85,2.99.04,1.61-1.24,2.95-2.85,2.99Zm17.08,0c-1.61-.04-2.89-1.38-2.85-2.99-.04-1.61,1.23-2.95,2.85-2.99,1.61.04,2.89,1.38,2.85,2.99.04,1.61-1.23,2.95-2.85,2.99Zm-8.54,8.98c-1.61-.04-2.89-1.38-2.85-2.99-.04-1.61,1.23-2.95,2.85-2.99,1.61.04,2.89,1.38,2.85,2.99.04,1.61-1.23,2.95-2.85,2.99h0Zm17.08,0c-1.61-.04-2.88-1.38-2.84-2.99-.04-1.61,1.24-2.95,2.85-2.99,1.61.04,2.89,1.38,2.85,2.99.04,1.61-1.23,2.95-2.85,2.99,0,0,0,0,0,0h0Zm8.54-8.98c-1.61-.04-2.89-1.38-2.85-2.99-.04-1.61,1.23-2.95,2.85-2.99,1.61.04,2.89,1.38,2.85,2.99.04,1.61-1.23,2.95-2.85,2.99Zm17.08,0c-1.61-.04-2.89-1.38-2.85-2.99-.04-1.61,1.23-2.95,2.85-2.99,1.61.04,2.89,1.38,2.85,2.99.04,1.61-1.23,2.95-2.85,2.99h0Zm-8.54,8.98c-1.61-.04-2.89-1.38-2.85-2.99-.04-1.61,1.23-2.95,2.85-2.99,1.61.04,2.89,1.38,2.85,2.99.04,1.61-1.23,2.95-2.85,2.99h0Zm17.08,0c-1.61-.04-2.89-1.38-2.85-2.99-.04-1.61,1.23-2.95,2.85-2.99,1.61.04,2.89,1.38,2.85,2.99.04,1.61-1.23,2.95-2.85,2.99h0Zm17.08,0c-1.61-.04-2.89-1.38-2.85-2.99-.04-1.61,1.24-2.95,2.85-2.99,1.61.04,2.89,1.38,2.85,2.99.04,1.61-1.23,2.95-2.85,2.99h0Zm-8.54-8.98c-1.61-.04-2.89-1.38-2.85-2.99-.04-1.61,1.23-2.95,2.85-2.99,1.61.04,2.89,1.38,2.85,2.99.04,1.61-1.23,2.95-2.85,2.99Z" fill="#82a4b8" fill-rule="evenodd"/></svg>