<?xml version="1.0" encoding="UTF-8"?><svg id="a" xmlns="http://www.w3.org/2000/svg" width="100" height="100" viewBox="0 0 100 100"><path id="b" d="m84.05,54.54l-8.94,5.01-16.43-28.85c-1.91-3.35-6.12-4.61-9.55-2.86l-11.71,5.93L21.08,5.02c-1.93-3.44-6.28-4.67-9.72-2.74-.05.03-.1.05-.14.08-3.43,1.85-4.72,6.12-2.87,9.56.03.05.06.11.09.16l19.83,34.67c1.91,3.35,6.11,4.61,9.55,2.86l11.71-5.83,13.05,22.92-8.94,5.02c-2.74,1.55-3.7,5.04-2.15,7.78.51.9,1.25,1.64,2.15,2.15l29.38,16.27c2.74,1.52,6.19.54,7.71-2.2.45-.8.69-1.7.71-2.61l1.03-33.35c.22-3.08-2.1-5.76-5.18-5.98-1.14-.08-2.27.18-3.25.76Z" fill="#82a4b8" fill-rule="evenodd"/></svg>