<svg xmlns="http://www.w3.org/2000/svg" xmlns:xlink="http://www.w3.org/1999/xlink" width="61.321" height="57.152" viewBox="0 0 61.321 57.152"><defs><clipPath id="a"><rect width="61.321" height="57.152" fill="none"/></clipPath></defs><g clip-path="url(#a)"><path d="M14.081,54.986H47.239V32.859H14.081ZM11.916,11.425V1.083A1.083,1.083,0,0,1,13,0H48.322a1.083,1.083,0,0,1,1.083,1.083V11.425h6.056a6.371,6.371,0,0,1,4.064,1.422,4.736,4.736,0,0,1,1.8,3.638V36.25a4.737,4.737,0,0,1-1.8,3.638,6.372,6.372,0,0,1-4.064,1.422H49.405V56.069a1.083,1.083,0,0,1-1.083,1.083H13a1.083,1.083,0,0,1-1.083-1.083V41.31H5.859A6.371,6.371,0,0,1,1.8,39.887,4.736,4.736,0,0,1,0,36.25V16.485a4.737,4.737,0,0,1,1.8-3.638,6.372,6.372,0,0,1,4.064-1.422Zm35.324-9.26H14.081v9.26H47.239ZM18.211,18.055a3.372,3.372,0,1,1-2.379.99,3.351,3.351,0,0,1,2.379-.99Zm.848,2.514a1.2,1.2,0,0,0-1.739,1.657l.043.041a1.2,1.2,0,0,0,1.7-1.7Zm-9.61-2.514a3.372,3.372,0,1,1-2.379.99,3.351,3.351,0,0,1,2.379-.99Zm.848,2.514a1.2,1.2,0,0,0-1.739,1.657l.043.041a1.2,1.2,0,0,0,1.7-1.7ZM20.6,48.916a1.083,1.083,0,0,1,0-2.166H40.716a1.083,1.083,0,0,1,0,2.166Zm0-7.858a1.083,1.083,0,1,1,0-2.166H40.716a1.083,1.083,0,0,1,0,2.166Zm28.8-1.914h6.056a4.2,4.2,0,0,0,2.684-.914,2.6,2.6,0,0,0,1.01-1.98V16.485a2.6,2.6,0,0,0-1.01-1.98,4.2,4.2,0,0,0-2.684-.914H5.859a4.2,4.2,0,0,0-2.684.914,2.6,2.6,0,0,0-1.01,1.98V36.25a2.6,2.6,0,0,0,1.01,1.98,4.2,4.2,0,0,0,2.684.914h6.056V32.859H7.167a1.083,1.083,0,0,1,0-2.166H54.153a1.083,1.083,0,0,1,0,2.166H49.405Z"/></g></svg>