<svg xmlns="http://www.w3.org/2000/svg" width="59.622" height="52.216" viewBox="0 0 59.622 52.216"><g transform="translate(-116.291 -33)"><path d="M72.218,49.97l2.4-2.241-7.2-7.842V19.4H16.2V70.616H67.416V54.931h-3.2V67.415H42.128V61.493h-3.2v5.922H19.4V44.528H38.927V51.25h3.2V41.327H19.4V22.6H64.215v8.323h-9.6v3.2h9.6v6.882Z" transform="translate(100.591 14.1)"/><path d="M67.916,71.116H15.7V18.9H67.916V39.692l7.406,8.064-3.137,2.928L63.715,41.2V34.625h-9.6v-4.2h9.6V23.1H19.9V40.827H42.628V51.75h-4.2V45.028H19.9V66.915H38.427V60.993h4.2v5.922H63.715V54.431h4.2Zm-51.216-1H66.916V55.431h-2.2V67.915H41.628V61.993h-2.2v5.922H18.9V44.028H39.427V50.75h2.2V41.827H18.9V22.1H64.715v9.323h-9.6v2.2h9.6v7.191l7.535,8.439L73.915,47.7l-7-7.621V19.9H16.7Z" transform="translate(100.591 14.1)" fill="#f6f5f3"/></g></svg>