<?xml version="1.0" encoding="UTF-8"?><svg id="a" xmlns="http://www.w3.org/2000/svg" width="64.01" height="65" xmlns:xlink="http://www.w3.org/1999/xlink" viewBox="0 0 64.01 65"><defs><clipPath id="b"><rect x=".25" y=".25" width="63.51" height="64.5" fill="none"/></clipPath></defs><g clip-path="url(#b)"><g id="c"><path id="d" d="m.25,31.69c.85-.77,1.98-1.17,3.13-1.11,2.36.04,4.72.01,7.08,0,.3,0,.59-.02.89-.04-.11-.71-.17-1.42-.17-2.14.08-1.28.89-2.41,2.09-2.88.38-.14.64-.5.62-.91.32-4.12,2.1-7.99,5.02-10.92.63-.65,1.25-.64,1.65-.05.37.56.06.97-.31,1.36-1.63,1.61-2.86,3.57-3.61,5.73-.36,1.27-.66,2.56-.9,3.87-.09.43.15.58.55.58,3.91,0,7.82.02,11.72-.04.53-.09,1.03-.32,1.45-.66,1.19-.9,2.83-.91,4.03-.02.79.52,1.73.78,2.67.73,3.31-.05,6.62-.02,9.93-.02,1.22,0,1.2,0,1.05-1.24-.43-3.5-2.07-6.75-4.63-9.17-4.93-4.83-12.43-5.88-18.5-2.59-.26.15-.52.29-.8.41-.43.25-.99.1-1.24-.33,0-.02-.02-.03-.03-.05-.24-.43-.08-.98.36-1.22.02-.01.04-.02.07-.03,1.65-1,3.45-1.72,5.34-2.12.69-.15,1.38-.25,2.09-.3.57-.03.74-.25.74-.8-.02-1.98,0-3.96,0-5.94,0-1.26.29-1.56,1.51-1.56h6.27c.9,0,1.19.26,1.2,1.15.02,1.52.02,3.04,0,4.56-.01.92-.3,1.18-1.26,1.18-1.68,0-3.37,0-5.05,0-.41,0-.75,0-.75.57,0,.52.13.76.72.81,7.44.67,13.64,5.98,15.44,13.22.23.97.33,1.97.53,2.96.04.28.18.53.39.71,2.12,1.24,2.61,2.29,2.12,4.69-.02.1-.03.21-.06.42.34.02.65.05.96.05,2.55,0,5.1-.03,7.65.02,1.95.01,3.53,1.61,3.51,3.56,0,.1,0,.2-.02.3-.06,1.4-.97,2.62-2.3,3.07-.53.13-.88.64-.8,1.18.03,8.12.02,16.23.02,24.35,0,1.52-.15,1.67-1.69,1.67H3.93c-1.37,0-1.55-.18-1.55-1.55,0-8.14,0-16.29.01-24.43.1-.57-.27-1.12-.83-1.24-.46-.21-.9-.48-1.3-.8v-5.05m31.29,7.87c-5.02,0-10.04.02-15.06-.02-.8,0-1.02.26-1.01,1.02.04,2.17.01,4.34.01,6.51,0,3.72,0,7.44,0,11.16,0,.27.11.75.22.77.55.11,1.12.11,1.67,0,.17-.04.26-.69.26-1.06.02-4.24,0-8.47.02-12.7-.1-2.12,1.53-3.92,3.65-4.02,2.12-.1,3.92,1.53,4.02,3.65,0,.1,0,.19,0,.29.01,4.34,0,8.69,0,13.03,0,.26.04.74.11.75.63.11,1.27.14,1.91.09.13-.01.3-.57.3-.87.02-4.18,0-8.36.02-12.54,0-.51.04-1.03.14-1.53.47-2.03,2.5-3.29,4.53-2.82,1.39.32,2.48,1.41,2.81,2.81.11.56.15,1.13.14,1.7.01,4.15.02,8.31,0,12.46,0,.67.2.96.88.88.19-.03.38-.03.57,0,.72.1.92-.2.92-.91-.03-4.29-.03-8.58,0-12.87,0-.59.11-1.18.3-1.75.58-1.59,2.16-2.58,3.84-2.4,1.63.07,3,1.24,3.33,2.84.15,1.15.22,2.32.19,3.48.02,3.58.02,7.16,0,10.75,0,.62.16.93.82.85.14-.02.27-.02.41,0,.72.1,1.02-.15.99-.94-.07-1.33-.03-2.66-.02-3.99,0-.94.3-1.35.93-1.36s.94.45.95,1.33c0,1.41-.01,2.82.02,4.24,0,.25.14.65.32.72.59.2.94.81.81,1.42-.02.51.03,1.03-.01,1.55-.05.64.2.86.84.85,1.9-.03,3.8,0,5.7-.01,1.97,0,1.71.24,1.75-1.81.01-.57-.24-.7-.73-.69-.84.02-1.68,0-2.52,0-1.28,0-1.56-.3-1.56-1.6v-16.04c0-.41-.01-.82.01-1.22-.04-.5.34-.93.83-.97.05,0,.09,0,.14,0,.62,0,1.25,0,1.87-.01,2.27-.03,1.91.32,1.96-2.01.01-.58-.23-.75-.77-.74-1.79.02-3.58.03-5.37,0-.84-.01-1.61-.03-2.08.85-.13.21-.33.37-.56.45-.57.21-.65.61-.65,1.15.02,3.01,0,6.03,0,9.04,0,.24.08.56-.04.72-.24.31-.57.7-.89.74-.27.03-.66-.36-.86-.65-.1-.28-.13-.58-.09-.87,0-2.85,0-5.7,0-8.55q0-1.14-1.1-1.14h-14.9m0-1.83h16.69c.65.08,1.26-.34,1.42-.97.18-.66-.22-1.07-.75-1.38-.16-.1-.33-.2-.49-.29-5.32-3.03-10.64-6.05-15.95-9.08-.58-.38-1.33-.37-1.9.02-3.07,1.77-6.16,3.51-9.24,5.27-2.4,1.37-4.8,2.74-7.19,4.11-.51.29-.95.73-.71,1.3.25.42.61.76,1.05.99.19.13.53.04.8.04h16.29m-17.93,11.54c0-2.82-.03-5.64.02-8.46.01-.84-.04-1.54-.94-1.9-.22-.11-.4-.29-.51-.51-.24-.43-.73-.67-1.22-.58-1.63.02-3.25-.01-4.88.01-2.18.03-1.83-.41-1.88,1.98-.01.57.22.78.77.77.95-.02,1.9-.02,2.85,0,.91.02,1.19.28,1.19,1.17,0,5.8,0,11.61,0,17.41,0,.87-.37,1.22-1.25,1.25-.62.02-1.25,0-1.87,0-1.96.03-1.66-.3-1.69,1.75v.08c-.03.44.16.66.61.66,2.36,0,4.72.01,7.08-.03.27-.08.48-.3.55-.57.07-.7-.02-1.41.05-2.11.04-.33.25-.81.51-.91.62-.23.62-.64.62-1.15-.01-2.96,0-5.91,0-8.87m17.93,13.63h9.93c2.12,0,4.23.02,6.35-.02.29,0,.75-.17.84-.39.39-.99,0-1.51-1.06-1.51H15.44c-.22-.03-.43-.02-.65.02-.19.06-.34.2-.42.38-.31,1.08.02,1.51,1.13,1.51h16.03m-1.92-11.27h0c0,2.22.01,4.45,0,6.67,0,.59.18.83.8.8.76-.04,1.52-.04,2.27,0,.63.04.78-.25.78-.82-.02-4.39,0-8.78-.02-13.17,0-.38-.08-.75-.23-1.09-.48-.93-1.62-1.29-2.54-.82-.63.32-1.03.97-1.03,1.68-.03,2.25,0,4.5,0,6.75m-6.15.11h0c0-2.22.02-4.45,0-6.67.06-1.08-.76-2-1.84-2.07-.04,0-.07,0-.11,0-1.06,0-1.91.87-1.9,1.92,0,0,0,0,0,.01-.03,4.5,0,9.01-.02,13.51,0,.51.24.66.7.65.79-.02,1.58-.04,2.36,0,.64.03.85-.2.84-.84-.03-2.17-.01-4.34-.01-6.51m20-.03c0-2.12.01-4.23,0-6.34.01-.43-.06-.86-.21-1.26-.35-.77-1.16-1.22-1.99-1.09-.96.15-1.66.98-1.64,1.94-.05,1.52-.02,3.04-.02,4.55,0,2.9.02,5.8-.01,8.7,0,.68.23.93.9.89.7-.04,1.41-.04,2.11,0,.67.04.9-.2.89-.88-.04-2.17-.01-4.33-.01-6.51m-36.35-1.23v-6.1c0-2.01,0-1.98-2.02-2-.72,0-.92.22-.92.93.03,4.37.01,8.73.01,13.1,0,2.11,0,2.09,2.1,2.09.65,0,.84-.22.83-.85-.03-2.39-.01-4.77-.01-7.16m51.73-.09v-6.1c0-1.91,0-1.87-1.94-1.92-.8-.02-1,.25-1,1.01.03,4.33.02,8.68.02,13.01,0,2.12,0,2.1,2.11,2.08.64,0,.84-.21.83-.85-.03-2.41-.01-4.83-.01-7.24M15.22,32.6c-.16-.08-.34-.14-.52-.18-3.91,0-7.81-.02-11.72.01-.98-.03-1.8.73-1.83,1.7-.03.98.73,1.8,1.7,1.83.06,0,.13,0,.19,0,2.6.03,5.21.03,7.81,0,.27,0,.57-.28.79-.49.61-.59,1.14-1.26,1.79-1.81.56-.4,1.15-.75,1.77-1.05m32.87-.14l-.07.21c.29.18.57.37.86.53,1.15.45,2.08,1.32,2.61,2.43.07.18.48.31.73.32.98.04,1.95.02,2.93.02,1.6,0,3.2.03,4.8-.01.97.09,1.82-.62,1.92-1.58.03-.31-.02-.61-.15-.9-.37-.76-1.18-1.19-2.02-1.08-3.66,0-7.32,0-10.98,0-.21,0-.41.04-.62.06m-23.52-5.24c-.12-.11-.16-.17-.2-.17-3.2,0-6.4-.04-9.6.01-.94-.02-1.72.72-1.75,1.66,0,.07,0,.13,0,.2.05.97.87,1.72,1.84,1.67,0,0,0,0,0,0,1,.03,2.01.05,3.01,0,.56-.02,1.1-.16,1.6-.41,1.55-.82,3.07-1.72,4.59-2.59.17-.11.33-.23.48-.35m13.86-.1c.13.14.27.27.42.39,1.67.95,3.34,1.9,5.01,2.84.23.14.49.22.76.23,1.22.02,2.44.04,3.66,0,.95,0,1.73-.75,1.74-1.71,0-.08,0-.15-.01-.23-.08-.99-.84-1.6-2.08-1.61-2.96-.01-5.91,0-8.87,0-.22.02-.43.05-.65.09m-3.31-21.81c2.74,0,2.73,0,2.59-2.58-.02-.43-.15-.65-.61-.64-1.33.01-2.66-.02-3.99.03-.27.08-.48.29-.56.56-.08.59,0,1.19-.04,1.79-.04.62.15.91.83.85.59-.05,1.19-.01,1.79-.01" stroke="#fff" stroke-width=".5"/></g></g></svg>