<svg xmlns="http://www.w3.org/2000/svg" width="62.772" height="58.914" viewBox="0 0 62.772 58.914"><g transform="translate(0.25 0.25)"><g transform="translate(0 0)"><path d="M47.35,3.655,44.922.248A.594.594,0,0,0,44.1.106L40.49,2.627,36.881.106a.593.593,0,0,0-.68,0L32.595,2.627,28.988.106a.593.593,0,0,0-.68,0L24.7,2.627,21.1.106a.592.592,0,0,0-.68,0l-3.6,2.521L13.208.106a.592.592,0,0,0-.68,0l-3.6,2.521L5.319.106a.592.592,0,0,0-.7.018L.229,3.531a.593.593,0,0,0-.122.809L2.628,7.949.106,11.557a.594.594,0,0,0,0,.68l2.521,3.606L.106,19.45a.593.593,0,0,0,0,.68l2.521,3.606-2.521,3.6a.593.593,0,0,0,0,.68l2.521,3.6L.107,35.23a.593.593,0,0,0,0,.68l2.521,3.6L.107,43.119a.593.593,0,0,0,0,.685L2.538,47.21a.593.593,0,0,0,.823.142l3.609-2.522,3.609,2.522a.593.593,0,0,0,.68,0l1.318-.921q-.094-.112-.184-.226c-.185-.235-.361-.477-.525-.726l-.949.664L7.309,43.621a.593.593,0,0,0-.679,0L3.163,46.043,1.319,43.456l2.519-3.6a.593.593,0,0,0,0-.68l-2.521-3.6,2.521-3.6a.593.593,0,0,0,0-.68l-2.521-3.6,2.521-3.6a.593.593,0,0,0,0-.68L1.317,19.79l2.521-3.607a.593.593,0,0,0,0-.68L1.317,11.9,3.838,8.288a.593.593,0,0,0,0-.68L1.4,4.122,5,1.329,8.585,3.837a.593.593,0,0,0,.68,0l3.6-2.521,3.6,2.521a.593.593,0,0,0,.68,0l3.6-2.521,3.6,2.521a.593.593,0,0,0,.68,0l3.606-2.521,3.607,2.521a.593.593,0,0,0,.68,0l3.606-2.521L40.15,3.838a.593.593,0,0,0,.68,0L44.3,1.416,46.14,4l-2.519,3.6a.593.593,0,0,0,0,.68l1.07,1.529a7.989,7.989,0,0,0,1.028-.6l-.888-1.27,2.521-3.605a.593.593,0,0,0,0-.685" transform="translate(0.001 0.001)"/><path d="M10.918,47.709a.838.838,0,0,1-.483-.152L6.969,45.136,3.5,47.557a.843.843,0,0,1-1.17-.2L-.094,43.949a.845.845,0,0,1,0-.973l2.421-3.462L-.1,36.054a.846.846,0,0,1,0-.967l2.421-3.461L-.1,28.164a.846.846,0,0,1,0-.967l2.421-3.461L-.1,20.274a.846.846,0,0,1,0-.966l2.421-3.464L-.1,12.381a.847.847,0,0,1,0-.966L2.323,7.949-.1,4.483A.843.843,0,0,1,.075,3.334L4.462-.074a.842.842,0,0,1,1-.025L8.925,2.322,12.384-.1a.842.842,0,0,1,.967,0l3.461,2.421L20.274-.1a.842.842,0,0,1,.967,0L24.7,2.322,28.165-.1a.843.843,0,0,1,.966,0l3.464,2.421L36.058-.1a.843.843,0,0,1,.967,0L40.49,2.322,43.955-.1a.844.844,0,0,1,1.17.2L47.553,3.51a.845.845,0,0,1,0,.973L45.137,7.945l.935,1.336-.213.142a8.22,8.22,0,0,1-1.061.618l-.19.089-1.19-1.7a.846.846,0,0,1,0-.967L45.834,4l-1.6-2.242-3.264,2.28a.843.843,0,0,1-.966,0L36.541,1.621,33.078,4.042a.843.843,0,0,1-.966,0L28.648,1.621,25.185,4.042a.843.843,0,0,1-.967,0L20.757,1.622,17.3,4.042a.843.843,0,0,1-.967,0L12.868,1.622,9.408,4.042a.843.843,0,0,1-.967,0L5.006,1.64,1.743,4.174l2.3,3.292a.847.847,0,0,1,0,.966L1.622,11.9l2.421,3.463a.846.846,0,0,1,0,.966L1.622,19.79l2.421,3.463a.846.846,0,0,1,0,.967L1.622,27.681l2.421,3.461a.846.846,0,0,1,0,.967L1.622,35.57l2.421,3.46a.846.846,0,0,1,0,.967L1.625,43.454l1.6,2.242,3.264-2.28a.843.843,0,0,1,.966,0l3.466,2.421,1.017-.711.141.215c.153.232.325.471.512.709.058.074.118.147.179.22l.176.209L11.4,47.557A.84.84,0,0,1,10.918,47.709ZM6.969,44.526l3.752,2.622a.348.348,0,0,0,.393,0l1.1-.767-.017-.021c-.139-.177-.271-.355-.393-.53l-.884.618L7.166,43.826a.348.348,0,0,0-.393,0L3.1,46.39l-2.09-2.933,2.62-3.747a.344.344,0,0,0,0-.394L1.012,35.57l2.621-3.748a.344.344,0,0,0,0-.393L1.012,27.681l2.621-3.748a.344.344,0,0,0,0-.393L1.012,19.79l2.621-3.75a.344.344,0,0,0,0-.393L1.012,11.9,3.633,8.145a.345.345,0,0,0,0-.393L1.061,4.07,4.99,1.019,8.728,3.632a.348.348,0,0,0,.393,0l3.747-2.621,3.748,2.621a.348.348,0,0,0,.394,0l3.748-2.621,3.748,2.621a.348.348,0,0,0,.394,0l3.749-2.621L32.4,3.633a.348.348,0,0,0,.393,0l3.749-2.621,3.752,2.621a.349.349,0,0,0,.393,0l3.67-2.564L46.446,4l-2.62,3.747a.344.344,0,0,0,0,.394L44.773,9.5c.206-.107.4-.227.594-.349l-.841-1.2L47.148,4.2a.344.344,0,0,0,0-.4L44.718.393a.345.345,0,0,0-.477-.082L40.49,2.932,36.738.311a.348.348,0,0,0-.394,0L32.595,2.932,28.845.311a.348.348,0,0,0-.393,0L24.7,2.932,20.954.311a.348.348,0,0,0-.394,0L16.812,2.932,13.065.311a.348.348,0,0,0-.393,0L8.925,2.932,5.176.311a.343.343,0,0,0-.2-.062.338.338,0,0,0-.21.072L.382,3.728A.343.343,0,0,0,.311,4.2L2.933,7.949.311,11.7a.345.345,0,0,0,0,.393l2.621,3.749L.311,19.594a.344.344,0,0,0,0,.393l2.621,3.749L.312,27.484a.344.344,0,0,0,0,.393l2.621,3.748L.312,35.374a.344.344,0,0,0,0,.393l2.621,3.746L.312,43.262a.344.344,0,0,0,0,.4l2.428,3.407a.345.345,0,0,0,.28.144.34.34,0,0,0,.2-.062Z" transform="translate(0.001 0.001)"/><path d="M247.672,214.307a.593.593,0,0,0,.823.142l3.609-2.522,3.609,2.522a.593.593,0,0,0,.68,0L260,211.928l3.607,2.521a.593.593,0,0,0,.68,0l3.606-2.521,3.6,2.521a.593.593,0,0,0,.68,0l3.6-2.521,3.6,2.521a.593.593,0,0,0,.68,0l3.6-2.521,3.605,2.521a.592.592,0,0,0,.7-.018l4.387-3.407a.593.593,0,0,0,.123-.808l-2.522-3.609L292.487,203a.593.593,0,0,0,0-.68l-2.521-3.606,2.521-3.607a.593.593,0,0,0,0-.68l-2.521-3.606,2.521-3.6a.593.593,0,0,0,0-.68l-2.521-3.6,2.521-3.6a.593.593,0,0,0,0-.68l-2.521-3.6,2.521-3.605a.593.593,0,0,0,0-.685l-2.428-3.407a.594.594,0,0,0-.823-.142l-3.609,2.522-3.609-2.522a.593.593,0,0,0-.68,0l-3.606,2.521-3.607-2.521a.593.593,0,0,0-.68,0l-3.606,2.521-3.6-2.521a.592.592,0,0,0-.68,0l-3.6,2.521-3.6-2.521a.592.592,0,0,0-.68,0l-3.6,2.521-3.605-2.521a.592.592,0,0,0-.7.018l-4.387,3.407a.593.593,0,0,0-.122.809l2.522,3.609-2.522,3.609a.593.593,0,0,0,0,.68l2.521,3.606-2.521,3.607a.593.593,0,0,0,0,.68l2.521,3.606-2.521,3.6a.593.593,0,0,0,0,.68l2.521,3.6-2.521,3.6a.593.593,0,0,0,0,.68l2.521,3.6-2.521,3.605a.593.593,0,0,0,0,.685Zm1.3-7.357a.593.593,0,0,0,0-.68l-2.521-3.6,2.521-3.6a.593.593,0,0,0,0-.68l-2.521-3.6,2.521-3.6a.593.593,0,0,0,0-.68l-2.521-3.606,2.521-3.607a.593.593,0,0,0,0-.68l-2.521-3.606,2.521-3.609a.594.594,0,0,0,0-.68l-2.436-3.486,3.6-2.793,3.587,2.508a.593.593,0,0,0,.68,0l3.6-2.521,3.6,2.521a.593.593,0,0,0,.68,0l3.6-2.521,3.6,2.521a.593.593,0,0,0,.68,0l3.606-2.521,3.607,2.521a.593.593,0,0,0,.68,0l3.606-2.521,3.609,2.521a.594.594,0,0,0,.68,0l3.467-2.422,1.844,2.587-2.519,3.6a.593.593,0,0,0,0,.68l2.521,3.6-2.521,3.6a.593.593,0,0,0,0,.68l2.521,3.6-2.521,3.6a.593.593,0,0,0,0,.68l2.521,3.606-2.521,3.607a.593.593,0,0,0,0,.68l2.521,3.606-2.521,3.609a.593.593,0,0,0,0,.68l2.436,3.486-3.6,2.793-3.587-2.508a.593.593,0,0,0-.68,0l-3.6,2.521-3.6-2.521a.592.592,0,0,0-.68,0l-3.6,2.521-3.6-2.521a.592.592,0,0,0-.68,0l-3.606,2.521-3.607-2.521a.593.593,0,0,0-.68,0l-3.606,2.521-3.609-2.521a.593.593,0,0,0-.679,0L248.3,213.14l-1.844-2.587Z" transform="translate(-230.322 -156.143)"/><path d="M263.945,214.806a.839.839,0,0,1-.483-.152L260,212.233l-3.463,2.421a.843.843,0,0,1-.967,0l-3.466-2.422-3.466,2.422a.843.843,0,0,1-1.169-.2l-2.428-3.407a.845.845,0,0,1,0-.973l2.421-3.462-2.421-3.46a.846.846,0,0,1,0-.967l2.421-3.461-2.421-3.461a.846.846,0,0,1,0-.967l2.421-3.461-2.421-3.463a.846.846,0,0,1,0-.966l2.421-3.464-2.421-3.463a.847.847,0,0,1,0-.966l2.422-3.466-2.422-3.466a.843.843,0,0,1,.174-1.149l4.387-3.407a.842.842,0,0,1,1-.025l3.462,2.421,3.46-2.421a.842.842,0,0,1,.967,0l3.461,2.421L265.408,167a.842.842,0,0,1,.967,0l3.461,2.421L273.3,167a.843.843,0,0,1,.966,0l3.464,2.421L281.192,167a.843.843,0,0,1,.967,0l3.466,2.421L289.09,167a.844.844,0,0,1,1.17.2l2.428,3.407a.845.845,0,0,1,0,.973l-2.421,3.462,2.421,3.46a.846.846,0,0,1,0,.967l-2.421,3.461,2.421,3.461a.846.846,0,0,1,0,.967l-2.421,3.461,2.421,3.463a.846.846,0,0,1,0,.966l-2.421,3.464,2.421,3.463a.846.846,0,0,1,0,.966l-2.422,3.466,2.422,3.466a.843.843,0,0,1-.174,1.149l-4.387,3.407a.842.842,0,0,1-1,.025l-3.462-2.421-3.46,2.421a.843.843,0,0,1-.967,0l-3.461-2.421-3.461,2.421a.843.843,0,0,1-.967,0l-3.461-2.421-3.463,2.421A.839.839,0,0,1,263.945,214.806ZM260,211.623l3.75,2.621a.348.348,0,0,0,.393,0l3.749-2.621,3.748,2.621a.348.348,0,0,0,.394,0l3.748-2.621,3.748,2.621a.348.348,0,0,0,.393,0l3.746-2.621,3.749,2.621a.344.344,0,0,0,.2.062.336.336,0,0,0,.209-.072l4.387-3.408a.343.343,0,0,0,.071-.468l-2.622-3.752,2.622-3.752a.345.345,0,0,0,0-.393l-2.621-3.749,2.621-3.75a.344.344,0,0,0,0-.393l-2.621-3.749,2.621-3.748a.344.344,0,0,0,0-.393l-2.621-3.748,2.621-3.748a.344.344,0,0,0,0-.393l-2.621-3.746,2.621-3.749a.344.344,0,0,0,0-.4l-2.428-3.407a.345.345,0,0,0-.477-.082l-3.751,2.621-3.752-2.622a.348.348,0,0,0-.394,0l-3.749,2.621-3.75-2.621a.348.348,0,0,0-.393,0l-3.749,2.621-3.748-2.621a.348.348,0,0,0-.394,0l-3.748,2.621-3.748-2.621a.348.348,0,0,0-.393,0l-3.747,2.621-3.749-2.621a.343.343,0,0,0-.2-.062.338.338,0,0,0-.21.072l-4.387,3.408a.343.343,0,0,0-.071.468l2.622,3.752-2.622,3.752a.345.345,0,0,0,0,.393l2.621,3.749-2.621,3.75a.344.344,0,0,0,0,.393l2.621,3.749-2.621,3.748a.344.344,0,0,0,0,.393l2.621,3.748-2.621,3.748a.344.344,0,0,0,0,.393l2.621,3.746-2.621,3.749a.344.344,0,0,0,0,.4l2.428,3.407a.345.345,0,0,0,.28.144.34.34,0,0,0,.2-.062l3.752-2.622,3.752,2.622a.348.348,0,0,0,.393,0Zm19.727,1.921-3.748-2.621a.348.348,0,0,0-.394,0l-3.748,2.621-3.748-2.621a.348.348,0,0,0-.394,0l-3.749,2.621-3.75-2.621a.348.348,0,0,0-.393,0l-3.749,2.621-3.752-2.621a.348.348,0,0,0-.393,0l-3.67,2.564-2.09-2.933,2.62-3.747a.344.344,0,0,0,0-.394l-2.621-3.746,2.621-3.748a.344.344,0,0,0,0-.393l-2.621-3.748,2.621-3.748a.344.344,0,0,0,0-.393l-2.621-3.749,2.621-3.75a.344.344,0,0,0,0-.393l-2.621-3.749,2.621-3.752a.345.345,0,0,0,0-.393l-2.572-3.681,3.929-3.051,3.738,2.614a.348.348,0,0,0,.393,0L258,168.108l3.748,2.621a.348.348,0,0,0,.394,0l3.748-2.621,3.748,2.621a.348.348,0,0,0,.394,0l3.749-2.621,3.75,2.621a.348.348,0,0,0,.393,0l3.749-2.621,3.752,2.621a.349.349,0,0,0,.393,0l3.67-2.564,2.09,2.933-2.62,3.747a.344.344,0,0,0,0,.394l2.621,3.746-2.621,3.748a.344.344,0,0,0,0,.393l2.621,3.748-2.621,3.748a.344.344,0,0,0,0,.393l2.621,3.749-2.621,3.75a.344.344,0,0,0,0,.393l2.621,3.749-2.621,3.752a.345.345,0,0,0,0,.393l2.572,3.681-3.929,3.051-3.738-2.614a.348.348,0,0,0-.393,0ZM252.1,210.361a.839.839,0,0,1,.483.152l3.466,2.421,3.463-2.421a.843.843,0,0,1,.966,0l3.464,2.421,3.463-2.421a.842.842,0,0,1,.967,0l3.461,2.421,3.461-2.421a.842.842,0,0,1,.967,0l3.461,2.421,3.46-2.421a.843.843,0,0,1,.967,0l3.436,2.4,3.263-2.534-2.3-3.292a.847.847,0,0,1,0-.966l2.421-3.466-2.421-3.463a.846.846,0,0,1,0-.966l2.421-3.464-2.421-3.463a.846.846,0,0,1,0-.967l2.421-3.461-2.421-3.461a.846.846,0,0,1,0-.967l2.421-3.461-2.421-3.46a.846.846,0,0,1,0-.967l2.418-3.458-1.6-2.242-3.264,2.28a.843.843,0,0,1-.966,0l-3.466-2.421-3.463,2.421a.843.843,0,0,1-.966,0l-3.464-2.421-3.463,2.421a.843.843,0,0,1-.967,0l-3.461-2.421-3.461,2.421a.842.842,0,0,1-.967,0L258,168.719l-3.46,2.421a.843.843,0,0,1-.967,0l-3.436-2.4-3.263,2.534,2.3,3.292a.847.847,0,0,1,0,.966l-2.421,3.466,2.421,3.463a.846.846,0,0,1,0,.966l-2.421,3.464,2.421,3.463a.846.846,0,0,1,0,.967l-2.421,3.461,2.421,3.461a.846.846,0,0,1,0,.967l-2.421,3.461,2.421,3.46a.846.846,0,0,1,0,.967l-2.417,3.458,1.6,2.242,3.264-2.28A.839.839,0,0,1,252.1,210.361Z" transform="translate(-230.322 -156.143)"/></g></g></svg>