<?xml version="1.0" encoding="UTF-8"?><svg id="a" xmlns="http://www.w3.org/2000/svg" width="49" height="55" xmlns:xlink="http://www.w3.org/1999/xlink" viewBox="0 0 49 55"><defs><clipPath id="b"><rect x=".07" y=".47" width="48.86" height="54.06" fill="none"/></clipPath></defs><g clip-path="url(#b)"><g id="c"><path id="d" d="m47.89,36.86c-.57,0-1.04.46-1.04,1.04h0v14.56H2.15v-14.55c-.02-.57-.5-1.03-1.07-1.01-.55.02-.99.46-1.01,1.01v15.59c0,.57.46,1.04,1.04,1.04h46.78c.57,0,1.04-.46,1.04-1.04h0v-15.6c0-.57-.46-1.04-1.04-1.04h0Z"/><path id="e" d="m23.12,43.7s.05.09.08.13c.2.19.46.3.74.3h.04c.14,0,.27-.03.4-.08.17-.08.32-.2.43-.36l16.54-16.54c.42-.39.44-1.05.05-1.47-.39-.42-1.05-.44-1.47-.05-.02.02-.03.03-.05.05l-14.86,14.86V1.51c.02-.57-.43-1.05-1.01-1.07-.57-.02-1.05.43-1.07,1.01,0,.02,0,.04,0,.06v39.07l-14.9-14.9c-.42-.39-1.08-.37-1.47.05-.37.4-.37,1.02,0,1.42l16.55,16.55Z"/></g></g></svg>