<?xml version="1.0" encoding="UTF-8"?><svg id="a" xmlns="http://www.w3.org/2000/svg" width="65" height="65" xmlns:xlink="http://www.w3.org/1999/xlink" viewBox="0 0 65 65"><defs><clipPath id="b"><rect x="8.36" y="3.7" width="48.28" height="57.61" fill="none"/></clipPath></defs><g clip-path="url(#b)"><g id="c"><path id="d" d="m8.36,60.49V4.51c0-.45.36-.81.81-.81,0,0,0,0,0,0h46.65c.45,0,.81.36.82.81,0,0,0,0,0,.01v46.64c0,.45-.36.81-.81.82,0,0,0,0-.01,0h-8.51v8.51c0,.45-.36.81-.81.82,0,0,0,0-.01,0,0,0-38.13-.36-38.13-.82Zm1.63-.82h35.68v-8.51c0-.45.36-.81.81-.82,0,0,0,0,.01,0h8.51V5.33H9.99v54.34Z"/><path id="e" d="m46.49,61.3c-.22,0-.42-.08-.58-.23-.32-.32-.32-.83,0-1.16l9.33-9.33c.32-.32.84-.32,1.15,0,.32.32.32.83,0,1.15l-9.33,9.33c-.15.15-.36.23-.57.23"/><path id="f" d="m48.79,37.98H16.65c-.66,0-1.18-.36-1.18-.82s.52-.82,1.18-.82h32.14c.66,0,1.18.36,1.18.82s-.52.82-1.18.82"/><path id="g" d="m48.79,42.64H16.65c-.66,0-1.18-.36-1.18-.82s.52-.82,1.18-.82h32.14c.66,0,1.18.36,1.18.82s-.52.82-1.18.82"/><path id="h" d="m48.79,47.31H16.65c-.66,0-1.18-.36-1.18-.82s.52-.82,1.18-.82h32.14c.66,0,1.18.36,1.18.82s-.52.82-1.18.82"/><path id="i" d="m29.11,51.97h-12.83c-.45,0-.82-.37-.82-.82s.37-.82.82-.82h12.83c.45,0,.82.37.82.82s-.37.82-.82.82"/><path id="j" d="m29.11,56.64h-12.83c-.45,0-.82-.37-.82-.82s.37-.82.82-.82h12.83c.45,0,.82.37.82.82s-.37.82-.82.82"/><path id="k" d="m32.5,33.32c-6.89,0-12.48-5.59-12.48-12.48s5.59-12.48,12.48-12.48,12.48,5.59,12.48,12.48h0c0,6.89-5.59,12.47-12.48,12.48Zm0-23.32c-5.99,0-10.85,4.86-10.85,10.85s4.86,10.85,10.85,10.85,10.85-4.86,10.85-10.85c0-5.99-4.86-10.84-10.85-10.85Z"/><path id="l" d="m36,21.65h-3.5c-.45,0-.81-.36-.82-.81,0,0,0,0,0-.01v-7c0-.45.37-.82.82-.82s.82.37.82.82v6.18h2.68c.45,0,.82.37.82.82s-.37.82-.82.82h0Z"/></g></g></svg>