<?xml version="1.0" encoding="UTF-8"?><svg id="a" xmlns="http://www.w3.org/2000/svg" width="56.999999999999091" height="57.000000000000909" xmlns:xlink="http://www.w3.org/1999/xlink" viewBox="0 0 56.999999999999091 57.000000000000909"><defs><clipPath id="f"><rect x="14.18408203125" y="14.68408203125" width="27.632999420165106" height="27.632999420166925" fill="none"/></clipPath></defs><g id="b"><g id="c"><g id="d"><path id="e" d="m28.5,57.000000000000909C12.759883880615234,57.000000000000909,0,44.240116119385675,0,28.5,0,12.759883880615234,12.759883880615234,0,28.5,0c15.740116119383856,0,28.499999999999091,12.759883880615234,28.499999999999091,28.5-.01873779296875,15.732349395752863-12.767650604248047,28.481262207032159-28.499999999999091,28.500000000000909Zm0-55.458999633789972C13.610956192016602,1.541000366210938,1.541000366210938,13.610956192016602,1.541000366210938,28.5c0,14.889045715332941,12.069955825805664,26.958999633789972,26.958999633789062,26.958999633789972,14.889045715331122,0,26.958999633788153-12.069953918457031,26.958999633788153-26.958999633789972-.016532897949219-14.882190704345703-12.076808929443359-26.942465782165527-26.958999633788153-26.958999633789062Z"/></g></g><g clip-path="url(#f)"><g id="g"><path id="h" d="m29.611082077025458,22.245081901550293l3.678998947143555-3.680000066757202c1.304811477661133-1.260550975799561,3.384449005126953-1.224670171737671,4.645000457763672.08014178276062,1.22990608215332,1.273090362548828,1.22990608215332,3.291768074035645,0,4.564858436584473l-6.192998886108398,6.194000244140625c-1.282218933105469,1.279082298279718-3.357780456542059,1.279082298279718-4.639999389647528,0h0c-.554574012756348-.585342407226562-1.478657722473145-.610284805297852-2.064000129699707-.05571174621582-.585342407226562.554574012757257-.610284805297852,1.478657722474054-.05571174621582,2.064000129700617.01806640625.019067764282227.036643981933594.03764533996582.05571174621582.05571174621582,2.419626235961914,2.422872543334961,6.345248222350165,2.425504684448242,8.768122673033758.005878448486328.001960754394531-.001956939697266.00391960144043-.003917694091797.005878448486328-.005878448486328l6.193000793457031-6.192999839783624c2.422872543334961-2.422873497009277,2.422872543334961-6.351126670837402,0-8.77400016784668-2.422872543334961-2.422873198986053-6.351127624511719-2.422873198986053-8.77400016784668,0h0l-5.100000381468817,5.099999904632568c1.195242881774902-.073697566986084,2.39028263092041.147453308105469,3.479997634886786.643999576568604Zm-11.545000076293036,16.191000938416437c-1.282681465148926-1.282281875610352-1.283005237579346-3.361595153808594-.000723361968994-4.644277572631836.000241041183472-.000240325927734.000482320785522-.000482559204102.000723361968994-.000722885131836l6.192999839782715-6.192999839783624c1.282106399536133-1.280298233032227,3.358893394470215-1.280298233032227,4.640999794006348,0h0c.570234298705145.570234298706055,1.494766235350653.570234298706055,2.065000534056708,0,.570234298706055-.570233345031738.570234298706055-1.494765281677246,0-2.064999580383301-2.419627189635321-2.422873497009277-6.345248222350165-2.425504684448242-8.768121719359442-.005878448486328-.001960754394531.001958847045898-.003920555114746.003917694091797-.005878448486328.005878448486328l-3.099999904632568,3.100000381469727-3.099999904632568,3.100000381470636c-2.422873198986053,2.422872543334961-2.422873198986053,6.351127624511719,0,8.77400016784668,2.422873497009277,2.422872543334961,6.351126670837402,2.422872543334961,8.77400016784668,0l5.099999427794501-5.100000381469727c-1.19740104675202.0753173828125-2.394939422606512-.145164489746094-3.486999511717841-.642000198364258l-3.680000305175781,3.680000305175781c-1.28228235244751,1.282680511474609-3.361595630645752,1.283004760742188-4.644277095794678.000722885131836-.000241041183472-.000240325927734-.000482082366943-.000482559204102-.000722885131836-.000722885131836l.013000011444092-.009000778198242Z" fill-rule="evenodd"/></g></g></g></svg>