<?xml version="1.0" encoding="UTF-8"?><svg id="a" xmlns="http://www.w3.org/2000/svg" width="65" height="65" xmlns:xlink="http://www.w3.org/1999/xlink" viewBox="0 0 65 65"><defs><clipPath id="b"><rect x="2.5" y="2.5" width="60" height="60" fill="none"/></clipPath></defs><g clip-path="url(#b)"><g id="c"><path id="d" d="m45.13,21.13l-18.99,19.06c-.35.35-.92.35-1.27,0l-5.08-5.08c-.51-.58-1.39-.65-1.97-.14-.58.51-.65,1.39-.14,1.97.04.05.09.1.14.14l5.08,5.08c1.46,1.41,3.77,1.41,5.22,0l18.99-18.98c.55-.52.57-1.38.05-1.93-.02-.02-.03-.03-.05-.05-.53-.55-1.4-.58-1.98-.07" stroke="#f6f5f3"/><path id="e" d="m32.5,2.5C15.93,2.5,2.5,15.93,2.5,32.5s13.43,30,30,30,30-13.43,30-30c.01-16.55-13.4-29.99-29.95-30-.02,0-.03,0-.05,0m0,57.18c-15.01,0-27.18-12.17-27.18-27.18S17.49,5.32,32.5,5.32s27.18,12.17,27.18,27.18h0c-.03,15-12.18,27.14-27.18,27.18" stroke="#f6f5f3"/></g></g></svg>