<?xml version="1.0" encoding="UTF-8"?><svg id="a" xmlns="http://www.w3.org/2000/svg" width="65" height="65" viewBox="0 0 65 65"><path id="b" d="m58.57.47h-31.46s-.06.07-.1.1c0,.04,0,.09,0,.13,0,.05,0,.1,0,.15v8.55H6.43c-.41,0-.74.33-.75.74v53.63c0,.41.33.74.75.74h33.98c.41,0,.74-.33.74-.74v-8.19h17.41c.41,0,.74-.33.74-.74V1.22c0-.41-.33-.74-.74-.75m-30.25,2.23l9.73,6.7h-9.73V2.71Zm11.35,12.59v47.74H7.18V10.9h32.49v4.39Zm18.16,38.81h-16.67v-9.46h6.75c.41,0,.75-.33.75-.75s-.33-.74-.75-.74h-6.75v-4.47h8.24c.41,0,.75-.33.75-.75s-.33-.74-.75-.74h-8.24v-4.47h6.75c.41,0,.74-.33.74-.75,0-.41-.33-.74-.74-.74h-6.75v-4.47h8.24c.41,0,.75-.33.75-.74,0-.41-.33-.75-.74-.75h-8.24v-5.3h8.48c1.23,0,2.23-1,2.23-2.23v-1.01c0-1.23-1-2.23-2.23-2.23h-8.48v-4.34s0-.1,0-.15v-.13l-.07-.12-.1-.1L29.94,1.96h27.89v52.14Zm-16.67-35.62v-2.5h8.48c.41,0,.74.33.74.75v1.01c0,.41-.33.75-.74.75h-8.48Z"/><path id="c" d="m31.52,43.49H15.32c-1.23,0-2.23,1-2.23,2.23v1.01c0,1.23,1,2.23,2.23,2.24h16.2c1.23,0,2.23-1,2.23-2.23v-1.01c0-1.23-1-2.23-2.23-2.23m.75,3.25c0,.41-.34.74-.75.74H15.32c-.41,0-.74-.34-.74-.74v-1.01c0-.41.33-.74.74-.74h16.2c.41,0,.75.33.75.74h0v1.01Z"/><path id="d" d="m30.89,52.22h-14.9c-.41,0-.74.34-.74.74,0,.41.33.74.74.74h14.9c.41,0,.75-.33.75-.74,0-.41-.34-.74-.75-.74"/><path id="e" d="m30.89,56.77h-14.9c-.41,0-.74.33-.74.74,0,.41.34.74.74.74h14.9c.41,0,.74-.34.75-.74,0-.41-.33-.74-.75-.74"/><path id="f" d="m33.82,34.69H13.53V14.39h20.3v20.3Zm-18.81-1.49h17.32V15.88H15.02v17.32Z"/></svg>