<svg xmlns="http://www.w3.org/2000/svg" xmlns:xlink="http://www.w3.org/1999/xlink" width="63.517" height="59" viewBox="0 0 63.517 59"><defs><clipPath id="a"><rect width="63.517" height="59" transform="translate(0 0)" fill="none"/></clipPath></defs><g clip-path="url(#a)"><path d="M61.964,1.552A5.3,5.3,0,0,0,58.223,0H5.293a5.3,5.3,0,0,0-3.74,1.553C.56,2.543,0,2.76,0,6.986V41.117a5.7,5.7,0,0,0,1.553,3.626A5.3,5.3,0,0,0,5.293,46.3H23.148l-.794,6.352H20.113a3.176,3.176,0,0,0,0,6.352H43.4a3.176,3.176,0,1,0,0-6.352H41.162L40.368,46.3H58.223a5.3,5.3,0,0,0,3.74-1.553,4.49,4.49,0,0,0,1.553-3.176V6.986c0-4.226-.56-4.442-1.553-5.435M43.4,54.764a1.059,1.059,0,0,1,0,2.118H20.113a1.059,1.059,0,0,1,0-2.118ZM24.488,52.647l.794-6.352H38.238l.789,6.352ZM61.4,41a3.176,3.176,0,0,1-3.175,3.175v0H5.293A3.176,3.176,0,0,1,2.118,41v-.357H61.4Zm-42.12-6.09H15.995V33.032h3.284a.938.938,0,0,0,0-1.877H15.995V29.278h7.038a.938.938,0,0,0,0-1.877H15.995V25.525h3.284a.938.938,0,1,0,0-1.877H15.995V21.771h3.284a.938.938,0,0,0,0-1.877H15.995V18.017h7.038a.938.938,0,0,0,0-1.877H15.995V12.387H29.132V38.533H15.995V36.785h3.284a.938.938,0,0,0,0-1.877M41.071,19.894h4.692V38.533H42.948V22.709a.938.938,0,1,0-1.877,0V38.533H38.256V19.225l3.754-6.006,3,4.8H41.071a.938.938,0,1,0,0,1.877M61.395,38.533H47.64V19.123c0-.027,0-.054,0-.081a.937.937,0,0,0-.139-.584l-4.692-7.507a.975.975,0,0,0-1.592,0l-4.692,7.507a.94.94,0,0,0-.143.5V38.533h-5.37V11.449a.939.939,0,0,0-.938-.938H15.056a.939.939,0,0,0-.938.938V38.533h-12V8.891H61.4Zm0-31.758H2.118V5.292A3.176,3.176,0,0,1,5.293,2.117h52.93A3.176,3.176,0,0,1,61.4,5.292Z" transform="translate(0 0.001)" fill-rule="evenodd"/></g></svg>