<svg xmlns="http://www.w3.org/2000/svg" xmlns:xlink="http://www.w3.org/1999/xlink" width="47.608" height="62.469" viewBox="0 0 47.608 62.469"><defs><clipPath id="a"><rect width="47.608" height="62.469" fill="none" stroke="#fff" stroke-width="0.2"/></clipPath><clipPath id="b"><rect width="9.347" height="15.944" fill="none"/></clipPath></defs><g clip-path="url(#a)"><path d="M0,30.538Q0,20.147,0,9.755A3.827,3.827,0,0,1,1.192,6.874Q4.086,4.03,6.933,1.135A3.661,3.661,0,0,1,9.66,0q13.564,0,27.128,0a3.366,3.366,0,0,1,3.272,1.825,3.656,3.656,0,0,1,.394,1.6c.023,7.339.011,14.68.011,22.019q0,3.53.009,7.061a1.137,1.137,0,0,1-.63,1.163,1.07,1.07,0,0,1-1.511-.74,3.1,3.1,0,0,1-.038-.615q0-13.877,0-27.755V3.9c0-1.32-.391-1.715-1.7-1.716l-8.425,0q-8.669,0-17.336,0c-.67,0-.669,0-.671.678,0,1.574.009,3.148-.02,4.721A1.968,1.968,0,0,1,8.689,9.52a3.223,3.223,0,0,1-.871.094c-1.691.008-3.382.019-5.073-.006-.45-.007-.568.129-.568.574q.017,17.231.009,34.462,0,3.31,0,6.62c0,1.1.452,1.56,1.544,1.56,4.514,0,9.028,0,13.543.01a1.993,1.993,0,0,1,.919.207A.99.99,0,0,1,18.6,54.2a1.03,1.03,0,0,1-1,.784c-.808.026-1.617.014-2.426.014H3.571A3.389,3.389,0,0,1,.5,53.348,3.554,3.554,0,0,1,0,51.41Q.008,40.974,0,30.538m3.9-23.106c1.223,0,2.409-.011,3.593.007.363.005.488-.114.482-.476-.016-1.1,0-2.2,0-3.3a1.743,1.743,0,0,0-.039-.269L3.906,7.432" transform="translate(0 0)"/><path d="M16.318,55.1l-1.147,0H3.571A3.5,3.5,0,0,1,.413,53.4,3.645,3.645,0,0,1-.1,51.41c0-5.408,0-10.907,0-16.225V30.538q0-2.71,0-5.421c0-5.035,0-10.242-.005-15.362A3.937,3.937,0,0,1,1.122,6.8c1.742-1.711,3.566-3.535,5.74-5.737A3.749,3.749,0,0,1,9.66-.1h4.527l10.1,0c4.807,0,8.778,0,12.5-.005A3.473,3.473,0,0,1,40.15,1.779a3.75,3.75,0,0,1,.405,1.648c.018,5.614.015,11.322.012,16.843q0,2.588,0,5.176c0,2.728,0,4.971.009,7.06a1.252,1.252,0,0,1-.687,1.253,1.171,1.171,0,0,1-1.652-.81,2.993,2.993,0,0,1-.04-.6v-.035q0-13.877,0-27.755V3.9c0-1.267-.345-1.615-1.6-1.616q-12.881,0-25.761,0c-.277,0-.46,0-.515.056s-.056.231-.056.52c0,.438,0,.874,0,1.31,0,1.12,0,2.277-.02,3.416a2.061,2.061,0,0,1-1.528,2.03,3.324,3.324,0,0,1-.9.1l-.353,0c-.77,0-1.566.008-2.349.008-.887,0-1.664-.005-2.373-.015H2.713c-.358,0-.436.084-.436.474.01,9.676.009,19.514.009,29.027v7.642q0,2.206,0,4.413c0,1.051.4,1.46,1.444,1.46H7.375c3.244,0,6.6,0,9.9.009a2.111,2.111,0,0,1,.967.22,1.086,1.086,0,0,1,.456,1.275,1.125,1.125,0,0,1-1.1.858C17.131,55.1,16.669,55.1,16.318,55.1Zm-1.147-.2,1.147,0c.349,0,.81,0,1.275-.017a.933.933,0,0,0,.91-.71.9.9,0,0,0-.359-1.048,1.89,1.89,0,0,0-.871-.195c-3.3-.009-6.654-.009-9.9-.009H3.731c-1.153,0-1.644-.5-1.644-1.66q0-2.207,0-4.413V39.21c0-9.514,0-19.352-.009-29.027,0-.5.166-.675.636-.675h.034c.708.01,1.483.015,2.37.015.783,0,1.578,0,2.348-.008l.353,0a3.15,3.15,0,0,0,.843-.09,1.869,1.869,0,0,0,1.384-1.842c.021-1.137.02-2.294.02-3.412q0-.654,0-1.307c0-.735.045-.778.771-.778q12.879,0,25.761,0c1.358,0,1.794.442,1.8,1.815v.662q0,13.879,0,27.755v.036a2.844,2.844,0,0,0,.036.559.971.971,0,0,0,1.37.67,1.037,1.037,0,0,0,.573-1.072c-.007-2.089-.01-4.333-.009-7.061q0-2.588,0-5.176c0-5.52.005-11.228-.012-16.842a3.543,3.543,0,0,0-.383-1.557A3.246,3.246,0,0,0,36.792.1c-3.724,0-7.7.005-12.5.005l-10.1,0H9.66A3.558,3.558,0,0,0,7,1.205c-2.174,2.2-4,4.027-5.742,5.74A3.746,3.746,0,0,0,.1,9.755c.007,5.121.006,10.327.005,15.362q0,2.711,0,5.421v4.647C.1,40.5.105,46,.1,51.411A3.452,3.452,0,0,0,.582,53.3,3.306,3.306,0,0,0,3.571,54.9h11.6ZM7.523,7.539H7.5c-.46-.007-.966-.011-1.59-.011-.66,0-1.325,0-2,0H3.665L8.01,3.182l.029.2c0,.022.008.046.013.071a1.091,1.091,0,0,1,.027.213q0,.571,0,1.142c0,.707,0,1.438.005,2.157a.584.584,0,0,1-.129.445A.567.567,0,0,1,7.523,7.539ZM5.909,7.328c.625,0,1.131,0,1.593.011h.021a.4.4,0,0,0,.289-.074.421.421,0,0,0,.071-.3c-.01-.72-.008-1.452-.006-2.16q0-.571,0-1.142a.533.533,0,0,0,0-.062L4.148,7.332C4.742,7.331,5.327,7.328,5.909,7.328Z" transform="translate(0 0)" fill="#fff"/><path d="M22.911,53.463a13.7,13.7,0,1,1,13.7,13.7,13.731,13.731,0,0,1-13.7-13.7M36.658,41.974A11.5,11.5,0,1,0,48.134,53.512,11.5,11.5,0,0,0,36.658,41.974" transform="translate(-2.703 -4.692)"/><path d="M36.636,67.262H36.61a13.8,13.8,0,1,1,.089-27.59h.147a13.563,13.563,0,0,1,9.59,4.116,13.784,13.784,0,0,1-9.8,23.473Zm.063-27.39A13.7,13.7,0,0,0,23.011,53.463a13.6,13.6,0,0,0,13.6,13.6h.026a13.6,13.6,0,0,0,.208-27.189ZM36.6,65.08h-.03a11.6,11.6,0,0,1,.05-23.207h.035A11.6,11.6,0,0,1,36.6,65.08Zm.02-23.007A11.44,11.44,0,0,0,25.2,53.428,11.437,11.437,0,0,0,36.575,64.88H36.6a11.4,11.4,0,1,0,.054-22.807Z" transform="translate(-2.703 -4.692)" fill="#fff"/><path d="M21.086,29.562q-6.151,0-12.3,0a4.476,4.476,0,0,1-.616-.025,1.044,1.044,0,0,1-.921-1.064A1.06,1.06,0,0,1,8.167,27.4a3.28,3.28,0,0,1,.484-.021H33.428a5.032,5.032,0,0,1,.528.013,1.081,1.081,0,0,1,0,2.153c-.2.02-.411.014-.616.014H21.086" transform="translate(-0.855 -3.23)"/><path d="M14.936,29.662H8.662a3.672,3.672,0,0,1-.506-.026,1.15,1.15,0,0,1-1.007-1.163,1.161,1.161,0,0,1,1-1.17,2.778,2.778,0,0,1,.411-.022H33.62a3.337,3.337,0,0,1,.347.014,1.181,1.181,0,0,1,0,2.352c-.137.014-.275.015-.392.015H14.936Zm-6.15-.2h24.79c.112,0,.244,0,.373-.014a.981.981,0,0,0,0-1.954,3.106,3.106,0,0,0-.326-.013H8.563a2.611,2.611,0,0,0-.381.02.965.965,0,0,0-.833.972.942.942,0,0,0,.835.965,3.5,3.5,0,0,0,.478.024Z" transform="translate(-0.855 -3.23)" fill="#fff"/><path d="M16.888,23.35H8.42a1.082,1.082,0,1,1-.053-2.16c1.632-.019,3.264-.011,4.9-.011q5.91,0,11.822,0a3.655,3.655,0,0,1,.7.041,1.074,1.074,0,0,1-.078,2.114,3.9,3.9,0,0,1-.528.02q-4.146,0-8.293,0V23.35" transform="translate(-0.856 -2.499)"/><path d="M21.034,23.459H16.788V23.45H8.42A1.163,1.163,0,0,1,7.152,22.3a1.176,1.176,0,0,1,.317-.854,1.232,1.232,0,0,1,.9-.356c.964-.011,1.918-.012,2.724-.012h2.173c4.422,0,8.289,0,11.822,0h.1a3.233,3.233,0,0,1,.626.043,1.168,1.168,0,0,1,.928,1.193,1.183,1.183,0,0,1-1.011,1.119,3.133,3.133,0,0,1-.421.021H21.034Zm-4.046-.2H25.3a2.917,2.917,0,0,0,.394-.02.974.974,0,0,0,.072-1.917,3.071,3.071,0,0,0-.587-.04h-.1c-3.532,0-7.4,0-11.822,0H11.09c-.805,0-1.759,0-2.722.012a1.037,1.037,0,0,0-.756.3A1,1,0,0,0,8.42,23.25h8.568Z" transform="translate(-0.856 -2.499)" fill="#fff"/><path d="M26.942,33.58q3.966,0,7.933,0a1.151,1.151,0,0,1,1.2.637,1.069,1.069,0,0,1-.829,1.527,4.336,4.336,0,0,1-.616.026q-7.58,0-15.16,0a7.9,7.9,0,0,1-.792-.034,1.073,1.073,0,0,1,.067-2.142c1.043-.026,2.086-.014,3.129-.015q2.534,0,5.068,0Z" transform="translate(-2.088 -3.961)"/><path d="M20.43,33.476l1.322,0h5.289v0h3.87c1.6,0,2.82,0,3.963,0h.006a1.254,1.254,0,0,1,1.286.7,1.169,1.169,0,0,1-.906,1.667,3.583,3.583,0,0,1-.51.027h-.12c-4.534,0-9.493,0-15.16,0-.239,0-.521-.006-.8-.035a1.173,1.173,0,0,1,.075-2.342C19.347,33.478,19.935,33.476,20.43,33.476Zm1.322.2-1.322,0c-.494,0-1.08,0-1.683.017a.973.973,0,0,0-.059,1.943c.273.028.548.033.782.034,5.667,0,10.626,0,15.16,0h.12a3.414,3.414,0,0,0,.481-.025.978.978,0,0,0,.73-.5.989.989,0,0,0,.022-.891,1.041,1.041,0,0,0-1.1-.578h-.006c-1.142,0-2.364,0-3.963,0h-4.07v0H21.753Z" transform="translate(-2.088 -3.961)" fill="#fff"/><path d="M15.3,39.785c2.264,0,4.528.005,6.792,0a1.132,1.132,0,0,1,1.1.589,1.084,1.084,0,0,1-.771,1.567,2.133,2.133,0,0,1-.437.034q-6.7,0-13.407.005A1.234,1.234,0,0,1,7.449,41.5a1.059,1.059,0,0,1-.08-1.13,1.033,1.033,0,0,1,1.006-.586q3.462,0,6.924,0v0" transform="translate(-0.854 -4.693)"/><path d="M8.576,42.077h0a1.347,1.347,0,0,1-1.209-.519,1.156,1.156,0,0,1-.087-1.231,1.13,1.13,0,0,1,1.091-.641h2.977l3.95,0h3.545c1.3,0,2.3,0,3.246-.006H22.1a1.222,1.222,0,0,1,1.181.642,1.141,1.141,0,0,1,.032,1.031,1.223,1.223,0,0,1-.87.682,2.227,2.227,0,0,1-.458.037Q15.279,42.075,8.576,42.077Zm-.2-2.191a.934.934,0,0,0-.916.531.954.954,0,0,0,.074,1.028,1.152,1.152,0,0,0,1.044.432q6.7-.005,13.407-.005a2.051,2.051,0,0,0,.417-.032,1.025,1.025,0,0,0,.73-.57.943.943,0,0,0-.026-.852,1.026,1.026,0,0,0-1-.537H22.09c-.944,0-1.945.006-3.247.006H15.4l-.1,0H8.374Z" transform="translate(-0.854 -4.693)" fill="#fff"/><path d="M29.021,17.168c-2.072,0-4.145.008-6.216-.01a1.78,1.78,0,0,1-.872-.223.953.953,0,0,1-.422-1.078,1,1,0,0,1,.776-.816,2.823,2.823,0,0,1,.611-.049q6.172,0,12.345,0c.073,0,.146,0,.221,0a1.089,1.089,0,1,1,0,2.172c-2.146.011-4.291,0-6.437,0" transform="translate(-2.534 -1.769)"/><path d="M32.7,17.27l-3.678,0-2.944,0c-.9,0-2.077,0-3.273-.011a1.863,1.863,0,0,1-.923-.238,1.054,1.054,0,0,1-.468-1.185,1.1,1.1,0,0,1,.851-.892,2.882,2.882,0,0,1,.633-.051l7.419,0h5.15a1.188,1.188,0,1,1-.006,2.372C34.652,17.268,33.775,17.27,32.7,17.27Zm-3.678-.2,3.678,0c1.076,0,1.952,0,2.759-.006a.989.989,0,1,0,0-1.972H30.315l-7.418,0a2.776,2.776,0,0,0-.589.046.91.91,0,0,0-.7.74.851.851,0,0,0,.377.971,1.682,1.682,0,0,0,.821.209c1.2.01,2.376.011,3.271.011Z" transform="translate(-2.534 -1.769)" fill="#fff"/><path d="M12,17.167c-1.191,0-2.381.008-3.572,0a1.075,1.075,0,0,1-1.182-1.133A1.059,1.059,0,0,1,8.393,15c1.147-.012,2.293,0,3.44,0,1.25,0,2.5-.007,3.749,0a1.07,1.07,0,0,1,1.2.868,1.059,1.059,0,0,1-1.077,1.3c-1.235.021-2.47.006-3.7.006v0" transform="translate(-0.855 -1.768)"/><path d="M9.861,17.269c-.552,0-1.007,0-1.429-.006a1.329,1.329,0,0,1-.98-.38,1.195,1.195,0,0,1,.94-1.989c.4,0,.834-.006,1.363-.006l1.922,0h.155c.882,0,1.765,0,2.647,0l1.1,0a1.175,1.175,0,0,1,1.3.951,1.158,1.158,0,0,1-1.174,1.415c-.451.008-.939.011-1.534.011l-1.086,0-.986,0-.1,0Zm-.106-2.181c-.529,0-.961,0-1.361.006a.964.964,0,0,0-1.043.94.946.946,0,0,0,.246.71,1.135,1.135,0,0,0,.837.318c.422,0,.876.005,1.427.005l2.044,0h0l.1,0,1.086,0,1.086,0c.594,0,1.081,0,1.531-.011a.959.959,0,0,0,.98-1.182.987.987,0,0,0-1.107-.785c-.855,0-1.709,0-2.564,0l-1.184,0h-.155Z" transform="translate(-0.855 -1.768)" fill="#fff"/><path d="M10.508,35.761c-.734,0-1.469.019-2.2-.006a1.046,1.046,0,0,1-1.042-.9,1.062,1.062,0,0,1,.6-1.161,1.574,1.574,0,0,1,.6-.11q2.047-.013,4.094,0a1.1,1.1,0,1,1,.019,2.18c-.69.013-1.379,0-2.069,0v0" transform="translate(-0.855 -3.961)"/><path d="M11.782,35.869l-.637,0-.636,0h-.1v0l-.56,0c-.22,0-.441,0-.661,0-.342,0-.622,0-.884-.013A1.182,1.182,0,0,1,7.827,33.6a1.693,1.693,0,0,1,.636-.118c.792-.005,1.571-.008,2.315-.008.6,0,1.2,0,1.781.005a1.374,1.374,0,0,1,1,.371,1.135,1.135,0,0,1,.311.831,1.186,1.186,0,0,1-1.29,1.178C12.342,35.867,12.089,35.869,11.782,35.869Zm-1.174-.2c.391,0,.782,0,1.174,0,.306,0,.558,0,.794-.007a.988.988,0,0,0,1.094-.981.939.939,0,0,0-.253-.689,1.18,1.18,0,0,0-.858-.311c-.578,0-1.177-.005-1.78-.005-.743,0-1.522,0-2.313.008a1.494,1.494,0,0,0-.558.1.958.958,0,0,0-.543,1.053.944.944,0,0,0,.946.815c.259.009.538.013.877.013.22,0,.44,0,.66,0s.441,0,.661,0h.1Z" transform="translate(-0.855 -3.961)" fill="#fff"/><path d="M35.077,23.361c-.544,0-1.088.01-1.632,0a1.052,1.052,0,0,1-1.152-1.021,1.035,1.035,0,0,1,1.118-1.143q1.7-.036,3.395,0a1.081,1.081,0,1,1-.01,2.162c-.573.018-1.147,0-1.72,0Z" transform="translate(-3.81 -2.498)"/><path d="M34.079,23.464c-.245,0-.448,0-.637-.006a1.152,1.152,0,0,1-1.25-1.118,1.209,1.209,0,0,1,.3-.892,1.262,1.262,0,0,1,.914-.354c.564-.012,1.147-.018,1.733-.018.541,0,1.1.005,1.666.015a1.181,1.181,0,1,1-.009,2.362c-.2.006-.409.009-.664.009l-.53,0-.432,0-.1,0C34.744,23.461,34.412,23.464,34.079,23.464Zm1.063-2.188c-.585,0-1.167.006-1.729.018a1.068,1.068,0,0,0-.774.292,1.015,1.015,0,0,0-.247.748.954.954,0,0,0,1.054.923c.188,0,.388.006.632.006.3,0,.6,0,.9,0h0l.1,0,.53,0,.528,0c.254,0,.463,0,.658-.009a.981.981,0,1,0,.011-1.962C36.242,21.282,35.682,21.277,35.142,21.277Z" transform="translate(-3.81 -2.498)" fill="#fff"/><g transform="translate(29.699 40.594)"><g clip-path="url(#b)"><path d="M3.94,15.188V14.33A5.387,5.387,0,0,1,.923,13.167,2.3,2.3,0,0,1,0,11.534a.811.811,0,0,1,.858-.867c.314,0,.507.092.941.581A3.632,3.632,0,0,0,4.77,12.688c1.587,0,2.5-.729,2.5-1.9,0-.9-.581-1.43-1.975-1.771L3.312,8.526C1.3,8.056.221,6.866.221,5.149.221,3.156,1.7,1.772,4,1.56v-.8A.691.691,0,0,1,4.752,0a.7.7,0,0,1,.757.756v.83A4.875,4.875,0,0,1,8.258,2.8a2.372,2.372,0,0,1,.849,1.6.765.765,0,0,1-.8.8A1.263,1.263,0,0,1,7.289,4.6,3.136,3.136,0,0,0,4.613,3.212c-1.4,0-2.307.738-2.307,1.8,0,.849.6,1.458,1.772,1.725l1.956.471c2.251.526,3.312,1.615,3.312,3.4,0,2.067-1.495,3.488-3.912,3.737v.849a.684.684,0,0,1-.738.757.693.693,0,0,1-.757-.757" transform="translate(0 -0.001)" fill="#1a1818"/></g></g></g></svg>