<?xml version="1.0" encoding="UTF-8"?><svg id="a" xmlns="http://www.w3.org/2000/svg" width="47.61" height="62.47" xmlns:xlink="http://www.w3.org/1999/xlink" viewBox="0 0 47.61 62.47"><defs><clipPath id="c"><rect width="47.61" height="62.47" fill="none"/></clipPath></defs><g id="b"><g clip-path="url(#c)"><g id="d"><path id="e" d="m0,30.54V9.76c-.03-1.09.4-2.13,1.19-2.88,1.93-1.9,3.84-3.81,5.74-5.74.71-.74,1.7-1.16,2.73-1.13h27.13c1.36-.11,2.65.61,3.27,1.83.25.5.39,1.04.39,1.6.02,7.34.01,14.68.01,22.02,0,2.35,0,4.71,0,7.06.06.48-.19.95-.63,1.16-.53.26-1.17.03-1.43-.5-.04-.08-.06-.16-.08-.24-.03-.2-.05-.41-.04-.62V3.9c0-1.32-.39-1.72-1.7-1.72H10.83q-.67,0-.67.68c0,1.57,0,3.15-.02,4.72.02.9-.58,1.7-1.45,1.94-.28.07-.58.1-.87.09-1.69,0-3.38.02-5.07,0-.45,0-.57.13-.57.57.01,11.49.01,22.97,0,34.46v6.62c0,1.1.45,1.56,1.54,1.56,4.51,0,9.03,0,13.54,0,.32,0,.63.07.92.21.39.24.56.72.41,1.16-.11.46-.53.78-1,.78-.81.03-1.62.01-2.43.01H3.57c-1.25.06-2.43-.58-3.07-1.65-.35-.58-.52-1.26-.5-1.94,0-6.96,0-13.91,0-20.87M3.9,7.43c1.22,0,2.41-.01,3.59,0,.36,0,.49-.11.48-.48-.02-1.1,0-2.2,0-3.3,0-.09-.02-.18-.04-.27L3.91,7.43" stroke="#fff" stroke-width=".2"/><path id="f" d="m20.21,48.77c0-7.57,6.13-13.7,13.7-13.7s13.7,6.13,13.7,13.7-6.13,13.7-13.7,13.7c-7.56-.02-13.68-6.14-13.7-13.7m13.75-11.49c-6.35-.01-11.51,5.12-11.52,11.48s5.12,11.51,11.48,11.52c6.35.01,11.5-5.12,11.52-11.46.02-6.35-5.11-11.52-11.46-11.54,0,0,0,0-.01,0" stroke="#fff" stroke-width=".2"/><path id="g" d="m20.23,26.33c-4.1,0-8.2,0-12.3,0-.21,0-.41,0-.62-.02-.54-.06-.94-.52-.92-1.06-.01-.54.38-1,.92-1.07.16-.02.32-.03.48-.02h24.78c.18,0,.35,0,.53.01.59.05,1.03.58.98,1.18-.05.52-.46.93-.98.98-.2.02-.41.01-.62.01h-12.25" stroke="#fff" stroke-width=".2"/><path id="h" d="m16.03,20.85H7.56c-.6.05-1.12-.4-1.17-.99-.05-.6.4-1.12.99-1.17.04,0,.08,0,.12,0,1.63-.02,3.26-.01,4.9-.01h11.82c.23,0,.47,0,.7.04.58.12.95.7.82,1.28-.09.44-.46.78-.9.84-.18.02-.35.03-.53.02h-8.29" stroke="#fff" stroke-width=".2"/><path id="i" d="m24.85,29.62h7.93c.5-.07.98.19,1.2.64.26.53.04,1.17-.5,1.43-.1.05-.22.08-.33.1-.2.02-.41.03-.62.03h-15.16c-.26,0-.53,0-.79-.03-.59-.05-1.03-.57-.98-1.16.05-.55.5-.97,1.05-.98,1.04-.03,2.09-.01,3.13-.01h5.07,0Z" stroke="#fff" stroke-width=".2"/><path id="j" d="m14.45,35.09c2.26,0,4.53,0,6.79,0,.45-.04.88.19,1.1.59.28.53.07,1.19-.46,1.46-.1.05-.2.09-.31.11-.14.03-.29.04-.44.03-4.47,0-8.94,0-13.41,0-.43.05-.86-.13-1.13-.48-.24-.33-.27-.77-.08-1.13.18-.38.58-.62,1.01-.59h6.92" stroke="#fff" stroke-width=".2"/><path id="k" d="m26.49,15.4c-2.07,0-4.15,0-6.22-.01-.3,0-.61-.08-.87-.22-.37-.22-.54-.66-.42-1.08.07-.41.37-.73.78-.82.2-.04.41-.05.61-.05h12.57c.6-.04,1.12.41,1.17,1.01.04.6-.41,1.12-1.01,1.17-.05,0-.11,0-.16,0-2.15.01-4.29,0-6.44,0" stroke="#fff" stroke-width=".2"/><path id="l" d="m11.14,15.4c-1.19,0-2.38,0-3.57,0-.59.06-1.12-.37-1.18-.96,0-.06,0-.11,0-.17.01-.58.5-1.05,1.08-1.04.02,0,.04,0,.07,0,1.15-.01,2.29,0,3.44,0,1.25,0,2.5,0,3.75,0,.57-.08,1.1.3,1.2.87.13.57-.22,1.14-.79,1.27-.09.02-.19.03-.29.03-1.23.02-2.47,0-3.7,0h0" stroke="#fff" stroke-width=".2"/><path id="m" d="m9.65,31.8c-.73,0-1.47.02-2.2,0-.52,0-.97-.38-1.04-.9-.09-.48.16-.96.6-1.16.19-.08.39-.11.6-.11,1.36,0,2.73,0,4.09,0,.6-.09,1.16.33,1.25.93s-.33,1.16-.93,1.25c-.1.01-.2.01-.3,0-.69.01-1.38,0-2.07,0h0" stroke="#fff" stroke-width=".2"/><path id="n" d="m31.27,20.86c-.54,0-1.09.01-1.63,0-.58.06-1.09-.37-1.15-.95,0-.02,0-.05,0-.07-.06-.57.35-1.08.92-1.14.07,0,.13,0,.2,0,1.13-.02,2.26-.02,3.4,0,.6,0,1.08.49,1.08,1.09,0,.6-.49,1.08-1.09,1.08-.57.02-1.15,0-1.72,0h0Z" stroke="#fff" stroke-width=".2"/><path id="o" d="m32.79,48.31c-.19.06-.33.1-.47.13-.57.18-1.18-.14-1.36-.71-.17-.52.09-1.09.59-1.32.61-.28,1.23-.55,1.86-.8.52-.28,1.18-.09,1.46.43.11.2.15.42.12.64,0,1.95,0,3.91,0,5.86q0,.6.61.61c.12,0,.23,0,.35.01.57.06,1,.55.96,1.12,0,.57-.48,1.03-1.05,1.02,0,0,0,0,0,0-1.31.02-2.61.01-3.92-.01-.57,0-1.03-.44-1.04-1.01,0,0,0-.02,0-.03-.01-.57.42-1.06.99-1.11h.09q.84-.08.84-.94v-3.35c0-.17-.02-.34-.03-.57" stroke="#fff" stroke-width=".2"/><path id="p" d="m32.82,42.42c-.05-.6.39-1.13.99-1.18.6-.05,1.13.39,1.18.99,0,.06,0,.12,0,.17.05.6-.39,1.13-.99,1.18-.6.05-1.13-.39-1.18-.99,0-.06,0-.12,0-.17" stroke="#fff" stroke-width=".2"/></g></g></g></svg>