<?xml version="1.0" encoding="UTF-8"?><svg id="a" xmlns="http://www.w3.org/2000/svg" width="65" height="65" viewBox="0 0 65 65"><path id="b" d="m61.12,32.51c.01-15.81-12.79-28.63-28.6-28.64S3.89,16.67,3.88,32.47c0,8.49,3.76,16.54,10.27,21.98.03.04.08.07.12.1,10.58,8.77,25.9,8.77,36.47,0,.04-.03.08-.06.11-.1,6.5-5.43,10.26-13.47,10.27-21.94h0ZM15.82,53.36c.24-9.21,7.9-16.49,17.11-16.25,8.88.23,16.03,7.37,16.25,16.25-9.74,7.83-23.62,7.83-33.37,0Zm8.55-26.27c0-4.49,3.64-8.13,8.13-8.13s8.13,3.64,8.13,8.13-3.64,8.13-8.13,8.13c-4.49,0-8.12-3.64-8.13-8.13m26.61,24.69c-.86-7.61-6.28-13.92-13.67-15.91,4.86-2.66,6.63-8.76,3.97-13.61-2.66-4.86-8.76-6.63-13.61-3.97-4.86,2.66-6.63,8.76-3.97,13.61.92,1.67,2.29,3.05,3.97,3.97-7.39,2-12.81,8.3-13.67,15.91-10.66-10.21-11.02-27.13-.81-37.79,10.21-10.66,27.13-11.02,37.79-.81,10.66,10.21,11.02,27.13.81,37.79-.26.27-.53.54-.81.81h0Z"/></svg>