<svg xmlns="http://www.w3.org/2000/svg" xmlns:xlink="http://www.w3.org/1999/xlink" width="59.573" height="57.653" viewBox="0 0 59.573 57.653"><defs><clipPath id="a"><rect width="59.573" height="57.653" transform="translate(0 0)" fill="none"/></clipPath></defs><g transform="translate(0 0)"><g clip-path="url(#a)"><path d="M29.663.008a.99.99,0,0,0-.245.062L.652,11.292.59,11.33a1.038,1.038,0,0,0-.162.1,1.053,1.053,0,0,0-.1.076,1.03,1.03,0,0,0-.191.235l-.014.032a1.029,1.029,0,0,0-.1.273c0,.026-.008.052-.01.078A1.026,1.026,0,0,0,0,12.247V45.4a1.028,1.028,0,0,0,.656.953v.01L29.418,57.583a1.027,1.027,0,0,0,.744,0L58.921,46.368a1.027,1.027,0,0,0,.652-.961V12.247a.163.163,0,0,0-.008-.062.9.9,0,0,0-.014-.116.819.819,0,0,0-.1-.287l-.024-.052a1.021,1.021,0,0,0-.159-.2.99.99,0,0,0-.193-.148l-.054-.03a.964.964,0,0,0-.1-.054L38.909,3.49,30.163.07a1.028,1.028,0,0,0-.5-.062m.126,2.118,6.3,2.458L10.153,14.7l-6.3-2.458Zm9.122,3.559,6.424,2.506L19.634,18.4l-6.653-2.594Zm9.234,3.6,7.583,2.959L29.789,22.363,22.442,19.5Zm9.381,4.458V44.7L30.815,55.13V24.17Zm-55.47,0,7.445,2.9v11.65a1.026,1.026,0,0,0,.652.955l7.493,2.927a1.027,1.027,0,0,0,1.4-.955V20.846l.592-.235,9.12,3.557V55.126l-26.7-10.42Zm9.5,3.708,5.583,2.177a1.033,1.033,0,0,0-.146.514v9.57l-5.437-2.131Z" fill-rule="evenodd"/></g></g></svg>