<?xml version="1.0" encoding="utf-8"?>
<!-- Generator: Adobe Illustrator 27.1.1, SVG Export Plug-In . SVG Version: 6.00 Build 0)  -->
<svg version="1.1" id="Layer_1" xmlns="http://www.w3.org/2000/svg" xmlns:xlink="http://www.w3.org/1999/xlink" x="0px" y="0px"
	 viewBox="0 0 320.1 320.1" style="enable-background:new 0 0 320.1 320.1;" xml:space="preserve">
<style type="text/css">
	.st0{fill:#FDB913;}
</style>
<path class="st0" d="M310.7,54.7c12.5-12.5,12.5-32.8,0-45.3s-32.8-12.5-45.3,0L160.1,114.8L54.7,9.5C42.2-3,21.9-3,9.4,9.5
	s-12.5,32.8,0,45.3l105.4,105.3L9.5,265.5C-3,278-3,298.3,9.5,310.8s32.8,12.5,45.3,0l105.3-105.4l105.4,105.3
	c12.5,12.5,32.8,12.5,45.3,0s12.5-32.8,0-45.3L205.4,160.1L310.7,54.7z"/>
</svg>
