<?xml version="1.0" encoding="UTF-8"?><svg id="a" xmlns="http://www.w3.org/2000/svg" width="19" height="19" viewBox="0 0 19 19"><path id="b" d="m18.63,7.92l-2.29-.77s-.05-.03-.06-.05c-.11-.26-.23-.51-.37-.76-.02-.03-.02-.07,0-.1l1.11-2.03c.11-.21.07-.47-.09-.64l-1.49-1.49c-.17-.16-.43-.2-.64-.09l-2.07,1.13s-.06.01-.09,0c-.24-.12-.49-.23-.74-.32-.03-.01-.05-.03-.06-.06l-.74-2.36c-.08-.22-.28-.37-.52-.38h-2.2c-.21.03-.38.17-.45.37l-.77,2.3s-.03.05-.05.06c-.26.11-.51.23-.76.37-.03.02-.07.02-.1,0l-2.03-1.1c-.21-.11-.47-.07-.64.09l-1.49,1.49c-.16.17-.2.43-.09.64l1.11,2.03s.02.07,0,.1c-.14.24-.26.5-.37.76-.01.03-.03.05-.06.05l-2.29.76c-.22.08-.37.28-.37.51v2.13c0,.23.15.43.37.51l2.29.77s.05.03.06.06c.11.26.23.51.37.76.02.03.02.07,0,.1l-1.11,2.03c-.11.21-.07.47.09.64l1.49,1.49c.17.16.43.2.64.09l2.03-1.11s.07-.02.1,0c.24.14.5.26.76.37.03.01.05.03.05.06l.77,2.29c.08.22.28.36.51.37h2.13c.23,0,.43-.15.51-.37l.77-2.29s.03-.05.06-.06c.26-.11.51-.23.76-.37.03-.02.07-.02.1,0l2.03,1.11c.21.11.47.07.64-.09l1.49-1.49c.16-.17.2-.43.09-.64l-1.11-2.03s-.02-.07,0-.1c.14-.24.26-.5.37-.76.01-.03.03-.05.06-.06l2.29-.77c.22-.08.36-.28.37-.51v-2.13c0-.23-.15-.43-.37-.51m-3.25,3.35c-.11.3-.25.58-.41.85-.06.11-.12.22-.18.32-.09.16-.09.36,0,.52l1.05,1.93s.01.09-.02.12l-.82.82s-.08.04-.12.02l-1.93-1.05c-.16-.09-.36-.09-.52,0-.11.06-.22.12-.32.18-.27.17-.55.3-.85.41-.17.05-.3.18-.36.35l-.71,2.12s-.05.07-.09.07h-1.21s-.08-.03-.09-.07l-.71-2.12c-.06-.17-.19-.3-.36-.35-.3-.11-.58-.25-.85-.41-.11-.06-.22-.12-.32-.18-.16-.09-.36-.09-.52,0l-1.93,1.04s-.08.01-.11-.02l-.82-.82s-.04-.08-.02-.12l1.05-1.92c.09-.16.09-.36,0-.52-.06-.11-.12-.22-.18-.32-.17-.27-.3-.55-.41-.85-.05-.17-.18-.3-.35-.36l-2.12-.71s-.07-.05-.07-.09v-1.21s.03-.08.07-.09l2.12-.71c.17-.06.3-.19.35-.36.11-.3.25-.58.41-.85.06-.11.12-.22.18-.32.09-.16.09-.36,0-.52l-1.05-1.93s-.01-.09.02-.12l.82-.82s.08-.04.12-.02l1.92,1.05c.16.09.36.09.52,0,.11-.06.22-.12.32-.18.27-.17.55-.3.85-.41.17-.05.3-.18.36-.35l.71-2.12s.05-.07.09-.07h1.2s.08.03.09.07l.69,2.18c.06.17.19.3.36.35.42.14.82.32,1.2.53.16.09.36.09.52,0l1.93-1.05s.08-.01.11.02l.82.82s.04.08.02.12l-1.05,1.92c-.09.16-.09.36,0,.52.06.11.12.22.18.32.17.27.3.55.41.85.05.17.18.3.35.36l2.12.71s.07.05.07.09v1.21s-.03.08-.07.09l-2.12.71c-.17.06-.3.19-.35.36" fill="#657471"/><path id="c" d="m9.5,4.48h0c-2.77,0-5.02,2.25-5.02,5.03,0,1.34.54,2.63,1.5,3.57.92.92,2.18,1.44,3.48,1.44h.05c.83.05,1.65-.12,2.39-.49.26-.16.34-.49.18-.75-.15-.24-.46-.33-.71-.2-.58.29-1.23.42-1.87.36-1.03.01-2.03-.39-2.76-1.12-1.56-1.53-1.58-4.02-.05-5.58,1.53-1.56,4.02-1.58,5.58-.05.76.74,1.18,1.76,1.18,2.82.07.72-.12,1.44-.54,2.03h0c-.18.24-.14.58.1.76.24.18.57.14.76-.1,0-.01.02-.02.03-.04h0c.53-.79.79-1.72.74-2.66,0-2.77-2.25-5.02-5.02-5.02" fill="#657471"/></svg>