<svg xmlns="http://www.w3.org/2000/svg" xmlns:xlink="http://www.w3.org/1999/xlink" width="106.828" height="92.082" viewBox="0 0 106.828 92.082"><defs><clipPath id="a"><path d="M0,37.541H106.828V-54.541H0Z" transform="translate(0 54.541)" fill="none"/></clipPath></defs><g transform="translate(0 54.541)"><g transform="translate(0 -54.541)" clip-path="url(#a)"><g transform="translate(-0.001 0)"><path d="M31.139,0a1.113,1.113,0,0,0-1.1,1.128v89.8a1.113,1.113,0,1,0,2.224,0V1.128A1.113,1.113,0,0,0,31.139,0M15.87.008a1.118,1.118,0,0,0-.343.052.475.475,0,0,0-.052.017l-.008,0L-16.767,11.592a1.111,1.111,0,0,0-.739,1.048v13.6a1.145,1.145,0,0,0,0,.429v6.451a1.147,1.147,0,0,0,0,.479v6.427a1.155,1.155,0,0,0,0,.481v11.4a1.107,1.107,0,0,0,0,.566v6.454a1.132,1.132,0,0,0,0,.338v6.578a1.182,1.182,0,0,0,0,.328v6.569a1.166,1.166,0,0,0,0,.343v6.328a1.114,1.114,0,0,0,.739,1.048L15.467,91.978a.449.449,0,0,0,.064.017l.017.005a.82.82,0,0,0,.093.015.049.049,0,0,0,.015,0,.778.778,0,0,0,.084.012l.034.005.051,0H26.547a1.113,1.113,0,0,0,1.113-1.113V85.312a1.113,1.113,0,0,0-.8-1.067A20.952,20.952,0,0,1,23.969,83.1a9.542,9.542,0,0,1-1.938-1.214,1.972,1.972,0,0,1-.738-1.037c-.042-.368.068-.588.517-1A12.325,12.325,0,0,1,23.847,78.5a14.18,14.18,0,0,0,2.465-1.629,3.626,3.626,0,0,0,1.346-2.845,3.4,3.4,0,0,0-1.511-2.512,12.752,12.752,0,0,0-2.382-1.253,11.261,11.261,0,0,1-1.936-1.008c-.431-.322-.527-.481-.527-.782s.1-.451.539-.775a11.7,11.7,0,0,1,1.975-1.011,12.129,12.129,0,0,0,2.4-1.256,3,3,0,0,0,0-5.138,12.219,12.219,0,0,0-2.4-1.256,11.822,11.822,0,0,1-1.975-1.011c-.442-.326-.539-.486-.539-.775s.1-.451.539-.777a11.571,11.571,0,0,1,1.975-1.011,12.138,12.138,0,0,0,2.4-1.258,3,3,0,0,0,0-5.136,12.319,12.319,0,0,0-2.4-1.258,11.581,11.581,0,0,1-1.975-1.01c-.442-.326-.539-.486-.539-.777s.1-.451.539-.775a11.822,11.822,0,0,1,1.975-1.011,12.21,12.21,0,0,0,2.4-1.254,3,3,0,0,0,0-5.138,12.319,12.319,0,0,0-2.4-1.258,11.572,11.572,0,0,1-1.975-1.011c-.442-.324-.539-.486-.539-.775s.1-.451.539-.775a11.822,11.822,0,0,1,1.975-1.011,12.219,12.219,0,0,0,2.4-1.256A3.272,3.272,0,0,0,27.661,29.2a3.273,3.273,0,0,0-1.447-2.57,12.219,12.219,0,0,0-2.4-1.256,11.572,11.572,0,0,1-1.975-1.011c-.442-.326-.539-.486-.539-.775s.1-.458.528-.782a10.99,10.99,0,0,1,1.938-1.008,12.765,12.765,0,0,0,2.384-1.253,3.39,3.39,0,0,0,1.508-2.519A3.584,3.584,0,0,0,26.3,15.208a13.835,13.835,0,0,0-2.456-1.594,11.9,11.9,0,0,1-2.029-1.308c-.451-.405-.559-.621-.522-.983a2.007,2.007,0,0,1,.736-1.064A9.759,9.759,0,0,1,23.972,9a21.169,21.169,0,0,1,2.9-1.2l0-.007A1.116,1.116,0,0,0,27.66,6.74V1.128A1.113,1.113,0,0,0,26.547.015H15.955A.736.736,0,0,0,15.868.01Zm1.084,2.23h8.482V6a14.908,14.908,0,0,0-2.473,1.015,11.522,11.522,0,0,0-2.406,1.574,3.923,3.923,0,0,0-1.476,2.5,3.458,3.458,0,0,0,1.243,2.86,12.915,12.915,0,0,0,2.438,1.6,13.114,13.114,0,0,1,2.075,1.324c.476.417.616.675.6,1.037-.012.3-.137.493-.591.824a12.05,12.05,0,0,1-1.977,1.016,11.908,11.908,0,0,0-2.37,1.263,3.282,3.282,0,0,0-1.422,2.565,3.27,3.27,0,0,0,1.447,2.568,12.219,12.219,0,0,0,2.4,1.256A11.73,11.73,0,0,1,24.9,28.414c.442.326.54.486.54.775s-.1.451-.54.775a11.547,11.547,0,0,1-1.974,1.011,12.228,12.228,0,0,0-2.4,1.258,3,3,0,0,0,0,5.136,12.228,12.228,0,0,0,2.4,1.258A11.605,11.605,0,0,1,24.9,39.638c.442.326.54.486.54.775s-.1.451-.54.775A11.8,11.8,0,0,1,22.922,42.2a12.129,12.129,0,0,0-2.4,1.256,3,3,0,0,0,0,5.138,12.219,12.219,0,0,0,2.4,1.256A11.73,11.73,0,0,1,24.9,50.86c.442.326.54.486.54.775s-.1.452-.54.777a11.547,11.547,0,0,1-1.974,1.011,12.219,12.219,0,0,0-2.4,1.256,3,3,0,0,0,0,5.138,12.219,12.219,0,0,0,2.4,1.256,11.616,11.616,0,0,1,1.974,1.01c.442.326.54.488.54.777s-.1.451-.54.775a11.548,11.548,0,0,1-1.974,1.011,12.137,12.137,0,0,0-2.4,1.258,3.012,3.012,0,0,0-.027,5.131A11.711,11.711,0,0,0,22.865,72.3a12.084,12.084,0,0,1,1.975,1.018c.456.331.582.528.6.827.02.371-.127.642-.606,1.07a13.573,13.573,0,0,1-2.088,1.357A12.937,12.937,0,0,0,20.3,78.208,3.477,3.477,0,0,0,19.083,81.1a3.888,3.888,0,0,0,1.494,2.468,11.441,11.441,0,0,0,2.408,1.526,14.577,14.577,0,0,0,2.451.966v3.748H16.954v-5.73a1.111,1.111,0,0,0,0-.537V73.421a1.1,1.1,0,0,0,0-.432V64.981a1.092,1.092,0,0,0,0-.419V55.047a1.1,1.1,0,0,0,0-.481V37.818a1.041,1.041,0,0,0,0-.307V27.876a1.092,1.092,0,0,0,0-.348V19.446a1.114,1.114,0,0,0,0-.351V8.85a1.157,1.157,0,0,0,0-.358Zm-2.225.468V7.873L-15.279,18V13.424Zm0,7.513v8.156l-30.008,6.691V20.346ZM-26.858,20.2a3.431,3.431,0,0,0-3.414,3.415,3.432,3.432,0,0,0,3.414,3.415,3.432,3.432,0,0,0,3.414-3.415A3.432,3.432,0,0,0-26.858,20.2m41.586.454v6.112l-30.008,5.271V27.346Zm-41.586,1.769a1.176,1.176,0,0,1,1.19,1.192,1.173,1.173,0,0,1-1.19,1.189,1.173,1.173,0,0,1-1.19-1.189,1.176,1.176,0,0,1,1.19-1.192m70.293.456c-.116,0-.233,0-.351,0A18.98,18.98,0,0,0,38.06,23.9c-1.528.485-2.7.962-2.7.962h0a1.113,1.113,0,1,0,.841,2.06s1.1-.444,2.534-.9a18.462,18.462,0,0,1,4.4-.924,12.091,12.091,0,0,1,4.177.88,14.471,14.471,0,0,0,4.92,1.025,12.224,12.224,0,0,0,4.383-1.033,10.2,10.2,0,0,1,3.827-.871,1.112,1.112,0,0,0,.807-1.909,1.1,1.1,0,0,0-.807-.314,12.483,12.483,0,0,0-4.611,1.013,10.152,10.152,0,0,1-3.62.891,12.688,12.688,0,0,1-4.189-.908,14.624,14.624,0,0,0-4.58-1Zm-85.4,4.987a2.856,2.856,0,0,0-2.84,2.838,2.857,2.857,0,0,0,2.84,2.84,2.857,2.857,0,0,0,2.84-2.84,2.856,2.856,0,0,0-2.84-2.838m56.7,1.16v7.609l-30.008,2.429V34.3Zm-56.7,1.064a.6.6,0,0,1,.615.615.6.6,0,0,1-.615.616.6.6,0,0,1-.615-.616.6.6,0,0,1,.615-.615m85.4,1.221c-.116,0-.233,0-.351,0a18.983,18.983,0,0,0-5.024,1.026c-1.528.485-2.7.961-2.7.961h0A1.113,1.113,0,0,0,36.2,35.36s1.1-.447,2.534-.9a18.288,18.288,0,0,1,4.4-.922,12.055,12.055,0,0,1,4.177.881,14.47,14.47,0,0,0,4.92,1.026,12.188,12.188,0,0,0,4.383-1.035,10.233,10.233,0,0,1,3.827-.869v0a1.113,1.113,0,0,0,0-2.227,12.447,12.447,0,0,0-4.611,1.015,10.152,10.152,0,0,1-3.62.891,12.646,12.646,0,0,1-4.189-.908,14.815,14.815,0,0,0-4.58-1Zm-72.5,2.4v0a1.115,1.115,0,0,0-1.1,1.129v2.011a1.114,1.114,0,0,0,1.114,1.1,1.113,1.113,0,0,0,1.113-1.1V34.838a1.11,1.11,0,0,0-.328-.8,1.116,1.116,0,0,0-.8-.326Zm-5.681,2.362v0a1.11,1.11,0,0,0-1.03.694,1.112,1.112,0,0,0,.255,1.216L-34.1,39.4a1.117,1.117,0,0,0,.788.329,1.115,1.115,0,0,0,.79-.326,1.121,1.121,0,0,0,.326-.79,1.119,1.119,0,0,0-.331-.788l-1.422-1.42h0a1.112,1.112,0,0,0-.8-.338Zm11.364,0v0a1.11,1.11,0,0,0-.766.336l-1.42,1.422v0a1.11,1.11,0,0,0,0,1.572A1.113,1.113,0,0,0-24,39.4l1.42-1.422a1.111,1.111,0,0,0,.25-1.231,1.112,1.112,0,0,0-1.057-.679Zm-5.666,2.7a4.124,4.124,0,0,0-4.106,4.106,4.122,4.122,0,0,0,4.106,4.106,4.122,4.122,0,0,0,4.106-4.106,4.123,4.123,0,0,0-4.106-4.106m43.785.086v6.2H-15.276V41.291Zm28.7.876c-.116,0-.233,0-.351,0a19.007,19.007,0,0,0-5.024,1.025c-1.528.485-2.7.962-2.7.962v0a1.113,1.113,0,1,0,.839,2.06s1.1-.444,2.534-.9a18.3,18.3,0,0,1,4.4-.924,12.05,12.05,0,0,1,4.177.883,14.431,14.431,0,0,0,4.92,1.025,12.242,12.242,0,0,0,4.385-1.033,10.226,10.226,0,0,1,3.826-.873,1.112,1.112,0,1,0,0-2.224,12.447,12.447,0,0,0-4.611,1.015,10.215,10.215,0,0,1-3.62.891,12.658,12.658,0,0,1-4.189-.91A14.767,14.767,0,0,0,43.435,39.738ZM-29.052,41a1.864,1.864,0,0,1,1.882,1.879,1.866,1.866,0,0,1-1.882,1.882,1.865,1.865,0,0,1-1.881-1.882A1.863,1.863,0,0,1-29.052,41m-8.041.768h0a1.109,1.109,0,0,0-.793.322,1.118,1.118,0,0,0-.329.79,1.121,1.121,0,0,0,.329.79,1.116,1.116,0,0,0,.793.322h2.011a1.111,1.111,0,0,0,1.1-1.113,1.111,1.111,0,0,0-1.1-1.113Zm14.074,0h0a1.109,1.109,0,0,0-.794.322,1.111,1.111,0,0,0-.329.79,1.114,1.114,0,0,0,.329.79,1.116,1.116,0,0,0,.794.322h2.009a1.113,1.113,0,0,0,1.1-1.113,1.113,1.113,0,0,0-1.1-1.113Zm-10.319,4.255v0a1.127,1.127,0,0,0-.765.336l-1.422,1.423a1.114,1.114,0,0,0,0,1.574,1.114,1.114,0,0,0,1.574,0l1.423-1.422h0a1.112,1.112,0,0,0,.25-1.232A1.111,1.111,0,0,0-33.339,46.018Zm8.541,0v0a1.116,1.116,0,0,0-1.03.694,1.114,1.114,0,0,0,.255,1.217l1.42,1.422a1.114,1.114,0,0,0,1.574,0,1.112,1.112,0,0,0,0-1.574L-24,46.353a1.12,1.12,0,0,0-.8-.336Zm9.52,1.271H14.73V53.6l-30.008-2.429Zm-13.792.491v0a1.114,1.114,0,0,0-1.1,1.128v2.011a1.113,1.113,0,0,0,1.114,1.1,1.112,1.112,0,0,0,1.113-1.1V48.907a1.123,1.123,0,0,0-.328-.8,1.114,1.114,0,0,0-.8-.324Zm89.5.39a12.481,12.481,0,0,0-4.611,1.015,10.152,10.152,0,0,1-3.62.891,12.646,12.646,0,0,1-4.189-.908,14.051,14.051,0,0,0-4.932-1A19,19,0,0,0,38.06,49.2c-1.528.485-2.7.962-2.7.962v0a1.113,1.113,0,0,0-.03,2.077,1.125,1.125,0,0,0,.869-.017s1.1-.446,2.534-.9a18.365,18.365,0,0,1,4.4-.922,12,12,0,0,1,4.175.88A14.472,14.472,0,0,0,52.226,52.3a12.189,12.189,0,0,0,4.383-1.033,10.192,10.192,0,0,1,3.826-.871h0a1.113,1.113,0,0,0,0-2.225Zm-102.259,4.2a3.432,3.432,0,0,0-3.415,3.414A3.432,3.432,0,0,0-41.825,59.2a3.431,3.431,0,0,0,3.415-3.414,3.432,3.432,0,0,0-3.415-3.414M-15.278,53.4,14.73,55.832V63.44l-30.008-5.271Zm-26.547,1.192a1.174,1.174,0,0,1,1.189,1.192,1.171,1.171,0,0,1-1.189,1.189,1.173,1.173,0,0,1-1.19-1.189,1.175,1.175,0,0,1,1.19-1.192M43.435,56.6c-.116,0-.233,0-.351,0a19.009,19.009,0,0,0-5.026,1.026c-1.526.485-2.7.961-2.7.961h0a1.113,1.113,0,0,0,.841,2.061s1.1-.447,2.534-.9a18.288,18.288,0,0,1,4.4-.922,12.046,12.046,0,0,1,4.175.881,14.471,14.471,0,0,0,4.921,1.026A12.152,12.152,0,0,0,56.607,59.7a10.231,10.231,0,0,1,3.826-.869v0a1.113,1.113,0,0,0,0-2.225,12.481,12.481,0,0,0-4.609,1.013,10.152,10.152,0,0,1-3.62.891,12.637,12.637,0,0,1-4.189-.908A14.826,14.826,0,0,0,43.435,56.6Zm-66.156,1.045a2.858,2.858,0,0,0-2.84,2.84,2.856,2.856,0,0,0,2.84,2.838,2.856,2.856,0,0,0,2.84-2.838,2.857,2.857,0,0,0-2.84-2.84m0,2.227a.6.6,0,0,1,.615.615.6.6,0,0,1-.615.613.6.6,0,0,1-.615-.613.6.6,0,0,1,.615-.615m7.444.552L14.73,65.7v6.112L-15.278,65.12Zm-19.1,1.7h0a1.113,1.113,0,0,0-.783.336,1.107,1.107,0,0,0-.314.792v2.009a1.111,1.111,0,0,0,1.113,1.1,1.114,1.114,0,0,0,1.113-1.1V63.256a1.118,1.118,0,0,0-.326-.8A1.106,1.106,0,0,0-34.374,62.128Zm-5.683,2.36v0a1.113,1.113,0,0,0-1.03.694,1.115,1.115,0,0,0,.255,1.217l1.422,1.423a1.118,1.118,0,0,0,.787.329,1.115,1.115,0,0,0,.79-.326,1.111,1.111,0,0,0,.326-.79,1.117,1.117,0,0,0-.329-.788l-1.422-1.422h0A1.1,1.1,0,0,0-40.057,64.488Zm11.362,0,0,0a1.121,1.121,0,0,0-.763.338l-1.422,1.422h0a1.122,1.122,0,0,0-.329.788,1.109,1.109,0,0,0,.328.787,1.107,1.107,0,0,0,.788.326,1.1,1.1,0,0,0,.787-.328l1.423-1.422h0a1.114,1.114,0,0,0,.248-1.232,1.114,1.114,0,0,0-1.059-.679Zm72.13.547c-.116,0-.233,0-.351,0a19.05,19.05,0,0,0-5.024,1.026c-1.528.485-2.7.962-2.7.962l0,0a1.112,1.112,0,1,0,.839,2.06s1.1-.446,2.534-.9a18.559,18.559,0,0,1,4.4-.924,12.082,12.082,0,0,1,4.175.88,14.432,14.432,0,0,0,4.921,1.025,12.153,12.153,0,0,0,4.383-1.033,10.225,10.225,0,0,1,3.826-.871v0a1.113,1.113,0,1,0,0-2.225,12.463,12.463,0,0,0-4.611,1.015,10.215,10.215,0,0,1-3.618.891,12.64,12.64,0,0,1-4.189-.91,14.778,14.778,0,0,0-4.58-1Zm-77.792,2.158A4.124,4.124,0,0,0-38.463,71.3a4.124,4.124,0,0,0,4.106,4.106A4.124,4.124,0,0,0-30.251,71.3a4.123,4.123,0,0,0-4.106-4.108m19.081.2L14.732,74.09v8.156L-15.276,72.12Zm-19.081,2.019A1.865,1.865,0,0,1-32.476,71.3a1.863,1.863,0,0,1-1.881,1.881A1.866,1.866,0,0,1-36.24,71.3a1.867,1.867,0,0,1,1.882-1.882m-8.041.768,0,0A1.114,1.114,0,0,0-43.5,71.3a1.113,1.113,0,0,0,1.1,1.113h2.011A1.114,1.114,0,0,0-39.284,71.3a1.116,1.116,0,0,0-1.106-1.114Zm14.072,0v0a1.114,1.114,0,0,0-1.1,1.114,1.113,1.113,0,0,0,1.1,1.113h2.011a1.113,1.113,0,0,0,1.1-1.113,1.114,1.114,0,0,0-1.1-1.114ZM-30.1,74.439l0,0a1.115,1.115,0,0,0-1.03.694,1.115,1.115,0,0,0,.255,1.217l1.423,1.422a1.114,1.114,0,0,0,1.57,0,1.114,1.114,0,0,0,0-1.57l-1.423-1.422h0a1.109,1.109,0,0,0-.8-.338Zm-8.539,0,0,0a1.12,1.12,0,0,0-.765.336L-40.83,76.2a1.111,1.111,0,0,0,0,1.57,1.114,1.114,0,0,0,1.57,0l1.422-1.422a1.114,1.114,0,0,0,.246-1.231,1.112,1.112,0,0,0-1.057-.679Zm23.368.017L14.732,84.584v4.749L-15.276,78.616Zm-19.1,1.736v0a1.108,1.108,0,0,0-.783.338,1.1,1.1,0,0,0-.314.79V79.33a1.111,1.111,0,0,0,1.113,1.1,1.114,1.114,0,0,0,1.113-1.1V77.321a1.118,1.118,0,0,0-.326-.8A1.109,1.109,0,0,0-34.372,76.193Z" transform="translate(45.24 0)" fill="#4496d8"/></g></g></g></svg>