<svg xmlns="http://www.w3.org/2000/svg" width="101.396" height="101.392" viewBox="0 0 101.396 101.392"><g transform="translate(-18.75 -18.75)"><path d="M975,300h13.083v52.334H975Z" transform="translate(-872.843 -256.719)" fill="#4496d8"/><path d="M688.083,516.637V487.5H675v18.95A22.929,22.929,0,0,1,688.083,516.637Z" transform="translate(-599.01 -427.864)" fill="#4496d8"/><path d="M522.255,837.069l-5.638,2.818,1.462,2.927,6.542-3.271h0a1.636,1.636,0,0,0,.9-1.464V825h-3.271Z" transform="translate(-454.442 -735.923)" fill="#4496d8"/><path d="M394.624,770.687a19.653,19.653,0,0,0,14.627-6.542l-2.437-2.18a16.37,16.37,0,1,1,4.124-11.721h-4.865l6.542,8.722,6.542-8.722h-4.947a19.614,19.614,0,1,0-19.584,20.443Z" transform="translate(-325.176 -650.545)" fill="#4496d8"/><path d="M918.75,937.5h22.9v3.271h-22.9Z" transform="translate(-821.5 -838.614)" fill="#4496d8"/><path d="M18.75,937.5h27.8v3.271H18.75Z" transform="translate(0 -838.614)" fill="#4496d8"/><path d="M75,487.5H88.083v35.979H75Z" transform="translate(-51.344 -427.864)" fill="#4496d8"/><path d="M142.679,18.75a6.542,6.542,0,0,0-6.542,6.542,6.469,6.469,0,0,0,.327,1.963L121,36.9a6.506,6.506,0,0,0-9.118.119L94.973,27.074a6.439,6.439,0,0,0,.278-1.783,6.542,6.542,0,1,0-12.593,2.489L66.6,39.827a6.479,6.479,0,0,0-4.059-1.452,6.556,6.556,0,1,0,6.051,4.052L84.656,30.381h0a6.47,6.47,0,0,0,8.689-.473l16.9,9.955a6.44,6.44,0,0,0-.278,1.783,6.542,6.542,0,1,0,13.083,0,6.47,6.47,0,0,0-.327-1.963l15.465-9.649a6.542,6.542,0,1,0,4.488-11.284Z" transform="translate(-33.98)" fill="#4496d8"/><path d="M388.083,300H375v45.491A22.927,22.927,0,0,1,388.083,335.3Z" transform="translate(-325.177 -256.719)" fill="#4496d8"/></g></svg>