<svg xmlns="http://www.w3.org/2000/svg" xmlns:xlink="http://www.w3.org/1999/xlink" width="119.258" height="74.534" viewBox="0 0 119.258 74.534"><defs><clipPath id="a"><path d="M0,35.629H119.258V-38.9H0Z" transform="translate(0 38.905)" fill="#4496d8"/></clipPath></defs><g transform="translate(0 38.905)"><g transform="translate(0 -38.905)" clip-path="url(#a)"><g transform="translate(23.299 11.983)"><path d="M5.284,22.643a37.355,37.355,0,0,1,0-44.165A1.985,1.985,0,0,0,5.734-23a1.932,1.932,0,0,0-.709-1.3,1.891,1.891,0,0,0-1.19-.423,1.671,1.671,0,0,0-.218.013A1.893,1.893,0,0,0,2.336-24l-.111.149a41.254,41.254,0,0,0,0,48.814,1.956,1.956,0,0,0,1.282.849,1.876,1.876,0,0,0,1.429-.326,1.925,1.925,0,0,0,.784-1.253A1.946,1.946,0,0,0,5.4,22.792Z" transform="translate(5.77 24.725)" fill="#4496d8"/></g><g transform="translate(23.299 11.983)"><path d="M5.284,22.643a37.355,37.355,0,0,1,0-44.165A1.985,1.985,0,0,0,5.734-23a1.932,1.932,0,0,0-.709-1.3,1.891,1.891,0,0,0-1.19-.423,1.671,1.671,0,0,0-.218.013A1.893,1.893,0,0,0,2.336-24l-.111.149a41.254,41.254,0,0,0,0,48.814,1.956,1.956,0,0,0,1.282.849,1.876,1.876,0,0,0,1.429-.326,1.925,1.925,0,0,0,.784-1.253A1.946,1.946,0,0,0,5.4,22.792Z" transform="translate(5.77 24.725)" fill="#4496d8"/><path d="M3.838,26.028A2.041,2.041,0,0,1,3.474,26a2.151,2.151,0,0,1-1.4-.923,41.435,41.435,0,0,1,0-49.026l.111-.15A2.073,2.073,0,0,1,3.6-24.891a1.824,1.824,0,0,1,.239-.015,2.06,2.06,0,0,1,1.3.463,2.115,2.115,0,0,1,.775,1.42,2.178,2.178,0,0,1-.486,1.611,37.173,37.173,0,0,0,0,43.947l.116.154a2.132,2.132,0,0,1-.505,2.95A2.063,2.063,0,0,1,3.838,26.028Zm0-50.572a1.483,1.483,0,0,0-.195.012,1.713,1.713,0,0,0-1.163.649l-.108.146a41.072,41.072,0,0,0,0,48.6,1.777,1.777,0,0,0,1.167.778,1.52,1.52,0,0,0,.3.027,1.7,1.7,0,0,0,.992-.322,1.747,1.747,0,0,0,.71-1.136,1.766,1.766,0,0,0-.29-1.309l-.111-.146a37.537,37.537,0,0,1,0-44.382l0,0a1.8,1.8,0,0,0,.412-1.349,1.755,1.755,0,0,0-.643-1.178A1.7,1.7,0,0,0,3.836-24.544Z" transform="translate(5.77 24.725)" fill="#4496d8"/></g><g transform="translate(84.434 11.969)"><path d="M1.688.426A1.963,1.963,0,0,0,.406-.436,2.026,2.026,0,0,0,.067-.465a1.872,1.872,0,0,0-1.092.351,1.929,1.929,0,0,0-.789,1.249A1.95,1.95,0,0,0-1.5,2.583l.126.169a37.349,37.349,0,0,1,0,44.165A2.008,2.008,0,0,0-1.831,48.4a1.929,1.929,0,0,0,.7,1.3,1.9,1.9,0,0,0,2.694-.3l.077-.1A41.279,41.279,0,0,0,1.688.426" transform="translate(1.843 0.465)" fill="#4496d8"/></g><g transform="translate(84.434 11.969)"><path d="M1.688.426A1.963,1.963,0,0,0,.406-.436,2.026,2.026,0,0,0,.067-.465a1.872,1.872,0,0,0-1.092.351,1.929,1.929,0,0,0-.789,1.249A1.95,1.95,0,0,0-1.5,2.583l.126.169a37.349,37.349,0,0,1,0,44.165A2.008,2.008,0,0,0-1.831,48.4a1.929,1.929,0,0,0,.7,1.3,1.9,1.9,0,0,0,2.694-.3l.077-.1A41.279,41.279,0,0,0,1.688.426Z" transform="translate(1.843 0.465)" fill="#4496d8"/><path d="M.067-.646a2.216,2.216,0,0,1,.369.031,2.134,2.134,0,0,1,1.4.935A40.5,40.5,0,0,1,7.856,12.04a41.542,41.542,0,0,1,2,12.8A41.631,41.631,0,0,1,7.837,37.654,40.771,40.771,0,0,1,1.787,49.411l-.08.108a2.078,2.078,0,0,1-1.637.792,2.09,2.09,0,0,1-1.313-.467,2.11,2.11,0,0,1-.769-1.422,2.178,2.178,0,0,1,.5-1.616,37.166,37.166,0,0,0,0-43.947l-.13-.174A2.132,2.132,0,0,1-1.992,1.1,2.112,2.112,0,0,1-1.129-.262,2.053,2.053,0,0,1,.067-.646ZM1.422,49.3l.075-.1A41.127,41.127,0,0,0,1.543.534l0,0A1.785,1.785,0,0,0,.375-.258,1.849,1.849,0,0,0,.067-.284,1.694,1.694,0,0,0-.92.033a1.752,1.752,0,0,0-.716,1.133,1.771,1.771,0,0,0,.287,1.311l.124.166a37.531,37.531,0,0,1,0,44.381l0,0a1.828,1.828,0,0,0-.424,1.356,1.75,1.75,0,0,0,.637,1.179,1.7,1.7,0,0,0,1.085.386A1.718,1.718,0,0,0,1.422,49.3Z" transform="translate(1.843 0.465)" fill="#4496d8"/></g><g transform="translate(0.347 0.361)"><path d="M7.122,33.778a57.009,57.009,0,0,1-.038-67.461,1.974,1.974,0,0,0-.257-2.78,1.886,1.886,0,0,0-1.194-.421,1.906,1.906,0,0,0-1.5.726l-.111.151a60.9,60.9,0,0,0,0,72.059,1.957,1.957,0,0,0,1.282.851,1.873,1.873,0,0,0,1.429-.326,1.952,1.952,0,0,0,.462-2.7Z" transform="translate(7.777 36.884)" fill="#4496d8"/></g><g transform="translate(0.347 0.361)"><path d="M7.122,33.778a57.009,57.009,0,0,1-.038-67.461,1.974,1.974,0,0,0-.257-2.78,1.886,1.886,0,0,0-1.194-.421,1.906,1.906,0,0,0-1.5.726l-.111.151a60.9,60.9,0,0,0,0,72.059,1.957,1.957,0,0,0,1.282.851,1.873,1.873,0,0,0,1.429-.326,1.952,1.952,0,0,0,.462-2.7Z" transform="translate(7.777 36.884)" fill="#4496d8"/><path d="M5.639,37.113h0a2.08,2.08,0,0,1-.365-.032,2.149,2.149,0,0,1-1.4-.925,61.082,61.082,0,0,1,0-72.27l.115-.156a2.08,2.08,0,0,1,1.64-.795,2.055,2.055,0,0,1,1.307.462,2.151,2.151,0,0,1,.287,3.03,56.854,56.854,0,0,0,.04,67.243l.078.1a2.133,2.133,0,0,1-.505,2.95A2.055,2.055,0,0,1,5.639,37.113ZM4.279-36.048,4.17-35.9a60.72,60.72,0,0,0,0,71.844,1.776,1.776,0,0,0,1.167.78,1.975,1.975,0,0,0,.3.027,1.7,1.7,0,0,0,.991-.322,1.77,1.77,0,0,0,.42-2.446l-.073-.1a56.1,56.1,0,0,1-8.326-16.2A57.413,57.413,0,0,1-4.128.029,57.343,57.343,0,0,1-1.364-17.623a55.894,55.894,0,0,1,8.3-16.168l0,0a1.793,1.793,0,0,0-.228-2.527,1.7,1.7,0,0,0-1.08-.381A1.72,1.72,0,0,0,4.279-36.048Z" transform="translate(7.777 36.884)" fill="#4496d8"/></g><g transform="translate(103.584 0.346)"><path d="M1.688.427A1.963,1.963,0,0,0,.406-.435,1.84,1.84,0,0,0,.069-.466a1.887,1.887,0,0,0-1.094.351,1.933,1.933,0,0,0-.789,1.251A1.944,1.944,0,0,0-1.5,2.582l.126.169a56.993,56.993,0,0,1,0,67.411,2.008,2.008,0,0,0-.462,1.487,1.929,1.929,0,0,0,.7,1.3,1.9,1.9,0,0,0,2.694-.3l.077-.105A60.92,60.92,0,0,0,1.688.427" transform="translate(1.843 0.466)" fill="#4496d8"/></g><g transform="translate(103.584 0.346)"><path d="M1.688.427A1.963,1.963,0,0,0,.406-.435,1.84,1.84,0,0,0,.069-.466a1.887,1.887,0,0,0-1.094.351,1.933,1.933,0,0,0-.789,1.251A1.944,1.944,0,0,0-1.5,2.582l.126.169a56.993,56.993,0,0,1,0,67.411,2.008,2.008,0,0,0-.462,1.487,1.929,1.929,0,0,0,.7,1.3,1.9,1.9,0,0,0,2.694-.3l.077-.105A60.92,60.92,0,0,0,1.688.427Z" transform="translate(1.843 0.466)" fill="#4496d8"/><path d="M.069-.647a2.026,2.026,0,0,1,.37.034,2.133,2.133,0,0,1,1.4.934A59.718,59.718,0,0,1,10.711,17.6a61.252,61.252,0,0,1,2.954,18.866,61.341,61.341,0,0,1-2.973,18.878A59.985,59.985,0,0,1,1.787,72.657l-.08.11a2.079,2.079,0,0,1-1.636.79,2.091,2.091,0,0,1-1.314-.467,2.11,2.11,0,0,1-.769-1.422,2.177,2.177,0,0,1,.5-1.616,56.812,56.812,0,0,0,0-67.193l-.13-.173A2.124,2.124,0,0,1-1.992,1.1,2.114,2.114,0,0,1-1.129-.263,2.069,2.069,0,0,1,.069-.647ZM1.421,72.544l.074-.1A60.769,60.769,0,0,0,1.543.535l0,0A1.785,1.785,0,0,0,.375-.257,1.667,1.667,0,0,0,.069-.285,1.709,1.709,0,0,0-.92.032a1.754,1.754,0,0,0-.715,1.135,1.764,1.764,0,0,0,.287,1.309l.124.166a57.174,57.174,0,0,1,0,67.627l0,0a1.828,1.828,0,0,0-.424,1.356,1.75,1.75,0,0,0,.637,1.179,1.7,1.7,0,0,0,1.085.386A1.719,1.719,0,0,0,1.421,72.544Z" transform="translate(1.843 0.466)" fill="#4496d8"/></g><g transform="translate(43.355 20.802)"><path d="M7.78,0a16.465,16.465,0,0,0,0,32.929A16.465,16.465,0,0,0,7.78,0" transform="translate(8.495)" fill="#4496d8"/></g><g transform="translate(43.355 20.802)"><path d="M7.78,0a16.465,16.465,0,0,0,0,32.929A16.465,16.465,0,0,0,7.78,0Z" transform="translate(8.495)" fill="#4496d8"/><path d="M7.78-.181a16.646,16.646,0,0,1,0,33.291,16.646,16.646,0,0,1,0-33.291Zm0,32.929A16.284,16.284,0,0,0,7.78.181a16.284,16.284,0,0,0,0,32.567Z" transform="translate(8.495)" fill="#4496d8"/></g></g></g></svg>