<svg xmlns="http://www.w3.org/2000/svg" width="103.928" height="103.926" viewBox="0 0 103.928 103.926"><g transform="translate(-111.292 -111.333)"><path d="M212.9,208.326H131.785a2.309,2.309,0,0,1-2.236-2.886A6.936,6.936,0,0,0,121.106,197a2.309,2.309,0,0,1-2.886-2.236v-76.8l-3.338,2.225a2.309,2.309,0,1,1-2.562-3.843l6.928-4.619a2.309,2.309,0,0,1,3.59,1.921V192.16a11.559,11.559,0,0,1,11.547,11.547h74.2l-2.225-3.338a2.309,2.309,0,1,1,3.843-2.562l4.618,6.928a2.31,2.31,0,0,1-1.921,3.591Z" transform="translate(0 0)" fill="#4496d8"/><path d="M122.887,894.608a11.538,11.538,0,1,1,11.183-8.662,11.559,11.559,0,0,1-11.183,8.662Zm0-18.474a6.935,6.935,0,1,0,6.928,6.928,6.944,6.944,0,0,0-6.928-6.928Z" transform="translate(-0.043 -679.349)" fill="#4496d8"/><path d="M211.138,674.141a2.309,2.309,0,0,1-2.309-2.309v-34.64H178.808a2.309,2.309,0,1,1,0-4.619h32.33a2.309,2.309,0,0,1,2.309,2.309v36.949a2.31,2.31,0,0,1-2.309,2.309Z" transform="translate(-58.273 -465.815)" fill="#4496d8"/><path d="M231.916,499.465a2.309,2.309,0,0,1-2.309-2.309V441.732H178.8a2.309,2.309,0,0,1,0-4.619h53.115a2.31,2.31,0,0,1,2.309,2.309v57.733a2.31,2.31,0,0,1-2.31,2.309Z" transform="translate(-58.267 -291.139)" fill="#4496d8"/><path d="M252.71,324.78a2.31,2.31,0,0,1-2.309-2.309V246.262H178.811a2.309,2.309,0,0,1,0-4.619h73.9a2.31,2.31,0,0,1,2.309,2.309V322.47a2.31,2.31,0,0,1-2.309,2.309Z" transform="translate(-58.276 -116.454)" fill="#4496d8"/><path d="M185.733,120.571a2.3,2.3,0,0,1-1.279-.388l-6.928-4.619a2.309,2.309,0,0,1,2.562-3.843l6.928,4.619a2.309,2.309,0,0,1-1.283,4.231Z" transform="translate(-58.272 0)" fill="#4496d8"/><path d="M1004.108,991.652a2.31,2.31,0,0,1-1.919-3.591l4.618-6.928a2.309,2.309,0,1,1,3.843,2.562l-4.618,6.928A2.308,2.308,0,0,1,1004.108,991.652Z" transform="translate(-795.819 -776.393)" fill="#4496d8"/><path d="M567.43,545.7h4.618v4.619H567.43Z" transform="translate(-407.636 -388.18)" fill="#4496d8"/><path d="M371.96,741.17h4.619v4.619H371.96Z" transform="translate(-232.951 -562.865)" fill="#4496d8"/><path d="M762.89,350.24h4.619v4.619H762.89Z" transform="translate(-582.312 -213.503)" fill="#4496d8"/></g></svg>