<svg xmlns="http://www.w3.org/2000/svg" xmlns:xlink="http://www.w3.org/1999/xlink" width="63.93" height="55.425" viewBox="0 0 63.93 55.425"><defs><clipPath id="a"><rect width="63.93" height="55.425" fill="none"/></clipPath></defs><g transform="translate(0 0)"><g transform="translate(0 0)" clip-path="url(#a)"><path d="M40.551,20.105l-1.392.265c-.553.105-1.106.21-1.658.319a.589.589,0,0,1-.521-.1,2.314,2.314,0,0,0-1.3-.425,5.591,5.591,0,0,0-4.2,1.524,2.183,2.183,0,0,0-.562.854c-.195.54-.3,1.112-.451,1.667a4.51,4.51,0,0,1-.281.856,1.525,1.525,0,0,1-.453.5,4.264,4.264,0,0,0-1.517,1.853c-.737,1.913-1.438,3.839-2.151,5.761-.034.09-.046.186-.1.4l.784-.445-1.014,4.484a.479.479,0,0,0,.648-.019,1.314,1.314,0,0,0,.14-.1,4.963,4.963,0,0,1,.741-.72c.283-.179.676-.186.954-.369.831-.546,1.636-1.133,2.436-1.723a.6.6,0,0,1,.624-.154c.108.039.265-.037.394-.077a1.942,1.942,0,0,1,.432-.159c.692-.032,1.385-.041,2.077-.054.134,0,.294-.048.325.179a.457.457,0,0,0,.335.034,1.274,1.274,0,0,1,1.066-.018q1.443.458,2.9.875c.363.1.547.394.838.68-1.085-.032-2.1-.082-3.119-.089-1.343-.01-2.686.01-4.028.022-.65.006-1.3.041-1.949.027a1.909,1.909,0,0,0-1.367.414c-.161.138-.361.23-.539.391a116.745,116.745,0,0,1,32.759,3.064l-2.387,9.951c-2.707-.51-5.373-1.047-8.053-1.509-2.7-.466-5.431-.761-8.166-.972s-5.446-.326-8.176-.326-5.455.113-8.177.322-5.457.538-8.168.96c-2.694.419-5.364.963-8.088,1.6-.805-3.352-1.6-6.668-2.407-10.023a115.277,115.277,0,0,1,17.881-2.833l.171-.752c-2.125.122-4.168.383-6.28.623a13.655,13.655,0,0,1-.135-3.954,15.1,15.1,0,0,1,4.094-9.072,15.273,15.273,0,0,1,17.032-3.733M43.662,43.99a1,1,0,0,0-.124-.238.5.5,0,0,1-.046-.719,2.085,2.085,0,0,0,.248-1.666,1.828,1.828,0,0,0-1.277-1.4,1.771,1.771,0,0,0-1.873.465,2.178,2.178,0,0,0-.283,2.64,1.883,1.883,0,0,0,2.029.819c.125-.03.246-.07.385-.11.231.417.573.3.94.214m11.416,1.661c.231-1.063.449-2.069.667-3.073l.715.109.179-.5c.19.653.351,1.232.528,1.807a1.162,1.162,0,0,1,.014.675c-.119.442-.214.89-.33,1.384l.747.159a7,7,0,0,0,.2-.77,2.309,2.309,0,0,1,.84-1.549,4.737,4.737,0,0,0,.459-.459c.18-.194.352-.4.537-.605-.695-.317-.764-.305-1.2.159-.19.2-.383.4-.615.643-.1-.407-.191-.739-.251-1.078a.423.423,0,0,0-.383-.392c-.82-.165-1.636-.348-2.454-.521-.108-.023-.218-.032-.358-.052-.048.221-.09.411-.135.615l.726.22c-.21,1.023-.415,2.019-.628,3.053l.751.17m-42.113.316c-.178-.823-.344-1.592-.528-2.44.146.105.226.156.3.216q.939.8,1.876,1.6c.359.306.4.31.857.068l-.841-3.744c-.176.033-.288.05-.4.076s-.212.061-.352.1l.508,2.381c-.183-.134-.277-.194-.362-.266-.6-.513-1.22-1.016-1.806-1.548a.618.618,0,0,0-.856-.072c.279,1.245.561,2.5.849,3.786l.755-.16m13.466-3.8c0-.065,0-.18-.017-.294a1.906,1.906,0,0,0-3.431-.987,2.28,2.28,0,0,0,.134,2.658,1.9,1.9,0,0,0,3.314-1.377m-5.894,2.471A1.86,1.86,0,0,0,22.472,42.7a1.977,1.977,0,0,0-1.893-2.116,1.9,1.9,0,0,0-1.941,1.954,1.967,1.967,0,0,0,1.9,2.105m-4.612.682c.43-.074.788-.121,1.139-.2A1.8,1.8,0,0,0,18.5,43.579a1.938,1.938,0,0,0-1.554-2.246,4.772,4.772,0,0,0-1.7.225l.672,3.766m21.514-3.27.2-.122a1.129,1.129,0,0,0,.534-1.187.965.965,0,0,0-.878-.93,5.929,5.929,0,0,0-.947-.054c-.476-.011-.475,0-.485.477-.02,1.01-.045,2.019-.064,3.029a1.7,1.7,0,0,0,.047.3h.73c.024-.441.046-.851.069-1.261a11.84,11.84,0,0,1,.715,1.081.56.56,0,0,0,.315.246,4.58,4.58,0,0,0,.75.011l-.989-1.59M28.4,42.2l.211-.154a1.161,1.161,0,0,0,.381-1.325.928.928,0,0,0-.907-.739c-.454-.025-.91.021-1.43.037.112,1.3.129,2.56.276,3.846l.73-.065v-1.36c.254.362.45.643.648.923.319.451.591.516,1.152.254L28.4,42.2m16.7-1.98-.766-.036c-.041.365-.084.69-.113,1.016-.049.559-.112,1.12-.126,1.68a1.246,1.246,0,0,0,.625,1.163,1.389,1.389,0,0,0,2.142-.889c.172-.87.226-1.765.337-2.7l-.758-.087a2.6,2.6,0,0,0-.074.3c-.041.4-.068.8-.116,1.2a9.69,9.69,0,0,1-.185,1.192.58.58,0,0,1-.632.479.607.607,0,0,1-.546-.626,7.649,7.649,0,0,1,.046-.948c.048-.57.107-1.138.166-1.756m5.288,4.514c.016-.07.033-.1.028-.125-.267-1.227-.537-2.453-.8-3.681a.346.346,0,0,0-.339-.319.413.413,0,0,0-.486.24c-.572,1.07-1.16,2.131-1.739,3.2a1.582,1.582,0,0,0-.077.221l.49.094a.327.327,0,0,0,.418-.214c.157-.477.481-.557.913-.41a.609.609,0,0,0,.129.015c.506.057.516.055.626.574.052.25.165.387.429.384.128,0,.257.014.41.023M33.2,42.811c.142.284.2.592.388.72s.479.046.771.06c-.067-.2-.1-.322-.149-.441q-.591-1.51-1.186-3.02c-.2-.5-.2-.5-.807-.414-.456,1.275-.919,2.572-1.4,3.93.238,0,.405,0,.572,0a.3.3,0,0,0,.34-.261c.086-.5.392-.649.867-.579a4.225,4.225,0,0,0,.607,0M50.6,44.8a10.257,10.257,0,0,0,1.811.267l.1-.6L51.5,44.239c.171-1.045.336-2.049.506-3.093l-.763-.108c-.216,1.267-.423,2.484-.641,3.759m2.706-3.419-.71,3.768.768.147c.239-1.274.47-2.5.708-3.763l-.767-.152M34.579,39.772v3.788h.737V39.786c-.119-.014-.216-.034-.312-.035-.127,0-.254.012-.425.021M11.755,46.251c-.326-1.254-.641-2.471-.964-3.712l-.752.21L11,46.467l.75-.216" transform="translate(-2.762 -6.721)" fill="#fff"/><path d="M61.576,32.386l-3.308-.747c1.1-8.625-1.346-15.976-7.812-21.8A22.981,22.981,0,0,0,33.621,3.87,23.114,23.114,0,0,0,21.111,8.1a23.879,23.879,0,0,0-9.968,23.435L8.6,32.092c-.208-.5-.4-.967-.59-1.431A7.755,7.755,0,0,1,7.372,27.5a7.205,7.205,0,0,1,.491-2.362,1.748,1.748,0,0,0,.079-.971,10.3,10.3,0,0,1-.1-3.15A7.251,7.251,0,0,1,9.5,17.447c.457-.577.961-1.116,1.426-1.687a1.5,1.5,0,0,0,.257-.528c.165-.583.284-1.18.465-1.757a6.528,6.528,0,0,1,2.866-3.628,1.57,1.57,0,0,0,.59-.664c.21-.427.45-.839.691-1.251a6.867,6.867,0,0,1,4.233-3.222c.75-.211,1.509-.392,2.269-.562a1.44,1.44,0,0,0,.712-.371c.337-.316.7-.609,1.057-.9A6.564,6.564,0,0,1,28.75,1.407a1.86,1.86,0,0,0,1.031-.236c.46-.241.936-.455,1.417-.65A6.635,6.635,0,0,1,35.9.351a23.325,23.325,0,0,1,2.378.928,2.542,2.542,0,0,0,1.424.19,9.006,9.006,0,0,1,2.847.068,6.9,6.9,0,0,1,2.982,1.517,1.311,1.311,0,0,0,.653.3c.556.086,1.109.2,1.656.328a6.438,6.438,0,0,1,3.89,2.569c.561.785,1.06,1.617,1.567,2.44a1.384,1.384,0,0,0,.541.534c.319.168.623.365.929.556a6.742,6.742,0,0,1,3.1,4.166,1.924,1.924,0,0,0,.564.943A10.178,10.178,0,0,1,60.2,17.068a6.617,6.617,0,0,1,.835,2.708,18.673,18.673,0,0,1-.128,3.455,1.326,1.326,0,0,0,.119.708,10.494,10.494,0,0,1,.852,2.448,6.971,6.971,0,0,1-.358,3.873,1.572,1.572,0,0,0-.091.924c.076.361.092.734.145,1.2" transform="translate(-2.614 0)" fill="#fff"/><path d="M64.077,37.36c-.436-.047-.831-.091-1.227-.132-1.622-.167-3.243-.343-4.866-.5-1.006-.095-2.015-.146-3.022-.232-.313-.026-.582-.021-.663.383-.219-.17-.359-.3-.3-.594.028-.143-.126-.323-.22-.536A3.572,3.572,0,0,0,56,35.64c-.172-.321-.385-.464-.693-.4a7.8,7.8,0,0,1-3.5-.3c-.757-.177-1.492-.447-2.237-.675a.583.583,0,0,1-.427-.377c-.14-.376-.51-.446-.851-.5a4.237,4.237,0,0,1-1.2-.477c.57-.643,1.143-1.251,1.67-1.9a16.6,16.6,0,0,0,1.108-1.549,4.451,4.451,0,0,0,.65-3.064c-.094-.73-.165-1.463-.224-2.2a.518.518,0,0,1,.154-.366,3.419,3.419,0,0,1,.6-.43.822.822,0,0,0,.469-.632c.019-.211.143-.275.324-.341,1.936-.716,3.867-1.442,5.8-2.164a.941.941,0,0,1,.432-.075,16.828,16.828,0,0,1-1.962,1,15.551,15.551,0,0,1,7.963,16.17m-6.909-5.354-.017-.073c-.5.117-1,.215-1.492.355a2.949,2.949,0,0,0-1.976,1.966,2.649,2.649,0,0,0-.084.521l.085.034L54.526,34c-.121.359-.457.577-.543,1.045a2.7,2.7,0,0,0,.485-.205,4.2,4.2,0,0,0,.707-.567c.678-.744,1.331-1.509,1.994-2.265m-5.81.442a2.8,2.8,0,0,0,.723,1.981,2.151,2.151,0,0,0,.7.387.354.354,0,0,0,.416-.126.844.844,0,0,0,.073-1.218,2.053,2.053,0,0,0-.924-.609c-.326-.129-.647-.27-.99-.415" transform="translate(-16.707 -7.162)" fill="#fff"/><path d="M14.995,66.858c.636-.134,1.184-.254,1.733-.365s1.08-.2,1.614-.319a.668.668,0,0,1,.747.257,23.74,23.74,0,0,0,5.572,4.9,23.146,23.146,0,0,0,9.7,3.486,25.48,25.48,0,0,0,3.062.212,23.37,23.37,0,0,0,6.33-.863,23.833,23.833,0,0,0,11.046-6.7c.317-.336.613-.691.914-1.041.107-.125.21-.241.4-.2l3.594.7c-.131.2-.208.33-.3.452a6.9,6.9,0,0,1-1.831,1.639,1.718,1.718,0,0,0-.636.734,10.381,10.381,0,0,1-1.6,2.463,7.265,7.265,0,0,1-3.605,2.045c-.639.177-1.289.315-1.938.457a1.43,1.43,0,0,0-.716.367c-.335.317-.695.61-1.055.9a6.6,6.6,0,0,1-4.589,1.493,2.554,2.554,0,0,0-1.236.274,18.572,18.572,0,0,1-2.331.919,5.832,5.832,0,0,1-3.582-.121c-.914-.308-1.807-.684-2.7-1.047a1.639,1.639,0,0,0-.878-.128,9.5,9.5,0,0,1-2.977,0,6.79,6.79,0,0,1-3.122-1.517,1.84,1.84,0,0,0-.856-.368c-.734-.146-1.474-.287-2.189-.505A6.351,6.351,0,0,1,20.185,72.4c-.5-.723-.952-1.482-1.408-2.235a1.33,1.33,0,0,0-.511-.505,9.522,9.522,0,0,1-2.5-1.847c-.259-.285-.487-.6-.774-.953" transform="translate(-5.319 -23.466)" fill="#fff"/><path d="M15.038,33.706l-.894.168A23.132,23.132,0,0,1,51.218,11.91a22.925,22.925,0,0,1,8.566,22.061l-.875-.177c1-7.933-1.235-14.715-7.133-20.116A21.159,21.159,0,0,0,36.569,8a21.457,21.457,0,0,0-16.583,7.932,21.961,21.961,0,0,0-4.948,17.77" transform="translate(-4.896 -2.482)" fill="#fff"/><path d="M57.672,65.866c-9.711,11.564-27.059,10.535-35.5-.089a6.759,6.759,0,0,1,.952-.141c.123,0,.269.143.372.251a24.588,24.588,0,0,0,3.1,2.829,21.514,21.514,0,0,0,10.253,4.241,21.892,21.892,0,0,0,16.87-4.585,17.967,17.967,0,0,0,2.618-2.456.532.532,0,0,1,.569-.2c.236.052.474.095.761.152" transform="translate(-7.866 -23.284)" fill="#fff"/><path d="M88.218,59.949l5.841,2.234c0,.026,0,.051,0,.077l-5.4.905,2.674,4.41-.043.079-6.356-2.23c.061-.116.1-.2.149-.282s.1-.136.169-.221l1.674.37,1.289-5.342" transform="translate(-30.13 -21.266)" fill="#fff"/><path d="M53.071,63.827a15.144,15.144,0,0,1-14.7-.006,99.643,99.643,0,0,1,14.7.006" transform="translate(-13.611 -22.545)" fill="#fff"/><path d="M5.415,63.217l-5.392-.9L0,62.244,5.606,60.1l1.269,5.246,2.1-.47.361.535-6.54,2.3-.064-.058,2.684-4.431" transform="translate(0 -21.319)" fill="#fff"/><path d="M65.373,19.885l2.544-2.97c.645.546,1.392.956,1.493,1.886a1.955,1.955,0,0,1-.965,1.94,1.737,1.737,0,0,1-2,.015,12.17,12.17,0,0,1-1.076-.871m1.074-.054a1.053,1.053,0,0,0,1.236.437,1.57,1.57,0,0,0,1-1.251,1.057,1.057,0,0,0-.663-1.034l-1.577,1.848" transform="translate(-23.19 -6.001)" fill="#fff"/><path d="M40.666,15.5a1.063,1.063,0,0,1-.125.088c-.679.279-.678.279-1.253-.181a4.594,4.594,0,0,0-.81-.554c.143.423.287.846.446,1.313l-.71.265-1.329-3.671a6.585,6.585,0,0,1,1.456-.474.967.967,0,0,1,1.019.508,1.175,1.175,0,0,1,.054,1.271c-.065.108-.148.206-.236.328l1.49,1.106m-2.452-1.352c.316-.066.529-.188.6-.475a.688.688,0,0,0-.278-.636.607.607,0,0,0-.691.095l.372,1.016" transform="translate(-13.084 -4.355)" fill="#fff"/><path d="M38.25,41.314a17.939,17.939,0,0,1,1.211-3.826c.023.3.04.6.071.9s.081.622.136,1.041c1.893-1.447,3.674-2.88,5.508-4.294-.716,1.289-5.056,5.065-6.925,6.181" transform="translate(-13.569 -12.463)" fill="#fff"/><path d="M33.289,15.058l-1.036.661.41.714,1.03-.607.356.55-1.005.646c.179.3.341.561.527.869l1.063-.621.378.543-1.736,1.076-2.058-3.33,1.711-1.064.361.563" transform="translate(-11.074 -5.142)" fill="#fff"/><path d="M62.694,15.254l1.021.579-.294.581-1.067-.534c-.166.3-.317.577-.489.89l1.061.59c0,.037-.007.073-.011.109a1.214,1.214,0,0,1-.943.125c-.369-.155-.712-.37-1.11-.583L62.7,13.556l1.789.95c-.1.191-.192.361-.307.575l-1.121-.55-.367.723" transform="translate(-21.59 -4.809)" fill="#fff"/><path d="M28.46,18.888c-.945.411-1.194.714-1.112,1.329A1.5,1.5,0,0,0,28.6,21.47c.606.079.93-.183,1.288-1.078.134.126.249.245.374.352a.362.362,0,0,1,.079.495,1.853,1.853,0,0,1-2.03.975,2.161,2.161,0,0,1-1.635-2.765,1.83,1.83,0,0,1,.9-1.006c.217-.116.4-.134.561.095a3.675,3.675,0,0,0,.318.35" transform="translate(-9.425 -6.513)" fill="#fff"/><path d="M55.142,11.614l-1.134-.134-.137.795,1.043.217c-.025.21-.047.4-.074.618l-1.083-.126c-.1.561-.194,1.081-.3,1.651l-.747-.119c.216-1.3.424-2.556.638-3.847l1.915.325c-.046.229-.081.405-.125.619" transform="translate(-18.7 -3.785)" fill="#fff"/><path d="M43.105,11.543c-.036-.208-.07-.4-.11-.632l2.289-.354.124.625-.763.181c.154,1.05.305,2.084.465,3.17l-.741.112c-.168-1.067-.333-2.107-.5-3.171l-.761.07" transform="translate(-15.252 -3.745)" fill="#fff"/><path d="M95.164,54.893c.356-.118.481-.008.528.266.069.4.164.791.25,1.186a.393.393,0,0,0,.139.236c.111-.479.216-.961.336-1.438.082-.327.1-.331.527-.243.01.218.022.446.032.674.025.562.055,1.124.065,1.687,0,.088-.077.237-.144.253-.163.038-.165-.116-.172-.23-.024-.374-.043-.749-.063-1.123a1,1,0,0,0-.09-.433q-.162.687-.323,1.374a1.053,1.053,0,0,1-.064.251c-.035.065-.107.151-.166.153s-.147-.085-.163-.149c-.092-.348-.167-.7-.243-1.054a3.558,3.558,0,0,0-.168-.632c-.03.519-.059,1.038-.092,1.556-.01.152.018.346-.3.275.038-.864.076-1.735.115-2.607" transform="translate(-33.718 -19.456)" fill="#fff"/><path d="M58.42,15.9c-.165-.037-.264-.05-.357-.081s-.208-.085-.375-.154l1.238-3.675.73.234c-.414,1.232-.819,2.435-1.237,3.677" transform="translate(-20.464 -4.255)" fill="#fff"/><path d="M50.07,14.359h-.747c-.07-1.273.054-2.53.05-3.845l.7-.034Z" transform="translate(-17.489 -3.718)" fill="#fff"/><path d="M40.943,72.567a2.35,2.35,0,0,1,.432-1.39.8.8,0,0,1,.864-.356.709.709,0,0,1,.55.648,2.191,2.191,0,0,1-.428,1.754.76.76,0,0,1-.833.332.776.776,0,0,1-.563-.7,2.437,2.437,0,0,1-.023-.292m1.5-.718c0-.064,0-.121-.01-.179-.023-.215-.1-.438-.327-.447a.631.631,0,0,0-.456.244,1.676,1.676,0,0,0-.312,1.265.408.408,0,0,0,.786.171,1.891,1.891,0,0,0,.319-1.054" transform="translate(-14.524 -25.116)" fill="#fff"/><path d="M43.975,73.952c.128-.882.255-1.758.385-2.66.421-.005.823-.053,1.045.329a.817.817,0,0,1-.222,1.036.892.892,0,0,1-.006,1.185c-.324.377-.747.268-1.2.11m.4-.316c.243.09.438.085.533-.108a.718.718,0,0,0,.055-.479c-.056-.19-.23-.279-.476-.191-.035.245-.071.5-.112.778m.269-1.939c-.022.254-.041.479-.061.708.394.008.55-.1.559-.354.008-.213-.1-.3-.5-.355" transform="translate(-15.6 -25.289)" fill="#fff"/><path d="M56.841,70.711c.415-.148.765-.41,1.145-.1a.981.981,0,0,1,.245,1.124l.638,1.168c-.206.18-.342.155-.445-.047-.085-.167-.16-.339-.25-.5s-.2-.319-.4-.217c-.177.088-.075.251-.041.384.057.221.121.44.184.667-.171.133-.31.156-.375-.062-.234-.785-.456-1.573-.7-2.412m.688,1.022c.241.006.406-.086.407-.277a.993.993,0,0,0-.166-.5.318.318,0,0,0-.3-.041.313.313,0,0,0-.114.27,3.822,3.822,0,0,0,.175.548" transform="translate(-20.164 -24.997)" fill="#fff"/><path d="M38.181,69.736l-.223.3c-.088-.061-.155-.115-.228-.158a.614.614,0,0,0-.826.09,1.541,1.541,0,0,0-.444,1.007c-.024.367.137.547.578.663L37.3,71.1c-.118-.157-.39-.3-.059-.54l.524.223a6.47,6.47,0,0,1-.476,1.158.273.273,0,0,1-.175.1.88.88,0,0,1-1.009-.679,1.876,1.876,0,0,1,.659-1.784.955.955,0,0,1,1.413.156" transform="translate(-12.8 -24.595)" fill="#fff"/><path d="M48.071,74.412c-.483-.06-.247-.519-.436-.729-.5-.14-.522-.133-.679.37-.063.2-.137.35-.424.209q.141-.51.284-1.025c.127-.457.256-.914.381-1.372.038-.137.1-.232.266-.227.145.005.261.046.286.2q.191,1.213.373,2.427c0,.025-.017.053-.05.143m-.459-1.245c-.043-.287-.082-.556-.122-.824l-.1-.006-.212.827a1.709,1.709,0,0,0,.235.044,1,1,0,0,0,.195-.041" transform="translate(-16.506 -25.413)" fill="#fff"/><path d="M66.121,67.592l.234.283-.554.432.4.625.655-.381.243.326-.962.63-1.5-2.313.9-.587.25.315-.6.449.347.527.583-.306" transform="translate(-22.929 -23.628)" fill="#fff"/><path d="M54.733,71.165c.328-.072.577-.134.829-.18.269-.05.323.1.29.343l-.667.2c.039.211.077.412.118.629l.627-.081c.162.329.155.357-.122.432-.122.033-.246.057-.414.1.05.25.094.47.148.742l.747-.1c.038.112.072.215.124.369l-1.128.245c-.185-.9-.362-1.766-.552-2.69" transform="translate(-19.416 -25.178)" fill="#fff"/><path d="M58.866,69.934l.361-.132,1.08,1.662.065-.021q-.117-.79-.235-1.58c-.01-.071-.048-.15-.03-.211.029-.094.079-.223.152-.25.154-.059.187.081.2.2q.094.684.183,1.369c.039.3.059.6.115.9.048.254-.067.343-.352.374l-1.542-2.309" transform="translate(-20.882 -24.615)" fill="#fff"/><path d="M67.591,65.772a.839.839,0,0,0-.25.15c-.074.092-.166.237-.139.323a.479.479,0,0,0,.283.27,1.766,1.766,0,0,0,.47,0,.9.9,0,0,1,.9.909.66.66,0,0,1-.45.667c-.263.1-.318.071-.441-.279.076-.031.155-.06.231-.1.178-.084.343-.193.281-.422a.45.45,0,0,0-.452-.337,2.08,2.08,0,0,0-.256.036.892.892,0,0,1-.965-.69.653.653,0,0,1,.337-.766c.25-.132.324-.094.448.239" transform="translate(-23.691 -23.222)" fill="#fff"/><path d="M34.516,68.406c-.062-.054-.118-.136-.192-.157-.127-.036-.317-.093-.386-.033a.54.54,0,0,0-.135.407,1.771,1.771,0,0,0,.185.432.946.946,0,0,1-.441,1.141c-.372.181-.73.037-1.007-.419l.192-.253c.046.01.081.007.1.023.307.329.452.385.641.242.2-.155.208-.339.019-.733a.908.908,0,0,1,.192-1.14.687.687,0,0,1,.874-.045c.246.183.242.279-.037.534" transform="translate(-11.543 -24.029)" fill="#fff"/><path d="M28.576,66.566a2.944,2.944,0,0,0,.19.274c.118.136.252.256.446.136a.415.415,0,0,0,.226-.471c-.03-.125-.088-.245-.119-.37a.894.894,0,0,1,.394-.975.683.683,0,0,1,.87.093c.222.228.209.3-.11.529-.059-.074-.106-.179-.184-.216-.117-.054-.288-.116-.379-.068a.465.465,0,0,0-.183.35,1.873,1.873,0,0,0,.121.456.93.93,0,0,1-.727,1.1.682.682,0,0,1-.654-.252c-.193-.232-.182-.32.11-.583" transform="translate(-10.052 -23.074)" fill="#fff"/><path d="M53.617,71.761a.568.568,0,0,1-.074.019c-.226.01-.5-.043-.546.278-.039.286.195.39.413.481a.888.888,0,0,1,.581.745.762.762,0,0,1-.276.774.728.728,0,0,1-.869.018c.023-.112.045-.217.069-.337.123.017.232.065.315.035a.718.718,0,0,0,.37-.228.34.34,0,0,0-.137-.453,3.956,3.956,0,0,0-.379-.205.9.9,0,0,1-.407-1.08.645.645,0,0,1,.709-.442c.251.023.325.144.23.395" transform="translate(-18.669 -25.315)" fill="#fff"/><path d="M32.75,67.309c-.545-.447-.872-.414-1.291.113a1.926,1.926,0,0,0-.227.366.665.665,0,0,0,.327,1.03.787.787,0,0,1,.095.075c-.141.336-.181.356-.451.225a.818.818,0,0,1-.493-.751,1.977,1.977,0,0,1,1.25-1.756.859.859,0,0,1,.846.184c.221.185.211.261-.056.514" transform="translate(-10.894 -23.615)" fill="#fff"/><path d="M63.882,67.809l.131.3a.715.715,0,0,1-.114.082.69.69,0,0,0-.448,1.027,2,2,0,0,0,.087.2c.346.7.708.819,1.361.444.232.229.237.292.037.46a.89.89,0,0,1-1.122.032A2.024,2.024,0,0,1,63,68.88c-.052-.637.21-.949.881-1.071" transform="translate(-22.347 -24.055)" fill="#fff"/><path d="M93.876,55.209l-.477.081v.716c0,.346.014.692-.006,1.037-.01.162.125.456-.15.456-.3,0-.168-.306-.176-.478-.019-.431,0-.864-.007-1.3,0-.141-.015-.281-.025-.43l-.452-.089c-.088-.223-.067-.376.209-.382s.576,0,.864,0,.312.145.22.387" transform="translate(-32.826 -19.447)" fill="#fff"/><path d="M39.747,70.169l-.69,2.127.7.3-.126.374-1.061-.345c.278-.837.539-1.627.805-2.416.063-.186.187-.2.376-.041" transform="translate(-13.681 -24.853)" fill="#fff"/><path d="M50,73.983l.761.039c.011.12.021.226.035.372H49.7c-.008-.135-.021-.273-.023-.411q-.018-.884-.03-1.767a1.1,1.1,0,0,1,.015-.343c.023-.073.12-.122.185-.182.048.06.123.114.137.182a1.647,1.647,0,0,1,.01.344v1.767" transform="translate(-17.611 -25.432)" fill="#fff"/><path d="M62.945,71.388c-.2.2-.315.162-.412-.051-.336-.73-.674-1.458-1.024-2.213l.3-.2,1.133,2.461" transform="translate(-21.82 -24.451)" fill="#fff"/><path d="M49.62,23.289a.473.473,0,0,1-.445.483.492.492,0,0,1-.408-.481.5.5,0,0,1,.434-.507.465.465,0,0,1,.419.5" transform="translate(-17.3 -8.083)" fill="#fff"/><path d="M45.6,40.914c.067-.072.139-.142.2-.218a.4.4,0,0,1,.6-.1c.251.154.528.265.847.421H45.622c-.006-.034-.013-.069-.018-.1" transform="translate(-16.178 -14.37)" fill="#fff"/><path d="M60.852,54.546a.78.78,0,0,0-1.029-.258l.463.706a.935.935,0,0,1-1.209-.5,1.5,1.5,0,0,1,.035-1.3,1,1,0,0,1,.989-.639,1.023,1.023,0,0,1,.921.679,1.238,1.238,0,0,1-.17,1.306" transform="translate(-20.911 -18.645)" fill="#fff"/><path d="M31.974,54.2a1.14,1.14,0,1,1,1.058,1.274.91.91,0,0,1-.8-.512,4.938,4.938,0,0,1-.261-.763" transform="translate(-11.342 -18.792)" fill="#fff"/><path d="M28.066,55.007a1.055,1.055,0,0,1-1.129,1.178.942.942,0,0,1-.656-.283,1.511,1.511,0,0,1-.31-1.526,1.038,1.038,0,0,1,1.816-.256,1.338,1.338,0,0,1,.279.887" transform="translate(-9.182 -19.047)" fill="#fff"/><path d="M21.173,57.187c-.145-.825-.281-1.6-.419-2.39a1.054,1.054,0,0,1,1.17.2,1.437,1.437,0,0,1,.331,1.449c-.146.493-.548.665-1.082.743" transform="translate(-7.362 -19.409)" fill="#fff"/><path d="M52.558,52.235c.28-.025.516,0,.657.246a.541.541,0,0,1-.032.61.521.521,0,0,1-.625.176Z" transform="translate(-18.644 -18.527)" fill="#fff"/><path d="M38.318,52.627c.518-.094.7,0,.755.35.065.43-.083.592-.664.676-.03-.334-.059-.667-.091-1.027" transform="translate(-13.593 -18.657)" fill="#fff"/><path d="M71.454,54.638c.074.365.148.73.236,1.163l-.834-.124.5-1.055.1.015" transform="translate(-25.136 -19.377)" fill="#fff"/><path d="M45.987,53.1c.136.37.271.741.425,1.158h-.779a3.192,3.192,0,0,1,.355-1.158" transform="translate(-16.188 -18.835)" fill="#fff"/></g></g></svg>