<svg xmlns="http://www.w3.org/2000/svg" xmlns:xlink="http://www.w3.org/1999/xlink" width="54.394" height="54.393" viewBox="0 0 54.394 54.393"><defs><clipPath id="a"><rect width="54.394" height="54.393" fill="#fff"/></clipPath></defs><g clip-path="url(#a)"><path d="M132.319,134.216a1.86,1.86,0,1,1,1.86,1.851,1.843,1.843,0,0,1-1.86-1.851m3.435,0a1.575,1.575,0,1,0-1.575,1.566,1.579,1.579,0,0,0,1.575-1.566m-.692,1h-.342l-.608-.935h-.341v.935h-.285v-2.026h.882c.366,0,.721.1.721.536,0,.4-.28.546-.64.555Zm-.95-1.219c.252,0,.693.047.693-.276,0-.208-.275-.247-.494-.247h-.54V134Z" transform="translate(-82.191 -82.22)" fill="#fff"/><path d="M27.2,0a27.2,27.2,0,1,0,27.2,27.2A27.2,27.2,0,0,0,27.2,0m2.744,46.894h-5.68v-.966l.991-.915c1.971-1.829,2.9-2.834,2.911-3.941a1.318,1.318,0,0,0-1.494-1.4,3.049,3.049,0,0,0-1.79.7l-.464-1.121a4.143,4.143,0,0,1,2.576-.863,2.483,2.483,0,0,1,2.756,2.537c0,1.468-1.056,2.653-2.511,4.005l-.734.631v.026h3.439ZM47.735,32.459v-13.1h-2.4v13.1H40.225a4.872,4.872,0,0,0,2.87-2.523l-2.026-.946a3.248,3.248,0,0,1-2.954,1.822A2.777,2.777,0,0,1,35.265,28h8.05c.05-3.544-1.621-6.008-5.08-6.008a5.414,5.414,0,0,0-5.417,5.519,5.024,5.024,0,0,0,3.345,4.953H28.4l4.114-10.27H30.067L27.35,29.4,24.515,22.19H22.051l4.165,10.27h-7.55a4.868,4.868,0,0,0,2.87-2.523l-2.025-.946a3.247,3.247,0,0,1-2.953,1.822A2.778,2.778,0,0,1,13.7,28h8.05c.051-3.544-1.62-6.008-5.08-6.008a5.414,5.414,0,0,0-5.417,5.519A5.024,5.024,0,0,0,14.6,32.459H9.193v-13.1H6.8v13.1H2.7a25.059,25.059,0,1,1,49,0ZM35.366,26.19a2.75,2.75,0,0,1,2.8-2.279,2.528,2.528,0,0,1,2.783,2.279Zm-21.559,0a2.749,2.749,0,0,1,2.8-2.279,2.528,2.528,0,0,1,2.784,2.279Z" fill="#fff"/></g></svg>