<svg xmlns="http://www.w3.org/2000/svg" xmlns:xlink="http://www.w3.org/1999/xlink" width="80.271" height="52.735" viewBox="0 0 80.271 52.735"><defs><clipPath id="a"><rect width="80.271" height="52.735" fill="none"/></clipPath></defs><g clip-path="url(#a)"><path d="M17.585,18.369h0c-2.092,0-3.859,2.651-3.859,5.788s1.767,5.788,3.859,5.788,3.859-2.651,3.859-5.788-1.767-5.787-3.859-5.787" fill="#fff"/><path d="M77.354,41.555A9.73,9.73,0,0,0,70.4,37.786l-.011,0c-.019,0-.034-.011-.053-.011l-3.92,0A30.4,30.4,0,0,0,69.5,24.155,29.268,29.268,0,0,0,64.455,7.2C61.138,2.566,56.7.011,51.949,0H17.578C12.819,0,8.37,2.559,5.048,7.2A29.271,29.271,0,0,0,0,24.157,29.271,29.271,0,0,0,5.048,41.114c3.321,4.639,7.769,7.195,12.524,7.2l.012,0H40.418a1,1,0,0,0,0-2.007H24.627a17.384,17.384,0,0,0,3.822-3.145c3.878-3.371,7.775-4.262,10.976-2.507,3.45,1.889,5.554,6.585,4.9,10.925a.919.919,0,0,0-.01.139l0,.011v.008a.976.976,0,0,0,.039.186.732.732,0,0,0,.243.5c0,.005.007.012.012.017a.989.989,0,0,0,.631.278.7.7,0,0,0,.077.016H79.167a.974.974,0,0,0,.365-.078c.012,0,.02-.013.032-.018a1.038,1.038,0,0,0,.276-.186c.02-.02.034-.045.053-.066a1.042,1.042,0,0,0,.156-.231.945.945,0,0,0,.039-.117.913.913,0,0,0,.053-.155,13.685,13.685,0,0,0-2.787-10.329M17.576,40.35h0c-3.752,0-7.2-2.325-9.461-6.378a1,1,0,1,1,1.753-.977c1.9,3.4,4.7,5.348,7.708,5.348,3.928,0,7.484-3.362,9.06-8.565a1,1,0,1,1,1.921.582c-1.838,6.068-6.148,9.99-10.98,9.99M5.949,20.788a18.014,18.014,0,0,1,3.992-9.062,10.207,10.207,0,0,1,7.63-3.763,9.88,9.88,0,0,1,7.012,3.1,1.006,1.006,0,1,1-1.418,1.427,7.925,7.925,0,0,0-5.6-2.519c-4.591,0-8.644,4.678-9.639,11.124a1,1,0,0,1-1.989-.145.884.884,0,0,1,.012-.162m17.5,3.364c0,4.3-2.631,7.8-5.866,7.8s-5.866-3.5-5.866-7.8,2.631-7.8,5.866-7.8,5.866,3.5,5.866,7.8m11.714,0A29.268,29.268,0,0,0,30.122,7.2a18.575,18.575,0,0,0-5.49-5.194H51.915c8.587,0,15.573,9.937,15.573,22.15a28.371,28.371,0,0,1-3.329,13.617l-28.453-.018a.949.949,0,0,0-.118.024,10.936,10.936,0,0,0-4.042.978,29.272,29.272,0,0,0,3.619-14.6M45.252,44.409a11.589,11.589,0,0,0-3.585-4.643l23.064.014a.32.32,0,0,0,.033.007h0c.019,0,.037-.006.057-.007l5.442,0,.008,0a7.715,7.715,0,0,1,5.517,3.027,11.608,11.608,0,0,1,2.439,7.915H46.412a13.638,13.638,0,0,0-1.16-6.319" fill="#fff"/></g></svg>