<svg xmlns="http://www.w3.org/2000/svg" xmlns:xlink="http://www.w3.org/1999/xlink" width="65.191" height="65.263" viewBox="0 0 65.191 65.263"><defs><clipPath id="a"><rect width="65.191" height="65.263" fill="#fff" stroke="rgba(0,0,0,0)" stroke-miterlimit="10" stroke-width="1"/></clipPath></defs><g transform="translate(0 0)" clip-path="url(#a)"><path d="M264.334,245.27A19.068,19.068,0,1,1,245.266,226.2a19.069,19.069,0,0,1,19.068,19.068" transform="translate(-212.635 -212.639)" fill="#fff" stroke="rgba(0,0,0,0)" stroke-miterlimit="10" stroke-width="1"/><path d="M464.517,8.674c-.791,0-1.079-.576-.72-1.223L467.755.544a.75.75,0,0,1,1.439,0l3.957,6.836c.36.72.072,1.223-.719,1.223h-7.915Z" transform="translate(-435.843 -0.004)" fill="#fff" stroke="rgba(0,0,0,0)" stroke-miterlimit="10" stroke-width="1"/><path d="M775.433,160.39c-.576-.576-.36-1.151.36-1.367l7.627-2.015c.791-.216,1.223.288,1.007,1.007l-2.087,7.627c-.216.791-.863.936-1.367.36Z" transform="translate(-728.626 -147.546)" fill="#fff" stroke="rgba(0,0,0,0)" stroke-miterlimit="10" stroke-width="1"/><path d="M943.8,464.521c0-.791.576-1.079,1.223-.72l6.836,3.957a.75.75,0,0,1,0,1.439l-6.836,3.958c-.72.36-1.223.072-1.223-.72Z" transform="translate(-887.205 -435.847)" fill="#fff" stroke="rgba(0,0,0,0)" stroke-miterlimit="10" stroke-width="1"/><path d="M780.723,775.437c.576-.576,1.151-.36,1.367.36l2.015,7.627c.216.791-.288,1.223-1.008,1.008l-7.627-2.087c-.792-.216-.936-.863-.36-1.367Z" transform="translate(-728.304 -728.63)" fill="#fff" stroke="rgba(0,0,0,0)" stroke-miterlimit="10" stroke-width="1"/><path d="M472.432,943.8c.791,0,1.079.576.719,1.223l-3.957,6.908a.75.75,0,0,1-1.439,0L463.8,945.1c-.36-.719-.072-1.223.72-1.223h7.915Z" transform="translate(-435.843 -887.209)" fill="#fff" stroke="rgba(0,0,0,0)" stroke-miterlimit="10" stroke-width="1"/><path d="M165.924,780.727c.576.576.36,1.151-.36,1.367l-7.627,2.015c-.791.216-1.223-.288-1.007-1.007l2.087-7.627c.216-.792.863-.936,1.367-.36Z" transform="translate(-147.468 -728.308)" fill="#fff" stroke="rgba(0,0,0,0)" stroke-miterlimit="10" stroke-width="1"/><path d="M8.67,472.436c0,.791-.576,1.079-1.223.72L.54,469.2a.75.75,0,0,1,0-1.439L7.375,463.8c.72-.36,1.223-.072,1.223.72v7.915Z" transform="translate(0 -435.847)" fill="#fff" stroke="rgba(0,0,0,0)" stroke-miterlimit="10" stroke-width="1"/><path d="M160.386,165.928c-.576.576-1.151.36-1.367-.36L157,157.941c-.216-.791.288-1.223,1.007-1.007l7.627,2.087c.791.216.936.863.36,1.367Z" transform="translate(-147.542 -147.472)" fill="#fff" stroke="rgba(0,0,0,0)" stroke-miterlimit="10" stroke-width="1"/></g></svg>