<svg xmlns="http://www.w3.org/2000/svg" xmlns:xlink="http://www.w3.org/1999/xlink" width="58.426" height="58.605" viewBox="0 0 58.426 58.605"><defs><clipPath id="a"><rect width="58.426" height="58.605" fill="#fff" stroke="rgba(0,0,0,0)" stroke-miterlimit="10" stroke-width="1"/></clipPath></defs><g clip-path="url(#a)"><path d="M58.426,44.37A8.347,8.347,0,0,1,50.084,52.7h-11.1v4.954a.945.945,0,0,1-1.614.668l-8.608-8.609a.945.945,0,0,1,0-1.337l8.615-8.611a.945.945,0,0,1,1.614.668v4.945h11.1a1.04,1.04,0,0,0,1.021-1.011.976.976,0,0,0-.151-.5L42.659,29.5A.945.945,0,0,1,43,28.206l4.7-2.71h0a.945.945,0,0,1,1.291.346L57.3,40.222h0a8.164,8.164,0,0,1,1.128,4.148Zm-33.5,1.239-16.6,0a.961.961,0,0,1-.5-.117,1.142,1.142,0,0,1-.451-.562.927.927,0,0,1,.085-.827l5.55-9.614,4.282,2.473a.945.945,0,0,0,1.386-1.063L15.522,24.132a.945.945,0,0,0-1.157-.668L2.6,26.615a.945.945,0,0,0-.228,1.732l4.29,2.477L1.116,40.437A8.347,8.347,0,0,0,4.161,51.828a8.151,8.151,0,0,0,4.13,1.1H24.924a.945.945,0,0,0,.945-.945V46.554a.945.945,0,0,0-.945-.945ZM29.208,7.337a.923.923,0,0,1,.674.487l5.551,9.613L31.15,19.909a.945.945,0,0,0,.229,1.732L43.14,24.792a.927.927,0,0,0,.246.033.946.946,0,0,0,.912-.7l3.151-11.761A.945.945,0,0,0,46.064,11.3l-4.29,2.478L36.223,4.163A8.235,8.235,0,0,0,31.024.24a8.437,8.437,0,0,0-6.189.865A8.161,8.161,0,0,0,21.81,4.156L13.505,18.54a.945.945,0,0,0,.347,1.291l4.7,2.711h0a.946.946,0,0,0,1.292-.347l8.3-14.368a.968.968,0,0,1,.354-.378,1.149,1.149,0,0,1,.713-.112Z" transform="translate(0 0.003)" fill="#fff" stroke="rgba(0,0,0,0)" stroke-miterlimit="10" stroke-width="1"/></g></svg>