<svg xmlns="http://www.w3.org/2000/svg" width="59.649" height="59.606" viewBox="0 0 59.649 59.606"><path d="M58.362,36.507,51.4,27.227h4.029a1.221,1.221,0,0,0,.949-1.99l-6.2-7.656h3.666a1.221,1.221,0,0,0,.95-1.987L45.638,4.24a1.221,1.221,0,0,0-.95-.455h0a1.221,1.221,0,0,0-.951.461L34.7,15.6a1.221,1.221,0,0,0,.955,1.981h3.666l-6.2,7.656a1.221,1.221,0,0,0,.949,1.99H38.3l-7.151,9.266a1.22,1.22,0,0,0-.172.306l-4.352-5.787h6.345a1.221,1.221,0,0,0,.951-1.987L24.9,17.826h6a1.221,1.221,0,0,0,.949-1.989L19.386.453a1.221,1.221,0,0,0-1.9,0L5.034,15.837a1.221,1.221,0,0,0,.949,1.989h6l-9.022,11.2a1.221,1.221,0,0,0,.951,1.987h6.558L.253,44.31a1.221,1.221,0,0,0,.968,1.965H14.408V57.385a1.221,1.221,0,0,0,1.221,1.221h5.616a1.221,1.221,0,0,0,1.221-1.221V46.275H35.652a1.221,1.221,0,0,0,.976-1.955L32.222,38.46h9.291v7.814A1.221,1.221,0,0,0,42.734,47.5h4.029a1.221,1.221,0,0,0,1.221-1.221V38.46h9.4a1.221,1.221,0,0,0,.977-1.954" transform="translate(0.521 0.5)" fill="#fff" stroke="rgba(0,0,0,0)" stroke-miterlimit="10" stroke-width="1"/></svg>