<svg width="69" height="86" viewBox="0 0 69 86" fill="none" xmlns="http://www.w3.org/2000/svg">
<path d="M68.1 64.4H69.1V63.4H68.1V64.4ZM68.1 86V87H69.1V86H68.1ZM3.3 86H2.3V87H3.3V86ZM3.3 64.4V63.4H2.3V64.4H3.3ZM24.6 64.4V65.4H25.6V64.4H24.6ZM24.6 26.15H25.6V23.15L23.8 25.55L24.6 26.15ZM20.4 29.75L19.866 28.9045V28.9045L20.4 29.75ZM13.95 33.2L13.5333 32.2909L13.5259 32.2943L13.5185 32.2979L13.95 33.2ZM6.9 35.9L7.14254 36.8701L7.16137 36.8654L7.18 36.86L6.9 35.9ZM0.300001 36.8H-0.699999V37.8H0.300001V36.8ZM0.300001 14.6V13.6H-0.699999V14.6H0.300001ZM6.6 13.1L6.97139 14.0285L6.98718 14.0222L7.00274 14.0153L6.6 13.1ZM14.1 9.05L13.5759 8.19834L13.5684 8.20297L13.5609 8.20773L14.1 9.05ZM20.85 4.25L20.2253 3.46913L20.2155 3.47699L20.2059 3.48508L20.85 4.25ZM24.6 0.349995V-0.650005H23.982L23.7056 -0.0972214L24.6 0.349995ZM49.05 0.349995H50.05V-0.650005H49.05V0.349995ZM49.05 64.4H48.05V65.4H49.05V64.4ZM67.1 64.4V86H69.1V64.4H67.1ZM68.1 85H3.3V87H68.1V85ZM4.3 86V64.4H2.3V86H4.3ZM3.3 65.4H24.6V63.4H3.3V65.4ZM25.6 64.4V26.15H23.6V64.4H25.6ZM23.8 25.55C22.9999 26.6169 21.7094 27.7403 19.866 28.9045L20.934 30.5955C22.8906 29.3597 24.4001 28.0831 25.4 26.75L23.8 25.55ZM19.866 28.9045C18.0095 30.077 15.8997 31.2064 13.5333 32.2909L14.3667 34.1091C16.8003 32.9936 18.9905 31.823 20.934 30.5955L19.866 28.9045ZM13.5185 32.2979C11.2664 33.375 8.96701 34.2555 6.62 34.94L7.18 36.86C9.63299 36.1445 12.0336 35.225 14.3815 34.1021L13.5185 32.2979ZM6.65746 34.9299C4.31889 35.5145 2.20165 35.8 0.300001 35.8V37.8C2.39835 37.8 4.68111 37.4855 7.14254 36.8701L6.65746 34.9299ZM1.3 36.8V14.6H-0.699999V36.8H1.3ZM0.300001 15.6C2.17959 15.6 4.41427 15.0513 6.97139 14.0285L6.22861 12.1715C3.78573 13.1487 1.82041 13.6 0.300001 13.6V15.6ZM7.00274 14.0153C9.55386 12.8928 12.0993 11.5177 14.6391 9.89227L13.5609 8.20773C11.1007 9.78227 8.64614 11.1072 6.19726 12.1847L7.00274 14.0153ZM14.6241 9.90166C17.2571 8.28136 19.5489 6.65298 21.4941 5.01491L20.2059 3.48508C18.3511 5.04701 16.1429 6.61863 13.5759 8.19834L14.6241 9.90166ZM21.4747 5.03086C23.4783 3.428 24.8876 2.01092 25.4944 0.797207L23.7056 -0.0972214C23.3124 0.689068 22.2217 1.87199 20.2253 3.46913L21.4747 5.03086ZM24.6 1.34999H49.05V-0.650005H24.6V1.34999ZM48.05 0.349995V64.4H50.05V0.349995H48.05ZM49.05 65.4H68.1V63.4H49.05V65.4Z" fill="url(#paint0_linear_743_425)"/>
<defs>
<linearGradient id="paint0_linear_743_425" x1="33" y1="9.54762" x2="33" y2="132.797" gradientUnits="userSpaceOnUse">
<stop stop-color="#DDDDDD"/>
<stop offset="1" stop-color="#DDDDDD" stop-opacity="0"/>
</linearGradient>
</defs>
</svg>
