<svg width="76" height="88" viewBox="0 0 76 88" fill="none" xmlns="http://www.w3.org/2000/svg">
<path d="M0.25 88H-0.75V89H0.25V88ZM1.3 75.4L0.322586 75.1887L0.319843 75.2014L0.31743 75.2141L1.3 75.4ZM5.05 65.35L4.18516 64.8478L4.17998 64.857L5.05 65.35ZM12.1 56.8L12.7675 57.5446L12.769 57.5433L12.1 56.8ZM23.35 49.15L22.8804 48.2671L22.8794 48.2676L23.35 49.15ZM35.05 42.85L35.5309 43.7269L35.5403 43.7216L35.05 42.85ZM42.7 38.35L42.166 37.5045L42.7 38.35ZM46.6 34.9L45.768 34.3453L45.7621 34.3541L45.7563 34.3631L46.6 34.9ZM42.55 22.9L42.1242 23.8048L42.1465 23.8153L42.1693 23.8247L42.55 22.9ZM30.55 22.45L30.8176 23.4135L30.55 22.45ZM25.3 24.7L24.793 23.8381L24.7814 23.8449L24.77 23.852L25.3 24.7ZM20.65 28.3L21.3049 29.0557L21.3189 29.0436L21.3323 29.0311L20.65 28.3ZM16.15 32.8L15.3903 33.4503L16.1385 34.3244L16.8998 33.4616L16.15 32.8ZM1 15.1L0.292894 14.3929L-0.361451 15.0472L0.24029 15.7503L1 15.1ZM7.45 9.99999L6.91719 9.15376L6.90993 9.15833L6.90275 9.16302L7.45 9.99999ZM16.6 5.5L16.9571 6.43405L16.969 6.42951L16.9808 6.42467L16.6 5.5ZM27.7 2.2L27.8961 3.18058L27.9053 3.17875L27.9144 3.17674L27.7 2.2ZM58.6 4.15L58.1904 5.06227L58.2015 5.06726L58.2128 5.07198L58.6 4.15ZM70 13.15L69.1679 13.7047H69.168L70 13.15ZM72.25 35.95L71.329 35.5604L71.3252 35.5695L71.3215 35.5786L72.25 35.95ZM68.2 42.7L68.9619 43.3476L68.2 42.7ZM62.35 48.1L61.7618 47.2913L61.7528 47.2978L61.744 47.3046L62.35 48.1ZM56.05 52.45L56.4972 53.3444L56.5378 53.3241L56.5764 53.3003L56.05 52.45ZM49.3 56.05L49.764 56.9358L49.7802 56.9273L49.7961 56.9182L49.3 56.05ZM43.45 59.35L43.9356 60.2242L43.9538 60.2141L43.9715 60.2033L43.45 59.35ZM38.35 62.65L38.9414 63.4565L38.95 63.45L38.35 62.65ZM34 66.4L33.2929 65.6929L31.5858 67.4H34V66.4ZM75.55 66.4H76.55V65.4H75.55V66.4ZM75.55 88V89H76.55V88H75.55ZM1.25 88C1.25 83.3477 1.5966 79.2117 2.28257 75.5859L0.31743 75.2141C-0.396598 78.9883 -0.75 83.2523 -0.75 88H1.25ZM2.27741 75.6113C3.05813 72.0005 4.27446 68.7469 5.92002 65.843L4.17998 64.857C2.42554 67.9531 1.14187 71.3995 0.322586 75.1887L2.27741 75.6113ZM5.91479 65.8521C7.6578 62.8503 9.93886 60.0806 12.7675 57.5446L11.4325 56.0554C8.46114 58.7194 6.0422 61.6497 4.18521 64.8479L5.91479 65.8521ZM12.769 57.5433C15.6954 54.9095 19.3743 52.4037 23.8206 50.0324L22.8794 48.2676C18.3257 50.6963 14.5046 53.2905 11.431 56.0567L12.769 57.5433ZM23.8196 50.0329C28.5217 47.5318 32.4258 45.4296 35.5308 43.7268L34.5692 41.9732C31.4743 43.6704 27.5783 45.7682 22.8804 48.2671L23.8196 50.0329ZM35.5403 43.7216C38.7471 41.9177 41.3136 40.4084 43.234 39.1955L42.166 37.5045C40.2864 38.6916 37.7529 40.1823 34.5597 41.9784L35.5403 43.7216ZM43.234 39.1955C45.181 37.9658 46.6267 36.7207 47.4437 35.4369L45.7563 34.3631C45.1733 35.2793 44.019 36.3342 42.166 37.5045L43.234 39.1955ZM47.4321 35.4547C48.3381 34.0957 48.8 32.6036 48.8 31H46.8C46.8 32.1964 46.4619 33.3043 45.768 34.3453L47.4321 35.4547ZM48.8 31C48.8 28.9361 48.309 27.0925 47.2912 25.5092L45.6088 26.5908C46.391 27.8075 46.8 29.2639 46.8 31H48.8ZM47.2912 25.5092C46.2691 23.9193 44.7992 22.7447 42.9307 21.9753L42.1693 23.8247C43.7008 24.4553 44.8309 25.3807 45.6088 26.5908L47.2912 25.5092ZM42.9758 21.9952C41.1062 21.1154 38.8508 20.7 36.25 20.7V22.7C38.6492 22.7 40.5938 23.0846 42.1242 23.8048L42.9758 21.9952ZM36.25 20.7C34.1659 20.7 32.1754 20.9606 30.2824 21.4865L30.8176 23.4135C32.5246 22.9394 34.3341 22.7 36.25 22.7V20.7ZM30.2824 21.4865C28.3939 22.011 26.5638 22.7964 24.793 23.8381L25.807 25.5619C27.4362 24.6036 29.1061 23.889 30.8176 23.4135L30.2824 21.4865ZM24.77 23.852C23.1111 24.8888 21.5105 26.1289 19.9677 27.5689L21.3323 29.0311C22.7895 27.6711 24.2889 26.5112 25.83 25.548L24.77 23.852ZM19.9951 27.5443C18.457 28.8773 16.9256 30.4095 15.4002 32.1384L16.8998 33.4616C18.3744 31.7905 19.843 30.3227 21.3049 29.0557L19.9951 27.5443ZM16.9097 32.1497L1.75971 14.4497L0.24029 15.7503L15.3903 33.4503L16.9097 32.1497ZM1.70711 15.8071C3.34673 14.1675 5.43912 12.5096 7.99725 10.837L6.90275 9.16302C4.26088 10.8904 2.05328 12.6325 0.292894 14.3929L1.70711 15.8071ZM7.98281 10.8462C10.6202 9.18568 13.61 7.71382 16.9571 6.43405L16.2429 4.56594C12.79 5.88618 9.67984 7.41431 6.91719 9.15376L7.98281 10.8462ZM16.9808 6.42467C20.3151 5.05172 23.9525 3.96929 27.8961 3.18058L27.5039 1.21941C23.4475 2.0307 19.6849 3.14828 16.2193 4.57532L16.9808 6.42467ZM27.9144 3.17674C31.9407 2.29292 36.1186 1.84999 40.45 1.84999V-0.150005C35.9814 -0.150005 31.6593 0.307068 27.4856 1.22325L27.9144 3.17674ZM40.45 1.84999C47.5544 1.84999 53.4551 2.93623 58.1904 5.06227L59.0096 3.23773C53.9449 0.963768 47.7456 -0.150005 40.45 -0.150005V1.84999ZM58.2128 5.07198C63.0608 7.10815 66.6932 9.99263 69.1679 13.7047L70.8321 12.5953C68.1068 8.50736 64.1392 5.39184 58.9872 3.22802L58.2128 5.07198ZM69.168 13.7047C71.6445 17.4196 72.9 21.8208 72.9 26.95H74.9C74.9 21.4792 73.5555 16.6804 70.832 12.5953L69.168 13.7047ZM72.9 26.95C72.9 30.2429 72.3674 33.1061 71.329 35.5604L73.171 36.3396C74.3326 33.5939 74.9 30.4571 74.9 26.95H72.9ZM71.3215 35.5786C70.3607 37.9807 69.0662 40.1369 67.4381 42.0524L68.9619 43.3476C70.7338 41.263 72.1393 38.9193 73.1785 36.3214L71.3215 35.5786ZM67.4381 42.0523C65.7912 43.9898 63.9001 45.7362 61.7618 47.2913L62.9382 48.9087C65.1999 47.2638 67.2088 45.4102 68.9619 43.3476L67.4381 42.0523ZM61.744 47.3046C59.6679 48.8863 57.5944 50.3178 55.5236 51.5997L56.5764 53.3003C58.7056 51.9822 60.8321 50.5137 62.956 48.8954L61.744 47.3046ZM55.6028 51.5556C53.188 52.763 50.9216 53.9716 48.8039 55.1818L49.7961 56.9182C51.8785 55.7283 54.112 54.537 56.4972 53.3444L55.6028 51.5556ZM48.836 55.1642C46.7188 56.2732 44.7495 57.3839 42.9286 58.4967L43.9715 60.2033C45.7505 59.1161 47.6812 58.0268 49.764 56.9358L48.836 55.1642ZM42.9644 58.4758C41.1258 59.4973 39.3874 60.6219 37.75 61.85L38.95 63.45C40.5126 62.2781 42.1742 61.2027 43.9356 60.2242L42.9644 58.4758ZM37.7586 61.8436C36.2151 62.9756 34.7266 64.2592 33.2929 65.6929L34.7071 67.1071C36.0734 65.7408 37.485 64.5244 38.9414 63.4564L37.7586 61.8436ZM34 67.4H75.55V65.4H34V67.4ZM74.55 66.4V88H76.55V66.4H74.55ZM75.55 87H0.25V89H75.55V87Z" fill="url(#paint0_linear_743_426)"/>
<defs>
<linearGradient id="paint0_linear_743_426" x1="39" y1="11.5476" x2="39" y2="134.797" gradientUnits="userSpaceOnUse">
<stop stop-color="#DDDDDD"/>
<stop offset="1" stop-color="#DDDDDD" stop-opacity="0"/>
</linearGradient>
</defs>
</svg>
