<svg width="77" height="110" viewBox="0 0 77 110" fill="none" xmlns="http://www.w3.org/2000/svg">
<path d="M55.95 51.45L55.7688 50.4665L55.7856 52.4364L55.95 51.45ZM66.9 56.4L66.2574 57.1662L66.2707 57.1773L66.2844 57.188L66.9 56.4ZM74.25 65.85L73.3372 66.2584L73.3438 66.273L73.3508 66.2875L74.25 65.85ZM72 94.65L71.1875 94.0671L72 94.65ZM57.9 105.3L58.2792 106.225L57.9 105.3ZM15.9 105.6L16.258 104.666L16.2494 104.663L15.9 105.6ZM0.6 95.7L-0.198316 95.0978L-0.716066 95.7841L-0.115187 96.3989L0.6 95.7ZM13.5 78.6L14.2071 77.8929L13.3941 77.0799L12.7017 77.9978L13.5 78.6ZM22.8 84.9L22.4061 85.8191L22.8 84.9ZM47.85 84.15L48.4312 84.9637L48.4407 84.957L48.45 84.95L47.85 84.15ZM46.95 64.5L46.3782 65.3205L46.3897 65.3283L46.95 64.5ZM26.7 61.05H25.7V62.05H26.7V61.05ZM26.7 43.8V42.8H25.7V43.8H26.7ZM44.7 40.35L45.2836 41.162L45.2919 41.1561L45.3 41.15L44.7 40.35ZM47.85 25.65L47.018 26.2047L47.0304 26.2233L47.0436 26.2414L47.85 25.65ZM43.5 22.35L43.0939 23.2638L43.1237 23.2771L43.1543 23.2883L43.5 22.35ZM25.8 24L25.3122 23.1271L25.8 24ZM17.25 32.4L16.4958 33.0567L17.3847 34.0775L18.0993 32.9279L17.25 32.4ZM2.1 15L1.30331 14.3956L0.811871 15.0434L1.34581 15.6567L2.1 15ZM11.1 7.5L11.5837 8.37527L11.5913 8.37098L11.1 7.5ZM24.3 2.4L24.5379 3.3713L24.3 2.4ZM58.2 3.9L57.8166 4.82361L57.8227 4.82609L58.2 3.9ZM70.65 13.2L69.8404 13.787L69.8487 13.7985L69.8574 13.8097L70.65 13.2ZM72.75 38.25L73.6549 38.6758L73.6595 38.6658L72.75 38.25ZM66 46.95L66.6214 47.7335L66.6295 47.727L66.6376 47.7204L66 46.95ZM55.7856 52.4364C59.819 53.1086 63.3015 54.6871 66.2574 57.1662L67.5426 55.6338C64.2985 52.9129 60.481 51.1914 56.1144 50.4636L55.7856 52.4364ZM66.2844 57.188C69.3525 59.585 71.7021 62.6034 73.3372 66.2584L75.1628 65.4416C73.398 61.4966 70.8475 58.215 67.5156 55.612L66.2844 57.188ZM73.3508 66.2875C75.0756 69.833 75.95 73.88 75.95 78.45H77.95C77.95 73.62 77.0244 69.267 75.1492 65.4125L73.3508 66.2875ZM75.95 78.45C75.95 84.4618 74.3539 89.6533 71.1875 94.0671L72.8125 95.2329C76.2461 90.4467 77.95 84.8382 77.95 78.45H75.95ZM71.1875 94.0671C68.0139 98.4909 63.4761 101.934 57.5208 104.375L58.2792 106.225C64.5239 103.666 69.3861 100.009 72.8125 95.2329L71.1875 94.0671ZM57.5208 104.375C51.5679 106.814 44.5024 108.05 36.3 108.05V110.05C44.6976 110.05 52.0321 108.786 58.2792 106.225L57.5208 104.375ZM36.3 108.05C28.8005 108.05 22.1249 106.915 16.2579 104.666L15.5421 106.534C21.6751 108.885 28.5995 110.05 36.3 110.05V108.05ZM16.2494 104.663C10.484 102.513 5.5098 99.2932 1.31519 95.0011L-0.115187 96.3989C4.2902 100.907 9.51599 104.287 15.5506 106.537L16.2494 104.663ZM1.39832 96.3022L14.2983 79.2022L12.7017 77.9978L-0.198316 95.0978L1.39832 96.3022ZM12.7929 79.3071C15.5826 82.0968 18.7888 84.2689 22.4061 85.8191L23.1939 83.9809C19.8112 82.5311 16.8174 80.5032 14.2071 77.8929L12.7929 79.3071ZM22.4061 85.8191C26.0561 87.3834 30.2954 88.15 35.1 88.15L35.1 86.15C30.5046 86.15 26.5439 85.4166 23.1939 83.9809L22.4061 85.8191ZM35.1 88.15C40.8842 88.15 45.3828 87.1412 48.4312 84.9637L47.2688 83.3363C44.7172 85.1588 40.7158 86.15 35.1 86.15L35.1 88.15ZM48.45 84.95C51.5535 82.6224 53.05 79.144 53.05 74.7H51.05C51.05 78.656 49.7465 81.4776 47.25 83.35L48.45 84.95ZM53.05 74.7C53.05 69.9057 51.215 66.1779 47.5103 63.6717L46.3897 65.3283C49.485 67.4221 51.05 70.4943 51.05 74.7H53.05ZM47.5218 63.6796C43.9668 61.2019 38.4632 60.05 31.2 60.05V62.05C38.3368 62.05 43.3332 63.1981 46.3782 65.3204L47.5218 63.6796ZM31.2 60.05H26.7V62.05H31.2V60.05ZM27.7 61.05V43.8H25.7V61.05H27.7ZM26.7 44.8H31.65V42.8H26.7V44.8ZM31.65 44.8C37.2789 44.8 41.8581 43.6241 45.2836 41.162L44.1164 39.538C41.1419 41.6759 37.0211 42.8 31.65 42.8V44.8ZM45.3 41.15C48.7281 38.5789 50.5 35.2432 50.5 31.2H48.5C48.5 34.5568 47.0719 37.3211 44.1 39.55L45.3 41.15ZM50.5 31.2C50.5 28.8273 49.904 26.7598 48.6564 25.0586L47.0436 26.2414C47.996 27.5401 48.5 29.1726 48.5 31.2H50.5ZM48.6821 25.0953C47.5504 23.3978 45.9188 22.1754 43.8457 21.4117L43.1543 23.2883C44.8812 23.9246 46.1496 24.9022 47.018 26.2047L48.6821 25.0953ZM43.9061 21.4362C41.9444 20.5643 39.5973 20.15 36.9 20.15V22.15C39.4027 22.15 41.4557 22.5357 43.0939 23.2638L43.9061 21.4362ZM36.9 20.15C32.734 20.15 28.8654 21.1414 25.3122 23.1271L26.2878 24.8729C29.5346 23.0586 33.066 22.15 36.9 22.15V20.15ZM25.3122 23.1271C21.7476 25.119 18.7793 28.0457 16.4007 31.8721L18.0993 32.9279C20.3207 29.3543 23.0524 26.681 26.2878 24.8729L25.3122 23.1271ZM18.0042 31.7433L2.85419 14.3433L1.34581 15.6567L16.4958 33.0567L18.0042 31.7433ZM2.89669 15.6044C4.99775 12.8348 7.88262 10.4206 11.5837 8.37524L10.6163 6.62476C6.71738 8.77943 3.60225 11.3652 1.30331 14.3956L2.89669 15.6044ZM11.5913 8.37098C15.4025 6.22108 19.7155 4.55228 24.5379 3.3713L24.0621 1.4287C19.0845 2.64771 14.5975 4.37891 10.6087 6.62902L11.5913 8.37098ZM24.5379 3.3713C29.3562 2.1913 34.3761 1.59999 39.6 1.59999V-0.400005C34.2239 -0.400005 29.0438 0.208694 24.0621 1.4287L24.5379 3.3713ZM39.6 1.59999C46.5987 1.59999 52.6633 2.68446 57.8166 4.82359L58.5834 2.97641C53.1367 0.71553 46.8013 -0.400005 39.6 -0.400005V1.59999ZM57.8227 4.82609C63.0813 6.96849 67.0684 9.96357 69.8404 13.787L71.4596 12.613C68.4316 8.43643 64.1187 5.2315 58.5773 2.9739L57.8227 4.82609ZM69.8574 13.8097C72.7097 17.5177 74.15 21.9478 74.15 27.15H76.15C76.15 21.5522 74.5904 16.6823 71.4426 12.5903L69.8574 13.8097ZM74.15 27.15C74.15 30.9085 73.3801 34.4665 71.8405 37.8342L73.6595 38.6658C75.3199 35.0335 76.15 31.1915 76.15 27.15H74.15ZM71.8452 37.8242C70.3079 41.0908 68.1493 43.8732 65.3624 46.1796L66.6376 47.7204C69.6507 45.2268 71.9921 42.2092 73.6548 38.6758L71.8452 37.8242ZM65.3786 46.1665C62.6125 48.3603 59.4153 49.7948 55.7688 50.4665L56.1312 52.4334C60.0847 51.7052 63.5875 50.1397 66.6214 47.7335L65.3786 46.1665Z" fill="url(#paint0_linear_743_427)"/>
<defs>
<linearGradient id="paint0_linear_743_427" x1="40" y1="10.5476" x2="40" y2="133.797" gradientUnits="userSpaceOnUse">
<stop stop-color="#DDDDDD"/>
<stop offset="1" stop-color="#DDDDDD" stop-opacity="0"/>
</linearGradient>
</defs>
</svg>
