<svg width="32" height="32" viewBox="0 0 32 32" fill="none" xmlns="http://www.w3.org/2000/svg">
<g clip-path="url(#clip0_1303_1666)">
<path d="M16 32C24.8366 32 32 24.8366 32 16C32 7.16344 24.8366 0 16 0C7.16344 0 0 7.16344 0 16C0 24.8366 7.16344 32 16 32Z" fill="#F7F7F9"/>
<path d="M0 16.0001C0 7.1635 7.1635 0 16 0C24.8365 0 32 7.1635 32 16.0001" fill="#D80027"/>
<path d="M9.73934 8.34802C9.73934 6.01689 11.3777 4.06952 13.5654 3.5917C13.2291 3.51833 12.8803 3.47852 12.5219 3.47852C9.83247 3.47852 7.65234 5.65864 7.65234 8.34808C7.65234 11.0375 9.83247 13.2176 12.5219 13.2176C12.8802 13.2176 13.2291 13.1778 13.5654 13.1044C11.3777 12.6266 9.73934 10.6792 9.73934 8.34802Z" fill="#F0F0F0"/>
<path d="M16.0019 3.82617L16.3473 4.88899H17.4649L16.5607 5.54593L16.9061 6.60874L16.0019 5.95193L15.0978 6.60874L15.4432 5.54593L14.5391 4.88899H15.6566L16.0019 3.82617Z" fill="#F0F0F0"/>
<path d="M13.2911 5.91406L13.6364 6.97694H14.754L13.8499 7.63381L14.1952 8.69662L13.2911 8.03981L12.3869 8.69662L12.7323 7.63381L11.8281 6.97694H12.9457L13.2911 5.91406Z" fill="#F0F0F0"/>
<path d="M18.7129 5.91406L19.0583 6.97694H20.1758L19.2716 7.63381L19.6171 8.69662L18.7129 8.03981L17.8088 8.69662L18.1541 7.63381L17.25 6.97694H18.3675L18.7129 5.91406Z" fill="#F0F0F0"/>
<path d="M17.666 9.04297L18.0114 10.1058H19.1289L18.2248 10.7627L18.5701 11.8255L17.666 11.1687L16.7619 11.8255L17.1073 10.7627L16.2031 10.1058H17.3206L17.666 9.04297Z" fill="#F0F0F0"/>
<path d="M14.334 9.04297L14.6793 10.1058H15.797L14.8928 10.7627L15.2382 11.8255L14.334 11.1687L13.4298 11.8255L13.7752 10.7627L12.8711 10.1058H13.9887L14.334 9.04297Z" fill="#F0F0F0"/>
</g>
<defs>
<clipPath id="clip0_1303_1666">
<rect width="32" height="32" fill="white"/>
</clipPath>
</defs>
</svg>
