<svg width="32" height="32" viewBox="0 0 32 32" fill="none" xmlns="http://www.w3.org/2000/svg">
<g clip-path="url(#clip0_1303_1667)">
<path d="M16 32C24.8366 32 32 24.8366 32 16C32 7.16344 24.8366 0 16 0C7.16344 0 0 7.16344 0 16C0 24.8366 7.16344 32 16 32Z" fill="#D80027"/>
<path d="M8.75625 9.73828L10.1375 13.9883H14.6062L10.9937 16.6195L12.375 20.8695L8.75625 18.2445L5.1375 20.8695L6.525 16.6195L2.90625 13.9883H7.375L8.75625 9.73828Z" fill="#FFDA44"/>
<path d="M18.968 24.7816L17.9117 23.4816L16.3492 24.0879L17.2555 22.6816L16.1992 21.3754L17.818 21.8066L18.7305 20.4004L18.818 22.0754L20.4429 22.5066L18.8742 23.1066L18.968 24.7816Z" fill="#FFDA44"/>
<path d="M21.068 20.9691L21.568 19.3691L20.1992 18.4004L21.8742 18.3754L22.368 16.7754L22.9117 18.3629L24.5867 18.3441L23.243 19.3441L23.7805 20.9316L22.4117 19.9629L21.068 20.9691Z" fill="#FFDA44"/>
<path d="M23.9008 11.7449L23.1633 13.2512L24.3633 14.4199L22.707 14.1824L21.9695 15.6824L21.682 14.0324L20.0195 13.7949L21.507 13.0137L21.2195 11.3574L22.4195 12.5262L23.9008 11.7449Z" fill="#FFDA44"/>
<path d="M19.0109 7.18164L18.8859 8.85039L20.4422 9.48164L18.8109 9.88164L18.6922 11.5566L17.8109 10.1316L16.1797 10.5316L17.2609 9.25039L16.3734 7.83164L17.9297 8.46289L19.0109 7.18164Z" fill="#FFDA44"/>
</g>
<defs>
<clipPath id="clip0_1303_1667">
<rect width="32" height="32" fill="white"/>
</clipPath>
</defs>
</svg>
