<svg width="18" height="18" viewBox="0 0 18 18" fill="none" xmlns="http://www.w3.org/2000/svg">
<g clip-path="url(#clip0_1186_9608)">
<path fill-rule="evenodd" clip-rule="evenodd" d="M3.75 6.75C3.75 3.8475 6.0975 1.5 9 1.5C11.9025 1.5 14.25 3.8475 14.25 6.75C14.25 10.6875 9 16.5 9 16.5C9 16.5 3.75 10.6875 3.75 6.75ZM9 3C6.93 3 5.25 4.68 5.25 6.75C5.25 8.8875 7.44 12.1575 9 14.16C10.59 12.1425 12.75 8.91 12.75 6.75C12.75 4.68 11.07 3 9 3ZM10.875 6.75C10.875 7.78553 10.0355 8.625 9 8.625C7.96447 8.625 7.125 7.78553 7.125 6.75C7.125 5.71447 7.96447 4.875 9 4.875C10.0355 4.875 10.875 5.71447 10.875 6.75Z" fill="#2E343D"/>
</g>
<defs>
<clipPath id="clip0_1186_9608">
<rect width="18" height="18" fill="white"/>
</clipPath>
</defs>
</svg>
