<svg width="18" height="19" viewBox="0 0 18 19" fill="none" xmlns="http://www.w3.org/2000/svg">
<g clip-path="url(#clip0_1186_9611)">
<path d="M4.905 4.25C4.95 4.9175 5.0625 5.57 5.2425 6.1925L4.3425 7.0925C4.035 6.1925 3.84 5.24 3.7725 4.25H4.905ZM12.3 13.265C12.9375 13.445 13.59 13.5575 14.25 13.6025V14.72C13.26 14.6525 12.3075 14.4575 11.4 14.1575L12.3 13.265ZM5.625 2.75H3C2.5875 2.75 2.25 3.0875 2.25 3.5C2.25 10.5425 7.9575 16.25 15 16.25C15.4125 16.25 15.75 15.9125 15.75 15.5V12.8825C15.75 12.47 15.4125 12.1325 15 12.1325C14.07 12.1325 13.1625 11.9825 12.3225 11.705C12.2475 11.675 12.165 11.6675 12.09 11.6675C11.895 11.6675 11.7075 11.7425 11.5575 11.885L9.9075 13.535C7.785 12.4475 6.045 10.715 4.965 8.5925L6.615 6.9425C6.825 6.7325 6.885 6.44 6.8025 6.1775C6.525 5.3375 6.375 4.4375 6.375 3.5C6.375 3.0875 6.0375 2.75 5.625 2.75Z" fill="#2E343D"/>
</g>
<defs>
<clipPath id="clip0_1186_9611">
<rect width="18" height="18" fill="white" transform="translate(0 0.5)"/>
</clipPath>
</defs>
</svg>
