<?xml version="1.0" encoding="utf-8"?>
<!-- Generator: Adobe Illustrator 27.5.0, SVG Export Plug-In . SVG Version: 6.00 Build 0)  -->
<svg version="1.1" id="Layer_1" xmlns="http://www.w3.org/2000/svg" xmlns:xlink="http://www.w3.org/1999/xlink" x="0px" y="0px"
	 viewBox="0 0 193.8 193.8" style="enable-background:new 0 0 193.8 193.8;" xml:space="preserve">
<style type="text/css">
	.st0{opacity:0.6;enable-background:new    ;}
</style>
<g class="st0">
	<path d="M180.7,145.3c-8.7,14.8-20.5,26.6-35.4,35.4c-14.8,8.7-31,13.1-48.4,13.1c-17.5,0-33.6-4.4-48.4-13.1
		c-14.8-8.7-26.6-20.5-35.4-35.4C4.4,130.5,0,114.3,0,96.9c0-17.4,4.4-33.6,13.1-48.4c8.7-14.8,20.5-26.6,35.4-35.4
		C63.3,4.4,79.4,0,96.9,0c17.4,0,33.6,4.4,48.4,13.1c14.8,8.7,26.6,20.5,35.4,35.4c8.7,14.8,13.1,31,13.1,48.4
		C193.8,114.3,189.4,130.5,180.7,145.3z M29.3,135.9c7,12,16.5,21.5,28.5,28.5c12,7,25,10.5,39.1,10.5s27.1-3.5,39.1-10.5
		c12-7,21.5-16.5,28.5-28.5c7-12,10.5-25,10.5-39.1s-3.5-27.1-10.5-39.1c-7-12-16.5-21.5-28.5-28.5c-12-7-25-10.5-39.1-10.5
		s-27.1,3.5-39.1,10.5c-12,7-21.5,16.5-28.5,28.5c-7,12-10.5,25-10.5,39.1S22.3,124,29.3,135.9z M146.9,98c0,3.7-1.6,6.4-4.7,8.2
		l-68.8,39.5c-3.1,1.8-6.2,1.8-9.4,0c-3.1-1.8-4.7-4.6-4.7-8.2V56.2c0-3.6,1.6-6.4,4.7-8.2c3.1-1.8,6.2-1.8,9.4,0l68.8,41.8
		C145.3,91.7,146.9,94.4,146.9,98z"/>
</g>
</svg>
