<svg xmlns="http://www.w3.org/2000/svg" width="156.219" height="113.218" viewBox="0 0 156.219 113.218"><g transform="translate(-1039.598 -118.731)"><g transform="translate(1040.098 119.231)"><path d="M1070.468,231.012l-5.829-20.451h-18.818c-3.156,0-5.723-3.2-5.723-7.133V126.365c0-3.934,2.567-7.134,5.723-7.134h143.773c3.156,0,5.724,3.2,5.724,7.134v77.063c0,3.933-2.568,7.133-5.724,7.133h-97.85Zm-24.647-110.127c-2.424,0-4.4,2.458-4.4,5.479v77.063c0,3.021,1.972,5.479,4.4,5.479h19.755l5.531,19.4,20.184-19.4h98.3c2.423,0,4.4-2.458,4.4-5.479V126.365c0-3.021-1.972-5.479-4.4-5.479Z" transform="translate(-1040.098 -119.231)"/><path d="M1070.215,231.949l-5.953-20.888h-18.44c-3.431,0-6.223-3.424-6.223-7.633V126.365c0-4.209,2.792-7.634,6.223-7.634h143.773c3.432,0,6.224,3.425,6.224,7.634v77.063c0,4.209-2.792,7.633-6.224,7.633h-97.649Zm-24.394-112.218c-2.88,0-5.223,2.976-5.223,6.634v77.063c0,3.658,2.343,6.633,5.223,6.633h19.2l.1.363,5.6,19.652,20.822-20.015h98.052c2.88,0,5.224-2.976,5.224-6.633V126.365c0-3.658-2.343-6.634-5.224-6.634Zm25.032,109.515-5.655-19.839h-19.377c-2.7,0-4.9-2.682-4.9-5.979V126.365c0-3.3,2.2-5.979,4.9-5.979h143.773c2.7,0,4.9,2.682,4.9,5.979v77.063c0,3.3-2.2,5.979-4.9,5.979h-98.1Zm-25.032-107.86c-2.148,0-3.9,2.234-3.9,4.979v77.063c0,2.745,1.747,4.979,3.9,4.979h20.132l.1.363,5.3,18.6,19.73-18.966h98.5c2.148,0,3.9-2.233,3.9-4.979V126.365c0-2.745-1.748-4.979-3.9-4.979Z" transform="translate(-1040.098 -119.231)"/><g transform="translate(13.62 15.101)"><g transform="translate(0 0.75)"><path d="M1084.327,170.318a.224.224,0,0,1-.342.254l-6.194-4.321-6.1,4.458a.224.224,0,0,1-.347-.246l2.2-7.227-6.124-4.419a.225.225,0,0,1,.127-.407l7.551-.145,2.311-7.19a.224.224,0,0,1,.426-.005l2.472,7.137,7.552-.024a.224.224,0,0,1,.136.4l-6.023,4.556Z" transform="translate(-1067.325 -150.919)"/><path d="M1071.562,171.253a.725.725,0,0,1-.693-.935l2.092-6.885-5.834-4.21a.725.725,0,0,1,.409-1.312l7.195-.138,2.2-6.85a.723.723,0,0,1,.682-.5h.008a.725.725,0,0,1,.685.488l2.355,6.8,7.2-.023a.724.724,0,0,1,.438,1.3l-5.737,4.34,2.245,6.836a.725.725,0,0,1-1.1.821l-5.9-4.118-5.808,4.248A.721.721,0,0,1,1071.562,171.253Zm-3.182-12.358,5.745,4.146-2.059,6.778,5.718-4.182,5.81,4.053-2.21-6.731,5.649-4.273-7.083.023-2.318-6.694-2.168,6.744Z" transform="translate(-1067.325 -150.919)"/></g><g transform="translate(24.026 0.75)"><path d="M1135.427,170.318a.224.224,0,0,1-.342.254l-6.194-4.321-6.1,4.458a.224.224,0,0,1-.347-.246l2.2-7.227-6.124-4.419a.225.225,0,0,1,.126-.407l7.552-.145,2.311-7.19a.224.224,0,0,1,.426-.005l2.472,7.137,7.553-.024a.224.224,0,0,1,.136.4l-6.024,4.556Z" transform="translate(-1118.425 -150.919)"/><path d="M1122.662,171.253a.725.725,0,0,1-.694-.934l2.092-6.886-5.834-4.21a.725.725,0,0,1,.409-1.312l7.2-.138,2.2-6.85a.723.723,0,0,1,.682-.5h.008a.725.725,0,0,1,.685.487l2.355,6.8,7.2-.023a.724.724,0,0,1,.44,1.3l-5.739,4.341,2.245,6.836a.725.725,0,0,1-1.1.821l-5.9-4.118-5.808,4.248A.718.718,0,0,1,1122.662,171.253Zm-3.182-12.358,5.745,4.146-2.059,6.778,5.718-4.182,5.81,4.053-2.21-6.731,5.65-4.273-7.084.023-2.318-6.694-2.168,6.744Z" transform="translate(-1118.425 -150.919)"/></g><g transform="translate(48.376 0.75)"><path d="M1187.213,170.318a.224.224,0,0,1-.341.254l-6.194-4.321-6.1,4.458a.224.224,0,0,1-.347-.246l2.195-7.227-6.124-4.419a.225.225,0,0,1,.127-.407l7.551-.145,2.311-7.19a.224.224,0,0,1,.426-.005l2.472,7.137,7.553-.024a.224.224,0,0,1,.136.4l-6.024,4.556Z" transform="translate(-1170.212 -150.919)"/><path d="M1174.448,171.253a.724.724,0,0,1-.693-.934l2.091-6.886-5.834-4.21a.725.725,0,0,1,.409-1.312l7.194-.138,2.2-6.85a.722.722,0,0,1,.682-.5h.008a.725.725,0,0,1,.685.488l2.355,6.8,7.2-.023a.724.724,0,0,1,.438,1.3l-5.738,4.34,2.245,6.836a.724.724,0,0,1-1.1.821l-5.9-4.117-5.808,4.248A.717.717,0,0,1,1174.448,171.253Zm-3.182-12.358,5.745,4.146-2.059,6.778,5.718-4.181,5.81,4.053-2.21-6.73,5.65-4.273-7.084.023-2.318-6.694-2.168,6.744Z" transform="translate(-1170.212 -150.919)"/></g><g transform="translate(72.402 0.75)"><path d="M1238.313,170.318a.224.224,0,0,1-.341.254l-6.195-4.321-6.1,4.458a.224.224,0,0,1-.347-.246l2.195-7.227-6.124-4.419a.225.225,0,0,1,.127-.407l7.551-.145,2.311-7.19a.224.224,0,0,1,.425-.005l2.472,7.137,7.552-.024a.224.224,0,0,1,.136.4l-6.024,4.556Z" transform="translate(-1221.312 -150.919)"/><path d="M1225.549,171.253a.724.724,0,0,1-.693-.935l2.091-6.885-5.835-4.21a.725.725,0,0,1,.409-1.312l7.194-.138,2.2-6.85a.723.723,0,0,1,.682-.5h.008a.725.725,0,0,1,.685.488l2.355,6.8,7.2-.023a.724.724,0,0,1,.438,1.3l-5.738,4.34,2.245,6.836a.724.724,0,0,1-1.1.821l-5.9-4.117-5.807,4.248A.72.72,0,0,1,1225.549,171.253Zm-3.182-12.358,5.745,4.146-2.059,6.778,5.718-4.182,5.81,4.053-2.21-6.73,5.65-4.273-7.083.023-2.319-6.693-2.168,6.744Z" transform="translate(-1221.312 -150.919)"/></g><g transform="translate(95.845)"><path d="M1276.35,170.753a.975.975,0,0,1-.933-1.256l2.04-6.715-5.689-4.106a.975.975,0,0,1,.551-1.765l7.016-.135,2.148-6.68a.974.974,0,0,1,1.848-.021l2.3,6.63,7.016-.022h0a.974.974,0,0,1,.587,1.753l-5.6,4.232,2.19,6.668a.975.975,0,0,1-1.484,1.1l-5.755-4.014-5.664,4.142A.978.978,0,0,1,1276.35,170.753Zm-2.427-12.373,5.282,3.812-1.893,6.232,5.257-3.845,5.341,3.726-2.032-6.187,5.195-3.929-6.513.021-2.132-6.154-1.992,6.2Zm18.406-1.143h0Zm-9.418-6.684v0Z" transform="translate(-1271.363 -149.419)"/><path d="M1276.35,171.253a1.475,1.475,0,0,1-1.412-1.9l1.937-6.375-5.4-3.9a1.475,1.475,0,0,1,.833-2.67l6.66-.128,2.038-6.34a1.471,1.471,0,0,1,1.388-1.023h.008a1.469,1.469,0,0,1,1.4.991l2.18,6.293,6.659-.021a1.474,1.474,0,0,1,.892,2.652l-5.309,4.016,2.079,6.329a1.473,1.473,0,0,1-.524,1.642,1.472,1.472,0,0,1-1.721.026l-5.463-3.81-5.375,3.931A1.47,1.47,0,0,1,1276.35,171.253Zm6.051-21.334a.473.473,0,0,0-.443.328l-2.257,7.021-7.373.142a.475.475,0,0,0-.268.859l5.979,4.316-2.144,7.057a.475.475,0,0,0,.736.519l5.951-4.353,6.048,4.219a.475.475,0,0,0,.272.086.467.467,0,0,0,.281-.093.474.474,0,0,0,.17-.529l-2.3-7.006,5.88-4.447a.474.474,0,0,0-.286-.854h-.35l.288.485h0l-.287-.486-7.023.022-2.3-6.635-.548-.134.548.133-.115-.331A.474.474,0,0,0,1282.4,149.919Zm-6,19.793,2.225-7.324-6.207-4.479,7.653-.147,2.341-7.287,2.505,7.232,7.653-.024-6.1,4.617,2.388,7.271-6.277-4.378Zm-.967-10.861,4.357,3.144-1.562,5.141,4.337-3.172,4.406,3.073-1.677-5.1,4.285-3.241-5.372.017-1.759-5.076-1.644,5.115Z" transform="translate(-1271.363 -149.419)"/></g></g><g transform="translate(13.62 47.916)"><rect width="126.273" height="2.889"/></g><g transform="translate(13.62 55.546)"><rect width="126.273" height="2.889"/></g><g transform="translate(13.62 63.353)"><rect width="126.273" height="2.889"/></g><g transform="translate(13.62 71.161)"><rect width="113.193" height="2.889"/></g></g></g></svg>