<svg xmlns="http://www.w3.org/2000/svg" width="118.532" height="99.252" viewBox="0 0 118.532 99.252"><g transform="translate(-2 -7)"><path d="M105.222,47.018V8.985A1.986,1.986,0,0,0,103.237,7H3.985A1.986,1.986,0,0,0,2,8.985V76.476A9.926,9.926,0,0,0,11.925,86.4H43.408l-6.65,7.94h-3a1.986,1.986,0,0,0-1.985,1.985v7.94a1.986,1.986,0,0,0,1.985,1.985h39.7a1.986,1.986,0,0,0,1.985-1.985v-1.251a31.761,31.761,0,0,0,29.776-56ZM5.97,10.97h95.282v34.1a31.3,31.3,0,0,0-11.91-2.342,31.761,31.761,0,0,0-30.708,23.82H5.97Zm0,65.506V70.521H57.859a32.777,32.777,0,0,0-.278,3.97,30.82,30.82,0,0,0,1.052,7.94H11.925A5.955,5.955,0,0,1,5.97,76.476ZM48.589,86.4H59.923a31.5,31.5,0,0,0,4.665,7.94H41.939Zm22.887,15.88H35.746v-3.97H68.4a35.476,35.476,0,0,0,3.077,2.422Zm17.865,0a27.79,27.79,0,1,1,27.79-27.79A27.79,27.79,0,0,1,89.341,102.282Z"/><path d="M64.242,46.746A11.64,11.64,0,0,0,65.79,40.91a11.91,11.91,0,0,0-23.82,0,11.64,11.64,0,0,0,1.548,5.836A15.885,15.885,0,0,0,38,58.776v11.91a1.986,1.986,0,0,0,1.985,1.985h27.79a1.986,1.986,0,0,0,1.985-1.985V58.776A15.885,15.885,0,0,0,64.242,46.746ZM53.88,32.97a7.94,7.94,0,1,1-7.94,7.94A7.94,7.94,0,0,1,53.88,32.97ZM65.79,68.7H41.97V58.776a11.911,11.911,0,0,1,3.97-8.952,11.91,11.91,0,0,0,15.721,0,11.908,11.908,0,0,1,4.129,8.952Z" transform="translate(35.461 21.671)"/><path d="M15.925,11H7.985A1.986,1.986,0,0,0,6,12.985v13.9a1.985,1.985,0,1,0,3.97,0V14.97h5.955a1.985,1.985,0,1,0,0-3.97Z" transform="translate(3.94 3.94)"/><path d="M7.985,22A1.986,1.986,0,0,0,6,23.985V25.97a1.985,1.985,0,0,0,3.97,0V23.985A1.986,1.986,0,0,0,7.985,22Z" transform="translate(3.94 14.776)"/></g></svg>