<svg xmlns="http://www.w3.org/2000/svg" width="119.605" height="111.781" viewBox="0 0 119.605 111.781"><g transform="translate(-9.73 -14.81)"><path d="M119.577,32.467h-7.885V24.582a9.788,9.788,0,0,0-9.772-9.772H19.5A9.788,9.788,0,0,0,9.73,24.582V75.417A9.788,9.788,0,0,0,19.5,85.189h7.885v7.885a9.787,9.787,0,0,0,9.772,9.787H89.471l14.131,22.7a2.194,2.194,0,0,0,4.052-1.156V102.86h11.908a9.788,9.788,0,0,0,9.772-9.772V42.239A9.786,9.786,0,0,0,119.577,32.467ZM27.416,42.239V80.8H19.5a5.384,5.384,0,0,1-5.383-5.383h0V24.582A5.384,5.384,0,0,1,19.5,19.2H101.92a5.384,5.384,0,0,1,5.383,5.383h0v7.885H37.086a9.786,9.786,0,0,0-9.7,9.772Zm97.545,50.835a5.384,5.384,0,0,1-5.369,5.4H105.475a2.2,2.2,0,0,0-2.194,2.194v16.092L92.543,99.5a2.2,2.2,0,0,0-1.858-1.024H37.159a5.384,5.384,0,0,1-5.383-5.383h0V42.239a5.384,5.384,0,0,1,5.383-5.383h82.418a5.384,5.384,0,0,1,5.383,5.383h0Z" transform="translate(0 0)"/><path d="M69.1,52.22A7.7,7.7,0,1,0,68.88,67.61a8.852,8.852,0,0,1-5.369,1.843,2.194,2.194,0,1,0,0,4.389,13.313,13.313,0,0,0,13.3-13.3,1.953,1.953,0,0,0,0-.293v-.293a7.709,7.709,0,0,0-7.68-7.739Zm0,11.015a3.321,3.321,0,1,1,3.321-3.321h0A3.32,3.32,0,0,1,69.1,63.236Z" transform="translate(23.868 17.316)"/><path d="M81.08,52.22A7.7,7.7,0,0,0,80.86,67.61a8.844,8.844,0,0,1-5.383,1.843,2.194,2.194,0,0,0,0,4.389,13.313,13.313,0,0,0,13.3-13.3,1.953,1.953,0,0,0,0-.293v-.293a7.709,7.709,0,0,0-7.68-7.739Zm0,11.015A3.321,3.321,0,1,1,84.4,59.915h0A3.32,3.32,0,0,1,81.08,63.236Z" transform="translate(29.413 17.316)"/><path d="M56.974,36.694A2.2,2.2,0,0,0,54.779,34.5a13.313,13.313,0,0,0-13.3,13.3,1.954,1.954,0,0,0,0,.293v.293A7.709,7.709,0,1,0,49.4,40.7a8.854,8.854,0,0,1,5.383-1.829A2.193,2.193,0,0,0,56.974,36.694ZM52.483,48.4a3.321,3.321,0,1,1-3.321-3.321A3.32,3.32,0,0,1,52.483,48.4Z" transform="translate(14.695 9.114)"/><path d="M44.994,36.694A2.2,2.2,0,0,0,42.8,34.5,13.313,13.313,0,0,0,29.5,47.8a1.954,1.954,0,0,0,0,.293v.293a7.709,7.709,0,1,0,7.914-7.68A8.864,8.864,0,0,1,42.8,38.874,2.193,2.193,0,0,0,44.994,36.694Zm-4.52,11.7a3.321,3.321,0,1,1-3.321-3.321A3.32,3.32,0,0,1,40.473,48.4Z" transform="translate(9.149 9.114)"/></g></svg>