<svg xmlns="http://www.w3.org/2000/svg" xmlns:xlink="http://www.w3.org/1999/xlink" width="65" height="40.619" viewBox="0 0 65 40.619"><defs><clipPath id="a"><rect width="65" height="40.619" fill="#4498d8"/></clipPath></defs><g transform="translate(0 0)"><g transform="translate(0 0)" clip-path="url(#a)"><path d="M25.072,37.873a1.734,1.734,0,0,1-1.422-.742,22.355,22.355,0,0,1-.035-26.7.784.784,0,0,0,.144-.225,1.721,1.721,0,0,1,1.3-.608,1.689,1.689,0,0,1,1.083.389,1.772,1.772,0,0,1,.3,2.471,18.864,18.864,0,0,0-.065,22.51l.007.014v.026l.1.148a1.728,1.728,0,0,1-1.417,2.714" transform="translate(-6.881 -3.439)" fill="#4498d8" fill-rule="evenodd"/><path d="M72.031,37.956a1.749,1.749,0,0,1-1.368-2.837,18.861,18.861,0,0,0,.074-22.505.663.663,0,0,0-.3-.332,1.728,1.728,0,0,1,2.957-1.773,22.354,22.354,0,0,1,.013,26.728l-.116.153v.029a1.748,1.748,0,0,1-1.261.537" transform="translate(-25.164 -3.499)" fill="#4498d8" fill-rule="evenodd"/><path d="M7.922,40.594A1.729,1.729,0,0,1,6.5,39.852,32.6,32.6,0,0,1,6.467.832.773.773,0,0,0,6.61.607,1.722,1.722,0,0,1,7.915,0,1.687,1.687,0,0,1,9,.388a1.772,1.772,0,0,1,.3,2.472,29.349,29.349,0,0,0-.066,34.83.135.135,0,0,0,.008.017v.026l.1.148a1.728,1.728,0,0,1-1.417,2.714" transform="translate(0 0)" fill="#4498d8" fill-rule="evenodd"/><path d="M88.031,40.679a1.749,1.749,0,0,1-1.368-2.837,29.348,29.348,0,0,0,.074-34.826.664.664,0,0,0-.3-.333A1.728,1.728,0,0,1,89.395.91a32.6,32.6,0,0,1,.013,39.05l-.117.154v.029a1.749,1.749,0,0,1-1.26.536" transform="translate(-30.896 -0.06)" fill="#4498d8" fill-rule="evenodd"/><path d="M46.085,35.257A8.251,8.251,0,1,1,54.337,27a8.261,8.261,0,0,1-8.252,8.252" transform="translate(-13.553 -6.718)" fill="#4498d8" fill-rule="evenodd"/></g></g></svg>