<svg xmlns="http://www.w3.org/2000/svg" width="65" height="65.063" viewBox="0 0 65 65.063"><g transform="translate(-106 -1508.73)"><g transform="translate(-28.4 1374.339)"><path d="M197.9,195.251H147.169a1.417,1.417,0,0,1-1.439-1.442.8.8,0,0,1,.063-.376,4.294,4.294,0,0,0-3.128-5.266,4.08,4.08,0,0,0-2.127,0,1.434,1.434,0,0,1-1.752-1.066c0-.125-.063-.251-.063-.376V138.644l-2.064,1.379a1.469,1.469,0,0,1-2-.376,1.488,1.488,0,0,1,.375-2.006l4.316-2.884a1.469,1.469,0,0,1,2,.376,1.262,1.262,0,0,1,.25.815v49.21a7.2,7.2,0,0,1,7.194,7.209h46.418l-1.376-2.069a1.441,1.441,0,1,1,2.377-1.63l2.878,4.325a1.476,1.476,0,0,1-.375,2.006A1.562,1.562,0,0,1,197.9,195.251Z" transform="translate(-0.007 -0.05)" fill="#4498d8"/><path d="M141.387,229.374a6.987,6.987,0,1,1,6.987-6.987,5.874,5.874,0,0,1-.243,1.762A6.914,6.914,0,0,1,141.387,229.374Zm0-11.24a4.192,4.192,0,1,0,4.192,4.192h0A4.088,4.088,0,0,0,141.387,218.134Z" transform="translate(0 -29.92)" fill="#4498d8"/><path d="M162.322,215.114a1.375,1.375,0,0,1-1.4-1.4h0V192.695H142.7a1.4,1.4,0,1,1,0-2.795h19.624a1.375,1.375,0,0,1,1.4,1.4h0v22.419a1.375,1.375,0,0,1-1.4,1.4Z" transform="translate(-2.708 -19.913)" fill="#4498d8"/><path d="M174.959,206.951a1.375,1.375,0,0,1-1.4-1.4V171.895H142.7a1.4,1.4,0,1,1,0-2.795h32.262a1.375,1.375,0,0,1,1.4,1.4v35.056a1.375,1.375,0,0,1-1.4,1.4Z" transform="translate(-2.708 -11.75)" fill="#4498d8"/><path d="M187.5,200.659a1.4,1.4,0,0,1-1.4-1.449V151.2H142.6a1.45,1.45,0,0,1,0-2.9h44.9a1.4,1.4,0,0,1,1.4,1.449V199.21a1.333,1.333,0,0,1-1.4,1.449Z" transform="translate(-2.669 -5.458)" fill="#4498d8"/><path d="M146.986,139.986a1.221,1.221,0,0,1-.79-.243L142,136.949a1.4,1.4,0,0,1,1.58-2.309h0l4.192,2.795a1.375,1.375,0,0,1,.365,1.944,1.565,1.565,0,0,1-1.154.608Z" transform="translate(-2.744)" fill="#4498d8"/><path d="M230.5,233.884a1.375,1.375,0,0,1-1.4-1.4,1.221,1.221,0,0,1,.243-.79l2.795-4.192a1.4,1.4,0,1,1,2.309,1.58h0l-2.795,4.192A1.554,1.554,0,0,1,230.5,233.884Z" transform="translate(-35.295 -34.429)" fill="#4498d8"/><path d="M182.9,180.6h2.795v2.795H182.9Z" transform="translate(-18.12 -17.264)" fill="#4498d8"/><path d="M162.1,201.4h2.795v2.795H162.1Z" transform="translate(-10.349 -25.035)" fill="#4498d8"/><path d="M203.7,159.8h2.795v2.795H203.7Z" transform="translate(-25.892 -9.493)" fill="#4498d8"/></g></g></svg>