<svg xmlns="http://www.w3.org/2000/svg" width="65.472" height="65.611" viewBox="0 0 65.472 65.611"><g transform="translate(-46.8 -46.7)"><path d="M124.1,69.5h8.437v33.817H124.1Z" transform="translate(-23.403 -6.903)" fill="#4498d8"/><path d="M108.306,103.526V84.7H99.8V96.972A14.789,14.789,0,0,1,108.306,103.526Z" transform="translate(-16.046 -11.505)" fill="#4498d8"/><path d="M90.626,119.809,87,121.622l.976,1.883,4.253-2.092h0a1.113,1.113,0,0,0,.558-.976V112H90.7Z" transform="translate(-12.171 -19.77)" fill="#4498d8"/><path d="M88.285,129.775a12.694,12.694,0,0,0,9.483-4.253l-1.6-1.395a10.567,10.567,0,1,1-.837-14.921,10.683,10.683,0,0,1,3.556,7.391H95.746L100,122.245l4.253-5.648h-3.207a12.91,12.91,0,0,0-13.317-12.2,12.7,12.7,0,0,0,.558,25.38Z" transform="translate(-8.715 -17.464)" fill="#4498d8"/><path d="M119.5,121.1h14.782v2.092H119.5Z" transform="translate(-22.01 -22.525)" fill="#4498d8"/><path d="M46.8,121.1H64.789v2.092H46.8Z" transform="translate(0 -22.525)" fill="#4498d8"/><path d="M51.3,84.7h8.437v23.218H51.3Z" transform="translate(-1.362 -11.505)" fill="#4498d8"/><path d="M105.828,46.77a4.226,4.226,0,0,0-4.253,4.253h0a3.948,3.948,0,0,0,.209,1.255l-9.971,6.206a4.252,4.252,0,0,0-5.927.07L74.94,52.139a5.986,5.986,0,0,0,.209-1.185,4.253,4.253,0,1,0-8.506,0,4.136,4.136,0,0,0,.349,1.6L56.6,60.366a4.076,4.076,0,0,0-2.65-.906,4.253,4.253,0,1,0,4.253,4.253,4.136,4.136,0,0,0-.349-1.6L68.247,54.3h0a4.185,4.185,0,0,0,5.648-.279l10.947,6.415a5.987,5.987,0,0,0-.209,1.185,4.218,4.218,0,0,0,8.437.07v-.139A3.948,3.948,0,0,0,92.86,60.3l10.04-6.275a4.241,4.241,0,0,0,5.857-6.136,3.981,3.981,0,0,0-2.928-1.116Z" transform="translate(-0.878 0)" fill="#4498d8"/><path d="M84.037,69.5H75.6V98.924a14.643,14.643,0,0,1,8.437-6.554Z" transform="translate(-8.719 -6.903)" fill="#4498d8"/></g></svg>