<svg xmlns="http://www.w3.org/2000/svg" xmlns:xlink="http://www.w3.org/1999/xlink" width="70.637" height="60.887" viewBox="0 0 70.637 60.887"><defs><clipPath id="a"><path d="M0,6.346H70.637V-54.541H0Z" transform="translate(0 54.541)" fill="#4498d8"/></clipPath></defs><g transform="translate(-3.216 51.769)"><g transform="translate(3.216 -51.769)" clip-path="url(#a)"><g transform="translate(0 0)"><path d="M5.264,0a.736.736,0,0,0-.725.746V60.124a.736.736,0,1,0,1.47,0V.746A.736.736,0,0,0,5.264,0m-10.1.006A.739.739,0,0,0-5.059.04l-.035.011H-5.1L-26.413,7.665a.735.735,0,0,0-.489.693v9a.757.757,0,0,0,0,.284V21.9a.759.759,0,0,0,0,.317v4.25a.764.764,0,0,0,0,.318v7.54a.732.732,0,0,0,0,.374V38.97a.748.748,0,0,0,0,.223v4.349a.782.782,0,0,0,0,.217V48.1a.771.771,0,0,0,0,.227v4.184a.737.737,0,0,0,.489.693L-5.1,60.818a.3.3,0,0,0,.042.011l.011,0a.542.542,0,0,0,.061.01l.01,0a.514.514,0,0,0,.056.008l.022,0H2.227a.736.736,0,0,0,.736-.736V56.409h0a.736.736,0,0,0-.528-.706,13.853,13.853,0,0,1-1.912-.757,6.309,6.309,0,0,1-1.282-.8,1.3,1.3,0,0,1-.488-.685c-.028-.243.045-.388.342-.663a8.149,8.149,0,0,1,1.347-.887,9.376,9.376,0,0,0,1.63-1.077,2.4,2.4,0,0,0,.89-1.881,2.245,2.245,0,0,0-1-1.661,8.432,8.432,0,0,0-1.575-.828,7.446,7.446,0,0,1-1.28-.666c-.285-.213-.348-.318-.348-.517s.064-.3.356-.512A7.734,7.734,0,0,1,.421,44.1a8.02,8.02,0,0,0,1.586-.831,1.986,1.986,0,0,0,0-3.4,8.079,8.079,0,0,0-1.586-.831A7.817,7.817,0,0,1-.885,38.37c-.292-.215-.356-.322-.356-.512s.064-.3.356-.514a7.651,7.651,0,0,1,1.306-.669,8.026,8.026,0,0,0,1.586-.832,1.985,1.985,0,0,0,0-3.4,8.146,8.146,0,0,0-1.586-.832,7.658,7.658,0,0,1-1.306-.668c-.292-.215-.356-.322-.356-.514s.064-.3.356-.512a7.817,7.817,0,0,1,1.306-.669,8.073,8.073,0,0,0,1.586-.829,1.986,1.986,0,0,0,0-3.4A8.146,8.146,0,0,0,.421,24.2a7.652,7.652,0,0,1-1.306-.669c-.292-.214-.356-.322-.356-.512s.064-.3.356-.512a7.817,7.817,0,0,1,1.306-.669A8.08,8.08,0,0,0,2.007,21a2.164,2.164,0,0,0,.957-1.7,2.164,2.164,0,0,0-.957-1.7,8.079,8.079,0,0,0-1.586-.831,7.652,7.652,0,0,1-1.306-.669c-.292-.215-.356-.322-.356-.512s.065-.3.349-.517A7.267,7.267,0,0,1,.39,14.411a8.44,8.44,0,0,0,1.576-.828,2.241,2.241,0,0,0,1-1.666,2.37,2.37,0,0,0-.9-1.861A9.148,9.148,0,0,0,.441,9,7.866,7.866,0,0,1-.9,8.137c-.3-.268-.37-.411-.345-.65a1.327,1.327,0,0,1,.487-.7A6.453,6.453,0,0,1,.525,5.954a14,14,0,0,1,1.92-.79v0a.738.738,0,0,0,.519-.7V.746A.736.736,0,0,0,2.227.01h-7a.487.487,0,0,0-.057,0Zm.717,1.475H1.493V3.966a9.857,9.857,0,0,0-1.635.671,7.619,7.619,0,0,0-1.591,1.04,2.594,2.594,0,0,0-.976,1.654,2.286,2.286,0,0,0,.822,1.891A8.54,8.54,0,0,0-.276,10.283a8.671,8.671,0,0,1,1.372.875c.315.276.407.447.4.685-.008.2-.09.326-.391.545a7.968,7.968,0,0,1-1.307.672,7.874,7.874,0,0,0-1.567.835,2.17,2.17,0,0,0-.94,1.7,2.162,2.162,0,0,0,.957,1.7,8.08,8.08,0,0,0,1.586.831,7.756,7.756,0,0,1,1.305.669c.292.215.357.322.357.512s-.065.3-.357.512a7.635,7.635,0,0,1-1.305.669,8.086,8.086,0,0,0-1.586.832,2.164,2.164,0,0,0-.957,1.7,2.164,2.164,0,0,0,.957,1.7,8.086,8.086,0,0,0,1.586.832,7.674,7.674,0,0,1,1.305.669c.292.215.357.322.357.512s-.065.3-.357.512A7.8,7.8,0,0,1-.17,27.9a8.02,8.02,0,0,0-1.586.831,2.164,2.164,0,0,0-.957,1.7,2.164,2.164,0,0,0,.957,1.7,8.079,8.079,0,0,0,1.586.831,7.757,7.757,0,0,1,1.305.669c.292.215.357.322.357.512s-.065.3-.357.514a7.635,7.635,0,0,1-1.305.669,8.08,8.08,0,0,0-1.586.831,2.164,2.164,0,0,0-.957,1.7,2.164,2.164,0,0,0,.957,1.7,8.08,8.08,0,0,0,1.586.831,7.681,7.681,0,0,1,1.305.668c.292.215.357.323.357.514s-.065.3-.357.512a7.636,7.636,0,0,1-1.305.669,8.026,8.026,0,0,0-1.586.832,2.164,2.164,0,0,0-.957,1.7,2.172,2.172,0,0,0,.939,1.695A7.743,7.743,0,0,0-.208,47.8a7.99,7.99,0,0,1,1.306.673c.3.219.385.349.4.547.013.246-.084.424-.4.708a8.974,8.974,0,0,1-1.381.9A8.555,8.555,0,0,0-1.9,51.713a2.3,2.3,0,0,0-.8,1.912,2.571,2.571,0,0,0,.988,1.632A7.565,7.565,0,0,0-.128,56.266a9.639,9.639,0,0,0,1.621.639v2.478H-4.116V55.594a.735.735,0,0,0,0-.355V48.548a.724.724,0,0,0,0-.286V42.967a.722.722,0,0,0,0-.277V36.4a.728.728,0,0,0,0-.318V25.006a.688.688,0,0,0,0-.2V18.432a.722.722,0,0,0,0-.23V12.858a.736.736,0,0,0,0-.232V5.852a.765.765,0,0,0,0-.237Zm-1.471.309V5.206L-25.429,11.9V8.876Zm0,4.968V12.15l-19.842,4.424V13.453Zm-27.5,6.6a2.269,2.269,0,0,0-2.257,2.258,2.269,2.269,0,0,0,2.257,2.258,2.269,2.269,0,0,0,2.257-2.258,2.269,2.269,0,0,0-2.257-2.258m27.5.3V17.7l-19.842,3.485v-3.1Zm-27.5,1.17a.777.777,0,0,1,.787.788.775.775,0,0,1-.787.786.775.775,0,0,1-.787-.786.777.777,0,0,1,.787-.788m46.479.3c-.077,0-.154,0-.232,0a12.55,12.55,0,0,0-3.322.678c-1.01.32-1.787.636-1.787.636h0A.736.736,0,1,0,8.608,17.8s.725-.294,1.676-.6a12.208,12.208,0,0,1,2.907-.611,8,8,0,0,1,2.762.582,9.569,9.569,0,0,0,3.253.678,8.083,8.083,0,0,0,2.9-.683,6.745,6.745,0,0,1,2.531-.576.735.735,0,0,0,.534-1.263.729.729,0,0,0-.534-.208,8.254,8.254,0,0,0-3.049.67,6.713,6.713,0,0,1-2.393.589,8.39,8.39,0,0,1-2.77-.6,9.67,9.67,0,0,0-3.029-.66Zm-56.469,3.3A1.888,1.888,0,0,0-44.953,20.3a1.889,1.889,0,0,0,1.878,1.878A1.889,1.889,0,0,0-41.2,20.3a1.888,1.888,0,0,0-1.878-1.877m37.488.767v5.031l-19.842,1.606V22.678Zm-37.488.7a.4.4,0,0,1,.406.406.4.4,0,0,1-.406.407.4.4,0,0,1-.406-.407.4.4,0,0,1,.406-.406m56.469.807c-.077,0-.154,0-.232,0a12.552,12.552,0,0,0-3.322.679c-1.01.32-1.787.635-1.787.635h0a.736.736,0,0,0,.556,1.363s.725-.3,1.676-.6a12.093,12.093,0,0,1,2.907-.61,7.971,7.971,0,0,1,2.762.583,9.568,9.568,0,0,0,3.253.679,8.059,8.059,0,0,0,2.9-.684,6.766,6.766,0,0,1,2.531-.575h0a.736.736,0,0,0,0-1.472,8.231,8.231,0,0,0-3.049.671,6.713,6.713,0,0,1-2.393.589,8.362,8.362,0,0,1-2.77-.6,9.8,9.8,0,0,0-3.029-.661ZM-34.548,22.29h0a.737.737,0,0,0-.725.747v1.33a.736.736,0,0,0,.737.728.736.736,0,0,0,.736-.728v-1.33a.734.734,0,0,0-.217-.531.738.738,0,0,0-.531-.215ZM-38.3,23.852h0a.734.734,0,0,0-.681.459.736.736,0,0,0,.169.8l.94.94a.739.739,0,0,0,.521.218.737.737,0,0,0,.522-.215.741.741,0,0,0,.215-.522.74.74,0,0,0-.219-.521l-.94-.939h0a.735.735,0,0,0-.528-.223Zm7.514,0h0a.734.734,0,0,0-.507.222l-.939.94h0a.734.734,0,0,0,0,1.039.736.736,0,0,0,1.039,0l.939-.94a.735.735,0,0,0,.165-.814.735.735,0,0,0-.7-.449Zm-3.746,1.787a2.727,2.727,0,0,0-2.715,2.715,2.725,2.725,0,0,0,2.715,2.715,2.725,2.725,0,0,0,2.715-2.715,2.726,2.726,0,0,0-2.715-2.715m28.951.057v4.1H-25.427V27.3Zm18.979.579c-.077,0-.154,0-.232,0a12.568,12.568,0,0,0-3.322.678c-1.01.32-1.786.636-1.786.636h0a.736.736,0,1,0,.555,1.362s.725-.294,1.676-.6a12.1,12.1,0,0,1,2.907-.611,7.968,7.968,0,0,1,2.762.584,9.542,9.542,0,0,0,3.253.678,8.1,8.1,0,0,0,2.9-.683,6.762,6.762,0,0,1,2.53-.577.736.736,0,1,0,0-1.47,8.231,8.231,0,0,0-3.049.671,6.755,6.755,0,0,1-2.393.589,8.37,8.37,0,0,1-2.77-.6A9.764,9.764,0,0,0,13.394,26.276Zm-47.931.832a1.233,1.233,0,0,1,1.245,1.242,1.234,1.234,0,0,1-1.245,1.245A1.233,1.233,0,0,1-35.78,28.35a1.232,1.232,0,0,1,1.244-1.242m-5.317.508h0a.733.733,0,0,0-.525.213.74.74,0,0,0-.218.522.741.741,0,0,0,.218.522.738.738,0,0,0,.525.213h1.33a.735.735,0,0,0,.729-.736.735.735,0,0,0-.729-.736Zm9.306,0h0a.733.733,0,0,0-.525.213.735.735,0,0,0-.218.522.737.737,0,0,0,.218.522.738.738,0,0,0,.525.213h1.328a.736.736,0,0,0,.73-.736.736.736,0,0,0-.73-.736Zm-6.823,2.813h0a.745.745,0,0,0-.506.222l-.94.941a.736.736,0,0,0,0,1.04.736.736,0,0,0,1.04,0l.941-.94h0a.735.735,0,0,0,.165-.815A.734.734,0,0,0-37.371,30.428Zm5.648,0h0a.738.738,0,0,0-.681.459.737.737,0,0,0,.169.8l.939.94a.736.736,0,0,0,1.04,0,.735.735,0,0,0,0-1.04l-.939-.941a.741.741,0,0,0-.528-.222Zm6.3.841H-5.586V35.44l-19.842-1.606Zm-9.119.325h0a.737.737,0,0,0-.725.746v1.33a.736.736,0,0,0,.737.728.735.735,0,0,0,.736-.728v-1.33a.742.742,0,0,0-.217-.531.737.737,0,0,0-.531-.214Zm59.182.258a8.253,8.253,0,0,0-3.049.671,6.713,6.713,0,0,1-2.393.589,8.362,8.362,0,0,1-2.77-.6,9.291,9.291,0,0,0-3.261-.66,12.561,12.561,0,0,0-3.322.679c-1.01.32-1.786.636-1.786.636h0a.736.736,0,0,0-.02,1.373.744.744,0,0,0,.575-.011s.726-.295,1.676-.6a12.144,12.144,0,0,1,2.908-.61,7.938,7.938,0,0,1,2.761.582,9.569,9.569,0,0,0,3.254.679,8.059,8.059,0,0,0,2.9-.683,6.739,6.739,0,0,1,2.53-.576h0a.736.736,0,0,0,0-1.471Zm-67.616,2.777a2.269,2.269,0,0,0-2.258,2.257,2.269,2.269,0,0,0,2.258,2.257,2.269,2.269,0,0,0,2.258-2.257,2.269,2.269,0,0,0-2.258-2.257m17.553.682,19.842,1.606v5.03l-19.842-3.485Zm-17.553.788a.776.776,0,0,1,.786.788.774.774,0,0,1-.786.786.775.775,0,0,1-.787-.786.777.777,0,0,1,.787-.788m56.376,1.328c-.077,0-.154,0-.232,0a12.569,12.569,0,0,0-3.323.679c-1.009.32-1.786.635-1.786.635h0A.736.736,0,0,0,8.608,40.1s.725-.3,1.676-.6a12.093,12.093,0,0,1,2.907-.61,7.965,7.965,0,0,1,2.761.583,9.569,9.569,0,0,0,3.254.679,8.035,8.035,0,0,0,2.9-.684,6.765,6.765,0,0,1,2.53-.575h0a.736.736,0,0,0,0-1.471,8.253,8.253,0,0,0-3.048.67,6.713,6.713,0,0,1-2.393.589,8.356,8.356,0,0,1-2.77-.6A9.8,9.8,0,0,0,13.394,37.428Zm-43.744.691A1.89,1.89,0,0,0-32.228,40a1.888,1.888,0,0,0,1.878,1.877A1.888,1.888,0,0,0-28.472,40a1.889,1.889,0,0,0-1.878-1.878m0,1.472a.4.4,0,0,1,.406.406.4.4,0,0,1-.406.405A.4.4,0,0,1-30.756,40a.4.4,0,0,1,.406-.406m4.922.365,19.842,3.485v4.041l-19.842-4.424Zm-12.627,1.124h0a.736.736,0,0,0-.518.222.732.732,0,0,0-.208.524v1.328a.735.735,0,0,0,.736.729.736.736,0,0,0,.736-.729V41.826a.739.739,0,0,0-.215-.531A.731.731,0,0,0-38.055,41.081Zm-3.758,1.561h0a.736.736,0,0,0-.681.459.737.737,0,0,0,.169.8l.94.941a.739.739,0,0,0,.52.218.737.737,0,0,0,.522-.215.735.735,0,0,0,.215-.522.739.739,0,0,0-.218-.521l-.94-.94h0A.73.73,0,0,0-41.813,42.641Zm7.513,0h0a.741.741,0,0,0-.5.223l-.94.94h0a.742.742,0,0,0-.218.521.733.733,0,0,0,.217.52.732.732,0,0,0,.521.215.731.731,0,0,0,.52-.217l.941-.94h0a.737.737,0,0,0,.164-.815.736.736,0,0,0-.7-.449ZM13.394,43c-.077,0-.154,0-.232,0a12.6,12.6,0,0,0-3.322.679c-1.01.32-1.786.636-1.786.636h0a.736.736,0,1,0,.555,1.362s.726-.295,1.676-.6a12.271,12.271,0,0,1,2.908-.611,7.989,7.989,0,0,1,2.761.582,9.543,9.543,0,0,0,3.254.678,8.036,8.036,0,0,0,2.9-.683,6.761,6.761,0,0,1,2.53-.576h0a.736.736,0,1,0,0-1.471,8.241,8.241,0,0,0-3.049.671,6.755,6.755,0,0,1-2.392.589,8.358,8.358,0,0,1-2.77-.6A9.772,9.772,0,0,0,13.394,43ZM-38.044,44.43a2.727,2.727,0,0,0-2.715,2.716,2.727,2.727,0,0,0,2.715,2.715,2.727,2.727,0,0,0,2.715-2.715,2.726,2.726,0,0,0-2.715-2.716m12.617.135L-5.585,48.99v5.393l-19.842-6.7ZM-38.044,45.9A1.233,1.233,0,0,1-36.8,47.145a1.232,1.232,0,0,1-1.244,1.244,1.234,1.234,0,0,1-1.245-1.244A1.235,1.235,0,0,1-38.044,45.9m-5.317.508h0a.737.737,0,0,0-.73.737.736.736,0,0,0,.73.736h1.33a.737.737,0,0,0,.731-.736.738.738,0,0,0-.731-.737Zm9.3,0h0a.737.737,0,0,0-.73.737.736.736,0,0,0,.73.736h1.33a.736.736,0,0,0,.73-.736.737.737,0,0,0-.73-.737Zm-1.176,2.813h0a.737.737,0,0,0-.681.459.737.737,0,0,0,.169.8l.941.94a.737.737,0,0,0,1.038,0,.737.737,0,0,0,0-1.038l-.941-.94h0a.734.734,0,0,0-.528-.223Zm-5.647,0h0a.74.74,0,0,0-.506.222l-.939.94a.735.735,0,0,0,0,1.038.737.737,0,0,0,1.038,0l.94-.94a.736.736,0,0,0,.163-.814.736.736,0,0,0-.7-.449Zm15.451.011,19.842,6.7v3.14l-19.842-7.087Zm-12.627,1.148h0a.733.733,0,0,0-.518.223.729.729,0,0,0-.208.522v1.33a.735.735,0,0,0,.736.729.736.736,0,0,0,.736-.729V51.127a.74.74,0,0,0-.215-.531A.733.733,0,0,0-38.054,50.381Z" transform="translate(45.24 0)" fill="#4498d8"/></g></g></g></svg>