<svg xmlns="http://www.w3.org/2000/svg" width="45.481" height="45.483" viewBox="0 0 45.481 45.483"><path d="M6.233,14.473a1.428,1.428,0,0,0-1.082,2.3,14.6,14.6,0,0,0,12.112,6.594,14.6,14.6,0,0,0,12.112-6.594,1.534,1.534,0,0,0-.4-2.057,1.557,1.557,0,0,0-2.07.4,11.435,11.435,0,0,1-19.281,0,1.712,1.712,0,0,0-1.39-.648M25.668.631A2.967,2.967,0,1,0,28.634,3.6,2.966,2.966,0,0,0,25.668.631m-16.81,0A2.967,2.967,0,1,0,11.826,3.6,2.966,2.966,0,0,0,8.859.631m8.4-10.383A19.775,19.775,0,1,1-2.511,10.024,19.753,19.753,0,0,1,17.264-9.751m0-2.966A22.742,22.742,0,1,0,40,10.024,22.763,22.763,0,0,0,17.264-12.717" transform="translate(5.477 12.717)" fill="#2287c2"/></svg>