<svg xmlns="http://www.w3.org/2000/svg" width="42.702" height="42.702" viewBox="0 0 42.702 42.702"><path d="M15.45,14.893a1.361,1.361,0,0,1-1.256-1.448A1.361,1.361,0,0,1,15.45,12a1.362,1.362,0,0,1,1.256,1.448,1.362,1.362,0,0,1-1.256,1.448m3.767,4.343a1.362,1.362,0,0,1-1.256-1.448,1.362,1.362,0,0,1,1.256-1.448,1.361,1.361,0,0,1,1.256,1.448,1.361,1.361,0,0,1-1.256,1.448m-7.534,0a1.361,1.361,0,0,1-1.256-1.448,1.361,1.361,0,0,1,1.256-1.448,1.362,1.362,0,0,1,1.256,1.448,1.362,1.362,0,0,1-1.256,1.448m-7.536,0a1.362,1.362,0,0,1-1.256-1.448A1.362,1.362,0,0,1,4.147,16.34,1.361,1.361,0,0,1,5.4,17.788a1.361,1.361,0,0,1-1.256,1.448m3.767-4.343a1.362,1.362,0,0,1-1.256-1.448A1.362,1.362,0,0,1,7.914,12a1.362,1.362,0,0,1,1.258,1.448,1.362,1.362,0,0,1-1.258,1.448m-7.534,0A1.361,1.361,0,0,1-.876,13.445,1.361,1.361,0,0,1,.379,12a1.362,1.362,0,0,1,1.256,1.448A1.362,1.362,0,0,1,.379,14.893M-3.39,19.235a1.362,1.362,0,0,1-1.256-1.448A1.362,1.362,0,0,1-3.39,16.34a1.362,1.362,0,0,1,1.258,1.448A1.362,1.362,0,0,1-3.39,19.235m-7.534,0a1.361,1.361,0,0,1-1.256-1.448,1.361,1.361,0,0,1,1.256-1.448,1.362,1.362,0,0,1,1.256,1.448,1.362,1.362,0,0,1-1.256,1.448m3.767-4.343a1.362,1.362,0,0,1-1.256-1.448A1.362,1.362,0,0,1-7.157,12,1.361,1.361,0,0,1-5.9,13.445a1.361,1.361,0,0,1-1.256,1.448m-7.534,0a1.361,1.361,0,0,1-1.256-1.448A1.361,1.361,0,0,1-14.691,12a1.362,1.362,0,0,1,1.256,1.448,1.362,1.362,0,0,1-1.256,1.448M12.444-3.221a1.576,1.576,0,0,1-.431,1.985,1.166,1.166,0,0,1-1.723-.5,9.053,9.053,0,0,1,0-8.727,5.8,5.8,0,0,0,0-5.748,1.579,1.579,0,0,1,.431-1.987,1.166,1.166,0,0,1,1.723.5,9.053,9.053,0,0,1,0,8.727,5.8,5.8,0,0,0,0,5.748m-17.582,0a1.576,1.576,0,0,1-.431,1.985,1.166,1.166,0,0,1-1.723-.5,9.053,9.053,0,0,1,0-8.727,5.8,5.8,0,0,0,0-5.748,1.577,1.577,0,0,1,.431-1.987,1.167,1.167,0,0,1,1.723.5,9.053,9.053,0,0,1,0,8.727,5.8,5.8,0,0,0,0,5.748m8.792,0a1.579,1.579,0,0,1-.431,1.985,1.168,1.168,0,0,1-1.724-.5,9.053,9.053,0,0,1,0-8.727,5.788,5.788,0,0,0,0-5.748,1.581,1.581,0,0,1,.431-1.987,1.168,1.168,0,0,1,1.724.5,9.053,9.053,0,0,1,0,8.727,5.788,5.788,0,0,0,0,5.748M-17.832,9.827a1.362,1.362,0,0,1-1.256-1.448,1.362,1.362,0,0,1,1.256-1.448h40.19a1.362,1.362,0,0,1,1.256,1.448,1.362,1.362,0,0,1-1.256,1.448Zm0,14.475a1.362,1.362,0,0,1-1.256-1.448,1.362,1.362,0,0,1,1.256-1.448h40.19a1.462,1.462,0,0,1,0,2.9Z" transform="translate(19.088 18.4)" fill="#4496d8"/></svg>