<svg xmlns="http://www.w3.org/2000/svg" width="37.667" height="36.245" viewBox="0 0 37.667 36.245"><path d="M3.612,11.877H-2a1.17,1.17,0,0,0-1.178,1.161v11.61A1.17,1.17,0,0,0-2,25.809H3.612a1.168,1.168,0,0,0,1.176-1.161V13.038a1.168,1.168,0,0,0-1.176-1.161m9.9-3.652H7.9A1.17,1.17,0,0,0,6.725,9.386V24.624A1.17,1.17,0,0,0,7.9,25.785h5.608a1.168,1.168,0,0,0,1.176-1.161V9.386a1.168,1.168,0,0,0-1.176-1.161m9.9-3.04H17.807a1.168,1.168,0,0,0-1.176,1.161V24.624a1.168,1.168,0,0,0,1.176,1.161h5.608a1.17,1.17,0,0,0,1.178-1.161V6.346a1.17,1.17,0,0,0-1.178-1.161m9.9-5.957H27.706A1.17,1.17,0,0,0,26.528.389V24.624a1.17,1.17,0,0,0,1.178,1.161h5.608a1.17,1.17,0,0,0,1.178-1.161V.389A1.17,1.17,0,0,0,33.314-.772M30.06-3.727v-2.9C17.854,5.27.358,7.408-.39,7.5H-.525A1.173,1.173,0,0,1-1.769,6.406,1.167,1.167,0,0,1-.66,5.178c.175,0,17.224-2.125,28.873-13.292H25.628a1.168,1.168,0,0,1-1.176-1.161,1.168,1.168,0,0,1,1.176-1.161h5.61a1.168,1.168,0,0,1,1.176,1.161v5.538a1.168,1.168,0,0,1-1.176,1.161A1.169,1.169,0,0,1,30.06-3.737Z" transform="translate(3.174 10.436)" fill="#4496d8"/></svg>