<svg xmlns="http://www.w3.org/2000/svg" width="43.35" height="39.797" viewBox="0 0 43.35 39.797"><path d="M19.041,11.355h-8.4a1.444,1.444,0,0,1-1.379-1L7.7,5.462,3.658,19.781a1.448,1.448,0,0,1-2.769.047l-2.7-8.473h-7.34V8.488h8.4a1.444,1.444,0,0,1,1.377,1L2.183,14.38,6.228.061A1.448,1.448,0,0,1,8.011-.933,1.437,1.437,0,0,1,9,.014l2.7,8.473h7.34ZM15.077-9.977A11.652,11.652,0,0,0,5.172-4.623a.27.27,0,0,1-.37.088.286.286,0,0,1-.088-.088A11.647,11.647,0,0,0-5.192-9.977,11.7,11.7,0,0,0-16.69,2.95c1.039,13.066,16.425,23.863,20.6,26.563a1.909,1.909,0,0,0,2.074,0c4.174-2.7,19.559-13.5,20.6-26.563a11.7,11.7,0,0,0-11.5-12.927" transform="translate(16.731 9.977)" fill="#2287c2"/></svg>