<svg xmlns="http://www.w3.org/2000/svg" xmlns:xlink="http://www.w3.org/1999/xlink" width="62.188" height="77.625" viewBox="0 0 62.188 77.625"><defs><clipPath id="a"><path d="M0,53.765H62.188V-23.86H0Z" transform="translate(0 23.86)" fill="#4496d8"/></clipPath></defs><g clip-path="url(#a)"><g transform="translate(0)"><path d="M.836,53.765A1.181,1.181,0,0,1-.371,52.613V-16.065A1.181,1.181,0,0,1,.836-17.217H11.2l.264-.7a5.806,5.806,0,0,1,5.469-3.725h4.421L21.817-22a5.916,5.916,0,0,1,4.311-1.864h9.194A5.89,5.89,0,0,1,39.626-22l.231.247,4.662.1a5.8,5.8,0,0,1,5.466,3.725l.264.7H60.61a1.183,1.183,0,0,1,1.207,1.152V52.613a1.183,1.183,0,0,1-1.207,1.152Zm1.207-2.3H59.4V-14.913H50.245l-.257.706a5.816,5.816,0,0,1-5.469,3.725H16.93a5.806,5.806,0,0,1-5.469-3.725l-.257-.706H2.043ZM16.93-19.344a3.341,3.341,0,0,0-3.393,3.279,3.344,3.344,0,0,0,3.393,3.283H44.519a3.343,3.343,0,0,0,3.39-3.283,3.341,3.341,0,0,0-3.39-3.279H39.284a1.237,1.237,0,0,1-1.051-.576,3.375,3.375,0,0,0-2.912-1.636h-9.2a3.367,3.367,0,0,0-2.912,1.64,1.225,1.225,0,0,1-1.048.573Z" transform="translate(0.371 23.86)" fill="#4496d8"/></g><g transform="translate(25.289 19.568)"><path d="M.836,1.6A1.181,1.181,0,0,1-.371.444,1.181,1.181,0,0,1,.836-.708H26.124A1.181,1.181,0,0,1,27.331.444,1.181,1.181,0,0,1,26.124,1.6Z" transform="translate(0.371 0.708)" fill="#4496d8"/></g><g transform="translate(25.289 26.216)"><path d="M.836,1.593A1.181,1.181,0,0,1-.371.441,1.179,1.179,0,0,1,.836-.707H21.527A1.181,1.181,0,0,1,22.734.441a1.183,1.183,0,0,1-1.207,1.152Z" transform="translate(0.371 0.707)" fill="#4496d8"/></g><g transform="translate(25.289 39.138)"><path d="M.836,1.6A1.181,1.181,0,0,1-.371.444,1.181,1.181,0,0,1,.836-.708H26.124A1.181,1.181,0,0,1,27.331.444,1.181,1.181,0,0,1,26.124,1.6Z" transform="translate(0.371 0.708)" fill="#4496d8"/></g><g transform="translate(25.289 45.786)"><path d="M.836,1.593A1.181,1.181,0,0,1-.371.441,1.179,1.179,0,0,1,.836-.707H21.527A1.181,1.181,0,0,1,22.734.441a1.183,1.183,0,0,1-1.207,1.152Z" transform="translate(0.371 0.707)" fill="#4496d8"/></g><g transform="translate(25.289 58.709)"><path d="M.836,1.593A1.181,1.181,0,0,1-.371.441,1.179,1.179,0,0,1,.836-.707H26.124A1.179,1.179,0,0,1,27.331.441a1.181,1.181,0,0,1-1.207,1.152Z" transform="translate(0.371 0.707)" fill="#4496d8"/></g><g transform="translate(25.289 65.352)"><path d="M.836,1.6A1.181,1.181,0,0,1-.371.444,1.181,1.181,0,0,1,.836-.708H21.527A1.183,1.183,0,0,1,22.734.444,1.183,1.183,0,0,1,21.527,1.6Z" transform="translate(0.371 0.708)" fill="#4496d8"/></g><g transform="translate(7.818 38.03)"><path d="M4.02,5l.224.218L7.758,8.6a1.251,1.251,0,0,0,1.718,0,1.12,1.12,0,0,0,0-1.623L5.962,3.595,5.718,3.36l.244-.231L9.476-.257a1.132,1.132,0,0,0,.348-.81,1.126,1.126,0,0,0-.348-.81,1.235,1.235,0,0,0-.859-.342,1.235,1.235,0,0,0-.859.342L4.244,1.509l-.224.218L3.8,1.509.279-1.877A1.235,1.235,0,0,0-.58-2.219a1.228,1.228,0,0,0-.856.342,1.11,1.11,0,0,0-.348.81,1.121,1.121,0,0,0,.348.81L2.078,3.126l.244.234-.244.234-3.514,3.39a1.115,1.115,0,0,0-.348.81,1.115,1.115,0,0,0,.348.81,1.222,1.222,0,0,0,.856.342A1.23,1.23,0,0,0,.279,8.6L3.8,5.215Z" transform="translate(1.784 2.219)" fill="#4496d8"/></g><g transform="translate(7.816 18.46)"><path d="M4.02,5l.224.218L7.758,8.6a1.252,1.252,0,0,0,.862.342A1.23,1.23,0,0,0,9.479,8.6a1.117,1.117,0,0,0,0-1.623L5.962,3.6l-.244-.234.244-.237L9.479-.26a1.119,1.119,0,0,0,.348-.807,1.126,1.126,0,0,0-.348-.81,1.237,1.237,0,0,0-.862-.342,1.235,1.235,0,0,0-.859.342L4.244,1.509l-.224.218L3.8,1.509.282-1.877a1.23,1.23,0,0,0-.859-.342,1.23,1.23,0,0,0-.859.342,1.121,1.121,0,0,0-.348.81,1.108,1.108,0,0,0,.348.807l3.514,3.39.244.234-.244.231L-1.436,6.981a1.128,1.128,0,0,0-.348.813,1.108,1.108,0,0,0,.348.807,1.218,1.218,0,0,0,.859.345A1.23,1.23,0,0,0,.282,8.6L3.8,5.218Z" transform="translate(1.784 2.219)" fill="#4496d8"/></g><g transform="translate(7.818 57.599)"><path d="M4.02,5l.224.218L7.758,8.6a1.259,1.259,0,0,0,1.718,0,1.12,1.12,0,0,0,0-1.623L5.962,3.595l-.244-.231.244-.234L9.476-.257a1.132,1.132,0,0,0,.348-.81,1.126,1.126,0,0,0-.348-.81,1.23,1.23,0,0,0-.859-.342,1.23,1.23,0,0,0-.859.342L4.244,1.506l-.224.218L3.8,1.506.282-1.877A1.237,1.237,0,0,0-.58-2.219a1.216,1.216,0,0,0-.856.342,1.11,1.11,0,0,0-.348.81,1.121,1.121,0,0,0,.348.81L2.078,3.129l.244.234-.244.231-3.514,3.39a1.115,1.115,0,0,0-.348.81,1.115,1.115,0,0,0,.348.81,1.227,1.227,0,0,0,.856.338A1.235,1.235,0,0,0,.279,8.6L3.8,5.215Z" transform="translate(1.784 2.219)" fill="#4496d8"/></g></g></svg>