<svg xmlns="http://www.w3.org/2000/svg" xmlns:xlink="http://www.w3.org/1999/xlink" width="77.517" height="77.503" viewBox="0 0 77.517 77.503"><defs><clipPath id="a"><path d="M0,56.053H77.517v-77.5H0Z" transform="translate(0 21.45)" fill="#4496d8"/></clipPath></defs><g transform="translate(19.439 12.922)"><path d="M8.373,36.04l8.138-8.872L31.67,10.646,36,5.922H23.063L24.542-4.263l1.616-11.121L17.625-6.369,1.963,10.181l-4.5,4.76h13.2L9.551,25.183ZM5.059,11.953,20.725-4.6,18.76,8.911H28.54L13.382,25.434l1.466-13.481Z" transform="translate(2.538 15.384)" fill="#4496d8"/></g><g clip-path="url(#a)"><g transform="translate(-0.002 0.001)"><path d="M18.034,4.354a35.49,35.49,0,0,1,38.943,7.613c.806.806,1.568,1.648,2.287,2.515H51.235a1.615,1.615,0,1,0,0,3.23H62.5a1.6,1.6,0,0,0,.325-.033c.022,0,.04-.011.061-.014a.906.906,0,0,0,.094-.025L63,17.632A1.62,1.62,0,0,0,64.1,16.288a1.7,1.7,0,0,0,.011-.191V4.791a1.615,1.615,0,0,0-3.23,0V11.41A38.756,38.756,0,0,0-6.9,37.085,1.617,1.617,0,0,0-5.286,38.7,1.624,1.624,0,0,0-3.66,37.085,35.559,35.559,0,0,1,18.034,4.354Z" transform="translate(6.901 1.666)" fill="#4496d8"/></g><g transform="translate(6.505 37.138)"><path d="M50.192,0a1.621,1.621,0,0,0-1.622,1.615A35.379,35.379,0,0,1,38.163,26.73a35.392,35.392,0,0,1-11.291,7.617,35.316,35.316,0,0,1-13.824,2.789A35.346,35.346,0,0,1-.78,34.347,35.431,35.431,0,0,1-12.071,26.73q-1.209-1.209-2.287-2.515h8.032A1.614,1.614,0,0,0-4.714,22.6a1.614,1.614,0,0,0-1.611-1.615H-17.592a1.654,1.654,0,0,0-.325.033c-.018.007-.036.011-.058.018l-.1.022a.027.027,0,0,1-.014.007,1.609,1.609,0,0,0-1.106,1.348,1.644,1.644,0,0,0-.014.188V33.906a1.617,1.617,0,0,0,1.615,1.615,1.615,1.615,0,0,0,1.615-1.615V27.29A38.662,38.662,0,0,0,13.048,40.367,38.908,38.908,0,0,0,51.807,1.615,1.614,1.614,0,0,0,50.192,0Z" transform="translate(19.207 0)" fill="#4496d8"/></g></g></svg>