<svg xmlns="http://www.w3.org/2000/svg" xmlns:xlink="http://www.w3.org/1999/xlink" width="80.281" height="81.97" viewBox="0 0 80.281 81.97"><defs><clipPath id="a"><path d="M0,59.554H80.281v-81.97H0Z" transform="translate(0 22.416)" fill="#4496d8" stroke="#4496d8" stroke-width="0.3"/></clipPath></defs><g clip-path="url(#a)"><g transform="translate(0.002)"><path d="M1.116,59.554A1.526,1.526,0,0,1,.03,59.108a1.507,1.507,0,0,1-.45-1.082v-78.88a1.534,1.534,0,0,1,.435-1.1,1.556,1.556,0,0,1,1.1-.457,1.549,1.549,0,0,1,1.1.457,1.553,1.553,0,0,1,.439,1.1V8.831L28.623,4.823a1.317,1.317,0,0,1,.241-.018,1.571,1.571,0,0,1,.728.176L47.769,15.593,70.646-11.223a1.551,1.551,0,0,1,1.126-.486,1.634,1.634,0,0,1,.347.04,1.54,1.54,0,0,1,1.123,1.046A1.517,1.517,0,0,1,72.9-9.135L50.6,17.059,72.577,29.635a1.569,1.569,0,0,1-1.455,2.779L48.369,19.432l-6.714,7.145a1.549,1.549,0,0,1-1.123.486H22.827L3.329,56.5H78.362a1.55,1.55,0,0,1,1.3.772,1.531,1.531,0,0,1,0,1.514,1.55,1.55,0,0,1-1.3.772ZM2.656,12v39.16l17.8-26.3.037-.066a1.562,1.562,0,0,1,.567-.578A1.629,1.629,0,0,1,21.839,24H39.863l5.672-6.037L28.593,7.994Z" transform="translate(0.42 22.416)" fill="#4496d8"/><path d="M78.364,59.7H1.116a1.673,1.673,0,0,1-1.192-.49A1.657,1.657,0,0,1-.57,58.026v-78.88a1.682,1.682,0,0,1,.478-1.209,1.707,1.707,0,0,1,1.208-.5,1.706,1.706,0,0,1,1.207.5,1.7,1.7,0,0,1,.482,1.212V8.656L28.6,4.676a1.444,1.444,0,0,1,.267-.02,1.722,1.722,0,0,1,.8.193l.006,0L47.737,15.4l22.8-26.725a1.7,1.7,0,0,1,1.236-.534,1.785,1.785,0,0,1,.379.044,1.7,1.7,0,0,1,1.234,1.148,1.667,1.667,0,0,1-.379,1.633L50.831,17.019,72.649,29.5a1.719,1.719,0,0,1-1.6,3.044l-.006,0L48.4,19.621,41.765,26.68a1.7,1.7,0,0,1-1.232.534H22.907L3.608,56.347H78.362a1.679,1.679,0,0,1,0,3.357ZM1.116-22.266a1.4,1.4,0,0,0-.994.413,1.382,1.382,0,0,0-.392.995V58.026A1.36,1.36,0,0,0,.136,59a1.376,1.376,0,0,0,.981.4H78.362a1.4,1.4,0,0,0,1.168-.7,1.384,1.384,0,0,0,0-1.365,1.4,1.4,0,0,0-1.172-.7H3.049l19.7-29.733H40.533a1.4,1.4,0,0,0,1.013-.439l6.795-7.231L71.193,32.282a1.435,1.435,0,0,0,1.92-.6,1.413,1.413,0,0,0-.605-1.911l-.006,0L50.368,17.1,72.786-9.238a1.367,1.367,0,0,0,.313-1.341,1.394,1.394,0,0,0-1.013-.944,1.481,1.481,0,0,0-.313-.036,1.4,1.4,0,0,0-1.015.437L47.8,15.785,29.519,5.112a1.421,1.421,0,0,0-.655-.157,1.152,1.152,0,0,0-.213.016h-.005L2.506,9.006V-20.855a1.4,1.4,0,0,0-.4-1A1.4,1.4,0,0,0,1.116-22.266Zm1.39,73.917V11.873L28.623,7.837l17.15,10.094-5.845,6.221H21.839a1.478,1.478,0,0,0-.708.192,1.412,1.412,0,0,0-.511.522l-.043.076Zm.3-39.521V50.673L20.325,24.78l.033-.06a1.715,1.715,0,0,1,.622-.634,1.782,1.782,0,0,1,.856-.233H39.8L45.3,18,28.563,8.15Z" transform="translate(0.42 22.416)" fill="#4496d8"/></g></g></svg>