<svg xmlns="http://www.w3.org/2000/svg" xmlns:xlink="http://www.w3.org/1999/xlink" width="41.11" height="50.799" viewBox="0 0 41.11 50.799"><defs><clipPath id="a"><rect width="41.11" height="50.799" fill="#4496d8" stroke="#4496d8" stroke-width="0.2"/></clipPath></defs><g clip-path="url(#a)"><path d="M75.326,204.929a.5.5,0,0,1-.5-.5v-7.974H72.651a.5.5,0,0,1-.5-.5v-3.33a.505.505,0,0,1,.147-.355.5.5,0,0,1,.355-.147H93.96l-.116-.294q-.016-.041-.035-.08h.165l-1.168-.965h0l-.462-.381a2.147,2.147,0,0,1-.785-1.665v-7.012a3.945,3.945,0,0,1,3.941-3.941h5.634a3.945,3.945,0,0,1,3.941,3.941v7.012a2.147,2.147,0,0,1-.784,1.665l-1.168.965a1.162,1.162,0,0,0-.331.461l-.116.294h6.979a.5.5,0,0,1,.355.147.505.505,0,0,1,.147.355v3.33a.5.5,0,0,1-.5.5h-2.174v7.974a.5.5,0,0,1-.5.5Zm.5-1H106.48v-7.473H75.829Zm-2.675-8.476h36v-2.329h-36ZM95.5,178.785a2.94,2.94,0,0,0-2.937,2.937v7.012a1.151,1.151,0,0,0,.421.892l1.167.965a2.163,2.163,0,0,1,.76,1.345l.028.183H101.7l.028-.183a2.162,2.162,0,0,1,.76-1.345l1.168-.965a1.152,1.152,0,0,0,.42-.892v-7.012a2.94,2.94,0,0,0-2.938-2.938Z" transform="translate(-69.047 -170.139)" fill="#4496d8"/><path d="M106.981,205.029H75.326a.6.6,0,0,1-.6-.6v-7.874H72.651a.6.6,0,0,1-.6-.6v-3.33a.606.606,0,0,1,.176-.425.6.6,0,0,1,.425-.176H93.813l-.062-.157c-.01-.025-.021-.049-.032-.073l-.07-.144H93.7l-1.168-.965h0l-.247-.2a2.247,2.247,0,0,1-.821-1.742v-7.012a4.045,4.045,0,0,1,4.041-4.041h5.634a4.045,4.045,0,0,1,4.041,4.041v7.012a2.247,2.247,0,0,1-.82,1.742l-1.168.965a1.063,1.063,0,0,0-.3.42l-.062.157h6.832a.6.6,0,0,1,.425.176.606.606,0,0,1,.176.425v3.33a.6.6,0,0,1-.6.6h-2.074v7.874a.6.6,0,0,1-.6.6ZM72.651,192.22a.4.4,0,0,0-.284.118.4.4,0,0,0-.118.284v3.33a.4.4,0,0,0,.4.4h2.274v8.074a.4.4,0,0,0,.4.4h31.655a.4.4,0,0,0,.4-.4v-8.074h2.274a.4.4,0,0,0,.4-.4v-3.33a.4.4,0,0,0-.118-.284.4.4,0,0,0-.284-.118h-7.126l.17-.43a1.265,1.265,0,0,1,.36-.5l1.169-.966a2.048,2.048,0,0,0,.747-1.588v-7.012a3.845,3.845,0,0,0-3.841-3.841H95.5a3.845,3.845,0,0,0-3.841,3.841v7.012a2.048,2.048,0,0,0,.748,1.588l.677.558h0l1.168.965h-.292l.147.374Zm33.93,11.806H75.729v-7.673H106.58Zm-30.652-.2H106.38v-7.273H75.929Zm-2.775-8.276h-.1v-2.529h36.2v2.529Zm.1-2.329v2.129h35.8v-2.129Zm28.533-1H94.853l-.041-.268a2.063,2.063,0,0,0-.725-1.283l-1.167-.964a1.25,1.25,0,0,1-.457-.97v-7.012a3.04,3.04,0,0,1,3.037-3.037h5.637a3.04,3.04,0,0,1,3.038,3.038v7.012a1.251,1.251,0,0,1-.456.97l-1.168.965a2.062,2.062,0,0,0-.725,1.283Zm-6.762-.2h6.59l.015-.1a2.262,2.262,0,0,1,.8-1.407l1.168-.965a1.052,1.052,0,0,0,.384-.815v-7.012a2.84,2.84,0,0,0-2.838-2.838H95.5a2.84,2.84,0,0,0-2.837,2.837v7.012a1.051,1.051,0,0,0,.384.815l1.167.965a2.263,2.263,0,0,1,.795,1.407Z" transform="translate(-69.047 -170.139)" fill="#4496d8"/><path d="M600.762,7.2a3.6,3.6,0,0,1-2.546-6.146,3.6,3.6,0,0,1,5.092,5.092A3.577,3.577,0,0,1,600.762,7.2Zm0-6.2a2.6,2.6,0,1,0,1.837.761A2.583,2.583,0,0,0,600.761,1Z" transform="translate(-571.489)" fill="#4496d8"/><path d="M600.762,7.3h0A3.7,3.7,0,0,1,598.145.984a3.7,3.7,0,0,1,5.233,5.233A3.676,3.676,0,0,1,600.762,7.3Zm0-7.2a3.5,3.5,0,0,0-2.474,5.974,3.5,3.5,0,1,0,4.949-4.949A3.477,3.477,0,0,0,600.761.1Zm0,6.2a2.7,2.7,0,0,1,0-5.395h0a2.7,2.7,0,1,1,0,5.395Zm0-5.295v.1a2.5,2.5,0,1,0,1.766.731,2.484,2.484,0,0,0-1.766-.731Z" transform="translate(-571.489)" fill="#4496d8"/><path d="M393.353,852.083a.5.5,0,0,1-.355-.147.5.5,0,0,1-.147-.355v-1.971a5.227,5.227,0,0,1,3.6-4.959l.509-.166-.483-.232a3.668,3.668,0,1,1,3.178,0l-.482.232.509.166a5.226,5.226,0,0,1,3.6,4.96v1.97a.505.505,0,0,1-.147.355.5.5,0,0,1-.355.147Zm4.717-6.688a4.22,4.22,0,0,0-4.215,4.215v1.469h8.431v-1.469a4.22,4.22,0,0,0-4.216-4.216l.027.428Zm-2.665-4.442a2.665,2.665,0,1,0,.78-1.885,2.65,2.65,0,0,0-.78,1.885l.215-.215-.054.423Z" transform="translate(-375.962 -801.284)" fill="#4496d8"/><path d="M402.787,852.183h-9.435a.6.6,0,0,1-.425-.176.606.606,0,0,1-.176-.425v-1.971a5.326,5.326,0,0,1,3.673-5.054l.272-.089-.258-.124a3.768,3.768,0,1,1,3.265,0l-.258.124.272.089a5.326,5.326,0,0,1,3.672,5.055v1.97a.606.606,0,0,1-.176.425A.6.6,0,0,1,402.787,852.183Zm-4.717-14.8a3.568,3.568,0,0,0-1.546,6.784l.707.34-.746.244a5.127,5.127,0,0,0-3.535,4.865v1.97a.4.4,0,0,0,.118.284.4.4,0,0,0,.284.118h9.435a.4.4,0,0,0,.284-.118.4.4,0,0,0,.118-.284v-1.97a5.126,5.126,0,0,0-3.534-4.865l-.745-.244.707-.34a3.568,3.568,0,0,0-1.546-6.784Zm4.315,13.8h-8.631V849.61a4.32,4.32,0,0,1,4.209-4.314h.2a4.32,4.32,0,0,1,4.222,4.314Zm-8.431-.2h8.231v-1.369a4.12,4.12,0,0,0-4.009-4.114l.02.32-.2.013-.021-.333a4.12,4.12,0,0,0-4.022,4.114Zm4.115-7.262a2.769,2.769,0,0,1-2.755-2.533l-.01.01v-.533l.014.018a2.765,2.765,0,1,1,2.751,3.039Zm-2.545-2.448a2.562,2.562,0,1,0-.007-.571l.239-.239-.12.952Z" transform="translate(-375.962 -801.284)" fill="#4496d8"/><path d="M676.683,852.083a.5.5,0,0,1-.5-.5v-1.971a5.226,5.226,0,0,1,3.6-4.959l.509-.166-.482-.232a3.668,3.668,0,1,1,3.178,0l-.482.232.509.166a5.226,5.226,0,0,1,3.6,4.96v1.97a.5.5,0,0,1-.5.5ZM681.4,845.4a4.22,4.22,0,0,0-4.215,4.215v1.469h8.431v-1.469A4.22,4.22,0,0,0,681.4,845.4l.043.426Zm0-7.107a2.665,2.665,0,1,0,1.884.78,2.649,2.649,0,0,0-1.884-.78Z" transform="translate(-647.112 -801.284)" fill="#4496d8"/><path d="M686.117,852.183h-9.435a.6.6,0,0,1-.6-.6v-1.971a5.325,5.325,0,0,1,3.673-5.054l.272-.089-.258-.124a3.768,3.768,0,1,1,3.265,0l-.258.124.272.089a5.325,5.325,0,0,1,3.672,5.055v1.97a.6.6,0,0,1-.6.6Zm-4.717-14.8a3.568,3.568,0,0,0-1.546,6.784l.707.34-.746.244a5.126,5.126,0,0,0-3.535,4.865v1.97a.4.4,0,0,0,.4.4h9.435a.4.4,0,0,0,.4-.4v-1.97a5.126,5.126,0,0,0-3.534-4.865l-.745-.244.707-.34a3.568,3.568,0,0,0-1.546-6.784Zm4.315,13.8h-8.631V849.61a4.321,4.321,0,0,1,4.205-4.314v0h.2a4.32,4.32,0,0,1,4.225,4.314Zm-8.431-.2h8.231v-1.369a4.12,4.12,0,0,0-4-4.114l.031.314-.2.02-.034-.335a4.121,4.121,0,0,0-4.025,4.114Zm4.115-7.262a2.765,2.765,0,1,1,0-5.529h0a2.765,2.765,0,0,1,0,5.529Zm0-5.33a2.565,2.565,0,1,0,1.813.751,2.55,2.55,0,0,0-1.813-.751Z" transform="translate(-647.112 -801.284)" fill="#4496d8"/><path d="M110.023,852.083a.5.5,0,0,1-.355-.147.5.5,0,0,1-.147-.355v-1.971a5.227,5.227,0,0,1,3.6-4.959l.509-.166-.482-.232a3.668,3.668,0,1,1,3.178,0l-.482.232.509.166a5.226,5.226,0,0,1,3.6,4.96v1.97a.5.5,0,0,1-.147.355.5.5,0,0,1-.355.147Zm4.717-6.688a4.22,4.22,0,0,0-4.215,4.215v1.469h8.431v-1.469a4.22,4.22,0,0,0-4.216-4.216l.043.426Zm0-7.107a2.665,2.665,0,1,0,1.884.78,2.647,2.647,0,0,0-1.884-.78Z" transform="translate(-104.813 -801.284)" fill="#4496d8"/><path d="M119.457,852.183h-9.435a.6.6,0,0,1-.425-.176.605.605,0,0,1-.176-.425v-1.971a5.327,5.327,0,0,1,3.673-5.054l.272-.089-.258-.124a3.768,3.768,0,1,1,3.265,0l-.258.124.272.089a5.326,5.326,0,0,1,3.672,5.055v1.97a.606.606,0,0,1-.176.425A.6.6,0,0,1,119.457,852.183Zm-4.717-14.8a3.568,3.568,0,0,0-1.546,6.784l.707.34-.746.244a5.127,5.127,0,0,0-3.535,4.865v1.97a.4.4,0,0,0,.118.284.4.4,0,0,0,.284.118h9.435a.4.4,0,0,0,.284-.118.4.4,0,0,0,.118-.284v-1.97a5.126,5.126,0,0,0-3.534-4.865l-.745-.244.707-.34a3.568,3.568,0,0,0-1.546-6.784Zm4.315,13.8h-8.631V849.61a4.32,4.32,0,0,1,4.205-4.314v0h.2a4.32,4.32,0,0,1,4.226,4.315Zm-8.431-.2h8.231v-1.369a4.12,4.12,0,0,0-4-4.114l.032.314-.2.02v0l-.034-.331a4.12,4.12,0,0,0-4.025,4.114Zm4.115-7.262a2.765,2.765,0,0,1,0-5.529h0a2.765,2.765,0,0,1,0,5.529Zm0-5.43v.1a2.565,2.565,0,1,0,1.813.751,2.548,2.548,0,0,0-1.813-.751Z" transform="translate(-104.813 -801.284)" fill="#4496d8"/><path d="M15.423,28.62a.5.5,0,0,1-.343-.135l-3.66-3.428H.5a.505.505,0,0,1-.355-.147A.5.5,0,0,1,0,24.555V14.727a.5.5,0,0,1,.147-.355A.505.505,0,0,1,.5,14.225H20.09a.505.505,0,0,1,.355.147.5.5,0,0,1,.147.355v9.828a.5.5,0,0,1-.147.355.505.505,0,0,1-.355.147H15.924v3.062a.5.5,0,0,1-.49.5ZM1,24.054H11.618a.5.5,0,0,1,.343.136l2.96,2.773V24.555a.5.5,0,0,1,.5-.5h4.165V15.228H1Z" transform="translate(0 -13.613)" fill="#4496d8"/><path d="M15.424,28.72h0a.6.6,0,0,1-.411-.162l-3.631-3.4H.5a.606.606,0,0,1-.425-.176A.6.6,0,0,1-.1,24.555V14.727A.6.6,0,0,1,.076,14.3.606.606,0,0,1,.5,14.125H20.09a.606.606,0,0,1,.425.176.6.6,0,0,1,.176.425v9.828a.6.6,0,0,1-.176.425.606.606,0,0,1-.425.176H16.024v2.962a.6.6,0,0,1-.588.6Zm-4-3.764h.04l3.689,3.455a.4.4,0,0,0,.274.108h.01a.4.4,0,0,0,.392-.4V24.957H20.09a.4.4,0,0,0,.284-.118.4.4,0,0,0,.118-.284V14.727a.4.4,0,0,0-.118-.284.4.4,0,0,0-.284-.118H.5a.4.4,0,0,0-.284.118.4.4,0,0,0-.117.284v9.828a.4.4,0,0,0,.117.284.4.4,0,0,0,.284.118Zm3.6,2.236-3.129-2.93a.4.4,0,0,0-.274-.109H.9V15.128H19.688v9.025H15.423a.4.4,0,0,0-.4.4ZM1.1,23.954H11.618a.6.6,0,0,1,.411.163l2.792,2.615V24.555a.6.6,0,0,1,.6-.6h4.065V15.328H1.1Z" transform="translate(0 -13.613)" fill="#4496d8"/><path d="M79.148,97.071a.5.5,0,1,1,0-1h7a.5.5,0,1,1,0,1Z" transform="translate(-75.265 -91.938)" fill="#4496d8"/><path d="M86.15,97.171h-7a.6.6,0,1,1,0-1.2h7a.6.6,0,1,1,0,1.2Zm-7-1a.4.4,0,1,0,0,.8h7a.4.4,0,1,0,0-.8Z" transform="translate(-75.265 -91.938)" fill="#4496d8"/><path d="M79.151,160.425a.5.5,0,0,1,0-1H91.759a.5.5,0,0,1,.355.147.5.5,0,0,1,.147.355.5.5,0,0,1-.5.5Z" transform="translate(-75.269 -152.568)" fill="#4496d8"/><path d="M91.759,160.525H79.151a.6.6,0,0,1,0-1.2H91.759a.6.6,0,0,1,.425.176.605.605,0,0,1,.176.425.6.6,0,0,1-.6.6Zm-12.608-1a.4.4,0,0,0,0,.8H91.759a.4.4,0,0,0,.4-.4.4.4,0,0,0-.118-.284.4.4,0,0,0-.284-.118Z" transform="translate(-75.269 -152.568)" fill="#4496d8"/></g></svg>