<svg xmlns="http://www.w3.org/2000/svg" xmlns:xlink="http://www.w3.org/1999/xlink" width="38.908" height="37.564" viewBox="0 0 38.908 37.564"><defs><clipPath id="a"><rect width="38.908" height="37.564" fill="#4496d8"/></clipPath></defs><g transform="translate(-1255 2265)"><g transform="translate(1255 -2265)"><path d="M501.451,410.5h6.8v22.934h-6.8Zm-1.264,24.2h9.33V409.235h-9.33Z" transform="translate(-484.172 -397.136)" fill="#4496d8"/><path d="M1.264,1.268h6.8V36.3h-6.8ZM0,37.568H9.33V0H0Z" transform="translate(2.454 -0.004)" fill="#4496d8"/><path d="M1001.638,728.845h6.8v13.524h-6.8Zm-1.264,14.788h9.33V727.581h-9.33Z" transform="translate(-970.797 -706.07)" fill="#4496d8"/><g transform="translate(0 0)"><g clip-path="url(#a)"><path d="M1001.006,100.343a.619.619,0,0,0-.437,1.071l4.033,4.033a.59.59,0,0,0,.875,0l4.034-4.034,0,0,0,0c.012-.011.024-.023.035-.035a.588.588,0,0,0-.035-.83l0,0,0,0a.586.586,0,0,0-.876,0l-2.712,2.711-.252.252V91.565a.632.632,0,1,0-1.264,0V103.5l-.252-.253-2.712-2.714a.63.63,0,0,0-.438-.194" transform="translate(-970.797 -88.245)" fill="#4496d8"/></g></g></g></g></svg>