<svg xmlns="http://www.w3.org/2000/svg" xmlns:xlink="http://www.w3.org/1999/xlink" width="35.955" height="40.581" viewBox="0 0 35.955 40.581"><defs><clipPath id="a"><rect width="35.955" height="40.581" fill="#4496d8" stroke="#4496d8" stroke-width="0.4"/></clipPath></defs><g clip-path="url(#a)"><path d="M266.835,176.468v-2.44l3.385-1.92a.422.422,0,0,0,.188-.226.447.447,0,0,0,0-.3.423.423,0,0,0-.178-.22h0l-7.955-4.508a.391.391,0,0,0-.388,0l-7.968,4.508a.422.422,0,0,0-.188.226.447.447,0,0,0,0,.3.422.422,0,0,0,.189.227l.562.316v2.826a1.063,1.063,0,0,0-.5.455,1.142,1.142,0,0,0-.122.794,1.107,1.107,0,0,0,.349.606l-.241,1.5a.441.441,0,0,0,.09.354.4.4,0,0,0,.316.151H255.4a.4.4,0,0,0,.318-.151.44.44,0,0,0,.091-.351l-.241-1.5a1.107,1.107,0,0,0,.349-.606,1.142,1.142,0,0,0-.122-.794,1.063,1.063,0,0,0-.5-.455V172.89l2.017,1.138v2.44c0,1.793,2.135,3.252,4.76,3.252s4.76-1.459,4.76-3.252m-11.973,1.8.028-.181.028.181Zm.193-1.823a.226.226,0,0,1-.33,0,.253.253,0,0,1,0-.346.226.226,0,0,1,.33,0,.253.253,0,0,1,0,.346m1.341-3.9,5.706-.377a.41.41,0,0,0,.341-.237.447.447,0,0,0-.026-.427.4.4,0,0,0-.366-.191l-7.013.462-.061-.035,7.1-4.021,7.1,4.022-7.1,4.022Zm1.736,3.93V174.5l3.742,2.13a.4.4,0,0,0,.4,0l3.751-2.124-.009,1.966h0a2.053,2.053,0,0,1-1.127,1.67,5.823,5.823,0,0,1-5.634,0,2.054,2.054,0,0,1-1.127-1.67" transform="translate(-244.092 -160.175)" fill="#4496d8"/><path d="M262.075,179.92c-2.735,0-4.96-1.549-4.96-3.452v-2.323l-1.617-.912v1.9a1.263,1.263,0,0,1,.471.479,1.342,1.342,0,0,1,.143.933,1.3,1.3,0,0,1-.33.636l.225,1.4a.637.637,0,0,1-.133.509.6.6,0,0,1-.468.225h-1.029a.6.6,0,0,1-.471-.226.641.641,0,0,1-.132-.514l.224-1.395a1.3,1.3,0,0,1-.33-.636,1.342,1.342,0,0,1,.143-.933,1.264,1.264,0,0,1,.471-.479v-2.586l-.46-.258a.623.623,0,0,1-.279-.334.647.647,0,0,1,0-.435.622.622,0,0,1,.278-.333l7.968-4.508a.6.6,0,0,1,.585,0l8.118,4.6-.015.031a.632.632,0,0,1,.12.2.648.648,0,0,1,0,.435.622.622,0,0,1-.278.333l-3.283,1.862v2.324C267.035,178.371,264.81,179.92,262.075,179.92Zm-6.977-7.372,2.417,1.363v2.557c0,1.683,2.046,3.052,4.56,3.052s4.56-1.369,4.56-3.052v-2.557l3.486-1.977a.222.222,0,0,0,.1-.12.247.247,0,0,0,0-.166.224.224,0,0,0-.093-.117l-.014-.008-7.936-4.5a.194.194,0,0,0-.191,0l-7.968,4.508a.222.222,0,0,0-.1.12.246.246,0,0,0,0,.166.223.223,0,0,0,.1.12l.663.373v3.074l-.119.053a.86.86,0,0,0-.4.37.942.942,0,0,0-.1.655.9.9,0,0,0,.285.5l.083.073-.259,1.609a.243.243,0,0,0,.048.2.2.2,0,0,0,.155.077h1.034a.2.2,0,0,0,.157-.077.239.239,0,0,0,.049-.191l-.259-1.614.083-.073a.9.9,0,0,0,.285-.5.942.942,0,0,0-.1-.655.859.859,0,0,0-.4-.37l-.119-.053Zm6.977,6.518a5.59,5.59,0,0,1-2.923-.757,2.243,2.243,0,0,1-1.221-1.839v-2.316l4.041,2.3a.2.2,0,0,0,.2,0l4.055-2.3-.011,2.311A2.243,2.243,0,0,1,265,178.308,5.59,5.59,0,0,1,262.075,179.065Zm-3.744-4.225v1.628a1.865,1.865,0,0,0,1.033,1.5,5.626,5.626,0,0,0,5.422,0,1.865,1.865,0,0,0,1.033-1.5l.007-1.623-3.451,1.954a.6.6,0,0,1-.605,0Zm-3.179,3.624h-.524l.064-.412h.4Zm-.262-1.751a.425.425,0,0,1-.31-.133.453.453,0,0,1,0-.622.426.426,0,0,1,.619,0,.453.453,0,0,1,0,.622A.424.424,0,0,1,254.89,176.713Zm7.185-.725-6.359-3.6,6.372-.421a.21.21,0,0,0,.173-.123.246.246,0,0,0-.014-.235.2.2,0,0,0-.184-.1l-7.073.466-.421-.239,7.505-4.251,7.5,4.252Zm-5-3.294,5,2.834,6.691-3.792-6.691-3.792-6.318,3.578,6.28-.414h.038a.6.6,0,0,1,.51.285.649.649,0,0,1,.037.62.61.61,0,0,1-.508.351Z" transform="translate(-244.092 -160.175)" fill="#4496d8"/><path d="M32.929,820.486a35.2,35.2,0,0,0-7.218-1.392l-.042,0a.41.41,0,0,0-.4.382.42.42,0,0,0,.362.464,34.981,34.981,0,0,1,6.948,1.321c2.3.758,2.545,1.432,2.566,1.621l0,.043,0,.043c-.043.4-.634.786-1.122,1.037a15.943,15.943,0,0,1-3.834,1.215,62.048,62.048,0,0,1-12.21,1.073,62.038,62.038,0,0,1-12.21-1.073c-2.93-.619-4.876-1.5-4.956-2.25l0-.036,0-.036c.014-.19.241-.869,2.567-1.637a34.954,34.954,0,0,1,6.948-1.321.42.42,0,0,0,.362-.465.41.41,0,0,0-.4-.382l-.042,0a35.2,35.2,0,0,0-7.218,1.392C.99,821.174,0,821.972,0,822.925c0,.607.407,1.148,1.244,1.652a14.521,14.521,0,0,0,4.227,1.444,62.256,62.256,0,0,0,12.507,1.119,62.228,62.228,0,0,0,12.507-1.119,14.516,14.516,0,0,0,4.227-1.444c.837-.5,1.244-1.045,1.244-1.652,0-.953-.99-1.75-3.026-2.439" transform="translate(0 -786.56)" fill="#4496d8"/><path d="M17.977,827.34a62.456,62.456,0,0,1-12.549-1.124,14.706,14.706,0,0,1-4.288-1.468c-.9-.543-1.34-1.14-1.34-1.823,0-1.049,1.035-1.909,3.163-2.629a35.389,35.389,0,0,1,7.261-1.4.625.625,0,0,1,.063,0,.609.609,0,0,1,.6.563.621.621,0,0,1-.54.682,34.759,34.759,0,0,0-6.907,1.312c-2.352.777-2.428,1.434-2.43,1.462v.018l0,.018c.056.524,1.582,1.4,4.8,2.076a61.837,61.837,0,0,0,12.169,1.068,61.846,61.846,0,0,0,12.169-1.068,15.755,15.755,0,0,0,3.784-1.2c.619-.318.989-.639,1.015-.88l0-.022,0-.022c0-.027-.1-.684-2.429-1.453a34.788,34.788,0,0,0-6.906-1.312.62.62,0,0,1-.54-.682.609.609,0,0,1,.6-.563c.02,0,.041,0,.061,0a35.4,35.4,0,0,1,7.262,1.4c2.128.719,3.162,1.579,3.162,2.628,0,.684-.438,1.28-1.34,1.823a14.7,14.7,0,0,1-4.288,1.468A62.428,62.428,0,0,1,17.977,827.34Zm-7.691-8.048h-.022a35,35,0,0,0-7.174,1.382C1.146,821.333.2,822.069.2,822.925c0,.531.375,1.016,1.147,1.48a14.339,14.339,0,0,0,4.166,1.42,62.053,62.053,0,0,0,12.465,1.115,62.025,62.025,0,0,0,12.465-1.115,14.334,14.334,0,0,0,4.166-1.42c.772-.465,1.147-.949,1.147-1.481,0-.856-.945-1.592-2.89-2.249a35.011,35.011,0,0,0-7.175-1.382h-.021a.211.211,0,0,0-.2.2.22.22,0,0,0,.184.246,35.177,35.177,0,0,1,6.99,1.33c2.261.746,2.663,1.441,2.7,1.789l.007.065-.007.065c-.042.395-.456.8-1.23,1.194a16.133,16.133,0,0,1-3.884,1.233,62.246,62.246,0,0,1-12.251,1.077,62.236,62.236,0,0,1-12.251-1.077C4.561,825.169.75,824.267.613,822.99l-.006-.055,0-.055c.026-.352.412-1.055,2.7-1.812a35.148,35.148,0,0,1,6.99-1.33.22.22,0,0,0,.184-.247A.211.211,0,0,0,10.287,819.292Z" transform="translate(0 -786.56)" fill="#4496d8"/><path d="M139.765,36.794a.395.395,0,0,0,.671,0c.881-1.371,2.145-3.025,3.484-4.776,4.165-5.448,9.348-12.228,9.348-18.216,0-7.61-5.907-13.8-13.167-13.8s-13.169,6.192-13.169,13.8c0,5.987,5.183,12.768,9.348,18.216,1.339,1.751,2.6,3.406,3.484,4.775M140.1.848h0c6.814,0,12.358,5.811,12.358,12.954,0,5.689-5.085,12.341-9.171,17.686l0,0c-1.064,1.392-2.069,2.706-2.89,3.888l-.3.426-.3-.425c-.82-1.179-1.825-2.494-2.889-3.886l0-.006c-4.085-5.345-9.17-12-9.17-17.685,0-7.143,5.545-12.953,12.36-12.953" transform="translate(-122.123 0)" fill="#4496d8"/><path d="M140.1,37.181a.6.6,0,0,1-.5-.279c-.876-1.363-2.138-3.014-3.475-4.762-4.183-5.472-9.389-12.283-9.389-18.338,0-7.721,6-14,13.369-14s13.367,6.281,13.367,14c0,6.056-5.206,12.866-9.389,18.337-1.337,1.748-2.6,3.4-3.475,4.763A.6.6,0,0,1,140.1,37.181ZM140.1.2c-7.151,0-12.969,6.1-12.969,13.6,0,5.919,5.161,12.67,9.307,18.095,1.342,1.755,2.609,3.412,3.494,4.789a.195.195,0,0,0,.335,0c.885-1.378,2.152-3.035,3.493-4.789,4.147-5.424,9.307-12.175,9.307-18.095C153.069,6.3,147.252.2,140.1.2Zm0,35.955-.46-.662c-.817-1.176-1.821-2.489-2.884-3.879l0,0c-4.1-5.37-9.212-12.051-9.212-17.808,0-7.253,5.634-13.153,12.56-13.153h0c6.925,0,12.558,5.9,12.558,13.154,0,5.756-5.108,12.438-9.212,17.808l-.006.008c-1.061,1.388-2.064,2.7-2.881,3.876Zm0-35.107c-6.7,0-12.16,5.721-12.16,12.753,0,5.621,5.062,12.243,9.129,17.564l0,0c1.066,1.395,2.073,2.712,2.9,3.895l.131.189.131-.189c.823-1.184,1.828-2.5,2.892-3.89l0,0c4.07-5.325,9.132-11.947,9.132-17.568,0-7.032-5.454-12.754-12.158-12.754Z" transform="translate(-122.123 0)" fill="#4496d8"/></g></svg>