<svg xmlns="http://www.w3.org/2000/svg" xmlns:xlink="http://www.w3.org/1999/xlink" width="43.304" height="48.079" viewBox="0 0 43.304 48.079"><defs><clipPath id="a"><rect width="43.304" height="48.079" fill="#4496d8" stroke="#4496d8" stroke-width="0.2"/></clipPath></defs><g transform="translate(-1876.848 1404.499)"><g transform="translate(1876.848 -1404.499)"><g transform="translate(0 0)" clip-path="url(#a)"><path d="M1.348,48.076A1.35,1.35,0,0,1,0,46.727V45.506a1.349,1.349,0,0,1,1.347-1.347H3.872v-19.6H.734a.762.762,0,0,1-.664-.388.628.628,0,0,1,.045-.649l3.937-5.625,0-.006a.771.771,0,0,1,.611-.3h9.484V14.028a.674.674,0,0,1,.2-.485L21.19,6.709V.458a.464.464,0,0,1,.135-.326A.457.457,0,0,1,21.651,0h6.44a.461.461,0,0,1,.342.77l-1.7,1.8,1.691,1.794a.461.461,0,0,1-.336.777H22.112V6.707l6.839,6.839a.686.686,0,0,1,.2.484v3.558h9.484a.772.772,0,0,1,.613.3l.006.008,3.93,5.618a.623.623,0,0,1,.05.648.758.758,0,0,1-.663.391l-.216,0v0H39.434v19.6h2.524A1.349,1.349,0,0,1,43.3,45.508v1.221a1.349,1.349,0,0,1-1.347,1.347H1.348Zm0-2.993a.425.425,0,0,0-.425.424v1.22a.427.427,0,0,0,.422.425H41.959a.427.427,0,0,0,.425-.422l0-.205h0l0-1.018a.426.426,0,0,0-.425-.424Zm20.766-.922h3.6v-8.77l-.005-.023a.215.215,0,0,0-.161-.161l-.023-.005H22.112Zm-4.344-8.955a.217.217,0,0,0-.169.164l-.005.022v8.769h3.6V35.2h-3.4ZM30.683,24.558v19.6h7.829v-19.6ZM25.5,34.28a1.136,1.136,0,0,1,1.135,1.135v8.746h3.129V20.878a.257.257,0,0,0-.249-.237H13.786a.256.256,0,0,0-.241.241V44.162h3.128V35.415a1.137,1.137,0,0,1,1.135-1.135Zm-20.7,9.878h7.829v-19.6H4.793Zm24.361-24.44h.352a1.178,1.178,0,0,1,1.176,1.176v2.741H42.142L38.555,18.51h-9.4ZM1.159,23.633H12.623V20.892A1.177,1.177,0,0,1,13.8,19.717h.353V18.508h-9.4Zm13.915-9.505v5.59H28.231V14.129L21.652,7.551Zm7.038-9.913h4.912L25.769,2.884a.461.461,0,0,1,0-.632L27.024.919H22.112ZM33.624,42.736l-.2,0a.768.768,0,0,1-.768-.766V39.212a.767.767,0,0,1,.768-.768h2.76a.768.768,0,0,1,.768.768v2.757a.773.773,0,0,1-.225.543.762.762,0,0,1-.543.225H33.624Zm-.047-3.369v2.446h2.449V39.368ZM7.124,42.736a.762.762,0,0,1-.543-.225.773.773,0,0,1-.225-.543V39.212a.768.768,0,0,1,.768-.768H9.883a.768.768,0,0,1,.768.768v2.757a.768.768,0,0,1-.768.768Zm.155-.923H9.728V39.366H7.279Zm26.344-5.307h-.2a.768.768,0,0,1-.768-.767V32.981a.768.768,0,0,1,.768-.768h2.76a.768.768,0,0,1,.768.768v2.757a.768.768,0,0,1-.768.768Zm-.047-3.369v2.447h2.449V33.137ZM7.124,36.505a.768.768,0,0,1-.768-.768V32.981a.762.762,0,0,1,.225-.543.773.773,0,0,1,.543-.225H9.881a.768.768,0,0,1,.77.767v2.757a.768.768,0,0,1-.768.768Zm.155-.922H9.728V33.136H7.279Zm15.828-3.209a.768.768,0,0,1-.768-.768V28.85a.763.763,0,0,1,.225-.543.773.773,0,0,1,.543-.225h2.759a.768.768,0,0,1,.768.767v2.757a.763.763,0,0,1-.225.543.773.773,0,0,1-.543.225Zm.154-.923h2.45V29h-2.45Zm-5.822.923a.768.768,0,0,1-.768-.768V28.85a.768.768,0,0,1,.768-.768H20.2a.768.768,0,0,1,.768.767v2.757a.763.763,0,0,1-.225.543.773.773,0,0,1-.543.225Zm.155-.923h2.449l0-2.447H17.595ZM7.124,30.276a.768.768,0,0,1-.768-.768V26.752a.768.768,0,0,1,.768-.768H9.883a.773.773,0,0,1,.542.224.763.763,0,0,1,.226.543v2.757a.768.768,0,0,1-.768.768Zm.155-.924H9.728V26.906H7.279Zm26.142.922a.768.768,0,0,1-.768-.766V26.752a.768.768,0,0,1,.768-.768h2.76a.768.768,0,0,1,.768.768v2.755a.763.763,0,0,1-.225.543.773.773,0,0,1-.543.225Zm.155-.922h2.449V26.906H33.577Zm-10.47-2.546a.771.771,0,0,1-.768-.768V23.283a.768.768,0,0,1,.768-.768h2.759a.768.768,0,0,1,.768.767v2.757a.768.768,0,0,1-.768.768Zm.154-.919h2.45v-2.45h-2.45Zm-5.821.919a.763.763,0,0,1-.543-.225.773.773,0,0,1-.225-.543V23.283a.773.773,0,0,1,.225-.543.762.762,0,0,1,.543-.225H20.2a.768.768,0,0,1,.768.767v2.757a.768.768,0,0,1-.768.768Zm.155-.92h2.447v-2.45H17.595Zm4.058-7.378A3.319,3.319,0,1,1,24,17.538a3.3,3.3,0,0,1-2.347.971Zm0-5.715a2.4,2.4,0,1,0,1.7.7,2.386,2.386,0,0,0-1.7-.7Z" transform="translate(0 0.003)" fill="#4496d8"/><path d="M41.956,48.176H1.348A1.45,1.45,0,0,1-.1,46.727V45.506a1.449,1.449,0,0,1,1.447-1.447H3.772v-19.4H.734a.862.862,0,0,1-.751-.439.728.728,0,0,1,.051-.756l3.942-5.632a.873.873,0,0,1,.692-.345h9.384V14.028a.775.775,0,0,1,.236-.557l6.8-6.8V.458a.565.565,0,0,1,.165-.4.557.557,0,0,1,.4-.164h6.44a.561.561,0,0,1,.416.937L26.875,2.568,28.5,4.293a.561.561,0,0,1-.409.946H22.212V6.665l6.81,6.809a.787.787,0,0,1,.231.555v3.458h9.384a.873.873,0,0,1,.692.345l.006.008,3.932,5.621a.723.723,0,0,1,.057.751.858.858,0,0,1-.752.445l-.147,0-.068,0H39.534v19.4h2.424A1.449,1.449,0,0,1,43.4,45.508v1.221a1.449,1.449,0,0,1-1.447,1.447ZM1.348,44.259A1.249,1.249,0,0,0,.1,45.506v1.221a1.25,1.25,0,0,0,1.247,1.249H41.956A1.249,1.249,0,0,0,43.2,46.729V45.508a1.249,1.249,0,0,0-1.228-1.247H39.334v-19.8l3.024,0,.216,0a.658.658,0,0,0,.574-.339.519.519,0,0,0,.054-.273.527.527,0,0,0-.1-.269l-3.935-5.624a.672.672,0,0,0-.533-.265H29.053V14.03a.586.586,0,0,0-.173-.413L22.012,6.748V5.039h6.081a.361.361,0,0,0,.263-.609L26.6,2.568,28.36.7a.361.361,0,0,0-.269-.6h-6.44A.358.358,0,0,0,21.4.2a.363.363,0,0,0-.106.256V6.751l-6.863,6.863a.575.575,0,0,0-.176.414v3.657H4.668a.671.671,0,0,0-.531.264l0,0L.2,23.576a.529.529,0,0,0-.038.546.662.662,0,0,0,.575.334H3.972v19.8ZM41.96,47.253H1.343a.528.528,0,0,1-.522-.524V45.508a.526.526,0,0,1,.525-.524H41.954a.526.526,0,0,1,.525.524l.007,1.02,0,.205A.528.528,0,0,1,41.96,47.253ZM1.346,45.184a.325.325,0,0,0-.325.324v1.22a.328.328,0,0,0,.323.325H41.959a.328.328,0,0,0,.325-.323l0-.136,0-.068,0-1.018a.326.326,0,0,0-.325-.324Zm24.465-.922h-3.8V35.1h3.521l.034.008a.315.315,0,0,1,.236.236l.008.034Zm-3.6-.2h3.4V35.4l0-.012a.116.116,0,0,0-.087-.087l-.012,0h-3.3Zm-4.718.2,0-8.891.005-.022a.317.317,0,0,1,.247-.24l.039-.006h3.5v9.159Zm.2-8.858v8.658h3.4V35.3l-3.3,0a.116.116,0,0,0-.091.088Zm20.918,8.858H30.583v-19.8h8.029Zm-7.829-.2h7.629v-19.4H30.783Zm-.921.2H26.533V35.415A1.036,1.036,0,0,0,25.5,34.38h-7.69a1.037,1.037,0,0,0-1.036,1.035v8.846H13.444V20.876a.356.356,0,0,1,.335-.335H29.512a.357.357,0,0,1,.349.329V44.262Zm-3.129-.2h2.929V20.886a.157.157,0,0,0-.152-.145H13.792a.156.156,0,0,0-.147.147V44.062h2.928V35.415a1.237,1.237,0,0,1,1.235-1.235H25.5a1.236,1.236,0,0,1,1.235,1.235Zm-14.01.2H4.693v-19.8h8.029Zm-7.829-.2h7.629v-19.4H4.893Zm31.086-1.222-2.559,0a.868.868,0,0,1-.867-.866V39.212a.867.867,0,0,1,.868-.868h2.76a.868.868,0,0,1,.868.868v2.757a.874.874,0,0,1-.254.613.862.862,0,0,1-.614.254Zm-2.558-4.292a.667.667,0,0,0-.668.668v2.756a.668.668,0,0,0,.668.666l.2,0h2.557a.663.663,0,0,0,.472-.2.672.672,0,0,0,.2-.472V39.212a.668.668,0,0,0-.668-.668ZM9.883,42.836H7.124a.861.861,0,0,1-.613-.254.874.874,0,0,1-.254-.613V39.212a.868.868,0,0,1,.868-.868H9.883a.868.868,0,0,1,.868.868v2.757a.868.868,0,0,1-.868.868ZM7.124,38.544a.668.668,0,0,0-.668.668v2.757a.672.672,0,0,0,.2.472.663.663,0,0,0,.472.2H9.883a.668.668,0,0,0,.668-.668V39.212a.668.668,0,0,0-.668-.668Zm29,3.37H33.477V39.268h2.649Zm-2.449-.2h2.249V39.468H33.677Zm-23.849.2H7.179V39.266H9.829Zm-2.449-.2H9.628V39.466H7.379Zm28.8-5.107h-2.76a.868.868,0,0,1-.867-.867V32.981a.868.868,0,0,1,.868-.868h2.76a.868.868,0,0,1,.868.868v2.757a.868.868,0,0,1-.868.868Zm-2.76-4.292a.668.668,0,0,0-.668.668v2.757a.668.668,0,0,0,.668.667h2.76a.668.668,0,0,0,.668-.668V32.981a.668.668,0,0,0-.668-.668ZM9.883,36.605H7.124a.868.868,0,0,1-.868-.868V32.981a.862.862,0,0,1,.254-.613.874.874,0,0,1,.613-.254H9.881a.868.868,0,0,1,.869.867v2.757a.868.868,0,0,1-.868.868ZM7.124,32.313a.672.672,0,0,0-.472.2.663.663,0,0,0-.2.472v2.757a.668.668,0,0,0,.668.668H9.883a.668.668,0,0,0,.668-.668V32.981a.668.668,0,0,0-.67-.667Zm29,3.371H33.477V33.037h2.649Zm-2.449-.2h2.249V33.237H33.677Zm-23.849.2H7.179V33.036H9.829Zm-2.449-.2H9.628V33.236H7.379Zm18.486-3.009H23.107a.868.868,0,0,1-.868-.868V28.85a.862.862,0,0,1,.254-.614.874.874,0,0,1,.614-.254h2.759a.868.868,0,0,1,.868.867v2.757a.863.863,0,0,1-.254.614A.874.874,0,0,1,25.866,32.474Zm-2.759-4.292a.672.672,0,0,0-.472.2.663.663,0,0,0-.2.472v2.757a.668.668,0,0,0,.668.668h2.759a.672.672,0,0,0,.472-.2.664.664,0,0,0,.2-.472V28.85a.668.668,0,0,0-.668-.667ZM20.2,32.474H17.44a.868.868,0,0,1-.868-.868V28.85a.868.868,0,0,1,.868-.868H20.2a.868.868,0,0,1,.868.867v2.757a.862.862,0,0,1-.254.614A.874.874,0,0,1,20.2,32.474ZM17.44,28.183a.668.668,0,0,0-.668.668v2.757a.668.668,0,0,0,.668.668H20.2a.672.672,0,0,0,.472-.2.663.663,0,0,0,.2-.472V28.85a.668.668,0,0,0-.668-.667Zm8.371,3.369h-2.65V28.9h2.65Zm-2.45-.2h2.25V29.1h-2.25Zm-3.218.2H17.495V28.9h2.647Zm-2.449-.2h2.249l0-2.247H17.695Zm-7.811-.975H7.124a.868.868,0,0,1-.868-.868V26.752a.868.868,0,0,1,.868-.868H9.883a.874.874,0,0,1,.613.253.862.862,0,0,1,.255.614v2.757a.868.868,0,0,1-.868.868ZM7.124,26.084a.668.668,0,0,0-.668.668v2.757a.668.668,0,0,0,.668.668H9.883a.668.668,0,0,0,.668-.668V26.752a.663.663,0,0,0-.2-.473.673.673,0,0,0-.472-.195Zm29.057,4.29h-2.76a.868.868,0,0,1-.868-.866V26.752a.868.868,0,0,1,.868-.868h2.76a.868.868,0,0,1,.868.868v2.755a.862.862,0,0,1-.254.614A.874.874,0,0,1,36.181,30.374Zm-2.76-4.29a.668.668,0,0,0-.668.668v2.756a.668.668,0,0,0,.668.666h2.76a.672.672,0,0,0,.472-.2.663.663,0,0,0,.2-.472V26.752a.668.668,0,0,0-.668-.668ZM9.828,29.453H7.179V26.806H9.829Zm-2.449-.2H9.628V27.006H7.379Zm28.747.2H33.477V26.806h2.649Zm-2.449-.2h2.249V27.006H33.677Zm-7.811-2.346H23.107a.871.871,0,0,1-.868-.868V23.283a.868.868,0,0,1,.868-.868h2.759a.868.868,0,0,1,.868.867v2.757a.868.868,0,0,1-.868.868Zm-2.759-4.292a.668.668,0,0,0-.668.668v2.756a.671.671,0,0,0,.668.668h2.758a.668.668,0,0,0,.668-.668V23.283a.668.668,0,0,0-.668-.667ZM20.2,26.907H17.44a.862.862,0,0,1-.613-.254.874.874,0,0,1-.254-.614V23.283a.874.874,0,0,1,.254-.613.862.862,0,0,1,.613-.254H20.2a.868.868,0,0,1,.868.867v2.757a.868.868,0,0,1-.868.868ZM17.44,22.615a.663.663,0,0,0-.472.2.672.672,0,0,0-.2.472v2.756a.673.673,0,0,0,.2.472.663.663,0,0,0,.472.2H20.2a.668.668,0,0,0,.668-.668V23.283a.668.668,0,0,0-.668-.667Zm8.371,3.372h-2.65v-2.65h2.65Zm-2.45-.2h2.25v-2.25h-2.25Zm-3.219.2H17.495v-2.65h2.647Zm-2.447-.2h2.247v-2.25H17.695Zm24.639-2.052H30.583V20.894a1.078,1.078,0,0,0-1.077-1.076h-.452V18.41h9.553Zm-11.551-.2H41.95L38.5,18.61H29.254v1.009h.252a1.278,1.278,0,0,1,1.276,1.275Zm-18.059.2H.967L4.7,18.408h9.557v1.409H13.8a1.077,1.077,0,0,0-1.075,1.076Zm-11.372-.2H12.523V20.892A1.277,1.277,0,0,1,13.8,19.617h.253V18.608H4.8Zm26.979-3.715H14.976V14.086l6.678-6.677,6.678,6.678Zm-13.155-.2H28.131V14.17L21.652,7.692l-6.478,6.477Zm6.477-1.008a3.419,3.419,0,1,1,2.418-1,3.4,3.4,0,0,1-2.418,1Zm0-6.638a3.219,3.219,0,1,0,2.277.943A3.2,3.2,0,0,0,21.654,11.972Zm0,5.715a2.5,2.5,0,0,1,0-4.993h0a2.5,2.5,0,1,1,0,4.993Zm0-4.893v.1a2.3,2.3,0,1,0,1.624.672,2.287,2.287,0,0,0-1.624-.672Zm5.6-8.479H22.012V.819h5.243l-1.414,1.5a.361.361,0,0,0,0,.495Zm-5.044-.2h4.58L25.7,2.953a.561.561,0,0,1,0-.769l1.1-1.164h-4.58Z" transform="translate(0 0.003)" fill="#4496d8"/></g></g></g></svg>