<svg xmlns="http://www.w3.org/2000/svg" width="551.254" height="104.719" viewBox="0 0 551.254 104.719"><path d="M11.481-24H31.613L20.132,68.864H0Z" transform="translate(0 33.879)" fill="#fff" fill-rule="evenodd"/><path d="M68.375,7.451,61.329,52.63h-19.7L48.837,7.138c.961-5.784-.32-7.347-2.4-7.347-6.246,0-13.772,17.04-18.1,48.619L27.7,52.63H8l9.929-69.41h18.1l-1.6,11.1L26.577,18.55l.64.469.8-.469C35.385-6.463,44.994-18.5,56.684-18.5,66.293-18.344,71.418-11.934,68.375,7.451Z" transform="translate(23.613 50.113)" fill="#fff" fill-rule="evenodd"/><path d="M82.944,7.451l-6.8,45.179H56.969L64.081,7.138c.928-5.784-.309-7.347-2.319-7.347-6.03,0-13.3,17.04-17.471,48.619l-.618,4.221H24.5l9.586-69.41H51.558l-1.546,11.1L42.435,18.55l.618.469.773-.469C50.939-6.463,60.216-18.5,71.5-18.5,80.78-18.344,85.882-11.934,82.944,7.451Z" transform="translate(72.315 50.113)" fill="#fff" fill-rule="evenodd"/><path d="M95.257,27.936c-2.384,17.727-11.442,26.669-29.24,26.669-18.275,0-27.016-9.883-24.632-27.3L43.928,7.856C46.47-9.715,56.005-18.5,73.486-18.5c17.957,0,26.7,9.883,24.473,27.3ZM78.571,7.385c.794-5.962-1.748-8.942-6.2-8.942C67.765-1.557,64.9.8,63.951,6.914l-2.861,22.12c-.953,5.962,1.748,8.942,6.357,8.942,4.926,0,7.31-2.51,8.1-8.471Z" transform="translate(121.017 50.113)" fill="#fff" fill-rule="evenodd"/><path d="M90.089,51.154H67.719L57-18H77.04c1.709,18.69,2.641,36.446,2.8,54.357l.621.467.622-.467C88.535,16.888,93.507,1.936,99.721-18h20.506Z" transform="translate(168.244 51.589)" fill="#fff" fill-rule="evenodd"/><path d="M113.967-9.558l.956-7.217h18.328L123.37,52.88H105.042l1.116-8L113.17,26.21l-.478-.314-.8.157c-5.418,15.531-13.706,28.552-25.34,28.552-10.837,0-16.893-8.158-13.706-26.042L76.355,7.7C79.542-11.127,87.989-18.5,98.03-18.5,103.607-18.5,109.823-14.735,113.967-9.558ZM96.117,8.64,92.93,27.622c-1.116,7.059.159,8.942,3.187,8.942,5.578,0,10.359-9.413,12.59-19.767L110.62,3.306c-2.072-2.667-4.781-4.392-7.172-4.392C99.782-1.086,97.392,1.267,96.117,8.64Z" transform="translate(212.518 50.113)" fill="#fff" fill-rule="evenodd"/><path d="M119.155-4.345H135.92l-2.4,16.913h-16.6l-3.992,28.086c-.8,6.207.958,8.379,6.227,8.379,3.513,0,8.622-1.4,12.134-2.638l-2.395,16.448a47.638,47.638,0,0,1-15.966,3.569c-16.126,0-22.513-7.293-19.958-26.068l3.992-27.465H88.5L90.735-1.707,100-3.569,107.819-22.5H121.71Z" transform="translate(261.22 38.307)" fill="#fff" fill-rule="evenodd"/><path d="M110.156,7.02h19.312l-9.656,69.223H100.5Zm23.361-20.112c-.779,6.08-5.14,9.51-12.3,9.51-7.008,0-10.746-3.586-9.812-9.822l.467-3.43c.779-6.392,5.3-9.666,12.148-9.666,7.164,0,10.746,3.586,9.967,9.822Z" transform="translate(296.64 26.5)" fill="#fff" fill-rule="evenodd"/><path d="M161.386,27.936c-2.3,17.727-11.047,26.669-28.232,26.669-17.645,0-26.084-9.883-23.782-27.3l2.455-19.453C114.282-9.715,123.488-18.5,140.366-18.5c17.338,0,25.777,9.883,23.629,27.3ZM145.122,7.385c.767-5.962-1.688-8.942-5.984-8.942-4.45,0-7.212,2.353-8.132,8.471l-2.762,22.12c-.92,5.962,1.688,8.942,6.138,8.942,4.757,0,7.058-2.51,7.825-8.471Z" transform="translate(321.729 50.113)" fill="#fff" fill-rule="evenodd"/><path d="M184.394,7.451,177.382,52.63H157.623l7.171-45.492c.956-5.784-.319-7.347-2.39-7.347-6.215,0-13.7,17.04-18.006,48.619l-.637,4.221H124l9.88-69.41h18.006l-1.594,11.1L142.8,18.55l.638.469.8-.469c7.33-25.013,16.891-37.05,28.524-37.05C182.163-18.344,187.421-11.934,184.394,7.451Z" transform="translate(366.004 50.113)" fill="#fff" fill-rule="evenodd"/></svg>