<svg xmlns="http://www.w3.org/2000/svg" width="447.983" height="137.181" viewBox="0 0 447.983 137.181"><path d="M0,.136C0-20.351,10.784-32,30.355-32S60.709-20.351,60.709.136V66.618c0,7.03-1.2,13.256-3.794,17.876,1,2.41,2.4,2.812,5.592,2.812h1.8v17.876h-2.8c-8.987,0-14.578-3.213-17.174-8.837a42.4,42.4,0,0,1-13.979,2.41C10.784,98.754,0,87.1,0,66.618ZM19.97,67.823c0,9.038,3.994,12.654,10.384,12.654s10.385-3.414,10.385-12.654V-1.27c0-9.039-3.994-12.654-10.385-12.654S19.97-10.509,19.97-1.27Z" transform="translate(0 32)" fill="#fff" fill-rule="evenodd"/><path d="M36.939-31.5V66.4c0,8.973,4.028,12.362,10.473,12.362S57.884,75.573,57.884,66.4V-31.5H77.017V65.2c0,20.338-10.271,31.9-30.008,31.9S17,85.543,17,65.2V-31.5Z" transform="translate(55.878 33.643)" fill="#fff" fill-rule="evenodd"/><path d="M103.734,94.964H83.322l-3.435-23.03H55.029l-3.436,23.03H33L53.614-31.5H83.12Zm-46.078-40.1h19.4l-9.5-63.927h-.4Z" transform="translate(108.468 33.643)" fill="#fff" fill-rule="evenodd"/><path d="M51.5-31.5H71.721V76.9h33.365V94.964H51.5Z" transform="translate(169.276 33.643)" fill="#fff" fill-rule="evenodd"/><path d="M66,94.964H85.291V-31.5H66Z" transform="translate(216.937 33.643)" fill="#fff" fill-rule="evenodd"/><path d="M72.7-31.5h61.96v18.066H113.606v108.4H93.554v-108.4H72.5V-31.5Z" transform="translate(238.302 33.643)" fill="#fff" fill-rule="evenodd"/><path d="M113.367,53.074,87.5-31.5h21.555l15.6,57.574h.41L140.67-31.5h19.708L134.511,53.074v41.89H113.982V53.074Z" transform="translate(287.605 33.643)" fill="#fff" fill-rule="evenodd"/></svg>