<svg xmlns="http://www.w3.org/2000/svg" width="441.288" height="139.538" viewBox="0 0 441.288 139.538"><path d="M39.464-33.166V9.294h2.923c4.547,0,8.283-.648,11.206-2.107A17.664,17.664,0,0,0,60.9.219q2.923-4.861,3.9-13.127h2.6v51.86H64.8c-.974-9.724-3.573-16.206-7.958-19.448a24.223,24.223,0,0,0-14.617-4.7H39.3v31.6c0,5.348.325,8.589.812,9.886a8.562,8.562,0,0,0,3.411,3.4,13.991,13.991,0,0,0,6.983,1.459h3.411v2.755H0V61.154H3.411a14.348,14.348,0,0,0,7.308-1.62A7.26,7.26,0,0,0,13.8,55.806c.487-1.3.812-4.376.812-9.562V-21.5c0-5.348-.325-8.589-.812-9.886a6.887,6.887,0,0,0-3.411-3.4,13.99,13.99,0,0,0-6.983-1.459H0V-39H87.211V-9.343H84.126c-.65-6.969-2.6-12.155-5.522-15.4-2.923-3.4-7.146-5.672-12.667-7.131C62.85-32.68,57.166-33,49.046-33H39.464Z" transform="translate(0 42.488)" fill="#fff" fill-rule="evenodd"/><path d="M61.825,31.049C53.1,38.485,45.344,42.283,38.557,42.283A13.3,13.3,0,0,1,28.54,38.327a12.746,12.746,0,0,1-4.04-9.81c0-5.38,2.262-10.126,6.948-14.24,4.686-4.272,14.865-9.81,30.377-16.93V-9.615c0-5.221-.323-8.544-.808-9.968a8.588,8.588,0,0,0-3.232-3.639A10.6,10.6,0,0,0,52.292-24.8a14.245,14.245,0,0,0-8.079,2.215,3.838,3.838,0,0,0-1.939,3.164c0,1.107.646,2.373,2.1,3.8q2.908,3.085,2.909,6.171a8.435,8.435,0,0,1-2.747,6.171c-1.777,1.741-4.2,2.532-7.271,2.532A11.965,11.965,0,0,1,29.186-3.6a8.8,8.8,0,0,1-3.232-6.645c0-3.639,1.454-6.962,4.363-10.285s6.948-5.7,12.118-7.436A50.017,50.017,0,0,1,58.593-30.5q10.18,0,16,4.272c3.878,2.848,6.463,5.854,7.594,9.177.485,2.215.808,6.962.808,14.556V24.562a38.3,38.3,0,0,0,.323,6.012,5.453,5.453,0,0,0,1.131,1.9,2.462,2.462,0,0,0,1.778.633c1.293,0,2.585-.949,4.039-2.69l2.262,1.741a29.551,29.551,0,0,1-7.917,8.069,16.787,16.787,0,0,1-9.21,2.532c-4.039,0-7.271-.949-9.533-2.848A15.214,15.214,0,0,1,61.825,31.049Zm0-5.38V2.41c-6.14,3.481-10.664,7.278-13.734,11.234a13.744,13.744,0,0,0-2.909,8.069,8.179,8.179,0,0,0,2.585,6.013A7.381,7.381,0,0,0,53.1,29.783C55.523,29.783,58.432,28.517,61.825,25.669Z" transform="translate(60.967 63.64)" fill="#fff" fill-rule="evenodd"/><path d="M74.819-28.4v9.359c3.888-4.2,7.451-7.261,10.853-8.875A24.973,24.973,0,0,1,96.524-30.5a20.108,20.108,0,0,1,11.5,3.227,19.575,19.575,0,0,1,7.127,9.682c4.049-4.518,7.937-7.907,11.663-9.843A23.352,23.352,0,0,1,138.477-30.5c4.859,0,8.909,1.13,11.824,3.389a17.965,17.965,0,0,1,6.155,8.552c1.134,3.389,1.782,9.036,1.782,16.62V27.105q0,8.229,1.458,10.166c.972,1.291,3.078,2.1,6.155,2.582V42.6H129.082V39.853c2.916-.323,5.021-1.291,6.317-3.389.972-1.291,1.3-4.518,1.3-9.359v-30.5c0-6.293-.324-10.327-.81-12.1a6.714,6.714,0,0,0-2.43-3.873,6.607,6.607,0,0,0-3.887-1.291,11.617,11.617,0,0,0-6.641,2.42,32.064,32.064,0,0,0-6.8,7.1V26.944c0,5.164.486,8.391,1.3,9.682,1.134,1.936,3.4,2.9,6.641,3.066v2.743H87.291V39.691a9.5,9.5,0,0,0,4.7-1.452,5.687,5.687,0,0,0,2.268-3.227,36.666,36.666,0,0,0,.648-8.068V-3.391c0-6.454-.324-10.488-.81-12.1A6.271,6.271,0,0,0,91.5-19.2,5.67,5.67,0,0,0,87.615-20.5a9.22,9.22,0,0,0-5.507,1.614c-2.43,1.614-4.86,4.2-7.613,8.068V27.267c0,5,.486,8.229,1.458,9.843s3.078,2.582,6.155,2.9v2.743H45.5V40.014c2.916-.323,5.183-1.291,6.317-2.9.81-1.129,1.3-4.357,1.3-9.843v-40.34c0-5.325-.486-8.713-1.458-10s-3.078-2.1-6.155-2.582V-28.4Z" transform="translate(113.224 63.64)" fill="#fff" fill-rule="evenodd"/><path d="M112.684-5.241V51.548c0,5.059.674,8.323,1.854,9.628q1.77,2.2,7.08,2.448V66.4H81.669V63.623c3.2-.163,5.731-.979,7.248-2.774q1.517-1.713,1.517-9.3V9.772c0-5.059-.674-8.323-1.854-9.628Q86.81-2.059,81.5-2.3V-5.078h31.184ZM101.559-40a12.3,12.3,0,0,1,8.765,3.427,11.15,11.15,0,0,1,3.54,8.322,11.151,11.151,0,0,1-3.54,8.323,11.9,11.9,0,0,1-8.6,3.427,11.9,11.9,0,0,1-8.6-3.427,11.151,11.151,0,0,1-3.54-8.323,11.15,11.15,0,0,1,3.54-8.322A11.251,11.251,0,0,1,101.559-40Z" transform="translate(202.808 40)" fill="#fff" fill-rule="evenodd"/><path d="M124.684-39V49.208c0,5.008.674,8.239,1.854,9.532q1.77,2.181,7.08,2.423v2.747H93.669V61.163c3.2-.162,5.731-.969,7.248-2.746q1.517-1.7,1.517-9.209V-24.3c0-5.008-.674-8.077-1.854-9.532s-3.54-2.262-7.079-2.423V-39Z" transform="translate(232.669 42.488)" fill="#fff" fill-rule="evenodd"/><path d="M141.531,44.2,118.578-8.616c-3.394-7.938-5.981-12.8-7.6-14.742A12.171,12.171,0,0,0,105-27.084v-2.754h37.824v2.754c-2.425.162-4.2.648-5.172,1.458a3.993,3.993,0,0,0-1.455,3.078c0,1.944,1.293,5.67,3.718,11.34l12.123,27.864L160.281-4.89c2.91-7.614,4.526-12.96,4.526-16.038a5.658,5.658,0,0,0-1.94-4.536c-1.293-1.134-3.394-1.782-6.627-1.782V-30H180v2.754a8.968,8.968,0,0,0-5.657,2.754c-1.455,1.62-3.88,6.8-7.436,15.714L146.7,44.035c-5.172,13.122-8.89,21.384-11.315,24.3A16.507,16.507,0,0,1,122.3,74.654c-4.2,0-7.6-1.134-10.183-3.564a11.583,11.583,0,0,1-3.88-8.748,10.45,10.45,0,0,1,2.748-7.29,8.7,8.7,0,0,1,6.627-2.916,8.147,8.147,0,0,1,6.142,2.43c1.616,1.62,2.263,4.212,2.424,7.614a7.888,7.888,0,0,0,.647,3.726,2.084,2.084,0,0,0,1.778.81c1.293,0,2.587-.81,3.88-2.268,2.1-2.106,4.364-6.966,7.112-14.58Z" transform="translate(261.286 64.884)" fill="#fff" fill-rule="evenodd"/></svg>