<?xml version="1.0" encoding="utf-8"?>
<!-- Generator: Adobe Illustrator 27.6.1, SVG Export Plug-In . SVG Version: 6.00 Build 0)  -->
<svg version="1.1" id="Layer_1" xmlns="http://www.w3.org/2000/svg" xmlns:xlink="http://www.w3.org/1999/xlink" x="0px" y="0px"
	 viewBox="0 0 194 40" style="enable-background:new 0 0 194 40;" xml:space="preserve">
<style type="text/css">
	.st0{fill:#354769;}
</style>
<path class="st0" d="M9.1,7.9h5L23,32h-5.7l-1.9-5.4H7.9L6,32H0.3L9.1,7.9z M14.5,22.8l-2.8-8.5l-2.9,8.5H14.5z"/>
<path class="st0" d="M44.3,27.1V32h-17V7.9H44v4.9H33v4.7h9.5V22H33v5.1H44.3z"/>
<path class="st0" d="M49.8,32V7.9h10.9c1.1,0,2.2,0.2,3.1,0.7c1,0.5,1.8,1.1,2.5,1.9c0.7,0.8,1.3,1.6,1.6,2.6c0.4,1,0.6,2,0.6,3
	c0,0.7-0.1,1.5-0.3,2.2c-0.2,0.7-0.4,1.3-0.8,2c-0.3,0.6-0.8,1.2-1.2,1.6c-0.5,0.5-1,0.9-1.6,1.2l5.3,9h-6.3L59,24.2h-3.6V32H49.8z
	 M55.4,19.4h5.1c0.7,0,1.2-0.3,1.7-0.9c0.5-0.6,0.7-1.4,0.7-2.4c0-1-0.3-1.8-0.8-2.4c-0.5-0.6-1.1-0.9-1.8-0.9h-4.9V19.4z"/>
<path class="st0" d="M80.8,7.9h5L94.6,32h-5.7l-1.9-5.4h-7.5L77.7,32H72L80.8,7.9z M86.1,22.8l-2.8-8.5l-2.9,8.5H86.1z"/>
<path class="st0" d="M118.1,32V17.5l-5.2,10.5h-3l-5.2-10.5V32h-5.6V7.9h6.1l6.3,12.6l6.3-12.6h6V32H118.1z"/>
<path class="st0" d="M136.9,7.9h5l8.8,24.1H145l-1.9-5.4h-7.5l-1.8,5.4h-5.7L136.9,7.9z M142.2,22.8l-2.8-8.5l-2.9,8.5H142.2z"/>
<path class="st0" d="M158.7,7.9l5.3,8.3l5.3-8.3h6l-8.4,12.2l8.1,11.9h-6l-5-8l-5,8h-6.1l8.1-11.9l-8.4-12.2H158.7z"/>
<path class="st0" d="M185.3,20.8c-1.1,0-2.1-0.2-3-0.5c-0.9-0.4-1.7-0.9-2.4-1.5c-0.7-0.6-1.2-1.4-1.6-2.3s-0.6-1.8-0.6-2.9
	c0-1,0.2-2,0.6-2.8c0.4-0.9,0.9-1.6,1.6-2.3c0.7-0.6,1.5-1.1,2.4-1.5c0.9-0.4,1.9-0.5,3-0.5c1.1,0,2.1,0.2,3,0.5
	c0.9,0.4,1.7,0.9,2.4,1.5c0.7,0.6,1.2,1.4,1.6,2.3c0.4,0.9,0.6,1.8,0.6,2.8c0,1-0.2,2-0.6,2.9s-0.9,1.6-1.6,2.3
	c-0.7,0.6-1.5,1.1-2.4,1.5C187.4,20.6,186.4,20.8,185.3,20.8z M185.4,19.7c0.9,0,1.7-0.2,2.5-0.5c0.8-0.3,1.4-0.7,2-1.3
	c0.6-0.5,1-1.2,1.3-1.9c0.3-0.7,0.5-1.5,0.5-2.4c0-0.8-0.2-1.6-0.5-2.4c-0.3-0.7-0.8-1.4-1.3-1.9c-0.6-0.5-1.2-1-2-1.3
	c-0.8-0.3-1.6-0.5-2.5-0.5c-0.9,0-1.8,0.2-2.5,0.5c-0.8,0.3-1.4,0.7-2,1.3c-0.6,0.5-1,1.2-1.3,1.9c-0.3,0.7-0.5,1.5-0.5,2.4
	c0,0.8,0.2,1.6,0.5,2.4c0.3,0.7,0.7,1.4,1.3,1.9s1.2,1,2,1.3C183.6,19.6,184.5,19.7,185.4,19.7z M182.1,9.3h3.9
	c0.4,0,0.8,0.1,1.1,0.3c0.3,0.2,0.7,0.4,0.9,0.7c0.3,0.3,0.4,0.6,0.6,0.9c0.1,0.4,0.2,0.7,0.2,1.1c0,0.5-0.1,1-0.4,1.5
	c-0.3,0.5-0.6,0.8-1,1l2,3.2h-2.5l-1.7-2.8h-0.8v2.8h-2.2V9.3z M185.7,13.2c0.3,0,0.5-0.1,0.6-0.2c0.2-0.2,0.2-0.4,0.2-0.8
	c0-0.4-0.1-0.6-0.3-0.8s-0.4-0.2-0.6-0.2h-1.4v2H185.7z"/>
</svg>
