<svg xmlns="http://www.w3.org/2000/svg" width="209.557" height="37.572" viewBox="0 0 209.557 37.572"><g transform="translate(-3.936)"><g transform="translate(3.936)"><g transform="translate(126.53)"><path d="M264.547,36.471a.422.422,0,0,1-.262-.091A20.373,20.373,0,1,1,292.607,7.413a.424.424,0,0,1-.654.539A19.525,19.525,0,1,0,264.81,35.714a.424.424,0,0,1-.263.756Z" transform="translate(-256.515)" fill="#009ade"/><g transform="translate(3.286 3.286)"><path d="M268.477,35.95a.422.422,0,0,1-.3-.122,17.087,17.087,0,0,1,21.9-26.092.423.423,0,1,1-.492.689,16.24,16.24,0,0,0-20.818,24.8.424.424,0,0,1-.3.725Z" transform="translate(-263.074 -6.559)" fill="#0199dd"/></g><g transform="translate(6.547 9.607)"><path d="M272.57,38.249a.424.424,0,0,1-.343-.174,13.828,13.828,0,0,1,2.387-18.8.424.424,0,1,1,.539.653,12.98,12.98,0,0,0-2.242,17.647.423.423,0,0,1-.342.673Z" transform="translate(-269.584 -19.178)" fill="#009ade"/></g></g><g transform="translate(138.704 9.412)"><path d="M290.061,18.787h.906l9.216,21.452h-1.118l-3.172-7.4H285.136l-3.172,7.4h-1.148Zm5.5,13.144-5.046-11.814-5.076,11.814Z" transform="translate(-280.816 -18.787)" fill="#58595b"/><g transform="translate(22.358 5.741)"><path d="M332.487,31.214a6.293,6.293,0,0,0-3.777,1.375,6.709,6.709,0,0,0-2.236,3.49v9.88h-1.027V30.247h1v3.988a7.663,7.663,0,0,1,2.176-2.719,5.777,5.777,0,0,1,2.9-1.239q.3-.03.559-.03h.408Z" transform="translate(-325.447 -30.247)" fill="#58595b"/></g><g transform="translate(32.359 5.741)"><path d="M352.451,31.214a6.293,6.293,0,0,0-3.777,1.375,6.709,6.709,0,0,0-2.236,3.49v9.88h-1.027V30.247h1v3.988a7.663,7.663,0,0,1,2.176-2.719,5.777,5.777,0,0,1,2.9-1.239q.3-.03.559-.03h.408Z" transform="translate(-345.411 -30.247)" fill="#58595b"/></g><g transform="translate(40.819 5.499)"><path d="M367.435,46.02a5.361,5.361,0,0,1-2.025-.378,5.215,5.215,0,0,1-1.632-1.027,4.684,4.684,0,0,1-1.087-1.526,4.592,4.592,0,0,1-.393-1.9,3.566,3.566,0,0,1,.483-1.828,4.536,4.536,0,0,1,1.345-1.435,6.654,6.654,0,0,1,2.054-.937,9.727,9.727,0,0,1,2.614-.333,17.23,17.23,0,0,1,2.674.212,11.737,11.737,0,0,1,2.432.634V35.807a5.214,5.214,0,0,0-1.345-3.762,4.764,4.764,0,0,0-3.611-1.405,6.841,6.841,0,0,0-2.447.5,11.523,11.523,0,0,0-2.6,1.435l-.483-.755a10.141,10.141,0,0,1,5.59-2.055,5.768,5.768,0,0,1,4.336,1.632,6.144,6.144,0,0,1,1.586,4.472v8.218q0,.665.544.665v.967a.539.539,0,0,1-.166.03h-.136a1.121,1.121,0,0,1-.861-.378,1.311,1.311,0,0,1-.347-.922v-1.39a7.142,7.142,0,0,1-2.81,2.191A8.994,8.994,0,0,1,367.435,46.02Zm.121-.876a8.69,8.69,0,0,0,2.251-.3,8.224,8.224,0,0,0,2.039-.831,5.461,5.461,0,0,0,1.481-1.224,2.288,2.288,0,0,0,.574-1.481V38.345a13.857,13.857,0,0,0-5.016-.906,8.851,8.851,0,0,0-2.266.272,6.05,6.05,0,0,0-1.767.755,3.608,3.608,0,0,0-1.148,1.163,2.907,2.907,0,0,0-.408,1.526,3.724,3.724,0,0,0,.332,1.571A4.061,4.061,0,0,0,364.535,44a4.1,4.1,0,0,0,1.345.846A4.545,4.545,0,0,0,367.556,45.143Z" transform="translate(-362.299 -29.764)" fill="#58595b"/></g><g transform="translate(55.897 5.741)"><path d="M395.478,51.7a3.309,3.309,0,0,0,1.42-.211,1.182,1.182,0,0,0,.317-.317,5.3,5.3,0,0,0,.438-.816q.272-.589.725-1.632t1.178-2.765L392.4,30.247h1.088L400.1,44.871l6.224-14.624h1.027l-8.974,21.029a2.162,2.162,0,0,1-1.662,1.3,4.188,4.188,0,0,1-.6.076q-.3.015-.635.015Z" transform="translate(-392.396 -30.247)" fill="#58595b"/></g></g><g transform="translate(0 6.335)"><g transform="translate(117.194 22.223)"><path d="M239.1,57.755a.643.643,0,0,0-.192-.021h-.077V58.1h.125a.3.3,0,0,0,.182-.048.163.163,0,0,0,.063-.149.151.151,0,0,0-.1-.147m-.591,1.015,0-1.254c.078,0,.193,0,.348,0h.255a.531.531,0,0,1,.253.061.316.316,0,0,1,.164.3.271.271,0,0,1-.088.229.419.419,0,0,1-.218.082.475.475,0,0,1,.184.074.339.339,0,0,1,.114.283v.111c0,.012,0,.026,0,.031a.084.084,0,0,0,.007.045l.007.035h-.314a.729.729,0,0,1-.018-.172,1.054,1.054,0,0,0-.02-.154.171.171,0,0,0-.1-.094.521.521,0,0,0-.112-.02l-.079,0h-.064v.446Zm-.17-1.281a.934.934,0,0,0,.01,1.319.921.921,0,0,0,1.313,0,.913.913,0,0,0,.271-.666.928.928,0,0,0-1.594-.648m1.455,1.459a1.143,1.143,0,1,1,.333-.811,1.094,1.094,0,0,1-.333.811" transform="translate(-237.878 -57.007)" fill="#231f20"/></g><path d="M13.763,18.119l-.726,4.256,6.209-.012-.817,4.72-6.214.012-1.642,9.4-6.638.012,4-23.238L22.6,13.242,21.788,18.1ZM24.2,29.656c-.358,2.231.66,3.435,2.991,3.43A3.846,3.846,0,0,0,30.3,31.661l5.257-.01a10.111,10.111,0,0,1-8.968,5.322c-5.283.01-8.762-2.877-7.9-8.209.833-5.143,4.968-8.248,10.158-8.258,5.534-.01,8.309,3.293,7.455,8.561l-.091.565ZM31.369,26.7a2.628,2.628,0,0,0-2.815-2.643,4.02,4.02,0,0,0-3.873,2.655Zm65.9,2.82c-.36,2.231.66,3.435,2.988,3.43a3.846,3.846,0,0,0,3.117-1.425l5.255-.01a10.118,10.118,0,0,1-8.966,5.322c-5.278.01-8.762-2.877-7.9-8.209.831-5.143,4.97-8.248,10.16-8.258,5.531-.01,8.305,3.293,7.454,8.561l-.1.565Zm7.168-2.957a2.626,2.626,0,0,0-2.81-2.643,4.019,4.019,0,0,0-3.876,2.655ZM36.012,36.447,39.73,12.655l5.216-.01L41.224,36.437Zm6.574,3.426,3.72-23.8,5.213-.01L47.8,39.863Zm26.033-11.2c-.806,5.242-5.5,8.234-10.359,8.243-4.829.009-8.648-2.937-7.839-8.209s5.5-8.249,10.357-8.258,8.641,2.961,7.841,8.224m-12.549.024c-.427,2.276.518,3.867,2.7,3.863s3.713-1.3,4.189-3.875c.4-2.15-.491-3.9-2.672-3.894s-3.749,1.447-4.215,3.907m64.518-3.879a6.028,6.028,0,0,0-2.829-.747c-.632,0-1.755.273-1.877,1.056-.166,1.052,1.524,1.2,2.253,1.349,2.474.51,4.21,1.708,3.764,4.567-.639,4.07-4.6,5.763-8.174,5.77a9.772,9.772,0,0,1-5.733-1.649l1.8-3.39c.992.783,3.3,1,4.651,1,.694,0,1.772-.334,1.9-1.178.185-1.206-1.518-1.262-3.162-1.71s-3.224-1.288-2.792-4.056c.594-3.79,4.283-5.48,7.651-5.486a11.214,11.214,0,0,1,4.931.984ZM75.717,29.363l3.317-8.442,4.477-.008,1.12,8.445L88.341,20.9l5.876-.011L86.244,36.349l-4.969.009-1.056-8.466h-.078l-3.31,8.474-5.048.009-3.5-15.434,5.9-.011Z" transform="translate(-3.936 -12.645)" fill="#231f20"/></g></g></g></svg>