<svg xmlns="http://www.w3.org/2000/svg" width="63.895" height="54.017" viewBox="0 0 63.895 54.017">
  <g id="noun-piggy-bank-2314545" transform="translate(-12.621 -103.126)">
    <g id="Group_5307" data-name="Group 5307" transform="translate(12.621 103.126)">
      <path id="Path_2212" data-name="Path 2212" d="M76.171,124.514a17.616,17.616,0,0,0-.433-1.937c-1.81-6.679-6.781-12.491-13.613-15.958a32.49,32.49,0,0,0-5-2.014,33.667,33.667,0,0,0-9.814-1.479,33.107,33.107,0,0,0-11.573,2.039,1.307,1.307,0,0,0,.918,2.447,30.343,30.343,0,0,1,10.656-1.886,30.71,30.71,0,0,1,9.024,1.351,28.816,28.816,0,0,1,4.589,1.861c6.195,3.135,10.681,8.361,12.287,14.327.153.561.28,1.147.382,1.708a20.3,20.3,0,0,1-5.353,17.717,4.157,4.157,0,0,0-1.045,1.835l-2.906,10.044h-6.73l-.79-3.085a1.308,1.308,0,0,0-1.249-.969l-16.366-.051a1.345,1.345,0,0,0-1.275.969l-.816,3.135h-6.73l-1.886-6.628a4.317,4.317,0,0,0-2.4-2.753,55.12,55.12,0,0,1-10.324-6.092,1.269,1.269,0,0,1-.484-1.02l.025-12.313,1.886-.025a1.292,1.292,0,0,0,1.02-.51l6.577-8.744a1.884,1.884,0,0,0-.1-1.937,5.172,5.172,0,0,0-.28-.663L24.3,113.7c-.255-.586-.535-1.173-.79-1.733q-.765-1.568-1.606-3.135a1.618,1.618,0,0,0-.178-.306c-.051-.1-.127-.2-.178-.331h.051c.229,0,.459-.025.739-.025a12.517,12.517,0,0,1,4.359.688c.408.153,1.275.561,1.428.637.28.153,1.937,1.122,2.32,1.4a13.692,13.692,0,0,1,4.028,4.843,1.294,1.294,0,1,0,2.32-1.147,17.014,17.014,0,0,0-4.843-5.812c-.586-.433-2.524-1.555-2.651-1.631-.586-.331-1.759-.79-1.784-.816a15.049,15.049,0,0,0-5.149-.841c-.331,0-.663,0-.969.025-.2,0-.433.025-.714.051-.051,0-.153.025-.2.025h-.051A2.273,2.273,0,0,0,18.79,107a2.558,2.558,0,0,0,.153,1.784,8.555,8.555,0,0,0,.484.969c.051.076.076.127.127.2.535,1.02,1.071,2.039,1.555,3.034.255.535.51,1.1.739,1.631l.076.178c.076.2.153.382.255.637l-5.736,7.622-2.524.025a1.284,1.284,0,0,0-1.275,1.3L12.621,138a3.816,3.816,0,0,0,1.53,3.085,57.8,57.8,0,0,0,10.86,6.4,1.837,1.837,0,0,1,.943,1.1l2.167,7.571a1.285,1.285,0,0,0,1.249.943h8.744a1.286,1.286,0,0,0,1.249-.969l.816-3.135,14.327.1.79,3.085a1.279,1.279,0,0,0,1.249.969h8.744a1.285,1.285,0,0,0,1.249-.943l3.186-11.038a1.341,1.341,0,0,1,.382-.663,22.982,22.982,0,0,0,6.067-19.986Z" transform="translate(-12.621 -103.126)"/>
      <path id="Path_2213" data-name="Path 2213" d="M247.5,445.453a4.359,4.359,0,1,0,4.359-4.359A4.374,4.374,0,0,0,247.5,445.453Zm6.118,0a1.759,1.759,0,1,1-1.759-1.759A1.8,1.8,0,0,1,253.618,445.453Z" transform="translate(-234.727 -422.714)"/>
    </g>
    <path id="Path_2214" data-name="Path 2214" d="M557.6,318.22a3.76,3.76,0,0,1-3.649-2.873,1.164,1.164,0,0,0-1.136-.88h0a1.169,1.169,0,0,0-1.144,1.433,6.119,6.119,0,0,0,4.749,4.547.01.01,0,0,1,.008.01v3.093a1.173,1.173,0,0,0,1.173,1.173h0a1.173,1.173,0,0,0,1.173-1.173v-3.093a.01.01,0,0,1,.008-.01,6.1,6.1,0,0,0-1.119-12.08,3.81,3.81,0,0,1-3.815-3.84,3.754,3.754,0,0,1,7.4-.794,1.164,1.164,0,0,0,1.136.88h0a1.169,1.169,0,0,0,1.144-1.433,6.119,6.119,0,0,0-4.749-4.547.01.01,0,0,1-.008-.01v-3.038a1.173,1.173,0,0,0-1.173-1.173h0a1.173,1.173,0,0,0-1.173,1.173v3.037a.01.01,0,0,1-.008.01,6.1,6.1,0,0,0,1.181,12.081,3.754,3.754,0,1,1,0,7.508Z" transform="translate(-509.574 -180.883)"/>
  </g>
</svg>
