<svg xmlns="http://www.w3.org/2000/svg" width="53.727" height="53.706" viewBox="0 0 53.727 53.706">
  <g id="noun-checkbox-1126732" transform="translate(-74.5 -74.5)">
    <path id="Path_2210" data-name="Path 2210" d="M101.353,75a26.358,26.358,0,1,0,26.114,22.817,1.883,1.883,0,1,0-3.728.5A22.583,22.583,0,1,1,112,81.426h0a1.883,1.883,0,1,0,1.779-3.316A26.257,26.257,0,0,0,101.354,75Z" stroke="#f6f5f3" stroke-width="1"/>
    <path id="Path_2211" data-name="Path 2211" d="M339.037,187.115a1.883,1.883,0,0,0-1.294.57l-25.023,25.023-9.964-9.964a1.883,1.883,0,1,0-2.662,2.662L311.39,216.7a1.883,1.883,0,0,0,2.662,0L340.4,190.346a1.883,1.883,0,0,0-1.368-3.232Z" transform="translate(-213.248 -106.486)" stroke="#f6f5f3" stroke-width="1"/>
  </g>
</svg>
