<svg xmlns="http://www.w3.org/2000/svg" width="57.859" height="57.858" viewBox="0 0 57.859 57.858">
  <path id="noun-balance-5483166" d="M116.722,90.591h-.2l-8.763-22.536a.688.688,0,0,0-.593-.408H89.317V66.31a3.187,3.187,0,1,0-1.275,0v1.338H70.217a.676.676,0,0,0-.612.408L60.842,90.591h-.2a.639.639,0,0,0-.637.637,10.2,10.2,0,0,0,20.394,0,.639.639,0,0,0-.637-.637h-.2L71.128,68.923H88.042V112.9h-10.2a3.828,3.828,0,0,0-3.767,3.187H72.747a.637.637,0,1,0,0,1.275h31.866a.637.637,0,0,0,0-1.275h-1.332a3.828,3.828,0,0,0-3.767-3.187h-10.2V68.923h16.914L97.806,90.591h-.2a.639.639,0,0,0-.637.637,10.2,10.2,0,1,0,20.394,0,.639.639,0,0,0-.637-.637Zm-29.954-27.4A1.912,1.912,0,1,1,88.68,65.1,1.918,1.918,0,0,1,86.768,63.187ZM70.2,100.151a8.933,8.933,0,0,1-8.9-8.285H79.1a8.938,8.938,0,0,1-8.9,8.285Zm-7.992-9.56L70.2,70.044l7.992,20.547Zm39.769,25.493H75.385a2.549,2.549,0,0,1,2.46-1.912H99.514A2.549,2.549,0,0,1,101.974,116.084Zm5.188-46.04,7.992,20.547H99.17Zm0,30.107a8.933,8.933,0,0,1-8.9-8.285h17.8a8.938,8.938,0,0,1-8.9,8.285Z" transform="translate(-59.75 -59.75)" stroke="#000" stroke-width="0.5"/>
</svg>
