<svg xmlns="http://www.w3.org/2000/svg" xmlns:xlink="http://www.w3.org/1999/xlink" width="70.633" height="69.598" viewBox="0 0 70.633 69.598">
  <defs>
    <clipPath id="clip-path">
      <rect id="Rectangle_1096" data-name="Rectangle 1096" width="70.633" height="69.598" transform="translate(-2 -2)" stroke="#000" stroke-width="0.3"/>
    </clipPath>
  </defs>
  <g id="Group_5311" data-name="Group 5311" transform="translate(2 2)">
    <g id="Group_5311-2" data-name="Group 5311" clip-path="url(#clip-path)">
      <path id="Path_2219" data-name="Path 2219" d="M34.381,58.327a28.8,28.8,0,0,1-4.2.308A28.456,28.456,0,0,1,10.057,10.058,28.456,28.456,0,0,1,58.635,30.179c0,.884-.041,1.775-.122,2.65a.861.861,0,1,0,1.716.158c.086-.927.129-1.872.129-2.808A30.179,30.179,0,0,0,8.839,8.839a30.179,30.179,0,0,0,21.34,51.519,30.546,30.546,0,0,0,4.454-.326.862.862,0,0,0-.252-1.7" stroke="#000" stroke-width="0.3"/>
      <path id="Path_2220" data-name="Path 2220" d="M299.144,274.847a15.887,15.887,0,1,0,15.887,15.887,15.9,15.9,0,0,0-15.887-15.887m0,30.051a14.164,14.164,0,1,1,14.164-14.164A14.18,14.18,0,0,1,299.144,304.9" transform="translate(-248.397 -241.022)" stroke="#000" stroke-width="0.3"/>
      <path id="Path_2221" data-name="Path 2221" d="M167.54,65.684a10.647,10.647,0,1,0,10.576,10.649A10.612,10.612,0,0,0,167.54,65.684m-.08,19.47a8.83,8.83,0,1,1,.06-17.66,8.887,8.887,0,0,1,8.776,8.849,8.79,8.79,0,0,1-8.836,8.81" transform="translate(-137.519 -57.6)" stroke="#000" stroke-width="0.3"/>
      <path id="Path_2222" data-name="Path 2222" d="M141.969,261.391a14.981,14.981,0,0,0-8.031-.671q-.149.028-.3.062A14.926,14.926,0,0,0,121.817,275.1c-.025.766.255,1.135.872,1.149s.845-.318.954-1.085a22.293,22.293,0,0,1,.707-3.915,12.971,12.971,0,0,1,15.9-8.473,26.437,26.437,0,0,1,3.936,1.786.941.941,0,0,0,1.269-.433.9.9,0,0,0-.257-1.064,2.484,2.484,0,0,0-.35-.248,15.58,15.58,0,0,0-2.877-1.431" transform="translate(-106.824 -228.401)" stroke="#000" stroke-width="0.3"/>
      <path id="Path_2223" data-name="Path 2223" d="M352.634,330.737h-8.463v-8.463a.861.861,0,0,0-1.723,0v8.463h-8.463a.861.861,0,0,0,0,1.723h8.463v8.463a.861.861,0,0,0,1.723,0V332.46h8.463a.861.861,0,1,0,0-1.723" transform="translate(-292.127 -281.857)" stroke="#000" stroke-width="0.3"/>
    </g>
  </g>
</svg>
