<svg xmlns="http://www.w3.org/2000/svg" xmlns:xlink="http://www.w3.org/1999/xlink" width="87.763" height="52.741" viewBox="0 0 87.763 52.741">
  <defs>
    <clipPath id="clip-path">
      <rect id="Rectangle_1095" data-name="Rectangle 1095" width="87.763" height="52.741" transform="translate(-2 -1)" stroke="#000" stroke-width="0.3"/>
    </clipPath>
  </defs>
  <g id="Group_5310" data-name="Group 5310" transform="translate(2 1)">
    <g id="Group_5310-2" data-name="Group 5310" clip-path="url(#clip-path)">
      <path id="Path_2217" data-name="Path 2217" d="M41.081,50.54c-2.827-1.168-5.707-2.354-8.583-3.547-2.194-.91-4.4-1.8-6.579-2.734a21.448,21.448,0,0,1-5.021-3.12,47.16,47.16,0,0,1-4.5-3.981,35.013,35.013,0,0,1-3.824-4.849q-.382-.58-.745-1.172c-.088-.143-.779-1.091-.716-1.208-.3.571-.555,1.042-.807,1.512-.425.792-.857.933-1.664.518Q4.672,29.919.713,27.87c-.684-.353-.869-.781-.584-1.316a.975.975,0,0,1,1.465-.364q3.343,1.716,6.679,3.447c.187.1.377.187.661.327L21.523,5.643c-.305-.172-.575-.32-.841-.475-.929-.539-1.835-1.122-2.79-1.61-1.259-.643-2.57-1.184-3.826-1.832A1.116,1.116,0,0,1,13.529.9,1.207,1.207,0,0,1,14.1.076a1.069,1.069,0,0,1,.885.047c1.421.753,2.8,1.582,4.227,2.33.874.459,1.8.817,2.7,1.229.309.141.605.308.908.463.86.438.913.523.921,1.484.521,0,1.042,0,1.564,0,2.06.017,4.12.031,6.18.058.5.007.991.187,1.052.726a1.432,1.432,0,0,1-.37.986c-.152.169-.544.163-.829.165-2.526.018-5.053.034-7.579.021A1.7,1.7,0,0,0,22.051,8.68q-4.7,9.222-9.511,18.393a1.473,1.473,0,0,0,.023,1.575,37.826,37.826,0,0,0,7.756,9.737,25.331,25.331,0,0,0,3.749,2.848A30.508,30.508,0,0,0,28.5,43.285c4.01,1.69,8.033,3.35,12.051,5.022a4.607,4.607,0,0,0,2.792.411A2.151,2.151,0,0,0,45.067,47.2c.079-.887-.539-1.358-1.212-1.7-2.151-1.108-4.322-2.179-6.486-3.261-1.234-.617-2.472-1.227-3.708-1.84-.773-.383-.994-.815-.7-1.373s.847-.672,1.539-.326q6.923,3.459,13.843,6.924a3.78,3.78,0,0,0,2.36.626,3.715,3.715,0,0,0,1.558-.613,1.6,1.6,0,0,0-.129-2.836c-1.374-.839-2.826-1.553-4.256-2.3-2.522-1.317-5.053-2.616-7.578-3.927-.681-.354-.877-.786-.619-1.314a.989.989,0,0,1,1.474-.367q6.986,3.616,13.968,7.24a9.325,9.325,0,0,0,1.273.58,2.609,2.609,0,0,0,3.2-1.406,2.551,2.551,0,0,0-.544-3.291,6.15,6.15,0,0,0-.836-.579q-6.523-3.927-13.05-7.846c-.091-.055-.182-.11-.27-.169a.9.9,0,0,1-.365-1.3.864.864,0,0,1,1.308-.313q2.831,1.657,5.642,3.35c3.225,1.932,6.442,3.875,9.669,5.8a2.573,2.573,0,0,0,3.718-.615,2.536,2.536,0,0,0-.627-3.829c-2.257-1.554-4.524-3.092-6.787-4.638l-7.946-5.429c-.123-.084-.246-.168-.362-.261a.943.943,0,1,1,1.08-1.538c2.024,1.368,4.037,2.752,6.054,4.131q4.445,3.04,8.888,6.083a4.351,4.351,0,0,1,1.951,5.183,4.7,4.7,0,0,1-4.82,3.311c-.125,0-.25,0-.453,0a4.923,4.923,0,0,1-2.007,4.51,4.465,4.465,0,0,1-4.856.331,4.166,4.166,0,0,1-3.04,3.758c-1.761.593-3.324-.091-4.912-.88a4.238,4.238,0,0,1-3.07,3.471l-.18.045a5.091,5.091,0,0,1-2.279.039Z" transform="translate(0 0)" stroke="#000" stroke-width="0.3"/>
      <path id="Path_2218" data-name="Path 2218" d="M228.876,27.979c-1.814.923-3.626,1.849-5.443,2.766q-1.564.789-3.142,1.55a1.134,1.134,0,0,1-1.76-.609c-.225-.456-.453-.913-.637-1.387-.163-.419-.436-.608-.834-.407-.865.437-1.726.888-2.551,1.4-.485.3-.923.458-1.391.056a.9.9,0,0,1,.109-1.435c1.058-.724,2.17-1.369,3.354-2.106-.24-.5-.557-1.185-.891-1.859q-4.386-8.848-8.771-17.7c-.2-.41-.416-.632-.863-.368-1.805,1.065-3.739.78-5.7.649a104.4,104.4,0,0,0-10.883-.45,30.657,30.657,0,0,0-13.4,3.951,5.662,5.662,0,0,0-2.213,2.06,42.033,42.033,0,0,0-5.477,12.76,8.7,8.7,0,0,0-.113,1.838c0,.537.324.876.853.791a5.96,5.96,0,0,0,1.879-.524,18.656,18.656,0,0,0,8.129-8.436,1.568,1.568,0,0,1,1.491-1.032A42.048,42.048,0,0,0,190.5,17.96a16.768,16.768,0,0,0,2.332-1c.585-.283,1.111-.234,1.408.217a.993.993,0,0,1-.389,1.374,11.552,11.552,0,0,1-4.513,1.669c-2.594.444-5.209.767-7.821,1.1a1.158,1.158,0,0,0-1.008.682,20.319,20.319,0,0,1-9.117,8.865,5.979,5.979,0,0,1-2.336.508,2.579,2.579,0,0,1-2.691-2.51,12,12,0,0,1,.772-4.751,48.766,48.766,0,0,1,5.079-10.953,9.393,9.393,0,0,1,4.332-3.531c4.474-2.01,9.1-3.512,14.054-3.514,3.162,0,6.324.3,9.485.48A21.053,21.053,0,0,0,203,6.815a14.243,14.243,0,0,0,2.635-.715c-.023-1.388-.023-1.388,1.19-1.988,2.474-1.222,4.944-2.453,7.428-3.656A1.257,1.257,0,0,1,215.2.321a1.329,1.329,0,0,1,.661.882,1.176,1.176,0,0,1-.611.838c-2.077,1.068-4.181,2.083-6.275,3.118-.376.186-.747.385-1.188.613l12.181,24.561c1.091-.532,2.116-1.028,3.138-1.531,1.371-.676,2.739-1.359,4.109-2.038.785-.389,1.08-.332,1.662.321Z" transform="translate(-145.113 -0.236)" stroke="#000" stroke-width="0.3"/>
    </g>
  </g>
</svg>
