<svg xmlns="http://www.w3.org/2000/svg" width="57" height="57" viewBox="0 0 57 57">
  <g id="noun-search-2830273" transform="translate(-40.595 -40.945)">
    <g id="Group_5308" data-name="Group 5308" transform="translate(40.595 40.945)">
      <path id="Path_2215" data-name="Path 2215" d="M96.193,89.743l-13.7-13.7a1.073,1.073,0,0,0-1.517,0l-.115.115-3.51-3.513A20.172,20.172,0,1,0,72.3,77.7l3.508,3.508-.112.111a1.076,1.076,0,0,0,0,1.521l13.7,13.7a4.807,4.807,0,0,0,6.8-6.8ZM48.024,73.877A18.032,18.032,0,1,1,75.05,72.151q-.336.431-.7.843l-.049.055q-.16.181-.325.357l-.07.076q-.189.2-.382.395l-.009.009c-.114.114-.231.227-.348.338-.071.067-.142.133-.214.2l-.149.135c-.081.073-.162.145-.244.216l-.129.109q-.172.146-.348.288c-.1.08-.2.16-.3.237a18.042,18.042,0,0,1-23.764-1.532ZM74.17,76.222c.08-.071.16-.143.239-.216s.142-.131.212-.2c.143-.135.285-.272.424-.411h0c.154-.154.3-.311.453-.469l.087-.093q.22-.237.431-.479h0l3.322,3.325-2.012,2.009-3.321-3.32c.055-.048.108-.1.162-.146Zm20.506,18.8a2.666,2.666,0,0,1-3.762,0L77.975,82.081l3.759-3.754,12.94,12.936a2.669,2.669,0,0,1,0,3.757Z" transform="translate(-40.595 -40.945)"/>
    </g>
    <path id="Path_2216" data-name="Path 2216" d="M330.385,169.613a3.365,3.365,0,0,1-3.266-2.571,1.042,1.042,0,0,0-1.017-.788h0a1.046,1.046,0,0,0-1.024,1.282,5.476,5.476,0,0,0,4.25,4.069.009.009,0,0,1,.007.009v2.768a1.05,1.05,0,0,0,1.05,1.05h0a1.05,1.05,0,0,0,1.05-1.05v-2.768a.009.009,0,0,1,.007-.009,5.457,5.457,0,0,0-1-10.81,3.409,3.409,0,0,1-3.414-3.437,3.359,3.359,0,0,1,6.624-.711,1.042,1.042,0,0,0,1.017.788h0a1.046,1.046,0,0,0,1.024-1.282,5.476,5.476,0,0,0-4.25-4.069.009.009,0,0,1-.007-.009v-2.718a1.05,1.05,0,0,0-1.05-1.05h0a1.05,1.05,0,0,0-1.05,1.05v2.718a.009.009,0,0,1-.007.009,5.457,5.457,0,0,0,1.057,10.811,3.359,3.359,0,1,1,0,6.719Z" transform="translate(-268.699 -101.137)"/>
  </g>
</svg>
