<svg width="301" height="301" viewBox="0 0 301 301" fill="none" xmlns="http://www.w3.org/2000/svg">
<g clip-path="url(#clip0_1800_4300)">
<path d="M301 150.5C301 233.618 233.618 301 150.5 301C67.3817 301 0 233.618 0 150.5C0 150.535 150.5 0.0170488 150.5 0C233.618 0 301 67.3817 301 150.5Z" fill="#0052B4"/>
<path d="M150.502 0C150.494 0 150.485 0.000587891 150.477 0.000587891L150.502 0Z" fill="#F0F0F0"/>
<path d="M150.098 150.5H150.5C150.5 150.363 150.5 150.233 150.5 150.097C150.366 150.232 150.232 150.366 150.098 150.5Z" fill="#F0F0F0"/>
<path d="M150.5 78.5226C150.5 52.041 150.5 34.6883 150.5 0.000976562H150.475C67.3676 0.014498 0 67.3897 0 150.5H78.5216V106.284L122.738 150.5H150.098C150.233 150.366 150.367 150.232 150.501 150.098C150.501 139.958 150.501 130.911 150.501 122.74L106.284 78.5226H150.5Z" fill="#F0F0F0"/>
<path d="M76.1393 19.6304C52.6007 33.0337 33.0322 52.6022 19.6289 76.1408V150.5H58.89V58.8921V58.8915H150.499C150.499 46.5087 150.499 34.7121 150.499 19.6304H76.1393Z" fill="#D80027"/>
<path d="M150.497 131.993L97.0269 78.5227H78.5195C78.5195 78.5221 78.5195 78.5227 78.5195 78.5227L150.497 150.5H150.497C150.497 150.5 150.497 137.74 150.497 131.993Z" fill="#D80027"/>
<path d="M90.7656 176.674L99.0255 193.945L117.677 189.634L109.325 206.86L124.324 218.755L105.649 222.964L105.701 242.108L90.7656 230.131L75.8308 242.108L75.8831 222.964L57.207 218.755L72.2071 206.86L63.8531 189.634L82.5063 193.945L90.7656 176.674Z" fill="#F0F0F0"/>
<path d="M225.326 209.392L229.456 218.027L238.782 215.871L234.605 224.485L242.105 230.432L232.767 232.537L232.793 242.109L225.326 236.12L217.858 242.109L217.884 232.537L208.547 230.432L216.047 224.485L211.87 215.871L221.196 218.027L225.326 209.392Z" fill="#F0F0F0"/>
<path d="M186.908 117.783L191.038 126.419L200.364 124.262L196.188 132.876L203.687 138.823L194.35 140.928L194.375 150.5L186.908 144.511L179.441 150.5L179.466 140.928L170.129 138.823L177.629 132.876L173.452 124.262L182.779 126.419L186.908 117.783Z" fill="#F0F0F0"/>
<path d="M225.326 65.4346L229.456 74.0707L238.782 71.9149L234.606 80.5281L242.105 86.4752L232.767 88.5804L232.793 98.1524L225.326 92.1636L217.858 98.1524L217.884 88.5804L208.547 86.4752L216.046 80.5281L211.87 71.9149L221.196 74.0707L225.326 65.4346Z" fill="#F0F0F0"/>
<path d="M258.885 104.696L263.014 113.332L272.341 111.176L268.164 119.789L275.664 125.736L266.326 127.842L266.352 137.413L258.885 131.425L251.418 137.413L251.443 127.842L242.105 125.736L249.605 119.789L245.429 111.176L254.755 113.332L258.885 104.696Z" fill="#F0F0F0"/>
<path d="M234.89 150.5L238.138 160.498H248.65L240.145 166.677L243.395 176.674L234.89 170.495L226.385 176.674L229.633 166.677L221.129 160.498H231.641L234.89 150.5Z" fill="#F0F0F0"/>
</g>
<defs>
<clipPath id="clip0_1800_4300">
<rect width="301" height="301" fill="white"/>
</clipPath>
</defs>
</svg>
