<svg width="32" height="32" viewBox="0 0 32 32" fill="none" xmlns="http://www.w3.org/2000/svg">
<g clip-path="url(#clip0_1186_9616)">
<path d="M16 32C24.8366 32 32 24.8366 32 16C32 7.16344 24.8366 0 16 0C7.16344 0 0 7.16344 0 16C0 24.8366 7.16344 32 16 32Z" fill="#F7F7F9"/>
<path d="M21.564 16.0007C21.564 17.392 19.0723 20.8703 15.9988 20.8703C12.9252 20.8703 10.4336 17.392 10.4336 16.0007C10.4336 12.9271 12.9252 10.4355 15.9988 10.4355C19.0723 10.4355 21.564 12.9271 21.564 16.0007Z" fill="#D80027"/>
<path d="M21.564 16C21.564 19.0736 19.0723 21.5652 15.9988 21.5652C12.9252 21.5652 10.4336 19.0736 10.4336 16" fill="#0052B4"/>
<path d="M23.378 19.4443L21.9023 20.9199L22.8861 21.9037L24.3618 20.428L23.378 19.4443Z" fill="black"/>
<path d="M20.9171 21.9032L19.4414 23.3789L20.4252 24.3627L21.9009 22.887L20.9171 21.9032Z" fill="black"/>
<path d="M26.3311 22.3935L24.8555 23.8691L25.8393 24.8529L27.3149 23.3773L26.3311 22.3935Z" fill="black"/>
<path d="M23.8702 24.8544L22.3945 26.3301L23.3783 27.3139L24.854 25.8382L23.8702 24.8544Z" fill="black"/>
<path d="M24.8546 20.9189L23.3789 22.3945L24.3627 23.3783L25.8384 21.9027L24.8546 20.9189Z" fill="black"/>
<path d="M22.3936 23.3778L20.918 24.8535L21.9018 25.8373L23.3774 24.3616L22.3936 23.3778Z" fill="black"/>
<path d="M20.9203 7.14493L24.8555 11.0801L25.8393 10.0963L21.9041 6.16113L20.9203 7.14493Z" fill="black"/>
<path d="M19.4423 8.62198L20.918 10.0977L21.9017 9.1139L20.4261 7.63823L19.4423 8.62198Z" fill="black"/>
<path d="M21.9032 11.081L23.3789 12.5566L24.3626 11.5729L22.887 10.0972L21.9032 11.081Z" fill="black"/>
<path d="M22.3954 5.67081L23.8711 7.14648L24.8549 6.16269L23.3792 4.68702L22.3954 5.67081Z" fill="black"/>
<path d="M24.8564 8.1298L26.332 9.60547L27.3158 8.62167L25.8402 7.146L24.8564 8.1298Z" fill="black"/>
<path d="M9.60703 26.3297L5.67188 22.3945L4.68807 23.3783L8.62323 27.3135L9.60703 26.3297Z" fill="black"/>
<path d="M11.0811 24.8546L9.60547 23.3789L8.62172 24.3627L10.0974 25.8383L11.0811 24.8546Z" fill="black"/>
<path d="M8.6202 22.3956L7.14453 20.9199L6.16074 21.9037L7.63641 23.3794L8.6202 22.3956Z" fill="black"/>
<path d="M12.5562 23.3785L8.62109 19.4434L7.6373 20.4272L11.5724 24.3623L12.5562 23.3785Z" fill="black"/>
<path d="M5.67032 9.60507L9.60547 5.66992L8.62167 4.68612L4.68653 8.62127L5.67032 9.60507Z" fill="black"/>
<path d="M7.14689 11.0797L11.082 7.14453L10.0982 6.16073L6.16309 10.0959L7.14689 11.0797Z" fill="black"/>
<path d="M8.62345 12.5562L12.5586 8.62109L11.5748 7.63734L7.63969 11.5725L8.62345 12.5562Z" fill="black"/>
</g>
<defs>
<clipPath id="clip0_1186_9616">
<rect width="32" height="32" fill="white"/>
</clipPath>
</defs>
</svg>
