<svg width="323" height="323" viewBox="0 0 323 323" fill="none" xmlns="http://www.w3.org/2000/svg">
<g clip-path="url(#clip0_1800_4394)">
<path d="M161.5 323C250.694 323 323 250.694 323 161.5C323 72.306 250.694 0 161.5 0C72.306 0 0 72.306 0 161.5C0 250.694 72.306 323 161.5 323Z" fill="#F0F0F0"/>
<path d="M323.002 161.5C323.002 97.4714 285.74 42.1475 231.719 16.0249V306.974C285.74 280.852 323.002 225.528 323.002 161.5Z" fill="#D80027"/>
<path d="M0 161.5C0 225.528 37.2617 280.852 91.2828 306.975V16.0249C37.2617 42.1475 0 97.4714 0 161.5Z" fill="#6DA544"/>
<path d="M119.371 161.5C119.371 184.768 138.234 203.63 161.502 203.63C184.77 203.63 203.632 184.768 203.632 161.5V147.456H119.371V161.5Z" fill="#6DA544"/>
<path d="M217.673 133.413H175.542C175.542 125.657 169.254 119.369 161.498 119.369C153.743 119.369 147.455 125.657 147.455 133.413H105.324C105.324 141.169 112.08 147.456 119.835 147.456H119.368C119.368 155.213 125.655 161.5 133.411 161.5C133.411 169.256 139.698 175.543 147.455 175.543H175.542C183.298 175.543 189.586 169.256 189.586 161.5C197.342 161.5 203.629 155.213 203.629 147.456H203.161C210.917 147.456 217.673 141.169 217.673 133.413Z" fill="#FF9811"/>
</g>
<defs>
<clipPath id="clip0_1800_4394">
<rect width="323" height="323" fill="white"/>
</clipPath>
</defs>
</svg>
