<svg width="284" height="284" viewBox="0 0 284 284" fill="none" xmlns="http://www.w3.org/2000/svg">
<g clip-path="url(#clip0_1800_4344)">
<path d="M142 284C220.424 284 284 220.424 284 142C284 63.5756 220.424 0 142 0C63.5756 0 0 63.5756 0 142C0 220.424 63.5756 284 142 284Z" fill="#F0F0F0"/>
<path d="M0 142.001C0 63.5761 63.5761 0 142 0C220.424 0 284 63.5761 284 142.001" fill="#D80027"/>
<path d="M86.4362 74.0859C86.4362 53.3972 100.976 36.1143 120.392 31.8737C117.408 31.2225 114.313 30.8691 111.131 30.8691C87.2627 30.8691 67.9141 50.2178 67.9141 74.0865C67.9141 97.9553 87.2627 117.304 111.131 117.304C114.311 117.304 117.408 116.951 120.392 116.299C100.976 112.058 86.4362 94.7752 86.4362 74.0859Z" fill="#F0F0F0"/>
<path d="M142.003 33.9561L145.068 43.3885H154.986L146.961 49.2188L150.027 58.6513L142.003 52.8221L133.978 58.6513L137.044 49.2188L129.02 43.3885H138.937L142.003 33.9561Z" fill="#F0F0F0"/>
<path d="M117.941 52.4775L121.006 61.9106H130.924L122.9 67.7403L125.965 77.1728L117.941 71.3436L109.916 77.1728L112.982 67.7403L104.957 61.9106H114.875L117.941 52.4775Z" fill="#F0F0F0"/>
<path d="M166.061 52.4775L169.127 61.9106H179.045L171.02 67.7403L174.086 77.1728L166.061 71.3436L158.037 77.1728L161.102 67.7403L153.078 61.9106H162.996L166.061 52.4775Z" fill="#F0F0F0"/>
<path d="M156.799 80.2598L159.865 89.6928H169.782L161.758 95.5225L164.824 104.955L156.799 99.1258L148.775 104.955L151.841 95.5225L143.816 89.6928H153.734L156.799 80.2598Z" fill="#F0F0F0"/>
<path d="M127.202 80.2598L130.267 89.6928H140.186L132.161 95.5225L135.227 104.955L127.202 99.1258L119.178 104.955L122.243 95.5225L114.219 89.6928H124.137L127.202 80.2598Z" fill="#F0F0F0"/>
</g>
<defs>
<clipPath id="clip0_1800_4344">
<rect width="284" height="284" fill="white"/>
</clipPath>
</defs>
</svg>
