<svg width="512" height="512" viewBox="0 0 512 512" fill="none" xmlns="http://www.w3.org/2000/svg">
<g clip-path="url(#clip0_1800_4359)">
<path d="M256 512C397.385 512 512 397.385 512 256C512 114.615 397.385 0 256 0C114.615 0 0 114.615 0 256C0 397.385 114.615 512 256 512Z" fill="#F0F0F0"/>
<path d="M74.9805 437.02C-24.9935 337.045 -24.9935 174.955 74.9805 74.9805C74.9735 74.9915 222.609 256 222.609 256L74.9805 437.02Z" fill="black"/>
<path d="M222.611 256L33.9546 128.513C28.1056 138.68 22.9476 149.292 18.5156 160.276L114.025 256.001L18.5186 351.731C22.9466 362.707 28.0996 373.312 33.9446 383.472L222.611 256Z" fill="#FFDA44"/>
<path d="M509.831 222.609H222.6L74.9764 74.9844C59.0684 90.8924 45.2474 108.883 33.9514 128.514L161.19 256L33.9414 383.47C45.2374 403.106 59.0644 421.103 74.9764 437.015L222.6 289.391H509.831C511.254 278.461 511.998 267.317 511.998 256C511.998 244.683 511.254 233.539 509.831 222.609Z" fill="#6DA544"/>
<path d="M100.137 459.077C143.306 492.259 197.343 512 255.999 512C374.278 512 473.804 431.779 503.18 322.783H236.432L100.137 459.077Z" fill="#0052B4"/>
<path d="M503.18 189.217C473.804 80.221 374.278 0 255.999 0C197.343 0 143.306 19.741 100.137 52.923L236.431 189.217H503.18Z" fill="#D80027"/>
</g>
<defs>
<clipPath id="clip0_1800_4359">
<rect width="512" height="512" fill="white"/>
</clipPath>
</defs>
</svg>
