<svg width="384" height="384" viewBox="0 0 384 384" fill="none" xmlns="http://www.w3.org/2000/svg">
<g clip-path="url(#clip0_1800_4292)">
<path d="M192 384C298.039 384 384 298.039 384 192C384 85.9613 298.039 0 192 0C85.9613 0 0 85.9613 0 192C0 298.039 85.9613 384 192 384Z" fill="#F0F0F0"/>
<path d="M183.652 192H384C384 174.671 381.69 157.883 377.386 141.913H183.652V192Z" fill="#D80027"/>
<path d="M183.652 91.8263H355.819C344.066 72.6473 329.038 55.695 311.517 41.739H183.652V91.8263Z" fill="#D80027"/>
<path d="M191.997 384C237.184 384 278.717 368.382 311.514 342.261H72.4805C105.278 368.382 146.811 384 191.997 384Z" fill="#D80027"/>
<path d="M28.1795 292.174H355.819C365.254 276.777 372.572 259.947 377.385 242.086H6.61328C11.426 259.947 18.7438 276.777 28.1795 292.174Z" fill="#D80027"/>
<path d="M88.938 29.9835H106.435L90.1597 41.8073L96.3765 60.939L80.1022 49.1152L63.828 60.939L69.198 44.4113C54.8685 56.3475 42.309 70.332 31.959 85.914H37.5653L27.2055 93.4402C25.5915 96.1328 24.0435 98.868 22.56 101.644L27.507 116.87L18.2775 110.164C15.9833 115.024 13.8848 119.995 11.9985 125.068L17.4487 141.845H37.5653L21.2902 153.668L27.507 172.8L11.2327 160.976L1.48425 168.059C0.5085 175.903 0 183.892 0 192H192C192 85.962 192 73.461 192 0C154.071 0 118.714 11.0025 88.938 29.9835ZM96.3765 172.8L80.1022 160.976L63.828 172.8L70.0447 153.668L53.7698 141.845H73.8862L80.1022 122.713L86.3183 141.845H106.435L90.1597 153.668L96.3765 172.8ZM90.1597 97.7377L96.3765 116.87L80.1022 105.046L63.828 116.87L70.0447 97.7377L53.7698 85.914H73.8862L80.1022 66.7822L86.3183 85.914H106.435L90.1597 97.7377ZM165.246 172.8L148.972 160.976L132.697 172.8L138.914 153.668L122.639 141.845H142.756L148.972 122.713L155.188 141.845H175.304L159.029 153.668L165.246 172.8ZM159.029 97.7377L165.246 116.87L148.972 105.046L132.697 116.87L138.914 97.7377L122.639 85.914H142.756L148.972 66.7822L155.188 85.914H175.304L159.029 97.7377ZM159.029 41.8073L165.246 60.939L148.972 49.1152L132.697 60.939L138.914 41.8073L122.639 29.9835H142.756L148.972 10.8517L155.188 29.9835H175.304L159.029 41.8073Z" fill="#0052B4"/>
</g>
<defs>
<clipPath id="clip0_1800_4292">
<rect width="384" height="384" fill="white"/>
</clipPath>
</defs>
</svg>
