<svg width="367" height="367" viewBox="0 0 367 367" fill="none" xmlns="http://www.w3.org/2000/svg">
<g clip-path="url(#clip0_1800_4377)">
<path d="M183.5 367C284.844 367 367 284.844 367 183.5C367 82.1557 284.844 0 183.5 0C82.1557 0 0 82.1557 0 183.5C0 284.844 82.1557 367 183.5 367Z" fill="#F0F0F0"/>
<path d="M37.9318 71.7812C23.5177 90.5348 12.6489 112.15 6.32031 135.631H101.782L37.9318 71.7812Z" fill="#0052B4"/>
<path d="M360.679 135.632C354.35 112.151 343.481 90.5358 329.067 71.7822L265.219 135.632H360.679Z" fill="#0052B4"/>
<path d="M6.32031 231.371C12.6496 254.851 23.5184 276.466 37.9318 295.219L101.78 231.371H6.32031Z" fill="#0052B4"/>
<path d="M295.217 37.9335C276.463 23.5194 254.849 12.6506 231.367 6.32129V101.782L295.217 37.9335Z" fill="#0052B4"/>
<path d="M71.7812 329.066C90.5348 343.48 112.15 354.349 135.631 360.678V265.218L71.7812 329.066Z" fill="#0052B4"/>
<path d="M135.63 6.32129C112.149 12.6506 90.5341 23.5194 71.7812 37.9327L135.63 101.781V6.32129Z" fill="#0052B4"/>
<path d="M231.367 360.678C254.848 354.349 276.463 343.48 295.216 329.067L231.367 265.218V360.678Z" fill="#0052B4"/>
<path d="M265.219 231.371L329.067 295.22C343.481 276.467 354.35 254.851 360.679 231.371H265.219Z" fill="#0052B4"/>
<path d="M365.447 159.565H207.436H207.435V1.5533C199.6 0.533297 191.612 0 183.5 0C175.387 0 167.4 0.533297 159.565 1.5533V159.564V159.565H1.5533C0.533297 167.4 0 175.388 0 183.5C0 191.613 0.533297 199.6 1.5533 207.435H159.564H159.565V365.447C167.4 366.467 175.387 367 183.5 367C191.612 367 199.6 366.467 207.435 365.447V207.436V207.435H365.447C366.467 199.6 367 191.613 367 183.5C367 175.388 366.467 167.4 365.447 159.565Z" fill="#D80027"/>
<path d="M231.371 231.37L313.255 313.254C317.021 309.49 320.614 305.554 324.041 301.474L253.937 231.37H231.371V231.37Z" fill="#D80027"/>
<path d="M135.631 231.371H135.629L53.7461 313.254C57.5107 317.02 61.4466 320.613 65.5266 324.04L135.631 253.935V231.371Z" fill="#D80027"/>
<path d="M135.631 135.632V135.63L53.7473 53.7456C49.9812 57.5102 46.3887 61.4462 42.9609 65.5262L113.066 135.631H135.631V135.632Z" fill="#D80027"/>
<path d="M231.371 135.632L313.256 53.7461C309.491 49.98 305.555 46.3875 301.475 42.9604L231.371 113.065V135.632Z" fill="#D80027"/>
</g>
<defs>
<clipPath id="clip0_1800_4377">
<rect width="367" height="367" fill="white"/>
</clipPath>
</defs>
</svg>
