<?xml version="1.0" encoding="utf-8"?>
<!-- Generator: Adobe Illustrator 25.2.1, SVG Export Plug-In . SVG Version: 6.00 Build 0)  -->
<svg version="1.1" id="Layer_1" xmlns="http://www.w3.org/2000/svg" xmlns:xlink="http://www.w3.org/1999/xlink" x="0px" y="0px"
	 viewBox="0 0 229.9 39.2" style="enable-background:new 0 0 229.9 39.2;" xml:space="preserve">
<style type="text/css">
	.st0{enable-background:new    ;}
	.st1{fill:#3C4349;}
	.st2{fill:#1A1818;}
</style>
<g transform="translate(-860.055 -5893)">
	<g class="st0">
		<path class="st1" d="M935.5,5912.1c0-1.4,0.3-2.8,0.8-4.2c0.5-1.4,1.2-2.7,2.2-3.8c1-1.1,2.2-2,3.6-2.7c1.4-0.7,3-1,4.8-1
			c2.1,0,4,0.5,5.5,1.4c1.5,0.9,2.7,2.2,3.4,3.7l-2.9,1.9c-0.3-0.7-0.7-1.3-1.2-1.8c-0.5-0.5-1-0.9-1.5-1.2
			c-0.6-0.3-1.1-0.5-1.7-0.6c-0.6-0.1-1.2-0.2-1.7-0.2c-1.2,0-2.3,0.2-3.2,0.7c-0.9,0.5-1.7,1.1-2.3,2c-0.6,0.8-1.1,1.7-1.4,2.7
			c-0.3,1-0.5,2-0.5,3c0,1.1,0.2,2.2,0.6,3.3c0.4,1,0.9,1.9,1.6,2.7c0.7,0.8,1.5,1.4,2.4,1.9c0.9,0.5,1.9,0.7,3,0.7
			c0.6,0,1.2-0.1,1.8-0.2c0.6-0.1,1.2-0.4,1.7-0.7c0.6-0.3,1.1-0.7,1.6-1.2c0.5-0.5,0.9-1.1,1.2-1.7l3.1,1.7
			c-0.4,0.9-0.9,1.7-1.6,2.3c-0.7,0.7-1.5,1.2-2.3,1.7c-0.9,0.5-1.8,0.8-2.7,1.1s-1.9,0.4-2.8,0.4c-1.6,0-3.2-0.4-4.5-1.1
			c-1.4-0.7-2.5-1.6-3.5-2.8c-1-1.1-1.8-2.4-2.3-3.9C935.8,5915.1,935.5,5913.6,935.5,5912.1z"/>
		<path class="st1" d="M968.8,5909.9c-1.4,0-2.7,0.4-3.7,1c-1.1,0.6-1.9,1.5-2.3,2.6v10.6h-3.6v-17.3h3.4v3.9
			c0.6-1.2,1.4-2.1,2.3-2.9c1-0.7,2-1.1,3.1-1.2c0.2,0,0.4,0,0.5,0c0.1,0,0.3,0,0.4,0V5909.9z"/>
		<path class="st1" d="M978.3,5924.3c-1.4,0-2.6-0.2-3.7-0.7c-1.1-0.5-2-1.1-2.8-1.9s-1.4-1.8-1.8-2.9c-0.4-1.1-0.6-2.2-0.6-3.4
			c0-1.2,0.2-2.3,0.6-3.4c0.4-1.1,1-2,1.8-2.9c0.8-0.8,1.7-1.5,2.8-1.9c1.1-0.5,2.3-0.7,3.6-0.7c1.3,0,2.6,0.2,3.6,0.7
			c1.1,0.5,2,1.1,2.8,1.9c0.8,0.8,1.4,1.8,1.8,2.9c0.4,1.1,0.6,2.2,0.6,3.4c0,1.2-0.2,2.3-0.6,3.4c-0.4,1.1-1,2-1.8,2.9
			c-0.8,0.8-1.7,1.5-2.8,1.9C980.9,5924.1,979.7,5924.3,978.3,5924.3z M973.2,5915.4c0,0.8,0.1,1.6,0.4,2.3c0.3,0.7,0.6,1.3,1.1,1.8
			c0.5,0.5,1,0.9,1.6,1.2s1.3,0.4,2,0.4c0.7,0,1.4-0.1,2-0.4s1.2-0.7,1.6-1.2c0.5-0.5,0.8-1.1,1.1-1.8c0.3-0.7,0.4-1.5,0.4-2.3
			c0-0.8-0.1-1.6-0.4-2.3c-0.3-0.7-0.6-1.3-1.1-1.9c-0.5-0.5-1-0.9-1.6-1.2s-1.3-0.4-2-0.4c-0.7,0-1.4,0.2-2,0.5
			c-0.6,0.3-1.2,0.7-1.6,1.3c-0.5,0.5-0.8,1.2-1.1,1.9S973.2,5914.6,973.2,5915.4z"/>
		<path class="st1" d="M996.7,5924.3c-1.4,0-2.8-0.2-4.1-0.7c-1.4-0.5-2.6-1.1-3.5-1.9l1.5-2.3c1,0.7,2.1,1.3,3.1,1.7
			c1,0.4,2,0.6,3.1,0.6c1.1,0,1.9-0.2,2.6-0.6s0.9-1,0.9-1.8c0-0.7-0.4-1.3-1.1-1.6s-1.8-0.7-3.3-1.1c-1.1-0.3-2-0.6-2.8-0.8
			c-0.8-0.3-1.4-0.6-1.9-0.9c-0.5-0.4-0.8-0.8-1.1-1.2c-0.2-0.5-0.3-1-0.3-1.7c0-0.9,0.2-1.7,0.5-2.3c0.3-0.7,0.8-1.3,1.4-1.7
			c0.6-0.5,1.3-0.8,2.1-1.1c0.8-0.2,1.7-0.4,2.6-0.4c1.3,0,2.5,0.2,3.6,0.6c1.1,0.4,2.1,1,3,1.7l-1.6,2.2c-1.6-1.3-3.3-1.9-5.1-1.9
			c-0.9,0-1.7,0.2-2.3,0.6c-0.6,0.4-0.9,1-0.9,1.8c0,0.4,0.1,0.6,0.2,0.9s0.3,0.5,0.6,0.6s0.7,0.3,1.2,0.5c0.5,0.1,1.1,0.3,1.8,0.5
			c1.2,0.3,2.2,0.6,3,0.9c0.8,0.3,1.5,0.6,2.1,1c0.5,0.4,1,0.8,1.2,1.4c0.3,0.5,0.4,1.1,0.4,1.9c0,1.6-0.6,3-1.9,3.9
			S998.8,5924.3,996.7,5924.3z"/>
		<path class="st1" d="M1013.1,5924.3c-1.4,0-2.8-0.2-4.1-0.7c-1.4-0.5-2.6-1.1-3.5-1.9l1.5-2.3c1,0.7,2.1,1.3,3.1,1.7
			c1,0.4,2,0.6,3.1,0.6c1.1,0,1.9-0.2,2.6-0.6s0.9-1,0.9-1.8c0-0.7-0.4-1.3-1.1-1.6c-0.7-0.3-1.8-0.7-3.3-1.1
			c-1.1-0.3-2-0.6-2.8-0.8c-0.8-0.3-1.4-0.6-1.9-0.9c-0.5-0.4-0.8-0.8-1.1-1.2s-0.3-1-0.3-1.7c0-0.9,0.2-1.7,0.5-2.3
			s0.8-1.3,1.4-1.7c0.6-0.5,1.3-0.8,2.1-1.1c0.8-0.2,1.7-0.4,2.6-0.4c1.3,0,2.5,0.2,3.6,0.6c1.1,0.4,2.1,1,3,1.7l-1.6,2.2
			c-1.6-1.3-3.3-1.9-5.1-1.9c-0.9,0-1.7,0.2-2.3,0.6s-0.9,1-0.9,1.8c0,0.4,0.1,0.6,0.2,0.9s0.3,0.5,0.6,0.6s0.7,0.3,1.2,0.5
			c0.5,0.1,1.1,0.3,1.8,0.5c1.2,0.3,2.2,0.6,3,0.9c0.8,0.3,1.5,0.6,2.1,1s1,0.8,1.2,1.4c0.3,0.5,0.4,1.1,0.4,1.9
			c0,1.6-0.6,3-1.9,3.9C1016.9,5923.9,1015.2,5924.3,1013.1,5924.3z"/>
		<path class="st1" d="M1023,5916.6v-3.3h9.9v3.3H1023z"/>
		<path class="st1" d="M1036,5912.1c0-1.4,0.3-2.8,0.8-4.2c0.5-1.4,1.2-2.7,2.2-3.8c1-1.1,2.2-2,3.6-2.7c1.4-0.7,3-1,4.8-1
			c2.1,0,4,0.5,5.5,1.4c1.5,0.9,2.7,2.2,3.4,3.7l-2.9,1.9c-0.3-0.7-0.7-1.3-1.2-1.8c-0.5-0.5-1-0.9-1.5-1.2
			c-0.6-0.3-1.1-0.5-1.7-0.6c-0.6-0.1-1.2-0.2-1.7-0.2c-1.2,0-2.3,0.2-3.2,0.7c-0.9,0.5-1.7,1.1-2.3,2c-0.6,0.8-1.1,1.7-1.4,2.7
			c-0.3,1-0.5,2-0.5,3c0,1.1,0.2,2.2,0.6,3.3c0.4,1,0.9,1.9,1.6,2.7c0.7,0.8,1.5,1.4,2.4,1.9c0.9,0.5,1.9,0.7,3,0.7
			c0.6,0,1.2-0.1,1.8-0.2c0.6-0.1,1.2-0.4,1.7-0.7c0.6-0.3,1.1-0.7,1.6-1.2c0.5-0.5,0.9-1.1,1.2-1.7l3.1,1.7
			c-0.4,0.9-0.9,1.7-1.6,2.3c-0.7,0.7-1.5,1.2-2.3,1.7c-0.9,0.5-1.8,0.8-2.7,1.1s-1.9,0.4-2.8,0.4c-1.6,0-3.2-0.4-4.5-1.1
			c-1.4-0.7-2.5-1.6-3.5-2.8s-1.8-2.4-2.3-3.9C1036.3,5915.1,1036,5913.6,1036,5912.1z"/>
		<path class="st1" d="M1064.9,5924.3c-1.8,0-3.2-0.6-4.1-1.8c-0.9-1.2-1.4-2.9-1.4-5.3v-10.6h3.6v9.8c0,3.1,1.1,4.7,3.3,4.7
			c1,0,2-0.3,2.9-1c0.9-0.6,1.6-1.6,2.1-2.8v-10.8h3.6v13c0,0.4,0.1,0.7,0.2,0.9c0.1,0.2,0.4,0.3,0.8,0.3v3.1
			c-0.4,0.1-0.7,0.1-0.9,0.1c-0.2,0-0.5,0-0.7,0c-0.7,0-1.2-0.2-1.7-0.5c-0.5-0.4-0.7-0.8-0.7-1.4l-0.1-1.7c-0.8,1.3-1.8,2.2-3,2.9
			C1067.8,5924,1066.4,5924.3,1064.9,5924.3z"/>
		<path class="st1" d="M1089.3,5923.1c-0.5,0.2-1.1,0.5-1.9,0.7c-0.8,0.3-1.7,0.4-2.6,0.4c-0.6,0-1.1-0.1-1.6-0.2
			c-0.5-0.2-1-0.4-1.3-0.7c-0.4-0.3-0.7-0.7-0.9-1.2s-0.3-1.1-0.3-1.8v-10.8h-2.3v-2.8h2.3v-5.7h3.6v5.7h3.8v2.8h-3.8v9.6
			c0,0.6,0.2,1.1,0.6,1.3c0.3,0.3,0.8,0.4,1.3,0.4c0.5,0,1-0.1,1.5-0.3c0.5-0.2,0.8-0.3,1-0.4L1089.3,5923.1z"/>
	</g>
	<path class="st2" d="M880.8,5893l-2.7,1.4l7.2,13.8l2.7-1.4L880.8,5893z M900.8,5903l-2.5-1.7l-8.9,12.7l2.5,1.7L900.8,5903z
		 M898.3,5914l0.8,2.9l15-4.3l-0.8-2.9L898.3,5914z M899.6,5927.3l0.8-2.9l-15.1-4l-0.8,2.9L899.6,5927.3z M870.8,5930.3l2.2-2.1
		l-10.7-11.3l-2.2,2.1L870.8,5930.3z M903.6,5930.6l2.6,1.6l8.3-13.2l-2.6-1.6L903.6,5930.6z M863.8,5900.9l-1.5,2.6l13.4,7.9
		l1.5-2.6L863.8,5900.9z M885.4,5914.6l-1.4-2.7l-13.9,7l1.4,2.7L885.4,5914.6z M901.5,5894.3l-1.7,2.5l13,8.6l1.7-2.5L901.5,5894.3
		z"/>
</g>
</svg>
