<svg xmlns="http://www.w3.org/2000/svg" width="131.017" height="22.673" viewBox="0 0 131.017 22.673"><g transform="translate(-114 -9146.104)"><path d="M750.973,116.938V101.085h4.354v15.853Z" transform="translate(-609.577 9047.854)" fill="#3c4349"/><path d="M784.905,127.1h-4.242v-6.609a1.732,1.732,0,0,0-.391-1.261,1.242,1.242,0,0,0-.9-.391,1.9,1.9,0,0,0-1.139.469,2.791,2.791,0,0,0-.893,1.206V127.1h-4.242V115.358h3.818V117.1a3.953,3.953,0,0,1,1.753-1.463,6.514,6.514,0,0,1,2.668-.5,3.607,3.607,0,0,1,1.909.435,3.047,3.047,0,0,1,1.072,1.083,3.985,3.985,0,0,1,.48,1.384,8.983,8.983,0,0,1,.112,1.34Z" transform="translate(-625.581 9037.688)" fill="#3c4349"/><path d="M827.357,117.4a12.992,12.992,0,0,1-1.909.637,8.15,8.15,0,0,1-2,.257,5.091,5.091,0,0,1-1.362-.179,2.945,2.945,0,0,1-1.128-.58,2.761,2.761,0,0,1-.759-1.049,4.068,4.068,0,0,1-.279-1.608V109.5h-1.451V106.3h1.451v-3.684h4.242V106.3h2.3V109.5h-2.3v3.885a1.1,1.1,0,0,0,.245.815.93.93,0,0,0,.67.235,2.989,2.989,0,0,0,.714-.1,4.857,4.857,0,0,0,.8-.279Z" transform="translate(-658.411 9046.744)" fill="#3c4349"/><path d="M856.147,127.326a7.372,7.372,0,0,1-2.746-.48,5.814,5.814,0,0,1-2.021-1.306,5.617,5.617,0,0,1-1.239-1.9,6.069,6.069,0,0,1-.424-2.255,7.018,7.018,0,0,1,.413-2.412,5.579,5.579,0,0,1,1.228-1.987,5.935,5.935,0,0,1,2.009-1.351,7.913,7.913,0,0,1,5.548,0,5.994,5.994,0,0,1,2.021,1.34,5.531,5.531,0,0,1,1.228,1.942,6.541,6.541,0,0,1,.413,2.311q0,.335-.033.681t-.079.614h-8.238a1.649,1.649,0,0,0,.692,1.351,2.422,2.422,0,0,0,1.362.413,2.841,2.841,0,0,0,1.306-.312,1.571,1.571,0,0,0,.815-.871L862,124.133a5.665,5.665,0,0,1-2.2,2.3A6.964,6.964,0,0,1,856.147,127.326Zm1.875-7.346a2.183,2.183,0,0,0-.625-1.339,2.011,2.011,0,0,0-2.634,0,2.179,2.179,0,0,0-.625,1.339Z" transform="translate(-681.016 9037.688)" fill="#3c4349"/><path d="M898.484,99.471h4.242V111.1q0,1.34,1.094,1.339a2.127,2.127,0,0,0,.581-.089,2.509,2.509,0,0,0,.58-.246l.536,3.126a7.8,7.8,0,0,1-1.708.558,8.677,8.677,0,0,1-1.8.2,3.642,3.642,0,0,1-2.612-.871,3.316,3.316,0,0,1-.916-2.523Z" transform="translate(-716.298 9049.021)" fill="#3c4349"/><path d="M924.725,99.471h4.242V111.1q0,1.34,1.094,1.339a2.126,2.126,0,0,0,.58-.089,2.507,2.507,0,0,0,.581-.246l.536,3.126a7.8,7.8,0,0,1-1.708.558,8.684,8.684,0,0,1-1.8.2,3.643,3.643,0,0,1-2.612-.871,3.317,3.317,0,0,1-.915-2.523Z" transform="translate(-735.283 9049.021)" fill="#3c4349"/><path d="M951.289,103.043V99.471h4.242v3.572Zm0,12.726V104.026h4.242V115.77Z" transform="translate(-754.501 9049.021)" fill="#3c4349"/><path d="M984.292,118.318a3.048,3.048,0,0,1-1.474,2.732,5.092,5.092,0,0,1-1.6.639,8.785,8.785,0,0,1-1.937.206h-6.86V107.938h8.1a2.76,2.76,0,0,1,1.317.314,3.286,3.286,0,0,1,1,.816,3.745,3.745,0,0,1,.639,1.14,3.9,3.9,0,0,1,.226,1.307,3.784,3.784,0,0,1-.5,1.877,3.151,3.151,0,0,1-1.5,1.347,3.4,3.4,0,0,1,2.594,3.578Zm-8.04-7.117v2.143h2.615a1.262,1.262,0,0,0,.718-.216.973.973,0,0,0,.324-.865,1.049,1.049,0,0,0-.275-.816.944.944,0,0,0-.649-.246Zm4.148,6.33a1.328,1.328,0,0,0-.275-.855.867.867,0,0,0-.708-.344h-3.165v2.339h3.027a1.141,1.141,0,0,0,.8-.295A1.084,1.084,0,0,0,980.4,117.531Z" transform="translate(-769.789 9042.896)" fill="#fdb913"/><path d="M1018.506,107.938h3.5l4.836,13.957h-3.892l-.845-2.733h-3.715l-.826,2.733h-3.912Zm2.988,8.669-1.239-4.325-1.3,4.325Z" transform="translate(-799.618 9042.896)" fill="#fdb913"/><path d="M1063.412,121.9V107.938h6.409a4.241,4.241,0,0,1,1.887.423,4.9,4.9,0,0,1,1.484,1.1,5.152,5.152,0,0,1,.973,1.553,4.664,4.664,0,0,1,.354,1.76,4.97,4.97,0,0,1-.531,2.271,4.628,4.628,0,0,1-1.474,1.72l2.949,5.131h-4.324l-2.458-4.286h-1.435V121.9Zm3.833-7.627h2.418a.847.847,0,0,0,.658-.393,1.759,1.759,0,0,0,.305-1.1,1.581,1.581,0,0,0-.354-1.111.99.99,0,0,0-.708-.384h-2.32Z" transform="translate(-835.62 9042.896)" fill="#fdb913"/><path d="M1108.941,108.947h-.8V110.9h-.5v-1.948h-.8v-.5h2.1Zm2.394-.487h.722V110.9h-.5v-1.747l-.655,1.394h-.412l-.655-1.394V110.9h-.5V108.46h.714l.647,1.495Z" transform="translate(-867.04 9042.53)" fill="#fdb913"/><path d="M672.934,116.995a5.344,5.344,0,1,0,5.344,5.344A5.344,5.344,0,0,0,672.934,116.995Z" transform="translate(-547.714 9035.357)" fill="none"/><path d="M726.783,125.717a12.561,12.561,0,0,1-.656,5.948,9.29,9.29,0,0,1-.175.925c-.02.081-.047.162-.069.243a5.533,5.533,0,0,0,1.286-2.539A7.448,7.448,0,0,0,726.783,125.717Z" transform="translate(-590.963 9028.886)" fill="#ffd97d"/><path d="M645.7,128.825A8.549,8.549,0,0,0,650.6,140.76a10.967,10.967,0,0,0,2.033.516,11.42,11.42,0,0,1-3.769-2.551A11.661,11.661,0,0,1,645.7,128.825Z" transform="translate(-530.822 9026.58)" fill="#ffd97d"/><path d="M696.256,97.318a10.3,10.3,0,0,1,4.928,4.923,10.751,10.751,0,0,0-2-5.166,7.463,7.463,0,0,0-3.382-2.53,8.8,8.8,0,0,0-4.426-.336,13.133,13.133,0,0,1,4.141,2.438C695.771,96.86,696.016,97.085,696.256,97.318Z" transform="translate(-565.363 9052.362)" fill="#ffd97d"/><path d="M710.275,106.641a14.89,14.89,0,0,1,3.913,6.348,10.643,10.643,0,0,1,.36,4.524,12.56,12.56,0,0,0,.655-5.948A10.3,10.3,0,0,0,710.275,106.641Z" transform="translate(-579.383 9043.039)" fill="#ffa800" opacity="0.5"/><path d="M710.275,106.641a14.89,14.89,0,0,1,3.913,6.348,10.643,10.643,0,0,1,.36,4.524,12.56,12.56,0,0,0,.655-5.948A10.3,10.3,0,0,0,710.275,106.641Z" transform="translate(-579.383 9043.039)" fill="#ffbb42"/><path d="M687.5,153.956c-.033.05-.062.1-.1.154a12.979,12.979,0,0,1-12.332,5.318,11.479,11.479,0,0,0,6.049.81c3.456-.5,6.16-3.683,7.064-6.947A6.851,6.851,0,0,1,687.5,153.956Z" transform="translate(-553.266 9008.429)" fill="#ffeb81"/><path d="M648.638,101.287a7.747,7.747,0,0,1,5.952-6.238,13.493,13.493,0,0,1,4.779-1.8,6.706,6.706,0,0,0-6.868,1.127,12.519,12.519,0,0,0-4.267,7.707c.01-.02.016-.041.025-.061Q648.436,101.647,648.638,101.287Z" transform="translate(-533.353 9053.32)" fill="#ffeb81"/><path d="M653.508,103.257a13.079,13.079,0,0,1,2.242-1.7A7.748,7.748,0,0,0,649.8,107.8,19.636,19.636,0,0,1,653.508,103.257Z" transform="translate(-534.514 9046.809)" fill="#ffa800" opacity="0.5"/><path d="M653.508,103.257a13.079,13.079,0,0,1,2.242-1.7A7.748,7.748,0,0,0,649.8,107.8,19.636,19.636,0,0,1,653.508,103.257Z" transform="translate(-534.514 9046.809)" fill="#ffcd43"/><path d="M724.158,148.765a9.285,9.285,0,0,1-.93,1.833,6.841,6.841,0,0,0,.685-.665c.022-.081.049-.162.069-.243A9.257,9.257,0,0,0,724.158,148.765Z" transform="translate(-588.993 9011.786)" fill="#ffa800" opacity="0.5"/><path d="M724.158,148.765a9.285,9.285,0,0,1-.93,1.833,6.841,6.841,0,0,0,.685-.665c.022-.081.049-.162.069-.243A9.257,9.257,0,0,0,724.158,148.765Z" transform="translate(-588.993 9011.786)" fill="#ffcd43"/><path d="M673.053,96.339a12,12,0,0,1,4.122-.23,15.377,15.377,0,0,1,5.341,1.6c-.24-.233-.485-.458-.736-.671a13.133,13.133,0,0,0-4.141-2.438,13.493,13.493,0,0,0-4.779,1.8C672.925,96.376,672.987,96.355,673.053,96.339Z" transform="translate(-551.624 9051.976)" fill="#ffbe00" opacity="0.5"/><path d="M673.053,96.339a12,12,0,0,1,4.122-.23,15.377,15.377,0,0,1,5.341,1.6c-.24-.233-.485-.458-.736-.671a13.133,13.133,0,0,0-4.141-2.438,13.493,13.493,0,0,0-4.779,1.8C672.925,96.376,672.987,96.355,673.053,96.339Z" transform="translate(-551.624 9051.976)" fill="#ffcd43"/><path d="M667.122,133.664c.034-.05.063-.1.1-.154a25.417,25.417,0,0,1-4.648,2.711c-3.668,1.938-8.129,3.24-11.256.313-2.463-2.306-3.4-6.277-3.206-9.537a10.013,10.013,0,0,1,.158-1.265q-.2.361-.378.737c-.009.02-.016.041-.025.061a11.661,11.661,0,0,0,3.157,9.9,11.419,11.419,0,0,0,3.769,2.551A12.979,12.979,0,0,0,667.122,133.664Z" transform="translate(-532.983 9028.875)" fill="#ffbe00" opacity="0.5"/><path d="M667.122,133.664c.034-.05.063-.1.1-.154a25.417,25.417,0,0,1-4.648,2.711c-3.668,1.938-8.129,3.24-11.256.313-2.463-2.306-3.4-6.277-3.206-9.537a10.013,10.013,0,0,1,.158-1.265q-.2.361-.378.737c-.009.02-.016.041-.025.061a11.661,11.661,0,0,0,3.157,9.9,11.419,11.419,0,0,0,3.769,2.551A12.979,12.979,0,0,0,667.122,133.664Z" transform="translate(-532.983 9028.875)" fill="#ffcd43"/><path d="M668.793,108.176a14.89,14.89,0,0,0-3.913-6.348,15.377,15.377,0,0,0-5.341-1.6,12,12,0,0,0-4.122.23c-.066.016-.128.037-.193.055a13.077,13.077,0,0,0-2.242,1.7,19.633,19.633,0,0,0-3.71,4.541,10,10,0,0,0-.159,1.265c-.193,3.26.743,7.231,3.206,9.537,3.127,2.927,7.588,1.626,11.256-.313a25.417,25.417,0,0,0,4.647-2.711,9.292,9.292,0,0,0,.93-1.833A10.643,10.643,0,0,0,668.793,108.176Zm-9.585,7.013a5.344,5.344,0,1,1,5.344-5.344A5.344,5.344,0,0,1,659.208,115.189Z" transform="translate(-533.988 9047.852)" fill="#ffa800" opacity="0.5"/><path d="M668.793,108.176a14.89,14.89,0,0,0-3.913-6.348,15.377,15.377,0,0,0-5.341-1.6,12,12,0,0,0-4.122.23c-.066.016-.128.037-.193.055a13.077,13.077,0,0,0-2.242,1.7,19.633,19.633,0,0,0-3.71,4.541,10,10,0,0,0-.159,1.265c-.193,3.26.743,7.231,3.206,9.537,3.127,2.927,7.588,1.626,11.256-.313a25.417,25.417,0,0,0,4.647-2.711,9.292,9.292,0,0,0,.93-1.833A10.643,10.643,0,0,0,668.793,108.176Zm-9.585,7.013a5.344,5.344,0,1,1,5.344-5.344A5.344,5.344,0,0,1,659.208,115.189Z" transform="translate(-533.988 9047.852)" fill="#ffbe00" opacity="0.5"/><path d="M668.793,108.176a14.89,14.89,0,0,0-3.913-6.348,15.377,15.377,0,0,0-5.341-1.6,12,12,0,0,0-4.122.23c-.066.016-.128.037-.193.055a13.077,13.077,0,0,0-2.242,1.7,19.633,19.633,0,0,0-3.71,4.541,10,10,0,0,0-.159,1.265c-.193,3.26.743,7.231,3.206,9.537,3.127,2.927,7.588,1.626,11.256-.313a25.417,25.417,0,0,0,4.647-2.711,9.292,9.292,0,0,0,.93-1.833A10.643,10.643,0,0,0,668.793,108.176Zm-9.585,7.013a5.344,5.344,0,1,1,5.344-5.344A5.344,5.344,0,0,1,659.208,115.189Z" transform="translate(-533.988 9047.852)" fill="#fdb913"/></g></svg>