<svg xmlns="http://www.w3.org/2000/svg" width="22.398" height="22.673" viewBox="0 0 22.398 22.673"><g transform="translate(-309 -9146.104)"><path d="M672.934,116.995a5.344,5.344,0,1,0,5.344,5.344A5.344,5.344,0,0,0,672.934,116.995Z" transform="translate(-352.714 9035.357)" fill="none"/><path d="M726.783,125.717a12.561,12.561,0,0,1-.656,5.948,9.29,9.29,0,0,1-.175.925c-.02.081-.047.162-.069.243a5.533,5.533,0,0,0,1.286-2.539A7.448,7.448,0,0,0,726.783,125.717Z" transform="translate(-395.963 9028.886)" fill="#ffd97d"/><path d="M645.7,128.825A8.549,8.549,0,0,0,650.6,140.76a10.967,10.967,0,0,0,2.033.516,11.42,11.42,0,0,1-3.769-2.551A11.661,11.661,0,0,1,645.7,128.825Z" transform="translate(-335.822 9026.58)" fill="#ffd97d"/><path d="M696.256,97.318a10.3,10.3,0,0,1,4.928,4.923,10.751,10.751,0,0,0-2-5.166,7.463,7.463,0,0,0-3.382-2.53,8.8,8.8,0,0,0-4.426-.336,13.133,13.133,0,0,1,4.141,2.438C695.771,96.86,696.016,97.085,696.256,97.318Z" transform="translate(-370.363 9052.362)" fill="#ffd97d"/><path d="M710.275,106.641a14.89,14.89,0,0,1,3.913,6.348,10.643,10.643,0,0,1,.36,4.524,12.56,12.56,0,0,0,.655-5.948A10.3,10.3,0,0,0,710.275,106.641Z" transform="translate(-384.383 9043.039)" fill="#ffa800" opacity="0.5"/><path d="M710.275,106.641a14.89,14.89,0,0,1,3.913,6.348,10.643,10.643,0,0,1,.36,4.524,12.56,12.56,0,0,0,.655-5.948A10.3,10.3,0,0,0,710.275,106.641Z" transform="translate(-384.383 9043.039)" fill="#ffbb42"/><path d="M687.5,153.956c-.033.05-.062.1-.1.154a12.979,12.979,0,0,1-12.332,5.318,11.479,11.479,0,0,0,6.049.81c3.456-.5,6.16-3.683,7.064-6.947A6.851,6.851,0,0,1,687.5,153.956Z" transform="translate(-358.266 9008.429)" fill="#ffeb81"/><path d="M648.638,101.287a7.747,7.747,0,0,1,5.952-6.238,13.493,13.493,0,0,1,4.779-1.8,6.706,6.706,0,0,0-6.868,1.127,12.519,12.519,0,0,0-4.267,7.707c.01-.02.016-.041.025-.061Q648.436,101.647,648.638,101.287Z" transform="translate(-338.353 9053.32)" fill="#ffeb81"/><path d="M653.508,103.257a13.079,13.079,0,0,1,2.242-1.7A7.748,7.748,0,0,0,649.8,107.8,19.636,19.636,0,0,1,653.508,103.257Z" transform="translate(-339.514 9046.809)" fill="#ffa800" opacity="0.5"/><path d="M653.508,103.257a13.079,13.079,0,0,1,2.242-1.7A7.748,7.748,0,0,0,649.8,107.8,19.636,19.636,0,0,1,653.508,103.257Z" transform="translate(-339.514 9046.809)" fill="#ffcd43"/><path d="M724.158,148.765a9.285,9.285,0,0,1-.93,1.833,6.841,6.841,0,0,0,.685-.665c.022-.081.049-.162.069-.243A9.257,9.257,0,0,0,724.158,148.765Z" transform="translate(-393.993 9011.786)" fill="#ffa800" opacity="0.5"/><path d="M724.158,148.765a9.285,9.285,0,0,1-.93,1.833,6.841,6.841,0,0,0,.685-.665c.022-.081.049-.162.069-.243A9.257,9.257,0,0,0,724.158,148.765Z" transform="translate(-393.993 9011.786)" fill="#ffcd43"/><path d="M673.053,96.339a12,12,0,0,1,4.122-.23,15.377,15.377,0,0,1,5.341,1.6c-.24-.233-.485-.458-.736-.671a13.133,13.133,0,0,0-4.141-2.438,13.493,13.493,0,0,0-4.779,1.8C672.925,96.376,672.987,96.355,673.053,96.339Z" transform="translate(-356.624 9051.976)" fill="#ffbe00" opacity="0.5"/><path d="M673.053,96.339a12,12,0,0,1,4.122-.23,15.377,15.377,0,0,1,5.341,1.6c-.24-.233-.485-.458-.736-.671a13.133,13.133,0,0,0-4.141-2.438,13.493,13.493,0,0,0-4.779,1.8C672.925,96.376,672.987,96.355,673.053,96.339Z" transform="translate(-356.624 9051.976)" fill="#ffcd43"/><path d="M667.122,133.664c.034-.05.063-.1.1-.154a25.417,25.417,0,0,1-4.648,2.711c-3.668,1.938-8.129,3.24-11.256.313-2.463-2.306-3.4-6.277-3.206-9.537a10.013,10.013,0,0,1,.158-1.265q-.2.361-.378.737c-.009.02-.016.041-.025.061a11.661,11.661,0,0,0,3.157,9.9,11.419,11.419,0,0,0,3.769,2.551A12.979,12.979,0,0,0,667.122,133.664Z" transform="translate(-337.983 9028.875)" fill="#ffbe00" opacity="0.5"/><path d="M667.122,133.664c.034-.05.063-.1.1-.154a25.417,25.417,0,0,1-4.648,2.711c-3.668,1.938-8.129,3.24-11.256.313-2.463-2.306-3.4-6.277-3.206-9.537a10.013,10.013,0,0,1,.158-1.265q-.2.361-.378.737c-.009.02-.016.041-.025.061a11.661,11.661,0,0,0,3.157,9.9,11.419,11.419,0,0,0,3.769,2.551A12.979,12.979,0,0,0,667.122,133.664Z" transform="translate(-337.983 9028.875)" fill="#ffcd43"/><path d="M668.793,108.176a14.89,14.89,0,0,0-3.913-6.348,15.377,15.377,0,0,0-5.341-1.6,12,12,0,0,0-4.122.23c-.066.016-.128.037-.193.055a13.077,13.077,0,0,0-2.242,1.7,19.633,19.633,0,0,0-3.71,4.541,10,10,0,0,0-.159,1.265c-.193,3.26.743,7.231,3.206,9.537,3.127,2.927,7.588,1.626,11.256-.313a25.417,25.417,0,0,0,4.647-2.711,9.292,9.292,0,0,0,.93-1.833A10.643,10.643,0,0,0,668.793,108.176Zm-9.585,7.013a5.344,5.344,0,1,1,5.344-5.344A5.344,5.344,0,0,1,659.208,115.189Z" transform="translate(-338.988 9047.852)" fill="#ffa800" opacity="0.5"/><path d="M668.793,108.176a14.89,14.89,0,0,0-3.913-6.348,15.377,15.377,0,0,0-5.341-1.6,12,12,0,0,0-4.122.23c-.066.016-.128.037-.193.055a13.077,13.077,0,0,0-2.242,1.7,19.633,19.633,0,0,0-3.71,4.541,10,10,0,0,0-.159,1.265c-.193,3.26.743,7.231,3.206,9.537,3.127,2.927,7.588,1.626,11.256-.313a25.417,25.417,0,0,0,4.647-2.711,9.292,9.292,0,0,0,.93-1.833A10.643,10.643,0,0,0,668.793,108.176Zm-9.585,7.013a5.344,5.344,0,1,1,5.344-5.344A5.344,5.344,0,0,1,659.208,115.189Z" transform="translate(-338.988 9047.852)" fill="#ffbe00" opacity="0.5"/><path d="M668.793,108.176a14.89,14.89,0,0,0-3.913-6.348,15.377,15.377,0,0,0-5.341-1.6,12,12,0,0,0-4.122.23c-.066.016-.128.037-.193.055a13.077,13.077,0,0,0-2.242,1.7,19.633,19.633,0,0,0-3.71,4.541,10,10,0,0,0-.159,1.265c-.193,3.26.743,7.231,3.206,9.537,3.127,2.927,7.588,1.626,11.256-.313a25.417,25.417,0,0,0,4.647-2.711,9.292,9.292,0,0,0,.93-1.833A10.643,10.643,0,0,0,668.793,108.176Zm-9.585,7.013a5.344,5.344,0,1,1,5.344-5.344A5.344,5.344,0,0,1,659.208,115.189Z" transform="translate(-338.988 9047.852)" fill="#fdb913"/></g></svg>