<?xml version="1.0" encoding="utf-8"?>
<!-- Generator: Adobe Illustrator 25.2.1, SVG Export Plug-In . SVG Version: 6.00 Build 0)  -->
<svg version="1.1" id="Layer_1" xmlns="http://www.w3.org/2000/svg" xmlns:xlink="http://www.w3.org/1999/xlink" x="0px" y="0px"
	 viewBox="0 0 298 66.7" style="enable-background:new 0 0 298 66.7;" xml:space="preserve">
<style type="text/css">
	.st0{fill:url(#SVGID_1_);}
	.st1{fill:url(#SVGID_2_);}
	.st2{fill:url(#SVGID_3_);}
	.st3{fill:url(#SVGID_4_);}
	.st4{fill:url(#SVGID_5_);}
	.st5{fill:url(#SVGID_6_);}
	.st6{fill:url(#SVGID_7_);}
	.st7{fill:url(#SVGID_8_);}
	.st8{fill:url(#SVGID_9_);}
	.st9{fill:url(#SVGID_10_);}
	.st10{fill:url(#SVGID_11_);}
	.st11{fill:url(#SVGID_12_);}
	.st12{fill:url(#SVGID_13_);}
	.st13{fill:url(#SVGID_14_);}
	.st14{fill:url(#SVGID_15_);}
	.st15{fill:url(#SVGID_16_);}
	.st16{enable-background:new    ;}
	.st17{fill:#6E6E6E;}
</style>
<g transform="translate(-559 -1978.329)">
	<g transform="translate(563.01 1978.306)">
		<g transform="translate(-0.01 0.023)">
			
				<linearGradient id="SVGID_1_" gradientUnits="userSpaceOnUse" x1="-98.777" y1="276.1249" x2="-98.777" y2="277.1249" gradientTransform="matrix(21.173 0 0 -31.418 2101.9922 8706.9287)">
				<stop  offset="0" style="stop-color:#6E6E6E"/>
				<stop  offset="9.099999e-02" style="stop-color:#757575"/>
				<stop  offset="0.225" style="stop-color:#888888"/>
				<stop  offset="0.385" style="stop-color:#A9A9A9"/>
				<stop  offset="0.51" style="stop-color:#C7C7C7"/>
				<stop  offset="0.512" style="stop-color:#BFBFBF"/>
				<stop  offset="0.516" style="stop-color:#A9A9A9"/>
				<stop  offset="0.522" style="stop-color:#868686"/>
				<stop  offset="0.525" style="stop-color:#6B6B6B"/>
				<stop  offset="1" style="stop-color:#BFBFBF"/>
			</linearGradient>
			<path class="st0" d="M2.5,0.4v28.9h18.5v2H0.2v-31H2.5 M2.7,0.2H0v31.4h21.2v-2.5H2.7V0.2z"/>
			
				<linearGradient id="SVGID_2_" gradientUnits="userSpaceOnUse" x1="-99.8917" y1="276.1251" x2="-99.8917" y2="277.1251" gradientTransform="matrix(27.714 0 0 -31.419 2814.408 8707.2129)">
				<stop  offset="0" style="stop-color:#6E6E6E"/>
				<stop  offset="9.099999e-02" style="stop-color:#757575"/>
				<stop  offset="0.225" style="stop-color:#888888"/>
				<stop  offset="0.385" style="stop-color:#A9A9A9"/>
				<stop  offset="0.51" style="stop-color:#C7C7C7"/>
				<stop  offset="0.512" style="stop-color:#BFBFBF"/>
				<stop  offset="0.516" style="stop-color:#A9A9A9"/>
				<stop  offset="0.522" style="stop-color:#868686"/>
				<stop  offset="0.525" style="stop-color:#6B6B6B"/>
				<stop  offset="1" style="stop-color:#BFBFBF"/>
			</linearGradient>
			<path class="st1" d="M59.4,0.4L47.2,16.1L59,31.4h-2.5L46.1,17.8L35.5,31.4H33l11.8-15.3L32.6,0.4h2.6l10.9,14.1L56.9,0.4H59.4
				 M59.9,0.2h-3.1l-0.1,0.1L46.1,14.2L35.4,0.3l-0.1-0.1h-3.2l0.3,0.4l12.1,15.6L32.8,31.3l-0.3,0.4h3.2l0.1-0.1l10.3-13.4
				l10.3,13.4l0.1,0.1h3.1l-0.3-0.4L47.5,16.1L59.6,0.6L59.9,0.2z"/>
			
				<linearGradient id="SVGID_3_" gradientUnits="userSpaceOnUse" x1="-99.3093" y1="276.2297" x2="-99.3093" y2="277.2297" gradientTransform="matrix(23.8626 0 0 -31.9045 2474.9348 8844.8662)">
				<stop  offset="0" style="stop-color:#6E6E6E"/>
				<stop  offset="9.099999e-02" style="stop-color:#757575"/>
				<stop  offset="0.225" style="stop-color:#888888"/>
				<stop  offset="0.385" style="stop-color:#A9A9A9"/>
				<stop  offset="0.51" style="stop-color:#C7C7C7"/>
				<stop  offset="0.512" style="stop-color:#BFBFBF"/>
				<stop  offset="0.516" style="stop-color:#A9A9A9"/>
				<stop  offset="0.522" style="stop-color:#868686"/>
				<stop  offset="0.525" style="stop-color:#6B6B6B"/>
				<stop  offset="1" style="stop-color:#BFBFBF"/>
			</linearGradient>
			<path class="st2" d="M105.6,0.2c1.8,0,3.6,0.3,5.4,0.9c1.6,0.6,3,1.5,4.3,2.7l-1.1,1.7c-2-2.2-4.8-3.4-8.5-3.4
				c-3,0-5.2,0.6-6.6,1.7c-1.4,1.1-2.1,2.9-2.1,4.6c0,0.9,0.1,1.7,0.5,2.5c0.4,0.7,1,1.3,1.6,1.7c0.9,0.5,1.8,0.9,2.8,1.2
				c1.1,0.3,2.5,0.7,4.1,1c1.7,0.3,3.2,0.7,4.5,1.2c1.2,0.4,2.4,0.9,3.4,1.6c0.9,0.6,1.7,1.4,2.2,2.4c0.5,1.1,0.8,2.3,0.8,3.4
				c0,1.2-0.2,2.5-0.8,3.6c-0.5,1-1.3,1.9-2.3,2.6c-1.1,0.7-2.2,1.2-3.5,1.5c-1.5,0.4-3,0.5-4.5,0.5c-4.5,0.1-8.9-1.5-12.3-4.6
				l1.2-1.8c1.4,1.4,3,2.5,4.8,3.2c2,0.8,4.2,1.2,6.4,1.2c2.2,0.1,4.4-0.4,6.3-1.5c1.5-1,2.4-2.7,2.3-4.5c0-0.9-0.2-1.8-0.6-2.6
				c-0.4-0.8-1.1-1.4-1.8-1.9c-0.9-0.6-2-1-3-1.4c-1.2-0.4-2.6-0.7-4.3-1.1c-1.7-0.3-3.1-0.7-4.4-1.1c-1.1-0.3-2.2-0.8-3.2-1.5
				c-0.8-0.5-1.5-1.3-1.9-2.2c-0.5-1-0.7-2.1-0.7-3.2c0-1.3,0.3-2.6,0.8-3.7c0.5-1.1,1.3-2,2.2-2.7c1-0.8,2.2-1.3,3.4-1.7
				C102.6,0.4,104.1,0.2,105.6,0.2 M105.6,0c-1.5,0-3,0.2-4.5,0.6c-1.3,0.3-2.5,0.9-3.5,1.7c-1,0.7-1.8,1.7-2.3,2.8
				c-0.6,1.2-0.9,2.5-0.8,3.8c0,1.1,0.2,2.3,0.7,3.3c0.5,0.9,1.2,1.7,2,2.2c1,0.7,2.1,1.2,3.2,1.5c1.3,0.4,2.7,0.8,4.4,1.1
				c1.6,0.3,3,0.7,4.3,1.1c1,0.3,2,0.7,3,1.3c0.7,0.4,1.3,1.1,1.7,1.8c0.4,0.8,0.6,1.6,0.6,2.5c0.1,1.7-0.7,3.4-2.2,4.3
				c-1.9,1.1-4.1,1.6-6.2,1.4c-2.1,0-4.3-0.4-6.3-1.2c-1.8-0.7-3.4-1.8-4.7-3.2l-0.2-0.2l-0.2,0.2l-1.2,1.8l-0.1,0.2l0.1,0.1
				c3.4,3.1,7.8,4.8,12.4,4.7c1.5,0,3.1-0.2,4.6-0.5c1.3-0.3,2.5-0.8,3.6-1.6c1-0.7,1.8-1.6,2.3-2.6c0.6-1.1,0.9-2.4,0.8-3.7
				c0-1.2-0.2-2.5-0.8-3.6c-0.5-1-1.3-1.8-2.3-2.4c-1.1-0.7-2.3-1.3-3.5-1.6c-1.4-0.4-2.9-0.8-4.5-1.2c-1.6-0.3-3-0.7-4.1-1
				c-1-0.3-1.9-0.6-2.8-1.2c-0.6-0.4-1.2-0.9-1.6-1.6c-0.4-0.7-0.5-1.5-0.5-2.4c-0.1-1.7,0.7-3.4,2-4.5c1.3-1.1,3.5-1.7,6.5-1.7
				c3.6,0,6.4,1.1,8.3,3.3l0.2,0.2l0.2-0.3l1.1-1.7l0.1-0.2l-0.1-0.1c-1.2-1.2-2.7-2.2-4.3-2.8C109.3,0.3,107.4,0,105.6,0L105.6,0z"
				/>
			
				<linearGradient id="SVGID_4_" gradientUnits="userSpaceOnUse" x1="-98.7573" y1="276.1249" x2="-98.7573" y2="277.1249" gradientTransform="matrix(21.085 0 0 -31.418 2225.8569 8706.9287)">
				<stop  offset="0" style="stop-color:#6E6E6E"/>
				<stop  offset="9.099999e-02" style="stop-color:#757575"/>
				<stop  offset="0.225" style="stop-color:#888888"/>
				<stop  offset="0.385" style="stop-color:#A9A9A9"/>
				<stop  offset="0.51" style="stop-color:#C7C7C7"/>
				<stop  offset="0.512" style="stop-color:#BFBFBF"/>
				<stop  offset="0.516" style="stop-color:#A9A9A9"/>
				<stop  offset="0.522" style="stop-color:#868686"/>
				<stop  offset="0.525" style="stop-color:#6B6B6B"/>
				<stop  offset="1" style="stop-color:#BFBFBF"/>
			</linearGradient>
			<path class="st3" d="M153.5,0.4v2h-18v12.2h15.7v1.9h-15.7v12.9h18.4v2h-20.6v-31H153.5 M153.7,0.2H133v31.4h21.1v-2.5h-18.4
				V16.8h15.7v-2.4h-15.7V2.7h18V0.2z"/>
			
				<linearGradient id="SVGID_5_" gradientUnits="userSpaceOnUse" x1="-99.1478" y1="276.1256" x2="-99.1478" y2="277.1256" gradientTransform="matrix(22.977 0 0 -31.4213 2460.1172 8707.8574)">
				<stop  offset="0" style="stop-color:#6E6E6E"/>
				<stop  offset="9.099999e-02" style="stop-color:#757575"/>
				<stop  offset="0.225" style="stop-color:#888888"/>
				<stop  offset="0.385" style="stop-color:#A9A9A9"/>
				<stop  offset="0.51" style="stop-color:#C7C7C7"/>
				<stop  offset="0.512" style="stop-color:#BFBFBF"/>
				<stop  offset="0.516" style="stop-color:#A9A9A9"/>
				<stop  offset="0.522" style="stop-color:#868686"/>
				<stop  offset="0.525" style="stop-color:#6B6B6B"/>
				<stop  offset="1" style="stop-color:#BFBFBF"/>
			</linearGradient>
			<path class="st4" d="M183.6,0.4c1.3,0,2.5,0.3,3.6,0.8c1.1,0.5,2.1,1.3,2.9,2.2c0.8,0.9,1.4,2,1.9,3.1c0.4,1.1,0.7,2.3,0.7,3.5
				c0,1.1-0.2,2.2-0.5,3.3c-0.3,1-0.8,2-1.5,2.9c-0.6,0.8-1.4,1.5-2.3,2.1c-0.9,0.6-1.9,0.9-3,1.1l7.7,12h-2.6L183,19.7h-10v11.7
				h-2.2v-31H183.6 M173,17.7h10.9c0.9,0,1.9-0.2,2.7-0.7c0.8-0.4,1.5-1,2.1-1.7c0.6-0.7,1-1.6,1.3-2.4c0.3-0.9,0.5-1.9,0.5-2.8
				c0-1-0.2-1.9-0.5-2.9c-0.3-0.9-0.8-1.7-1.5-2.4c-0.6-0.7-1.4-1.3-2.2-1.7c-0.8-0.4-1.8-0.6-2.7-0.6H173L173,17.7 M183.6,0.2
				h-13.1v31.4h2.7V20h9.7l7.4,11.6l0.1,0.1h3.1l-0.2-0.4l-7.5-11.7c1-0.2,1.9-0.6,2.7-1.1c0.9-0.6,1.7-1.3,2.4-2.2
				c0.7-0.9,1.2-1.9,1.5-2.9c0.4-1.1,0.5-2.2,0.5-3.4c0-1.2-0.2-2.4-0.7-3.6c-0.5-1.2-1.1-2.2-1.9-3.2c-0.8-0.9-1.8-1.7-2.9-2.3
				C186.2,0.5,184.9,0.2,183.6,0.2L183.6,0.2z M173.2,2.7h10.3c0.9,0,1.8,0.2,2.6,0.6c0.8,0.4,1.5,1,2.1,1.6
				c0.6,0.7,1.1,1.5,1.4,2.3c0.4,0.9,0.5,1.8,0.5,2.8c0,0.9-0.2,1.9-0.4,2.7c-0.3,0.9-0.7,1.7-1.3,2.4c-0.6,0.7-1.2,1.2-2,1.7
				c-0.8,0.4-1.7,0.6-2.6,0.6h-10.6V2.7z"/>
			
				<linearGradient id="SVGID_6_" gradientUnits="userSpaceOnUse" x1="-66.2839" y1="276.1249" x2="-66.2839" y2="277.1249" gradientTransform="matrix(2.687 0 0 -31.418 389.0662 8706.9287)">
				<stop  offset="0" style="stop-color:#6E6E6E"/>
				<stop  offset="9.099999e-02" style="stop-color:#757575"/>
				<stop  offset="0.225" style="stop-color:#888888"/>
				<stop  offset="0.385" style="stop-color:#A9A9A9"/>
				<stop  offset="0.51" style="stop-color:#C7C7C7"/>
				<stop  offset="0.512" style="stop-color:#BFBFBF"/>
				<stop  offset="0.516" style="stop-color:#A9A9A9"/>
				<stop  offset="0.522" style="stop-color:#868686"/>
				<stop  offset="0.525" style="stop-color:#6B6B6B"/>
				<stop  offset="1" style="stop-color:#BFBFBF"/>
			</linearGradient>
			<path class="st5" d="M212.1,0.4v31h-2.2v-31H212.1 M212.3,0.2h-2.7v31.4h2.7V0.2z"/>
			
				<linearGradient id="SVGID_7_" gradientUnits="userSpaceOnUse" x1="-98.7575" y1="276.1249" x2="-98.7575" y2="277.1249" gradientTransform="matrix(21.086 0 0 -31.418 2323.7051 8706.9287)">
				<stop  offset="0" style="stop-color:#6E6E6E"/>
				<stop  offset="9.099999e-02" style="stop-color:#757575"/>
				<stop  offset="0.225" style="stop-color:#888888"/>
				<stop  offset="0.385" style="stop-color:#A9A9A9"/>
				<stop  offset="0.51" style="stop-color:#C7C7C7"/>
				<stop  offset="0.512" style="stop-color:#BFBFBF"/>
				<stop  offset="0.516" style="stop-color:#A9A9A9"/>
				<stop  offset="0.522" style="stop-color:#868686"/>
				<stop  offset="0.525" style="stop-color:#6B6B6B"/>
				<stop  offset="1" style="stop-color:#BFBFBF"/>
			</linearGradient>
			<path class="st6" d="M251.2,0.4v2h-18v12.2H249v1.9h-15.7v12.9h18.4v2H231v-31H251.2 M251.5,0.2h-20.7v31.4h21.1v-2.5h-18.4V16.8
				h15.7v-2.4h-15.7V2.7h18L251.5,0.2L251.5,0.2z"/>
			
				<linearGradient id="SVGID_8_" gradientUnits="userSpaceOnUse" x1="-99.3092" y1="276.2285" x2="-99.3092" y2="277.2285" gradientTransform="matrix(23.8615 0 0 -31.8985 2646.5962 8843.1621)">
				<stop  offset="0" style="stop-color:#6E6E6E"/>
				<stop  offset="9.099999e-02" style="stop-color:#757575"/>
				<stop  offset="0.225" style="stop-color:#888888"/>
				<stop  offset="0.385" style="stop-color:#A9A9A9"/>
				<stop  offset="0.51" style="stop-color:#C7C7C7"/>
				<stop  offset="0.512" style="stop-color:#BFBFBF"/>
				<stop  offset="0.516" style="stop-color:#A9A9A9"/>
				<stop  offset="0.522" style="stop-color:#868686"/>
				<stop  offset="0.525" style="stop-color:#6B6B6B"/>
				<stop  offset="1" style="stop-color:#BFBFBF"/>
			</linearGradient>
			<path class="st7" d="M277.3,0.2c1.8,0,3.6,0.3,5.4,0.9c1.6,0.6,3,1.5,4.3,2.7l-1.1,1.7c-2-2.2-4.8-3.4-8.5-3.4
				c-3,0-5.2,0.6-6.6,1.7c-1.4,1.1-2.1,2.9-2.1,4.6c0,0.9,0.2,1.7,0.5,2.5c0.4,0.7,1,1.3,1.6,1.7c0.9,0.5,1.8,0.9,2.8,1.2
				c1.1,0.3,2.5,0.7,4.1,1c1.7,0.3,3.2,0.7,4.5,1.2c1.2,0.4,2.4,0.9,3.4,1.6c0.9,0.6,1.7,1.4,2.2,2.4c0.5,1.1,0.8,2.3,0.8,3.4
				c0,1.2-0.2,2.5-0.8,3.6c-0.5,1-1.3,1.9-2.3,2.6c-1.1,0.7-2.2,1.2-3.5,1.5c-1.5,0.4-3,0.5-4.5,0.5c-4.5,0.1-8.9-1.5-12.3-4.6
				l1.2-1.8c1.4,1.4,3,2.5,4.8,3.2c2,0.8,4.2,1.2,6.4,1.2c2.2,0.1,4.4-0.4,6.3-1.5c1.5-1,2.4-2.7,2.3-4.5c0-0.9-0.2-1.8-0.6-2.6
				c-0.4-0.8-1.1-1.4-1.8-1.9c-0.9-0.6-2-1-3-1.4c-1.2-0.4-2.6-0.7-4.3-1.1c-1.7-0.3-3.1-0.7-4.4-1.1c-1.1-0.3-2.2-0.8-3.2-1.5
				c-0.8-0.5-1.5-1.3-1.9-2.2c-0.5-1-0.7-2.1-0.6-3.2c0-1.3,0.3-2.6,0.8-3.7c0.5-1.1,1.3-2,2.2-2.7c1-0.8,2.2-1.3,3.4-1.7
				C274.3,0.4,275.8,0.2,277.3,0.2 M277.3,0c-1.5,0-3,0.2-4.5,0.6c-1.3,0.3-2.5,0.9-3.5,1.7c-1,0.7-1.8,1.7-2.3,2.8
				c-0.6,1.2-0.9,2.5-0.8,3.8c0,1.1,0.2,2.3,0.7,3.3c0.5,0.9,1.2,1.7,2,2.2c1,0.7,2.1,1.2,3.2,1.5c1.3,0.4,2.7,0.8,4.4,1.1
				c1.6,0.3,3,0.7,4.3,1.1c1,0.3,2,0.7,3,1.3c0.7,0.4,1.3,1.1,1.7,1.8c0.4,0.8,0.6,1.6,0.6,2.5c0.1,1.7-0.7,3.4-2.2,4.3
				c-1.9,1.1-4,1.6-6.2,1.4c-2.1,0-4.3-0.4-6.3-1.2c-1.8-0.7-3.4-1.8-4.7-3.2l-0.2-0.2l-0.2,0.2l-1.2,1.8l-0.1,0.2l0.1,0.1
				c3.4,3.1,7.8,4.8,12.4,4.7c1.5,0,3.1-0.2,4.6-0.5c1.3-0.3,2.5-0.8,3.6-1.6c1-0.7,1.8-1.6,2.3-2.6c0.6-1.1,0.9-2.4,0.8-3.7
				c0-1.2-0.2-2.5-0.8-3.6c-0.5-1-1.3-1.8-2.3-2.4c-1.1-0.7-2.3-1.3-3.5-1.6c-1.4-0.4-2.9-0.8-4.5-1.2c-1.6-0.3-3-0.7-4.1-1
				c-1-0.3-1.9-0.6-2.8-1.2c-0.6-0.4-1.2-0.9-1.6-1.6c-0.4-0.7-0.5-1.5-0.5-2.4c-0.1-1.7,0.7-3.4,2-4.5c1.3-1.1,3.5-1.7,6.5-1.7
				c3.6,0,6.4,1.1,8.3,3.3l0.2,0.2l0.2-0.3l1.1-1.7l0.1-0.2l-0.1-0.1c-1.2-1.2-2.7-2.2-4.3-2.8C281,0.3,279.2,0,277.3,0L277.3,0z"/>
		</g>
		<g transform="translate(0.222 0.255)">
			
				<linearGradient id="SVGID_9_" gradientUnits="userSpaceOnUse" x1="-98.9032" y1="276.8231" x2="-98.9032" y2="275.7931" gradientTransform="matrix(20.709 0 0 -30.955 2058.5408 8568.2549)">
				<stop  offset="0" style="stop-color:#404040"/>
				<stop  offset="9.800000e-02" style="stop-color:#474747"/>
				<stop  offset="0.242" style="stop-color:#5A5A5A"/>
				<stop  offset="0.414" style="stop-color:#7B7B7B"/>
				<stop  offset="0.491" style="stop-color:#8C8C8C"/>
				<stop  offset="0.496" style="stop-color:#848484"/>
				<stop  offset="0.503" style="stop-color:#6E6E6E"/>
				<stop  offset="0.508" style="stop-color:#595959"/>
				<stop  offset="1" style="stop-color:#8C8C8C"/>
			</linearGradient>
			<path class="st8" d="M0,31.2v-31h2.2v28.9h18.5v2L0,31.2z"/>
			
				<linearGradient id="SVGID_10_" gradientUnits="userSpaceOnUse" x1="-99.9963" y1="276.8231" x2="-99.9963" y2="275.7931" gradientTransform="matrix(26.769 0 0 -30.955 2722.5808 8568.2549)">
				<stop  offset="0" style="stop-color:#404040"/>
				<stop  offset="9.800000e-02" style="stop-color:#474747"/>
				<stop  offset="0.242" style="stop-color:#5A5A5A"/>
				<stop  offset="0.414" style="stop-color:#7B7B7B"/>
				<stop  offset="0.491" style="stop-color:#8C8C8C"/>
				<stop  offset="0.496" style="stop-color:#848484"/>
				<stop  offset="0.503" style="stop-color:#6E6E6E"/>
				<stop  offset="0.508" style="stop-color:#595959"/>
				<stop  offset="1" style="stop-color:#8C8C8C"/>
			</linearGradient>
			<path class="st9" d="M35,0.2l10.9,14.1L56.6,0.2h2.5L47,15.9l11.8,15.3h-2.5L45.8,17.5L35.3,31.2h-2.6l11.8-15.3L32.4,0.2H35z"/>
			
				<linearGradient id="SVGID_11_" gradientUnits="userSpaceOnUse" x1="-99.4453" y1="276.9224" x2="-99.4453" y2="275.9084" gradientTransform="matrix(23.3279 0 0 -31.4384 2424.8123 8705.209)">
				<stop  offset="0" style="stop-color:#404040"/>
				<stop  offset="9.800000e-02" style="stop-color:#474747"/>
				<stop  offset="0.242" style="stop-color:#5A5A5A"/>
				<stop  offset="0.414" style="stop-color:#7B7B7B"/>
				<stop  offset="0.491" style="stop-color:#8C8C8C"/>
				<stop  offset="0.496" style="stop-color:#848484"/>
				<stop  offset="0.503" style="stop-color:#6E6E6E"/>
				<stop  offset="0.508" style="stop-color:#595959"/>
				<stop  offset="1" style="stop-color:#8C8C8C"/>
			</linearGradient>
			<path class="st10" d="M113.8,5.4c-2-2.2-4.8-3.4-8.5-3.4c-3,0-5.2,0.6-6.6,1.7c-1.4,1.1-2.1,2.9-2.1,4.6c0,0.9,0.1,1.7,0.5,2.5
				c0.4,0.7,1,1.3,1.6,1.7c0.9,0.5,1.8,0.9,2.8,1.2c1.1,0.3,2.5,0.7,4.1,1c1.7,0.3,3.2,0.7,4.5,1.2c1.2,0.4,2.4,0.9,3.4,1.6
				c0.9,0.6,1.7,1.4,2.2,2.4c0.5,1.1,0.8,2.3,0.8,3.4c0,1.2-0.2,2.5-0.8,3.6c-0.5,1-1.3,1.9-2.3,2.6c-1.1,0.7-2.2,1.2-3.5,1.5
				c-1.5,0.4-3,0.5-4.5,0.5c-4.5,0.1-8.9-1.5-12.3-4.6l1.2-1.8c1.4,1.4,3,2.5,4.8,3.2c2,0.8,4.2,1.2,6.4,1.2
				c2.2,0.1,4.4-0.4,6.3-1.5c1.5-1,2.4-2.7,2.3-4.5c0-0.9-0.2-1.8-0.6-2.6c-0.4-0.8-1.1-1.4-1.8-1.9c-0.9-0.6-2-1-3-1.4
				c-1.2-0.4-2.6-0.7-4.3-1.1c-1.7-0.3-3.1-0.7-4.4-1.1C99,15.2,98,14.7,97,14c-0.8-0.5-1.5-1.3-1.9-2.2c-0.5-1-0.7-2.1-0.7-3.2
				c0-1.3,0.3-2.6,0.8-3.7c0.5-1.1,1.3-2,2.2-2.7c1-0.8,2.2-1.3,3.4-1.7c1.4-0.4,2.9-0.6,4.4-0.6c1.8,0,3.6,0.3,5.4,0.9
				c1.6,0.6,3,1.5,4.3,2.7L113.8,5.4z"/>
			
				<linearGradient id="SVGID_12_" gradientUnits="userSpaceOnUse" x1="-98.8826" y1="276.8228" x2="-98.8826" y2="275.7928" gradientTransform="matrix(20.621 0 0 -30.954 2182.3828 8567.9717)">
				<stop  offset="0" style="stop-color:#404040"/>
				<stop  offset="9.800000e-02" style="stop-color:#474747"/>
				<stop  offset="0.242" style="stop-color:#5A5A5A"/>
				<stop  offset="0.414" style="stop-color:#7B7B7B"/>
				<stop  offset="0.491" style="stop-color:#8C8C8C"/>
				<stop  offset="0.496" style="stop-color:#848484"/>
				<stop  offset="0.503" style="stop-color:#6E6E6E"/>
				<stop  offset="0.508" style="stop-color:#595959"/>
				<stop  offset="1" style="stop-color:#8C8C8C"/>
			</linearGradient>
			<path class="st11" d="M153.6,29.2v2H133v-31h20.2v2h-18v12.2H151v1.9h-15.7v12.9H153.6z"/>
			
				<linearGradient id="SVGID_13_" gradientUnits="userSpaceOnUse" x1="-99.2519" y1="276.8241" x2="-99.2519" y2="275.7941" gradientTransform="matrix(22.321 0 0 -30.9594 2397.071 8569.4902)">
				<stop  offset="0" style="stop-color:#404040"/>
				<stop  offset="9.800000e-02" style="stop-color:#474747"/>
				<stop  offset="0.242" style="stop-color:#5A5A5A"/>
				<stop  offset="0.414" style="stop-color:#7B7B7B"/>
				<stop  offset="0.491" style="stop-color:#8C8C8C"/>
				<stop  offset="0.496" style="stop-color:#848484"/>
				<stop  offset="0.503" style="stop-color:#6E6E6E"/>
				<stop  offset="0.508" style="stop-color:#595959"/>
				<stop  offset="1" style="stop-color:#8C8C8C"/>
			</linearGradient>
			<path class="st12" d="M170.5,31.2v-31h12.9c1.3,0,2.5,0.3,3.6,0.8c1.1,0.5,2.1,1.3,2.9,2.2c0.8,0.9,1.4,2,1.9,3.1
				c0.4,1.1,0.7,2.3,0.7,3.5c0,1.1-0.2,2.2-0.5,3.3c-0.3,1-0.8,2-1.5,2.9c-0.6,0.8-1.4,1.5-2.3,2.1c-0.9,0.6-1.9,0.9-3,1.1l7.7,12
				h-2.6l-7.5-11.7h-10v11.7H170.5z M172.7,17.4h10.9c0.9,0,1.9-0.2,2.7-0.7c0.8-0.4,1.5-1,2.1-1.7c0.6-0.7,1-1.6,1.3-2.4
				c0.3-0.9,0.5-1.9,0.5-2.8c0-1-0.2-1.9-0.5-2.9c-0.3-0.9-0.8-1.7-1.5-2.4c-0.6-0.7-1.4-1.3-2.2-1.7c-0.8-0.4-1.8-0.6-2.7-0.6
				h-10.5V17.4z"/>
			
				<linearGradient id="SVGID_14_" gradientUnits="userSpaceOnUse" x1="-58.7476" y1="276.8231" x2="-58.7476" y2="275.7931" gradientTransform="matrix(2.223 0 0 -30.955 341.3239 8568.2549)">
				<stop  offset="0" style="stop-color:#404040"/>
				<stop  offset="9.800000e-02" style="stop-color:#474747"/>
				<stop  offset="0.242" style="stop-color:#5A5A5A"/>
				<stop  offset="0.414" style="stop-color:#7B7B7B"/>
				<stop  offset="0.491" style="stop-color:#8C8C8C"/>
				<stop  offset="0.496" style="stop-color:#848484"/>
				<stop  offset="0.503" style="stop-color:#6E6E6E"/>
				<stop  offset="0.508" style="stop-color:#595959"/>
				<stop  offset="1" style="stop-color:#8C8C8C"/>
			</linearGradient>
			<path class="st13" d="M209.6,31.2v-31h2.2v31H209.6z"/>
			
				<linearGradient id="SVGID_15_" gradientUnits="userSpaceOnUse" x1="-98.8828" y1="276.8228" x2="-98.8828" y2="275.7928" gradientTransform="matrix(20.622 0 0 -30.954 2280.2344 8567.9717)">
				<stop  offset="0" style="stop-color:#404040"/>
				<stop  offset="9.800000e-02" style="stop-color:#474747"/>
				<stop  offset="0.242" style="stop-color:#5A5A5A"/>
				<stop  offset="0.414" style="stop-color:#7B7B7B"/>
				<stop  offset="0.491" style="stop-color:#8C8C8C"/>
				<stop  offset="0.496" style="stop-color:#848484"/>
				<stop  offset="0.503" style="stop-color:#6E6E6E"/>
				<stop  offset="0.508" style="stop-color:#595959"/>
				<stop  offset="1" style="stop-color:#8C8C8C"/>
			</linearGradient>
			<path class="st14" d="M251.4,29.2v2h-20.6v-31H251v2h-18v12.2h15.7v1.9H233v12.9H251.4z"/>
			
				<linearGradient id="SVGID_16_" gradientUnits="userSpaceOnUse" x1="-99.4455" y1="276.9224" x2="-99.4455" y2="275.9084" gradientTransform="matrix(23.3289 0 0 -31.4384 2596.6907 8705.2041)">
				<stop  offset="0" style="stop-color:#404040"/>
				<stop  offset="9.800000e-02" style="stop-color:#474747"/>
				<stop  offset="0.242" style="stop-color:#5A5A5A"/>
				<stop  offset="0.414" style="stop-color:#7B7B7B"/>
				<stop  offset="0.491" style="stop-color:#8C8C8C"/>
				<stop  offset="0.496" style="stop-color:#848484"/>
				<stop  offset="0.503" style="stop-color:#6E6E6E"/>
				<stop  offset="0.508" style="stop-color:#595959"/>
				<stop  offset="1" style="stop-color:#8C8C8C"/>
			</linearGradient>
			<path class="st15" d="M285.6,5.4c-2-2.2-4.8-3.4-8.5-3.4c-3,0-5.2,0.6-6.6,1.7c-1.4,1.1-2.1,2.9-2.1,4.6c0,0.9,0.2,1.7,0.5,2.5
				c0.4,0.7,1,1.3,1.6,1.7c0.9,0.5,1.8,0.9,2.8,1.2c1.1,0.3,2.5,0.7,4.1,1c1.7,0.3,3.2,0.7,4.5,1.2c1.2,0.4,2.4,0.9,3.4,1.6
				c0.9,0.6,1.7,1.4,2.2,2.4c0.5,1.1,0.8,2.3,0.8,3.4c0,1.2-0.2,2.5-0.8,3.6c-0.5,1-1.3,1.9-2.3,2.6c-1.1,0.7-2.2,1.2-3.5,1.5
				c-1.5,0.4-3,0.5-4.5,0.5c-4.5,0.1-8.9-1.5-12.3-4.6l1.2-1.8c1.4,1.4,3,2.5,4.8,3.2c2,0.8,4.2,1.2,6.4,1.2
				c2.2,0.1,4.4-0.4,6.3-1.5c1.5-1,2.4-2.7,2.3-4.5c0-0.9-0.2-1.8-0.6-2.6c-0.4-0.8-1.1-1.4-1.8-1.9c-0.9-0.6-2-1-3-1.4
				c-1.2-0.4-2.6-0.7-4.3-1.1c-1.7-0.3-3.1-0.7-4.4-1.1c-1.1-0.3-2.2-0.8-3.2-1.5c-0.8-0.5-1.5-1.3-1.9-2.2c-0.5-1-0.7-2.1-0.7-3.2
				c0-1.3,0.3-2.6,0.8-3.7c0.5-1.1,1.3-2,2.2-2.7c1-0.8,2.2-1.3,3.4-1.7c1.4-0.4,2.9-0.6,4.4-0.6c1.8,0,3.6,0.3,5.4,0.9
				c1.6,0.6,3,1.5,4.3,2.7L285.6,5.4z"/>
		</g>
	</g>
	<g class="st16">
		<path class="st17" d="M561.1,2041v-12.8h8.4v1.4h-6.8v4.3h5.7v1.4h-5.7v5.7H561.1z"/>
		<path class="st17" d="M581.9,2041.1c-0.9,0-1.7-0.2-2.5-0.5c-0.7-0.4-1.4-0.9-1.9-1.5c-0.5-0.6-0.9-1.3-1.2-2.1
			c-0.3-0.8-0.4-1.6-0.4-2.4c0-0.9,0.2-1.7,0.5-2.4c0.3-0.8,0.7-1.5,1.3-2.1c0.5-0.6,1.2-1.1,1.9-1.4c0.7-0.4,1.5-0.5,2.4-0.5
			c0.9,0,1.7,0.2,2.4,0.6c0.7,0.4,1.4,0.9,1.9,1.5c0.5,0.6,0.9,1.3,1.2,2.1c0.3,0.8,0.4,1.6,0.4,2.4c0,0.9-0.2,1.7-0.5,2.4
			c-0.3,0.8-0.7,1.5-1.3,2.1c-0.5,0.6-1.2,1.1-1.9,1.4C583.6,2040.9,582.8,2041.1,581.9,2041.1z M577.6,2034.6
			c0,0.6,0.1,1.3,0.3,1.9c0.2,0.6,0.5,1.1,0.9,1.6c0.4,0.5,0.8,0.8,1.4,1.1c0.5,0.3,1.1,0.4,1.8,0.4c0.7,0,1.3-0.1,1.8-0.4
			s1-0.7,1.4-1.2c0.4-0.5,0.7-1,0.9-1.6c0.2-0.6,0.3-1.2,0.3-1.8c0-0.6-0.1-1.3-0.3-1.9c-0.2-0.6-0.5-1.1-0.9-1.6
			c-0.4-0.5-0.9-0.8-1.4-1.1c-0.5-0.3-1.1-0.4-1.8-0.4c-0.7,0-1.3,0.1-1.8,0.4s-1,0.7-1.4,1.1s-0.7,1-0.9,1.6
			C577.7,2033.4,577.6,2034,577.6,2034.6z"/>
		<path class="st17" d="M595.6,2041v-12.8h5.5c0.6,0,1.1,0.1,1.6,0.4c0.5,0.2,0.9,0.5,1.2,0.9c0.3,0.4,0.6,0.8,0.8,1.3
			c0.2,0.5,0.3,1,0.3,1.5c0,0.4-0.1,0.9-0.2,1.3s-0.3,0.8-0.5,1.1s-0.5,0.6-0.8,0.9s-0.7,0.4-1.1,0.5l3.1,4.9h-1.8l-2.9-4.6h-3.4
			v4.6H595.6z M597.2,2035h3.9c0.3,0,0.6-0.1,0.9-0.2c0.3-0.1,0.5-0.3,0.7-0.6c0.2-0.2,0.3-0.5,0.4-0.9c0.1-0.3,0.2-0.7,0.2-1
			c0-0.4-0.1-0.7-0.2-1s-0.3-0.6-0.5-0.8s-0.5-0.4-0.7-0.6c-0.3-0.1-0.6-0.2-0.9-0.2h-3.8V2035z"/>
		<path class="st17" d="M631.5,2029.7h-4.4v11.3h-1.6v-11.3H621v-1.4h10.4V2029.7z"/>
		<path class="st17" d="M649,2028.2v12.8h-1.6v-5.8h-7v5.8h-1.6v-12.8h1.6v5.5h7v-5.5H649z"/>
		<path class="st17" d="M666.1,2039.6v1.4h-8.7v-12.8h8.5v1.4h-6.9v4.1h6v1.4h-6v4.4H666.1z"/>
		<path class="st17" d="M694,2028.2v12.8h-1.6v-5.8h-7v5.8h-1.6v-12.8h1.6v5.5h7v-5.5H694z"/>
		<path class="st17" d="M707.6,2041.1c-0.9,0-1.7-0.2-2.5-0.5c-0.7-0.4-1.4-0.9-1.9-1.5c-0.5-0.6-0.9-1.3-1.2-2.1
			c-0.3-0.8-0.4-1.6-0.4-2.4c0-0.9,0.2-1.7,0.5-2.4c0.3-0.8,0.7-1.5,1.3-2.1c0.5-0.6,1.2-1.1,1.9-1.4c0.7-0.4,1.5-0.5,2.4-0.5
			c0.9,0,1.7,0.2,2.4,0.6c0.7,0.4,1.4,0.9,1.9,1.5c0.5,0.6,0.9,1.3,1.2,2.1c0.3,0.8,0.4,1.6,0.4,2.4c0,0.9-0.2,1.7-0.5,2.4
			s-0.7,1.5-1.3,2.1c-0.5,0.6-1.2,1.1-1.9,1.4C709.3,2040.9,708.5,2041.1,707.6,2041.1z M703.2,2034.6c0,0.6,0.1,1.3,0.3,1.9
			c0.2,0.6,0.5,1.1,0.9,1.6c0.4,0.5,0.8,0.8,1.4,1.1c0.5,0.3,1.1,0.4,1.8,0.4c0.7,0,1.3-0.1,1.8-0.4c0.5-0.3,1-0.7,1.4-1.2
			c0.4-0.5,0.7-1,0.9-1.6c0.2-0.6,0.3-1.2,0.3-1.8c0-0.6-0.1-1.3-0.3-1.9c-0.2-0.6-0.5-1.1-0.9-1.6c-0.4-0.5-0.9-0.8-1.4-1.1
			c-0.5-0.3-1.1-0.4-1.8-0.4c-0.7,0-1.3,0.1-1.8,0.4s-1,0.7-1.4,1.1s-0.7,1-0.9,1.6C703.3,2033.4,703.2,2034,703.2,2034.6z"/>
		<path class="st17" d="M732.3,2041v-9.9l-4.2,7.6h-0.9l-4.3-7.6v9.9h-1.6v-12.8h1.7l4.6,8.3l4.6-8.3h1.7v12.8H732.3z"/>
		<path class="st17" d="M751.1,2039.6v1.4h-8.7v-12.8h8.5v1.4H744v4.1h6v1.4h-6v4.4H751.1z"/>
		<path class="st17" d="M773.9,2041.1c-0.9,0-1.7-0.2-2.5-0.5c-0.7-0.4-1.4-0.9-1.9-1.5c-0.5-0.6-0.9-1.3-1.2-2.1
			c-0.3-0.8-0.4-1.6-0.4-2.4c0-0.9,0.2-1.7,0.5-2.4s0.7-1.5,1.3-2.1c0.5-0.6,1.2-1.1,1.9-1.4c0.7-0.4,1.5-0.5,2.4-0.5
			c0.9,0,1.7,0.2,2.4,0.6c0.7,0.4,1.4,0.9,1.9,1.5c0.5,0.6,0.9,1.3,1.2,2.1c0.3,0.8,0.4,1.6,0.4,2.4c0,0.9-0.2,1.7-0.5,2.4
			s-0.7,1.5-1.3,2.1c-0.5,0.6-1.2,1.1-1.9,1.4C775.5,2040.9,774.7,2041.1,773.9,2041.1z M769.5,2034.6c0,0.6,0.1,1.3,0.3,1.9
			c0.2,0.6,0.5,1.1,0.9,1.6c0.4,0.5,0.8,0.8,1.4,1.1c0.5,0.3,1.1,0.4,1.8,0.4c0.7,0,1.3-0.1,1.8-0.4s1-0.7,1.4-1.2
			c0.4-0.5,0.7-1,0.9-1.6c0.2-0.6,0.3-1.2,0.3-1.8c0-0.6-0.1-1.3-0.3-1.9c-0.2-0.6-0.5-1.1-0.9-1.6c-0.4-0.5-0.9-0.8-1.4-1.1
			c-0.5-0.3-1.1-0.4-1.8-0.4c-0.7,0-1.3,0.1-1.8,0.4s-1,0.7-1.4,1.1s-0.7,1-0.9,1.6C769.6,2033.4,769.5,2034,769.5,2034.6z"/>
		<path class="st17" d="M787.5,2041v-12.8h8.4v1.4h-6.8v4.3h5.7v1.4h-5.7v5.7H787.5z"/>
		<path class="st17" d="M803.4,2041v-12.8h8.4v1.4H805v4.3h5.7v1.4H805v5.7H803.4z"/>
		<path class="st17" d="M819.3,2041v-12.8h1.6v12.8H819.3z"/>
		<path class="st17" d="M828.6,2034.5c0-0.8,0.1-1.5,0.4-2.3c0.3-0.8,0.7-1.4,1.2-2.1c0.5-0.6,1.2-1.1,1.9-1.5s1.6-0.6,2.6-0.6
			c1.1,0,2.1,0.3,2.9,0.8c0.8,0.5,1.4,1.2,1.8,2l-1.3,0.8c-0.2-0.4-0.4-0.7-0.7-1c-0.3-0.3-0.6-0.5-0.9-0.7c-0.3-0.2-0.6-0.3-1-0.4
			s-0.7-0.1-1-0.1c-0.7,0-1.3,0.1-1.9,0.4s-1,0.7-1.4,1.2c-0.4,0.5-0.7,1-0.8,1.6c-0.2,0.6-0.3,1.2-0.3,1.8c0,0.7,0.1,1.3,0.3,1.9
			c0.2,0.6,0.5,1.1,0.9,1.6c0.4,0.5,0.9,0.8,1.4,1.1c0.5,0.3,1.1,0.4,1.8,0.4c0.3,0,0.7,0,1-0.1c0.4-0.1,0.7-0.2,1-0.4
			c0.3-0.2,0.6-0.4,0.9-0.7c0.3-0.3,0.5-0.6,0.7-1l1.4,0.7c-0.2,0.5-0.5,0.9-0.9,1.3s-0.8,0.7-1.2,0.9s-1,0.4-1.5,0.6
			s-1,0.2-1.5,0.2c-0.9,0-1.7-0.2-2.4-0.6c-0.7-0.4-1.4-0.9-1.9-1.5s-0.9-1.3-1.2-2.1S828.6,2035.3,828.6,2034.5z"/>
		<path class="st17" d="M855.8,2039.6v1.4h-8.7v-12.8h8.5v1.4h-6.9v4.1h6v1.4h-6v4.4H855.8z"/>
	</g>
</g>
</svg>
