<?xml version="1.0" encoding="utf-8"?>
<!-- Generator: Adobe Illustrator 25.2.1, SVG Export Plug-In . SVG Version: 6.00 Build 0)  -->
<svg version="1.1" id="Layer_1" xmlns="http://www.w3.org/2000/svg" xmlns:xlink="http://www.w3.org/1999/xlink" x="0px" y="0px"
	 viewBox="0 0 296 72.7" style="enable-background:new 0 0 296 72.7;" xml:space="preserve">
<style type="text/css">
	.st0{fill:url(#SVGID_1_);}
	.st1{fill:url(#SVGID_2_);}
	.st2{fill:url(#SVGID_3_);}
	.st3{fill:url(#SVGID_4_);}
	.st4{fill:url(#SVGID_5_);}
	.st5{fill:url(#SVGID_6_);}
	.st6{fill:url(#SVGID_7_);}
	.st7{fill:url(#SVGID_8_);}
	.st8{fill:url(#SVGID_9_);}
	.st9{fill:url(#SVGID_10_);}
	.st10{fill:url(#SVGID_11_);}
	.st11{fill:url(#SVGID_12_);}
	.st12{fill:url(#SVGID_13_);}
	.st13{fill:url(#SVGID_14_);}
	.st14{fill:url(#SVGID_15_);}
	.st15{fill:url(#SVGID_16_);}
	.st16{enable-background:new    ;}
	.st17{fill:#6E6E6E;}
</style>
<g transform="translate(-560 -1978.329)">
	<g transform="translate(563.01 1978.306)">
		<g transform="translate(-0.01 0.023)">
			
				<linearGradient id="SVGID_1_" gradientUnits="userSpaceOnUse" x1="-98.7298" y1="279.2204" x2="-98.7298" y2="280.2204" gradientTransform="matrix(21.173 0 0 -31.418 2100.9922 8804.1826)">
				<stop  offset="0" style="stop-color:#6E6E6E"/>
				<stop  offset="9.099999e-02" style="stop-color:#757575"/>
				<stop  offset="0.225" style="stop-color:#888888"/>
				<stop  offset="0.385" style="stop-color:#A9A9A9"/>
				<stop  offset="0.51" style="stop-color:#C7C7C7"/>
				<stop  offset="0.512" style="stop-color:#BFBFBF"/>
				<stop  offset="0.516" style="stop-color:#A9A9A9"/>
				<stop  offset="0.522" style="stop-color:#868686"/>
				<stop  offset="0.525" style="stop-color:#6B6B6B"/>
				<stop  offset="1" style="stop-color:#BFBFBF"/>
			</linearGradient>
			<path class="st0" d="M2.5,0.4v28.9h18.5v2H0.2v-31H2.5 M2.7,0.2H0v31.4h21.2v-2.5H2.7V0.2z"/>
			
				<linearGradient id="SVGID_2_" gradientUnits="userSpaceOnUse" x1="-99.8556" y1="279.2206" x2="-99.8556" y2="280.2206" gradientTransform="matrix(27.714 0 0 -31.419 2813.408 8804.4697)">
				<stop  offset="0" style="stop-color:#6E6E6E"/>
				<stop  offset="9.099999e-02" style="stop-color:#757575"/>
				<stop  offset="0.225" style="stop-color:#888888"/>
				<stop  offset="0.385" style="stop-color:#A9A9A9"/>
				<stop  offset="0.51" style="stop-color:#C7C7C7"/>
				<stop  offset="0.512" style="stop-color:#BFBFBF"/>
				<stop  offset="0.516" style="stop-color:#A9A9A9"/>
				<stop  offset="0.522" style="stop-color:#868686"/>
				<stop  offset="0.525" style="stop-color:#6B6B6B"/>
				<stop  offset="1" style="stop-color:#BFBFBF"/>
			</linearGradient>
			<path class="st1" d="M59.4,0.4L47.2,16.1L59,31.4h-2.5L46.1,17.8L35.5,31.4H33l11.8-15.3L32.6,0.4h2.6l10.9,14.1L56.9,0.4H59.4
				 M59.9,0.2h-3.1l-0.1,0.1L46.1,14.2L35.4,0.3l-0.1-0.1h-3.2l0.3,0.4l12.1,15.6L32.8,31.3l-0.3,0.4h3.2l0.1-0.1l10.3-13.4
				l10.3,13.4l0.1,0.1h3.1l-0.3-0.4L47.5,16.1L59.6,0.6L59.9,0.2z"/>
			
				<linearGradient id="SVGID_3_" gradientUnits="userSpaceOnUse" x1="-99.2674" y1="279.3238" x2="-99.2674" y2="280.3238" gradientTransform="matrix(23.8626 0 0 -31.9045 2473.9348 8943.5801)">
				<stop  offset="0" style="stop-color:#6E6E6E"/>
				<stop  offset="9.099999e-02" style="stop-color:#757575"/>
				<stop  offset="0.225" style="stop-color:#888888"/>
				<stop  offset="0.385" style="stop-color:#A9A9A9"/>
				<stop  offset="0.51" style="stop-color:#C7C7C7"/>
				<stop  offset="0.512" style="stop-color:#BFBFBF"/>
				<stop  offset="0.516" style="stop-color:#A9A9A9"/>
				<stop  offset="0.522" style="stop-color:#868686"/>
				<stop  offset="0.525" style="stop-color:#6B6B6B"/>
				<stop  offset="1" style="stop-color:#BFBFBF"/>
			</linearGradient>
			<path class="st2" d="M105.6,0.2c1.8,0,3.6,0.3,5.4,0.9c1.6,0.6,3,1.5,4.3,2.7l-1.1,1.7c-2-2.2-4.8-3.4-8.5-3.4
				c-3,0-5.2,0.6-6.6,1.7c-1.4,1.1-2.1,2.9-2.1,4.6c0,0.9,0.1,1.7,0.5,2.5c0.4,0.7,1,1.3,1.6,1.7c0.9,0.5,1.8,0.9,2.8,1.2
				c1.1,0.3,2.5,0.7,4.1,1c1.7,0.3,3.2,0.7,4.5,1.2c1.2,0.4,2.4,0.9,3.4,1.6c0.9,0.6,1.7,1.4,2.2,2.4c0.5,1.1,0.8,2.3,0.8,3.4
				c0,1.2-0.2,2.5-0.8,3.6c-0.5,1-1.3,1.9-2.3,2.6c-1.1,0.7-2.2,1.2-3.5,1.5c-1.5,0.4-3,0.5-4.5,0.5c-4.5,0.1-8.9-1.5-12.3-4.6
				l1.2-1.8c1.4,1.4,3,2.5,4.8,3.2c2,0.8,4.2,1.2,6.4,1.2c2.2,0.1,4.4-0.4,6.3-1.5c1.5-1,2.4-2.7,2.3-4.5c0-0.9-0.2-1.8-0.6-2.6
				c-0.4-0.8-1.1-1.4-1.8-1.9c-0.9-0.6-2-1-3-1.4c-1.2-0.4-2.6-0.7-4.3-1.1c-1.7-0.3-3.1-0.7-4.4-1.1c-1.1-0.3-2.2-0.8-3.2-1.5
				c-0.8-0.5-1.5-1.3-1.9-2.2c-0.5-1-0.7-2.1-0.7-3.2c0-1.3,0.3-2.6,0.8-3.7c0.5-1.1,1.3-2,2.2-2.7c1-0.8,2.2-1.3,3.4-1.7
				C102.6,0.4,104.1,0.2,105.6,0.2 M105.6,0c-1.5,0-3,0.2-4.5,0.6c-1.3,0.3-2.5,0.9-3.5,1.7c-1,0.7-1.8,1.7-2.3,2.8
				c-0.6,1.2-0.9,2.5-0.8,3.8c0,1.1,0.2,2.3,0.7,3.3c0.5,0.9,1.2,1.7,2,2.2c1,0.7,2.1,1.2,3.2,1.5c1.3,0.4,2.7,0.8,4.4,1.1
				c1.6,0.3,3,0.7,4.3,1.1c1,0.3,2,0.7,3,1.3c0.7,0.4,1.3,1.1,1.7,1.8c0.4,0.8,0.6,1.6,0.6,2.5c0.1,1.7-0.7,3.4-2.2,4.3
				c-1.9,1.1-4.1,1.6-6.2,1.4c-2.1,0-4.3-0.4-6.3-1.2c-1.8-0.7-3.4-1.8-4.7-3.2l-0.2-0.2l-0.2,0.2l-1.2,1.8l-0.1,0.2l0.1,0.1
				c3.4,3.1,7.8,4.8,12.4,4.7c1.5,0,3.1-0.2,4.6-0.5c1.3-0.3,2.5-0.8,3.6-1.6c1-0.7,1.8-1.6,2.3-2.6c0.6-1.1,0.9-2.4,0.8-3.7
				c0-1.2-0.2-2.5-0.8-3.6c-0.5-1-1.3-1.8-2.3-2.4c-1.1-0.7-2.3-1.3-3.5-1.6c-1.4-0.4-2.9-0.8-4.5-1.2c-1.6-0.3-3-0.7-4.1-1
				c-1-0.3-1.9-0.6-2.8-1.2c-0.6-0.4-1.2-0.9-1.6-1.6c-0.4-0.7-0.5-1.5-0.5-2.4c-0.1-1.7,0.7-3.4,2-4.5c1.3-1.1,3.5-1.7,6.5-1.7
				c3.6,0,6.4,1.1,8.3,3.3l0.2,0.2l0.2-0.3l1.1-1.7l0.1-0.2l-0.1-0.1c-1.2-1.2-2.7-2.2-4.3-2.8C109.3,0.3,107.4,0,105.6,0L105.6,0z"
				/>
			
				<linearGradient id="SVGID_4_" gradientUnits="userSpaceOnUse" x1="-98.7099" y1="279.2204" x2="-98.7099" y2="280.2204" gradientTransform="matrix(21.085 0 0 -31.418 2224.8569 8804.1826)">
				<stop  offset="0" style="stop-color:#6E6E6E"/>
				<stop  offset="9.099999e-02" style="stop-color:#757575"/>
				<stop  offset="0.225" style="stop-color:#888888"/>
				<stop  offset="0.385" style="stop-color:#A9A9A9"/>
				<stop  offset="0.51" style="stop-color:#C7C7C7"/>
				<stop  offset="0.512" style="stop-color:#BFBFBF"/>
				<stop  offset="0.516" style="stop-color:#A9A9A9"/>
				<stop  offset="0.522" style="stop-color:#868686"/>
				<stop  offset="0.525" style="stop-color:#6B6B6B"/>
				<stop  offset="1" style="stop-color:#BFBFBF"/>
			</linearGradient>
			<path class="st3" d="M153.5,0.4v2h-18v12.2h15.7v1.9h-15.7v12.9h18.4v2h-20.6v-31H153.5 M153.7,0.2H133v31.4h21.1v-2.5h-18.4
				V16.8h15.7v-2.4h-15.7V2.7h18V0.2z"/>
			
				<linearGradient id="SVGID_5_" gradientUnits="userSpaceOnUse" x1="-99.1043" y1="279.2211" x2="-99.1043" y2="280.2211" gradientTransform="matrix(22.977 0 0 -31.4213 2459.1172 8805.1211)">
				<stop  offset="0" style="stop-color:#6E6E6E"/>
				<stop  offset="9.099999e-02" style="stop-color:#757575"/>
				<stop  offset="0.225" style="stop-color:#888888"/>
				<stop  offset="0.385" style="stop-color:#A9A9A9"/>
				<stop  offset="0.51" style="stop-color:#C7C7C7"/>
				<stop  offset="0.512" style="stop-color:#BFBFBF"/>
				<stop  offset="0.516" style="stop-color:#A9A9A9"/>
				<stop  offset="0.522" style="stop-color:#868686"/>
				<stop  offset="0.525" style="stop-color:#6B6B6B"/>
				<stop  offset="1" style="stop-color:#BFBFBF"/>
			</linearGradient>
			<path class="st4" d="M183.6,0.4c1.3,0,2.5,0.3,3.6,0.8c1.1,0.5,2.1,1.3,2.9,2.2c0.8,0.9,1.4,2,1.9,3.1c0.4,1.1,0.7,2.3,0.7,3.5
				c0,1.1-0.2,2.2-0.5,3.3c-0.3,1-0.8,2-1.5,2.9c-0.6,0.8-1.4,1.5-2.3,2.1c-0.9,0.6-1.9,0.9-3,1.1l7.7,12h-2.6L183,19.7h-10v11.7
				h-2.2v-31H183.6 M173,17.7h10.9c0.9,0,1.9-0.2,2.7-0.7c0.8-0.4,1.5-1,2.1-1.7c0.6-0.7,1-1.6,1.3-2.4c0.3-0.9,0.5-1.9,0.5-2.8
				c0-1-0.2-1.9-0.5-2.9c-0.3-0.9-0.8-1.7-1.5-2.4c-0.6-0.7-1.4-1.3-2.2-1.7c-0.8-0.4-1.8-0.6-2.7-0.6H173L173,17.7 M183.6,0.2
				h-13.1v31.4h2.7V20h9.7l7.4,11.6l0.1,0.1h3.1l-0.2-0.4l-7.5-11.7c1-0.2,1.9-0.6,2.7-1.1c0.9-0.6,1.7-1.3,2.4-2.2
				c0.7-0.9,1.2-1.9,1.5-2.9c0.4-1.1,0.5-2.2,0.5-3.4c0-1.2-0.2-2.4-0.7-3.6c-0.5-1.2-1.1-2.2-1.9-3.2c-0.8-0.9-1.8-1.7-2.9-2.3
				C186.2,0.5,184.9,0.2,183.6,0.2L183.6,0.2z M173.2,2.7h10.3c0.9,0,1.8,0.2,2.6,0.6c0.8,0.4,1.5,1,2.1,1.6
				c0.6,0.7,1.1,1.5,1.4,2.3c0.4,0.9,0.5,1.8,0.5,2.8c0,0.9-0.2,1.9-0.4,2.7c-0.3,0.9-0.7,1.7-1.3,2.4c-0.6,0.7-1.2,1.2-2,1.7
				c-0.8,0.4-1.7,0.6-2.6,0.6h-10.6V2.7z"/>
			
				<linearGradient id="SVGID_6_" gradientUnits="userSpaceOnUse" x1="-65.9118" y1="279.2204" x2="-65.9118" y2="280.2204" gradientTransform="matrix(2.687 0 0 -31.418 388.0662 8804.1826)">
				<stop  offset="0" style="stop-color:#6E6E6E"/>
				<stop  offset="9.099999e-02" style="stop-color:#757575"/>
				<stop  offset="0.225" style="stop-color:#888888"/>
				<stop  offset="0.385" style="stop-color:#A9A9A9"/>
				<stop  offset="0.51" style="stop-color:#C7C7C7"/>
				<stop  offset="0.512" style="stop-color:#BFBFBF"/>
				<stop  offset="0.516" style="stop-color:#A9A9A9"/>
				<stop  offset="0.522" style="stop-color:#868686"/>
				<stop  offset="0.525" style="stop-color:#6B6B6B"/>
				<stop  offset="1" style="stop-color:#BFBFBF"/>
			</linearGradient>
			<path class="st5" d="M212.1,0.4v31h-2.2v-31H212.1 M212.3,0.2h-2.7v31.4h2.7V0.2z"/>
			
				<linearGradient id="SVGID_7_" gradientUnits="userSpaceOnUse" x1="-98.7101" y1="279.2204" x2="-98.7101" y2="280.2204" gradientTransform="matrix(21.086 0 0 -31.418 2322.7051 8804.1826)">
				<stop  offset="0" style="stop-color:#6E6E6E"/>
				<stop  offset="9.099999e-02" style="stop-color:#757575"/>
				<stop  offset="0.225" style="stop-color:#888888"/>
				<stop  offset="0.385" style="stop-color:#A9A9A9"/>
				<stop  offset="0.51" style="stop-color:#C7C7C7"/>
				<stop  offset="0.512" style="stop-color:#BFBFBF"/>
				<stop  offset="0.516" style="stop-color:#A9A9A9"/>
				<stop  offset="0.522" style="stop-color:#868686"/>
				<stop  offset="0.525" style="stop-color:#6B6B6B"/>
				<stop  offset="1" style="stop-color:#BFBFBF"/>
			</linearGradient>
			<path class="st6" d="M251.2,0.4v2h-18v12.2H249v1.9h-15.7v12.9h18.4v2H231v-31H251.2 M251.5,0.2h-20.7v31.4h21.1v-2.5h-18.4V16.8
				h15.7v-2.4h-15.7V2.7h18L251.5,0.2L251.5,0.2z"/>
			
				<linearGradient id="SVGID_8_" gradientUnits="userSpaceOnUse" x1="-99.2673" y1="279.3225" x2="-99.2673" y2="280.3225" gradientTransform="matrix(23.8615 0 0 -31.8985 2645.5962 8941.8584)">
				<stop  offset="0" style="stop-color:#6E6E6E"/>
				<stop  offset="9.099999e-02" style="stop-color:#757575"/>
				<stop  offset="0.225" style="stop-color:#888888"/>
				<stop  offset="0.385" style="stop-color:#A9A9A9"/>
				<stop  offset="0.51" style="stop-color:#C7C7C7"/>
				<stop  offset="0.512" style="stop-color:#BFBFBF"/>
				<stop  offset="0.516" style="stop-color:#A9A9A9"/>
				<stop  offset="0.522" style="stop-color:#868686"/>
				<stop  offset="0.525" style="stop-color:#6B6B6B"/>
				<stop  offset="1" style="stop-color:#BFBFBF"/>
			</linearGradient>
			<path class="st7" d="M277.3,0.2c1.8,0,3.6,0.3,5.4,0.9c1.6,0.6,3,1.5,4.3,2.7l-1.1,1.7c-2-2.2-4.8-3.4-8.5-3.4
				c-3,0-5.2,0.6-6.6,1.7c-1.4,1.1-2.1,2.9-2.1,4.6c0,0.9,0.2,1.7,0.5,2.5c0.4,0.7,1,1.3,1.6,1.7c0.9,0.5,1.8,0.9,2.8,1.2
				c1.1,0.3,2.5,0.7,4.1,1c1.7,0.3,3.2,0.7,4.5,1.2c1.2,0.4,2.4,0.9,3.4,1.6c0.9,0.6,1.7,1.4,2.2,2.4c0.5,1.1,0.8,2.3,0.8,3.4
				c0,1.2-0.2,2.5-0.8,3.6c-0.5,1-1.3,1.9-2.3,2.6c-1.1,0.7-2.2,1.2-3.5,1.5c-1.5,0.4-3,0.5-4.5,0.5c-4.5,0.1-8.9-1.5-12.3-4.6
				l1.2-1.8c1.4,1.4,3,2.5,4.8,3.2c2,0.8,4.2,1.2,6.4,1.2c2.2,0.1,4.4-0.4,6.3-1.5c1.5-1,2.4-2.7,2.3-4.5c0-0.9-0.2-1.8-0.6-2.6
				c-0.4-0.8-1.1-1.4-1.8-1.9c-0.9-0.6-2-1-3-1.4c-1.2-0.4-2.6-0.7-4.3-1.1c-1.7-0.3-3.1-0.7-4.4-1.1c-1.1-0.3-2.2-0.8-3.2-1.5
				c-0.8-0.5-1.5-1.3-1.9-2.2c-0.5-1-0.7-2.1-0.6-3.2c0-1.3,0.3-2.6,0.8-3.7c0.5-1.1,1.3-2,2.2-2.7c1-0.8,2.2-1.3,3.4-1.7
				C274.3,0.4,275.8,0.2,277.3,0.2 M277.3,0c-1.5,0-3,0.2-4.5,0.6c-1.3,0.3-2.5,0.9-3.5,1.7c-1,0.7-1.8,1.7-2.3,2.8
				c-0.6,1.2-0.9,2.5-0.8,3.8c0,1.1,0.2,2.3,0.7,3.3c0.5,0.9,1.2,1.7,2,2.2c1,0.7,2.1,1.2,3.2,1.5c1.3,0.4,2.7,0.8,4.4,1.1
				c1.6,0.3,3,0.7,4.3,1.1c1,0.3,2,0.7,3,1.3c0.7,0.4,1.3,1.1,1.7,1.8c0.4,0.8,0.6,1.6,0.6,2.5c0.1,1.7-0.7,3.4-2.2,4.3
				c-1.9,1.1-4,1.6-6.2,1.4c-2.1,0-4.3-0.4-6.3-1.2c-1.8-0.7-3.4-1.8-4.7-3.2l-0.2-0.2l-0.2,0.2l-1.2,1.8l-0.1,0.2l0.1,0.1
				c3.4,3.1,7.8,4.8,12.4,4.7c1.5,0,3.1-0.2,4.6-0.5c1.3-0.3,2.5-0.8,3.6-1.6c1-0.7,1.8-1.6,2.3-2.6c0.6-1.1,0.9-2.4,0.8-3.7
				c0-1.2-0.2-2.5-0.8-3.6c-0.5-1-1.3-1.8-2.3-2.4c-1.1-0.7-2.3-1.3-3.5-1.6c-1.4-0.4-2.9-0.8-4.5-1.2c-1.6-0.3-3-0.7-4.1-1
				c-1-0.3-1.9-0.6-2.8-1.2c-0.6-0.4-1.2-0.9-1.6-1.6c-0.4-0.7-0.5-1.5-0.5-2.4c-0.1-1.7,0.7-3.4,2-4.5c1.3-1.1,3.5-1.7,6.5-1.7
				c3.6,0,6.4,1.1,8.3,3.3l0.2,0.2l0.2-0.3l1.1-1.7l0.1-0.2l-0.1-0.1c-1.2-1.2-2.7-2.2-4.3-2.8C281,0.3,279.2,0,277.3,0L277.3,0z"/>
		</g>
		<g transform="translate(0.222 0.255)">
			
				<linearGradient id="SVGID_9_" gradientUnits="userSpaceOnUse" x1="-98.8549" y1="279.92" x2="-98.8549" y2="278.89" gradientTransform="matrix(20.709 0 0 -30.955 2057.5408 8664.1201)">
				<stop  offset="0" style="stop-color:#404040"/>
				<stop  offset="9.800000e-02" style="stop-color:#474747"/>
				<stop  offset="0.242" style="stop-color:#5A5A5A"/>
				<stop  offset="0.414" style="stop-color:#7B7B7B"/>
				<stop  offset="0.491" style="stop-color:#8C8C8C"/>
				<stop  offset="0.496" style="stop-color:#848484"/>
				<stop  offset="0.503" style="stop-color:#6E6E6E"/>
				<stop  offset="0.508" style="stop-color:#595959"/>
				<stop  offset="1" style="stop-color:#8C8C8C"/>
			</linearGradient>
			<path class="st8" d="M0,31.2v-31h2.2v28.9h18.5v2L0,31.2z"/>
			
				<linearGradient id="SVGID_10_" gradientUnits="userSpaceOnUse" x1="-99.959" y1="279.92" x2="-99.959" y2="278.89" gradientTransform="matrix(26.769 0 0 -30.955 2721.5808 8664.1201)">
				<stop  offset="0" style="stop-color:#404040"/>
				<stop  offset="9.800000e-02" style="stop-color:#474747"/>
				<stop  offset="0.242" style="stop-color:#5A5A5A"/>
				<stop  offset="0.414" style="stop-color:#7B7B7B"/>
				<stop  offset="0.491" style="stop-color:#8C8C8C"/>
				<stop  offset="0.496" style="stop-color:#848484"/>
				<stop  offset="0.503" style="stop-color:#6E6E6E"/>
				<stop  offset="0.508" style="stop-color:#595959"/>
				<stop  offset="1" style="stop-color:#8C8C8C"/>
			</linearGradient>
			<path class="st9" d="M35,0.2l10.9,14.1L56.6,0.2h2.5L47,15.9l11.8,15.3h-2.5L45.8,17.5L35.3,31.2h-2.6l11.8-15.3L32.4,0.2H35z"/>
			
				<linearGradient id="SVGID_11_" gradientUnits="userSpaceOnUse" x1="-99.4024" y1="280.0178" x2="-99.4024" y2="279.0038" gradientTransform="matrix(23.3279 0 0 -31.4384 2423.8123 8802.5244)">
				<stop  offset="0" style="stop-color:#404040"/>
				<stop  offset="9.800000e-02" style="stop-color:#474747"/>
				<stop  offset="0.242" style="stop-color:#5A5A5A"/>
				<stop  offset="0.414" style="stop-color:#7B7B7B"/>
				<stop  offset="0.491" style="stop-color:#8C8C8C"/>
				<stop  offset="0.496" style="stop-color:#848484"/>
				<stop  offset="0.503" style="stop-color:#6E6E6E"/>
				<stop  offset="0.508" style="stop-color:#595959"/>
				<stop  offset="1" style="stop-color:#8C8C8C"/>
			</linearGradient>
			<path class="st10" d="M113.8,5.4c-2-2.2-4.8-3.4-8.5-3.4c-3,0-5.2,0.6-6.6,1.7c-1.4,1.1-2.1,2.9-2.1,4.6c0,0.9,0.1,1.7,0.5,2.5
				c0.4,0.7,1,1.3,1.6,1.7c0.9,0.5,1.8,0.9,2.8,1.2c1.1,0.3,2.5,0.7,4.1,1c1.7,0.3,3.2,0.7,4.5,1.2c1.2,0.4,2.4,0.9,3.4,1.6
				c0.9,0.6,1.7,1.4,2.2,2.4c0.5,1.1,0.8,2.3,0.8,3.4c0,1.2-0.2,2.5-0.8,3.6c-0.5,1-1.3,1.9-2.3,2.6c-1.1,0.7-2.2,1.2-3.5,1.5
				c-1.5,0.4-3,0.5-4.5,0.5c-4.5,0.1-8.9-1.5-12.3-4.6l1.2-1.8c1.4,1.4,3,2.5,4.8,3.2c2,0.8,4.2,1.2,6.4,1.2
				c2.2,0.1,4.4-0.4,6.3-1.5c1.5-1,2.4-2.7,2.3-4.5c0-0.9-0.2-1.8-0.6-2.6c-0.4-0.8-1.1-1.4-1.8-1.9c-0.9-0.6-2-1-3-1.4
				c-1.2-0.4-2.6-0.7-4.3-1.1c-1.7-0.3-3.1-0.7-4.4-1.1C99,15.2,98,14.7,97,14c-0.8-0.5-1.5-1.3-1.9-2.2c-0.5-1-0.7-2.1-0.7-3.2
				c0-1.3,0.3-2.6,0.8-3.7c0.5-1.1,1.3-2,2.2-2.7c1-0.8,2.2-1.3,3.4-1.7c1.4-0.4,2.9-0.6,4.4-0.6c1.8,0,3.6,0.3,5.4,0.9
				c1.6,0.6,3,1.5,4.3,2.7L113.8,5.4z"/>
			
				<linearGradient id="SVGID_12_" gradientUnits="userSpaceOnUse" x1="-98.8341" y1="279.9198" x2="-98.8341" y2="278.8898" gradientTransform="matrix(20.621 0 0 -30.954 2181.3828 8663.833)">
				<stop  offset="0" style="stop-color:#404040"/>
				<stop  offset="9.800000e-02" style="stop-color:#474747"/>
				<stop  offset="0.242" style="stop-color:#5A5A5A"/>
				<stop  offset="0.414" style="stop-color:#7B7B7B"/>
				<stop  offset="0.491" style="stop-color:#8C8C8C"/>
				<stop  offset="0.496" style="stop-color:#848484"/>
				<stop  offset="0.503" style="stop-color:#6E6E6E"/>
				<stop  offset="0.508" style="stop-color:#595959"/>
				<stop  offset="1" style="stop-color:#8C8C8C"/>
			</linearGradient>
			<path class="st11" d="M153.6,29.2v2H133v-31h20.2v2h-18v12.2H151v1.9h-15.7v12.9H153.6z"/>
			
				<linearGradient id="SVGID_13_" gradientUnits="userSpaceOnUse" x1="-99.2071" y1="279.921" x2="-99.2071" y2="278.891" gradientTransform="matrix(22.321 0 0 -30.9594 2396.071 8665.3691)">
				<stop  offset="0" style="stop-color:#404040"/>
				<stop  offset="9.800000e-02" style="stop-color:#474747"/>
				<stop  offset="0.242" style="stop-color:#5A5A5A"/>
				<stop  offset="0.414" style="stop-color:#7B7B7B"/>
				<stop  offset="0.491" style="stop-color:#8C8C8C"/>
				<stop  offset="0.496" style="stop-color:#848484"/>
				<stop  offset="0.503" style="stop-color:#6E6E6E"/>
				<stop  offset="0.508" style="stop-color:#595959"/>
				<stop  offset="1" style="stop-color:#8C8C8C"/>
			</linearGradient>
			<path class="st12" d="M170.5,31.2v-31h12.9c1.3,0,2.5,0.3,3.6,0.8c1.1,0.5,2.1,1.3,2.9,2.2c0.8,0.9,1.4,2,1.9,3.1
				c0.4,1.1,0.7,2.3,0.7,3.5c0,1.1-0.2,2.2-0.5,3.3c-0.3,1-0.8,2-1.5,2.9c-0.6,0.8-1.4,1.5-2.3,2.1c-0.9,0.6-1.9,0.9-3,1.1l7.7,12
				h-2.6l-7.5-11.7h-10v11.7H170.5z M172.7,17.4h10.9c0.9,0,1.9-0.2,2.7-0.7c0.8-0.4,1.5-1,2.1-1.7c0.6-0.7,1-1.6,1.3-2.4
				c0.3-0.9,0.5-1.9,0.5-2.8c0-1-0.2-1.9-0.5-2.9c-0.3-0.9-0.8-1.7-1.5-2.4c-0.6-0.7-1.4-1.3-2.2-1.7c-0.8-0.4-1.8-0.6-2.7-0.6
				h-10.5V17.4z"/>
			
				<linearGradient id="SVGID_14_" gradientUnits="userSpaceOnUse" x1="-58.2977" y1="279.92" x2="-58.2977" y2="278.89" gradientTransform="matrix(2.223 0 0 -30.955 340.3239 8664.1201)">
				<stop  offset="0" style="stop-color:#404040"/>
				<stop  offset="9.800000e-02" style="stop-color:#474747"/>
				<stop  offset="0.242" style="stop-color:#5A5A5A"/>
				<stop  offset="0.414" style="stop-color:#7B7B7B"/>
				<stop  offset="0.491" style="stop-color:#8C8C8C"/>
				<stop  offset="0.496" style="stop-color:#848484"/>
				<stop  offset="0.503" style="stop-color:#6E6E6E"/>
				<stop  offset="0.508" style="stop-color:#595959"/>
				<stop  offset="1" style="stop-color:#8C8C8C"/>
			</linearGradient>
			<path class="st13" d="M209.6,31.2v-31h2.2v31H209.6z"/>
			
				<linearGradient id="SVGID_15_" gradientUnits="userSpaceOnUse" x1="-98.8343" y1="279.9198" x2="-98.8343" y2="278.8898" gradientTransform="matrix(20.622 0 0 -30.954 2279.2344 8663.833)">
				<stop  offset="0" style="stop-color:#404040"/>
				<stop  offset="9.800000e-02" style="stop-color:#474747"/>
				<stop  offset="0.242" style="stop-color:#5A5A5A"/>
				<stop  offset="0.414" style="stop-color:#7B7B7B"/>
				<stop  offset="0.491" style="stop-color:#8C8C8C"/>
				<stop  offset="0.496" style="stop-color:#848484"/>
				<stop  offset="0.503" style="stop-color:#6E6E6E"/>
				<stop  offset="0.508" style="stop-color:#595959"/>
				<stop  offset="1" style="stop-color:#8C8C8C"/>
			</linearGradient>
			<path class="st14" d="M251.4,29.2v2h-20.6v-31H251v2h-18v12.2h15.7v1.9H233v12.9H251.4z"/>
			
				<linearGradient id="SVGID_16_" gradientUnits="userSpaceOnUse" x1="-99.4026" y1="280.0178" x2="-99.4026" y2="279.0038" gradientTransform="matrix(23.3289 0 0 -31.4384 2595.6907 8802.5195)">
				<stop  offset="0" style="stop-color:#404040"/>
				<stop  offset="9.800000e-02" style="stop-color:#474747"/>
				<stop  offset="0.242" style="stop-color:#5A5A5A"/>
				<stop  offset="0.414" style="stop-color:#7B7B7B"/>
				<stop  offset="0.491" style="stop-color:#8C8C8C"/>
				<stop  offset="0.496" style="stop-color:#848484"/>
				<stop  offset="0.503" style="stop-color:#6E6E6E"/>
				<stop  offset="0.508" style="stop-color:#595959"/>
				<stop  offset="1" style="stop-color:#8C8C8C"/>
			</linearGradient>
			<path class="st15" d="M285.6,5.4c-2-2.2-4.8-3.4-8.5-3.4c-3,0-5.2,0.6-6.6,1.7c-1.4,1.1-2.1,2.9-2.1,4.6c0,0.9,0.2,1.7,0.5,2.5
				c0.4,0.7,1,1.3,1.6,1.7c0.9,0.5,1.8,0.9,2.8,1.2c1.1,0.3,2.5,0.7,4.1,1c1.7,0.3,3.2,0.7,4.5,1.2c1.2,0.4,2.4,0.9,3.4,1.6
				c0.9,0.6,1.7,1.4,2.2,2.4c0.5,1.1,0.8,2.3,0.8,3.4c0,1.2-0.2,2.5-0.8,3.6c-0.5,1-1.3,1.9-2.3,2.6c-1.1,0.7-2.2,1.2-3.5,1.5
				c-1.5,0.4-3,0.5-4.5,0.5c-4.5,0.1-8.9-1.5-12.3-4.6l1.2-1.8c1.4,1.4,3,2.5,4.8,3.2c2,0.8,4.2,1.2,6.4,1.2
				c2.2,0.1,4.4-0.4,6.3-1.5c1.5-1,2.4-2.7,2.3-4.5c0-0.9-0.2-1.8-0.6-2.6c-0.4-0.8-1.1-1.4-1.8-1.9c-0.9-0.6-2-1-3-1.4
				c-1.2-0.4-2.6-0.7-4.3-1.1c-1.7-0.3-3.1-0.7-4.4-1.1c-1.1-0.3-2.2-0.8-3.2-1.5c-0.8-0.5-1.5-1.3-1.9-2.2c-0.5-1-0.7-2.1-0.7-3.2
				c0-1.3,0.3-2.6,0.8-3.7c0.5-1.1,1.3-2,2.2-2.7c1-0.8,2.2-1.3,3.4-1.7c1.4-0.4,2.9-0.6,4.4-0.6c1.8,0,3.6,0.3,5.4,0.9
				c1.6,0.6,3,1.5,4.3,2.7L285.6,5.4z"/>
		</g>
	</g>
	<g class="st16">
		<path class="st17" d="M563,2045v-17.8h11.7v2h-9.5v5.9h8v1.9h-8v8H563z"/>
		<path class="st17" d="M591.9,2045.1c-1.2,0-2.4-0.3-3.4-0.8c-1-0.5-1.9-1.2-2.6-2s-1.3-1.8-1.7-2.9c-0.4-1.1-0.6-2.2-0.6-3.3
			c0-1.2,0.2-2.3,0.6-3.4c0.4-1.1,1-2,1.8-2.9c0.8-0.8,1.6-1.5,2.7-2c1-0.5,2.1-0.7,3.3-0.7c1.2,0,2.4,0.3,3.4,0.8
			c1,0.5,1.9,1.2,2.6,2.1c0.7,0.9,1.3,1.8,1.7,2.9s0.6,2.2,0.6,3.3c0,1.2-0.2,2.3-0.6,3.4c-0.4,1.1-1,2-1.8,2.9
			c-0.7,0.8-1.6,1.5-2.6,2S593.1,2045.1,591.9,2045.1z M585.9,2036.1c0,0.9,0.1,1.8,0.4,2.6c0.3,0.8,0.7,1.6,1.2,2.2
			c0.5,0.7,1.2,1.2,1.9,1.6c0.8,0.4,1.6,0.6,2.5,0.6c0.9,0,1.8-0.2,2.5-0.6c0.8-0.4,1.4-0.9,1.9-1.6s0.9-1.4,1.2-2.2
			c0.3-0.8,0.4-1.7,0.4-2.5c0-0.9-0.1-1.8-0.4-2.6s-0.7-1.6-1.2-2.2c-0.5-0.6-1.2-1.2-1.9-1.5c-0.7-0.4-1.6-0.6-2.5-0.6
			c-1,0-1.8,0.2-2.6,0.6c-0.8,0.4-1.4,0.9-1.9,1.6c-0.5,0.7-0.9,1.4-1.2,2.2S585.9,2035.3,585.9,2036.1z"/>
		<path class="st17" d="M610.9,2045v-17.8h7.6c0.8,0,1.5,0.2,2.2,0.5c0.7,0.3,1.2,0.8,1.7,1.3c0.5,0.5,0.8,1.2,1.1,1.8
			c0.3,0.7,0.4,1.4,0.4,2.1c0,0.6-0.1,1.2-0.3,1.8c-0.2,0.6-0.4,1.1-0.8,1.6c-0.3,0.5-0.7,0.9-1.2,1.2c-0.5,0.3-1,0.6-1.5,0.7
			l4.3,6.8h-2.5l-4-6.4h-4.7v6.4H610.9z M613.2,2036.6h5.4c0.5,0,0.9-0.1,1.3-0.3s0.7-0.5,1-0.8c0.3-0.3,0.5-0.7,0.6-1.2
			s0.2-0.9,0.2-1.4c0-0.5-0.1-1-0.3-1.4s-0.4-0.8-0.7-1.2s-0.6-0.6-1-0.8c-0.4-0.2-0.8-0.3-1.2-0.3h-5.2V2036.6z"/>
		<path class="st17" d="M660.7,2029.2h-6.1v15.8h-2.2v-15.8h-6.1v-2h14.5V2029.2z"/>
		<path class="st17" d="M685,2027.2v17.8h-2.2v-8.1H673v8.1h-2.2v-17.8h2.2v7.7h9.8v-7.7H685z"/>
		<path class="st17" d="M708.8,2043v2h-12v-17.8h11.8v2H699v5.8h8.3v1.9H699v6.1H708.8z"/>
		<path class="st17" d="M740.4,2045.1c-1.2,0-2.4-0.3-3.4-0.8c-1-0.5-1.9-1.2-2.6-2s-1.3-1.8-1.7-2.9c-0.4-1.1-0.6-2.2-0.6-3.3
			c0-1.2,0.2-2.3,0.6-3.4c0.4-1.1,1-2,1.8-2.9c0.8-0.8,1.6-1.5,2.7-2c1-0.5,2.1-0.7,3.3-0.7c1.2,0,2.4,0.3,3.4,0.8
			c1,0.5,1.9,1.2,2.6,2.1c0.7,0.9,1.3,1.8,1.7,2.9c0.4,1.1,0.6,2.2,0.6,3.3c0,1.2-0.2,2.3-0.6,3.4c-0.4,1.1-1,2-1.8,2.9
			c-0.7,0.8-1.6,1.5-2.7,2C742.8,2044.9,741.6,2045.1,740.4,2045.1z M734.4,2036.1c0,0.9,0.1,1.8,0.4,2.6c0.3,0.8,0.7,1.6,1.2,2.2
			c0.5,0.7,1.2,1.2,1.9,1.6c0.8,0.4,1.6,0.6,2.5,0.6c1,0,1.8-0.2,2.5-0.6c0.8-0.4,1.4-0.9,1.9-1.6c0.5-0.7,0.9-1.4,1.2-2.2
			c0.3-0.8,0.4-1.7,0.4-2.5c0-0.9-0.1-1.8-0.4-2.6c-0.3-0.8-0.7-1.6-1.2-2.2c-0.5-0.6-1.2-1.2-1.9-1.5c-0.7-0.4-1.6-0.6-2.5-0.6
			c-1,0-1.8,0.2-2.5,0.6c-0.8,0.4-1.4,0.9-1.9,1.6c-0.5,0.7-0.9,1.4-1.2,2.2S734.4,2035.3,734.4,2036.1z"/>
		<path class="st17" d="M759.4,2045v-17.8h11.7v2h-9.5v5.9h8v1.9h-8v8H759.4z"/>
		<path class="st17" d="M781.5,2045v-17.8h11.7v2h-9.5v5.9h8v1.9h-8v8H781.5z"/>
		<path class="st17" d="M803.6,2045v-17.8h2.2v17.8H803.6z"/>
		<path class="st17" d="M816.4,2036c0-1.1,0.2-2.1,0.6-3.2s0.9-2,1.7-2.8s1.6-1.5,2.7-2c1.1-0.5,2.2-0.8,3.6-0.8
			c1.6,0,2.9,0.4,4.1,1.1c1.1,0.7,2,1.7,2.5,2.8l-1.8,1.1c-0.3-0.6-0.6-1-1-1.4c-0.4-0.4-0.8-0.7-1.2-0.9s-0.9-0.4-1.4-0.5
			c-0.5-0.1-0.9-0.2-1.4-0.2c-1,0-1.9,0.2-2.6,0.6c-0.8,0.4-1.4,0.9-1.9,1.6s-0.9,1.4-1.2,2.2c-0.3,0.8-0.4,1.7-0.4,2.5
			c0,0.9,0.2,1.8,0.5,2.7c0.3,0.8,0.7,1.6,1.3,2.2s1.2,1.2,2,1.5c0.8,0.4,1.6,0.6,2.5,0.6c0.5,0,0.9-0.1,1.4-0.2
			c0.5-0.1,1-0.3,1.4-0.6s0.9-0.6,1.3-1c0.4-0.4,0.7-0.9,1-1.4l1.9,1c-0.3,0.7-0.7,1.3-1.2,1.8c-0.5,0.5-1.1,0.9-1.7,1.3
			c-0.6,0.3-1.3,0.6-2,0.8c-0.7,0.2-1.4,0.3-2.1,0.3c-1.2,0-2.3-0.3-3.3-0.8c-1-0.5-1.9-1.2-2.6-2.1c-0.7-0.9-1.3-1.8-1.7-2.9
			C816.7,2038.2,816.4,2037.1,816.4,2036z"/>
		<path class="st17" d="M854.2,2043v2h-12v-17.8H854v2h-9.6v5.8h8.3v1.9h-8.3v6.1H854.2z"/>
	</g>
</g>
</svg>
