<?xml version="1.0" encoding="utf-8"?>
<!-- Generator: Adobe Illustrator 25.2.1, SVG Export Plug-In . SVG Version: 6.00 Build 0)  -->
<svg version="1.1" id="Layer_1" xmlns="http://www.w3.org/2000/svg" xmlns:xlink="http://www.w3.org/1999/xlink" x="0px" y="0px"
	 viewBox="0 0 213.6 39" style="enable-background:new 0 0 213.6 39;" xml:space="preserve">
<style type="text/css">
	.st0{enable-background:new    ;}
	.st1{fill:#3C4349;}
	.st2{fill:#1A1818;}
</style>
<g transform="translate(-339.372 -5893)">
	<g class="st0">
		<path class="st1" d="M419.8,5924v-16.9l-7,12.8h-2l-7-12.8v16.9h-3.7v-23.4h4l7.8,14.3l7.8-14.3h4v23.4H419.8z"/>
		<path class="st1" d="M428.3,5903.9v-4h3.6v4H428.3z M428.3,5924v-17.3h3.6v17.3H428.3z"/>
		<path class="st1" d="M435.2,5915.4c0-1.2,0.2-2.4,0.6-3.4c0.4-1.1,1-2,1.8-2.8c0.8-0.8,1.7-1.5,2.8-1.9c1.1-0.5,2.3-0.7,3.7-0.7
			c1.8,0,3.3,0.4,4.6,1.2c1.3,0.8,2.2,1.8,2.9,3.1l-3.5,1.1c-0.4-0.7-1-1.3-1.7-1.7c-0.7-0.4-1.5-0.6-2.3-0.6c-0.7,0-1.4,0.1-2,0.4
			c-0.6,0.3-1.2,0.7-1.6,1.2s-0.8,1.1-1.1,1.8c-0.3,0.7-0.4,1.5-0.4,2.3c0,0.8,0.1,1.6,0.4,2.3s0.6,1.3,1.1,1.9s1,0.9,1.7,1.2
			c0.6,0.3,1.3,0.4,2,0.4c0.4,0,0.9-0.1,1.3-0.2c0.4-0.1,0.8-0.3,1.2-0.5c0.4-0.2,0.7-0.5,1-0.8c0.3-0.3,0.5-0.6,0.6-0.9l3.6,1.1
			c-0.6,1.3-1.5,2.4-2.9,3.2s-2.9,1.2-4.8,1.2c-1.3,0-2.6-0.2-3.7-0.7c-1.1-0.5-2-1.1-2.8-2c-0.8-0.8-1.4-1.8-1.8-2.9
			C435.4,5917.7,435.2,5916.6,435.2,5915.4z"/>
		<path class="st1" d="M464.4,5909.9c-1.4,0-2.7,0.4-3.7,1c-1.1,0.6-1.9,1.5-2.3,2.6v10.6h-3.6v-17.3h3.4v3.9
			c0.6-1.2,1.4-2.1,2.3-2.9c1-0.7,2-1.1,3.1-1.2c0.2,0,0.4,0,0.5,0s0.3,0,0.4,0V5909.9z"/>
		<path class="st1" d="M474,5924.3c-1.4,0-2.6-0.2-3.7-0.7c-1.1-0.5-2-1.1-2.8-1.9c-0.8-0.8-1.4-1.8-1.8-2.9s-0.6-2.2-0.6-3.4
			c0-1.2,0.2-2.3,0.6-3.4s1-2,1.8-2.9c0.8-0.8,1.7-1.5,2.8-1.9c1.1-0.5,2.3-0.7,3.6-0.7s2.6,0.2,3.6,0.7c1.1,0.5,2,1.1,2.8,1.9
			c0.8,0.8,1.4,1.8,1.8,2.9s0.6,2.2,0.6,3.4c0,1.2-0.2,2.3-0.6,3.4s-1,2-1.8,2.9c-0.8,0.8-1.7,1.5-2.8,1.9
			C476.5,5924.1,475.3,5924.3,474,5924.3z M468.8,5915.4c0,0.8,0.1,1.6,0.4,2.3s0.6,1.3,1.1,1.8c0.5,0.5,1,0.9,1.6,1.2
			s1.3,0.4,2,0.4c0.7,0,1.4-0.1,2-0.4s1.2-0.7,1.6-1.2s0.8-1.1,1.1-1.8c0.3-0.7,0.4-1.5,0.4-2.3c0-0.8-0.1-1.6-0.4-2.3
			c-0.3-0.7-0.6-1.3-1.1-1.9c-0.5-0.5-1-0.9-1.6-1.2s-1.3-0.4-2-0.4c-0.7,0-1.4,0.2-2,0.5c-0.6,0.3-1.2,0.7-1.6,1.3
			c-0.5,0.5-0.8,1.2-1.1,1.9C469,5913.8,468.8,5914.6,468.8,5915.4z"/>
		<path class="st1" d="M485.9,5916.6v-3.3h9.9v3.3H485.9z"/>
		<path class="st1" d="M499,5912.1c0-1.4,0.3-2.8,0.8-4.2c0.5-1.4,1.2-2.7,2.2-3.8c1-1.1,2.2-2,3.6-2.7c1.4-0.7,3-1,4.8-1
			c2.1,0,4,0.5,5.5,1.4c1.5,0.9,2.7,2.2,3.4,3.7l-2.9,1.9c-0.3-0.7-0.7-1.3-1.2-1.8c-0.5-0.5-1-0.9-1.5-1.2
			c-0.6-0.3-1.1-0.5-1.7-0.6c-0.6-0.1-1.2-0.2-1.7-0.2c-1.2,0-2.3,0.2-3.2,0.7c-0.9,0.5-1.7,1.1-2.3,2c-0.6,0.8-1.1,1.7-1.4,2.7
			c-0.3,1-0.5,2-0.5,3c0,1.1,0.2,2.2,0.6,3.3c0.4,1,0.9,1.9,1.6,2.7c0.7,0.8,1.5,1.4,2.4,1.9c0.9,0.5,1.9,0.7,3,0.7
			c0.6,0,1.2-0.1,1.8-0.2c0.6-0.1,1.2-0.4,1.7-0.7c0.6-0.3,1.1-0.7,1.6-1.2c0.5-0.5,0.9-1.1,1.2-1.7l3.1,1.7
			c-0.4,0.9-0.9,1.7-1.6,2.3c-0.7,0.7-1.5,1.2-2.3,1.7c-0.9,0.5-1.8,0.8-2.7,1.1s-1.9,0.4-2.8,0.4c-1.6,0-3.2-0.4-4.5-1.1
			c-1.4-0.7-2.5-1.6-3.5-2.8s-1.8-2.4-2.3-3.9C499.2,5915.1,499,5913.6,499,5912.1z"/>
		<path class="st1" d="M527.9,5924.3c-1.8,0-3.2-0.6-4.1-1.8c-0.9-1.2-1.4-2.9-1.4-5.3v-10.6h3.6v9.8c0,3.1,1.1,4.7,3.3,4.7
			c1,0,2-0.3,2.9-1c0.9-0.6,1.6-1.6,2.1-2.8v-10.8h3.6v13c0,0.4,0.1,0.7,0.2,0.9c0.1,0.2,0.4,0.3,0.8,0.3v3.1
			c-0.4,0.1-0.7,0.1-0.9,0.1c-0.2,0-0.5,0-0.7,0c-0.7,0-1.2-0.2-1.7-0.5c-0.5-0.4-0.7-0.8-0.7-1.4l-0.1-1.7c-0.8,1.3-1.8,2.2-3,2.9
			C530.7,5924,529.3,5924.3,527.9,5924.3z"/>
		<path class="st1" d="M552.3,5923.1c-0.5,0.2-1.1,0.5-1.9,0.7c-0.8,0.3-1.7,0.4-2.6,0.4c-0.6,0-1.1-0.1-1.6-0.2
			c-0.5-0.2-1-0.4-1.3-0.7c-0.4-0.3-0.7-0.7-0.9-1.2s-0.3-1.1-0.3-1.8v-10.8h-2.3v-2.8h2.3v-5.7h3.6v5.7h3.8v2.8h-3.8v9.6
			c0,0.6,0.2,1.1,0.6,1.3c0.3,0.3,0.8,0.4,1.3,0.4c0.5,0,1-0.1,1.5-0.3c0.5-0.2,0.8-0.3,1-0.4L552.3,5923.1z"/>
	</g>
	<path class="st2" d="M358.6,5897.9l-2.7,1.4l4.9,9l2.7-1.4L358.6,5897.9z M375.2,5907l-2.5-1.7l-5.8,7.6l2.5,1.7L375.2,5907z
		 M367,5920.6l0.8,2.9l9.7-2.9l-0.8-2.9L367,5920.6z M364.1,5929.3l0.8-2.9l-10.3-2.9l-0.8,2.9L364.1,5929.3z M346.2,5930.4l2.2-2.1
		l-6.9-7l-2.2,2.1L346.2,5930.4z M376,5929.4l2.6,1.9l5.7-7.8l-2.6-1.6L376,5929.4z M343.2,5902.8l-1.5,2.6l9.5,6l1.5-2.6
		L343.2,5902.8z M360.9,5914.6l-1.4-2.7l-8.2,4.5l1.4,2.7L360.9,5914.6z M371.6,5895.5l-1.7,2.5l8.4,6.4l1.7-2.5L371.6,5895.5z"/>
</g>
</svg>
