<?xml version="1.0" encoding="utf-8"?>
<!-- Generator: Adobe Illustrator 27.2.0, SVG Export Plug-In . SVG Version: 6.00 Build 0)  -->
<svg version="1.1" id="Layer_1" xmlns="http://www.w3.org/2000/svg" xmlns:xlink="http://www.w3.org/1999/xlink" x="0px" y="0px"
	 viewBox="0 0 24 24" style="enable-background:new 0 0 24 24;" xml:space="preserve">
<style type="text/css">
	.st0{fill:none;}
	.st1{fill:none;stroke:#FFFFFF;stroke-width:2;stroke-linecap:round;stroke-linejoin:round;}
	.st2{fill-rule:evenodd;clip-rule:evenodd;fill:#FFFFFF;}
</style>
<rect class="st0" width="24" height="24"/>
<rect x="1" y="1" class="st1" width="22" height="22"/>
<g id="Group_2852">
	<path id="Path_2204" class="st2" d="M19.3,6.6c0-0.9-0.7-1.6-1.6-1.6H9.7C8.9,5,8.2,5.7,8.1,6.6c0,0.9,0.7,1.6,1.6,1.6h4.1
		l-8.3,8.3c-0.6,0.6-0.6,1.6,0,2.2c0,0,0,0,0,0c0.6,0.6,1.6,0.6,2.2,0c0,0,0,0,0,0l8.3-8.3v4.1c0,0.9,0.7,1.6,1.6,1.6
		c0.9,0,1.6-0.7,1.6-1.6L19.3,6.6z"/>
</g>
</svg>
