<svg xmlns="http://www.w3.org/2000/svg" width="129.766" height="129.766" viewBox="0 0 129.766 129.766"><g transform="translate(-618.117 -1296.117)"><g transform="translate(618.117 1296.117)" opacity="0.5"><path d="M64.883,121.656a56.773,56.773,0,1,1,56.773-56.773,56.773,56.773,0,0,1-56.773,56.773Zm0,8.11A64.883,64.883,0,1,0,0,64.883,64.883,64.883,0,0,0,64.883,129.766Z" fill="#fff"/><path d="M8.2,5.449a4.055,4.055,0,0,1,4.217.308L40.8,26.034a4.055,4.055,0,0,1,0,6.6L12.415,52.911A4.055,4.055,0,0,1,6,49.611V9.059A4.055,4.055,0,0,1,8.2,5.449Z" transform="translate(42.662 35.549)" fill="#fff"/></g></g></svg>