<svg xmlns="http://www.w3.org/2000/svg" xmlns:xlink="http://www.w3.org/1999/xlink" width="212" height="400" viewBox="0 0 212 400"><path d="M38.727,918.75v185.484L19.411,1084.9V918.75H.068v146.811h0L0,1092.836l57.989,58.008v-.136l.068.068v-27.207h0V918.75Z" transform="translate(0 -800.32)" fill="#bfbfbf"/><path d="M638.76,918.75H600.1v122.457h38.66v121.021l-9.661,9.679v.135l-9.665-9.692V1112.1h-19.33l-.036,58.039,29.026,28.968,28.995-28.968v-.668h0V1021.859H619.43V938.084h19.33v38.673h19.33V918.75Z" transform="translate(-522.718 -800.32)" fill="#bfbfbf"/><path d="M1238.805,918.75h-38.659V1150.78l19.33-19.335v-90.239h19.329v70.9l19.33-19.334V918.75Zm0,103.123h-19.329V938.084h19.329Z" transform="translate(-1045.444 -800.32)" fill="#bfbfbf"/><path d="M30.979,64.364l-9.737-8.442,12.843-1.106L39.1,42.984l5.011,11.832,12.843,1.106-9.737,8.437L50.133,76.9,39.1,70.259,28.059,76.909Zm134.338-1.7-9.737-8.437,12.843-1.106,5.011-11.832,5.011,11.832,12.843,1.106-9.733,8.437,2.921,12.545-11.037-6.649L162.4,75.211Zm-70.2.181L81.245,50.821l18.3-1.575,7.141-16.861,7.141,16.861,18.3,1.575L118.252,62.847l4.158,17.876-15.727-9.48-15.727,9.48ZM106.75,0,.4,29V98.613H213.1V29Z" fill="#bfbfbf"/>
</svg>