<svg xmlns="http://www.w3.org/2000/svg" xmlns:xlink="http://www.w3.org/1999/xlink" width="46.246" height="43.859" viewBox="0 0 46.246 43.859"><defs><clipPath id="a"><rect width="46.246" height="43.859" fill="none" stroke="#000" stroke-width="1"/></clipPath></defs><g transform="translate(-493 -812.062)"><g transform="translate(493 812.062)"><g clip-path="url(#a)"><path d="M44.734,16.517l-6.2-5.394V.725A.721.721,0,0,0,37.814,0H7.961A.721.721,0,0,0,7.24.725V11.488L1.506,16.522A4.3,4.3,0,0,0,0,19.834V39.469a4.4,4.4,0,0,0,4.394,4.394H41.852a4.4,4.4,0,0,0,4.394-4.394V19.834a4.274,4.274,0,0,0-1.511-3.317Zm-.946,1.091A2.848,2.848,0,0,1,44.8,19.834V21.22l-6.27,4.193V13.034Zm-6.7-16.162V26.379L23.458,35.5,8.682,25.614V1.445ZM2.461,17.607,7.24,13.414V24.648L1.446,20.77v-.941a2.844,2.844,0,0,1,1.016-2.222Zm39.39,24.809H4.393a2.949,2.949,0,0,1-2.947-2.947V22.511L23.057,36.967a.727.727,0,0,0,.8,0L44.8,22.956V39.464a2.954,2.954,0,0,1-2.947,2.952ZM22.927,25.548a10.323,10.323,0,0,0,8.011-3.793.722.722,0,0,0-1.116-.916,8.913,8.913,0,1,1-6.9-14.561,9.233,9.233,0,0,1,6.665,2.7,7.4,7.4,0,0,1,2.011,4l.015.1A8.167,8.167,0,0,1,31.7,14.52a1.838,1.838,0,0,1-.38.7,2.509,2.509,0,0,1-1.851.836,2.3,2.3,0,0,1-2.227-1.736c-.01-.06-.025-.12-.04-.18a2.458,2.458,0,0,1-.04-.385V11.272a.721.721,0,0,0-1.441,0v.4A4.656,4.656,0,1,0,27.1,16.641a3.737,3.737,0,0,0,2.377.851,3.94,3.94,0,0,0,2.952-1.341,3.181,3.181,0,0,0,.69-1.331.514.514,0,0,0,.02-.085,3.042,3.042,0,0,0,.035-1.086l-.12-.8c0-.05-.015-.1-.02-.145l-.02-.135a.688.688,0,0,0-.04-.145,8.79,8.79,0,0,0-2.337-4.459,10.694,10.694,0,0,0-7.706-3.137,10.361,10.361,0,0,0,0,20.721Zm-.26-7.145a3.215,3.215,0,1,1,3.107-4.018,2.6,2.6,0,0,0,.06.27,3.127,3.127,0,0,1,.05.53A3.224,3.224,0,0,1,22.667,18.4Z" transform="translate(0 -0.004)"/><path d="M37.814-.5A1.222,1.222,0,0,1,39.034.725v10.17L45.1,16.17a4.761,4.761,0,0,1,1.648,3.664V39.469a4.9,4.9,0,0,1-4.894,4.894H4.394A4.9,4.9,0,0,1-.5,39.469V19.834a4.785,4.785,0,0,1,1.676-3.688L6.74,11.262V.725A1.222,1.222,0,0,1,7.961-.5Zm6.558,17.36L38.034,11.35V.725A.221.221,0,0,0,37.814.5H7.961A.221.221,0,0,0,7.74.725v10.99L1.836,16.9A3.811,3.811,0,0,0,.5,19.834V39.469a3.9,3.9,0,0,0,3.894,3.894H41.852a3.9,3.9,0,0,0,3.894-3.894V19.834a3.791,3.791,0,0,0-1.339-2.94ZM8.182.945H37.588v25.7L23.458,36.1,8.182,25.881Zm28.406,1H9.182v23.4l14.276,9.548,13.13-8.783ZM22.927,4.327a11.192,11.192,0,0,1,8.066,3.291,9.238,9.238,0,0,1,2.458,4.665,1.3,1.3,0,0,1,.048.185l0,.028.023.159c0,.015,0,.03.006.044s.009.057.012.087l.118.79a3.54,3.54,0,0,1-.038,1.253,1.011,1.011,0,0,1-.03.127,3.659,3.659,0,0,1-.794,1.522,4.451,4.451,0,0,1-3.331,1.514,4.257,4.257,0,0,1-2.147-.583,5.165,5.165,0,1,1-1.994-6.638,1.221,1.221,0,0,1,2.334.5V13.75a1.933,1.933,0,0,0,.03.285c.013.053.027.111.039.174a1.8,1.8,0,0,0,1.738,1.343,2.022,2.022,0,0,0,1.473-.662,1.351,1.351,0,0,0,.261-.449,7.69,7.69,0,0,0-.082-1.3l-.014-.091a6.867,6.867,0,0,0-1.877-3.729,8.737,8.737,0,0,0-6.305-2.544,8.412,8.412,0,1,0,6.508,13.744,1.2,1.2,0,0,1,.941-.447,1.239,1.239,0,0,1,.775.274,1.217,1.217,0,0,1,.172,1.723,10.818,10.818,0,0,1-8.4,3.975h-.092a10.861,10.861,0,0,1,.092-21.721Zm9.582,8.291-.019-.043-.011-.055a8.257,8.257,0,0,0-2.205-4.208,10.189,10.189,0,0,0-7.347-2.985,9.861,9.861,0,0,0,0,19.721h.049a9.822,9.822,0,0,0,7.575-3.61.223.223,0,0,0,.051-.165.212.212,0,0,0-.078-.144.233.233,0,0,0-.148-.053.209.209,0,0,0-.165.077A9.413,9.413,0,1,1,22.927,5.779a9.74,9.74,0,0,1,7.025,2.85A7.85,7.85,0,0,1,32.1,12.894l.015.1a8.7,8.7,0,0,1,.091,1.544l0,.06-.016.058a2.314,2.314,0,0,1-.482.887,3.022,3.022,0,0,1-2.232,1.011,2.8,2.8,0,0,1-2.711-2.112l-.009-.042c-.007-.041-.019-.09-.032-.141l-.009-.043a2.9,2.9,0,0,1-.046-.464V11.272a.221.221,0,0,0-.221-.221.224.224,0,0,0-.221.221v1.495l-.828-.717a4.156,4.156,0,1,0,1.223,4.435l.228-.694.564.464a3.251,3.251,0,0,0,2.059.737,3.438,3.438,0,0,0,2.574-1.168,2.667,2.667,0,0,0,.583-1.122l.011-.038,0-.011,0-.022a2.545,2.545,0,0,0,.03-.908l-.123-.826c0-.015,0-.029-.006-.044s-.009-.058-.012-.088l-.017-.112C32.514,12.64,32.511,12.626,32.509,12.618Zm-9.842-1.145a3.706,3.706,0,0,1,3.592,2.788l.009.042a2.113,2.113,0,0,0,.049.218l.007.025,0,.025a3.579,3.579,0,0,1,.057.615,3.717,3.717,0,1,1-3.717-3.712Zm2.618,3.017a2.689,2.689,0,1,0,.1.694,2.559,2.559,0,0,0-.039-.421C25.321,14.672,25.3,14.581,25.285,14.49Zm12.75-2.554,6.082,5.294a3.368,3.368,0,0,1,1.187,2.6v1.653l-7.27,4.862Zm6.27,9.017V19.834a2.363,2.363,0,0,0-.845-1.85l-4.425-3.852V24.477ZM7.74,12.31V25.584L.946,21.037V19.829a3.345,3.345,0,0,1,.935-2.357l-.006-.015Zm-1,11.4V14.518l-3.692,3.24h0l-.258.226a2.36,2.36,0,0,0-.845,1.845V20.5ZM.946,21.575l22.39,14.977a.235.235,0,0,0,.245,0L45.3,22.02V39.464a3.454,3.454,0,0,1-3.447,3.452H4.393A3.451,3.451,0,0,1,.946,39.469ZM23.458,37.587a1.217,1.217,0,0,1-.678-.2L1.946,23.447V39.469a2.45,2.45,0,0,0,2.447,2.447H41.852A2.453,2.453,0,0,0,44.3,39.464V23.893L24.136,37.382A1.218,1.218,0,0,1,23.458,37.587Z" transform="translate(0 -0.004)"/></g></g></g></svg>