<?xml version="1.0" encoding="utf-8"?>
<!-- Generator: Adobe Illustrator 27.2.0, SVG Export Plug-In . SVG Version: 6.00 Build 0)  -->
<svg version="1.1" id="Layer_1" xmlns="http://www.w3.org/2000/svg" xmlns:xlink="http://www.w3.org/1999/xlink" x="0px" y="0px"
	 viewBox="0 0 19.7 19.7" style="enable-background:new 0 0 19.7 19.7;" xml:space="preserve">
<g>
	<path d="M9.9,0C4.4,0,0,4.4,0,9.9c0,5.4,4.4,9.9,9.9,9.9c5.4,0,9.8-4.4,9.9-9.9C19.7,4.4,15.3,0,9.9,0z M9.9,19.2
		c-5.1,0-9.3-4.2-9.3-9.3c0-5.1,4.2-9.3,9.3-9.3v0c5.1,0,9.3,4.2,9.3,9.3C19.2,15,15,19.2,9.9,19.2z"/>
	<polygon points="12.2,6.5 8.4,10.3 9.4,11.3 13.2,7.5 14.1,8.4 14.1,5.6 11.3,5.6 	"/>
	<polygon points="13.2,13.2 6.5,13.2 6.5,6.5 9.4,6.5 9.4,5.6 5.6,5.6 5.6,14.1 14.1,14.1 14.1,10.3 13.2,10.3 	"/>
</g>
</svg>
