<?xml version="1.0" encoding="UTF-8"?><svg id="a" xmlns="http://www.w3.org/2000/svg" width="19.7" height="19.7" viewBox="0 0 19.7 19.7"><g id="b"><g id="c"><path id="d" d="m9.85,19.71C4.41,19.71,0,15.29,0,9.85,0,4.41,4.41,0,9.85,0,15.29,0,19.71,4.41,19.71,9.85c0,5.44-4.41,9.85-9.85,9.85ZM9.85.53C4.71.53.53,4.7.53,9.85s4.17,9.32,9.32,9.32,9.32-4.17,9.32-9.32h0c0-5.14-4.18-9.31-9.32-9.32h0Z"/></g><path d="m9.79,6.73c.19-.17.26-.43.17-.67-.06-.14-.13-.28-.2-.41l-.08-.14c-.08-.13-.17-.26-.26-.39-.15-.2-.42-.27-.66-.19l-.75.25c-.29-.23-.61-.43-.96-.56l-.16-.77c-.05-.25-.24-.45-.49-.47-.18-.02-.36-.03-.55-.03s-.37.01-.54.03c-.25.03-.44.23-.49.47l-.16.78c-.35.13-.68.32-.96.56l-.75-.25c-.24-.08-.51-.01-.66.19-.09.13-.18.26-.26.39l-.08.14c-.07.13-.14.27-.2.42-.1.23-.02.5.17.67l.59.53c-.03.18-.05.37-.05.55s.02.38.05.56l-.59.53c-.19.17-.26.43-.17.67.06.14.13.28.2.42l.08.14c.08.14.17.26.26.39.15.2.42.27.66.19l.75-.25c.29.23.61.43.96.56l.16.78c.05.25.24.45.49.47.18.02.36.03.54.03s.37-.01.54-.03c.25-.03.44-.23.49-.47l.16-.78c.35-.13.68-.32.96-.56l.75.25c.24.08.51.01.66-.19.09-.13.18-.25.26-.39l.08-.14c.07-.13.14-.27.2-.41.1-.23.02-.5-.17-.67l-.59-.53c.03-.18.05-.37.05-.56s-.02-.38-.05-.56l.59-.53h0Zm-2.68,1.09c0,.71-.57,1.28-1.28,1.28s-1.28-.57-1.28-1.28.57-1.28,1.28-1.28,1.28.57,1.28,1.28Zm7.91,8.65c.17.19.43.26.67.17.14-.06.28-.13.41-.2l.14-.08c.13-.08.26-.17.39-.26.2-.15.27-.42.19-.66l-.25-.75c.23-.29.43-.61.56-.96l.78-.16c.25-.05.45-.24.47-.49.02-.18.03-.36.03-.54s-.01-.37-.03-.54c-.03-.25-.23-.44-.47-.49l-.78-.17c-.13-.35-.32-.68-.56-.96l.25-.75c.08-.24.01-.51-.19-.66-.13-.09-.26-.18-.39-.26l-.14-.08c-.13-.07-.27-.14-.42-.2-.23-.1-.5-.02-.67.17l-.53.59c-.18-.03-.37-.05-.56-.05s-.38.02-.56.05l-.53-.59c-.17-.19-.43-.26-.67-.17-.14.06-.28.13-.42.2l-.14.08c-.14.08-.26.17-.39.26-.2.15-.27.42-.19.66l.25.75c-.23.29-.43.61-.56.96l-.78.16c-.25.05-.45.24-.47.49-.02.18-.03.36-.03.54s.01.37.03.54c.03.25.23.44.47.49l.78.16c.13.35.32.68.56.96l-.25.75c-.08.24-.01.51.19.66.13.09.25.18.39.26l.14.08c.13.07.27.14.41.2.23.1.5.02.67-.17l.53-.59c.18.03.37.05.56.05s.38-.02.56-.05l.53.59h0Zm-1.08-2.67c-.71,0-1.28-.57-1.28-1.28s.57-1.28,1.28-1.28,1.28.57,1.28,1.28-.57,1.28-1.28,1.28Z"/></g></svg>