<svg xmlns="http://www.w3.org/2000/svg" width="8.646" height="8.64" viewBox="0 0 8.646 8.64">
  <g id="Group_2389" data-name="Group 2389" transform="translate(-421.63 -257.577)">
    <path id="Path_1616" data-name="Path 1616" d="M430.276,261.9a4.323,4.323,0,1,1-1.267-3.057A4.152,4.152,0,0,1,430.276,261.9Zm-.707,0a3.614,3.614,0,1,0-1.059,2.558A3.487,3.487,0,0,0,429.569,261.9Zm-2.729-2.227a.77.77,0,0,1-.261.586.933.933,0,0,1-1.255,0,.793.793,0,0,1,0-1.171.928.928,0,0,1,1.255,0A.77.77,0,0,1,426.84,259.672Zm-.164,5.459h-1.451v-4.118h1.451Z" fill="#000000"/>
  </g>
</svg>
