<svg xmlns="http://www.w3.org/2000/svg" width="19.705" height="19.705" viewBox="0 0 19.705 19.705">
  <g id="Group_2964" data-name="Group 2964" transform="translate(-13.426 -12.793)">
    <g id="Group_2961" data-name="Group 2961" transform="translate(13.426 12.793)">
      <path id="Path_1752" data-name="Path 1752" d="M22.853,32.705a9.853,9.853,0,1,1,9.853-9.853A9.864,9.864,0,0,1,22.853,32.705Zm0-19.173a9.32,9.32,0,1,0,9.32,9.32A9.33,9.33,0,0,0,22.853,13.533Z" transform="translate(-13 -13)"/>
    </g>
    <path id="Path_1754" data-name="Path 1754" d="M13.748,7.633a3.517,3.517,0,0,0-3.692,3.811c0,1.829,2.524,5.248,3.03,5.915l.661.87.661-.871c.506-.666,3.03-4.086,3.03-5.914A3.516,3.516,0,0,0,13.748,7.633Zm0,5.646a1.813,1.813,0,1,1,1.813-1.812A1.814,1.814,0,0,1,13.745,13.279Z" transform="translate(9.37 10.16)"/>
  </g>
</svg>
