<?xml version="1.0" encoding="utf-8"?>
<!-- Generator: Adobe Illustrator 27.2.0, SVG Export Plug-In . SVG Version: 6.00 Build 0)  -->
<svg version="1.1" id="Layer_1" xmlns="http://www.w3.org/2000/svg" xmlns:xlink="http://www.w3.org/1999/xlink" x="0px" y="0px"
	 viewBox="0 0 19.7 19.7" style="enable-background:new 0 0 19.7 19.7;" xml:space="preserve">
<path id="Path_1752_00000088091624105613003290000005184394535193807035_" d="M9.9,19.7C4.4,19.7,0,15.3,0,9.9C0,4.4,4.4,0,9.9,0
	c5.4,0,9.9,4.4,9.9,9.9C19.7,15.3,15.3,19.7,9.9,19.7z M9.9,0.5c-5.1,0-9.3,4.2-9.3,9.3s4.2,9.3,9.3,9.3s9.3-4.2,9.3-9.3l0,0
	C19.2,4.7,15,0.5,9.9,0.5L9.9,0.5z"/>
<g id="Group_4373" transform="translate(4.026 5.591)">
	<g>
		<g id="Group_4372" transform="translate(0 0)">
			<path id="Path_2133" d="M1,0C0.5,0,0,0.4,0,1v6.7c0,0.6,0.5,1,1,1h3.1l0,0.4c0,0.2,0.2,0.3,0.3,0.3c0.1,0,0.1,0,0.2,0l1-0.6
				l0.6,1C6.3,10,6.5,10,6.7,10l1-0.6c0.2-0.1,0.2-0.3,0.1-0.5L7.7,8.8h2.9c0.6,0,1-0.5,1-1V1c0-0.6-0.5-1-1-1H1z M1,0.7h9.6
				C10.8,0.7,11,0.8,11,1c0,0,0,0,0,0v1H0.7V1C0.7,0.8,0.8,0.7,1,0.7C1,0.7,1,0.7,1,0.7z M1.4,1L1.4,1C1.2,1,1.1,1.1,1.1,1.3
				s0.2,0.4,0.4,0.4s0.4-0.2,0.4-0.4c0-0.1,0-0.2-0.1-0.3C1.6,1,1.5,1,1.4,1L1.4,1z M2.4,1L2.4,1C2.2,1,2.1,1.1,2.1,1.4
				s0.2,0.4,0.4,0.4c0.2,0,0.4-0.2,0.4-0.4c0-0.1,0-0.2-0.1-0.3C2.6,1,2.5,1,2.4,1L2.4,1z M3.5,1L3.5,1C3.3,1,3.1,1.1,3.1,1.4
				s0.2,0.4,0.4,0.4c0.2,0,0.4-0.2,0.4-0.4c0-0.1,0-0.2-0.1-0.3C3.6,1,3.6,1,3.5,1L3.5,1z M0.7,2.7H11v5c0,0.2-0.1,0.3-0.3,0.3
				c0,0,0,0,0,0H7.3L7.2,7.9l1.2-0.7C8.6,7.2,8.7,7,8.6,6.8c0-0.1-0.1-0.1-0.1-0.1L4.6,4.4c-0.2-0.1-0.4,0-0.5,0.1
				c0,0.1,0,0.1,0,0.2l0,3.4H1c-0.2,0-0.3-0.1-0.3-0.3c0,0,0,0,0,0L0.7,2.7z"/>
		</g>
	</g>
</g>
</svg>
