<?xml version="1.0" encoding="UTF-8"?><svg id="a" xmlns="http://www.w3.org/2000/svg" width="47" height="55.36" xmlns:xlink="http://www.w3.org/1999/xlink" viewBox="0 0 47 55.36"><defs><clipPath id="b"><rect width="47" height="55.36" fill="none"/></clipPath></defs><g clip-path="url(#b)"><g id="c"><path id="d" d="m8.16,16.63h1.37v-2.19c.16.02.31.03.47.03.72.05,1.43-.18,1.99-.64.38-.39.58-.91.56-1.45.01-.55-.23-1.07-.65-1.42-.55-.37-1.21-.54-1.87-.49-.63,0-1.25.03-1.87.13v6.04Zm1.37-5.07c.19-.04.38-.06.57-.05.69,0,1.08.34,1.08.9,0,.63-.46,1-1.19,1-.16,0-.31,0-.46-.04v-1.81Z"/><path id="e" d="m17.84,15.9c.7-.63,1.07-1.54,1.02-2.48.06-.89-.33-1.76-1.04-2.31-.74-.49-1.62-.73-2.51-.65-.63,0-1.25.04-1.87.13h0v6.02c.52.06,1.05.1,1.57.09,1.01.07,2-.21,2.83-.79m-3.01-.32v-4.01c.21-.04.42-.06.63-.06.97-.1,1.83.6,1.93,1.57.01.13.01.25,0,.38.14,1.04-.59,2-1.63,2.14-.15.02-.3.02-.44,0-.16,0-.32,0-.48-.03Z"/><path id="f" d="m21.16,14.17h2.2v-1.13h-2.2v-1.4h2.35v-1.14h-3.74v6.13h1.39v-2.46Z"/><path id="g" d="m34.76,38.24c-1.42-.02-2.85.08-4.25.3-1.36-1.37-2.54-2.92-3.49-4.6.6-1.74.96-3.55,1.08-5.38-.05-2.08-.55-3.27-2.14-3.26s-1.83,1.41-1.62,3.49c.21,1.39.59,2.76,1.15,4.05,0,0-.74,2.29-1.71,4.57s-1.64,3.48-1.64,3.48c-1.69.55-3.29,1.37-4.72,2.43-1.43,1.33-2.01,2.35-1.26,3.37.65.88,2.92,1.08,4.94-1.58,1.08-1.37,2.06-2.81,2.94-4.32,0,0,3.09-.85,4.05-1.08s2.12-.42,2.12-.42c0,0,2.82,2.84,5.55,2.74s2.59-1.63,2.57-1.79-.17-2.09-3.59-2.01m-17.89,8c-1.69-1.01,3.55-4.13,4.5-4.24,0,0-2.73,5.3-4.5,4.24m8.06-18.22c0-1.64.53-2.09.95-2.09s.88.2.9,1.63c-.14,1.44-.44,2.85-.9,4.22-.63-1.15-.96-2.44-.95-3.75m2.19,11.26c-.88.19-1.73.48-2.55.85l.7-1.56c.7-1.56,1.41-3.69,1.41-3.69.83,1.39,1.79,2.7,2.87,3.9-.82.12-1.63.29-2.43.5m4.09-.14s5.52-1,5.52.88-3.42,1.12-5.52-.88"/><path id="h" d="m46.62,8.11l-7.54-7.51c-.24-.38-.65-.61-1.1-.61h-.01c-.11,0-.23.02-.34.05H6.49c-.72,0-1.3.58-1.3,1.3v4.02H1.3c-.72,0-1.3.58-1.3,1.3v13.76c0,.72.58,1.3,1.3,1.3h3.9v32.33c0,.72.58,1.3,1.3,1.3h39.2c.72,0,1.3-.58,1.3-1.3V9.03c0-.35-.14-.68-.38-.92m-4.06-.38h-3.22l-.03-3.24,3.25,3.24Zm-39.96.23h26.35v11.17H2.6V7.97Zm5.19,44.79v-31.03h22.46c.72,0,1.3-.58,1.3-1.3V6.67c0-.72-.58-1.3-1.3-1.3H7.79v-2.72h28.9l.06,6.41c0,.71.59,1.29,1.3,1.29h6.35v42.42H7.79Z"/></g></g></svg>