<?xml version="1.0" encoding="utf-8"?>
<!-- Generator: Adobe Illustrator 27.2.0, SVG Export Plug-In . SVG Version: 6.00 Build 0)  -->
<svg version="1.1" id="Layer_1" xmlns="http://www.w3.org/2000/svg" xmlns:xlink="http://www.w3.org/1999/xlink" x="0px" y="0px"
	 viewBox="0 0 19.7 19.7" style="enable-background:new 0 0 19.7 19.7;" xml:space="preserve">
<g>
	<path d="M9.9,0C4.4,0,0,4.4,0,9.9c0,5.4,4.4,9.9,9.9,9.9c5.4,0,9.8-4.4,9.9-9.9C19.7,4.4,15.3,0,9.9,0z M9.9,19.2
		c-5.1,0-9.3-4.2-9.3-9.3c0-5.1,4.2-9.3,9.3-9.3v0c5.1,0,9.3,4.2,9.3,9.3C19.2,15,15,19.2,9.9,19.2z"/>
	<path d="M14.5,7.3H5.2C5,7.3,4.8,7.5,4.8,7.7v7.3c0,0.2,0.2,0.4,0.4,0.4h9.3c0.2,0,0.4-0.2,0.4-0.4V7.7C14.9,7.5,14.7,7.3,14.5,7.3
		z M12.5,9c0.4,0,0.7,0.3,0.7,0.7c0,0.4-0.3,0.7-0.7,0.7s-0.7-0.3-0.7-0.7S12.1,9,12.5,9z M14.1,14.7H5.6v-0.8l2.6-3
		c0.2-0.2,0.5-0.2,0.8,0c0,0,0,0,0,0l1.8,2.1l0.8-0.9c0.2-0.2,0.5-0.2,0.7,0c0,0,0,0,0,0l1.7,1.9V14.7z"/>
	<path d="M6.1,6.6C6.1,6.6,6.1,6.6,6.1,6.6h7.4c0.2,0,0.4-0.2,0.4-0.4c0-0.2-0.2-0.4-0.4-0.4H6.1C5.9,5.8,5.7,6,5.7,6.2
		C5.7,6.4,5.9,6.6,6.1,6.6z"/>
	<path d="M7.1,5h5.6C12.9,5,13,4.9,13,4.6c0-0.2-0.2-0.4-0.4-0.4H7.1c-0.2,0-0.4,0.2-0.4,0.4C6.7,4.9,6.8,5,7.1,5z"/>
</g>
</svg>
