<svg xmlns="http://www.w3.org/2000/svg" width="19.705" height="19.705" viewBox="0 0 19.705 19.705">
  <g id="Group_2963" data-name="Group 2963" transform="translate(-13 -13)">
    <g id="Group_2961" data-name="Group 2961" transform="translate(13 13)">
      <path id="Path_1752" data-name="Path 1752" d="M22.853,32.705a9.853,9.853,0,1,1,9.853-9.853A9.864,9.864,0,0,1,22.853,32.705Zm0-19.173a9.32,9.32,0,1,0,9.32,9.32A9.33,9.33,0,0,0,22.853,13.533Z" transform="translate(-13 -13)"/>
    </g>
    <g id="Group_2962" data-name="Group 2962" transform="translate(20.19 18.845)">
      <path id="Path_1753" data-name="Path 1753" d="M40.266,42.952a.24.24,0,0,1-.133-.027.28.28,0,0,1-.133-.24V35.23a.28.28,0,0,1,.133-.24.242.242,0,0,1,.266,0l6.391,3.728a.282.282,0,0,1,0,.479C40.346,42.952,40.32,42.952,40.266,42.952Z" transform="translate(-40 -34.95)"/>
    </g>
  </g>
</svg>
