<svg xmlns="http://www.w3.org/2000/svg" width="56.92" height="49.805" viewBox="0 0 56.92 49.805">
  <g id="noun-price-5514023" transform="translate(-59.406 -67.856)">
    <path id="image-regular" d="M49.805,37.336a1.784,1.784,0,0,1,1.779,1.779V74.668l-.556-.723L35.909,54.379a2.675,2.675,0,0,0-4.225,0l-9.227,11.94-3.391-4.747a2.662,2.662,0,0,0-4.336.011L5.837,74.034l-.5.689V39.115a1.784,1.784,0,0,1,1.779-1.779ZM7.115,32A7.122,7.122,0,0,0,0,39.115V74.69a7.122,7.122,0,0,0,7.115,7.115h42.69A7.122,7.122,0,0,0,56.92,74.69V39.115A7.122,7.122,0,0,0,49.805,32Zm8.894,21.345a5.336,5.336,0,1,0-5.336-5.336A5.336,5.336,0,0,0,16.009,53.345Z" transform="translate(59.406 35.856)"/>
  </g>
</svg>
