<svg xmlns="http://www.w3.org/2000/svg" width="85.616" height="101.934" viewBox="0 0 85.616 101.934"><path d="M62.18,606.631S46.668,595.31,19.373,595.31s-42.807,11.321-42.807,11.321v46.407c0,28.521,42.807,44.205,42.807,44.205s42.809-15.688,42.809-44.206C62.182,613.992,62.18,606.631,62.18,606.631Zm-13.851,60.13a52.417,52.417,0,0,1-12.379,11.6,93.946,93.946,0,0,1-16.573,9.123A94.438,94.438,0,0,1,2.6,678.221,52.048,52.048,0,0,1-9.651,666.663c-3.338-4.59-5.025-9.318-5.025-14.063V612.493a55.777,55.777,0,0,1,7.044-3.218,79.636,79.636,0,0,1,54.013,0,55.737,55.737,0,0,1,7.041,3.218V652.6C53.425,657.383,51.711,662.144,48.329,666.762Z" transform="translate(23.434 -595.31)" fill="#2f466a"/><path d="M50.053,639.514,18.568,671,.024,652.454l7.3-7.3L18.568,656.4l24.187-24.189Z" transform="translate(17.77 -604.221)" fill="#2f466a"/></svg>