<svg xmlns="http://www.w3.org/2000/svg" width="101.934" height="101.934" viewBox="0 0 101.934 101.934"><g transform="translate(-18 -18)"><g transform="translate(18 18)"><path d="M68.967,18A50.967,50.967,0,1,1,18,68.967,50.967,50.967,0,0,1,68.967,18ZM66.231,92.554,47.658,73.742c-3-3,1.5-7.508,4.495-4.5L64.671,81.795c.615.615,1.117.4,1.117-.476V46.677a3.179,3.179,0,1,1,6.358,0V81.319c0,.876.5,1.094,1.116.476L85.781,69.238c3-3,7.492,1.5,4.495,4.5L71.824,92.531A3.91,3.91,0,0,1,66.231,92.554Zm2.736-68.183a44.6,44.6,0,1,0,44.6,44.6A44.6,44.6,0,0,0,68.967,24.371Z" transform="translate(-18 -18)" fill="#2f466a" fill-rule="evenodd"/></g></g></svg>