<svg xmlns="http://www.w3.org/2000/svg" width="108.567" height="103.934" viewBox="0 0 108.567 103.934"><g transform="translate(0.5)"><g transform="translate(28.3 51.967)"><path d="M31.983,62.967A25.483,25.483,0,1,1,57.467,37.483,25.514,25.514,0,0,1,31.983,62.967Zm0-46.334a20.85,20.85,0,1,0,20.85,20.85A20.876,20.876,0,0,0,31.983,16.633Z" transform="translate(-6.5 -12)" fill="#2f466a"/><path d="M31.983,63.967A26.483,26.483,0,1,1,58.467,37.483,26.513,26.513,0,0,1,31.983,63.967Zm0-50.967A24.483,24.483,0,1,0,56.467,37.483,24.511,24.511,0,0,0,31.983,13Zm0,46.334a21.85,21.85,0,1,1,21.85-21.85A21.875,21.875,0,0,1,31.983,59.334Zm0-41.7a19.85,19.85,0,1,0,19.85,19.85A19.873,19.873,0,0,0,31.983,17.633Z" transform="translate(-6.5 -12)" fill="#2f466a"/><path d="M13.785,29.944c-1.261,0-2.285-.714-2.285-1.594V15.594c0-.88,1.024-1.594,2.285-1.594s2.285.714,2.285,1.594V28.35C16.07,29.23,15.046,29.944,13.785,29.944Z" transform="translate(11.667 -0.779)" fill="#2f466a"/><path d="M13.785,30.944c-1.842,0-3.285-1.14-3.285-2.594V15.594C10.5,14.14,11.943,13,13.785,13s3.285,1.14,3.285,2.594V28.35C17.07,29.8,15.627,30.944,13.785,30.944Zm0-15.944c-.785,0-1.285.39-1.285.594V28.35c0,.2.5.594,1.285.594s1.285-.39,1.285-.594V15.594C15.07,15.39,14.569,15,13.785,15Z" transform="translate(11.667 -0.779)" fill="#2f466a"/><path d="M13.785,24.624a2.286,2.286,0,0,1-1.6-.649,2.363,2.363,0,0,1-.681-1.668,2.285,2.285,0,1,1,3.925,1.622A2.285,2.285,0,0,1,13.785,24.624Z" transform="translate(11.667 13.808)" fill="#2f466a"/><path d="M13.785,25.624a3.28,3.28,0,0,1-2.312-.943l0,0a3.379,3.379,0,0,1-.041-4.694l.017-.017A3.4,3.4,0,0,1,13.813,19a3.217,3.217,0,0,1,2.283.935,3.367,3.367,0,0,1,.042,4.694A3.269,3.269,0,0,1,13.785,25.624Zm-.894-2.353a1.3,1.3,0,0,0,1.819-.041l.007-.008a1.315,1.315,0,0,0,.352-.916,1.353,1.353,0,0,0-.394-.962A1.209,1.209,0,0,0,13.813,21a1.406,1.406,0,0,0-.97.394,1.332,1.332,0,0,0-.344.911A1.366,1.366,0,0,0,12.891,23.271Z" transform="translate(11.667 13.808)" fill="#2f466a"/></g><g transform="translate(0.5 1)"><path d="M95.484,75.134H86.217a2.317,2.317,0,1,1,0-4.633h9.267a6.959,6.959,0,0,0,6.95-6.95V12.583a6.959,6.959,0,0,0-6.95-6.95h-83.4a6.959,6.959,0,0,0-6.95,6.95V63.55a6.959,6.959,0,0,0,6.95,6.95H21.35a2.317,2.317,0,1,1,0,4.633H12.083A11.6,11.6,0,0,1,.5,63.55V12.583A11.6,11.6,0,0,1,12.083,1h83.4a11.6,11.6,0,0,1,11.583,11.583V63.55A11.6,11.6,0,0,1,95.484,75.134Z" transform="translate(-0.5 -1)" fill="#2f466a"/><path d="M95.484,76.134H86.217a3.317,3.317,0,1,1,0-6.633h9.267a5.957,5.957,0,0,0,5.95-5.95V12.583a5.957,5.957,0,0,0-5.95-5.95h-83.4a5.957,5.957,0,0,0-5.95,5.95V63.55a5.957,5.957,0,0,0,5.95,5.95H21.35a3.317,3.317,0,1,1,0,6.633H12.083A12.6,12.6,0,0,1-.5,63.55V12.583A12.6,12.6,0,0,1,12.083,0h83.4a12.6,12.6,0,0,1,12.583,12.583V63.55A12.6,12.6,0,0,1,95.484,76.134ZM86.217,71.5a1.317,1.317,0,1,0,0,2.633h9.267A10.6,10.6,0,0,0,106.067,63.55V12.583A10.6,10.6,0,0,0,95.484,2h-83.4A10.6,10.6,0,0,0,1.5,12.583V63.55A10.6,10.6,0,0,0,12.083,74.134H21.35a1.317,1.317,0,1,0,0-2.633H12.083a7.959,7.959,0,0,1-7.95-7.95V12.583a7.959,7.959,0,0,1,7.95-7.95h83.4a7.959,7.959,0,0,1,7.95,7.95V63.55a7.959,7.959,0,0,1-7.95,7.95Z" transform="translate(-0.5 -1)" fill="#2f466a"/><path d="M46.517,35.48A12.034,12.034,0,0,1,39.461,33.2l-36-26A2.318,2.318,0,0,1,6.175,3.44l36,26a7.32,7.32,0,0,0,8.688,0l36-26A2.316,2.316,0,0,1,89.58,7.193l-36,26A12.063,12.063,0,0,1,46.517,35.48Z" transform="translate(6.766 6.267)" fill="#2f466a"/><path d="M46.517,36.48a12.985,12.985,0,0,1-7.642-2.473l-36-26a3.318,3.318,0,1,1,3.884-5.38l36,26a6.32,6.32,0,0,0,7.516,0l36-26A3.316,3.316,0,0,1,90.165,8l-36,26A13.016,13.016,0,0,1,46.517,36.48ZM4.814,4a1.294,1.294,0,0,0-1.062.543,1.319,1.319,0,0,0,.293,1.844l36,26a11.039,11.039,0,0,0,12.948-.005l36-26A1.316,1.316,0,0,0,88.225,4a1.325,1.325,0,0,0-.777.252l-36,26a8.319,8.319,0,0,1-9.859,0l-36-26A1.323,1.323,0,0,0,4.814,4Z" transform="translate(6.766 6.267)" fill="#2f466a"/><path d="M4.818,36.8a2.314,2.314,0,0,1-1.64-3.952L26.344,9.678a2.316,2.316,0,0,1,3.276,3.276L6.453,36.121A2.308,2.308,0,0,1,4.818,36.8Z" transform="translate(6.766 28.07)" fill="#2f466a"/><path d="M4.818,37.8a3.312,3.312,0,0,1-2.344-.966l0,0a3.32,3.32,0,0,1,0-4.69L25.637,8.971a3.316,3.316,0,1,1,4.69,4.69L7.16,36.828A3.291,3.291,0,0,1,4.818,37.8Zm-.935-2.385a1.324,1.324,0,0,0,.935.385,1.3,1.3,0,0,0,.928-.384L28.913,12.247a1.316,1.316,0,0,0-1.862-1.862L3.884,33.552A1.318,1.318,0,0,0,3.883,35.412Z" transform="translate(6.766 28.07)" fill="#2f466a"/><path d="M40.984,36.8a2.327,2.327,0,0,1-1.64-.676L16.177,12.954a2.316,2.316,0,0,1,3.276-3.276L42.62,32.845A2.314,2.314,0,0,1,40.984,36.8Z" transform="translate(54 28.07)" fill="#2f466a"/><path d="M40.984,37.8a3.312,3.312,0,0,1-2.344-.966l0,0L15.47,13.661a3.316,3.316,0,0,1,4.69-4.69L43.327,32.138A3.314,3.314,0,0,1,40.984,37.8Zm-.934-2.385a1.324,1.324,0,0,0,.934.385,1.3,1.3,0,0,0,.928-.384,1.318,1.318,0,0,0,0-1.862L18.746,10.385a1.316,1.316,0,1,0-1.862,1.862Z" transform="translate(54 28.07)" fill="#2f466a"/></g></g></svg>