<svg xmlns="http://www.w3.org/2000/svg" xmlns:xlink="http://www.w3.org/1999/xlink" width="51.716" height="75.376" viewBox="0 0 51.716 75.376"><defs><clipPath id="a"><rect width="51.716" height="75.376" transform="translate(0 0)" fill="#4498d8"/></clipPath></defs><g transform="translate(0 -0.001)"><g transform="translate(0 0.001)" clip-path="url(#a)"><path d="M49.022,21.158a23.549,23.549,0,0,0-.748-2.844,5.446,5.446,0,0,0-4.694-8.123A21.32,21.32,0,0,0,41.5,8.124,5.439,5.439,0,0,0,33.389,3.43a22.92,22.92,0,0,0-2.857-.776,5.453,5.453,0,0,0-9.374.027,23.535,23.535,0,0,0-2.844.748,5.446,5.446,0,0,0-8.123,4.694,22.994,22.994,0,0,0-2.068,2.082,5.439,5.439,0,0,0-4.694,8.109,22.907,22.907,0,0,0-.776,2.857,5.453,5.453,0,0,0,.027,9.374,23.536,23.536,0,0,0,.748,2.844,5.446,5.446,0,0,0,4.694,8.123A21.326,21.326,0,0,0,10.2,43.581a5.373,5.373,0,0,0,2.721,4.667,5.675,5.675,0,0,0,.98.435l-8.776,20.5A1.345,1.345,0,0,0,5.347,70.6a1.383,1.383,0,0,0,1.361.449l5.619-1.361L15.211,74.7a1.365,1.365,0,0,0,1.184.68h.082a1.366,1.366,0,0,0,1.17-.816L24.871,57.7a1.356,1.356,0,1,0-2.49-1.075L16.218,70.983l-2.027-3.538a1.353,1.353,0,0,0-1.5-.64l-3.973.966,8.1-18.912a5.085,5.085,0,0,0,1.51-.571,22.468,22.468,0,0,0,2.871.776A5.3,5.3,0,0,0,24.15,51.4l9.933,23.144a1.342,1.342,0,0,0,1.17.816h.082a1.365,1.365,0,0,0,1.184-.68L39.4,69.677l5.619,1.361a1.364,1.364,0,0,0,1.361-.449,1.345,1.345,0,0,0,.218-1.415l-8.776-20.5a4.487,4.487,0,0,0,.98-.435,5.447,5.447,0,0,0,2.721-4.667,22.984,22.984,0,0,0,2.068-2.082,5.439,5.439,0,0,0,4.694-8.109,22.894,22.894,0,0,0,.776-2.857,5.453,5.453,0,0,0-.027-9.375ZM39.036,66.793a1.372,1.372,0,0,0-1.5.639L35.512,70.97,27.185,51.554H27.2a5.452,5.452,0,0,0,3.361-2.517,24.711,24.711,0,0,0,2.871-.762,5.143,5.143,0,0,0,1.483.544v.027l8.1,18.912ZM47.322,28.37a1.358,1.358,0,0,0-.816,1.034A20.409,20.409,0,0,1,45.5,33.118a1.406,1.406,0,0,0,.19,1.306,2.718,2.718,0,0,1-2.531,4.354,1.357,1.357,0,0,0-1.225.476,19.58,19.58,0,0,1-2.708,2.708,1.357,1.357,0,0,0-.476,1.225,2.721,2.721,0,0,1-1.333,2.721,2.757,2.757,0,0,1-1.51.354,2.655,2.655,0,0,1-1.483-.571,1.315,1.315,0,0,0-1.048-.245,1.154,1.154,0,0,0-.231.054,20.855,20.855,0,0,1-3.728.993,1.374,1.374,0,0,0-1.034.83,2.719,2.719,0,0,1-5.021.027,1.359,1.359,0,0,0-1.02-.816,20.111,20.111,0,0,1-3.714-1.007,1.4,1.4,0,0,0-.476-.082,1.335,1.335,0,0,0-.83.286A2.718,2.718,0,0,1,12.967,43.2a1.357,1.357,0,0,0-.476-1.225,21.1,21.1,0,0,1-2.708-2.694,1.357,1.357,0,0,0-1.225-.476,2.717,2.717,0,0,1-2.517-4.354,1.4,1.4,0,0,0,.2-1.306,20.25,20.25,0,0,1-.98-3.7,1.374,1.374,0,0,0-.83-1.034,2.726,2.726,0,0,1-.014-5.034,1.358,1.358,0,0,0,.816-1.034,20.7,20.7,0,0,1,1.007-3.714,1.373,1.373,0,0,0-.2-1.306,2.721,2.721,0,0,1-.2-3.021,2.686,2.686,0,0,1,2.735-1.333A1.391,1.391,0,0,0,9.8,12.492a21.112,21.112,0,0,1,2.694-2.708,1.357,1.357,0,0,0,.476-1.225,2.717,2.717,0,0,1,4.354-2.517,1.4,1.4,0,0,0,1.306.2,20.248,20.248,0,0,1,3.7-.98,1.374,1.374,0,0,0,1.034-.83A2.726,2.726,0,0,1,28.4,4.423a1.359,1.359,0,0,0,1.02.816,20.4,20.4,0,0,1,3.714,1.007,1.406,1.406,0,0,0,1.306-.19,2.717,2.717,0,0,1,4.354,2.517A1.357,1.357,0,0,0,39.267,9.8a20.366,20.366,0,0,1,2.708,2.707,1.391,1.391,0,0,0,1.225.476,2.732,2.732,0,0,1,2.721,1.333,2.7,2.7,0,0,1-.2,3.021,1.4,1.4,0,0,0-.2,1.306,20.248,20.248,0,0,1,.98,3.7,1.374,1.374,0,0,0,.83,1.034,2.725,2.725,0,0,1,.014,5.034Z" transform="translate(0 -0.001)" fill="#4498d8"/><path d="M266,290.978l-7.211,6.014-3.2-3.2a1.357,1.357,0,0,0-1.918,1.918l4.082,4.082a1.37,1.37,0,0,0,.966.395,1.4,1.4,0,0,0,.871-.313l8.164-6.8a1.362,1.362,0,1,0-1.742-2.1Z" transform="translate(-234.895 -269.576)" fill="#4498d8"/><path d="M130.191,112.5a17.688,17.688,0,1,0,17.688,17.688A17.7,17.7,0,0,0,130.191,112.5m0,32.654a14.966,14.966,0,1,1,14.966-14.966,14.976,14.976,0,0,1-14.966,14.966" transform="translate(-104.339 -104.341)" fill="#4498d8"/></g></g></svg>