<svg xmlns="http://www.w3.org/2000/svg" xmlns:xlink="http://www.w3.org/1999/xlink" width="90.383" height="77.907" viewBox="0 0 90.383 77.907"><defs><clipPath id="a"><path d="M0,23.366H90.383V-54.541H0Z" transform="translate(0 54.541)" fill="none"/></clipPath></defs><g transform="translate(0 54.541)"><g transform="translate(0 -54.541)" clip-path="url(#a)"><g transform="translate(0 0)"><path d="M19.382,0a.942.942,0,0,0-.927.954V76.932a.941.941,0,1,0,1.881,0V.954A.942.942,0,0,0,19.382,0M6.463.007a.946.946,0,0,0-.29.044.4.4,0,0,0-.044.014H6.122L-21.15,9.808a.94.94,0,0,0-.626.887V22.2a.969.969,0,0,0,0,.363v5.458a.971.971,0,0,0,0,.406v5.438a.978.978,0,0,0,0,.407v9.648a.937.937,0,0,0,0,.479v5.461a.958.958,0,0,0,0,.286v5.565a1,1,0,0,0,0,.277v5.558a.986.986,0,0,0,0,.29v5.354a.943.943,0,0,0,.626.887L6.122,77.819a.381.381,0,0,0,.054.014l.014,0a.694.694,0,0,0,.079.013l.013,0a.658.658,0,0,0,.071.01l.029,0H15.5a.941.941,0,0,0,.941-.941V72.178h0a.941.941,0,0,0-.676-.9,17.728,17.728,0,0,1-2.447-.968,8.073,8.073,0,0,1-1.64-1.027,1.669,1.669,0,0,1-.624-.877c-.036-.311.057-.5.437-.848a10.427,10.427,0,0,1,1.724-1.136A12,12,0,0,0,15.3,65.042a3.067,3.067,0,0,0,1.138-2.407,2.872,2.872,0,0,0-1.278-2.125,10.789,10.789,0,0,0-2.015-1.06A9.527,9.527,0,0,1,11.5,58.6c-.364-.273-.446-.407-.446-.661s.081-.381.456-.656a9.9,9.9,0,0,1,1.671-.856,10.262,10.262,0,0,0,2.03-1.063,2.541,2.541,0,0,0,0-4.347,10.338,10.338,0,0,0-2.03-1.063,10,10,0,0,1-1.671-.856c-.374-.276-.456-.411-.456-.656s.081-.381.456-.657a9.79,9.79,0,0,1,1.671-.856,10.27,10.27,0,0,0,2.03-1.064,2.54,2.54,0,0,0,0-4.345,10.423,10.423,0,0,0-2.03-1.064,9.8,9.8,0,0,1-1.671-.854c-.374-.276-.456-.411-.456-.657s.081-.381.456-.656a10,10,0,0,1,1.671-.856,10.331,10.331,0,0,0,2.03-1.061,2.541,2.541,0,0,0,0-4.347,10.423,10.423,0,0,0-2.03-1.064,9.791,9.791,0,0,1-1.671-.856c-.374-.274-.456-.411-.456-.656s.081-.381.456-.656a10,10,0,0,1,1.671-.856,10.338,10.338,0,0,0,2.03-1.063A2.769,2.769,0,0,0,16.439,24.7a2.769,2.769,0,0,0-1.224-2.174,10.338,10.338,0,0,0-2.03-1.063,9.791,9.791,0,0,1-1.671-.856c-.374-.276-.456-.411-.456-.656s.083-.387.447-.661a9.3,9.3,0,0,1,1.64-.853,10.8,10.8,0,0,0,2.017-1.06,2.868,2.868,0,0,0,1.276-2.131,3.033,3.033,0,0,0-1.148-2.381,11.705,11.705,0,0,0-2.078-1.348,10.065,10.065,0,0,1-1.717-1.107c-.381-.343-.473-.526-.441-.831a1.7,1.7,0,0,1,.623-.9,8.256,8.256,0,0,1,1.643-1.063,17.911,17.911,0,0,1,2.457-1.011V6.6a.944.944,0,0,0,.664-.9V.954A.941.941,0,0,0,15.5.013H6.534a.623.623,0,0,0-.073,0ZM7.38,1.894h7.176V5.075a12.613,12.613,0,0,0-2.093.858,9.748,9.748,0,0,0-2.035,1.331A3.319,3.319,0,0,0,9.18,9.382a2.925,2.925,0,0,0,1.051,2.42,10.927,10.927,0,0,0,2.063,1.356,11.1,11.1,0,0,1,1.756,1.12c.4.353.521.571.507.877-.01.253-.116.417-.5.7a10.2,10.2,0,0,1-1.673.86,10.075,10.075,0,0,0-2.005,1.068,2.777,2.777,0,0,0-1.2,2.17A2.766,2.766,0,0,0,10.4,22.122a10.338,10.338,0,0,0,2.03,1.063,9.924,9.924,0,0,1,1.67.856c.374.276.457.411.457.656s-.083.381-.457.656a9.77,9.77,0,0,1-1.67.856,10.346,10.346,0,0,0-2.03,1.064,2.54,2.54,0,0,0,0,4.345,10.346,10.346,0,0,0,2.03,1.064,9.819,9.819,0,0,1,1.67.856c.374.276.457.411.457.656s-.083.381-.457.656a9.981,9.981,0,0,1-1.67.856,10.262,10.262,0,0,0-2.03,1.063,2.541,2.541,0,0,0,0,4.347,10.338,10.338,0,0,0,2.03,1.063,9.925,9.925,0,0,1,1.67.856c.374.276.457.411.457.656s-.083.383-.457.657a9.77,9.77,0,0,1-1.67.856,10.338,10.338,0,0,0-2.03,1.063,2.541,2.541,0,0,0,0,4.347,10.338,10.338,0,0,0,2.03,1.063,9.828,9.828,0,0,1,1.67.854c.374.276.457.413.457.657s-.083.381-.457.656a9.77,9.77,0,0,1-1.67.856,10.269,10.269,0,0,0-2.03,1.064,2.549,2.549,0,0,0-.023,4.341,9.908,9.908,0,0,0,2,1.067,10.224,10.224,0,0,1,1.671.861c.386.28.493.447.506.7.017.314-.107.543-.513.906a11.483,11.483,0,0,1-1.767,1.148,10.946,10.946,0,0,0-2.067,1.387,2.942,2.942,0,0,0-1.03,2.447A3.29,3.29,0,0,0,10.445,70.7,9.679,9.679,0,0,0,12.482,72a12.333,12.333,0,0,0,2.074.817v3.171H7.38V71.135a.94.94,0,0,0,0-.454V62.119a.927.927,0,0,0,0-.366V54.978a.924.924,0,0,0,0-.354V46.574a.932.932,0,0,0,0-.407V32a.881.881,0,0,0,0-.26V23.585a.924.924,0,0,0,0-.294V16.453a.942.942,0,0,0,0-.3V7.488a.979.979,0,0,0,0-.3ZM5.5,2.29V6.661l-25.389,8.566v-3.87Zm0,6.356v6.9l-25.389,5.661V17.214Zm-35.185,8.445a2.9,2.9,0,0,0-2.888,2.89,2.9,2.9,0,0,0,2.888,2.89,2.9,2.9,0,0,0,2.888-2.89,2.9,2.9,0,0,0-2.888-2.89M5.5,17.475v5.171l-25.389,4.46v-3.97Zm-35.185,1.5a1,1,0,0,1,1.007,1.008.992.992,0,0,1-1.007,1.006.992.992,0,0,1-1.007-1.006,1,1,0,0,1,1.007-1.008m59.472.386c-.1,0-.2,0-.3,0a16.058,16.058,0,0,0-4.251.867c-1.293.41-2.287.814-2.287.814h0a.942.942,0,1,0,.711,1.743s.927-.376,2.144-.761a15.62,15.62,0,0,1,3.72-.781,10.23,10.23,0,0,1,3.534.744,12.243,12.243,0,0,0,4.162.867,10.342,10.342,0,0,0,3.708-.874,8.631,8.631,0,0,1,3.238-.737.941.941,0,0,0,.683-1.616.933.933,0,0,0-.683-.266,10.561,10.561,0,0,0-3.9.857,8.59,8.59,0,0,1-3.063.754A10.735,10.735,0,0,1,33.66,20.2a12.373,12.373,0,0,0-3.875-.844Zm-72.255,4.22a2.416,2.416,0,0,0-2.4,2.4,2.417,2.417,0,0,0,2.4,2.4,2.417,2.417,0,0,0,2.4-2.4,2.416,2.416,0,0,0-2.4-2.4M5.5,24.559V31l-25.389,2.055V29.017Zm-47.968.9a.507.507,0,0,1,.52.52.508.508,0,0,1-.52.521.507.507,0,0,1-.52-.521.505.505,0,0,1,.52-.52m72.255,1.033c-.1,0-.2,0-.3,0a16.06,16.06,0,0,0-4.251.868c-1.293.41-2.287.813-2.287.813h0a.942.942,0,0,0,.711,1.744s.927-.379,2.144-.763a15.473,15.473,0,0,1,3.72-.78,10.2,10.2,0,0,1,3.534.746,12.243,12.243,0,0,0,4.162.868,10.311,10.311,0,0,0,3.708-.876,8.657,8.657,0,0,1,3.238-.736h0a.942.942,0,0,0,0-1.884,10.531,10.531,0,0,0-3.9.858A8.589,8.589,0,0,1,37.2,28.1a10.7,10.7,0,0,1-3.544-.768,12.534,12.534,0,0,0-3.875-.846Zm-61.343,2.03h0a.943.943,0,0,0-.927.956v1.7a.942.942,0,0,0,.943.931.942.942,0,0,0,.941-.931v-1.7a.939.939,0,0,0-.277-.68.944.944,0,0,0-.68-.276Zm-4.807,2h0a.94.94,0,0,0-.871.587.941.941,0,0,0,.216,1.028l1.2,1.2a.945.945,0,0,0,.667.279.944.944,0,0,0,.668-.276.948.948,0,0,0,.276-.668.947.947,0,0,0-.28-.667l-1.2-1.2h0a.941.941,0,0,0-.676-.286Zm9.615,0h0a.939.939,0,0,0-.648.284l-1.2,1.2h0a.939.939,0,0,0,0,1.33.942.942,0,0,0,1.33,0l1.2-1.2a.94.94,0,0,0,.211-1.041.94.94,0,0,0-.894-.574Zm-4.794,2.287a3.489,3.489,0,0,0-3.474,3.474,3.487,3.487,0,0,0,3.474,3.474A3.487,3.487,0,0,0-28.07,36.28a3.488,3.488,0,0,0-3.474-3.474M5.5,32.879v5.247H-19.888V34.935Zm24.285.741c-.1,0-.2,0-.3,0a16.082,16.082,0,0,0-4.251.867c-1.293.41-2.285.814-2.285.814h0a.941.941,0,1,0,.71,1.743s.927-.376,2.144-.761a15.481,15.481,0,0,1,3.72-.781,10.2,10.2,0,0,1,3.534.747,12.209,12.209,0,0,0,4.162.867,10.358,10.358,0,0,0,3.71-.874,8.652,8.652,0,0,1,3.237-.738.941.941,0,1,0,0-1.881,10.531,10.531,0,0,0-3.9.858,8.643,8.643,0,0,1-3.063.754,10.71,10.71,0,0,1-3.544-.77A12.494,12.494,0,0,0,29.785,33.621Zm-61.329,1.064a1.577,1.577,0,0,1,1.593,1.59,1.579,1.579,0,0,1-1.593,1.593,1.578,1.578,0,0,1-1.591-1.593,1.576,1.576,0,0,1,1.591-1.59m-6.8.65h0a.938.938,0,0,0-.671.273.946.946,0,0,0-.279.668.949.949,0,0,0,.279.668.944.944,0,0,0,.671.273h1.7a.94.94,0,0,0,.933-.941.94.94,0,0,0-.933-.941Zm11.907,0h0a.938.938,0,0,0-.671.273.94.94,0,0,0-.279.668.943.943,0,0,0,.279.668.944.944,0,0,0,.671.273h1.7a.942.942,0,0,0,.934-.941.942.942,0,0,0-.934-.941Zm-8.73,3.6h0a.954.954,0,0,0-.647.284l-1.2,1.2a.942.942,0,0,0,0,1.331.942.942,0,0,0,1.331,0l1.2-1.2h0a.94.94,0,0,0,.211-1.043A.94.94,0,0,0-35.171,38.934Zm7.226,0h0a.944.944,0,0,0-.871.587.943.943,0,0,0,.216,1.03l1.2,1.2a.942.942,0,0,0,1.331,0,.941.941,0,0,0,0-1.331l-1.2-1.2a.948.948,0,0,0-.676-.284Zm8.055,1.076H5.5v5.337L-19.89,43.291Zm-11.669.416h0a.943.943,0,0,0-.927.954v1.7a.941.941,0,0,0,.943.931.941.941,0,0,0,.941-.931v-1.7a.95.95,0,0,0-.277-.68.943.943,0,0,0-.68-.274Zm75.726.33a10.56,10.56,0,0,0-3.9.858,8.589,8.589,0,0,1-3.063.754A10.7,10.7,0,0,1,33.66,41.6a11.888,11.888,0,0,0-4.172-.844,16.072,16.072,0,0,0-4.251.868c-1.293.41-2.285.814-2.285.814h0a.942.942,0,0,0-.026,1.757.952.952,0,0,0,.736-.014s.928-.377,2.144-.763a15.538,15.538,0,0,1,3.721-.78,10.157,10.157,0,0,1,3.532.744,12.244,12.244,0,0,0,4.164.868,10.312,10.312,0,0,0,3.708-.874,8.623,8.623,0,0,1,3.237-.737h0a.941.941,0,0,0,0-1.883ZM-42.35,44.309A2.9,2.9,0,0,0-45.24,47.2a2.9,2.9,0,0,0,2.89,2.888,2.9,2.9,0,0,0,2.89-2.888,2.9,2.9,0,0,0-2.89-2.888m22.46.873L5.5,47.238v6.436l-25.389-4.46Zm-22.46,1.008A.993.993,0,0,1-41.345,47.2.991.991,0,0,1-42.35,48.2.992.992,0,0,1-43.357,47.2a.994.994,0,0,1,1.007-1.008m72.135,1.7c-.1,0-.2,0-.3,0a16.082,16.082,0,0,0-4.252.868c-1.291.41-2.285.813-2.285.813h0a.942.942,0,0,0,.711,1.744s.927-.379,2.144-.763a15.473,15.473,0,0,1,3.72-.78,10.192,10.192,0,0,1,3.532.746,12.244,12.244,0,0,0,4.164.868,10.282,10.282,0,0,0,3.708-.876,8.656,8.656,0,0,1,3.237-.736h0a.941.941,0,0,0,0-1.883,10.56,10.56,0,0,0-3.9.857A8.59,8.59,0,0,1,37.2,49.5a10.692,10.692,0,0,1-3.544-.768A12.544,12.544,0,0,0,29.785,47.891Zm-55.972.884a2.418,2.418,0,0,0-2.4,2.4,2.416,2.416,0,0,0,2.4,2.4,2.416,2.416,0,0,0,2.4-2.4,2.417,2.417,0,0,0-2.4-2.4m0,1.884a.506.506,0,0,1,.52.52.506.506,0,0,1-.52.519.506.506,0,0,1-.52-.519.506.506,0,0,1,.52-.52m6.3.467L5.5,55.585v5.171L-19.89,55.1Zm-16.157,1.438h0a.942.942,0,0,0-.663.284.936.936,0,0,0-.266.67v1.7a.94.94,0,0,0,.941.933.942.942,0,0,0,.941-.933v-1.7a.946.946,0,0,0-.276-.68A.936.936,0,0,0-36.047,52.564Zm-4.808,2h0a.942.942,0,0,0-.871.587.943.943,0,0,0,.216,1.03l1.2,1.2a.946.946,0,0,0,.666.279.943.943,0,0,0,.668-.276.94.94,0,0,0,.276-.668.945.945,0,0,0-.279-.667l-1.2-1.2h0A.934.934,0,0,0-40.855,54.561Zm9.613,0h0a.948.948,0,0,0-.646.286l-1.2,1.2h0a.949.949,0,0,0-.279.667.938.938,0,0,0,.277.666.937.937,0,0,0,.667.276.935.935,0,0,0,.666-.277l1.2-1.2h0a.942.942,0,0,0,.21-1.043.942.942,0,0,0-.9-.574Zm61.026.463c-.1,0-.2,0-.3,0a16.117,16.117,0,0,0-4.251.868c-1.293.41-2.285.814-2.285.814h0a.941.941,0,1,0,.71,1.743s.928-.377,2.144-.761a15.7,15.7,0,0,1,3.721-.781,10.222,10.222,0,0,1,3.532.744,12.21,12.21,0,0,0,4.164.867,10.283,10.283,0,0,0,3.708-.874,8.651,8.651,0,0,1,3.237-.737h0a.942.942,0,1,0,0-1.883,10.545,10.545,0,0,0-3.9.858,8.643,8.643,0,0,1-3.061.754,10.694,10.694,0,0,1-3.544-.77,12.5,12.5,0,0,0-3.875-.844ZM-36.032,56.85a3.489,3.489,0,0,0-3.474,3.475A3.489,3.489,0,0,0-36.032,63.8a3.489,3.489,0,0,0,3.474-3.474,3.488,3.488,0,0,0-3.474-3.475m16.144.173L5.5,62.685v6.9l-25.389-8.568Zm-16.144,1.708a1.578,1.578,0,0,1,1.591,1.593,1.576,1.576,0,0,1-1.591,1.591,1.578,1.578,0,0,1-1.593-1.591,1.58,1.58,0,0,1,1.593-1.593m-6.8.65h0a.943.943,0,0,0-.934.943.942.942,0,0,0,.934.941h1.7a.943.943,0,0,0,.936-.941.944.944,0,0,0-.936-.943Zm11.906,0h0a.943.943,0,0,0-.934.943.942.942,0,0,0,.934.941h1.7a.942.942,0,0,0,.934-.941.943.943,0,0,0-.934-.943Zm-1.5,3.6h0a.943.943,0,0,0-.871.587.943.943,0,0,0,.216,1.03l1.2,1.2a.943.943,0,0,0,1.328,0,.943.943,0,0,0,0-1.328l-1.2-1.2h0a.939.939,0,0,0-.676-.286Zm-7.225,0h0a.947.947,0,0,0-.647.284l-1.2,1.2a.94.94,0,0,0,0,1.328.943.943,0,0,0,1.328,0l1.2-1.2a.942.942,0,0,0,.209-1.041.941.941,0,0,0-.894-.574ZM-19.888,63,5.5,71.564v4.018l-25.389-9.068Zm-16.157,1.468h0a.938.938,0,0,0-.663.286.933.933,0,0,0-.266.669v1.7a.94.94,0,0,0,.941.933.942.942,0,0,0,.941-.933v-1.7a.946.946,0,0,0-.276-.68A.938.938,0,0,0-36.045,64.464Z" transform="translate(45.24 0)" fill="#4496d8"/></g></g></g></svg>