<svg xmlns="http://www.w3.org/2000/svg" width="69.464" height="69.463" viewBox="0 0 69.464 69.463"><g transform="translate(-111.292 -111.333)"><path d="M179.208,176.162H124.989a1.543,1.543,0,0,1-1.494-1.929,4.636,4.636,0,0,0-5.643-5.643,1.543,1.543,0,0,1-1.929-1.494V115.761l-2.231,1.487a1.544,1.544,0,0,1-1.712-2.569l4.63-3.087a1.543,1.543,0,0,1,2.4,1.284v52.48a7.726,7.726,0,0,1,7.718,7.718h49.6l-1.487-2.231a1.544,1.544,0,1,1,2.569-1.713l3.087,4.631a1.544,1.544,0,0,1-1.284,2.4Z" fill="#4496d8"/><path d="M119.058,886.95a7.712,7.712,0,1,1,7.474-5.789,7.726,7.726,0,0,1-7.474,5.789Zm0-12.348a4.635,4.635,0,1,0,4.631,4.63,4.642,4.642,0,0,0-4.631-4.63Z" transform="translate(-0.045 -706.154)" fill="#4496d8"/><path d="M199.651,660.357a1.543,1.543,0,0,1-1.544-1.544V635.66H178.042a1.544,1.544,0,1,1,0-3.087h21.609a1.544,1.544,0,0,1,1.544,1.544v24.7a1.544,1.544,0,0,1-1.544,1.543Z" transform="translate(-60.572 -484.195)" fill="#4496d8"/><path d="M213.537,478.788a1.543,1.543,0,0,1-1.544-1.544V440.2H178.036a1.544,1.544,0,0,1,0-3.087h35.5a1.544,1.544,0,0,1,1.544,1.544v38.588a1.544,1.544,0,0,1-1.544,1.544Z" transform="translate(-60.566 -302.626)" fill="#4496d8"/><path d="M227.439,297.21a1.544,1.544,0,0,1-1.544-1.544V244.73H178.046a1.544,1.544,0,0,1,0-3.087h49.393a1.544,1.544,0,0,1,1.544,1.544v52.48a1.544,1.544,0,0,1-1.544,1.544Z" transform="translate(-60.575 -121.049)" fill="#4496d8"/><path d="M182.671,117.508a1.536,1.536,0,0,1-.855-.259l-4.63-3.087a1.543,1.543,0,0,1,1.712-2.569l4.63,3.087a1.544,1.544,0,0,1-.858,2.828Z" transform="translate(-60.572 0)" fill="#4496d8"/><path d="M1003.343,987.823a1.544,1.544,0,0,1-1.283-2.4l3.087-4.63a1.543,1.543,0,1,1,2.568,1.712l-3.087,4.631A1.543,1.543,0,0,1,1003.343,987.823Z" transform="translate(-827.219 -807.027)" fill="#4496d8"/><path d="M567.43,545.7h3.087v3.087H567.43Z" transform="translate(-423.72 -403.496)" fill="#4496d8"/><path d="M371.96,741.17h3.087v3.087H371.96Z" transform="translate(-242.142 -585.074)" fill="#4496d8"/><path d="M762.89,350.24h3.087v3.087H762.89Z" transform="translate(-605.288 -221.927)" fill="#4496d8"/></g></svg>