<svg xmlns="http://www.w3.org/2000/svg" width="83.153" height="67.999" viewBox="0 0 83.153 67.999"><g transform="translate(-49.488 -33.045)"><path d="M23.011,22.608a23,23,0,1,0,22.995,23v0a23,23,0,0,0-22.995-23M9.62,37.722c11.428-2.747,14.367,2.306,26.785,0,1.169-.217,2.421-.486,3.776-.849-1.239.53-2.389.992-3.468,1.392-14.417,5.411-15.851.638-27.653.466-1,0-2.063,0-3.194.064,1.367-.46,2.619-.818,3.788-1.1m27.7,13.9c-15.037,5.8-16.321.875-28.375.717-.971,0-2.012,0-3.142.055.992-.331,1.916-.639,2.8-.843,12.629-3.4,15.152,2.44,28.931-.46.83-.173,1.7-.377,2.619-.639-1,.428-1.916.8-2.83,1.15m1.143-7.212c-16.775,6.771-17.216.894-31.058,1.163l-1.629.055c.568-.192,1.111-.358,1.642-.518,13.958-4.152,16.014,2.472,31.026-.958.551-.128,1.118-.262,1.706-.422-.582.249-1.143.479-1.686.7" transform="translate(49.475 22.9)" fill="#4498d8"/><path d="M122.015,68l-3.4-3.456a43.176,43.176,0,0,0,.552-61.058L119.09,3.4,122.539,0a48.018,48.018,0,0,1-.429,67.907l-.094.093" transform="translate(-3.748 33.045)" fill="#4498d8"/><path d="M103.972,67.279l-3.4-3.456a35.236,35.236,0,0,0,.448-49.829l-.058-.059,3.45-3.4a40.072,40.072,0,0,1-.364,56.669l-.077.076" transform="translate(4.348 28.317)" fill="#4498d8"/><path d="M86.664,66.065l-3.392-3.43a25.87,25.87,0,0,0,.316-36.586l-.035-.036L87,22.608a30.7,30.7,0,0,1-.277,43.422l-.062.061" transform="translate(12.113 22.9)" fill="#4498d8"/></g></svg>