<svg xmlns="http://www.w3.org/2000/svg" width="84.275" height="73.118" viewBox="0 0 84.275 73.118"><g transform="translate(-45.344 -36.218)"><path d="M84.275,17.812l-4.283,4.211a53.513,53.513,0,0,0-75.774-.588L0,17.159a59.519,59.519,0,0,1,84.274.653" transform="translate(45.344 36.218)" fill="#4498d8"/><path d="M0,78.39l4.283-4.21a53.513,53.513,0,0,0,75.773.588l4.218,4.276A59.52,59.52,0,0,1,0,78.39" transform="translate(45.344 13.134)" fill="#4498d8"/><path d="M50.688,19.383A23.208,23.208,0,1,0,73.9,42.591,23.208,23.208,0,0,0,50.688,19.383M37.182,34.62c11.528-2.772,14.494,2.325,27.021.026,1.183-.217,2.44-.492,3.81-.855-1.248.531-2.408.995-3.5,1.4-14.545,5.457-15.99.65-27.9.472-1.006-.014-2.079,0-3.25.06,1.378-.465,2.639-.824,3.819-1.108M65.16,48.63c-15.174,5.856-16.468.883-28.626.723-.984-.013-2.033,0-3.171.061.994-.335,1.931-.619,2.818-.858,12.741-3.423,15.291,2.467,29.189-.459.84-.176,1.714-.379,2.644-.625-1.008.428-1.949.807-2.854,1.156m1.152-7.3C49.389,48.159,48.942,42.24,35,42.512c-.528.01-1.072.026-1.641.056.572-.193,1.119-.365,1.653-.525,14.054-4.2,16.13,2.5,31.275-.989.558-.128,1.128-.267,1.723-.425-.586.25-1.152.484-1.7.705" transform="translate(36.792 30.186)" fill="#4498d8"/></g></svg>