<svg xmlns="http://www.w3.org/2000/svg" xmlns:xlink="http://www.w3.org/1999/xlink" width="48.928" height="45.692" viewBox="0 0 48.928 45.692">
  <defs>
    <clipPath id="clip-path">
      <rect id="Rectangle_1009" data-name="Rectangle 1009" width="48.928" height="45.692" fill="#e8e3de"/>
    </clipPath>
  </defs>
  <g id="Group_4995" data-name="Group 4995" clip-path="url(#clip-path)">
    <path id="Path_2225" data-name="Path 2225" d="M0,22.844q0-.087,0-.174v-.13H0a1.722,1.722,0,0,1,.049-.212l.033-.092h0a1.724,1.724,0,0,1,.1-.228l.038-.065a1.7,1.7,0,0,1,.1-.168L16.571.691A1.734,1.734,0,0,1,19.029.371l.446.342h0A1.734,1.734,0,0,1,19.8,3.148L6.2,20.843H47.178a1.734,1.734,0,0,1,1.75,1.739v.544a1.734,1.734,0,0,1-1.734,1.734H6.184L19.775,42.554h0a1.734,1.734,0,0,1-.321,2.435l-.446.342a1.734,1.734,0,0,1-2.435-.321L.356,23.93a1.7,1.7,0,0,1-.1-.168L.215,23.7a1.673,1.673,0,0,1-.1-.228l-.033-.082A1.718,1.718,0,0,1,0,23.169v-.13a1.744,1.744,0,0,1,0-.2Z" transform="translate(0 0)" fill="#e8e3de"/>
  </g>
</svg>
