<?xml version="1.0" encoding="utf-8"?>
<!-- Generator: Adobe Illustrator 27.3.1, SVG Export Plug-In . SVG Version: 6.00 Build 0)  -->
<svg version="1.1" id="Layer_1" xmlns="http://www.w3.org/2000/svg" xmlns:xlink="http://www.w3.org/1999/xlink" x="0px" y="0px"
	 viewBox="0 0 48.9 45.7" style="enable-background:new 0 0 48.9 45.7;" xml:space="preserve">
<style type="text/css">
	.st0{clip-path:url(#SVGID_00000095325184683405105700000005468484227826458507_);}
	.st1{fill:#E8E3DE;}
</style>
<g>
	<defs>
		<rect id="SVGID_1_" width="48.9" height="45.7"/>
	</defs>
	<clipPath id="SVGID_00000126315466100207540850000009820768558986803900_">
		<use xlink:href="#SVGID_1_"  style="overflow:visible;"/>
	</clipPath>
	<g id="Group_4995" style="clip-path:url(#SVGID_00000126315466100207540850000009820768558986803900_);">
		<path id="Path_2225" class="st1" d="M48.9,22.8c0,0.1,0,0.1,0,0.2v0.1l0,0c0,0.1,0,0.1,0,0.2l0,0.1l0,0c0,0.1-0.1,0.2-0.1,0.2
			l0,0.1c0,0.1-0.1,0.1-0.1,0.2L32.4,45c-0.6,0.8-1.7,0.9-2.4,0.3c0,0,0,0,0,0L29.5,45l0,0c-0.8-0.6-0.9-1.7-0.3-2.4c0,0,0,0,0,0
			l13.6-17.7h-41c-1,0-1.7-0.8-1.7-1.7c0,0,0,0,0,0v-0.5c0-1,0.8-1.7,1.7-1.7l0,0h41L29.2,3.1l0,0c-0.6-0.8-0.4-1.8,0.3-2.4
			c0,0,0,0,0,0l0.4-0.3c0.8-0.6,1.8-0.4,2.4,0.3c0,0,0,0,0,0l16.2,21.1c0,0.1,0.1,0.1,0.1,0.2l0,0.1c0,0.1,0.1,0.1,0.1,0.2l0,0.1
			c0,0.1,0.1,0.1,0.1,0.2v0.1C48.9,22.7,48.9,22.8,48.9,22.8L48.9,22.8z"/>
	</g>
</g>
</svg>
