<svg xmlns="http://www.w3.org/2000/svg" width="22.523" height="22.523" viewBox="0 0 22.523 22.523">
  <g id="noun-pencil-and-ruler-5197526" transform="translate(-4.969 0.271)">
    <path id="Path_2233" data-name="Path 2233" d="M9.6,22.1a.336.336,0,0,1-.239-.1L5.247,17.889a.335.335,0,0,1,0-.475L22.654.007a.335.335,0,0,1,.475,0l4.116,4.116a.338.338,0,0,1,.1.239.344.344,0,0,1-.1.239L9.838,22.005a.336.336,0,0,1-.239.1ZM5.961,17.653,9.6,21.291,26.528,4.362,22.89.721Z" transform="translate(0 0)" stroke="#707070" stroke-width="0.3"/>
    <path id="Path_2234" data-name="Path 2234" d="M857.688,91.9a.335.335,0,0,1-.239-.1l-1.134-1.134a.336.336,0,0,1,.475-.475l1.134,1.134a.335.335,0,0,1,0,.475A.322.322,0,0,1,857.688,91.9Z" transform="translate(-835.329 -88.52)" stroke="#707070" stroke-width="0.3"/>
    <path id="Path_2235" data-name="Path 2235" d="M714.54,236.182a.335.335,0,0,1-.239-.1L712.7,234.48a.336.336,0,0,1,.475-.475l1.606,1.605a.335.335,0,0,1,0,.475A.343.343,0,0,1,714.54,236.182Z" transform="translate(-694.365 -229.67)" stroke="#707070" stroke-width="0.3"/>
    <path id="Path_2236" data-name="Path 2236" d="M570.438,379.331a.335.335,0,0,1-.239-.1l-1.134-1.134a.336.336,0,1,1,.475-.475l1.134,1.134a.335.335,0,0,1,0,.475A.327.327,0,0,1,570.438,379.331Z" transform="translate(-553.391 -370.634)" stroke="#707070" stroke-width="0.3"/>
    <path id="Path_2237" data-name="Path 2237" d="M427.258,523.78a.336.336,0,0,1-.239-.1l-1.762-1.762a.336.336,0,0,1,.475-.475l1.762,1.761a.335.335,0,0,1-.236.572Z" transform="translate(-412.243 -511.796)" stroke="#707070" stroke-width="0.3"/>
    <path id="Path_2238" data-name="Path 2238" d="M283,666.771a.335.335,0,0,1-.239-.1l-1.134-1.134a.336.336,0,1,1,.475-.475l1.134,1.134a.335.335,0,0,1,0,.475A.322.322,0,0,1,283,666.771Z" transform="translate(-271.267 -652.758)" stroke="#707070" stroke-width="0.3"/>
    <path id="Path_2239" data-name="Path 2239" d="M139.66,810.872a.336.336,0,0,1-.239-.1l-1.605-1.605a.336.336,0,0,1,.475-.475L139.9,810.3a.335.335,0,0,1,0,.475A.322.322,0,0,1,139.66,810.872Z" transform="translate(-130.116 -793.732)" stroke="#707070" stroke-width="0.3"/>
    <path id="Path_2240" data-name="Path 2240" d="M583.85,649.474a.337.337,0,0,1-.118-.021l-5.267-2a.329.329,0,0,1-.118-.076l-3.311-3.311a.336.336,0,0,1,.475-.475l3.26,3.26,4.5,1.709-1.713-4.494L578.3,640.8a.336.336,0,0,1,.475-.475l3.311,3.311a.33.33,0,0,1,.076.118l2,5.267a.33.33,0,0,1-.315.451Z" transform="translate(-559.251 -628.478)" stroke="#707070" stroke-width="0.3"/>
    <path id="Path_2241" data-name="Path 2241" d="M21.745,90.6a.336.336,0,0,1-.239-.1l-5.7-5.7a1.613,1.613,0,0,1-.295-2.243L17.3,80.762a1.613,1.613,0,0,1,2.243.295l5.7,5.7a.336.336,0,0,1-.475.475l-5.707-5.7c-.43-.43-1.023-.565-1.29-.295l-1.793,1.789c-.27.267-.135.86.295,1.293l5.7,5.7a.335.335,0,0,1,0,.475.328.328,0,0,1-.236.1Z" transform="translate(-9.836 -79.028)" stroke="#707070" stroke-width="0.3"/>
    <path id="Path_2242" data-name="Path 2242" d="M754.176,823.012a.335.335,0,0,1-.239-.572l3.263-3.263a.336.336,0,0,1,.475.475l-3.263,3.263A.322.322,0,0,1,754.176,823.012Z" transform="translate(-734.844 -804.021)" stroke="#707070" stroke-width="0.3"/>
    <path id="Path_2243" data-name="Path 2243" d="M144.616,213.462a.335.335,0,0,1-.239-.572l3.263-3.263a.336.336,0,0,1,.475.475l-3.263,3.263A.322.322,0,0,1,144.616,213.462Z" transform="translate(-136.557 -205.743)" stroke="#707070" stroke-width="0.3"/>
    <path id="Path_2244" data-name="Path 2244" d="M236.6,302.178a.336.336,0,0,1-.239-.1l-3.849-3.849a.336.336,0,1,1,.475-.475l3.849,3.849a.335.335,0,0,1,0,.475A.322.322,0,0,1,236.6,302.178Z" transform="translate(-223.057 -292.243)" stroke="#707070" stroke-width="0.3"/>
    <path id="Path_2245" data-name="Path 2245" d="M666.748,732.33a.335.335,0,0,1-.239-.1l-3.311-3.311a.336.336,0,1,1,.475-.475l3.311,3.312a.335.335,0,0,1-.236.572Z" transform="translate(-645.782 -714.968)" stroke="#707070" stroke-width="0.3"/>
  </g>
</svg>
