<svg xmlns="http://www.w3.org/2000/svg" width="22.3" height="19.95" viewBox="0 0 22.3 19.95">
  <path id="noun-print-5506681" d="M35.3,105.909H31.728a1.882,1.882,0,0,1-1.876-1.876V97.057a1.882,1.882,0,0,1,1.876-1.876H35.3V91.214a.463.463,0,0,1,.463-.463H45.942a.463.463,0,0,1,.463.463v3.967h3.571a1.874,1.874,0,0,1,1.326.55l.028.03a1.871,1.871,0,0,1,.522,1.3v6.976a1.874,1.874,0,0,1-.55,1.326l-.03.028a1.871,1.871,0,0,1-1.3.522H46.4v4.029a.463.463,0,0,1-.463.463H35.762a.463.463,0,0,1-.463-.463v-4.029Zm.926-10.728h9.253v-3.5H36.225Zm12.249,3.8a.463.463,0,0,1,0-.926h.757a.463.463,0,0,1,0,.926Zm-2.374,0a.463.463,0,1,1,0-.926h.757a.463.463,0,0,1,0,.926Zm.3,6h3.571a.951.951,0,0,0,.652-.258l.019-.021a.947.947,0,0,0,.279-.671V97.057a.951.951,0,0,0-.258-.652l-.021-.019a.947.947,0,0,0-.672-.279H31.728a.948.948,0,0,0-.95.95v6.976a.953.953,0,0,0,.951.95H35.3v-2.652H34.139a.463.463,0,0,1,0-.926H47.567a.463.463,0,0,1,0,.926H46.406v2.652Zm-.926-2.651H36.224v7.143h9.254Z" transform="translate(-29.702 -90.601)" stroke="#262424" stroke-width="0.3"/>
</svg>
