<svg xmlns="http://www.w3.org/2000/svg" width="31.434" height="42.162" viewBox="0 0 31.434 42.162">
  <g id="Group_5274" data-name="Group 5274" transform="translate(0 0)">
    <path id="Path_2123" data-name="Path 2123" d="M261.473,8.332l1.972-2.07v5.2h0V23.834a1.748,1.748,0,1,0,3.493,0V6.268L268.9,8.332a1.688,1.688,0,0,0,2.458-.012,1.885,1.885,0,0,0,.011-2.58L266.412.531A1.679,1.679,0,0,0,265.2.006L265.183,0a1.678,1.678,0,0,0-1.218.53L259,5.74a1.9,1.9,0,0,0,.011,2.58,1.677,1.677,0,0,0,2.458.012" transform="translate(-249.475 -0.001)" fill="#e8e3de"/>
    <path id="Path_2124" data-name="Path 2124" d="M27.95,349.994H22.7v3.666h5.239v22H3.492v-22H8.731v-3.666H3.484A3.572,3.572,0,0,0,0,353.649v22.019a3.575,3.575,0,0,0,3.484,3.655H27.95a3.572,3.572,0,0,0,3.484-3.655V353.649a3.575,3.575,0,0,0-3.484-3.655" transform="translate(0 -337.162)" fill="#e8e3de"/>
  </g>
</svg>
