<svg xmlns="http://www.w3.org/2000/svg" width="63.543" height="59.532" viewBox="0 0 63.543 59.532">
  <path id="noun-brochure-1261955" d="M268.773,289.949a1.422,1.422,0,0,0-1.288,1.422v46.92a1.421,1.421,0,0,0,.866,1.289l19.7,8.442h0a1.416,1.416,0,0,0,.133.067l.066.022.067.022a1.4,1.4,0,0,0,.2.067l.066.022c.03,0,.059,0,.089,0h.044c.029,0,.059,0,.089,0h.066a1.408,1.408,0,0,0,.222-.022h.044l.067-.022h.022l.067-.022c.022-.014.045-.029.066-.045l.133-.044.044-.022,19.167-8.22,19.345,8.286a1.421,1.421,0,0,0,1.977-1.288V299.9a1.422,1.422,0,0,0-.866-1.311l-19.678-8.42a1.4,1.4,0,0,0-.177-.089l-.044-.022h0a1.321,1.321,0,0,0-.133-.044,1.419,1.419,0,0,0-.422-.067h-.022a1.374,1.374,0,0,0-.155,0c-.03.007-.06.014-.089.022a1.325,1.325,0,0,0-.155.044l-.022.022c-.037.006-.074.013-.111.022l-19.345,8.286L269.46,290.06a1.422,1.422,0,0,0-.688-.111Zm1.555,3.555,17.057,7.309v43.854l-17.057-7.309V293.5Zm36.957,0v43.854l-17.057,7.309V300.813l17.057-7.309Zm2.843,0,17.057,7.309v43.854l-17.057-7.309V293.5Z" transform="translate(-266.985 -289.248)" stroke="#948d8a" stroke-width="1"/>
</svg>
