<?xml version="1.0" encoding="UTF-8"?><svg id="a" xmlns="http://www.w3.org/2000/svg" width="14" height="18.78" viewBox="0 0 14 18.78"><g id="b"><g id="c"><path id="d" d="m5.34,3.71l.88-.92v2.32h0v5.51c-.02.43.31.8.74.82.43.02.8-.31.82-.74,0-.03,0-.05,0-.08V2.79l.88.92c.29.3.76.31,1.06.03.01-.01.02-.02.03-.03.3-.32.31-.82,0-1.15L7.54.24c-.14-.15-.34-.24-.54-.24h0c-.21,0-.4.09-.54.24l-2.21,2.32c-.3.33-.3.83,0,1.15.28.3.75.32,1.06.04.01-.01.03-.03.04-.04" fill="#fff"/><path id="e" d="m12.45,5.72h-2.34v1.63h2.33v9.8H1.56V7.35h2.33v-1.63H1.55C.67,5.74-.02,6.47,0,7.34v9.81c-.02.88.67,1.61,1.55,1.63h10.9c.88-.02,1.57-.75,1.55-1.63V7.34c.02-.88-.67-1.61-1.55-1.63" fill="#fff"/></g></g></svg>