<?xml version="1.0" encoding="utf-8"?>
<!-- Generator: Adobe Illustrator 27.5.0, SVG Export Plug-In . SVG Version: 6.00 Build 0)  -->
<svg version="1.1" id="Layer_1" xmlns="http://www.w3.org/2000/svg" xmlns:xlink="http://www.w3.org/1999/xlink" x="0px" y="0px"
	 viewBox="0 0 855 380" style="enable-background:new 0 0 855 380;" xml:space="preserve">
<style type="text/css">
	.st0{fill:#FFFFFF;}
	.st1{fill:#657571;}
	.st2{fill:#CCC8C3;}
	.st3{fill:#B7B7B7;}
	.st4{enable-background:new    ;}
	.st5{fill:#657471;}
</style>
<g id="Group_4810" transform="translate(0 22)">
	<rect id="Rectangle_1034" y="-22" class="st0" width="855" height="380"/>
</g>
<path id="Path_2630" class="st1" d="M96.7,280.1c1,0,1.9-0.2,2.7-0.7c0.7-0.4,1.3-1,1.8-1.7s0.8-1.6,1-2.4c0.2-0.9,0.3-1.9,0.3-2.8
	v-11.9h4.5v11.9c0,1.5-0.2,3-0.6,4.5c-0.4,1.3-1,2.6-1.8,3.7s-1.9,1.9-3.2,2.5c-1.5,0.7-3.1,1-4.7,0.9c-1.6,0-3.3-0.3-4.8-1
	c-1.2-0.6-2.3-1.5-3.2-2.6c-0.8-1.1-1.4-2.4-1.8-3.7c-0.4-1.4-0.5-2.9-0.5-4.4v-11.9H91v11.9c0,1,0.1,1.9,0.3,2.9
	c0.2,0.9,0.5,1.7,1,2.4C93.2,279.3,94.9,280.2,96.7,280.1L96.7,280.1z M125.5,266.7c-0.3-0.2-0.5-0.4-0.8-0.6
	c-0.5-0.3-1-0.6-1.5-0.8c-0.6-0.3-1.3-0.5-1.9-0.6c-0.7-0.2-1.4-0.3-2.1-0.3c-1-0.1-2,0.2-2.8,0.7c-0.6,0.5-1,1.2-0.9,1.9
	c0,0.4,0.1,0.8,0.3,1.2c0.3,0.4,0.6,0.6,1,0.8c0.5,0.3,1.1,0.5,1.7,0.7c0.7,0.2,1.4,0.4,2.3,0.6c1.1,0.3,2.2,0.6,3.1,1
	c0.9,0.3,1.7,0.8,2.4,1.3c0.6,0.5,1.1,1.2,1.5,1.9c0.4,0.9,0.6,1.8,0.5,2.7c0,1.1-0.2,2.2-0.7,3.2c-0.4,0.9-1.1,1.6-1.9,2.2
	s-1.8,1-2.8,1.2c-1.1,0.3-2.2,0.4-3.3,0.4c-1.8,0-3.5-0.3-5.2-0.8s-3.2-1.3-4.6-2.2l2-3.9c0.3,0.3,0.7,0.6,1.1,0.8
	c0.6,0.4,1.2,0.7,1.8,1c0.8,0.3,1.5,0.6,2.3,0.8c0.9,0.2,1.7,0.3,2.6,0.3c2.5,0,3.8-0.8,3.8-2.4c0-0.5-0.1-0.9-0.4-1.3
	s-0.8-0.7-1.2-0.9c-0.6-0.3-1.3-0.5-1.9-0.7c-0.7-0.2-1.6-0.5-2.5-0.7c-1-0.3-2-0.6-2.9-1c-0.8-0.3-1.4-0.8-2.1-1.3
	c-0.5-0.5-1-1.1-1.2-1.7c-0.3-0.7-0.4-1.5-0.4-2.3c0-1.1,0.2-2.2,0.7-3.2c0.4-0.9,1-1.7,1.8-2.3c0.8-0.6,1.7-1.1,2.7-1.4
	c1.1-0.3,2.2-0.5,3.3-0.5c1.6,0,3.1,0.2,4.6,0.8c1.3,0.5,2.5,1.1,3.6,1.8L125.5,266.7z M144.2,269v15h-4.6v-23.4h3.5l12.2,15.4
	v-15.3h4.6V284h-3.7L144.2,269z M171.5,260.6h4l8.9,23.4h-4.7l-2.2-5.8h-8.2l-2.1,5.8h-4.7L171.5,260.6z M176.8,275l-3.2-9.2
	l-3.4,9.2H176.8z M187.4,260.6l6.3,17.7l6.3-17.7h4.8l-9.1,23.4h-3.8l-9.2-23.4H187.4z M210,260.6l5.8,11.3l5.9-11.3h4.9l-8.5,15.2
	v8.2h-4.5v-8.2l-8.5-15.2H210z M229.4,299.3v-4.4h4.4v4.4H229.4z M99.2,299.3v-4.4h4.4v4.4H99.2z M123.8,319.3
	c-0.8,0-1.6-0.1-2.3-0.4c-0.7-0.3-1.3-0.6-1.9-1.2c-0.5-0.5-0.9-1.1-1.2-1.7c-0.3-0.7-0.5-1.4-0.4-2.2c0-0.8,0.2-1.6,0.5-2.3
	c0.4-0.7,0.9-1.3,1.5-1.8c0.7-0.5,1.5-0.9,2.3-1.1c1-0.3,2-0.4,3-0.4c0.8,0,1.5,0.1,2.3,0.2c0.7,0.1,1.3,0.3,2,0.6v-1
	c0.1-1-0.3-1.9-1-2.6c-0.8-0.7-1.8-1-2.9-0.9c-0.9,0-1.8,0.2-2.7,0.5c-1,0.4-1.9,0.9-2.7,1.5l-1.4-2.8c2.1-1.4,4.6-2.2,7.2-2.2
	c2.1-0.1,4.2,0.5,5.8,1.8c1.4,1.4,2.2,3.3,2.1,5.3v5.4c0,0.3,0.1,0.7,0.2,1c0.2,0.2,0.5,0.3,0.8,0.3v3.8c-0.6,0.1-1.3,0.2-1.9,0.2
	c-0.7,0-1.4-0.2-1.9-0.6s-0.8-0.9-0.8-1.5l-0.1-1c-0.7,1-1.7,1.8-2.8,2.3C126.3,319.1,125.1,319.3,123.8,319.3z M125.1,316.1
	c0.7,0,1.5-0.1,2.1-0.4c0.6-0.2,1.1-0.6,1.6-1.1c0.4-0.3,0.7-0.7,0.7-1.3v-2c-0.6-0.2-1.1-0.4-1.7-0.5c-0.6-0.1-1.2-0.2-1.8-0.2
	c-1,0-2,0.2-2.8,0.8c-0.7,0.4-1.1,1.2-1.1,2c0,0.7,0.3,1.4,0.9,1.9C123.6,315.9,124.3,316.1,125.1,316.1z M145.2,319.3
	c-2.3,0-4.4-0.9-5.9-2.6c-0.7-0.8-1.3-1.8-1.7-2.9s-0.6-2.3-0.6-3.5s0.2-2.4,0.6-3.5c0.4-1,0.9-2,1.6-2.8c0.7-0.8,1.5-1.5,2.4-1.9
	c1-0.5,2-0.7,3.1-0.7c1.2,0,2.4,0.3,3.4,0.9s1.8,1.4,2.4,2.4v-9.8h4.4v19c0,0.3,0.1,0.7,0.2,1c0.2,0.2,0.5,0.3,0.8,0.3v3.8
	c-0.6,0.1-1.2,0.2-1.9,0.2s-1.4-0.2-1.9-0.6s-0.8-0.9-0.9-1.6l-0.1-1.1c-0.6,1.1-1.5,1.9-2.6,2.5C147.6,319,146.4,319.3,145.2,319.3
	L145.2,319.3z M146.4,315.6c0.4,0,0.9-0.1,1.3-0.2c0.4-0.1,0.8-0.3,1.2-0.6c0.4-0.3,0.7-0.6,1-0.9s0.5-0.7,0.7-1.2v-4.1
	c-0.2-0.5-0.4-0.9-0.7-1.3s-0.7-0.8-1.1-1.1c-0.4-0.3-0.8-0.5-1.3-0.7c-0.4-0.2-0.9-0.3-1.3-0.3c-0.6,0-1.3,0.1-1.8,0.4
	c-0.6,0.3-1,0.7-1.4,1.2s-0.7,1.1-0.9,1.7s-0.3,1.3-0.3,2s0.1,1.4,0.4,2c0.2,0.6,0.6,1.1,1,1.6s0.9,0.8,1.5,1.1
	C145,315.4,145.7,315.6,146.4,315.6L146.4,315.6z M167.4,319.3c-1.3,0-2.6-0.2-3.8-0.7c-2.2-0.9-3.9-2.6-4.7-4.8
	c-0.4-1.1-0.6-2.2-0.6-3.4c0-1.2,0.2-2.4,0.6-3.5c0.4-1.1,1-2,1.8-2.9c0.8-0.8,1.8-1.5,2.9-2c1.2-0.5,2.5-0.7,3.8-0.7
	s2.6,0.2,3.8,0.7c1.1,0.5,2,1.1,2.8,1.9s1.4,1.8,1.8,2.8c0.4,1.1,0.6,2.2,0.6,3.4c0,0.3,0,0.6,0,0.8c0,0.2,0,0.4-0.1,0.7h-13.4
	c0.1,0.6,0.2,1.2,0.5,1.8c0.5,1,1.4,1.8,2.4,2.2c0.5,0.2,1.1,0.3,1.6,0.3c0.9,0,1.7-0.2,2.5-0.6c0.7-0.4,1.3-1,1.6-1.7l3.8,1.1
	c-0.7,1.4-1.7,2.5-3.1,3.3C170.8,318.9,169.1,319.4,167.4,319.3L167.4,319.3z M171.8,308.9c-0.1-1.2-0.6-2.3-1.4-3.1
	c-1.7-1.6-4.4-1.6-6.1,0c-0.4,0.4-0.7,0.8-1,1.4c-0.3,0.5-0.4,1.1-0.4,1.7H171.8z M179.1,294.9h4.4v18.5c0,0.5,0.1,1.1,0.5,1.5
	c0.3,0.4,0.8,0.6,1.3,0.5c0.3,0,0.6,0,0.9-0.1c0.3-0.1,0.6-0.2,0.9-0.3l0.6,3.4c-0.7,0.3-1.4,0.5-2.1,0.7c-0.7,0.1-1.4,0.2-2.1,0.2
	c-1.2,0.1-2.3-0.3-3.2-1.1c-0.8-0.8-1.2-2-1.1-3.2L179.1,294.9L179.1,294.9z M199.9,319.3c-1.2,0-2.5-0.3-3.6-0.9
	c-1-0.6-1.8-1.4-2.4-2.5V326h-4.4v-24.3h3.9v3c0.6-1,1.5-1.8,2.5-2.4c1.1-0.6,2.3-0.9,3.5-0.9c1.1,0,2.2,0.2,3.2,0.7
	s1.8,1.1,2.6,1.9c0.7,0.8,1.3,1.8,1.7,2.8c0.4,1.1,0.6,2.3,0.6,3.4c0,1.2-0.2,2.4-0.6,3.5c-0.3,1-0.9,2-1.6,2.9
	c-0.7,0.8-1.5,1.5-2.4,1.9C202,319.1,201,319.3,199.9,319.3L199.9,319.3z M198.4,315.6c0.6,0,1.3-0.1,1.8-0.4c0.6-0.3,1-0.7,1.4-1.2
	s0.7-1.1,0.9-1.7s0.3-1.3,0.3-2s-0.1-1.4-0.4-2c-0.2-0.6-0.6-1.2-1-1.6c-0.4-0.5-0.9-0.8-1.5-1.1c-0.6-0.3-1.2-0.4-1.9-0.4
	c-0.4,0-0.9,0.1-1.3,0.2c-0.4,0.1-0.8,0.4-1.2,0.6c-0.4,0.3-0.7,0.6-1,0.9s-0.5,0.7-0.7,1.2v4.1c0.4,1,1,1.8,1.8,2.5
	C196.5,315.2,197.5,315.6,198.4,315.6L198.4,315.6z M226.6,319h-4.4v-9.7c0.1-1.1-0.2-2.1-0.8-3c-0.5-0.7-1.3-1-2.1-1
	c-0.4,0-0.9,0.1-1.3,0.3c-0.5,0.2-0.9,0.4-1.3,0.7c-0.4,0.3-0.8,0.7-1.1,1.1s-0.6,0.9-0.7,1.5V319h-4.4v-24.1h4.4v10
	c0.6-1.1,1.5-2,2.6-2.6s2.4-0.9,3.6-0.9c0.9,0,1.9,0.2,2.7,0.6c0.7,0.4,1.2,0.9,1.6,1.5c0.4,0.7,0.7,1.4,0.8,2.2
	c0.2,0.8,0.2,1.7,0.2,2.5L226.6,319z M230.4,319v-17.3h4.4V319H230.4z M243.6,319.3c-0.8,0-1.6-0.1-2.3-0.4s-1.3-0.6-1.9-1.2
	c-0.5-0.5-0.9-1.1-1.2-1.7c-0.3-0.7-0.5-1.4-0.4-2.2c0-0.8,0.2-1.6,0.5-2.3c0.4-0.7,0.9-1.3,1.5-1.8c0.7-0.5,1.5-0.9,2.3-1.1
	c1-0.3,2-0.4,3-0.4c0.8,0,1.5,0.1,2.3,0.2c0.7,0.1,1.3,0.3,2,0.6v-1c0.1-1-0.3-1.9-1-2.6c-0.8-0.7-1.8-1-2.9-0.9
	c-0.9,0-1.8,0.2-2.7,0.5c-1,0.4-1.9,0.9-2.7,1.5l-1.4-2.8c2.1-1.4,4.6-2.2,7.2-2.2c2.1-0.1,4.2,0.5,5.8,1.8c1.4,1.4,2.2,3.3,2.1,5.3
	v5.4c0,0.3,0.1,0.7,0.2,1c0.2,0.2,0.5,0.3,0.8,0.3v3.8c-0.6,0.1-1.3,0.2-1.9,0.2c-0.7,0-1.4-0.2-1.9-0.6s-0.8-0.9-0.8-1.5l-0.1-1
	c-0.7,1-1.7,1.8-2.8,2.3C246,319.1,244.8,319.3,243.6,319.3z M244.8,316.1c0.7,0,1.5-0.1,2.1-0.4c0.6-0.2,1.1-0.6,1.6-1.1
	c0.4-0.3,0.7-0.7,0.7-1.3v-2c-0.6-0.2-1.1-0.4-1.7-0.5c-0.6-0.1-1.2-0.2-1.8-0.2c-1,0-2,0.2-2.8,0.8c-0.7,0.4-1.1,1.2-1.1,2
	c0,0.7,0.3,1.4,0.9,1.9C243.3,315.9,244,316.1,244.8,316.1L244.8,316.1z M264.8,307.5c0,1.1-0.1,2.3-0.4,3.4s-0.6,2.3-1.1,3.4
	c-0.4,1.1-1,2.2-1.6,3.3c-0.6,1.1-1.2,2.1-1.9,3.2l-3.2-1.6c1.1-1.9,2.1-3.9,2.9-5.9c0.7-1.8,1.1-3.6,1.1-5.5c0-1.2-0.2-2.4-0.5-3.5
	c-0.6-2.3-1.4-4.5-2.5-6.5c-0.4-0.7-0.8-1.5-1.2-2.2l3.4-1.4c0.7,1.2,1.3,2.3,1.9,3.4s1.1,2.2,1.6,3.4c0.4,1.1,0.8,2.2,1,3.4
	C264.7,305.3,264.8,306.4,264.8,307.5z M48.6,307.5c0-1.1,0.1-2.3,0.4-3.3c0.3-1.1,0.6-2.3,1.1-3.4c0.5-1.2,1-2.3,1.6-3.4
	s1.2-2.3,1.9-3.4l3.4,1.4c-0.5,0.7-0.9,1.4-1.2,2.2c-1.1,2.1-1.9,4.3-2.5,6.5c-0.3,1.1-0.5,2.3-0.5,3.5c0,1.9,0.4,3.8,1.1,5.5
	c0.8,2,1.8,4,2.9,5.9l-3.2,1.6c-0.7-1-1.3-2.1-1.9-3.1c-0.6-1.1-1.1-2.2-1.6-3.3c-0.4-1.1-0.8-2.2-1.1-3.4
	C48.8,309.8,48.6,308.7,48.6,307.5z M60.2,319v-23.4h9.9c1,0,2.1,0.2,3,0.7c0.9,0.4,1.7,1,2.4,1.8c0.7,0.7,1.2,1.6,1.6,2.5
	s0.6,1.9,0.6,2.8c0,1-0.2,2-0.5,2.9s-0.8,1.8-1.5,2.5c-0.6,0.7-1.4,1.3-2.3,1.7c-0.9,0.4-1.9,0.7-3,0.7h-5.5v7.9h-4.7V319z
	 M64.7,307.2H70c0.8,0,1.6-0.4,2.1-1c0.6-0.8,0.9-1.8,0.8-2.8c0-0.5-0.1-1.1-0.3-1.6c-0.2-0.4-0.4-0.8-0.7-1.2
	c-0.3-0.3-0.6-0.6-1-0.7c-0.4-0.2-0.8-0.2-1.2-0.2h-5.1L64.7,307.2L64.7,307.2z M96.4,319H92v-9.7c0.1-1.1-0.2-2.1-0.8-3
	c-0.5-0.7-1.3-1-2.1-1c-0.4,0-0.9,0.1-1.3,0.3c-0.5,0.2-0.9,0.4-1.3,0.7c-0.4,0.3-0.8,0.7-1.1,1.1c-0.3,0.4-0.6,0.9-0.7,1.5V319
	h-4.4v-24.1h4.4v10c0.6-1.1,1.5-2,2.6-2.6s2.4-0.9,3.6-0.9c0.9,0,1.9,0.2,2.7,0.6c0.7,0.4,1.2,0.9,1.6,1.5c0.4,0.7,0.7,1.4,0.8,2.2
	c0.2,0.8,0.2,1.7,0.2,2.5L96.4,319z M100.2,319v-17.3h4.4V319H100.2z M108.6,294.9h4.4v18.5c0,0.5,0.1,1.1,0.5,1.5
	c0.3,0.4,0.8,0.6,1.3,0.5c0.3,0,0.6,0,0.9-0.1s0.6-0.2,0.9-0.3l0.6,3.4c-0.7,0.3-1.4,0.5-2.1,0.7c-0.7,0.1-1.4,0.2-2.1,0.2
	c-1.2,0.1-2.3-0.3-3.2-1.1c-0.8-0.8-1.2-2-1.1-3.2L108.6,294.9z"/>
<path id="Path_2631" class="st2" d="M653.8,142.7h1.4c1.5,0.1,3-0.2,4.2-1c1-0.7,1.5-1.8,1.4-2.9c0.1-1.3-0.4-2.5-1.3-3.4
	c-1.1-0.8-2.4-1.2-3.7-1.1c-0.6,0-1.3,0-1.9,0.2c-0.1,0.9-0.1,3.1-0.1,6.5L653.8,142.7z M656.3,152.3c0.1,0.3,0.2,0.6,0.2,0.9
	c0.1,0.3-0.1,0.6-0.4,0.7c-0.1,0-0.2,0-0.3,0h-7.6c-0.1-0.3-0.2-0.7-0.2-1c0-0.2,0-0.4,0.2-0.5s0.4-0.2,0.6-0.2h1.5
	c0.1-1.5,0.1-5.3,0.1-11.5c0-3.3,0-5.7-0.1-7.2h-1.9c-0.1-0.3-0.2-0.7-0.2-1c0-0.2,0-0.4,0.2-0.5s0.4-0.2,0.6-0.2h6.9
	c3.3,0,5.6,0.5,7,1.4s2.2,2.6,2.1,4.3c0,3-1.8,5-5.3,6.1c1,0.3,1.9,0.9,2.5,1.7c0.8,1.1,1.5,2.3,2,3.6c0.4,1,1,2,1.7,2.8
	c0.5,0.4,1.1,0.6,1.7,0.5c0.2,0.8,0.2,1.3-0.1,1.6c-0.6,0.4-1.4,0.5-2.1,0.4c-0.9,0.1-1.9-0.1-2.8-0.5c-0.6-0.3-1.1-1.5-1.7-3.6
	c-0.4-1.5-1-3-1.9-4.3c-0.7-0.9-1.8-1.3-2.9-1.2c-0.7,0-1.3,0.1-2,0.2c0,3.7,0.1,6.2,0.1,7.4L656.3,152.3z M676.1,140
	c-1-0.1-1.9,0.4-2.4,1.2c-0.6,1.1-1,2.3-0.9,3.6h1.7c1.8,0,3,0,3.6-0.1s1-0.2,1.1-0.3c0.1-0.3,0.2-0.6,0.2-0.9
	c0.1-0.9-0.2-1.8-0.8-2.5C677.8,140.2,677,139.9,676.1,140z M676.7,137.8c1.6-0.1,3.2,0.4,4.4,1.4c1,0.9,1.5,2.5,1.5,4.7
	c0.1,0.7-0.1,1.4-0.5,2c-0.7,0.5-1.5,0.7-2.3,0.6h-7.1c-0.1,1.4,0.3,2.9,1.1,4.1c0.9,1.1,2.2,1.7,3.6,1.5c1.6,0,3.1-0.4,4.5-1.3
	c0.4,0.4,0.7,0.9,0.7,1.5c0,0.7-0.6,1.2-1.8,1.5c-1.3,0.3-2.7,0.5-4,0.4c-2.8,0-4.7-0.6-5.9-1.7s-1.8-3.1-1.8-5.9
	c-0.1-2.3,0.6-4.6,2-6.4C672.5,138.6,674.6,137.7,676.7,137.8L676.7,137.8z M692.9,140c-1.1-0.1-2.2,0.4-2.8,1.3
	c-0.7,1.4-1,3.1-0.9,4.6c-0.1,1.6,0.2,3.1,0.8,4.6c0.5,1.1,1.6,1.7,2.8,1.7c0.7,0,1.3-0.1,1.9-0.4c0.5-0.2,0.9-0.6,1.2-1.1
	c0.3-1.1,0.4-2.2,0.3-3.3v-6.6c-0.4-0.2-0.9-0.4-1.4-0.6C694.2,140,693.5,140,692.9,140L692.9,140z M696.6,152.7
	c-0.9,0.5-1.8,0.9-2.7,1.2c-0.9,0.2-1.7,0.4-2.6,0.4c-1.6,0.1-3.1-0.5-4.2-1.6c-1-1.1-1.5-3-1.5-5.7c0-3,0.7-5.3,2-6.8
	c1.5-1.6,3.7-2.5,5.9-2.3c0.5,0,1,0,1.6,0.1c0.4,0.1,0.8,0.1,1.2,0.2c0-0.8,0-1.6-0.1-2.6c0-0.6-0.1-1.3-0.2-1.9
	c-0.1-0.3-0.3-0.6-0.6-0.7c-0.3-0.1-0.7-0.2-1-0.2c-0.1-0.3-0.2-0.6-0.2-1c0-0.3,0.1-0.5,0.4-0.6c0.9-0.1,1.8-0.2,2.7-0.1
	c0.6,0,1.2,0,1.7,0.1c0.3,0.1,0.5,0.2,0.5,0.5c0.1,0.4,0.1,0.8,0.1,1.1v11.5c-0.1,2.4,0,4.8,0.3,7.2c0.2,0.7,0.5,1,0.9,0.9
	c0.1,0.2,0.2,0.5,0.2,0.7c0,0.3-0.4,0.6-1.1,0.9c-0.6,0.2-1.1,0.4-1.7,0.4c-0.3,0-0.5-0.1-0.7-0.3
	C697.1,153.6,696.8,153.2,696.6,152.7L696.6,152.7z M711,137.8c1.1,0,2.3,0.1,3.4,0.4c0.8,0.3,1.2,0.7,1.2,1.3
	c0,0.7-0.3,1.4-0.8,1.9c-1.5-0.8-3.3-1.3-5-1.5c-0.7,0-1.3,0.1-1.9,0.5c-0.4,0.3-0.7,0.8-0.6,1.4c0,0.6,0.2,1.1,0.7,1.5
	c0.9,0.6,1.9,1.1,2.9,1.4c1.4,0.4,2.7,1.1,3.9,2c0.8,0.7,1.2,1.8,1.2,2.9c0.1,1.4-0.6,2.7-1.8,3.5c-1.5,0.9-3.3,1.3-5,1.2
	c-1.3,0-2.6-0.1-3.8-0.4c-0.9-0.2-1.3-0.7-1.3-1.5c0-0.6,0.2-1.2,0.6-1.6c1.6,0.8,3.3,1.2,5.1,1.3c0.8,0.1,1.5-0.1,2.2-0.5
	c0.5-0.4,0.8-0.9,0.7-1.5c0-0.8-0.4-1.5-1.1-1.8c-1.1-0.6-2.3-1.2-3.5-1.6c-1.2-0.4-2.3-1-3.2-1.9c-0.6-0.7-0.9-1.6-0.9-2.5
	c0-1.3,0.6-2.6,1.8-3.3C707.4,138.1,709.2,137.7,711,137.8L711,137.8z M720.7,138.2l1.3-4.6c0.4,0.1,0.8,0.3,1.2,0.5
	c0.3,0.2,0.5,0.4,0.7,0.7c0.2,0.9,0.3,1.8,0.2,2.7v0.7h5.3c0.1,0.4,0.2,0.7,0.2,1.1c0,0.2,0,0.4-0.2,0.6c-0.2,0.1-0.5,0.2-0.7,0.2
	h-4.6v7.6c-0.1,1.2,0.1,2.4,0.5,3.6c0.3,0.6,0.9,0.9,1.5,0.9c0.9,0,1.7-0.2,2.5-0.7c0.2,0.3,0.4,0.7,0.4,1.2c0,0.6-0.4,1-0.9,1.1
	c-1,0.2-2,0.3-3,0.3c-1.1,0.1-2.3-0.2-3.2-0.9c-0.7-0.6-1-1.7-1-3.4V146c0-2.1-0.1-4.1-0.2-6H719c-0.1-0.4-0.2-0.7-0.2-1.1
	c0-0.2,0-0.4,0.2-0.6c0.2-0.1,0.4-0.2,0.6-0.2L720.7,138.2z M739.2,152.2c1.1,0.1,2.1-0.5,2.7-1.4c0.6-1.3,0.9-2.8,0.8-4.3
	c0.1-1.7-0.2-3.4-0.8-4.9c-0.6-1.1-1.7-1.7-2.9-1.6c-1.1-0.1-2.1,0.5-2.7,1.4c-0.6,1.3-0.9,2.8-0.8,4.3c-0.1,1.7,0.2,3.4,0.8,4.9
	C736.9,151.6,738,152.3,739.2,152.2L739.2,152.2z M738.6,154.3c-2.3,0-4-0.6-5.1-1.9c-1.1-1.2-1.6-3.1-1.6-5.6
	c-0.1-2.4,0.6-4.8,2-6.7c1.4-1.6,3.6-2.5,5.7-2.4c2.3,0,4,0.6,5.1,1.9s1.6,3.1,1.6,5.6c0.1,2.4-0.6,4.8-2,6.7
	C742.9,153.6,740.8,154.5,738.6,154.3L738.6,154.3z M753.8,140c1-0.7,2-1.2,3.2-1.6c0.9-0.3,1.8-0.5,2.8-0.5c1.2-0.1,2.3,0.3,3.2,1
	c0.7,0.7,1.1,1.9,1.1,3.8c0,5.8,0.1,8.8,0.2,9.2c0.2,0.3,0.6,0.5,1.2,0.5c0.1,0.3,0.2,0.6,0.2,0.9c0,0.2-0.1,0.5-0.3,0.6
	c-0.3,0.1-0.7,0.2-1,0.1c-1.5,0-2.4,0-2.7-0.1c-0.3,0-0.5-0.1-0.7-0.3c-0.1-0.3-0.2-0.6-0.2-0.9v-6.9c0-2.2-0.2-3.7-0.7-4.4
	s-1.4-1.2-2.3-1.1c-0.8,0-1.7,0.2-2.3,0.8c-0.7,0.7-1.1,1.7-1,2.7v3.4c0,1.9,0,3.7,0.1,5.3h1.8c0.1,0.3,0.2,0.6,0.2,0.9
	c0,0.2,0,0.4-0.2,0.6c-0.2,0.1-0.4,0.2-0.7,0.2h-6.3c-0.1-0.3-0.2-0.6-0.2-1c0-0.2,0-0.4,0.2-0.5s0.4-0.2,0.6-0.2h1.1
	c0.1-1.7,0.1-3.8,0.1-6.3c0-3.2-0.1-5-0.4-5.5c-0.3-0.5-0.8-0.8-1.4-0.8c-0.1-0.3-0.2-0.6-0.2-0.9c0-0.2,0.1-0.5,0.3-0.6
	c1.4-0.2,2.8-0.2,4.3-0.2C753.9,138.7,753.9,139.3,753.8,140L753.8,140z M775.6,140c-1-0.1-1.9,0.4-2.4,1.2c-0.6,1.1-1,2.3-0.9,3.6
	h1.7c1.8,0,3,0,3.6-0.1s1-0.2,1.1-0.3c0.1-0.3,0.2-0.6,0.2-0.9c0.1-0.9-0.2-1.8-0.8-2.5C777.3,140.2,776.5,139.9,775.6,140
	L775.6,140z M776.2,137.8c1.6-0.1,3.2,0.4,4.4,1.4c1,0.9,1.5,2.5,1.5,4.7c0.1,0.7-0.1,1.4-0.5,2c-0.7,0.5-1.5,0.7-2.3,0.6h-7.1
	c-0.1,1.4,0.3,2.9,1.1,4.1c0.9,1.1,2.2,1.7,3.6,1.5c1.6,0,3.1-0.4,4.5-1.3c0.4,0.4,0.7,0.9,0.7,1.5c0,0.7-0.6,1.2-1.8,1.5
	c-1.3,0.3-2.7,0.5-4,0.4c-2.8,0-4.7-0.6-5.9-1.7c-1.2-1.2-1.8-3.1-1.8-5.9c-0.1-2.3,0.6-4.6,2-6.4
	C772,138.6,774.1,137.7,776.2,137.8L776.2,137.8z M669.1,166.8c0.7,0,1.4,0,2.1,0.1c0.2,0.1,1.2,3.1,3.3,9s3.4,9.7,4.1,11.4h1.4
	c0.1,0.3,0.2,0.6,0.2,0.9c0.1,0.3-0.1,0.6-0.4,0.7c-0.1,0-0.2,0-0.3,0h-6.7c-0.1-0.3-0.2-0.7-0.2-1c0-0.2,0-0.4,0.2-0.5
	s0.4-0.2,0.6-0.2h0.9c-0.2-1-0.7-2.8-1.5-5.5h-7.3c-0.8,2.7-1.2,4.5-1.4,5.5h1.5c0.1,0.3,0.2,0.6,0.2,0.9c0.1,0.3-0.1,0.6-0.4,0.7
	c-0.1,0-0.2,0-0.3,0h-5.9c-0.1-0.3-0.2-0.7-0.2-1c0-0.2,0-0.4,0.2-0.5s0.4-0.2,0.6-0.2h0.9c0.7-2,1.9-5.5,3.5-10.6s2.7-8,3-8.8
	C667.4,167.1,668.2,166.7,669.1,166.8z M671.9,179.8c-2-6.2-3-9.3-3.2-9.3c-0.1,0-1.1,3.1-2.9,9.3H671.9z M681.8,173.9
	c0-0.2,0.1-0.5,0.3-0.6c1.4-0.2,2.8-0.2,4.3-0.2c0.1,0.7,0.1,1.3,0,2c1.1-0.7,2.2-1.3,3.4-1.7c1-0.3,2-0.4,3-0.5
	c0.2,0,0.4,0,0.6,0.1c0.1,0.1,0.2,0.2,0.2,0.5c0,0.5-0.1,1-0.2,1.5c-0.1,0.4-0.2,0.7-0.5,1c-0.3,0.2-0.7,0.3-1,0.3
	c-0.3,0.1-0.6,0.1-0.8,0c-0.3-0.3-0.5-0.6-0.7-0.9c-0.9,0-1.7,0.3-2.3,0.9c-0.6,0.6-0.9,1.8-0.9,3.7c0,3.3,0.1,5.7,0.1,7.3h2.3
	c0.1,0.3,0.2,0.6,0.2,0.9c0,0.2,0,0.4-0.2,0.6c-0.2,0.1-0.4,0.2-0.7,0.2H682c-0.1-0.3-0.2-0.6-0.2-1c0-0.2,0-0.4,0.2-0.5
	s0.4-0.2,0.6-0.2h1.1c0.1-1.6,0.1-3.7,0.1-6.3c0-3.2-0.1-5-0.4-5.5c-0.3-0.5-0.8-0.8-1.4-0.8C681.9,174.5,681.8,174.2,681.8,173.9
	L681.8,173.9z M702.6,172.8c1.1,0,2.3,0.1,3.4,0.4c0.8,0.3,1.2,0.7,1.2,1.3c0,0.7-0.3,1.4-0.8,1.9c-1.5-0.8-3.3-1.3-5-1.5
	c-0.7,0-1.3,0.1-1.9,0.5c-0.4,0.3-0.7,0.8-0.6,1.4c0,0.6,0.2,1.1,0.7,1.5c0.9,0.6,1.9,1.1,2.9,1.4c1.4,0.4,2.7,1.1,3.9,2
	c0.8,0.7,1.2,1.8,1.2,2.9c0.1,1.4-0.6,2.7-1.8,3.5c-1.5,0.9-3.3,1.3-5,1.2c-1.3,0-2.6-0.1-3.8-0.4c-0.9-0.2-1.3-0.7-1.3-1.5
	c0-0.6,0.2-1.2,0.6-1.6c1.6,0.8,3.3,1.2,5.1,1.3c0.8,0.1,1.5-0.1,2.2-0.5c0.5-0.4,0.8-0.9,0.7-1.5c0-0.8-0.4-1.5-1.1-1.8
	c-1.1-0.6-2.3-1.2-3.5-1.6c-1.2-0.4-2.3-1-3.2-1.9c-0.6-0.7-0.9-1.6-0.9-2.5c0-1.3,0.6-2.6,1.8-3.3
	C698.9,173.1,700.7,172.7,702.6,172.8L702.6,172.8z M717.5,175c-1-0.1-1.9,0.4-2.4,1.2c-0.6,1.1-1,2.3-0.9,3.6h1.7
	c1.8,0,3,0,3.6-0.1s1-0.2,1.1-0.3c0.1-0.3,0.2-0.6,0.2-0.9c0.1-0.9-0.2-1.8-0.8-2.5C719.3,175.2,718.4,174.9,717.5,175L717.5,175z
	 M718.2,172.8c1.6-0.1,3.2,0.4,4.4,1.4c1,0.9,1.5,2.5,1.5,4.7c0.1,0.7-0.1,1.4-0.5,2c-0.7,0.5-1.5,0.7-2.3,0.6h-7.1
	c-0.1,1.4,0.3,2.9,1.1,4.1c0.9,1.1,2.2,1.7,3.6,1.5c1.6,0,3.1-0.4,4.5-1.3c0.4,0.4,0.7,0.9,0.7,1.5c0,0.7-0.6,1.2-1.8,1.5
	c-1.3,0.3-2.7,0.5-4,0.4c-2.8,0-4.7-0.6-5.9-1.7c-1.2-1.2-1.8-3.1-1.8-5.9c-0.1-2.3,0.6-4.6,2-6.4
	C713.9,173.6,716,172.7,718.2,172.8L718.2,172.8z M731.7,174.9c1-0.7,2-1.2,3.2-1.6c0.9-0.3,1.8-0.5,2.8-0.5c1.2-0.1,2.3,0.3,3.2,1
	c0.7,0.7,1.1,1.9,1.1,3.8c0,5.8,0.1,8.8,0.2,9.2c0.2,0.3,0.6,0.5,1.2,0.5c0.1,0.3,0.2,0.6,0.2,0.9c0,0.2-0.1,0.5-0.3,0.6
	c-0.3,0.1-0.7,0.2-1,0.1c-1.5,0-2.4,0-2.7-0.1c-0.3,0-0.5-0.1-0.7-0.3c-0.1-0.3-0.2-0.6-0.2-0.9v-6.9c0-2.2-0.2-3.7-0.7-4.4
	s-1.4-1.2-2.3-1.1c-0.8,0-1.7,0.2-2.3,0.8c-0.7,0.7-1.1,1.7-1,2.7v3.4c0,1.9,0,3.7,0.1,5.3h1.8c0.1,0.3,0.2,0.6,0.2,0.9
	c0,0.2,0,0.4-0.2,0.6c-0.2,0.1-0.4,0.2-0.7,0.2h-6.3c-0.1-0.3-0.2-0.6-0.2-1c0-0.2,0-0.4,0.2-0.5s0.4-0.2,0.6-0.2h1.1
	c0.1-1.7,0.1-3.8,0.1-6.3c0-3.2-0.1-5-0.4-5.5c-0.3-0.5-0.8-0.8-1.4-0.8c-0.1-0.3-0.2-0.6-0.2-0.9c0-0.2,0.1-0.5,0.3-0.6
	c1.4-0.2,2.8-0.2,4.3-0.2C731.7,173.7,731.7,174.3,731.7,174.9L731.7,174.9z M756.1,187.7c-0.9,0.5-1.8,0.9-2.8,1.2
	c-0.9,0.3-1.9,0.4-2.8,0.4c-1.2,0.1-2.3-0.3-3.2-1c-0.8-0.8-1.1-1.9-1.1-3c-0.1-1.5,0.6-2.9,1.8-3.8c1.2-0.9,3-1.3,5.4-1.3h2.4
	c0.1-1.4-0.2-2.7-0.8-3.9c-0.6-0.8-1.6-1.2-2.5-1.1c-0.6,0-1.2,0.1-1.9,0.2c-0.2,0.4-0.3,0.7-0.6,1c-0.3,0.1-0.6,0.2-0.9,0.3
	c-0.6,0.1-0.9,0.1-1.2-0.1c-0.3-0.3-0.5-0.7-0.7-1.1c-0.2-0.4-0.3-0.8-0.3-1.3c0-0.2,0.1-0.4,0.3-0.5c0.7-0.2,1.4-0.4,2.2-0.4
	c1.3-0.2,2.7-0.3,4-0.3c1.5-0.1,2.9,0.2,4.2,1c0.9,0.7,1.4,1.9,1.4,3.6v5c-0.1,1.4,0,2.8,0.3,4.2c0.1,0.4,0.5,0.7,1,0.6l0,0
	c0.1,0.2,0.2,0.4,0.2,0.7c0,0.4-0.2,0.6-0.7,0.8c-0.6,0.2-1.2,0.3-1.8,0.3c-0.3,0-0.6,0-0.9-0.1
	C756.6,188.7,756.3,188.2,756.1,187.7L756.1,187.7z M755.8,182.3c-0.9-0.2-1.9-0.2-2.9-0.2c-0.9-0.1-1.8,0.1-2.6,0.6
	c-0.5,0.5-0.8,1.2-0.7,1.9c-0.1,0.7,0.2,1.4,0.7,1.9c0.6,0.5,1.3,0.7,2,0.7s1.4-0.1,2-0.4c0.5-0.2,1-0.6,1.2-1.2
	c0.2-0.8,0.3-1.6,0.3-2.4V182.3z M765,179.8c0-4.5,0-7.4-0.1-8.7c0-0.8-0.1-1.6-0.2-2.4c-0.1-0.3-0.3-0.6-0.6-0.7
	c-0.3-0.1-0.7-0.2-1-0.2c-0.1-0.3-0.2-0.6-0.2-1c0-0.3,0.1-0.5,0.4-0.6c0.9-0.1,1.8-0.2,2.7-0.1c0.6,0,1.2,0,1.7,0.1
	c0.3,0.1,0.5,0.2,0.5,0.5c0.1,0.4,0.1,0.8,0.1,1.1v13.5c0,2.6,0.1,4.6,0.1,6.1h1.8c0.1,0.3,0.2,0.6,0.2,0.9c0,0.2,0,0.4-0.2,0.6
	c-0.2,0.1-0.4,0.2-0.7,0.2h-6.4c-0.1-0.3-0.2-0.6-0.2-1c0-0.2,0-0.4,0.2-0.5s0.4-0.2,0.6-0.2h1.2C765,185.8,765,183.3,765,179.8
	L765,179.8z"/>
<path id="Path_2632" class="st3" d="M346.6,223.6c-0.2,1.9-0.2,3.5-0.2,5c0,1,0,1.9,0.1,2.5h-0.8c-0.2-1.9-0.9-3.7-2-5.2
	c-0.9-1-2.3-1.6-3.7-1.5h-1c-0.5,0-1,0-1.5,0.2c-0.3,0.1-0.5,0.3-0.6,0.6c-0.1,0.5-0.2,1-0.2,1.5v8.3h1.2c1,0.1,2.1-0.4,2.7-1.3
	c0.6-0.9,1.1-2,1.3-3.1h0.8c-0.1,0.9-0.1,2-0.1,3.1v1.6c0,1.1,0.1,2.7,0.2,4.7H342c-0.5-2.9-1.8-4.4-4-4.4h-1.2v7.6
	c0,0.7,0.1,1.3,0.3,1.9c0.2,0.4,0.6,0.7,1,0.8c0.7,0.2,1.5,0.2,2.3,0.2v0.7c-2.7-0.1-4.7-0.1-6-0.1c-1.1,0-2.5,0-4.2,0.1h-1.1v-0.7
	c0.5,0,1.1-0.1,1.6-0.3c0.3-0.1,0.6-0.4,0.7-0.8c0.1-0.6,0.2-1.2,0.2-1.8v-16.4c0-0.6,0-1.2-0.2-1.8c-0.1-0.3-0.4-0.6-0.7-0.8
	c-0.5-0.2-1.1-0.3-1.6-0.3v-0.7c2.4,0.1,6,0.1,10.8,0.1C343,223.7,345.3,223.7,346.6,223.6z M355.9,229.5c2.2-0.1,4.3,0.7,5.9,2.2
	c1.4,1.4,2.1,3.7,2.1,6.8s-0.7,5.4-2.1,6.8c-1.6,1.5-3.8,2.3-5.9,2.1c-2.2,0.1-4.3-0.7-5.9-2.1c-1.4-1.4-2.2-3.7-2.2-6.8
	s0.7-5.4,2.2-6.8C351.5,230.1,353.7,229.4,355.9,229.5z M355.9,230.1c-0.9,0-1.7,0.7-2.3,2.1c-0.7,2-0.9,4.2-0.8,6.3
	c-0.1,2.1,0.2,4.2,0.8,6.3c0.6,1.4,1.3,2,2.3,2s1.7-0.7,2.3-2c0.6-2,0.9-4.2,0.8-6.3c0.1-2.1-0.2-4.3-0.8-6.3
	C357.6,230.8,356.8,230.1,355.9,230.1z M377.3,229.5c0.8-0.1,1.7,0.3,2.2,0.9c0.5,0.6,0.8,1.4,0.8,2.1c0,0.7-0.2,1.4-0.7,2
	c-0.5,0.5-1.2,0.8-1.9,0.8c-0.6,0-1.3-0.2-1.8-0.6c-0.4-0.4-0.7-0.9-0.7-1.5c0-1.1,0.5-2,1.5-2.6c-0.1,0-0.3,0-0.4,0
	c-0.2,0-0.4,0-0.5,0.1c-0.9,0.2-1.7,0.7-2.1,1.5c-0.6,0.8-0.9,1.7-0.9,2.7v8.7c-0.1,0.8,0.2,1.6,0.7,2.1c0.7,0.5,1.5,0.7,2.4,0.6
	v0.7c-0.3,0-0.5,0-0.8,0c-2.2-0.1-3.7-0.1-4.5-0.1c-0.6,0-1.9,0-4.1,0.1c-0.2,0-0.4,0-0.7,0v-0.7c0.6,0.1,1.2-0.1,1.6-0.5
	c0.4-0.5,0.5-1.2,0.5-1.9v-10.4c0.1-0.8-0.1-1.5-0.5-2.2c-0.4-0.5-1-0.8-1.6-0.7v-0.7c0.7,0.1,1.4,0.1,2,0.1c1.6,0,3.2-0.1,4.8-0.5
	v3.1c0.4-0.9,1-1.7,1.8-2.3C375.4,229.8,376.4,229.5,377.3,229.5z M388.1,229.9h3.9v0.7h-3.9v13.3c0,0.5,0.1,1,0.3,1.4
	c0.3,0.3,0.7,0.4,1.1,0.4c0.9,0,1.7-0.7,2.2-2l0.6,0.3c-0.8,2.3-2.3,3.4-4.5,3.4c-1.2,0.1-2.4-0.3-3.3-1.1c-0.5-0.5-0.8-1.1-0.9-1.7
	c-0.2-0.9-0.3-1.9-0.2-2.9v-11.2h-2.8v-0.7h2.8v-4.4c1.6,0,3.3-0.3,4.8-1.1L388.1,229.9z M411.2,224.3c-0.6,0-1.2,0.1-1.7,0.3
	c-0.4,0.1-0.6,0.4-0.7,0.8c-0.2,0.6-0.2,1.2-0.2,1.8V244c0,0.5,0,1,0.2,1.5c0.1,0.3,0.3,0.5,0.6,0.6c0.4,0.1,0.9,0.2,1.3,0.2h1.6
	c1.5,0,3-0.8,3.9-2c1.2-1.6,1.9-3.4,2.1-5.3h0.8c-0.1,0.7-0.1,1.7-0.1,2.9c0,1.7,0.1,3.5,0.2,5.2c-1.5-0.1-4-0.1-7.6-0.1
	c-4.8,0-8.4,0-10.8,0.1v-0.7c0.5,0,1.1-0.1,1.6-0.3c0.3-0.1,0.6-0.4,0.7-0.8c0.1-0.6,0.2-1.2,0.2-1.8v-16.4c0-0.6,0-1.2-0.2-1.8
	c-0.1-0.3-0.4-0.6-0.7-0.8c-0.5-0.2-1.1-0.3-1.6-0.3v-0.7c1.1,0.1,2.9,0.1,5.2,0.1c2.2,0,4,0,5.2-0.1V224.3z M430.3,244.8
	c1.8,0,3.5-1,4.4-2.6l0.6,0.2c-0.4,1.4-1.2,2.7-2.4,3.6c-1.2,1-2.7,1.6-4.2,1.5c-2.1,0.1-4.1-0.7-5.6-2.2c-1.4-1.5-2.1-3.7-2.1-6.6
	c0-3,0.7-5.2,2.2-6.8s3.7-2.5,5.9-2.4c4.1,0,6.2,2.4,6.2,7.3H426c0,0.3,0,0.8,0,1.6c0,1.2,0.2,2.5,0.6,3.6c0.3,0.8,0.9,1.6,1.6,2.1
	C428.9,244.5,429.6,244.8,430.3,244.8L430.3,244.8z M429,230.2c-0.9,0.1-1.7,0.6-2,1.5c-0.6,1.4-1,3-1,4.5h5.2
	c0.1-1.5-0.1-2.9-0.5-4.3C430.3,230.7,429.7,230.2,429,230.2z M445.8,229.5c2.2-0.1,4.3,0.7,5.9,2.2c1.4,1.4,2.1,3.7,2.1,6.8
	s-0.7,5.4-2.1,6.8c-3.4,2.9-8.4,2.9-11.9,0c-1.4-1.4-2.2-3.7-2.2-6.8s0.7-5.4,2.2-6.8C441.5,230.1,443.6,229.4,445.8,229.5z
	 M445.8,230.1c-0.9,0-1.7,0.7-2.3,2.1c-0.7,2-0.9,4.2-0.8,6.3c-0.1,2.1,0.2,4.2,0.8,6.3c0.6,1.4,1.3,2,2.3,2s1.7-0.7,2.3-2
	c0.6-2,0.9-4.2,0.8-6.3c0.1-2.1-0.2-4.3-0.8-6.3C447.5,230.8,446.7,230.1,445.8,230.1z M468.2,229.5c1.3-0.1,2.7,0.3,3.6,1.3
	c0.4,0.5,0.7,1,0.8,1.6c0.2,0.9,0.3,1.8,0.2,2.7v8.9c-0.1,0.7,0.1,1.3,0.5,1.9c0.5,0.4,1,0.6,1.6,0.5v0.7c-2.2-0.1-3.7-0.1-4.4-0.1
	c-0.7,0-2.1,0-4.3,0.1v-0.7c0.5,0.1,1-0.1,1.4-0.5c0.3-0.6,0.5-1.2,0.4-1.9v-10.3c0-0.7-0.1-1.4-0.4-2c-0.4-0.5-1-0.8-1.6-0.7
	c-0.9,0-1.7,0.4-2.3,1.1c-0.6,0.8-1,1.7-1,2.7v9.2c-0.1,0.6,0.1,1.3,0.4,1.9c0.4,0.4,0.9,0.6,1.4,0.5v0.7c-2-0.1-3.4-0.1-4.1-0.1
	s-2.2,0-4.6,0.1v-0.7c0.6,0.1,1.2-0.1,1.6-0.5c0.4-0.5,0.5-1.2,0.5-1.9v-10.4c0.1-0.8-0.1-1.5-0.5-2.2c-0.4-0.5-1-0.8-1.6-0.7V230
	c0.7,0.1,1.4,0.1,2,0.1c1.6,0,3.2-0.1,4.8-0.5v3C463.8,230.5,465.6,229.5,468.2,229.5z M480.5,247.2c-1.2,0.1-2.3-0.3-3.2-1.1
	c-0.7-0.8-1.1-1.8-1-2.9c0-0.9,0.2-1.8,0.8-2.5c0.5-0.6,1.1-1.2,1.9-1.5c0.9-0.4,1.9-0.8,2.8-1.1s1.8-0.7,2.7-1.1
	c0.5-0.3,0.8-0.8,0.8-1.4V233c0-0.8-0.2-1.5-0.6-2.2c-0.5-0.6-1.2-0.8-2-0.8c-0.9-0.1-1.7,0.2-2.4,0.8c0.6,0.2,1.1,0.5,1.4,1
	c0.3,0.4,0.5,1,0.5,1.6c0,0.7-0.2,1.3-0.8,1.8c-0.5,0.4-1.2,0.7-1.8,0.7c-0.7,0-1.3-0.2-1.8-0.7c-0.8-1-0.8-2.3-0.2-3.4
	c0.4-0.5,0.8-0.9,1.4-1.2c0.7-0.4,1.4-0.7,2.2-0.8c0.9-0.2,1.9-0.3,2.9-0.3c0.9,0,1.9,0.1,2.8,0.3c0.7,0.2,1.4,0.6,2,1.1
	c0.5,0.5,0.8,1.1,1,1.8c0.2,0.9,0.3,1.9,0.2,2.9v9c0,0.4,0,0.8,0.1,1.1c0.1,0.2,0.3,0.4,0.6,0.3c0.4-0.1,0.9-0.2,1.2-0.6l0.3,0.6
	c-1,0.8-2.3,1.3-3.6,1.2c-0.9,0.1-1.8-0.2-2.5-0.7c-0.5-0.5-0.8-1.2-0.8-1.9C484.4,246.3,482.5,247.3,480.5,247.2L480.5,247.2z
	 M483.1,245.1c0.9,0,1.8-0.5,2.2-1.4V237c-0.4,0.6-1,1.1-1.7,1.5s-1.4,1-1.9,1.7s-0.7,1.5-0.7,2.4c-0.1,0.7,0.1,1.4,0.6,2
	C482,244.9,482.5,245.1,483.1,245.1L483.1,245.1z M504.6,229.5c0.8-0.1,1.7,0.3,2.2,0.9c0.5,0.6,0.8,1.4,0.8,2.1
	c0,0.7-0.2,1.4-0.7,2c-0.5,0.5-1.2,0.8-1.9,0.8c-0.6,0-1.3-0.2-1.8-0.6c-0.4-0.4-0.7-0.9-0.7-1.5c0-1.1,0.5-2,1.5-2.6
	c-0.1,0-0.3,0-0.4,0c-0.2,0-0.4,0-0.5,0.1c-0.9,0.2-1.7,0.7-2.1,1.5c-0.6,0.8-0.9,1.7-0.9,2.7v8.7c-0.1,0.8,0.2,1.6,0.7,2.1
	c0.7,0.5,1.5,0.7,2.4,0.6v0.7c-0.3,0-0.5,0-0.8,0c-2.2-0.1-3.7-0.1-4.5-0.1c-0.6,0-1.9,0-4.1,0.1c-0.2,0-0.4,0-0.7,0v-0.7
	c0.6,0.1,1.2-0.1,1.6-0.5c0.4-0.5,0.5-1.2,0.5-1.9v-10.4c0.1-0.8-0.1-1.5-0.5-2.2c-0.4-0.5-1-0.8-1.6-0.7v-0.7
	c0.7,0.1,1.4,0.1,2,0.1c1.6,0,3.2-0.1,4.8-0.5v3.1c0.4-0.9,1-1.7,1.8-2.3C502.7,229.8,503.7,229.5,504.6,229.5L504.6,229.5z
	 M524.5,243.4c-0.1,0.8,0.1,1.5,0.5,2.2c0.4,0.5,1,0.8,1.6,0.7v0.7c-0.7-0.1-1.4-0.1-2-0.1c-1.6,0-3.2,0.1-4.8,0.5v-2.8
	c-0.6,1.9-2.3,3.1-4.3,3c-1.9,0.1-3.7-0.8-4.9-2.3c-1.2-1.5-1.8-3.8-1.8-6.8c-0.1-1.7,0.3-3.4,0.9-4.9c0.5-1.2,1.5-2.3,2.6-3
	c1.2-0.7,2.5-1,3.8-1c1.3-0.1,2.7,0.4,3.7,1.3v-5.6c0.1-0.8-0.1-1.5-0.5-2.2c-0.4-0.5-1-0.8-1.6-0.7v-0.7c0.7,0.1,1.4,0.1,2,0.1
	c1.6,0,3.2-0.1,4.8-0.5V243.4z M516.8,246c0.7,0,1.4-0.3,1.9-0.8c0.6-0.6,0.9-1.3,1-2.1v-11.6c-0.6-0.8-1.5-1.2-2.4-1.1
	c-1.2,0-2.3,0.8-2.7,2c-0.7,1.9-1.1,4-0.9,6c-0.1,2,0.1,3.9,0.8,5.8C514.8,245.3,515.7,246,516.8,246z M413.8,258.7
	c1,0,1.9,0,2.5-0.1v0.7c-0.6,0.3-1.2,0.7-1.6,1.3c-0.6,0.8-1,1.7-1.3,2.7l-5.8,18.8c-0.2,0-0.6,0-1.2,0c-0.5,0-0.9,0-1.2,0
	l-4.9-14.7l-4.9,14.7c-0.2,0-0.6,0-1.2,0s-0.9,0-1.2,0l-7.4-20.7c-0.2-0.6-0.5-1.1-1-1.6c-0.3-0.3-0.7-0.5-1.1-0.5v-0.7
	c1.3,0.1,3,0.1,4.9,0.1c1.8,0,3.2,0,4.1-0.1v0.7c-0.7,0-1.2,0.6-1.2,1.2c0,0,0,0,0,0.1c0,0.5,0.1,1,0.3,1.5l4.8,14l3.3-9.8l-1.7-5.1
	c-0.1-0.5-0.4-1-0.8-1.3c-0.3-0.3-0.7-0.4-1-0.4v-0.7c1.2,0.1,2.8,0.1,4.7,0.1c2.2,0,3.7,0,4.8-0.1v0.7c-0.6,0-1.2,0.1-1.7,0.3
	c-0.4,0.2-0.6,0.5-0.5,0.9c0,0.5,0.1,1.1,0.3,1.6l4.5,13.8l3.1-10c0.4-1.2,0.7-2.5,0.8-3.8c0.1-0.8-0.2-1.5-0.7-2.1
	c-0.6-0.5-1.4-0.7-2.1-0.7v-0.7C411.2,258.7,412.5,258.7,413.8,258.7z M423.1,264.5c2.2-0.1,4.3,0.7,5.9,2.2
	c1.4,1.4,2.1,3.7,2.1,6.8c0,3.1-0.7,5.4-2.1,6.8c-3.4,2.9-8.4,2.9-11.9,0c-1.4-1.4-2.2-3.7-2.2-6.8c0-3.1,0.7-5.4,2.2-6.8
	C418.8,265.1,420.9,264.4,423.1,264.5z M423.1,265.1c-0.9,0-1.7,0.7-2.3,2.1c-0.7,2-0.9,4.2-0.8,6.3c-0.1,2.1,0.2,4.2,0.8,6.3
	c0.6,1.4,1.3,2,2.3,2s1.7-0.7,2.3-2c0.6-2,0.9-4.2,0.8-6.3c0.1-2.1-0.2-4.3-0.8-6.3C424.8,265.8,424.1,265.1,423.1,265.1z
	 M441.8,264.5c2.2-0.1,4.3,0.7,5.9,2.2c1.4,1.4,2.1,3.7,2.1,6.8s-0.7,5.4-2.1,6.8c-3.4,2.9-8.4,2.9-11.9,0c-1.4-1.4-2.2-3.7-2.2-6.8
	c0-3.1,0.7-5.4,2.2-6.8C437.4,265.1,439.6,264.4,441.8,264.5z M441.8,265.1c-0.9,0-1.7,0.7-2.3,2.1c-0.7,2-0.9,4.2-0.8,6.3
	c-0.1,2.1,0.2,4.2,0.8,6.3c0.6,1.4,1.3,2,2.3,2s1.7-0.7,2.3-2c0.6-2,0.9-4.2,0.8-6.3c0.1-2.1-0.2-4.3-0.8-6.3
	C443.5,265.8,442.7,265.1,441.8,265.1z M468.1,278.4c-0.1,0.8,0.1,1.5,0.5,2.2c0.4,0.5,1,0.8,1.6,0.7v0.7c-0.7-0.1-1.4-0.1-2-0.1
	c-1.6,0-3.2,0.1-4.8,0.5v-2.8c-0.6,1.9-2.3,3.1-4.3,3c-1.9,0.1-3.7-0.8-4.9-2.3c-1.2-1.5-1.8-3.8-1.8-6.8c-0.1-1.7,0.3-3.4,0.9-4.9
	c0.5-1.2,1.5-2.3,2.6-3c1.2-0.7,2.5-1,3.8-1c1.3-0.1,2.7,0.4,3.7,1.3v-5.6c0.1-0.8-0.1-1.5-0.5-2.2c-0.4-0.5-1-0.8-1.6-0.7v-0.7
	c0.7,0.1,1.4,0.1,2,0.1c1.6,0,3.2-0.1,4.8-0.5L468.1,278.4L468.1,278.4z M460.4,281c0.7,0,1.4-0.3,1.9-0.8c0.6-0.6,0.9-1.3,1-2.1
	v-11.6c-0.6-0.8-1.5-1.2-2.4-1.1c-1.2,0-2.3,0.8-2.7,2c-0.7,1.9-1.1,4-0.9,6c-0.1,2,0.1,3.9,0.8,5.8
	C458.4,280.3,459.4,281,460.4,281z"/>
<path id="Path_2633" class="st3" d="M139.1,169.8c0.2,0,0.4,0.1,0.5,0.2l1.3,1.5c-1,1.2-2.3,2.1-3.7,2.8c-1.7,0.7-3.5,1-5.3,1
	c-1.7,0-3.3-0.3-4.9-0.9c-1.4-0.6-2.7-1.5-3.8-2.6c-1.1-1.2-1.9-2.6-2.4-4.1c-0.6-1.7-0.9-3.4-0.9-5.2s0.3-3.5,0.9-5.2
	c0.6-1.5,1.4-2.9,2.5-4.1c1.1-1.1,2.4-2,3.9-2.6c1.6-0.6,3.3-1,5-0.9c1.6,0,3.2,0.3,4.7,0.9c1.3,0.6,2.6,1.3,3.6,2.3l-1.1,1.6
	c-0.1,0.1-0.2,0.2-0.3,0.3s-0.3,0.1-0.4,0.1c-0.3,0-0.6-0.2-0.8-0.3c-0.4-0.3-0.8-0.5-1.2-0.8c-1.4-0.8-3-1.1-4.6-1.1
	c-1.2,0-2.4,0.2-3.6,0.7c-1.1,0.4-2,1.1-2.8,2s-1.4,2-1.8,3.1c-0.4,1.3-0.7,2.7-0.6,4.1c0,1.4,0.2,2.8,0.7,4.2
	c0.4,1.1,1,2.2,1.8,3.1c0.8,0.8,1.7,1.5,2.7,1.9c1.1,0.4,2.2,0.7,3.4,0.7c0.7,0,1.4,0,2-0.1s1.1-0.2,1.7-0.4c0.5-0.2,1-0.4,1.4-0.7
	c0.5-0.3,0.9-0.6,1.3-1C138.7,169.9,138.9,169.8,139.1,169.8z M166.6,162.5c0,1.7-0.3,3.5-0.9,5.1c-0.6,1.5-1.4,2.8-2.5,4
	c-1.1,1.1-2.4,2-3.9,2.5c-1.6,0.6-3.3,0.9-5,0.9h-9.4v-25.1h9.4c1.7,0,3.4,0.3,5,0.9c1.5,0.6,2.8,1.4,3.9,2.6c1.1,1.1,2,2.5,2.5,4
	C166.3,159,166.7,160.7,166.6,162.5z M163.1,162.5c0-1.4-0.2-2.8-0.6-4.1c-0.4-1.1-1-2.2-1.8-3.1c-0.8-0.8-1.7-1.5-2.8-1.9
	c-1.2-0.5-2.4-0.7-3.7-0.7h-6v19.6h6c1.3,0,2.5-0.2,3.7-0.7c1.1-0.4,2-1.1,2.8-1.9c0.8-0.9,1.4-1.9,1.8-3.1
	C163,165.3,163.2,163.9,163.1,162.5z M189.1,169.8c0.2,0,0.4,0.1,0.5,0.2l1.3,1.5c-1,1.2-2.3,2.1-3.7,2.8c-1.7,0.7-3.5,1-5.3,1
	c-1.7,0-3.3-0.3-4.9-0.9c-1.4-0.6-2.7-1.5-3.8-2.6c-1.1-1.2-1.9-2.6-2.4-4.1c-0.6-1.7-0.9-3.4-0.9-5.2s0.3-3.5,0.9-5.2
	c0.6-1.5,1.4-2.9,2.5-4.1c1.1-1.1,2.4-2,3.9-2.6c1.6-0.6,3.3-1,5-0.9c1.6,0,3.2,0.3,4.7,0.9c1.3,0.6,2.6,1.3,3.6,2.3l-1.1,1.6
	c-0.1,0.1-0.2,0.2-0.3,0.3s-0.3,0.1-0.4,0.1c-0.3,0-0.6-0.2-0.8-0.3c-0.4-0.3-0.8-0.5-1.2-0.8c-1.4-0.8-3-1.1-4.6-1.1
	c-1.2,0-2.4,0.2-3.6,0.7c-1.1,0.4-2,1.1-2.8,2s-1.4,2-1.8,3.1c-0.4,1.3-0.7,2.7-0.6,4.1c0,1.4,0.2,2.8,0.7,4.2
	c0.4,1.1,1,2.2,1.8,3.1c0.8,0.8,1.7,1.5,2.7,1.9c1.1,0.4,2.2,0.7,3.4,0.7c0.7,0,1.4,0,2-0.1s1.1-0.2,1.7-0.4c0.5-0.2,1-0.4,1.4-0.7
	c0.5-0.3,0.9-0.6,1.3-1C188.7,169.9,188.9,169.8,189.1,169.8z"/>
<path id="Path_2634" class="st1" d="M682,270.8l7,19.2h2.2l7-18.9c1-2.7,1.4-3.1,3.4-3.4v-1h-7v1c2.5,0.3,2.9,0.8,2,3.3l-5.4,15.6
	l-5.6-15.7c-0.8-2.3-0.5-2.9,1.9-3.2v-1h-8.9v1C680.5,267.9,681,268.3,682,270.8z M708.6,287.1v-8.4h11.8v8.4c0,1.4-0.3,1.7-2.5,1.9
	v1h8.6v-1c-2.3-0.3-2.6-0.6-2.6-2v-17.4c0-1.4,0.3-1.7,2.6-2v-0.9H718v1c2.2,0.3,2.5,0.5,2.5,1.9v7.9h-11.8v-7.9
	c0-1.4,0.3-1.7,2.5-1.9v-1h-8.6v1c2.3,0.3,2.6,0.6,2.6,2v17.4c0,1.4-0.3,1.7-2.6,2v0.9h8.6v-1C708.9,288.8,708.6,288.5,708.6,287.1
	L708.6,287.1z M747.1,285.9l-7.1-19.2h-2.2l-7,18.9c-1,2.7-1.4,3.1-3.4,3.4v1h7v-1c-2.5-0.3-2.8-0.8-2-3.3l1.4-3.9h8.2l1.4,4
	c0.8,2.3,0.5,2.9-2,3.2v1h8.9v-1C748.5,288.8,748,288.4,747.1,285.9L747.1,285.9z M734.2,280.6l3.6-10.4l3.7,10.4H734.2z
	 M639.5,322.1v-8.4h11.8v8.4c0,1.4-0.3,1.7-2.5,1.9v1h8.6v-1c-2.3-0.3-2.6-0.6-2.6-2v-17.4c0-1.4,0.3-1.7,2.6-2v-1h-8.6v1
	c2.2,0.3,2.5,0.5,2.5,1.9v7.9h-11.8v-7.9c0-1.4,0.3-1.7,2.5-1.9v-1h-8.6v1c2.3,0.3,2.6,0.6,2.6,2V322c0,1.4-0.3,1.7-2.6,2v0.9h8.6
	v-1C639.8,323.8,639.5,323.5,639.5,322.1z M659.9,317.1c0,5,3.4,8.2,7.9,8.2c2.2,0.1,4.4-0.8,5.9-2.4v-1c-1.2,1-2.7,1.6-4.2,1.6
	c-3.7,0-6.2-2.8-6.3-7H674c0-0.3,0.1-0.7,0-1c0-4.1-2.4-6.8-6.6-6.8C663,308.8,659.9,312.2,659.9,317.1z M667.4,310.1
	c2.3,0,3.6,1.9,3.6,5v0.3h-7.8C663.4,311.8,665,310.1,667.4,310.1z M681.7,325.3c2,0.1,3.9-0.8,5.2-2.4c0.3,1.4,1.6,2.4,3.1,2.3
	c0.9,0,1.8-0.2,2.5-0.7v-0.9c-0.3,0.1-0.6,0.2-0.8,0.1c-1,0-1.8-0.5-1.8-2v-8.1c0-3.4-2.3-4.9-5.9-4.9c-3.6,0-6.4,1.5-6.4,3.7
	c0,1,0.8,1.7,1.7,1.7c0,0,0,0,0.1,0c0.9,0,1.7-0.7,1.8-1.6c0,0,0,0,0-0.1c0-0.7-0.4-1.4-1.1-1.6c0.9-0.5,1.9-0.7,2.9-0.7
	c2.4,0,3.9,1,3.9,4v1.4l-3.6,0.8c-4.3,1-6.1,2.4-6.1,5C677,323.7,679,325.3,681.7,325.3z M680.3,320.8c0-1.8,1.1-2.9,4.4-3.6
	l2.2-0.5v5.3c-0.8,1.1-2.1,1.7-3.4,1.7c-1.6,0.1-2.9-1-3.1-2.5C680.3,321,680.3,320.9,680.3,320.8z M699.2,301.1l-5.4,0.6v0.8
	l1.2,0.3c0.9,0.3,1,0.5,1,1.3v18.4c0,1-0.3,1.3-2.2,1.5v0.9h7.6v-1c-1.9-0.2-2.2-0.5-2.2-1.5L699.2,301.1z M705.1,320.6
	c0,3.5,2,4.7,4.2,4.7c1.4,0,2.9-0.5,4-1.4v-1c-0.7,0.5-1.5,0.7-2.3,0.7c-1.5,0-2.7-0.9-2.7-3.5v-9.7l4.8,0.1v-1.4l-4.8,0.1V306h-0.5
	l-4.8,3.8v0.7h2.1V320.6z M719.9,301.1l-5.4,0.6v0.8l1.2,0.3c0.9,0.3,1,0.5,1,1.3v18.4c0,1-0.3,1.3-2.2,1.5v0.9h7.4v-1
	c-1.8-0.2-2.1-0.5-2.1-1.4v-10.2c0.8-1.2,2.3-1.9,3.8-1.9c2.3,0,3.8,1.4,3.8,4.1v8c0,1-0.2,1.2-2.1,1.4v1h7.4v-1
	c-2-0.2-2.2-0.5-2.2-1.5v-8.7c0-3.3-2.3-5.1-5.5-5.1c-2.1-0.1-4.1,0.9-5.2,2.6L719.9,301.1z M742.8,325.3c2.2,0.1,4.4-0.8,5.9-2.4
	v-1c-1.1,1-2.6,1.6-4.2,1.6c-3.6,0-6.1-2.7-6.1-7c0-3.9,2.2-6.3,5.3-6.3c1-0.1,1.9,0.2,2.7,0.7c-0.8,0.2-1.4,0.9-1.4,1.7
	c0,1,0.7,1.8,1.7,1.8c0,0,0,0,0.1,0c1,0,1.8-0.8,1.8-1.8c0,0,0,0,0-0.1c0-2-1.7-3.7-5.4-3.7c-4.4-0.1-8.1,3.4-8.1,7.8
	c0,0.2,0,0.3,0,0.5C735.1,322.1,738.5,325.3,742.8,325.3L742.8,325.3z M755.9,325.3c2,0.1,3.9-0.8,5.2-2.4c0.3,1.4,1.6,2.4,3.1,2.3
	c0.9,0,1.8-0.2,2.5-0.7v-0.9c-0.3,0.1-0.6,0.2-0.8,0.1c-1,0-1.8-0.5-1.8-2v-8.1c0-3.4-2.3-4.9-5.9-4.9c-3.6,0-6.4,1.5-6.4,3.7
	c0,1,0.8,1.7,1.7,1.7c0,0,0,0,0.1,0c0.9,0,1.7-0.7,1.8-1.6c0,0,0,0,0-0.1c0-0.7-0.4-1.4-1.1-1.6c0.9-0.5,1.9-0.7,2.9-0.7
	c2.4,0,3.9,1,3.9,4v1.4l-3.6,0.8c-4.3,1-6.1,2.4-6.1,5C751.2,323.7,753.2,325.3,755.9,325.3L755.9,325.3z M754.4,320.8
	c0-1.8,1.1-2.9,4.4-3.6l2.2-0.5v5.3c-0.8,1.1-2.1,1.7-3.4,1.7c-1.6,0.2-2.9-1-3.1-2.5C754.4,321,754.4,320.9,754.4,320.8
	L754.4,320.8z M773.3,308.9l-5.3,0.6v0.8l1.2,0.3c0.9,0.3,1,0.5,1,1.3v10.6c0,1-0.2,1.3-2.2,1.5v1h7.8v-1c-2.2-0.2-2.4-0.5-2.4-1.7
	V313c1.3-1.1,2.9-1.6,4.5-1.5c0.5,0,1.1,0,1.6,0.2c0.2-0.3,0.3-0.7,0.3-1.1c0.1-0.9-0.6-1.6-1.4-1.7c-0.1,0-0.2,0-0.3,0
	c-1.4,0-2.9,1.2-4.8,3.4L773.3,308.9L773.3,308.9z M781,317.1c0,5,3.4,8.2,7.9,8.2c2.2,0.1,4.4-0.8,5.9-2.4v-1
	c-1.2,1-2.7,1.6-4.2,1.6c-3.7,0-6.2-2.8-6.3-7h10.9c0-0.3,0.1-0.7,0-1c0-4.1-2.4-6.8-6.6-6.8C784,308.8,781,312.2,781,317.1
	L781,317.1z M788.5,310.1c2.3,0,3.6,1.9,3.6,5v0.3h-7.8C784.5,311.8,786.1,310.1,788.5,310.1L788.5,310.1z"/>
<g class="st4">
	<path class="st5" d="M298.2,72.4h-0.9c-0.8-3.5-2-4.2-5.9-4.4l-3.8-0.1v9.7l4,0c1.4,0,1.8-0.5,2.3-3.2h0.8V82H294
		c-0.4-2.6-0.9-3.2-2.3-3.2l-4,0v8.1c0,1.6,0.3,2,2.8,2.2V90h-8.9V89c2.3-0.3,2.6-0.6,2.6-2V69.8c0-1.4-0.3-1.7-2.6-2v-0.9H298
		L298.2,72.4z"/>
	<path class="st5" d="M309.3,90H300V89c2.3-0.3,2.6-0.6,2.6-2V69.8c0-1.4-0.3-1.7-2.6-2v-0.9h9.3c5.4,0,8.6,2,8.6,5.6
		c0,3-2.7,4.7-6,5.1c4.3,0.3,7.2,2.3,7.2,5.8C319.1,87.8,314.6,90,309.3,90z M308.3,68l-2.3-0.1v9.3h2.9c3.4,0,5.2-1.7,5.2-4.5
		S312.6,68.1,308.3,68z M309,78.4l-2.9,0v10.5l2.3-0.1c4.3-0.1,7-1.8,7-5.2C315.4,80.3,313.1,78.4,309,78.4z"/>
	<path class="st5" d="M330.2,89V90h-8.6V89c2.3-0.3,2.6-0.6,2.6-2V69.8c0-1.4-0.3-1.7-2.6-2v-0.9h8.6v0.9c-2.3,0.3-2.6,0.6-2.6,2V87
		C327.6,88.5,327.9,88.8,330.2,89z"/>
	<path class="st5" d="M348.7,94.4h-1.2c-3.7-2.7-7-8.3-7-14.9c0-6.6,3.3-12.2,7-14.9h1.2c-3.2,3.6-5.2,8.6-5.2,14.9
		C343.4,85.9,345.5,90.8,348.7,94.4z"/>
	<path class="st5" d="M367.1,72.4h-0.9c-0.8-3.5-2-4.2-5.9-4.4l-3.8-0.1v9.7l4,0c1.4,0,1.8-0.5,2.3-3.2h0.8V82h-0.8
		c-0.4-2.6-0.9-3.2-2.3-3.2l-4,0v8.1c0,1.6,0.3,2,2.8,2.2V90h-8.9V89c2.3-0.3,2.6-0.6,2.6-2V69.8c0-1.4-0.3-1.7-2.6-2v-0.9h16.4
		L367.1,72.4z"/>
	<path class="st5" d="M375.1,73.8c4.2,0,6.6,2.6,6.6,6.7c0,0.4,0,0.7,0,1h-10.8c0.1,4.2,2.6,7,6.3,7c1.7,0,3.2-0.6,4.2-1.6v0.9
		c-1.1,1.4-3.2,2.4-5.9,2.4c-4.5,0-7.8-3.1-7.8-8.1C367.6,77.3,370.6,73.8,375.1,73.8z M370.8,80.4l7.8,0c0-0.1,0-0.2,0-0.3
		c0-3.1-1.2-5-3.6-5C372.7,75.1,371,76.9,370.8,80.4z"/>
	<path class="st5" d="M392.2,73.8c1.8,0,3.3,0.7,4.2,1.8v-6.3c0-0.8-0.1-1.1-1-1.3l-1.2-0.3v-0.8l5.3-0.6V87c0,0.9,0.1,1.1,1.1,1.3
		l1.1,0.3v0.8l-5.3,0.6v-2.7c-0.9,1.7-3,2.8-5.3,2.8c-3.5,0-6.5-3-6.5-8.1C384.7,77.2,388,73.8,392.2,73.8z M392.8,88.5
		c1.7,0,3-0.7,3.7-1.9v-9.6c-0.5-1-1.9-1.7-3.5-1.7c-2.9,0-5,2.6-5,6.7C388,86,389.9,88.5,392.8,88.5z"/>
	<path class="st5" d="M411.6,73.8c4.2,0,6.6,2.6,6.6,6.7c0,0.4,0,0.7,0,1h-10.8c0.1,4.2,2.6,7,6.3,7c1.7,0,3.2-0.6,4.2-1.6v0.9
		c-1.1,1.4-3.2,2.4-5.9,2.4c-4.5,0-7.8-3.1-7.8-8.1C404.1,77.3,407.1,73.8,411.6,73.8z M407.4,80.4l7.8,0c0-0.1,0-0.2,0-0.3
		c0-3.1-1.2-5-3.6-5C409.2,75.1,407.5,76.9,407.4,80.4z"/>
	<path class="st5" d="M425.9,77.3c1.9-2.3,3.3-3.4,4.8-3.4c1.2,0,1.7,0.8,1.7,1.7c0,0.4-0.1,0.9-0.3,1.1c-0.3-0.1-0.9-0.2-1.6-0.2
		c-1.7,0-3.7,0.6-4.5,1.5v9.3c0,1.2,0.2,1.4,2.4,1.7V90h-7.7V89c2-0.2,2.2-0.5,2.2-1.5V77c0-0.9-0.1-1.1-1-1.3l-1.2-0.3v-0.8
		l5.3-0.6V77.3z"/>
	<path class="st5" d="M434.3,86.3c0-2.5,1.8-4,6.1-4.9l3.6-0.8v-1.4c0-2.9-1.6-4-3.9-4c-1.1,0-2.1,0.2-2.9,0.7
		c0.6,0.2,1.1,0.9,1.1,1.6c0,0.9-0.8,1.7-1.8,1.7c-1,0-1.8-0.7-1.8-1.7c0-2.1,2.9-3.6,6.4-3.6c3.6,0,5.9,1.5,5.9,4.9v8.1
		c0,1.4,0.8,2,1.7,2c0.3,0,0.6,0,0.8-0.1v0.9c-0.5,0.4-1.4,0.7-2.5,0.7c-1.6,0-2.7-0.8-3.1-2.3c-0.8,1.3-2.8,2.3-5.1,2.3
		C436.2,90.3,434.3,88.6,434.3,86.3z M440.5,88.6c1.5,0,2.7-0.6,3.4-1.7v-5.2l-2.2,0.5c-3.2,0.7-4.3,1.8-4.3,3.6
		C437.5,87.6,438.8,88.6,440.5,88.6z"/>
	<path class="st5" d="M456.2,87.5c0,1,0.3,1.3,2.2,1.5V90h-7.5V89c1.9-0.2,2.2-0.5,2.2-1.5V69.3c0-0.8-0.1-1.1-1-1.3l-1.2-0.3v-0.8
		l5.3-0.6V87.5z"/>
	<path class="st5" d="M477.3,90H468V89c2.3-0.3,2.6-0.6,2.6-2V69.8c0-1.4-0.3-1.7-2.6-2v-0.9h9.3c5.4,0,8.6,2,8.6,5.6
		c0,3-2.7,4.7-6,5.1c4.3,0.3,7.2,2.3,7.2,5.8C487.1,87.8,482.6,90,477.3,90z M476.3,68l-2.3-0.1v9.3h2.9c3.4,0,5.2-1.7,5.2-4.5
		S480.6,68.1,476.3,68z M477,78.4l-2.9,0v10.5l2.3-0.1c4.3-0.1,7-1.8,7-5.2C483.4,80.3,481.1,78.4,477,78.4z"/>
	<path class="st5" d="M494.4,84.4c0,2.7,1.4,4.1,3.7,4.1c1.7,0,2.9-0.8,3.5-1.8V77c0-0.9-0.1-1.1-1-1.3l-1.2-0.3v-0.8l5.3-0.6V87
		c0,0.9,0.1,1.1,1,1.3l1.1,0.3v0.8l-5.3,0.6v-2.5c-0.9,1.6-2.7,2.7-5.1,2.7c-3.2,0-5.4-1.8-5.4-5.1V77c0-0.9-0.1-1.1-1-1.3l-1.2-0.3
		v-0.8l5.3-0.6V84.4z"/>
	<path class="st5" d="M514.1,77.3c1.9-2.3,3.3-3.4,4.8-3.4c1.2,0,1.7,0.8,1.7,1.7c0,0.4-0.1,0.9-0.3,1.1c-0.3-0.1-0.9-0.2-1.6-0.2
		c-1.7,0-3.7,0.6-4.5,1.5v9.3c0,1.2,0.2,1.4,2.4,1.7V90h-7.7V89c2-0.2,2.2-0.5,2.2-1.5V77c0-0.9-0.1-1.1-1-1.3l-1.2-0.3v-0.8
		l5.3-0.6V77.3z"/>
	<path class="st5" d="M529.3,73.8c4.2,0,6.6,2.6,6.6,6.7c0,0.4,0,0.7,0,1H525c0.1,4.2,2.6,7,6.3,7c1.7,0,3.2-0.6,4.2-1.6v0.9
		c-1.1,1.4-3.2,2.4-5.9,2.4c-4.5,0-7.8-3.1-7.8-8.1C521.8,77.3,524.8,73.8,529.3,73.8z M525,80.4l7.8,0c0-0.1,0-0.2,0-0.3
		c0-3.1-1.2-5-3.6-5C526.8,75.1,525.2,76.9,525,80.4z"/>
	<path class="st5" d="M538.8,86.3c0-2.5,1.8-4,6.1-4.9l3.6-0.8v-1.4c0-2.9-1.6-4-3.9-4c-1.1,0-2.1,0.2-2.9,0.7
		c0.6,0.2,1.1,0.9,1.1,1.6c0,0.9-0.8,1.7-1.8,1.7c-1,0-1.8-0.7-1.8-1.7c0-2.1,2.9-3.6,6.4-3.6c3.6,0,5.9,1.5,5.9,4.9v8.1
		c0,1.4,0.8,2,1.7,2c0.3,0,0.6,0,0.8-0.1v0.9c-0.5,0.4-1.4,0.7-2.5,0.7c-1.6,0-2.7-0.8-3.1-2.3c-0.8,1.3-2.8,2.3-5.1,2.3
		C540.7,90.3,538.8,88.6,538.8,86.3z M545,88.6c1.5,0,2.7-0.6,3.4-1.7v-5.2l-2.2,0.5c-3.2,0.7-4.3,1.8-4.3,3.6
		C542,87.6,543.2,88.6,545,88.6z"/>
	<path class="st5" d="M560.3,84.4c0,2.7,1.4,4.1,3.7,4.1c1.7,0,2.9-0.8,3.5-1.8V77c0-0.9-0.1-1.1-1-1.3l-1.2-0.3v-0.8l5.3-0.6V87
		c0,0.9,0.1,1.1,1,1.3l1.1,0.3v0.8l-5.3,0.6v-2.5c-0.9,1.6-2.7,2.7-5.1,2.7c-3.2,0-5.4-1.8-5.4-5.1V77c0-0.9-0.1-1.1-1-1.3l-1.2-0.3
		v-0.8l5.3-0.6V84.4z"/>
	<path class="st5" d="M308.5,115.4c0-4.9,3.5-8.3,8.2-8.3c4.5,0,8,3.3,8,8.2c0,4.9-3.6,8.3-8.2,8.3
		C312,123.6,308.5,120.3,308.5,115.4z M321.2,115.6c0-4.3-2-7.1-4.7-7.1c-2.8,0-4.5,2.6-4.5,6.7c0,4.3,2,7.1,4.7,7.1
		C319.6,122.3,321.2,119.7,321.2,115.6z"/>
	<path class="st5" d="M334.9,122.3v0.9h-7.8v-0.9c2-0.2,2.2-0.5,2.2-1.5v-12h-2.2v-0.7l2.2-0.8v-2.8c0-3.5,1.9-5.5,4.9-5.5
		c2.2,0,3.4,1,3.4,2.4c0,0.8-0.6,1.5-1.5,1.5c-0.8,0-1.5-0.7-1.5-1.5c0-0.4,0.2-0.8,0.5-1.1c-0.1,0-0.3,0-0.4,0
		c-1.4,0-2.3,0.9-2.3,3.2v4l4.4-0.1v1.4l-4.4-0.1v11.9C332.5,121.9,332.7,122.1,334.9,122.3z"/>
	<path class="st5" d="M354.5,122.3v0.9h-8.6v-0.9c2.3-0.3,2.6-0.6,2.6-2v-17.3c0-1.4-0.3-1.7-2.6-2v-0.9h8.6v0.9
		c-2.3,0.3-2.6,0.6-2.6,2v17.3C352,121.8,352.2,122.1,354.5,122.3z"/>
	<path class="st5" d="M361.8,109.9c0.9-1.6,2.8-2.7,5.2-2.7c3.2,0,5.5,1.8,5.5,5v8.7c0,1,0.2,1.3,2.2,1.5v0.9h-7.4v-0.9
		c1.8-0.2,2-0.4,2-1.4v-8c0-2.7-1.4-4-3.7-4c-1.8,0-3.1,0.8-3.7,1.8v10.1c0,1,0.2,1.2,2,1.4v0.9h-7.4v-0.9c1.9-0.2,2.2-0.5,2.2-1.5
		v-10.5c0-0.9-0.1-1.1-1-1.3l-1.2-0.3v-0.8l5.3-0.6V109.9z"/>
	<path class="st5" d="M374.6,108.4v-1h7.8v1c-2.1,0.2-2.4,0.6-1.7,2.5l3.3,8.8l3.3-8.8c0.7-1.9,0.4-2.3-1.7-2.5v-1h5.8v1
		c-1.5,0.2-1.9,0.5-2.8,2.8l-4.9,12.1h-1.4l-5-12.3C376.5,109.1,376.1,108.7,374.6,108.4z"/>
	<path class="st5" d="M399.5,107.2c4.2,0,6.6,2.6,6.6,6.7c0,0.4,0,0.7,0,1h-10.8c0.1,4.2,2.6,7,6.3,7c1.7,0,3.2-0.6,4.2-1.6v0.9
		c-1.1,1.4-3.2,2.4-5.9,2.4c-4.5,0-7.8-3.1-7.8-8.1C392,110.6,395,107.2,399.5,107.2z M395.2,113.8l7.8,0c0-0.1,0-0.2,0-0.3
		c0-3.1-1.2-5-3.6-5C397,108.5,395.4,110.2,395.2,113.8z"/>
	<path class="st5" d="M415.3,107.2c2.4,0,4.2,0.5,5,1.1l0.1,3.8h-0.9c-0.5-2.4-2.1-3.6-4.2-3.6c-2,0-3.3,0.9-3.3,2.4
		c0,1.5,1.2,2.2,3.2,2.8l1.3,0.4c2.9,0.8,4.6,2.3,4.6,4.9c0,2.8-2.8,4.7-6.2,4.7c-2.5,0-4.5-0.6-5.7-1.4l-0.1-4h0.9
		c0.6,2.8,2.6,4.1,4.9,4.1c2.1,0,3.5-1.1,3.5-2.6c0-1.5-0.9-2.3-3.1-2.9l-1.3-0.4c-2.9-0.8-4.7-2.2-4.7-4.7
		C409.2,108.9,411.7,107.2,415.3,107.2z"/>
	<path class="st5" d="M425.4,108.9h-2.1v-0.7l4.8-3.8h0.4v3.2l4.7-0.1v1.4l-4.7-0.1v9.7c0,2.6,1.1,3.5,2.7,3.5
		c0.9,0,1.7-0.3,2.3-0.7v0.9c-0.7,0.7-2.4,1.4-3.9,1.4c-2.2,0-4.2-1.2-4.2-4.6V108.9z"/>
	<path class="st5" d="M440.2,120.9c0,1,0.3,1.3,2.2,1.5v0.9h-7.5v-0.9c1.9-0.2,2.2-0.5,2.2-1.5v-10.5c0-0.9-0.1-1.1-1-1.3l-1.2-0.3
		v-0.8l5.3-0.6V120.9z M436.4,102.2c0-1,0.9-1.9,1.9-1.9s1.9,0.8,1.9,1.9c0,1-0.9,1.9-1.9,1.9S436.4,103.2,436.4,102.2z"/>
	<path class="st5" d="M451.6,107.2c1.3,0,2.4,0.2,3.3,0.6l5.6-0.3v1.4l-4.2-0.2c1.3,0.7,2.1,2.2,2.1,3.8c0,3.4-3.2,5.4-6.6,5.4
		c-0.5,0-1.1-0.1-1.9-0.2c-1.4,0.4-2,1.1-2,1.9c0,1.1,0.9,1.6,2.6,1.6h3.5c3.7,0,5.9,1.5,5.9,4.2c0,3.3-3.5,5.7-8.1,5.7
		c-4.7,0-7.5-1.6-7.5-4.1c0-1.7,1.6-2.9,4.5-3.4c-2-0.1-3.5-1.1-3.5-2.8s1.4-2.8,3.6-3.4c-2.3-0.6-3.9-2.3-3.9-4.8
		C444.9,109.3,447.9,107.2,451.6,107.2z M451.8,129.8c3.2,0,5.3-1.4,5.3-3.4c0-1.6-1.1-2.5-3.7-2.5h-3.7c-1.8,0.3-2.7,1.3-2.7,2.8
		C446.9,128.5,448.7,129.8,451.8,129.8z M451.7,116.8c2,0,3.4-1.7,3.4-4.1c0-2.6-1.4-4.3-3.6-4.3c-2.1,0-3.4,1.7-3.4,4.1
		C448.1,115.1,449.6,116.8,451.7,116.8z"/>
	<path class="st5" d="M462.1,119.6c0-2.5,1.8-4,6.1-4.9l3.6-0.8v-1.4c0-2.9-1.6-4-3.9-4c-1.1,0-2.1,0.2-2.9,0.7
		c0.6,0.2,1.1,0.9,1.1,1.6c0,0.9-0.8,1.7-1.8,1.7c-1,0-1.8-0.7-1.8-1.7c0-2.1,2.9-3.6,6.4-3.6c3.6,0,5.9,1.5,5.9,4.9v8.1
		c0,1.4,0.8,2,1.7,2c0.3,0,0.6,0,0.8-0.1v0.9c-0.5,0.4-1.4,0.7-2.5,0.7c-1.6,0-2.7-0.8-3.1-2.3c-0.8,1.3-2.8,2.3-5.1,2.3
		C464.1,123.6,462.1,122,462.1,119.6z M468.3,122c1.5,0,2.7-0.6,3.4-1.7V115l-2.2,0.5c-3.2,0.7-4.3,1.8-4.3,3.6
		C465.3,120.9,466.6,122,468.3,122z"/>
	<path class="st5" d="M480.6,108.9h-2.1v-0.7l4.8-3.8h0.4v3.2l4.7-0.1v1.4l-4.7-0.1v9.7c0,2.6,1.1,3.5,2.7,3.5
		c0.9,0,1.7-0.3,2.3-0.7v0.9c-0.7,0.7-2.4,1.4-3.9,1.4c-2.2,0-4.2-1.2-4.2-4.6V108.9z"/>
	<path class="st5" d="M495.4,120.9c0,1,0.3,1.3,2.2,1.5v0.9h-7.5v-0.9c1.9-0.2,2.2-0.5,2.2-1.5v-10.5c0-0.9-0.1-1.1-1-1.3l-1.2-0.3
		v-0.8l5.3-0.6V120.9z M491.6,102.2c0-1,0.9-1.9,1.9-1.9s1.9,0.8,1.9,1.9c0,1-0.9,1.9-1.9,1.9S491.6,103.2,491.6,102.2z"/>
	<path class="st5" d="M499.9,115.4c0-4.9,3.5-8.3,8.2-8.3c4.5,0,8,3.3,8,8.2c0,4.9-3.6,8.3-8.2,8.3
		C503.4,123.6,499.9,120.3,499.9,115.4z M512.6,115.6c0-4.3-2-7.1-4.7-7.1c-2.8,0-4.5,2.6-4.5,6.7c0,4.3,2,7.1,4.7,7.1
		C510.9,122.3,512.6,119.7,512.6,115.6z"/>
	<path class="st5" d="M523.8,109.9c0.9-1.6,2.8-2.7,5.2-2.7c3.2,0,5.5,1.8,5.5,5v8.7c0,1,0.2,1.3,2.2,1.5v0.9h-7.4v-0.9
		c1.8-0.2,2-0.4,2-1.4v-8c0-2.7-1.4-4-3.7-4c-1.8,0-3.1,0.8-3.7,1.8v10.1c0,1,0.2,1.2,2,1.4v0.9h-7.4v-0.9c1.9-0.2,2.2-0.5,2.2-1.5
		v-10.5c0-0.9-0.1-1.1-1-1.3l-1.2-0.3v-0.8l5.3-0.6V109.9z"/>
	<path class="st5" d="M537.7,98h1.2c3.7,2.7,7,8.3,7,14.9c0,6.6-3.3,12.2-7,14.9h-1.2c3.2-3.6,5.2-8.6,5.2-14.9
		C542.9,106.6,540.8,101.6,537.7,98z"/>
</g>
</svg>
