<?xml version="1.0" encoding="utf-8"?>
<!-- Generator: Adobe Illustrator 27.4.1, SVG Export Plug-In . SVG Version: 6.00 Build 0)  -->
<svg version="1.1" id="Layer_1" xmlns="http://www.w3.org/2000/svg" xmlns:xlink="http://www.w3.org/1999/xlink" x="0px" y="0px"
	 viewBox="0 0 855 380" style="enable-background:new 0 0 855 380;" xml:space="preserve">
<style type="text/css">
	.st0{fill:#FFFFFF;}
	.st1{fill:#657571;}
	.st2{fill:#CCC8C3;}
	.st3{fill:#B7B7B7;}
</style>
<g id="Group_4810" transform="translate(0 22)">
	<rect id="Rectangle_1034" y="-22" class="st0" width="855" height="380"/>
</g>
<path id="Path_2629" class="st1" d="M297.5,65.7h-16.5v1c2.3,0.3,2.6,0.6,2.6,2v17.4c0,1.4-0.3,1.7-2.6,2V89h8.9v-1
	c-2.5-0.3-2.8-0.7-2.8-2.2v-8.1l4.1,0c1.5,0,1.9,0.6,2.4,3.3h0.8v-7.7h-0.8c-0.5,2.7-0.9,3.3-2.4,3.3l-4.1,0v-9.8l3.8,0.1
	c4,0.1,5.2,0.9,6,4.4h0.9L297.5,65.7z M318.7,82.3c0-3.6-3-5.6-7.3-5.9c3.4-0.4,6-2.1,6-5.1c0-3.5-3.2-5.6-8.6-5.6h-9.3v1
	c2.3,0.3,2.6,0.6,2.6,2v17.4c0,1.4-0.3,1.7-2.6,2V89h9.3C314.2,89,318.7,86.8,318.7,82.3z M313.8,71.7c0,2.8-1.8,4.5-5.3,4.5h-3
	v-9.4l2.3,0.1C312.2,67,313.8,68.9,313.8,71.7z M314.9,82.6c0,3.4-2.7,5.1-7.1,5.2l-2.3,0.1V77.3l3,0
	C312.7,77.3,314.9,79.3,314.9,82.6L314.9,82.6z M327.3,86.1V68.7c0-1.4,0.3-1.7,2.6-2v-0.9h-8.7v1c2.3,0.3,2.6,0.6,2.6,2v17.4
	c0,1.4-0.3,1.7-2.6,2V89h8.7v-1C327.5,87.8,327.3,87.5,327.3,86.1L327.3,86.1z M343.2,78.5c-0.2-5.5,1.7-10.8,5.3-15h-1.2
	c-3.7,2.7-7,8.3-7,15s3.3,12.3,7,15h1.2C344.9,89.3,343,84,343.2,78.5z M366.8,65.7h-16.5v1c2.3,0.3,2.6,0.6,2.6,2v17.4
	c0,1.4-0.3,1.7-2.6,2V89h8.9v-1c-2.5-0.3-2.8-0.7-2.8-2.2v-8.1l4.1,0c1.5,0,1.9,0.6,2.4,3.3h0.8v-7.7h-0.8c-0.5,2.7-0.9,3.3-2.4,3.3
	l-4.1,0v-9.8l3.8,0.1c4,0.1,5.2,0.9,6,4.4h0.9L366.8,65.7z M367.5,81.1c0,5,3.4,8.2,7.9,8.2c2.2,0.1,4.4-0.8,5.9-2.4v-1
	c-1.2,1-2.7,1.6-4.2,1.6c-3.7,0-6.2-2.8-6.3-7h10.9c0-0.3,0.1-0.7,0-1c0-4.1-2.4-6.8-6.6-6.8C370.6,72.8,367.5,76.2,367.5,81.1
	L367.5,81.1z M375,74.1c2.3,0,3.6,1.9,3.6,5v0.3l-7.8,0C371,75.8,372.6,74.1,375,74.1L375,74.1z M384.7,81.2c0,5.1,3.1,8.1,6.6,8.1
	c2.2,0.1,4.2-1,5.3-2.9v2.7l5.3-0.6v-0.8l-1.1-0.3c-0.9-0.2-1.1-0.5-1.1-1.3v-21l-5.4,0.6v0.8l1.2,0.3c0.9,0.3,1,0.5,1,1.3v6.3
	c-1.1-1.2-2.6-1.8-4.2-1.8C388.1,72.8,384.7,76.2,384.7,81.2L384.7,81.2z M388,80.9c0-4.1,2.1-6.8,5-6.8c1.4-0.1,2.8,0.6,3.5,1.8
	v9.7c-0.8,1.3-2.2,2.1-3.7,1.9C390,87.5,388,85,388,80.9L388,80.9z M404.3,81.1c0,5,3.4,8.2,7.9,8.2c2.2,0.1,4.4-0.8,5.9-2.4v-1
	c-1.2,1-2.7,1.6-4.2,1.6c-3.7,0-6.2-2.8-6.3-7h10.9c0-0.3,0.1-0.7,0-1c0-4.1-2.4-6.8-6.6-6.8C407.3,72.8,404.3,76.2,404.3,81.1
	L404.3,81.1z M411.8,74.1c2.3,0,3.6,1.9,3.6,5v0.3l-7.8,0C407.8,75.8,409.4,74.1,411.8,74.1L411.8,74.1z M426.2,72.9l-5.3,0.6v0.8
	l1.2,0.3c0.9,0.3,1,0.5,1,1.3v10.6c0,1-0.2,1.3-2.2,1.5v1h7.8v-1c-2.2-0.2-2.4-0.5-2.4-1.7V77c1.3-1.1,2.9-1.6,4.5-1.5
	c0.5,0,1.1,0,1.6,0.2c0.2-0.3,0.3-0.7,0.3-1.1c0.1-0.9-0.6-1.6-1.4-1.7c-0.1,0-0.2,0-0.3,0c-1.4,0-2.9,1.2-4.8,3.4L426.2,72.9z
	 M439.3,89.3c2,0.1,3.9-0.8,5.2-2.4c0.3,1.4,1.6,2.4,3.1,2.3c0.9,0,1.8-0.2,2.5-0.7v-0.9c-0.3,0.1-0.6,0.2-0.8,0.1
	c-1,0-1.8-0.5-1.8-2v-8.1c0-3.4-2.3-4.9-5.9-4.9c-3.6,0-6.4,1.5-6.4,3.7c0,1,0.8,1.7,1.7,1.7c0,0,0,0,0.1,0c0.9,0,1.7-0.7,1.8-1.6
	c0,0,0,0,0-0.1c0-0.7-0.4-1.4-1.1-1.6c0.9-0.5,1.9-0.7,2.9-0.7c2.4,0,3.9,1,3.9,4v1.4l-3.6,0.8c-4.3,1-6.1,2.4-6.1,5
	C434.6,87.7,436.6,89.3,439.3,89.3L439.3,89.3z M437.9,84.8c0-1.8,1.1-2.9,4.4-3.6l2.2-0.5V86c-0.8,1.1-2.1,1.7-3.4,1.7
	c-1.6,0.1-2.9-1-3.1-2.6C437.9,85,437.9,84.9,437.9,84.8L437.9,84.8z M456.8,65.1l-5.4,0.6v0.8l1.2,0.3c0.9,0.3,1,0.5,1,1.3v18.4
	c0,1-0.3,1.3-2.2,1.5V89h7.6v-1c-1.9-0.2-2.2-0.5-2.2-1.5L456.8,65.1z M487.8,82.3c0-3.6-3-5.6-7.3-5.9c3.4-0.4,6-2.1,6-5.1
	c0-3.5-3.2-5.6-8.6-5.6h-9.3v1c2.3,0.3,2.6,0.6,2.6,2v17.4c0,1.4-0.3,1.7-2.6,2V89h9.3C483.3,89,487.8,86.8,487.8,82.3z M483,71.7
	c0,2.8-1.8,4.5-5.3,4.5h-3v-9.4l2.3,0.1C481.3,67,483,68.9,483,71.7z M484.1,82.6c0,3.4-2.7,5.1-7.1,5.2l-2.3,0.1V77.3l3,0
	C481.8,77.3,484.1,79.3,484.1,82.6L484.1,82.6z M495.2,72.9l-5.4,0.6v0.8l1.2,0.3c0.9,0.3,1,0.5,1,1.3v8.2c0,3.4,2.2,5.2,5.4,5.2
	c2.1,0.1,4.1-1,5.2-2.7v2.6l5.3-0.6v-0.8l-1.1-0.3c-0.9-0.2-1-0.5-1-1.3V72.9l-5.4,0.6v0.8l1.2,0.3c0.9,0.3,1,0.5,1,1.3v9.7
	c-0.8,1.2-2.1,1.9-3.6,1.9c-2.4,0-3.8-1.4-3.8-4.1L495.2,72.9z M515,72.9l-5.3,0.6v0.8l1.2,0.3c0.9,0.3,1,0.5,1,1.3v10.6
	c0,1-0.2,1.3-2.2,1.5v1h7.8v-1c-2.2-0.2-2.4-0.5-2.4-1.7V77c1.3-1.1,2.9-1.6,4.5-1.5c0.5,0,1.1,0,1.6,0.2c0.2-0.3,0.3-0.7,0.3-1.1
	c0.1-0.9-0.6-1.6-1.4-1.7c-0.1,0-0.2,0-0.3,0c-1.4,0-2.9,1.2-4.8,3.4L515,72.9z M522.8,81.1c0,5,3.4,8.2,7.9,8.2
	c2.2,0.1,4.4-0.8,5.9-2.4v-1c-1.2,1-2.7,1.6-4.2,1.6c-3.7,0-6.2-2.8-6.3-7h10.9c0-0.3,0.1-0.7,0-1c0-4.1-2.4-6.8-6.6-6.8
	C525.8,72.8,522.8,76.2,522.8,81.1L522.8,81.1z M530.3,74.1c2.3,0,3.6,1.9,3.6,5v0.3l-7.8,0C526.2,75.8,527.9,74.1,530.3,74.1
	L530.3,74.1z M544.5,89.3c2,0.1,3.9-0.8,5.2-2.4c0.3,1.4,1.6,2.4,3.1,2.3c0.9,0,1.8-0.2,2.5-0.7v-0.9c-0.3,0.1-0.6,0.2-0.8,0.1
	c-1,0-1.8-0.5-1.8-2v-8.1c0-3.4-2.3-4.9-5.9-4.9c-3.6,0-6.4,1.5-6.4,3.7c0,1,0.8,1.7,1.7,1.7c0,0,0,0,0.1,0c0.9,0,1.7-0.7,1.8-1.6
	c0,0,0,0,0-0.1c0-0.7-0.4-1.4-1.1-1.6c0.9-0.5,1.9-0.7,2.9-0.7c2.4,0,3.9,1,3.9,4v1.4l-3.6,0.8c-4.3,1-6.1,2.4-6.1,5
	C539.9,87.7,541.9,89.3,544.5,89.3L544.5,89.3z M543.1,84.8c0-1.8,1.1-2.9,4.4-3.6l2.2-0.5V86c-0.8,1.1-2.1,1.7-3.4,1.7
	c-1.6,0.1-2.9-1-3.1-2.5C543.1,85,543.1,84.9,543.1,84.8L543.1,84.8z M561.6,72.9l-5.4,0.6v0.8l1.2,0.3c0.9,0.3,1,0.5,1,1.3v8.2
	c0,3.4,2.2,5.2,5.4,5.2c2.1,0.1,4.1-1,5.2-2.7v2.6l5.3-0.6v-0.8l-1.1-0.3c-0.9-0.2-1-0.5-1-1.3V72.9l-5.4,0.6v0.8l1.2,0.3
	c0.9,0.3,1,0.5,1,1.3v9.7c-0.8,1.2-2.1,1.9-3.6,1.9c-2.4,0-3.8-1.4-3.8-4.1L561.6,72.9z M316.2,124.3c4.4,0.1,8.1-3.4,8.2-7.8
	c0-0.2,0-0.3,0-0.5c0.2-4.3-3.1-8-7.5-8.2c-0.2,0-0.4,0-0.5,0c-4.4-0.1-8.1,3.4-8.2,7.8c0,0.2,0,0.4,0,0.5c-0.2,4.3,3.1,8,7.5,8.2
	C315.8,124.3,316,124.3,316.2,124.3L316.2,124.3z M316.4,123c-2.8,0-4.8-2.8-4.8-7.2c0-4.1,1.7-6.8,4.6-6.8c2.8,0,4.8,2.8,4.8,7.2
	C321,120.4,319.3,123,316.4,123L316.4,123z M332.3,121.4v-11.9l4.5,0.1v-1.4l-4.5,0.1v-4.1c0-2.3,0.9-3.2,2.3-3.2c0.1,0,0.3,0,0.4,0
	c-0.3,0.3-0.5,0.7-0.5,1.1c0,0.8,0.7,1.5,1.5,1.5c0.8,0,1.5-0.7,1.5-1.5c0,0,0,0,0,0c0-1.3-1.2-2.4-3.4-2.4c-3,0-5,2-5,5.6v2.9
	l-2.2,0.8v0.7h2.2v12c0,1-0.2,1.3-2.2,1.5v1h7.8v-1C332.5,122.8,332.3,122.6,332.3,121.4L332.3,121.4z M351.9,121v-17.4
	c0-1.4,0.3-1.7,2.6-2v-1h-8.7v1c2.3,0.3,2.6,0.6,2.6,2v17.4c0,1.4-0.3,1.7-2.6,2v0.9h8.7v-1C352.2,122.8,351.9,122.5,351.9,121
	L351.9,121z M361.8,107.9l-5.3,0.6v0.8l1.2,0.3c0.9,0.3,1,0.5,1,1.3v10.6c0,1-0.3,1.3-2.2,1.5v0.9h7.4v-1c-1.8-0.2-2.1-0.5-2.1-1.4
	v-10.2c0.8-1.2,2.3-1.9,3.8-1.9c2.3,0,3.8,1.4,3.8,4.1v8c0,1-0.2,1.2-2.1,1.4v0.9h7.4v-1c-2-0.2-2.2-0.5-2.2-1.5v-8.7
	c0-3.3-2.3-5.1-5.5-5.1c-2.1-0.1-4.1,0.9-5.3,2.7L361.8,107.9z M377.4,111.6l5,12.4h1.4l4.9-12.2c0.9-2.3,1.3-2.5,2.8-2.8v-1h-5.9v1
	c2.1,0.2,2.5,0.6,1.8,2.5l-3.3,8.8l-3.3-8.8c-0.7-1.9-0.3-2.3,1.8-2.5v-1h-7.8v1C376.2,109.3,376.6,109.7,377.4,111.6L377.4,111.6z
	 M392.2,116.1c0,5,3.4,8.2,7.9,8.2c2.2,0.1,4.4-0.8,5.9-2.4v-1c-1.2,1-2.7,1.6-4.2,1.6c-3.7,0-6.2-2.8-6.3-7h10.9c0-0.3,0.1-0.7,0-1
	c0-4.1-2.4-6.8-6.6-6.8C395.2,107.8,392.2,111.2,392.2,116.1L392.2,116.1z M399.7,109.1c2.3,0,3.6,1.9,3.6,5v0.3l-7.8,0
	C395.6,110.8,397.3,109.1,399.7,109.1L399.7,109.1z M409.6,112.3c0,2.5,1.8,3.9,4.7,4.7l1.3,0.4c2.2,0.7,3.1,1.5,3.1,2.9
	c0,1.5-1.3,2.7-3.5,2.7c-2.5,0.1-4.6-1.7-5-4.1h-0.9l0.1,4c1.7,1,3.7,1.5,5.7,1.4c3.4,0,6.2-1.9,6.2-4.7c0-2.6-1.7-4.1-4.6-4.9
	l-1.3-0.4c-2-0.6-3.2-1.3-3.2-2.8c0-1.5,1.3-2.4,3.3-2.4c2.2-0.1,4,1.5,4.3,3.7h0.9l-0.1-3.9c-1.5-0.8-3.3-1.2-5.1-1.1
	C412,107.8,409.6,109.5,409.6,112.3L409.6,112.3z M425.9,119.6c0,3.5,2,4.7,4.2,4.7c1.4,0,2.9-0.5,4-1.4v-1
	c-0.7,0.5-1.5,0.7-2.3,0.7c-1.5,0-2.7-0.9-2.7-3.5v-9.7l4.8,0.1v-1.4l-4.8,0.1V105h-0.5l-4.9,3.8v0.7h2.1L425.9,119.6z M438.8,104.6
	c1,0,1.8-0.9,1.8-1.9c0-1-0.9-1.8-1.9-1.8c-1,0-1.8,0.9-1.8,1.9C436.9,103.8,437.8,104.7,438.8,104.6L438.8,104.6z M440.7,107.9
	l-5.4,0.6v0.8l1.2,0.3c0.9,0.3,1,0.5,1,1.3v10.6c0,1-0.3,1.3-2.2,1.5v0.9h7.6v-1c-1.9-0.2-2.2-0.5-2.2-1.5L440.7,107.9z
	 M445.5,113.3c0,2.4,1.7,4.4,4,4.9c-2.3,0.6-3.6,1.8-3.6,3.4c0,1.6,1.5,2.7,3.5,2.8c-3,0.5-4.5,1.8-4.5,3.5c0,2.4,2.9,4.1,7.6,4.1
	c4.6,0,8.1-2.3,8.1-5.7c0-2.7-2.1-4.2-5.9-4.2H451c-1.7,0-2.6-0.6-2.6-1.6c0-0.9,0.6-1.5,2-1.9c0.6,0.1,1.3,0.2,1.9,0.2
	c3.5,0,6.7-2.1,6.7-5.5c0-1.6-0.8-3-2.1-3.8l4.3,0.2v-1.4l-5.6,0.3c-1-0.4-2.2-0.6-3.3-0.6C448.5,107.8,445.5,110,445.5,113.3
	L445.5,113.3z M448.7,113.1c0-2.4,1.4-4.2,3.5-4.2c2.3,0,3.6,1.7,3.6,4.3c0,2.5-1.5,4.1-3.5,4.1
	C450.2,117.4,448.7,115.8,448.7,113.1L448.7,113.1z M447.5,127.4c0-1.4,0.9-2.5,2.7-2.8h3.8c2.7,0,3.8,1,3.8,2.5
	c0,2-2.1,3.4-5.3,3.4C449.3,130.6,447.5,129.2,447.5,127.4L447.5,127.4z M467.4,124.3c2,0.1,3.9-0.8,5.2-2.4
	c0.3,1.4,1.6,2.4,3.1,2.3c0.9,0,1.8-0.2,2.5-0.7v-0.9c-0.3,0.1-0.6,0.2-0.8,0.1c-1,0-1.8-0.5-1.8-2v-8.1c0-3.4-2.3-4.9-5.9-4.9
	c-3.6,0-6.4,1.5-6.4,3.7c0,1,0.8,1.7,1.7,1.7c0,0,0,0,0.1,0c0.9,0,1.7-0.7,1.8-1.6c0,0,0,0,0-0.1c0-0.7-0.4-1.4-1.1-1.6
	c0.9-0.5,1.9-0.7,2.9-0.7c2.4,0,3.9,1,3.9,4v1.4l-3.6,0.8c-4.3,1-6.1,2.4-6.1,5C462.8,122.7,464.8,124.3,467.4,124.3L467.4,124.3z
	 M466,119.8c0-1.8,1.1-2.9,4.4-3.6l2.2-0.5v5.3c-0.8,1.1-2.1,1.7-3.4,1.7c-1.6,0.1-2.9-1-3.1-2.5C466,120,466,119.9,466,119.8
	L466,119.8z M481.5,119.6c0,3.5,2,4.7,4.2,4.7c1.4,0,2.9-0.5,4-1.4v-1c-0.7,0.5-1.5,0.7-2.3,0.7c-1.5,0-2.7-0.9-2.7-3.5v-9.7
	l4.8,0.1v-1.4l-4.8,0.1V105h-0.5l-4.9,3.8v0.7h2.1L481.5,119.6z M499.6,124.3c4.4,0.1,8.1-3.4,8.2-7.8c0-0.2,0-0.3,0-0.5
	c0.2-4.3-3.1-8-7.5-8.2c-0.2,0-0.4,0-0.5,0c-4.4-0.1-8.1,3.4-8.2,7.8c0,0.2,0,0.4,0,0.5c-0.2,4.3,3.1,8,7.5,8.2
	C499.2,124.3,499.4,124.3,499.6,124.3L499.6,124.3z M499.8,123c-2.8,0-4.8-2.8-4.8-7.2c0-4.1,1.7-6.8,4.6-6.8c2.8,0,4.8,2.8,4.8,7.2
	C504.3,120.4,502.7,123,499.8,123L499.8,123z M515.6,107.9l-5.3,0.6v0.8l1.2,0.3c0.9,0.3,1,0.5,1,1.3v10.6c0,1-0.2,1.3-2.2,1.5v1
	h7.8v-1c-2.2-0.2-2.4-0.5-2.4-1.7V112c1.3-1.1,2.9-1.6,4.5-1.5c0.5,0,1.1,0,1.6,0.2c0.2-0.3,0.3-0.7,0.3-1.1
	c0.1-0.9-0.6-1.6-1.4-1.7c-0.1,0-0.2,0-0.3,0c-1.4,0-2.9,1.2-4.8,3.4L515.6,107.9z M524.5,112.3c0,2.5,1.8,3.9,4.7,4.7l1.3,0.4
	c2.2,0.7,3.1,1.5,3.1,2.9c0,1.5-1.3,2.7-3.5,2.7c-2.5,0.1-4.6-1.7-5-4.1h-0.9l0.1,4c1.7,1,3.7,1.5,5.7,1.4c3.4,0,6.2-1.9,6.2-4.7
	c0-2.6-1.7-4.1-4.6-4.9l-1.3-0.4c-2-0.6-3.2-1.3-3.2-2.8c0-1.5,1.3-2.4,3.3-2.4c2.2-0.1,4,1.5,4.3,3.7h0.9l-0.1-3.9
	c-1.5-0.8-3.3-1.2-5.1-1.1C527,107.8,524.5,109.5,524.5,112.3z M543.9,113.5c0.2,5.5-1.7,10.8-5.3,15h1.2c3.7-2.7,7-8.3,7-15
	s-3.3-12.3-7-15h-1.2C542.2,102.7,544.1,108.1,543.9,113.5L543.9,113.5z"/>
<path id="Path_2630" class="st1" d="M96.7,280.1c1,0,1.9-0.2,2.7-0.7c0.7-0.4,1.3-1,1.8-1.7c0.5-0.7,0.8-1.6,1-2.4
	c0.2-0.9,0.3-1.9,0.3-2.8v-11.9h4.5v11.9c0,1.5-0.2,3-0.6,4.5c-0.4,1.3-1,2.6-1.8,3.7c-0.8,1.1-1.9,1.9-3.2,2.5
	c-1.5,0.7-3.1,1-4.7,0.9c-1.6,0-3.3-0.3-4.8-1c-1.2-0.6-2.3-1.5-3.2-2.6c-0.8-1.1-1.4-2.4-1.8-3.7c-0.4-1.4-0.5-2.9-0.5-4.4v-11.9
	H91v11.9c0,1,0.1,1.9,0.3,2.9c0.2,0.9,0.5,1.7,1,2.4C93.2,279.3,94.9,280.2,96.7,280.1L96.7,280.1z M125.5,266.7
	c-0.3-0.2-0.5-0.4-0.8-0.6c-0.5-0.3-1-0.6-1.5-0.8c-0.6-0.3-1.3-0.5-1.9-0.6c-0.7-0.2-1.4-0.3-2.1-0.3c-1-0.1-2,0.2-2.8,0.7
	c-0.6,0.5-1,1.2-0.9,1.9c0,0.4,0.1,0.8,0.3,1.2c0.3,0.4,0.6,0.6,1,0.8c0.5,0.3,1.1,0.5,1.7,0.7c0.7,0.2,1.4,0.4,2.3,0.6
	c1.1,0.3,2.2,0.6,3.1,1c0.9,0.3,1.7,0.8,2.4,1.3c0.6,0.5,1.1,1.2,1.5,1.9c0.4,0.9,0.6,1.8,0.5,2.7c0,1.1-0.2,2.2-0.7,3.2
	c-0.4,0.9-1.1,1.6-1.9,2.2c-0.8,0.6-1.8,1-2.8,1.2c-1.1,0.3-2.2,0.4-3.3,0.4c-1.8,0-3.5-0.3-5.2-0.8c-1.7-0.5-3.2-1.3-4.6-2.2l2-3.9
	c0.3,0.3,0.7,0.6,1.1,0.8c0.6,0.4,1.2,0.7,1.8,1c0.8,0.3,1.5,0.6,2.3,0.8c0.9,0.2,1.7,0.3,2.6,0.3c2.5,0,3.8-0.8,3.8-2.4
	c0-0.5-0.1-0.9-0.4-1.3c-0.3-0.4-0.8-0.7-1.2-0.9c-0.6-0.3-1.3-0.5-1.9-0.7c-0.7-0.2-1.6-0.5-2.5-0.7c-1-0.3-2-0.6-2.9-1
	c-0.8-0.3-1.4-0.8-2.1-1.3c-0.5-0.5-1-1.1-1.2-1.7c-0.3-0.7-0.4-1.5-0.4-2.3c0-1.1,0.2-2.2,0.7-3.2c0.4-0.9,1-1.7,1.8-2.3
	c0.8-0.6,1.7-1.1,2.7-1.4c1.1-0.3,2.2-0.5,3.3-0.5c1.6,0,3.1,0.2,4.6,0.8c1.3,0.5,2.5,1.1,3.6,1.8L125.5,266.7z M144.2,269v15h-4.6
	v-23.4h3.5l12.2,15.4v-15.3h4.6V284h-3.7L144.2,269z M171.5,260.6h4l8.9,23.4h-4.7l-2.2-5.8h-8.2l-2.1,5.8h-4.7L171.5,260.6z
	 M176.8,275l-3.2-9.2l-3.4,9.2H176.8z M187.4,260.6l6.3,17.7l6.3-17.7h4.8l-9.1,23.4h-3.8l-9.2-23.4H187.4z M210,260.6l5.8,11.3
	l5.9-11.3h4.9l-8.5,15.2v8.2h-4.5v-8.2l-8.5-15.2H210z M229.4,299.3v-4.4h4.4v4.4H229.4z M99.2,299.3v-4.4h4.4v4.4H99.2z
	 M123.8,319.3c-0.8,0-1.6-0.1-2.3-0.4c-0.7-0.3-1.3-0.6-1.9-1.2c-0.5-0.5-0.9-1.1-1.2-1.7c-0.3-0.7-0.5-1.4-0.4-2.2
	c0-0.8,0.2-1.6,0.5-2.3c0.4-0.7,0.9-1.3,1.5-1.8c0.7-0.5,1.5-0.9,2.3-1.1c1-0.3,2-0.4,3-0.4c0.8,0,1.5,0.1,2.3,0.2
	c0.7,0.1,1.3,0.3,2,0.6v-1c0.1-1-0.3-1.9-1-2.6c-0.8-0.7-1.8-1-2.9-0.9c-0.9,0-1.8,0.2-2.7,0.5c-1,0.4-1.9,0.9-2.7,1.5l-1.4-2.8
	c2.1-1.4,4.6-2.2,7.2-2.2c2.1-0.1,4.2,0.5,5.8,1.8c1.4,1.4,2.2,3.3,2.1,5.3v5.4c0,0.3,0.1,0.7,0.2,1c0.2,0.2,0.5,0.3,0.8,0.3v3.8
	c-0.6,0.1-1.3,0.2-1.9,0.2c-0.7,0-1.4-0.2-1.9-0.6c-0.5-0.4-0.8-0.9-0.8-1.5l-0.1-1c-0.7,1-1.7,1.8-2.8,2.3
	C126.3,319.1,125.1,319.3,123.8,319.3z M125.1,316.1c0.7,0,1.5-0.1,2.1-0.4c0.6-0.2,1.1-0.6,1.6-1.1c0.4-0.3,0.7-0.7,0.7-1.3v-2
	c-0.6-0.2-1.1-0.4-1.7-0.5c-0.6-0.1-1.2-0.2-1.8-0.2c-1,0-2,0.2-2.8,0.8c-0.7,0.4-1.1,1.2-1.1,2c0,0.7,0.3,1.4,0.9,1.9
	C123.6,315.9,124.3,316.1,125.1,316.1z M145.2,319.3c-2.3,0-4.4-0.9-5.9-2.6c-0.7-0.8-1.3-1.8-1.7-2.9c-0.4-1.1-0.6-2.3-0.6-3.5
	c0-1.2,0.2-2.4,0.6-3.5c0.4-1,0.9-2,1.6-2.8c0.7-0.8,1.5-1.5,2.4-1.9c1-0.5,2-0.7,3.1-0.7c1.2,0,2.4,0.3,3.4,0.9
	c1,0.6,1.8,1.4,2.4,2.4v-9.8h4.4v19c0,0.3,0.1,0.7,0.2,1c0.2,0.2,0.5,0.3,0.8,0.3v3.8c-0.6,0.1-1.2,0.2-1.9,0.2
	c-0.7,0-1.4-0.2-1.9-0.6c-0.5-0.4-0.8-0.9-0.9-1.6l-0.1-1.1c-0.6,1.1-1.5,1.9-2.6,2.5C147.6,319,146.4,319.3,145.2,319.3
	L145.2,319.3z M146.4,315.6c0.4,0,0.9-0.1,1.3-0.2c0.4-0.1,0.8-0.3,1.2-0.6c0.4-0.3,0.7-0.6,1-0.9c0.3-0.3,0.5-0.7,0.7-1.2v-4.1
	c-0.2-0.5-0.4-0.9-0.7-1.3c-0.3-0.4-0.7-0.8-1.1-1.1c-0.4-0.3-0.8-0.5-1.3-0.7c-0.4-0.2-0.9-0.3-1.3-0.3c-0.6,0-1.3,0.1-1.8,0.4
	c-0.6,0.3-1,0.7-1.4,1.2c-0.4,0.5-0.7,1.1-0.9,1.7c-0.2,0.6-0.3,1.3-0.3,2c0,0.7,0.1,1.4,0.4,2c0.2,0.6,0.6,1.1,1,1.6
	c0.4,0.5,0.9,0.8,1.5,1.1C145,315.4,145.7,315.6,146.4,315.6L146.4,315.6z M167.4,319.3c-1.3,0-2.6-0.2-3.8-0.7
	c-2.2-0.9-3.9-2.6-4.7-4.8c-0.4-1.1-0.6-2.2-0.6-3.4c0-1.2,0.2-2.4,0.6-3.5c0.4-1.1,1-2,1.8-2.9c0.8-0.8,1.8-1.5,2.9-2
	c1.2-0.5,2.5-0.7,3.8-0.7c1.3,0,2.6,0.2,3.8,0.7c1.1,0.5,2,1.1,2.8,1.9c0.8,0.8,1.4,1.8,1.8,2.8c0.4,1.1,0.6,2.2,0.6,3.4
	c0,0.3,0,0.6,0,0.8c0,0.2,0,0.4-0.1,0.7h-13.4c0.1,0.6,0.2,1.2,0.5,1.8c0.5,1,1.4,1.8,2.4,2.2c0.5,0.2,1.1,0.3,1.6,0.3
	c0.9,0,1.7-0.2,2.5-0.6c0.7-0.4,1.3-1,1.6-1.7l3.8,1.1c-0.7,1.4-1.7,2.5-3.1,3.3C170.8,318.9,169.1,319.4,167.4,319.3L167.4,319.3z
	 M171.8,308.9c-0.1-1.2-0.6-2.3-1.4-3.1c-1.7-1.6-4.4-1.6-6.1,0c-0.4,0.4-0.7,0.8-1,1.4c-0.3,0.5-0.4,1.1-0.4,1.7H171.8z
	 M179.1,294.9h4.4v18.5c0,0.5,0.1,1.1,0.5,1.5c0.3,0.4,0.8,0.6,1.3,0.5c0.3,0,0.6,0,0.9-0.1c0.3-0.1,0.6-0.2,0.9-0.3l0.6,3.4
	c-0.7,0.3-1.4,0.5-2.1,0.7c-0.7,0.1-1.4,0.2-2.1,0.2c-1.2,0.1-2.3-0.3-3.2-1.1c-0.8-0.8-1.2-2-1.1-3.2V294.9z M199.9,319.3
	c-1.2,0-2.5-0.3-3.6-0.9c-1-0.6-1.8-1.4-2.4-2.5V326h-4.4v-24.3h3.9v3c0.6-1,1.5-1.8,2.5-2.4c1.1-0.6,2.3-0.9,3.5-0.9
	c1.1,0,2.2,0.2,3.2,0.7c1,0.5,1.8,1.1,2.6,1.9c0.7,0.8,1.3,1.8,1.7,2.8c0.4,1.1,0.6,2.3,0.6,3.4c0,1.2-0.2,2.4-0.6,3.5
	c-0.3,1-0.9,2-1.6,2.9c-0.7,0.8-1.5,1.5-2.4,1.9C202,319.1,201,319.3,199.9,319.3L199.9,319.3z M198.4,315.6c0.6,0,1.3-0.1,1.8-0.4
	c0.6-0.3,1-0.7,1.4-1.2c0.4-0.5,0.7-1.1,0.9-1.7c0.2-0.6,0.3-1.3,0.3-2c0-0.7-0.1-1.4-0.4-2c-0.2-0.6-0.6-1.2-1-1.6
	c-0.4-0.5-0.9-0.8-1.5-1.1c-0.6-0.3-1.2-0.4-1.9-0.4c-0.4,0-0.9,0.1-1.3,0.2c-0.4,0.1-0.8,0.4-1.2,0.6c-0.4,0.3-0.7,0.6-1,0.9
	c-0.3,0.3-0.5,0.7-0.7,1.2v4.1c0.4,1,1,1.8,1.8,2.5C196.5,315.2,197.5,315.6,198.4,315.6L198.4,315.6z M226.6,319h-4.4v-9.7
	c0.1-1.1-0.2-2.1-0.8-3c-0.5-0.7-1.3-1-2.1-1c-0.4,0-0.9,0.1-1.3,0.3c-0.5,0.2-0.9,0.4-1.3,0.7c-0.4,0.3-0.8,0.7-1.1,1.1
	c-0.3,0.4-0.6,0.9-0.7,1.5V319h-4.4v-24.1h4.4v10c0.6-1.1,1.5-2,2.6-2.6c1.1-0.6,2.4-0.9,3.6-0.9c0.9,0,1.9,0.2,2.7,0.6
	c0.7,0.4,1.2,0.9,1.6,1.5c0.4,0.7,0.7,1.4,0.8,2.2c0.2,0.8,0.2,1.7,0.2,2.5L226.6,319z M230.4,319v-17.3h4.4V319H230.4z
	 M243.6,319.3c-0.8,0-1.6-0.1-2.3-0.4c-0.7-0.3-1.3-0.6-1.9-1.2c-0.5-0.5-0.9-1.1-1.2-1.7c-0.3-0.7-0.5-1.4-0.4-2.2
	c0-0.8,0.2-1.6,0.5-2.3c0.4-0.7,0.9-1.3,1.5-1.8c0.7-0.5,1.5-0.9,2.3-1.1c1-0.3,2-0.4,3-0.4c0.8,0,1.5,0.1,2.3,0.2
	c0.7,0.1,1.3,0.3,2,0.6v-1c0.1-1-0.3-1.9-1-2.6c-0.8-0.7-1.8-1-2.9-0.9c-0.9,0-1.8,0.2-2.7,0.5c-1,0.4-1.9,0.9-2.7,1.5l-1.4-2.8
	c2.1-1.4,4.6-2.2,7.2-2.2c2.1-0.1,4.2,0.5,5.8,1.8c1.4,1.4,2.2,3.3,2.1,5.3v5.4c0,0.3,0.1,0.7,0.2,1c0.2,0.2,0.5,0.3,0.8,0.3v3.8
	c-0.6,0.1-1.3,0.2-1.9,0.2c-0.7,0-1.4-0.2-1.9-0.6c-0.5-0.4-0.8-0.9-0.8-1.5l-0.1-1c-0.7,1-1.7,1.8-2.8,2.3
	C246,319.1,244.8,319.3,243.6,319.3z M244.8,316.1c0.7,0,1.5-0.1,2.1-0.4c0.6-0.2,1.1-0.6,1.6-1.1c0.4-0.3,0.7-0.7,0.7-1.3v-2
	c-0.6-0.2-1.1-0.4-1.7-0.5c-0.6-0.1-1.2-0.2-1.8-0.2c-1,0-2,0.2-2.8,0.8c-0.7,0.4-1.1,1.2-1.1,2c0,0.7,0.3,1.4,0.9,1.9
	C243.3,315.9,244,316.1,244.8,316.1L244.8,316.1z M264.8,307.5c0,1.1-0.1,2.3-0.4,3.4c-0.3,1.1-0.6,2.3-1.1,3.4
	c-0.4,1.1-1,2.2-1.6,3.3c-0.6,1.1-1.2,2.1-1.9,3.2l-3.2-1.6c1.1-1.9,2.1-3.9,2.9-5.9c0.7-1.8,1.1-3.6,1.1-5.5c0-1.2-0.2-2.4-0.5-3.5
	c-0.6-2.3-1.4-4.5-2.5-6.5c-0.4-0.7-0.8-1.5-1.2-2.2l3.4-1.4c0.7,1.2,1.3,2.3,1.9,3.4c0.6,1.1,1.1,2.2,1.6,3.4
	c0.4,1.1,0.8,2.2,1,3.4C264.7,305.3,264.8,306.4,264.8,307.5z M48.6,307.5c0-1.1,0.1-2.3,0.4-3.3c0.3-1.1,0.6-2.3,1.1-3.4
	c0.5-1.2,1-2.3,1.6-3.4c0.6-1.1,1.2-2.3,1.9-3.4l3.4,1.4c-0.5,0.7-0.9,1.4-1.2,2.2c-1.1,2.1-1.9,4.3-2.5,6.5
	c-0.3,1.1-0.5,2.3-0.5,3.5c0,1.9,0.4,3.8,1.1,5.5c0.8,2,1.8,4,2.9,5.9l-3.2,1.6c-0.7-1-1.3-2.1-1.9-3.1c-0.6-1.1-1.1-2.2-1.6-3.3
	c-0.4-1.1-0.8-2.2-1.1-3.4C48.8,309.8,48.6,308.7,48.6,307.5z M60.2,319v-23.4h9.9c1,0,2.1,0.2,3,0.7c0.9,0.4,1.7,1,2.4,1.8
	c0.7,0.7,1.2,1.6,1.6,2.5c0.4,0.9,0.6,1.9,0.6,2.8c0,1-0.2,2-0.5,2.9c-0.3,0.9-0.8,1.8-1.5,2.5c-0.6,0.7-1.4,1.3-2.3,1.7
	c-0.9,0.4-1.9,0.7-3,0.7h-5.5v7.9H60.2z M64.7,307.2H70c0.8,0,1.6-0.4,2.1-1c0.6-0.8,0.9-1.8,0.8-2.8c0-0.5-0.1-1.1-0.3-1.6
	c-0.2-0.4-0.4-0.8-0.7-1.2c-0.3-0.3-0.6-0.6-1-0.7c-0.4-0.2-0.8-0.2-1.2-0.2h-5.1L64.7,307.2L64.7,307.2z M96.4,319H92v-9.7
	c0.1-1.1-0.2-2.1-0.8-3c-0.5-0.7-1.3-1-2.1-1c-0.4,0-0.9,0.1-1.3,0.3c-0.5,0.2-0.9,0.4-1.3,0.7c-0.4,0.3-0.8,0.7-1.1,1.1
	c-0.3,0.4-0.6,0.9-0.7,1.5V319h-4.4v-24.1h4.4v10c0.6-1.1,1.5-2,2.6-2.6c1.1-0.6,2.4-0.9,3.6-0.9c0.9,0,1.9,0.2,2.7,0.6
	c0.7,0.4,1.2,0.9,1.6,1.5c0.4,0.7,0.7,1.4,0.8,2.2c0.2,0.8,0.2,1.7,0.2,2.5L96.4,319z M100.2,319v-17.3h4.4V319H100.2z M108.6,294.9
	h4.4v18.5c0,0.5,0.1,1.1,0.5,1.5c0.3,0.4,0.8,0.6,1.3,0.5c0.3,0,0.6,0,0.9-0.1c0.3-0.1,0.6-0.2,0.9-0.3l0.6,3.4
	c-0.7,0.3-1.4,0.5-2.1,0.7c-0.7,0.1-1.4,0.2-2.1,0.2c-1.2,0.1-2.3-0.3-3.2-1.1c-0.8-0.8-1.2-2-1.1-3.2L108.6,294.9z"/>
<path id="Path_2631" class="st2" d="M653.8,142.7h1.4c1.5,0.1,3-0.2,4.2-1c1-0.7,1.5-1.8,1.4-2.9c0.1-1.3-0.4-2.5-1.3-3.4
	c-1.1-0.8-2.4-1.2-3.7-1.1c-0.6,0-1.3,0-1.9,0.2c-0.1,0.9-0.1,3.1-0.1,6.5L653.8,142.7z M656.3,152.3c0.1,0.3,0.2,0.6,0.2,0.9
	c0.1,0.3-0.1,0.6-0.4,0.7c-0.1,0-0.2,0-0.3,0h-7.6c-0.1-0.3-0.2-0.7-0.2-1c0-0.2,0-0.4,0.2-0.5c0.2-0.1,0.4-0.2,0.6-0.2h1.5
	c0.1-1.5,0.1-5.3,0.1-11.5c0-3.3,0-5.7-0.1-7.2h-1.9c-0.1-0.3-0.2-0.7-0.2-1c0-0.2,0-0.4,0.2-0.5c0.2-0.1,0.4-0.2,0.6-0.2h6.9
	c3.3,0,5.6,0.5,7,1.4c1.4,0.9,2.2,2.6,2.1,4.3c0,3-1.8,5-5.3,6.1c1,0.3,1.9,0.9,2.5,1.7c0.8,1.1,1.5,2.3,2,3.6c0.4,1,1,2,1.7,2.8
	c0.5,0.4,1.1,0.6,1.7,0.5c0.2,0.8,0.2,1.3-0.1,1.6c-0.6,0.4-1.4,0.5-2.1,0.4c-0.9,0.1-1.9-0.1-2.8-0.5c-0.6-0.3-1.1-1.5-1.7-3.6
	c-0.4-1.5-1-3-1.9-4.3c-0.7-0.9-1.8-1.3-2.9-1.2c-0.7,0-1.3,0.1-2,0.2c0,3.7,0.1,6.2,0.1,7.4L656.3,152.3z M676.1,140
	c-1-0.1-1.9,0.4-2.4,1.2c-0.6,1.1-1,2.3-0.9,3.6h1.7c1.8,0,3,0,3.6-0.1s1-0.2,1.1-0.3c0.1-0.3,0.2-0.6,0.2-0.9
	c0.1-0.9-0.2-1.8-0.8-2.5C677.8,140.2,677,139.9,676.1,140z M676.7,137.8c1.6-0.1,3.2,0.4,4.4,1.4c1,0.9,1.5,2.5,1.5,4.7
	c0.1,0.7-0.1,1.4-0.5,2c-0.7,0.5-1.5,0.7-2.3,0.6h-7.1c-0.1,1.4,0.3,2.9,1.1,4.1c0.9,1.1,2.2,1.7,3.6,1.5c1.6,0,3.1-0.4,4.5-1.3
	c0.4,0.4,0.7,0.9,0.7,1.5c0,0.7-0.6,1.2-1.8,1.5c-1.3,0.3-2.7,0.5-4,0.4c-2.8,0-4.7-0.6-5.9-1.7s-1.8-3.1-1.8-5.9
	c-0.1-2.3,0.6-4.6,2-6.4C672.5,138.6,674.6,137.7,676.7,137.8L676.7,137.8z M692.9,140c-1.1-0.1-2.2,0.4-2.8,1.3
	c-0.7,1.4-1,3.1-0.9,4.6c-0.1,1.6,0.2,3.1,0.8,4.6c0.5,1.1,1.6,1.7,2.8,1.7c0.7,0,1.3-0.1,1.9-0.4c0.5-0.2,0.9-0.6,1.2-1.1
	c0.3-1.1,0.4-2.2,0.3-3.3v-6.6c-0.4-0.2-0.9-0.4-1.4-0.6C694.2,140,693.5,140,692.9,140L692.9,140z M696.6,152.7
	c-0.9,0.5-1.8,0.9-2.7,1.2c-0.9,0.2-1.7,0.4-2.6,0.4c-1.6,0.1-3.1-0.5-4.2-1.6c-1-1.1-1.5-3-1.5-5.7c0-3,0.7-5.3,2-6.8
	c1.5-1.6,3.7-2.5,5.9-2.3c0.5,0,1,0,1.6,0.1c0.4,0.1,0.8,0.1,1.2,0.2c0-0.8,0-1.6-0.1-2.6c0-0.6-0.1-1.3-0.2-1.9
	c-0.1-0.3-0.3-0.6-0.6-0.7c-0.3-0.1-0.7-0.2-1-0.2c-0.1-0.3-0.2-0.6-0.2-1c0-0.3,0.1-0.5,0.4-0.6c0.9-0.1,1.8-0.2,2.7-0.1
	c0.6,0,1.2,0,1.7,0.1c0.3,0.1,0.5,0.2,0.5,0.5c0.1,0.4,0.1,0.8,0.1,1.1v11.5c-0.1,2.4,0,4.8,0.3,7.2c0.2,0.7,0.5,1,0.9,0.9
	c0.1,0.2,0.2,0.5,0.2,0.7c0,0.3-0.4,0.6-1.1,0.9c-0.6,0.2-1.1,0.4-1.7,0.4c-0.3,0-0.5-0.1-0.7-0.3
	C697.1,153.6,696.8,153.2,696.6,152.7L696.6,152.7z M711,137.8c1.1,0,2.3,0.1,3.4,0.4c0.8,0.3,1.2,0.7,1.2,1.3
	c0,0.7-0.3,1.4-0.8,1.9c-1.5-0.8-3.3-1.3-5-1.5c-0.7,0-1.3,0.1-1.9,0.5c-0.4,0.3-0.7,0.8-0.6,1.4c0,0.6,0.2,1.1,0.7,1.5
	c0.9,0.6,1.9,1.1,2.9,1.4c1.4,0.4,2.7,1.1,3.9,2c0.8,0.7,1.2,1.8,1.2,2.9c0.1,1.4-0.6,2.7-1.8,3.5c-1.5,0.9-3.3,1.3-5,1.2
	c-1.3,0-2.6-0.1-3.8-0.4c-0.9-0.2-1.3-0.7-1.3-1.5c0-0.6,0.2-1.2,0.6-1.6c1.6,0.8,3.3,1.2,5.1,1.3c0.8,0.1,1.5-0.1,2.2-0.5
	c0.5-0.4,0.8-0.9,0.7-1.5c0-0.8-0.4-1.5-1.1-1.8c-1.1-0.6-2.3-1.2-3.5-1.6c-1.2-0.4-2.3-1-3.2-1.9c-0.6-0.7-0.9-1.6-0.9-2.5
	c0-1.3,0.6-2.6,1.8-3.3C707.4,138.1,709.2,137.7,711,137.8L711,137.8z M720.7,138.2l1.3-4.6c0.4,0.1,0.8,0.3,1.2,0.5
	c0.3,0.2,0.5,0.4,0.7,0.7c0.2,0.9,0.3,1.8,0.2,2.7v0.7h5.3c0.1,0.4,0.2,0.7,0.2,1.1c0,0.2,0,0.4-0.2,0.6c-0.2,0.1-0.5,0.2-0.7,0.2
	h-4.6v7.6c-0.1,1.2,0.1,2.4,0.5,3.6c0.3,0.6,0.9,0.9,1.5,0.9c0.9,0,1.7-0.2,2.5-0.7c0.2,0.3,0.4,0.7,0.4,1.2c0,0.6-0.4,1-0.9,1.1
	c-1,0.2-2,0.3-3,0.3c-1.1,0.1-2.3-0.2-3.2-0.9c-0.7-0.6-1-1.7-1-3.4v-3.8c0-2.1-0.1-4.1-0.2-6H719c-0.1-0.4-0.2-0.7-0.2-1.1
	c0-0.2,0-0.4,0.2-0.6c0.2-0.1,0.4-0.2,0.6-0.2L720.7,138.2z M739.2,152.2c1.1,0.1,2.1-0.5,2.7-1.4c0.6-1.3,0.9-2.8,0.8-4.3
	c0.1-1.7-0.2-3.4-0.8-4.9c-0.6-1.1-1.7-1.7-2.9-1.6c-1.1-0.1-2.1,0.5-2.7,1.4c-0.6,1.3-0.9,2.8-0.8,4.3c-0.1,1.7,0.2,3.4,0.8,4.9
	C736.9,151.6,738,152.3,739.2,152.2L739.2,152.2z M738.6,154.3c-2.3,0-4-0.6-5.1-1.9c-1.1-1.2-1.6-3.1-1.6-5.6
	c-0.1-2.4,0.6-4.8,2-6.7c1.4-1.6,3.6-2.5,5.7-2.4c2.3,0,4,0.6,5.1,1.9s1.6,3.1,1.6,5.6c0.1,2.4-0.6,4.8-2,6.7
	C742.9,153.6,740.8,154.5,738.6,154.3L738.6,154.3z M753.8,140c1-0.7,2-1.2,3.2-1.6c0.9-0.3,1.8-0.5,2.8-0.5c1.2-0.1,2.3,0.3,3.2,1
	c0.7,0.7,1.1,1.9,1.1,3.8c0,5.8,0.1,8.8,0.2,9.2c0.2,0.3,0.6,0.5,1.2,0.5c0.1,0.3,0.2,0.6,0.2,0.9c0,0.2-0.1,0.5-0.3,0.6
	c-0.3,0.1-0.7,0.2-1,0.1c-1.5,0-2.4,0-2.7-0.1c-0.3,0-0.5-0.1-0.7-0.3c-0.1-0.3-0.2-0.6-0.2-0.9v-6.9c0-2.2-0.2-3.7-0.7-4.4
	c-0.5-0.7-1.4-1.2-2.3-1.1c-0.8,0-1.7,0.2-2.3,0.8c-0.7,0.7-1.1,1.7-1,2.7v3.4c0,1.9,0,3.7,0.1,5.3h1.8c0.1,0.3,0.2,0.6,0.2,0.9
	c0,0.2,0,0.4-0.2,0.6c-0.2,0.1-0.4,0.2-0.7,0.2h-6.3c-0.1-0.3-0.2-0.6-0.2-1c0-0.2,0-0.4,0.2-0.5c0.2-0.1,0.4-0.2,0.6-0.2h1.1
	c0.1-1.7,0.1-3.8,0.1-6.3c0-3.2-0.1-5-0.4-5.5c-0.3-0.5-0.8-0.8-1.4-0.8c-0.1-0.3-0.2-0.6-0.2-0.9c0-0.2,0.1-0.5,0.3-0.6
	c1.4-0.2,2.8-0.2,4.3-0.2C753.9,138.7,753.9,139.3,753.8,140L753.8,140z M775.6,140c-1-0.1-1.9,0.4-2.4,1.2c-0.6,1.1-1,2.3-0.9,3.6
	h1.7c1.8,0,3,0,3.6-0.1s1-0.2,1.1-0.3c0.1-0.3,0.2-0.6,0.2-0.9c0.1-0.9-0.2-1.8-0.8-2.5C777.3,140.2,776.5,139.9,775.6,140
	L775.6,140z M776.2,137.8c1.6-0.1,3.2,0.4,4.4,1.4c1,0.9,1.5,2.5,1.5,4.7c0.1,0.7-0.1,1.4-0.5,2c-0.7,0.5-1.5,0.7-2.3,0.6h-7.1
	c-0.1,1.4,0.3,2.9,1.1,4.1c0.9,1.1,2.2,1.7,3.6,1.5c1.6,0,3.1-0.4,4.5-1.3c0.4,0.4,0.7,0.9,0.7,1.5c0,0.7-0.6,1.2-1.8,1.5
	c-1.3,0.3-2.7,0.5-4,0.4c-2.8,0-4.7-0.6-5.9-1.7c-1.2-1.2-1.8-3.1-1.8-5.9c-0.1-2.3,0.6-4.6,2-6.4
	C772,138.6,774.1,137.7,776.2,137.8L776.2,137.8z M669.1,166.8c0.7,0,1.4,0,2.1,0.1c0.2,0.1,1.2,3.1,3.3,9s3.4,9.7,4.1,11.4h1.4
	c0.1,0.3,0.2,0.6,0.2,0.9c0.1,0.3-0.1,0.6-0.4,0.7c-0.1,0-0.2,0-0.3,0h-6.7c-0.1-0.3-0.2-0.7-0.2-1c0-0.2,0-0.4,0.2-0.5
	c0.2-0.1,0.4-0.2,0.6-0.2h0.9c-0.2-1-0.7-2.8-1.5-5.5h-7.3c-0.8,2.7-1.2,4.5-1.4,5.5h1.5c0.1,0.3,0.2,0.6,0.2,0.9
	c0.1,0.3-0.1,0.6-0.4,0.7c-0.1,0-0.2,0-0.3,0h-5.9c-0.1-0.3-0.2-0.7-0.2-1c0-0.2,0-0.4,0.2-0.5c0.2-0.1,0.4-0.2,0.6-0.2h0.9
	c0.7-2,1.9-5.5,3.5-10.6c1.6-5.1,2.7-8,3-8.8C667.4,167.1,668.2,166.7,669.1,166.8z M671.9,179.8c-2-6.2-3-9.3-3.2-9.3
	c-0.1,0-1.1,3.1-2.9,9.3H671.9z M681.8,173.9c0-0.2,0.1-0.5,0.3-0.6c1.4-0.2,2.8-0.2,4.3-0.2c0.1,0.7,0.1,1.3,0,2
	c1.1-0.7,2.2-1.3,3.4-1.7c1-0.3,2-0.4,3-0.5c0.2,0,0.4,0,0.6,0.1c0.1,0.1,0.2,0.2,0.2,0.5c0,0.5-0.1,1-0.2,1.5
	c-0.1,0.4-0.2,0.7-0.5,1c-0.3,0.2-0.7,0.3-1,0.3c-0.3,0.1-0.6,0.1-0.8,0c-0.3-0.3-0.5-0.6-0.7-0.9c-0.9,0-1.7,0.3-2.3,0.9
	c-0.6,0.6-0.9,1.8-0.9,3.7c0,3.3,0.1,5.7,0.1,7.3h2.3c0.1,0.3,0.2,0.6,0.2,0.9c0,0.2,0,0.4-0.2,0.6c-0.2,0.1-0.4,0.2-0.7,0.2H682
	c-0.1-0.3-0.2-0.6-0.2-1c0-0.2,0-0.4,0.2-0.5c0.2-0.1,0.4-0.2,0.6-0.2h1.1c0.1-1.6,0.1-3.7,0.1-6.3c0-3.2-0.1-5-0.4-5.5
	c-0.3-0.5-0.8-0.8-1.4-0.8C681.9,174.5,681.8,174.2,681.8,173.9L681.8,173.9z M702.6,172.8c1.1,0,2.3,0.1,3.4,0.4
	c0.8,0.3,1.2,0.7,1.2,1.3c0,0.7-0.3,1.4-0.8,1.9c-1.5-0.8-3.3-1.3-5-1.5c-0.7,0-1.3,0.1-1.9,0.5c-0.4,0.3-0.7,0.8-0.6,1.4
	c0,0.6,0.2,1.1,0.7,1.5c0.9,0.6,1.9,1.1,2.9,1.4c1.4,0.4,2.7,1.1,3.9,2c0.8,0.7,1.2,1.8,1.2,2.9c0.1,1.4-0.6,2.7-1.8,3.5
	c-1.5,0.9-3.3,1.3-5,1.2c-1.3,0-2.6-0.1-3.8-0.4c-0.9-0.2-1.3-0.7-1.3-1.5c0-0.6,0.2-1.2,0.6-1.6c1.6,0.8,3.3,1.2,5.1,1.3
	c0.8,0.1,1.5-0.1,2.2-0.5c0.5-0.4,0.8-0.9,0.7-1.5c0-0.8-0.4-1.5-1.1-1.8c-1.1-0.6-2.3-1.2-3.5-1.6c-1.2-0.4-2.3-1-3.2-1.9
	c-0.6-0.7-0.9-1.6-0.9-2.5c0-1.3,0.6-2.6,1.8-3.3C698.9,173.1,700.7,172.7,702.6,172.8L702.6,172.8z M717.5,175
	c-1-0.1-1.9,0.4-2.4,1.2c-0.6,1.1-1,2.3-0.9,3.6h1.7c1.8,0,3,0,3.6-0.1s1-0.2,1.1-0.3c0.1-0.3,0.2-0.6,0.2-0.9
	c0.1-0.9-0.2-1.8-0.8-2.5C719.3,175.2,718.4,174.9,717.5,175L717.5,175z M718.2,172.8c1.6-0.1,3.2,0.4,4.4,1.4
	c1,0.9,1.5,2.5,1.5,4.7c0.1,0.7-0.1,1.4-0.5,2c-0.7,0.5-1.5,0.7-2.3,0.6h-7.1c-0.1,1.4,0.3,2.9,1.1,4.1c0.9,1.1,2.2,1.7,3.6,1.5
	c1.6,0,3.1-0.4,4.5-1.3c0.4,0.4,0.7,0.9,0.7,1.5c0,0.7-0.6,1.2-1.8,1.5c-1.3,0.3-2.7,0.5-4,0.4c-2.8,0-4.7-0.6-5.9-1.7
	c-1.2-1.2-1.8-3.1-1.8-5.9c-0.1-2.3,0.6-4.6,2-6.4C713.9,173.6,716,172.7,718.2,172.8L718.2,172.8z M731.7,174.9
	c1-0.7,2-1.2,3.2-1.6c0.9-0.3,1.8-0.5,2.8-0.5c1.2-0.1,2.3,0.3,3.2,1c0.7,0.7,1.1,1.9,1.1,3.8c0,5.8,0.1,8.8,0.2,9.2
	c0.2,0.3,0.6,0.5,1.2,0.5c0.1,0.3,0.2,0.6,0.2,0.9c0,0.2-0.1,0.5-0.3,0.6c-0.3,0.1-0.7,0.2-1,0.1c-1.5,0-2.4,0-2.7-0.1
	c-0.3,0-0.5-0.1-0.7-0.3c-0.1-0.3-0.2-0.6-0.2-0.9v-6.9c0-2.2-0.2-3.7-0.7-4.4c-0.5-0.7-1.4-1.2-2.3-1.1c-0.8,0-1.7,0.2-2.3,0.8
	c-0.7,0.7-1.1,1.7-1,2.7v3.4c0,1.9,0,3.7,0.1,5.3h1.8c0.1,0.3,0.2,0.6,0.2,0.9c0,0.2,0,0.4-0.2,0.6c-0.2,0.1-0.4,0.2-0.7,0.2h-6.3
	c-0.1-0.3-0.2-0.6-0.2-1c0-0.2,0-0.4,0.2-0.5c0.2-0.1,0.4-0.2,0.6-0.2h1.1c0.1-1.7,0.1-3.8,0.1-6.3c0-3.2-0.1-5-0.4-5.5
	c-0.3-0.5-0.8-0.8-1.4-0.8c-0.1-0.3-0.2-0.6-0.2-0.9c0-0.2,0.1-0.5,0.3-0.6c1.4-0.2,2.8-0.2,4.3-0.2
	C731.7,173.7,731.7,174.3,731.7,174.9L731.7,174.9z M756.1,187.7c-0.9,0.5-1.8,0.9-2.8,1.2c-0.9,0.3-1.9,0.4-2.8,0.4
	c-1.2,0.1-2.3-0.3-3.2-1c-0.8-0.8-1.1-1.9-1.1-3c-0.1-1.5,0.6-2.9,1.8-3.8c1.2-0.9,3-1.3,5.4-1.3h2.4c0.1-1.4-0.2-2.7-0.8-3.9
	c-0.6-0.8-1.6-1.2-2.5-1.1c-0.6,0-1.2,0.1-1.9,0.2c-0.2,0.4-0.3,0.7-0.6,1c-0.3,0.1-0.6,0.2-0.9,0.3c-0.6,0.1-0.9,0.1-1.2-0.1
	c-0.3-0.3-0.5-0.7-0.7-1.1c-0.2-0.4-0.3-0.8-0.3-1.3c0-0.2,0.1-0.4,0.3-0.5c0.7-0.2,1.4-0.4,2.2-0.4c1.3-0.2,2.7-0.3,4-0.3
	c1.5-0.1,2.9,0.2,4.2,1c0.9,0.7,1.4,1.9,1.4,3.6v5c-0.1,1.4,0,2.8,0.3,4.2c0.1,0.4,0.5,0.7,1,0.6c0,0,0,0,0,0
	c0.1,0.2,0.2,0.4,0.2,0.7c0,0.4-0.2,0.6-0.7,0.8c-0.6,0.2-1.2,0.3-1.8,0.3c-0.3,0-0.6,0-0.9-0.1
	C756.6,188.7,756.3,188.2,756.1,187.7L756.1,187.7z M755.8,182.3c-0.9-0.2-1.9-0.2-2.9-0.2c-0.9-0.1-1.8,0.1-2.6,0.6
	c-0.5,0.5-0.8,1.2-0.7,1.9c-0.1,0.7,0.2,1.4,0.7,1.9c0.6,0.5,1.3,0.7,2,0.7c0.7,0,1.4-0.1,2-0.4c0.5-0.2,1-0.6,1.2-1.2
	c0.2-0.8,0.3-1.6,0.3-2.4L755.8,182.3z M765,179.8c0-4.5,0-7.4-0.1-8.7c0-0.8-0.1-1.6-0.2-2.4c-0.1-0.3-0.3-0.6-0.6-0.7
	c-0.3-0.1-0.7-0.2-1-0.2c-0.1-0.3-0.2-0.6-0.2-1c0-0.3,0.1-0.5,0.4-0.6c0.9-0.1,1.8-0.2,2.7-0.1c0.6,0,1.2,0,1.7,0.1
	c0.3,0.1,0.5,0.2,0.5,0.5c0.1,0.4,0.1,0.8,0.1,1.1v13.5c0,2.6,0.1,4.6,0.1,6.1h1.8c0.1,0.3,0.2,0.6,0.2,0.9c0,0.2,0,0.4-0.2,0.6
	c-0.2,0.1-0.4,0.2-0.7,0.2h-6.4c-0.1-0.3-0.2-0.6-0.2-1c0-0.2,0-0.4,0.2-0.5c0.2-0.1,0.4-0.2,0.6-0.2h1.2
	C765,185.8,765,183.3,765,179.8L765,179.8z"/>
<path id="Path_2632" class="st3" d="M346.6,223.6c-0.2,1.9-0.2,3.5-0.2,5c0,1,0,1.9,0.1,2.5h-0.8c-0.2-1.9-0.9-3.7-2-5.2
	c-0.9-1-2.3-1.6-3.7-1.5H339c-0.5,0-1,0-1.5,0.2c-0.3,0.1-0.5,0.3-0.6,0.6c-0.1,0.5-0.2,1-0.2,1.5v8.3h1.2c1,0.1,2.1-0.4,2.7-1.3
	c0.6-0.9,1.1-2,1.3-3.1h0.8c-0.1,0.9-0.1,2-0.1,3.1v1.6c0,1.1,0.1,2.7,0.2,4.7h-0.8c-0.5-2.9-1.8-4.4-4-4.4h-1.2v7.6
	c0,0.7,0.1,1.3,0.3,1.9c0.2,0.4,0.6,0.7,1,0.8c0.7,0.2,1.5,0.2,2.3,0.2v0.7c-2.7-0.1-4.7-0.1-6-0.1c-1.1,0-2.5,0-4.2,0.1l-1.1,0
	v-0.7c0.5,0,1.1-0.1,1.6-0.3c0.3-0.1,0.6-0.4,0.7-0.8c0.1-0.6,0.2-1.2,0.2-1.8v-16.4c0-0.6,0-1.2-0.2-1.8c-0.1-0.3-0.4-0.6-0.7-0.8
	c-0.5-0.2-1.1-0.3-1.6-0.3v-0.7c2.4,0.1,6,0.1,10.8,0.1C343,223.7,345.3,223.7,346.6,223.6z M355.9,229.5c2.2-0.1,4.3,0.7,5.9,2.2
	c1.4,1.4,2.1,3.7,2.1,6.8c0,3.1-0.7,5.4-2.1,6.8c-1.6,1.5-3.8,2.3-5.9,2.1c-2.2,0.1-4.3-0.7-5.9-2.1c-1.4-1.4-2.2-3.7-2.2-6.8
	c0-3.1,0.7-5.4,2.2-6.8C351.5,230.1,353.7,229.4,355.9,229.5z M355.9,230.1c-0.9,0-1.7,0.7-2.3,2.1c-0.7,2-0.9,4.2-0.8,6.3
	c-0.1,2.1,0.2,4.2,0.8,6.3c0.6,1.4,1.3,2,2.3,2c1,0,1.7-0.7,2.3-2c0.6-2,0.9-4.2,0.8-6.3c0.1-2.1-0.2-4.3-0.8-6.3
	C357.6,230.8,356.8,230.1,355.9,230.1z M377.3,229.5c0.8-0.1,1.7,0.3,2.2,0.9c0.5,0.6,0.8,1.4,0.8,2.1c0,0.7-0.2,1.4-0.7,2
	c-0.5,0.5-1.2,0.8-1.9,0.8c-0.6,0-1.3-0.2-1.8-0.6c-0.4-0.4-0.7-0.9-0.7-1.5c0-1.1,0.5-2,1.5-2.6c-0.1,0-0.3,0-0.4,0
	c-0.2,0-0.4,0-0.5,0.1c-0.9,0.2-1.7,0.7-2.1,1.5c-0.6,0.8-0.9,1.7-0.9,2.7v8.7c-0.1,0.8,0.2,1.6,0.7,2.1c0.7,0.5,1.5,0.7,2.4,0.6
	v0.7c-0.3,0-0.5,0-0.8,0c-2.2-0.1-3.7-0.1-4.5-0.1c-0.6,0-1.9,0-4.1,0.1c-0.2,0-0.4,0-0.7,0v-0.7c0.6,0.1,1.2-0.1,1.6-0.5
	c0.4-0.5,0.5-1.2,0.5-1.9v-10.4c0.1-0.8-0.1-1.5-0.5-2.2c-0.4-0.5-1-0.8-1.6-0.7v-0.7c0.7,0.1,1.4,0.1,2,0.1c1.6,0,3.2-0.1,4.8-0.5
	v3.1c0.4-0.9,1-1.7,1.8-2.3C375.4,229.8,376.4,229.5,377.3,229.5z M388.1,229.9h3.9v0.7h-3.9v13.3c0,0.5,0.1,1,0.3,1.4
	c0.3,0.3,0.7,0.4,1.1,0.4c0.9,0,1.7-0.7,2.2-2l0.6,0.3c-0.8,2.3-2.3,3.4-4.5,3.4c-1.2,0.1-2.4-0.3-3.3-1.1c-0.5-0.5-0.8-1.1-0.9-1.7
	c-0.2-0.9-0.3-1.9-0.2-2.9v-11.2h-2.8v-0.7h2.8v-4.4c1.6,0,3.3-0.3,4.8-1.1L388.1,229.9z M411.2,224.3c-0.6,0-1.2,0.1-1.7,0.3
	c-0.4,0.1-0.6,0.4-0.7,0.8c-0.2,0.6-0.2,1.2-0.2,1.8v16.8c0,0.5,0,1,0.2,1.5c0.1,0.3,0.3,0.5,0.6,0.6c0.4,0.1,0.9,0.2,1.3,0.2h1.6
	c1.5,0,3-0.8,3.9-2c1.2-1.6,1.9-3.4,2.1-5.3h0.8c-0.1,0.7-0.1,1.7-0.1,2.9c0,1.7,0.1,3.5,0.2,5.2c-1.5-0.1-4-0.1-7.6-0.1
	c-4.8,0-8.4,0-10.8,0.1v-0.7c0.5,0,1.1-0.1,1.6-0.3c0.3-0.1,0.6-0.4,0.7-0.8c0.1-0.6,0.2-1.2,0.2-1.8v-16.4c0-0.6,0-1.2-0.2-1.8
	c-0.1-0.3-0.4-0.6-0.7-0.8c-0.5-0.2-1.1-0.3-1.6-0.3v-0.7c1.1,0.1,2.9,0.1,5.2,0.1c2.2,0,4,0,5.2-0.1L411.2,224.3z M430.3,244.8
	c1.8,0,3.5-1,4.4-2.6l0.6,0.2c-0.4,1.4-1.2,2.7-2.4,3.6c-1.2,1-2.7,1.6-4.2,1.5c-2.1,0.1-4.1-0.7-5.6-2.2c-1.4-1.5-2.1-3.7-2.1-6.6
	c0-3,0.7-5.2,2.2-6.8c1.5-1.6,3.7-2.5,5.9-2.4c4.1,0,6.2,2.4,6.2,7.3h-9.3c0,0.3,0,0.8,0,1.6c0,1.2,0.2,2.5,0.6,3.6
	c0.3,0.8,0.9,1.6,1.6,2.1C428.9,244.5,429.6,244.8,430.3,244.8L430.3,244.8z M429,230.2c-0.9,0.1-1.7,0.6-2,1.5c-0.6,1.4-1,3-1,4.5
	h5.2c0.1-1.5-0.1-2.9-0.5-4.3C430.3,230.7,429.7,230.2,429,230.2z M445.8,229.5c2.2-0.1,4.3,0.7,5.9,2.2c1.4,1.4,2.1,3.7,2.1,6.8
	c0,3.1-0.7,5.4-2.1,6.8c-3.4,2.9-8.4,2.9-11.9,0c-1.4-1.4-2.2-3.7-2.2-6.8c0-3.1,0.7-5.4,2.2-6.8
	C441.5,230.1,443.6,229.4,445.8,229.5z M445.8,230.1c-0.9,0-1.7,0.7-2.3,2.1c-0.7,2-0.9,4.2-0.8,6.3c-0.1,2.1,0.2,4.2,0.8,6.3
	c0.6,1.4,1.3,2,2.3,2c1,0,1.7-0.7,2.3-2c0.6-2,0.9-4.2,0.8-6.3c0.1-2.1-0.2-4.3-0.8-6.3C447.5,230.8,446.7,230.1,445.8,230.1z
	 M468.2,229.5c1.3-0.1,2.7,0.3,3.6,1.3c0.4,0.5,0.7,1,0.8,1.6c0.2,0.9,0.3,1.8,0.2,2.7v8.9c-0.1,0.7,0.1,1.3,0.5,1.9
	c0.5,0.4,1,0.6,1.6,0.5v0.7c-2.2-0.1-3.7-0.1-4.4-0.1c-0.7,0-2.1,0-4.3,0.1v-0.7c0.5,0.1,1-0.1,1.4-0.5c0.3-0.6,0.5-1.2,0.4-1.9
	v-10.3c0-0.7-0.1-1.4-0.4-2c-0.4-0.5-1-0.8-1.6-0.7c-0.9,0-1.7,0.4-2.3,1.1c-0.6,0.8-1,1.7-1,2.7v9.2c-0.1,0.6,0.1,1.3,0.4,1.9
	c0.4,0.4,0.9,0.6,1.4,0.5v0.7c-2-0.1-3.4-0.1-4.1-0.1c-0.7,0-2.2,0-4.6,0.1v-0.7c0.6,0.1,1.2-0.1,1.6-0.5c0.4-0.5,0.5-1.2,0.5-1.9
	v-10.4c0.1-0.8-0.1-1.5-0.5-2.2c-0.4-0.5-1-0.8-1.6-0.7v-0.7c0.7,0.1,1.4,0.1,2,0.1c1.6,0,3.2-0.1,4.8-0.5v3
	C463.8,230.5,465.6,229.5,468.2,229.5z M480.5,247.2c-1.2,0.1-2.3-0.3-3.2-1.1c-0.7-0.8-1.1-1.8-1-2.9c0-0.9,0.2-1.8,0.8-2.5
	c0.5-0.6,1.1-1.2,1.9-1.5c0.9-0.4,1.9-0.8,2.8-1.1c0.9-0.3,1.8-0.7,2.7-1.1c0.5-0.3,0.8-0.8,0.8-1.4v-2.6c0-0.8-0.2-1.5-0.6-2.2
	c-0.5-0.6-1.2-0.8-2-0.8c-0.9-0.1-1.7,0.2-2.4,0.8c0.6,0.2,1.1,0.5,1.4,1c0.3,0.4,0.5,1,0.5,1.6c0,0.7-0.2,1.3-0.8,1.8
	c-0.5,0.4-1.2,0.7-1.8,0.7c-0.7,0-1.3-0.2-1.8-0.7c-0.8-1-0.8-2.3-0.2-3.4c0.4-0.5,0.8-0.9,1.4-1.2c0.7-0.4,1.4-0.7,2.2-0.8
	c0.9-0.2,1.9-0.3,2.9-0.3c0.9,0,1.9,0.1,2.8,0.3c0.7,0.2,1.4,0.6,2,1.1c0.5,0.5,0.8,1.1,1,1.8c0.2,0.9,0.3,1.9,0.2,2.9v9
	c0,0.4,0,0.8,0.1,1.1c0.1,0.2,0.3,0.4,0.6,0.3c0.4-0.1,0.9-0.2,1.2-0.6l0.3,0.6c-1,0.8-2.3,1.3-3.6,1.2c-0.9,0.1-1.8-0.2-2.5-0.7
	c-0.5-0.5-0.8-1.2-0.8-1.9C484.4,246.3,482.5,247.3,480.5,247.2L480.5,247.2z M483.1,245.1c0.9,0,1.8-0.5,2.2-1.4V237
	c-0.4,0.6-1,1.1-1.7,1.5c-0.7,0.4-1.4,1-1.9,1.7c-0.5,0.7-0.7,1.5-0.7,2.4c-0.1,0.7,0.1,1.4,0.6,2
	C482,244.9,482.5,245.1,483.1,245.1L483.1,245.1z M504.6,229.5c0.8-0.1,1.7,0.3,2.2,0.9c0.5,0.6,0.8,1.4,0.8,2.1
	c0,0.7-0.2,1.4-0.7,2c-0.5,0.5-1.2,0.8-1.9,0.8c-0.6,0-1.3-0.2-1.8-0.6c-0.4-0.4-0.7-0.9-0.7-1.5c0-1.1,0.5-2,1.5-2.6
	c-0.1,0-0.3,0-0.4,0c-0.2,0-0.4,0-0.5,0.1c-0.9,0.2-1.7,0.7-2.1,1.5c-0.6,0.8-0.9,1.7-0.9,2.7v8.7c-0.1,0.8,0.2,1.6,0.7,2.1
	c0.7,0.5,1.5,0.7,2.4,0.6v0.7c-0.3,0-0.5,0-0.8,0c-2.2-0.1-3.7-0.1-4.5-0.1c-0.6,0-1.9,0-4.1,0.1c-0.2,0-0.4,0-0.7,0v-0.7
	c0.6,0.1,1.2-0.1,1.6-0.5c0.4-0.5,0.5-1.2,0.5-1.9v-10.4c0.1-0.8-0.1-1.5-0.5-2.2c-0.4-0.5-1-0.8-1.6-0.7v-0.7
	c0.7,0.1,1.4,0.1,2,0.1c1.6,0,3.2-0.1,4.8-0.5v3.1c0.4-0.9,1-1.7,1.8-2.3C502.7,229.8,503.7,229.5,504.6,229.5L504.6,229.5z
	 M524.5,243.4c-0.1,0.8,0.1,1.5,0.5,2.2c0.4,0.5,1,0.8,1.6,0.7v0.7c-0.7-0.1-1.4-0.1-2-0.1c-1.6,0-3.2,0.1-4.8,0.5v-2.8
	c-0.6,1.9-2.3,3.1-4.3,3c-1.9,0.1-3.7-0.8-4.9-2.3c-1.2-1.5-1.8-3.8-1.8-6.8c-0.1-1.7,0.3-3.4,0.9-4.9c0.5-1.2,1.5-2.3,2.6-3
	c1.2-0.7,2.5-1,3.8-1c1.3-0.1,2.7,0.4,3.7,1.3v-5.6c0.1-0.8-0.1-1.5-0.5-2.2c-0.4-0.5-1-0.8-1.6-0.7v-0.7c0.7,0.1,1.4,0.1,2,0.1
	c1.6,0,3.2-0.1,4.8-0.5V243.4z M516.8,246c0.7,0,1.4-0.3,1.9-0.8c0.6-0.6,0.9-1.3,1-2.1v-11.6c-0.6-0.8-1.5-1.2-2.4-1.1
	c-1.2,0-2.3,0.8-2.7,2c-0.7,1.9-1.1,4-0.9,6c-0.1,2,0.1,3.9,0.8,5.8C514.8,245.3,515.7,246,516.8,246z M413.8,258.7
	c1,0,1.9,0,2.5-0.1v0.7c-0.6,0.3-1.2,0.7-1.6,1.3c-0.6,0.8-1,1.7-1.3,2.7l-5.8,18.8c-0.2,0-0.6,0-1.2,0c-0.5,0-0.9,0-1.2,0
	l-4.9-14.7l-4.9,14.7c-0.2,0-0.6,0-1.2,0s-0.9,0-1.2,0l-7.4-20.7c-0.2-0.6-0.5-1.1-1-1.6c-0.3-0.3-0.7-0.5-1.1-0.5v-0.7
	c1.3,0.1,3,0.1,4.9,0.1c1.8,0,3.2,0,4.1-0.1v0.7c-0.7,0-1.2,0.6-1.2,1.2c0,0,0,0,0,0.1c0,0.5,0.1,1,0.3,1.5l4.8,14l3.3-9.8l-1.7-5.1
	c-0.1-0.5-0.4-1-0.8-1.3c-0.3-0.3-0.7-0.4-1-0.4v-0.7c1.2,0.1,2.8,0.1,4.7,0.1c2.2,0,3.7,0,4.8-0.1v0.7c-0.6,0-1.2,0.1-1.7,0.3
	c-0.4,0.2-0.6,0.5-0.5,0.9c0,0.5,0.1,1.1,0.3,1.6l4.5,13.8l3.1-10c0.4-1.2,0.7-2.5,0.8-3.8c0.1-0.8-0.2-1.5-0.7-2.1
	c-0.6-0.5-1.4-0.7-2.1-0.7v-0.7C411.2,258.7,412.5,258.7,413.8,258.7z M423.1,264.5c2.2-0.1,4.3,0.7,5.9,2.2
	c1.4,1.4,2.1,3.7,2.1,6.8c0,3.1-0.7,5.4-2.1,6.8c-3.4,2.9-8.4,2.9-11.9,0c-1.4-1.4-2.2-3.7-2.2-6.8c0-3.1,0.7-5.4,2.2-6.8
	C418.8,265.1,420.9,264.4,423.1,264.5z M423.1,265.1c-0.9,0-1.7,0.7-2.3,2.1c-0.7,2-0.9,4.2-0.8,6.3c-0.1,2.1,0.2,4.2,0.8,6.3
	c0.6,1.4,1.3,2,2.3,2c1,0,1.7-0.7,2.3-2c0.6-2,0.9-4.2,0.8-6.3c0.1-2.1-0.2-4.3-0.8-6.3C424.8,265.8,424.1,265.1,423.1,265.1z
	 M441.8,264.5c2.2-0.1,4.3,0.7,5.9,2.2c1.4,1.4,2.1,3.7,2.1,6.8s-0.7,5.4-2.1,6.8c-3.4,2.9-8.4,2.9-11.9,0c-1.4-1.4-2.2-3.7-2.2-6.8
	c0-3.1,0.7-5.4,2.2-6.8C437.4,265.1,439.6,264.4,441.8,264.5z M441.8,265.1c-0.9,0-1.7,0.7-2.3,2.1c-0.7,2-0.9,4.2-0.8,6.3
	c-0.1,2.1,0.2,4.2,0.8,6.3c0.6,1.4,1.3,2,2.3,2c1,0,1.7-0.7,2.3-2c0.6-2,0.9-4.2,0.8-6.3c0.1-2.1-0.2-4.3-0.8-6.3
	C443.5,265.8,442.7,265.1,441.8,265.1z M468.1,278.4c-0.1,0.8,0.1,1.5,0.5,2.2c0.4,0.5,1,0.8,1.6,0.7v0.7c-0.7-0.1-1.4-0.1-2-0.1
	c-1.6,0-3.2,0.1-4.8,0.5v-2.8c-0.6,1.9-2.3,3.1-4.3,3c-1.9,0.1-3.7-0.8-4.9-2.3c-1.2-1.5-1.8-3.8-1.8-6.8c-0.1-1.7,0.3-3.4,0.9-4.9
	c0.5-1.2,1.5-2.3,2.6-3c1.2-0.7,2.5-1,3.8-1c1.3-0.1,2.7,0.4,3.7,1.3v-5.6c0.1-0.8-0.1-1.5-0.5-2.2c-0.4-0.5-1-0.8-1.6-0.7v-0.7
	c0.7,0.1,1.4,0.1,2,0.1c1.6,0,3.2-0.1,4.8-0.5V278.4z M460.4,281c0.7,0,1.4-0.3,1.9-0.8c0.6-0.6,0.9-1.3,1-2.1v-11.6
	c-0.6-0.8-1.5-1.2-2.4-1.1c-1.2,0-2.3,0.8-2.7,2c-0.7,1.9-1.1,4-0.9,6c-0.1,2,0.1,3.9,0.8,5.8C458.4,280.3,459.4,281,460.4,281z"/>
<path id="Path_2633" class="st3" d="M139.1,169.8c0.2,0,0.4,0.1,0.5,0.2l1.3,1.5c-1,1.2-2.3,2.1-3.7,2.8c-1.7,0.7-3.5,1-5.3,1
	c-1.7,0-3.3-0.3-4.9-0.9c-1.4-0.6-2.7-1.5-3.8-2.6c-1.1-1.2-1.9-2.6-2.4-4.1c-0.6-1.7-0.9-3.4-0.9-5.2c0-1.8,0.3-3.5,0.9-5.2
	c0.6-1.5,1.4-2.9,2.5-4.1c1.1-1.1,2.4-2,3.9-2.6c1.6-0.6,3.3-1,5-0.9c1.6,0,3.2,0.3,4.7,0.9c1.3,0.6,2.6,1.3,3.6,2.3l-1.1,1.6
	c-0.1,0.1-0.2,0.2-0.3,0.3c-0.1,0.1-0.3,0.1-0.4,0.1c-0.3,0-0.6-0.2-0.8-0.3c-0.4-0.3-0.8-0.5-1.2-0.8c-1.4-0.8-3-1.1-4.6-1.1
	c-1.2,0-2.4,0.2-3.6,0.7c-1.1,0.4-2,1.1-2.8,2c-0.8,0.9-1.4,2-1.8,3.1c-0.4,1.3-0.7,2.7-0.6,4.1c0,1.4,0.2,2.8,0.7,4.2
	c0.4,1.1,1,2.2,1.8,3.1c0.8,0.8,1.7,1.5,2.7,1.9c1.1,0.4,2.2,0.7,3.4,0.7c0.7,0,1.4,0,2-0.1c0.6-0.1,1.1-0.2,1.7-0.4
	c0.5-0.2,1-0.4,1.4-0.7c0.5-0.3,0.9-0.6,1.3-1C138.7,169.9,138.9,169.8,139.1,169.8z M166.6,162.5c0,1.7-0.3,3.5-0.9,5.1
	c-0.6,1.5-1.4,2.8-2.5,4c-1.1,1.1-2.4,2-3.9,2.5c-1.6,0.6-3.3,0.9-5,0.9h-9.4v-25.1h9.4c1.7,0,3.4,0.3,5,0.9
	c1.5,0.6,2.8,1.4,3.9,2.6c1.1,1.1,2,2.5,2.5,4C166.3,159,166.7,160.7,166.6,162.5z M163.1,162.5c0-1.4-0.2-2.8-0.6-4.1
	c-0.4-1.1-1-2.2-1.8-3.1c-0.8-0.8-1.7-1.5-2.8-1.9c-1.2-0.5-2.4-0.7-3.7-0.7h-6v19.6h6c1.3,0,2.5-0.2,3.7-0.7c1.1-0.4,2-1.1,2.8-1.9
	c0.8-0.9,1.4-1.9,1.8-3.1C163,165.3,163.2,163.9,163.1,162.5z M189.1,169.8c0.2,0,0.4,0.1,0.5,0.2l1.3,1.5c-1,1.2-2.3,2.1-3.7,2.8
	c-1.7,0.7-3.5,1-5.3,1c-1.7,0-3.3-0.3-4.9-0.9c-1.4-0.6-2.7-1.5-3.8-2.6c-1.1-1.2-1.9-2.6-2.4-4.1c-0.6-1.7-0.9-3.4-0.9-5.2
	c0-1.8,0.3-3.5,0.9-5.2c0.6-1.5,1.4-2.9,2.5-4.1c1.1-1.1,2.4-2,3.9-2.6c1.6-0.6,3.3-1,5-0.9c1.6,0,3.2,0.3,4.7,0.9
	c1.3,0.6,2.6,1.3,3.6,2.3l-1.1,1.6c-0.1,0.1-0.2,0.2-0.3,0.3c-0.1,0.1-0.3,0.1-0.4,0.1c-0.3,0-0.6-0.2-0.8-0.3
	c-0.4-0.3-0.8-0.5-1.2-0.8c-1.4-0.8-3-1.1-4.6-1.1c-1.2,0-2.4,0.2-3.6,0.7c-1.1,0.4-2,1.1-2.8,2c-0.8,0.9-1.4,2-1.8,3.1
	c-0.4,1.3-0.7,2.7-0.6,4.1c0,1.4,0.2,2.8,0.7,4.2c0.4,1.1,1,2.2,1.8,3.1c0.8,0.8,1.7,1.5,2.7,1.9c1.1,0.4,2.2,0.7,3.4,0.7
	c0.7,0,1.4,0,2-0.1c0.6-0.1,1.1-0.2,1.7-0.4c0.5-0.2,1-0.4,1.4-0.7c0.5-0.3,0.9-0.6,1.3-1C188.7,169.9,188.9,169.8,189.1,169.8z"/>
<path id="Path_2634" class="st1" d="M682,270.8L689,290h2.2l7-18.9c1-2.7,1.4-3.1,3.4-3.4v-1h-7v1c2.5,0.3,2.9,0.8,2,3.3l-5.4,15.6
	l-5.6-15.7c-0.8-2.3-0.5-2.9,1.9-3.2v-1h-8.9v1C680.5,267.9,681,268.3,682,270.8z M708.6,287.1v-8.4h11.8v8.4c0,1.4-0.3,1.7-2.5,1.9
	v1h8.6v-1c-2.3-0.3-2.6-0.6-2.6-2v-17.4c0-1.4,0.3-1.7,2.6-2v-0.9H718v1c2.2,0.3,2.5,0.5,2.5,1.9v7.9h-11.8v-7.9
	c0-1.4,0.3-1.7,2.5-1.9v-1h-8.6v1c2.3,0.3,2.6,0.6,2.6,2v17.4c0,1.4-0.3,1.7-2.6,2v0.9h8.6v-1C708.9,288.8,708.6,288.5,708.6,287.1
	L708.6,287.1z M747.1,285.9l-7.1-19.2h-2.2l-7,18.9c-1,2.7-1.4,3.1-3.4,3.4v1h7v-1c-2.5-0.3-2.8-0.8-2-3.3l1.4-3.9h8.2l1.4,4
	c0.8,2.3,0.5,2.9-2,3.2v1h8.9v-1C748.5,288.8,748,288.4,747.1,285.9L747.1,285.9z M734.2,280.6l3.6-10.4l3.7,10.4L734.2,280.6z
	 M639.5,322.1v-8.4h11.8v8.4c0,1.4-0.3,1.7-2.5,1.9v1h8.6v-1c-2.3-0.3-2.6-0.6-2.6-2v-17.4c0-1.4,0.3-1.7,2.6-2v-1h-8.6v1
	c2.2,0.3,2.5,0.5,2.5,1.9v7.9h-11.8v-7.9c0-1.4,0.3-1.7,2.5-1.9v-1h-8.6v1c2.3,0.3,2.6,0.6,2.6,2v17.4c0,1.4-0.3,1.7-2.6,2v0.9h8.6
	v-1C639.8,323.8,639.5,323.5,639.5,322.1z M659.9,317.1c0,5,3.4,8.2,7.9,8.2c2.2,0.1,4.4-0.8,5.9-2.4v-1c-1.2,1-2.7,1.6-4.2,1.6
	c-3.7,0-6.2-2.8-6.3-7H674c0-0.3,0.1-0.7,0-1c0-4.1-2.4-6.8-6.6-6.8C663,308.8,659.9,312.2,659.9,317.1z M667.4,310.1
	c2.3,0,3.6,1.9,3.6,5v0.3l-7.8,0C663.4,311.8,665,310.1,667.4,310.1z M681.7,325.3c2,0.1,3.9-0.8,5.2-2.4c0.3,1.4,1.6,2.4,3.1,2.3
	c0.9,0,1.8-0.2,2.5-0.7v-0.9c-0.3,0.1-0.6,0.2-0.8,0.1c-1,0-1.8-0.5-1.8-2v-8.1c0-3.4-2.3-4.9-5.9-4.9c-3.6,0-6.4,1.5-6.4,3.7
	c0,1,0.8,1.7,1.7,1.7c0,0,0,0,0.1,0c0.9,0,1.7-0.7,1.8-1.6c0,0,0,0,0-0.1c0-0.7-0.4-1.4-1.1-1.6c0.9-0.5,1.9-0.7,2.9-0.7
	c2.4,0,3.9,1,3.9,4v1.4l-3.6,0.8c-4.3,1-6.1,2.4-6.1,5C677,323.7,679,325.3,681.7,325.3z M680.3,320.8c0-1.8,1.1-2.9,4.4-3.6
	l2.2-0.5v5.3c-0.8,1.1-2.1,1.7-3.4,1.7c-1.6,0.1-2.9-1-3.1-2.5C680.3,321,680.3,320.9,680.3,320.8z M699.2,301.1l-5.4,0.6v0.8
	l1.2,0.3c0.9,0.3,1,0.5,1,1.3v18.4c0,1-0.3,1.3-2.2,1.5v0.9h7.6v-1c-1.9-0.2-2.2-0.5-2.2-1.5L699.2,301.1z M705.1,320.6
	c0,3.5,2,4.7,4.2,4.7c1.4,0,2.9-0.5,4-1.4v-1c-0.7,0.5-1.5,0.7-2.3,0.7c-1.5,0-2.7-0.9-2.7-3.5v-9.7l4.8,0.1v-1.4l-4.8,0.1V306h-0.5
	l-4.8,3.8v0.7h2.1L705.1,320.6z M719.9,301.1l-5.4,0.6v0.8l1.2,0.3c0.9,0.3,1,0.5,1,1.3v18.4c0,1-0.3,1.3-2.2,1.5v0.9h7.4v-1
	c-1.8-0.2-2.1-0.5-2.1-1.4v-10.2c0.8-1.2,2.3-1.9,3.8-1.9c2.3,0,3.8,1.4,3.8,4.1v8c0,1-0.2,1.2-2.1,1.4v1h7.4v-1
	c-2-0.2-2.2-0.5-2.2-1.5v-8.7c0-3.3-2.3-5.1-5.5-5.1c-2.1-0.1-4.1,0.9-5.2,2.6L719.9,301.1z M742.8,325.3c2.2,0.1,4.4-0.8,5.9-2.4
	v-1c-1.1,1-2.6,1.6-4.2,1.6c-3.6,0-6.1-2.7-6.1-7c0-3.9,2.2-6.3,5.3-6.3c1-0.1,1.9,0.2,2.7,0.7c-0.8,0.2-1.4,0.9-1.4,1.7
	c0,1,0.7,1.8,1.7,1.8c0,0,0,0,0.1,0c1,0,1.8-0.8,1.8-1.8c0,0,0,0,0-0.1c0-2-1.7-3.7-5.4-3.7c-4.4-0.1-8.1,3.4-8.1,7.8
	c0,0.2,0,0.3,0,0.5C735.1,322.1,738.5,325.3,742.8,325.3L742.8,325.3z M755.9,325.3c2,0.1,3.9-0.8,5.2-2.4c0.3,1.4,1.6,2.4,3.1,2.3
	c0.9,0,1.8-0.2,2.5-0.7v-0.9c-0.3,0.1-0.6,0.2-0.8,0.1c-1,0-1.8-0.5-1.8-2v-8.1c0-3.4-2.3-4.9-5.9-4.9c-3.6,0-6.4,1.5-6.4,3.7
	c0,1,0.8,1.7,1.7,1.7c0,0,0,0,0.1,0c0.9,0,1.7-0.7,1.8-1.6c0,0,0,0,0-0.1c0-0.7-0.4-1.4-1.1-1.6c0.9-0.5,1.9-0.7,2.9-0.7
	c2.4,0,3.9,1,3.9,4v1.4l-3.6,0.8c-4.3,1-6.1,2.4-6.1,5C751.2,323.7,753.2,325.3,755.9,325.3L755.9,325.3z M754.4,320.8
	c0-1.8,1.1-2.9,4.4-3.6l2.2-0.5v5.3c-0.8,1.1-2.1,1.7-3.4,1.7c-1.6,0.2-2.9-1-3.1-2.5C754.4,321,754.4,320.9,754.4,320.8
	L754.4,320.8z M773.3,308.9l-5.3,0.6v0.8l1.2,0.3c0.9,0.3,1,0.5,1,1.3v10.6c0,1-0.2,1.3-2.2,1.5v1h7.8v-1c-2.2-0.2-2.4-0.5-2.4-1.7
	V313c1.3-1.1,2.9-1.6,4.5-1.5c0.5,0,1.1,0,1.6,0.2c0.2-0.3,0.3-0.7,0.3-1.1c0.1-0.9-0.6-1.6-1.4-1.7c-0.1,0-0.2,0-0.3,0
	c-1.4,0-2.9,1.2-4.8,3.4V308.9z M781,317.1c0,5,3.4,8.2,7.9,8.2c2.2,0.1,4.4-0.8,5.9-2.4v-1c-1.2,1-2.7,1.6-4.2,1.6
	c-3.7,0-6.2-2.8-6.3-7h10.9c0-0.3,0.1-0.7,0-1c0-4.1-2.4-6.8-6.6-6.8C784,308.8,781,312.2,781,317.1L781,317.1z M788.5,310.1
	c2.3,0,3.6,1.9,3.6,5v0.3l-7.8,0C784.5,311.8,786.1,310.1,788.5,310.1L788.5,310.1z"/>
</svg>
