<?xml version="1.0" encoding="utf-8"?>
<!-- Generator: Adobe Illustrator 27.2.0, SVG Export Plug-In . SVG Version: 6.00 Build 0)  -->
<svg version="1.1" id="Layer_1" xmlns="http://www.w3.org/2000/svg" xmlns:xlink="http://www.w3.org/1999/xlink" x="0px" y="0px"
	 viewBox="0 0 855 380" style="enable-background:new 0 0 855 380;" xml:space="preserve">
<style type="text/css">
	.st0{fill:#FFFFFF;}
	.st1{fill:#657571;}
	.st2{fill:#CCC8C3;}
	.st3{fill:#B7B7B7;}
</style>
<g id="Group_4810" transform="translate(0 22)">
	<rect id="Rectangle_1034" y="-22" class="st0" width="855" height="380"/>
</g>
<path id="Path_2629" class="st1" d="M297.45801,65.732h-16.51602v0.951c2.32001,0.258,2.61002,0.564,2.61002,2v17.37
	c0,1.434-0.29001,1.74-2.61002,2V89h8.927v-0.951c-2.51398-0.258-2.836-0.661-2.836-2.224v-8.1l4.061,0.016
	c1.45001,0,1.89999,0.60001,2.353,3.255h0.82202v-7.67h-0.82202c-0.53198,2.707-0.935,3.255-2.353,3.255l-4.061,0.016v-9.753
	l3.78702,0.113c3.96399,0.129,5.18799,0.886,5.96198,4.383h0.88602L297.45801,65.732z M318.67902,82.3
	c0-3.609-2.98102-5.575-7.26703-5.881c3.36801-0.371,6.04202-2.095,6.04202-5.092c0-3.529-3.17401-5.591-8.63699-5.591H299.5v0.951
	c2.32001,0.258,2.60999,0.564,2.60999,2v17.37c0,1.434-0.28998,1.74-2.60999,2V89h9.31299
	C314.18298,89,318.67902,86.776,318.67902,82.3z M313.845,71.71c0,2.788-1.82101,4.5-5.285,4.512h-2.965v-9.378l2.272,0.064
	C312.185,67.038,313.845,68.923,313.845,71.71z M314.94501,82.586c0,3.448-2.707,5.108-7.07401,5.237l-2.272,0.064V77.334
	l2.965,0.016c4.10501,0,6.37701,1.901,6.37701,5.237L314.94501,82.586z M327.272,86.05V68.681c0-1.434,0.27399-1.74,2.59399-2
	v-0.949h-8.689v0.951c2.32001,0.258,2.60999,0.564,2.60999,2v17.37c0,1.434-0.28998,1.74-2.60999,2V89h8.685v-0.951
	c-2.32098-0.257-2.595-0.564-2.595-1.99799L327.272,86.05z M343.20001,78.526c-0.16064-5.47577,1.71814-10.81605,5.27197-14.985
	h-1.224c-3.69,2.707-7.00897,8.331-7.00897,14.985s3.31897,12.294,7.00897,14.985h1.22501
	C344.91882,89.34219,343.03964,84.0019,343.20001,78.526z M366.793,65.732h-16.51599v0.951c2.31998,0.258,2.60999,0.564,2.60999,2
	v17.37c0,1.434-0.29001,1.74-2.60999,2V89h8.923v-0.951c-2.51401-0.258-2.836-0.661-2.836-2.224v-8.1l4.06097,0.016
	c1.45001,0,1.90002,0.60001,2.353,3.255h0.82202v-7.67h-0.82199c-0.53201,2.707-0.935,3.255-2.35303,3.255l-4.06097,0.016v-9.753
	l3.78699,0.113c3.96399,0.129,5.18802,0.886,5.96201,4.383H367L366.793,65.732z M367.534,81.12c0,5.043,3.36798,8.2,7.879,8.2
	c2.23929,0.12554,4.41647-0.76186,5.92999-2.417v-0.951c-1.15656,1.04028-2.66684,1.5994-4.22198,1.563
	c-3.72202,0-6.20001-2.788-6.349-7.009h10.85999c0.03452-0.33218,0.05057-0.66603,0.048-1
	c0-4.09299-2.38501-6.75099-6.60602-6.75099c-4.50998,0.003-7.53998,3.48299-7.53998,8.366V81.12z M375.043,74.078
	c2.32001,0,3.577,1.89999,3.577,5v0.306l-7.83099,0.032c0.194-3.581,1.853-5.337,4.254-5.337V74.078z M384.72699,81.216
	c0,5.12399,3.078,8.1,6.57401,8.1c2.16464,0.09252,4.2081-1.0003,5.33301-2.852V89.155l5.31699-0.645v-0.822l-1.12799-0.306
	c-0.935-0.242-1.06302-0.451-1.06302-1.321V65.088l-5.38199,0.645v0.837l1.15997,0.29c0.90002,0.258,1.03101,0.467,1.03101,1.321
	v6.349c-1.08658-1.18055-2.63449-1.82777-4.23798-1.772c-4.23599,0-7.604,3.41599-7.604,8.45899V81.216z M388.02701,80.894
	c0-4.141,2.06299-6.751,5-6.751c1.41046-0.08975,2.76172,0.57959,3.54498,1.756v9.668
	c-0.76501,1.30078-2.20065,2.05617-3.70599,1.95c-2.88599,0.001-4.83499-2.529-4.83499-6.617L388.02701,80.894z M404.30099,81.12
	c0,5.043,3.36801,8.2,7.879,8.2c2.23932,0.12553,4.41647-0.76186,5.92999-2.417v-0.951
	c-1.15656,1.04028-2.66687,1.5994-4.22198,1.563c-3.72202,0-6.20001-2.788-6.349-7.009h10.86099
	c0.03452-0.33218,0.05057-0.66603,0.048-1c0-4.09299-2.38501-6.75099-6.60602-6.75099c-4.508,0.003-7.54199,3.48299-7.54199,8.366
	L404.30099,81.12z M411.81,74.078c2.32001,0,3.577,1.89999,3.577,5v0.306l-7.83099,0.032c0.19699-3.581,1.85699-5.337,4.258-5.337
	L411.81,74.078z M426.215,72.918l-5.31699,0.628V74.384l1.15997,0.28999c0.91803,0.258,1.047,0.451,1.047,1.321V86.565
	c0,1.015-0.242,1.257-2.20798,1.48199V89h7.80002v-0.951C426.522,87.823,426.28,87.598,426.28,86.373v-9.33
	c1.26666-1.05685,2.87949-1.60786,4.52798-1.547c0.53101-0.01206,1.0614,0.04202,1.57901,0.161
	c0.21524-0.34238,0.32706-0.73962,0.32199-1.144c0.07727-0.85754-0.5553-1.61533-1.41284-1.69257
	C431.1976,72.81155,431.09845,72.81208,431,72.822c-1.418,0-2.85199,1.16-4.78601,3.44801L426.215,72.918z M439.315,89.318
	c2.00079,0.08636,3.92252-0.78794,5.172-2.353c0.30695,1.42472,1.6261,2.39843,3.078,2.272
	c0.90173,0.01559,1.78778-0.23672,2.54602-0.72501v-0.87c-0.26743,0.10176-0.55194,0.15099-0.83801,0.145
	c-0.983,0-1.75598-0.548-1.75598-1.982V77.7c0-3.416-2.336-4.947-5.92999-4.947c-3.56104,0-6.44501,1.515-6.44501,3.658
	c-0.0058,0.95544,0.76401,1.73468,1.71942,1.74048c0.01752,0.00011,0.03503-0.00005,0.05255-0.00047
	c0.93112,0.04641,1.72354-0.67078,1.76996-1.60188c0.00122-0.0247,0.00189-0.04941,0.00208-0.07413
	c0.00903-0.73126-0.4425-1.38931-1.12802-1.644c0.88403-0.49609,1.88681-0.74126,2.89999-0.709c2.353,0,3.948,1.03101,3.948,3.98
	v1.434l-3.625,0.79c-4.33398,0.951-6.13901,2.43301-6.13901,4.979c0.004,2.374,2.00198,4.017,4.677,4.017L439.315,89.318z
	 M437.86499,84.758c0-1.821,1.12802-2.868,4.367-3.59299l2.17502-0.467v5.285c-0.78931,1.10893-2.08835,1.74038-3.448,1.67599
	c-1.55508,0.14536-2.93356-0.99747-3.07889-2.55254c-0.01074-0.11449-0.01443-0.22952-0.01111-0.34445L437.86499,84.758z
	 M456.77002,65.1l-5.38202,0.628v0.842l1.16,0.29c0.918,0.258,1.047,0.467,1.047,1.321v18.37c0,1.015-0.27402,1.273-2.20798,1.5V89
	h7.573v-0.951c-1.93402-0.226-2.19101-0.48299-2.19101-1.5L456.77002,65.1z M487.836,82.3c0-3.609-2.98102-5.575-7.267-5.881
	c3.36801-0.371,6.04199-2.095,6.04199-5.092c0-3.529-3.17398-5.591-8.63699-5.591h-9.31299v0.951
	c2.32001,0.258,2.60999,0.564,2.60999,2v17.37c0,1.434-0.28998,1.74-2.60999,2V89h9.31299C483.341,89,487.836,86.776,487.836,82.3z
	 M483,71.71c0,2.788-1.82098,4.5-5.285,4.512h-2.965v-9.378l2.272,0.064C481.34302,67.038,483,68.923,483,71.71z M484.10001,82.586
	c0,3.448-2.707,5.108-7.07401,5.237l-2.272,0.064V77.334l2.965,0.016c4.10699,0,6.38101,1.901,6.38101,5.237V82.586z
	 M495.23401,72.918l-5.38202,0.628V74.384l1.16003,0.29c0.89996,0.258,1.047,0.451,1.047,1.321v8.169
	c0,3.368,2.20798,5.156,5.39996,5.156c2.08447,0.09074,4.05569-0.9503,5.15601-2.723v2.562l5.33301-0.645v-0.822l-1.14398-0.306
	c-0.91803-0.242-1.047-0.451-1.047-1.321V72.919l-5.38202,0.628V74.385l1.16,0.29c0.89999,0.258,1.03101,0.451,1.03101,1.321v9.668
	c-0.77585,1.2066-2.13269,1.91203-3.56601,1.854c-2.39999,0-3.771-1.4-3.771-4.141L495.23401,72.918z M515.005,72.918
	l-5.31702,0.628V74.384l1.16003,0.29c0.91797,0.258,1.047,0.451,1.047,1.321v10.57c0,1.015-0.242,1.257-2.20801,1.48199V89h7.79999
	v-0.951c-2.17499-0.226-2.41699-0.451-2.41699-1.67599v-9.33c1.26776-1.05588,2.88129-1.60548,4.52997-1.543
	c0.53101-0.01205,1.0614,0.04202,1.57904,0.161c0.21527-0.34237,0.32709-0.73961,0.32196-1.144
	c0.07776-0.8575-0.55432-1.61565-1.41187-1.69339c-0.09851-0.00893-0.19763-0.00847-0.29608,0.00139
	c-1.41803,0-2.85199,1.16-4.78601,3.448L515.005,72.918z M522.77197,81.118c0,5.043,3.36804,8.2,7.87903,8.2
	c2.23926,0.12553,4.4165-0.76186,5.92999-2.417V85.95c-1.15656,1.04027-2.66681,1.59939-4.22198,1.563
	c-3.72198,0-6.20001-2.788-6.349-7.009H536.87c0.03455-0.33218,0.05054-0.66603,0.04797-1
	c0-4.09299-2.38501-6.75099-6.60596-6.75099c-4.51202,0.005-7.54199,3.48499-7.54199,8.368L522.77197,81.118z M530.28101,74.076
	c2.32001,0,3.57703,1.89999,3.57703,5v0.306l-7.83105,0.032c0.19104-3.579,1.85101-5.335,4.25201-5.335L530.28101,74.076z
	 M544.54102,89.319c2.00079,0.08636,3.92249-0.78793,5.172-2.353c0.30695,1.42471,1.6261,2.39842,3.078,2.272
	c0.90173,0.01559,1.78772-0.23673,2.54602-0.725v-0.87c-0.26746,0.10177-0.552,0.151-0.83801,0.145
	c-0.98303,0-1.75604-0.548-1.75604-1.98199V77.7c0-3.416-2.336-4.947-5.92999-4.947c-3.56104,0-6.44501,1.515-6.44501,3.658
	c-0.0058,0.95544,0.76398,1.73468,1.71942,1.74048c0.01758,0.00011,0.03503-0.00005,0.05261-0.00047
	c0.93103,0.04641,1.72351-0.67078,1.7699-1.60188c0.00122-0.0247,0.00195-0.04941,0.00208-0.07413
	c0.00903-0.73125-0.4425-1.3893-1.12799-1.644c0.88403-0.49609,1.88678-0.74126,2.89996-0.709c2.35303,0,3.948,1.03101,3.948,3.98
	v1.434l-3.625,0.79c-4.33398,0.951-6.13898,2.43301-6.13898,4.979c-0.00201,2.374,1.99603,4.017,4.67102,4.017L544.54102,89.319z
	 M543.091,84.759c0-1.821,1.12799-2.868,4.367-3.593l2.17499-0.467v5.285c-0.78931,1.10894-2.08838,1.74038-3.448,1.676
	c-1.55475,0.14868-2.93573-0.99117-3.08441-2.54594c-0.01117-0.117-0.01501-0.23458-0.0116-0.35207L543.091,84.759z M561.591,72.916
	l-5.38202,0.628V74.382l1.16003,0.28999c0.90002,0.258,1.047,0.451,1.047,1.321V84.162c0,3.368,2.20801,5.156,5.40002,5.156
	c2.08441,0.09074,4.05566-0.9503,5.15601-2.723v2.562l5.33301-0.645V87.69l-1.14404-0.306c-0.91797-0.242-1.047-0.451-1.047-1.321
	V72.919l-5.38196,0.628V74.385l1.15997,0.29c0.89996,0.258,1.03101,0.451,1.03101,1.321v9.668
	c-0.77515,1.20464-2.12964,1.90945-3.56097,1.853c-2.40002,0-3.771-1.39999-3.771-4.14099L561.591,72.916z M316.19101,124.316
	c4.43106,0.11814,8.11893-3.37818,8.23706-7.80924c0.00464-0.1739,0.0036-0.34792-0.00305-0.52176
	c0.20319-4.33675-3.14774-8.01711-7.4845-8.22028c-0.18005-0.00843-0.36032-0.01067-0.54053-0.00672
	c-4.42615-0.11526-8.10773,3.37942-8.22299,7.80559c-0.00464,0.1788-0.00333,0.3577,0.004,0.53642
	c-0.20474,4.33225,3.14127,8.01022,7.47354,8.21495c0.17801,0.00842,0.35626,0.01077,0.53445,0.00705L316.19101,124.316z
	 M316.40002,123.011c-2.78802,0-4.77002-2.836-4.77002-7.187c0-4.14101,1.69202-6.75101,4.56-6.75101
	c2.78802,0,4.77002,2.82001,4.77002,7.17001c-0.00104,4.16399-1.69302,6.77399-4.56003,6.77399L316.40002,123.011z
	 M332.28802,121.367v-11.95l4.479,0.113v-1.45l-4.479,0.113v-4.077c0-2.28799,0.89999-3.22299,2.29999-3.22299
	c0.14575-0.00663,0.29178,0.00411,0.435,0.032c-0.32233,0.27893-0.50525,0.68578-0.5,1.112
	c-0.00131,0.82843,0.66919,1.50107,1.49762,1.5024c0.82843,0.00131,1.50107-0.66919,1.50238-1.49761c0-0.00159,0-0.00319,0-0.00478
	c0-1.33701-1.20801-2.38499-3.43201-2.38499c-3.04498,0-4.979,2.01399-4.979,5.575V108.1l-2.21201,0.77v0.661h2.20801v12.036
	c0,1.015-0.242,1.257-2.20801,1.482V124H334.72v-0.951c-2.19199-0.22501-2.43301-0.44901-2.43301-1.675L332.28802,121.367z
	 M351.914,121.045v-17.364c0-1.434,0.27402-1.74001,2.59399-2v-0.951h-8.686v0.951c2.32001,0.258,2.61002,0.564,2.61002,2v17.37
	c0,1.434-0.29001,1.74-2.61002,2V124h8.685v-0.951c-2.31998-0.257-2.59399-0.564-2.59399-1.99801L351.914,121.045z
	 M361.80801,107.913l-5.31702,0.628v0.838l1.16,0.29001c0.918,0.258,1.047,0.451,1.047,1.321v10.56099
	c0,1.01501-0.27399,1.273-2.20801,1.5V124h7.44403v-0.951c-1.83701-0.226-2.06201-0.451-2.06201-1.418v-10.215
	c0.83749-1.2359,2.26361-1.93983,3.754-1.853c2.336,0,3.754,1.386,3.754,4.061v8.008c0,0.967-0.22601,1.19199-2.06201,1.418V124
	h7.44403v-0.951c-1.966-0.226-2.19101-0.483-2.19101-1.5v-8.732c0-3.287-2.25601-5.06-5.49503-5.06
	c-2.11655-0.09831-4.12488,0.93959-5.26898,2.72299L361.80801,107.913z M377.422,111.603l5.01102,12.40701h1.44998l4.88202-12.2
	c0.91797-2.256,1.27298-2.53,2.78799-2.771v-0.959h-5.86502v0.967c2.11102,0.209,2.46503,0.60001,1.75601,2.53l-3.30002,8.814
	l-3.33499-8.83c-0.70898-1.917-0.33798-2.3,1.75601-2.514v-0.967h-7.83099v0.967c1.49399,0.29001,1.91199,0.661,2.68597,2.562
	L377.422,111.603z M392.18201,116.11501c0,5.043,3.36798,8.2,7.879,8.2c2.23929,0.12553,4.41647-0.76186,5.92999-2.417v-0.951
	c-1.15656,1.04027-2.66684,1.59938-4.22202,1.563c-3.72198,0-6.19998-2.788-6.349-7.009H406.28
	c0.03452-0.33218,0.05057-0.66604,0.048-1c0-4.093-2.38501-6.75101-6.60602-6.75101c-4.513,0.008-7.54199,3.488-7.54199,8.371
	L392.18201,116.11501z M399.69101,109.073c2.32001,0,3.577,1.90001,3.577,5v0.306l-7.83099,0.03201
	c0.19098-3.576,1.85098-5.33201,4.25098-5.33201L399.69101,109.073z M409.58502,112.263c0,2.5,1.789,3.883,4.70499,4.737
	l1.27298,0.354c2.224,0.661,3.14203,1.466,3.14203,2.949c0,1.531-1.33704,2.659-3.48001,2.659
	c-2.46286,0.07151-4.59219-1.70517-4.96298-4.141h-0.88602l0.14499,4.028c1.74658,0.98776,3.73041,1.47818,5.73602,1.418
	c3.384,0,6.22-1.853,6.22-4.705c0-2.594-1.724-4.061-4.625-4.9l-1.27298-0.37099c-2.03003-0.58-3.22302-1.289-3.22302-2.771
	c0-1.515,1.32098-2.449,3.319-2.449c2.16296-0.07431,4.02072,1.52415,4.26999,3.674h0.88602l-0.11301-3.851
	c-1.54785-0.8434-3.29987-1.2395-5.06-1.144c-3.62701,0.008-6.07602,1.732-6.07602,4.52001L409.58502,112.263z M425.85901,119.64301
	c0,3.51299,2.03,4.673,4.22198,4.673c1.44763,0.01212,2.85254-0.49043,3.96402-1.418v-0.951
	c-0.68594,0.46108-1.4935,0.70786-2.32001,0.709c-1.547,0-2.69101-0.854-2.69101-3.513V109.417l4.75302,0.113v-1.45l-4.75302,0.145
	v-3.19h-0.45099l-4.85001,3.835v0.661h2.12698L425.85901,119.64301z M438.83002,104.64301
	c1.03241-0.02597,1.84833-0.88397,1.82239-1.91642c-0.02597-1.03245-0.88397-1.84837-1.91641-1.8224
	c-1.01431,0.02551-1.82321,0.8552-1.823,1.86982c0.01425,1.04504,0.8699,1.88235,1.91501,1.87399L438.83002,104.64301z
	 M440.74701,107.914l-5.38202,0.628V109.38l1.16003,0.28999c0.91797,0.258,1.047,0.451,1.047,1.321v10.56
	c0,1.01501-0.27402,1.273-2.20801,1.5V124h7.573v-0.951c-1.93402-0.226-2.19098-0.483-2.19098-1.5L440.74701,107.914z
	 M445.46802,113.28c-0.00824,2.3565,1.65302,4.38905,3.96399,4.85001c-2.25598,0.62799-3.625,1.789-3.625,3.43199
	c0,1.64301,1.48199,2.675,3.513,2.771c-2.98102,0.5-4.54401,1.772-4.54401,3.464c0,2.433,2.85199,4.093,7.55701,4.093
	c4.625,0,8.121-2.336,8.121-5.688c0-2.723-2.14301-4.238-5.89999-4.238h-3.52899c-1.724,0-2.62604-0.564-2.62604-1.627
	c0-0.854,0.612-1.531,2-1.917c0.63281,0.11571,1.27386,0.18025,1.91702,0.193c3.46402,0,6.655-2.079,6.655-5.479
	c0.03796-1.55701-0.7536-3.01709-2.07898-3.83501l4.25397,0.209V108.08l-5.60699,0.29
	c-1.04465-0.41851-2.16171-0.62649-3.28699-0.612C448.5,107.758,445.466,109.965,445.466,113.285L445.46802,113.28z
	 M448.67499,113.103c0-2.449,1.354-4.15701,3.46402-4.15701c2.272,0,3.642,1.724,3.642,4.334c0,2.465-1.466,4.14101-3.46399,4.14101
	c-2.117,0.00499-3.64401-1.621-3.64401-4.31401L448.67499,113.103z M447.51501,127.37901c0-1.45,0.91797-2.465,2.70697-2.771h3.771
	c2.659,0,3.771,0.983,3.771,2.546c0,2.02999-2.11099,3.41601-5.34998,3.41601c-3.11401,0.004-4.901-1.33301-4.901-3.186
	L447.51501,127.37901z M467.44699,124.31701c2.00079,0.08636,3.92252-0.78794,5.172-2.353
	c0.30695,1.42472,1.62607,2.39843,3.078,2.272c0.9017,0.01559,1.78778-0.23672,2.54599-0.725v-0.87
	c-0.2674,0.10176-0.55194,0.15099-0.83798,0.145c-0.983,0-1.75601-0.548-1.75601-1.982V112.7c0-3.416-2.336-4.94699-5.92999-4.94699
	c-3.56097,0-6.44501,1.515-6.44501,3.658c-0.0058,0.95544,0.76404,1.73467,1.71948,1.74049
	c0.01752,0.0001,0.03503-0.00006,0.05255-0.00049c0.93109,0.04642,1.72351-0.67077,1.76993-1.60187
	c0.00122-0.02469,0.00192-0.04941,0.00204-0.07413c0.00903-0.73126-0.44244-1.3893-1.12799-1.644
	c0.88403-0.4961,1.88678-0.74126,2.89999-0.709c2.353,0,3.948,1.03099,3.948,3.98v1.434l-3.625,0.79
	c-4.33401,0.951-6.13901,2.433-6.13901,4.979c-0.00198,2.37399,1.99603,4.01699,4.67102,4.01699L467.44699,124.31701z
	 M465.99701,119.757c0-1.821,1.12799-2.868,4.367-3.59299l2.17499-0.467v5.285c-0.78931,1.10894-2.08838,1.74038-3.448,1.676
	c-1.55475,0.14866-2.93567-0.99123-3.08432-2.546c-0.01114-0.11632-0.01505-0.23322-0.01169-0.35001L465.99701,119.757z
	 M481.466,119.64401c0,3.51299,2.02997,4.673,4.22198,4.673c1.44763,0.01212,2.85251-0.49043,3.96399-1.418v-0.951
	c-0.68594,0.46108-1.49347,0.70786-2.32001,0.709c-1.547,0-2.69098-0.854-2.69098-3.513V109.417l4.75299,0.113v-1.45l-4.75299,0.145
	v-3.19H484.19l-4.85004,3.835v0.661h2.12701L481.466,119.64401z M499.577,124.31701
	c4.43106,0.11813,8.11893-3.37818,8.23703-7.80925c0.00464-0.1739,0.00363-0.34791-0.00305-0.52175
	c0.20706-4.33657-3.14059-8.0199-7.47717-8.22694c-0.18213-0.0087-0.3645-0.01105-0.54681-0.00706
	c-4.42618-0.11483-8.10739,3.38022-8.22223,7.8064c-0.00464,0.1802-0.00323,0.3605,0.00421,0.5406
	c-0.20526,4.33224,3.14032,8.0106,7.47253,8.21586c0.17773,0.00842,0.35565,0.0108,0.53351,0.00713L499.577,124.31701z
	 M499.78601,123.01201c-2.78802,0-4.77002-2.836-4.77002-7.187c0-4.14101,1.69202-6.75101,4.56-6.75101
	c2.78799,0,4.77002,2.82001,4.77002,7.17001c-0.00201,4.16299-1.69403,6.77299-4.56201,6.77299L499.78601,123.01201z
	 M515.60901,107.91201l-5.31702,0.628v0.838l1.16,0.29001c0.918,0.258,1.04703,0.451,1.04703,1.321v10.56999
	c0,1.01501-0.24207,1.257-2.20801,1.482V124h7.79999v-0.951c-2.17499-0.226-2.41699-0.451-2.41699-1.676v-9.32999
	c1.26672-1.05494,2.87866-1.60448,4.526-1.54301c0.53094-0.01205,1.06134,0.04202,1.57898,0.161
	c0.21527-0.34237,0.32709-0.73961,0.32202-1.144c0.0777-0.8575-0.55438-1.61565-1.41187-1.69339
	c-0.09857-0.00894-0.19769-0.00847-0.29614,0.00139c-1.41803,0-2.85199,1.16-4.78601,3.448L515.60901,107.91201z M524.5,112.27
	c0,2.5,1.789,3.883,4.70496,4.737l1.27307,0.354c2.224,0.661,3.14197,1.466,3.14197,2.949c0,1.53101-1.33704,2.659-3.47998,2.659
	c-2.46289,0.07151-4.59222-1.70517-4.96301-4.141h-0.88599l0.14496,4.028c1.74658,0.98776,3.73041,1.47818,5.73602,1.418
	c3.38403,0,6.21997-1.853,6.21997-4.705c0-2.594-1.724-4.061-4.625-4.9L530.5,114.3c-2.03003-0.58-3.22302-1.289-3.22302-2.771
	c0-1.515,1.32104-2.449,3.31897-2.449c2.16296-0.0743,4.02075,1.52416,4.27002,3.674h0.88599l-0.11304-3.851
	c-1.54785-0.8434-3.2998-1.2395-5.05994-1.144C526.95099,107.758,524.5,109.48199,524.5,112.27z M543.91699,113.527
	c0.1615,5.47538-1.71625,10.81561-5.26904,14.98499h1.22504c3.69-2.70699,7.00897-8.33099,7.00897-14.98499
	s-3.31897-12.294-7.00897-14.985h-1.22504c3.55292,4.16898,5.43103,9.50883,5.27002,14.984L543.91699,113.527z"/>
<path id="Path_2630" class="st1" d="M96.677,280.13901c0.95047,0.03171,1.8916-0.19647,2.722-0.66
	c0.72052-0.42413,1.33101-1.01199,1.782-1.716c0.46621-0.74219,0.7907-1.56445,0.957-2.42499
	c0.18877-0.92877,0.28291-1.87427,0.281-2.82202v-11.94598h4.521v11.94598c0.0105,1.52603-0.18356,3.04654-0.577,4.521
	c-0.35142,1.34235-0.9686,2.60049-1.815,3.70001c-0.84937,1.07513-1.94065,1.93448-3.18501,2.508
	c-1.46303,0.65002-3.0526,0.9657-4.653,0.92401c-1.64353,0.04779-3.27582-0.28558-4.769-0.974
	c-1.24695-0.59891-2.33713-1.48022-3.184-2.57401c-0.83347-1.10849-1.43386-2.37424-1.76499-3.72101
	c-0.36644-1.43408-0.54956-2.90884-0.545-4.38901v-11.94098H91v11.94598c-0.00321,0.95834,0.0906,1.91455,0.28,2.854
	c0.16618,0.8609,0.49068,1.6835,0.957,2.42599c0.9464,1.52652,2.64369,2.42258,4.438,2.34302H96.677z M125.486,266.70801
	c-0.26021-0.23474-0.54176-0.44464-0.841-0.62701c-0.47294-0.29886-0.9696-0.55838-1.485-0.776
	c-0.61549-0.26407-1.25079-0.4794-1.9-0.64398c-0.67904-0.17563-1.37762-0.26434-2.079-0.26401
	c-0.98479-0.07187-1.96698,0.17078-2.805,0.69299c-0.6128,0.4548-0.95918,1.18469-0.924,1.94699
	c-0.01572,0.4267,0.10553,0.8472,0.346,1.20001c0.26951,0.3512,0.6134,0.6384,1.007,0.841
	c0.53074,0.27838,1.08954,0.4996,1.667,0.66c0.67067,0.19998,1.446,0.409,2.326,0.62698c1.144,0.30801,2.18333,0.638,3.118,0.99002
	c0.85804,0.3089,1.66042,0.75467,2.376,1.31998c0.63611,0.51288,1.14876,1.16223,1.5,1.90002
	c0.37629,0.85675,0.55666,1.78668,0.52799,2.72198c0.03174,1.11432-0.21179,2.21927-0.70899,3.21701
	c-0.44979,0.86774-1.10605,1.61157-1.91099,2.16599c-0.84303,0.56583-1.78252,0.9725-2.772,1.20001
	c-1.07571,0.25644-2.17815,0.38367-3.284,0.379c-1.76787-0.00119-3.52551-0.26819-5.214-0.79199
	c-1.65016-0.49597-3.21001-1.2536-4.62-2.24402l2.014-3.923c0.32973,0.29495,0.68935,0.55469,1.073,0.77502
	c0.58961,0.35718,1.20115,0.67682,1.831,0.957c0.75605,0.33685,1.54002,0.60721,2.343,0.80798
	c0.86263,0.22058,1.74963,0.33145,2.64,0.33002c2.508,0,3.762-0.80301,3.762-2.40903c0.01344-0.46619-0.13853-0.92209-0.429-1.28699
	c-0.33686-0.39111-0.75307-0.70609-1.221-0.92401c-0.61554-0.29749-1.256-0.54044-1.914-0.72598
	c-0.74799-0.216-1.58433-0.45734-2.509-0.724c-0.99671-0.26425-1.97294-0.60049-2.921-1.00601
	c-0.75131-0.31677-1.44736-0.75122-2.062-1.28699c-0.5346-0.47333-0.95744-1.05942-1.238-1.716
	c-0.29156-0.73996-0.43166-1.53091-0.412-2.32599c-0.02036-1.09216,0.20522-2.17487,0.66-3.16803
	c0.42229-0.90198,1.04925-1.69293,1.831-2.31c0.813-0.63147,1.73637-1.10623,2.723-1.39999
	c1.08073-0.32562,2.20432-0.48676,3.333-0.478c1.55221-0.01703,3.0948,0.24548,4.554,0.77499
	c1.27909,0.46289,2.49785,1.07797,3.63,1.832L125.486,266.70801z M144.23,268.98499V284h-4.554v-23.42999h3.53101l12.20999,15.37799
	v-15.34799h4.554V284h-3.7L144.23,268.98499z M171.521,260.57001h4.026L184.457,284h-4.686l-2.17799-5.841h-8.183l-2.146,5.841
	h-4.686L171.521,260.57001z M176.76799,274.95801l-3.23399-9.207l-3.366,9.207H176.76799z M187.427,260.57001l6.336,17.72101
	l6.27-17.72101h4.785L195.677,284h-3.828l-9.207-23.42999H187.427z M209.966,260.57001l5.77499,11.28598l5.87401-11.28598h4.91701
	l-8.51401,15.246V284H213.5v-8.25l-8.48399-15.17999H209.966z M42.161,307.54901c0.00079-1.12704,0.12825-2.25043,0.38-3.349
	c0.2639-1.14291,0.61801-2.26309,1.059-3.35001c0.46558-1.15295,0.98891-2.28171,1.568-3.38202
	c0.594-1.13333,1.232-2.28299,1.914-3.44901l3.366,1.41901c-0.45139,0.69836-0.86563,1.42001-1.241,2.16202
	c-1.06371,2.07819-1.88863,4.27014-2.459,6.534c-0.29848,1.14777-0.45367,2.32809-0.462,3.51401
	c0.0246,1.9035,0.41114,3.78497,1.139,5.54398c0.8252,2.04947,1.80121,4.03488,2.92,5.94l-3.234,1.617
	c-0.682-1.01199-1.32533-2.06165-1.93-3.14899c-0.59558-1.06955-1.11908-2.1777-1.567-3.31702
	c-0.43167-1.09543-0.78457-2.22028-1.056-3.366C42.29575,309.81348,42.16253,308.68326,42.161,307.54901z M53.711,319v-23.42999
	h9.933c1.03436-0.00998,2.05679,0.2215,2.986,0.67599c0.89407,0.43649,1.69541,1.0416,2.36,1.78201
	c0.66069,0.7381,1.18576,1.58716,1.55099,2.508c0.36631,0.89597,0.55678,1.85403,0.561,2.82199
	c0.00056,0.98639-0.17834,1.96466-0.528,2.88699c-0.33935,0.91406-0.84259,1.75854-1.485,2.492
	c-0.64541,0.73148-1.43088,1.3262-2.31001,1.74899c-0.92609,0.44543-1.94242,0.6713-2.97,0.66h-5.544V319H53.711z M58.265,307.15302
	h5.28c0.82212,0.00906,1.60039-0.37006,2.10001-1.02301c0.59796-0.7962,0.8961-1.77774,0.842-2.772
	c0.00819-0.54483-0.08121-1.0867-0.264-1.60001c-0.15728-0.43826-0.39201-0.84473-0.693-1.19998
	c-0.2743-0.32156-0.61884-0.57578-1.007-0.74301c-0.36958-0.16199-0.76848-0.2464-1.172-0.24799h-5.086V307.15302z M89.912,319
	h-4.422v-9.70001c0.0821-1.06241-0.18436-2.12262-0.759-3.01999c-0.51469-0.65326-1.31445-1.01602-2.145-0.97299
	c-0.43102,0.0072-0.85666,0.0968-1.254,0.26398c-0.45276,0.18365-0.87545,0.43411-1.254,0.74301
	c-0.40909,0.33276-0.77493,0.71539-1.089,1.13901c-0.32802,0.43597-0.57403,0.92798-0.726,1.452V319h-4.422v-24.09h4.422v10
	c0.60432-1.08868,1.50156-1.98627,2.59-2.591c1.10587-0.6091,2.35057-0.92157,3.61301-0.90701
	c0.9469-0.03857,1.88843,0.1601,2.739,0.578c0.67497,0.35785,1.244,0.88687,1.64999,1.534
	c0.40768,0.66858,0.68744,1.40714,0.825,2.17801c0.1552,0.82693,0.23254,1.66663,0.231,2.508L89.912,319z M93.77299,319v-17.29199
	H98.2V319H93.77299z M93.77299,299.29999V294.91H98.2v4.38998H93.77299z M102.155,294.91101h4.422v18.54498
	c-0.03352,0.53494,0.13092,1.06351,0.462,1.48502c0.33855,0.36502,0.82308,0.55884,1.32,0.52798
	c0.29626-0.00464,0.59055-0.04904,0.875-0.13199c0.31082-0.08511,0.61416-0.19547,0.907-0.33002l0.594,3.366
	c-0.66199,0.30786-1.36067,0.52966-2.079,0.66003c-0.70603,0.14496-1.42428,0.22232-2.145,0.23099
	c-1.17668,0.07465-2.33455-0.32306-3.217-1.10501c-0.80153-0.84653-1.21425-1.98865-1.139-3.15198L102.155,294.91101z
	 M112.616,294.91101h4.422v18.54498c-0.03352,0.53494,0.13092,1.06351,0.462,1.48502c0.33855,0.36502,0.82308,0.55884,1.32,0.52798
	c0.29626-0.00464,0.59055-0.04904,0.875-0.13199c0.31082-0.08511,0.61416-0.19547,0.907-0.33002l0.594,3.366
	c-0.66199,0.30786-1.36067,0.52966-2.079,0.66003c-0.70603,0.14496-1.42428,0.22232-2.145,0.23099
	c-1.17668,0.07465-2.33455-0.32306-3.217-1.10501c-0.80116-0.84668-1.21351-1.9888-1.138-3.15198L112.616,294.91101z
	 M127.829,319.33002c-0.79958,0.00659-1.59364-0.13303-2.343-0.41202c-0.69704-0.25717-1.33632-0.64969-1.881-1.155
	c-0.524-0.48904-0.94492-1.07791-1.238-1.73199c-0.30256-0.68579-0.45464-1.42847-0.446-2.17801
	c-0.00643-0.78696,0.18073-1.56342,0.545-2.26099c0.36562-0.69583,0.8847-1.29941,1.518-1.76501
	c0.70368-0.51123,1.49066-0.89661,2.326-1.13901c0.96414-0.28363,1.96506-0.42245,2.97-0.41199
	c0.75777-0.00037,1.51407,0.06656,2.26001,0.20001c0.67343,0.11356,1.33215,0.30173,1.96399,0.56097V308.047
	c0.06351-0.97797-0.29001-1.93713-0.97299-2.63998c-0.80655-0.67062-1.84198-1.00192-2.888-0.92401
	c-0.92451,0.00009-1.84134,0.16782-2.70601,0.495c-0.95797,0.37155-1.86675,0.85919-2.706,1.452l-1.353-2.80499
	c2.12136-1.44312,4.62831-2.21359,7.19399-2.211c2.09128-0.13046,4.15616,0.52264,5.79201,1.832
	c1.43929,1.37354,2.19493,3.31488,2.063,5.29999v5.379c-0.03143,0.34842,0.05559,0.69724,0.24701,0.99002
	c0.21149,0.21851,0.505,0.33823,0.80899,0.32999V319c-0.63969,0.1416-1.29193,0.21899-1.94699,0.23102
	c-0.68953,0.04507-1.37299-0.1535-1.931-0.561c-0.45193-0.37598-0.75101-0.90405-0.841-1.48502l-0.10001-0.957
	c-0.73599,0.98404-1.6981,1.77637-2.80499,2.31C130.2576,319.06625,129.05051,319.33707,127.829,319.33002z M129.08301,316.10001
	c0.72858,0.00247,1.451-0.13324,2.129-0.39999c0.60168-0.21686,1.14014-0.57971,1.56699-1.05603
	c0.4296-0.27689,0.69977-0.74356,0.72601-1.254V311.41c-0.55788-0.20654-1.13182-0.36676-1.716-0.479
	c-0.58675-0.11789-1.18355-0.1785-1.78201-0.181c-0.99335-0.04297-1.97496,0.22858-2.80499,0.776
	c-0.6752,0.42468-1.0861,1.16534-1.089,1.96301c-0.01308,0.71991,0.3028,1.40652,0.858,1.86499
	C127.55811,315.85602,128.31085,316.12189,129.08301,316.10001z M149.213,319.33398c-2.25294,0.02411-4.40642-0.92633-5.907-2.60699
	c-0.7399-0.83682-1.3165-1.80487-1.7-2.854c-0.41315-1.12506-0.6198-2.31549-0.61-3.51398
	c-0.01099-1.19122,0.18423-2.37537,0.577-3.5c0.35989-1.03381,0.90175-1.99496,1.60001-2.83801
	c0.66911-0.80389,1.50153-1.45633,2.442-1.914c0.96626-0.46643,2.02711-0.70358,3.09999-0.69299
	c1.21304-0.01715,2.40701,0.30273,3.44901,0.92401c0.99112,0.58408,1.81494,1.41376,2.392,2.409V294.91h4.422v19.008
	c-0.02994,0.34616,0.05096,0.69284,0.231,0.98999c0.2032,0.22031,0.49249,0.34085,0.79201,0.33002V319
	c-0.6183,0.13623-1.24811,0.21356-1.88101,0.23102c-0.69771,0.02957-1.38461-0.17999-1.94699-0.59402
	c-0.49277-0.37213-0.80457-0.93582-0.858-1.55099l-0.10001-1.08899c-0.60178,1.06549-1.50208,1.93173-2.59,2.492
	c-1.05249,0.55145-2.22279,0.84-3.41101,0.841L149.213,319.33398z M150.368,315.57199c0.43765-0.00339,0.87202-0.07596,1.287-0.215
	c0.43549-0.1409,0.84717-0.34689,1.22101-0.61099c0.37381-0.26364,0.71225-0.57419,1.00699-0.92401
	c0.29123-0.34244,0.52002-0.73337,0.67599-1.155V308.539c-0.17505-0.48233-0.42584-0.93365-0.74298-1.33701
	c-0.3125-0.4006-0.67897-0.75598-1.089-1.056c-0.3965-0.29105-0.82912-0.52936-1.287-0.70898
	c-0.42488-0.17087-0.87807-0.26041-1.336-0.26401c-0.6362-0.00571-1.26448,0.14142-1.832,0.42899
	c-0.55725,0.28262-1.04703,0.68204-1.436,1.17102c-0.40369,0.50916-0.71629,1.08429-0.924,1.69998
	c-0.21982,0.63693-0.33136,1.30621-0.33,1.98001c-0.00693,0.68787,0.11623,1.37088,0.36301,2.013
	c0.22891,0.59473,0.56442,1.1427,0.98999,1.617c0.41916,0.46298,0.92996,0.83383,1.5,1.08899
	c0.60835,0.26947,1.26768,0.40454,1.933,0.396V315.57199z M171.356,319.33398c-1.28896,0.01831-2.56839-0.22314-3.76199-0.70999
	c-2.15404-0.87784-3.8532-2.60156-4.7-4.76801c-0.42963-1.08182-0.64789-2.23599-0.64301-3.39999
	c-0.00769-1.18909,0.2049-2.36932,0.62701-3.48099c0.4043-1.07053,1.02061-2.04843,1.81198-2.875
	c0.81938-0.8439,1.802-1.51215,2.888-1.96402c1.20778-0.49854,2.50453-0.74554,3.811-0.72598
	c1.29633-0.02197,2.5831,0.22525,3.77901,0.72598c1.06636,0.45331,2.03128,1.11526,2.838,1.94702
	c0.78136,0.81454,1.38779,1.78033,1.782,2.83798c0.40672,1.0755,0.61378,2.21619,0.61099,3.366
	c0,0.28601-0.00534,0.561-0.01601,0.82501c-0.00574,0.2222-0.03354,0.4433-0.08299,0.66H166.935
	c0.0533,0.63065,0.22282,1.246,0.5,1.815c0.50078,1.02255,1.37486,1.81396,2.442,2.211
	c0.52734,0.19894,1.08638,0.30057,1.64999,0.29999c0.87207,0.00192,1.73006-0.21982,2.492-0.64401
	c0.71695-0.36047,1.28358-0.96252,1.60001-1.69998l3.8,1.056c-0.67543,1.3606-1.73747,2.49152-3.05299,3.25101
	c-1.51958,0.87961-3.25394,1.319-5.00902,1.26901L171.356,319.33398z M175.84399,308.89999
	c-0.0584-1.1857-0.57294-2.30289-1.436-3.11798c-1.73126-1.59442-4.3981-1.58746-6.121,0.01599
	c-0.40553,0.38687-0.73579,0.84564-0.974,1.353c-0.25832,0.54935-0.40936,1.14297-0.44501,1.74899H175.84399z M183.071,294.90799
	h4.422v18.548c-0.03352,0.53494,0.13092,1.06351,0.46201,1.48502c0.33856,0.36505,0.82309,0.55884,1.32001,0.52798
	c0.29591-0.00476,0.58987-0.04913,0.87399-0.13199c0.31116-0.08505,0.61484-0.19543,0.908-0.33002l0.59399,3.366
	c-0.66199,0.30786-1.36067,0.52966-2.07899,0.66003c-0.70604,0.14496-1.42429,0.22232-2.145,0.23099
	c-1.17668,0.07465-2.33455-0.32306-3.217-1.10501c-0.80153-0.8465-1.21425-1.98865-1.13901-3.15198V294.90799z M203.927,319.328
	c-1.24876,0.02972-2.48167-0.28439-3.564-0.90799c-0.99849-0.59094-1.81926-1.44006-2.37601-2.45801v10.06699h-4.422v-24.32098
	h3.86099v2.97c0.61476-0.98978,1.46507-1.81192,2.47501-2.39301c1.06808-0.59778,2.27628-0.89981,3.5-0.875
	c1.11771-0.01096,2.22337,0.23145,3.23399,0.70898c0.97253,0.45978,1.84251,1.11072,2.558,1.914
	c0.73285,0.83295,1.30363,1.79544,1.683,2.83801c0.40979,1.10345,0.61678,2.27191,0.61099,3.44901
	c0.00862,1.19986-0.18092,2.39288-0.561,3.53101c-0.34364,1.0444-0.87502,2.01736-1.56799,2.87097
	c-0.65346,0.79993-1.46906,1.45227-2.39301,1.914c-0.94395,0.46716-1.98482,0.70493-3.03798,0.69403V319.328z M202.442,315.56601
	c0.63586,0.00555,1.26378-0.14157,1.83099-0.42902c0.5542-0.2803,1.0434-0.67377,1.436-1.155
	c0.4057-0.50153,0.71861-1.07147,0.924-1.68298c0.21982-0.63693,0.33136-1.30621,0.33-1.98001
	c0.00586-0.69299-0.11723-1.38101-0.36301-2.02899c-0.22797-0.60382-0.56984-1.1582-1.007-1.633
	c-0.42783-0.46115-0.94408-0.83151-1.51801-1.08902c-0.59714-0.26859-1.24524-0.40503-1.89999-0.39999
	c-0.43765,0.00339-0.87201,0.07596-1.287,0.215c-0.4348,0.14304-0.84544,0.35107-1.21799,0.617
	c-0.37381,0.26364-0.71225,0.57419-1.007,0.92401c-0.29121,0.34244-0.52002,0.73337-0.67599,1.155v4.05899
	c0.37775,0.965,1.00391,1.81299,1.815,2.45801c0.74008,0.62134,1.67371,0.96509,2.64,0.97198V315.56601z M230.558,319h-4.422
	v-9.70001c0.08211-1.06241-0.18436-2.12262-0.759-3.01999c-0.51469-0.65326-1.31445-1.01605-2.145-0.97299
	c-0.43102,0.0072-0.85666,0.0968-1.254,0.26398c-0.45276,0.18365-0.87544,0.43411-1.254,0.74301
	c-0.40909,0.33276-0.77493,0.71539-1.089,1.13901c-0.32802,0.43597-0.57402,0.92798-0.726,1.452V319h-4.422v-24.09h4.422v10
	c0.60431-1.08868,1.50156-1.98627,2.59-2.591c1.10616-0.60925,2.35123-0.92172,3.614-0.90701
	c0.9469-0.03857,1.88843,0.1601,2.739,0.578c0.67497,0.35785,1.24399,0.88687,1.64999,1.534
	c0.40767,0.66858,0.68744,1.40714,0.825,2.17801c0.1552,0.82693,0.23254,1.66663,0.231,2.508L230.558,319z M234.41901,319v-17.29199
	h4.422V319H234.41901z M234.41901,299.29999V294.91h4.422v4.38998H234.41901z M247.55299,319.33002
	c-0.79959,0.00659-1.59364-0.13303-2.343-0.41202c-0.69705-0.25717-1.33632-0.64969-1.881-1.155
	c-0.524-0.48901-0.94492-1.07791-1.23801-1.73199c-0.30219-0.68588-0.45393-1.42856-0.44501-2.17801
	c-0.00642-0.78696,0.18073-1.56342,0.545-2.26099c0.36562-0.69583,0.88472-1.29941,1.51801-1.76501
	c0.70398-0.51135,1.49132-0.89673,2.327-1.13901c0.96414-0.28363,1.96506-0.42245,2.97-0.41199
	c0.75777-0.00037,1.51407,0.06656,2.25999,0.20001c0.67345,0.11359,1.33217,0.30173,1.964,0.56097V308.047
	c0.06323-0.97812-0.29065-1.93732-0.974-2.63998c-0.80629-0.67038-1.84129-1.00165-2.88699-0.92401
	c-0.9245,0.00009-1.84132,0.16782-2.70599,0.495c-0.95796,0.37155-1.86674,0.85919-2.70599,1.452l-1.35699-2.80798
	c2.12135-1.44312,4.62831-2.21362,7.194-2.211c2.09126-0.13046,4.15614,0.52264,5.79199,1.832
	c1.43927,1.37354,2.19495,3.31488,2.06299,5.29999v5.379c-0.03143,0.34839,0.0556,0.6972,0.24701,0.99002
	c0.21149,0.21851,0.505,0.33823,0.80902,0.32999V319c-0.63971,0.1416-1.29193,0.21899-1.94702,0.23102
	c-0.68918,0.04483-1.37224-0.15372-1.92999-0.561c-0.4523-0.37582-0.75174-0.9039-0.842-1.48502l-0.10001-0.957
	c-0.73457,0.98343-1.69492,1.7757-2.8,2.31C249.98369,319.06668,248.7755,319.33752,247.55299,319.33002z M248.80699,316.09601
	c0.72858,0.00247,1.451-0.13324,2.129-0.40002c0.60205-0.21667,1.14085-0.57956,1.56799-1.05597
	c0.4296-0.27692,0.69975-0.74359,0.726-1.25403V311.41c-0.55788-0.20654-1.13182-0.36676-1.716-0.479
	c-0.58675-0.11789-1.18353-0.1785-1.782-0.181c-0.99336-0.04297-1.97496,0.22858-2.80499,0.776
	c-0.6752,0.42468-1.08611,1.16534-1.089,1.96301c-0.01308,0.71991,0.3028,1.40652,0.858,1.86499
	c0.58685,0.50177,1.3392,0.76764,2.11102,0.746L248.80699,316.09601z M268.83801,307.54901
	c-0.00269,1.1337-0.1369,2.26324-0.40002,3.366c-0.27142,1.14569-0.6243,2.27057-1.05597,3.366
	c-0.44824,1.13934-0.97211,2.24747-1.56799,3.31699c-0.60468,1.08868-1.24799,2.13901-1.92999,3.151l-3.23401-1.61697
	c1.13702-1.89789,2.1192-3.88431,2.93701-5.94c0.71756-1.76154,1.09814-3.64209,1.12198-5.54401
	c-0.00833-1.18591-0.16351-2.36624-0.46201-3.51401c-0.57037-2.26385-1.39529-4.45581-2.45898-6.534
	c-0.37408-0.74155-0.78702-1.46289-1.237-2.16101l3.39996-1.41898c0.68201,1.16599,1.32001,2.31564,1.914,3.44897
	c0.57819,1.09827,1.09595,2.22729,1.55103,3.38202c0.4296,1.08911,0.77692,2.20892,1.039,3.35001
	C268.7077,305.29913,268.83615,306.42218,268.83801,307.54901z"/>
<path id="Path_2631" class="st2" d="M653.83398,142.7h1.354c1.4812,0.09673,2.95801-0.24518,4.24603-0.983
	c0.96271-0.65631,1.51013-1.76985,1.44196-2.933c0.10706-1.2614-0.37457-2.50153-1.30499-3.36
	c-1.08374-0.78044-2.40533-1.15945-3.73798-1.07199c-0.62689-0.01042-1.25317,0.04353-1.86902,0.161
	c-0.086,0.924-0.12897,3.09933-0.12897,6.526L653.83398,142.7z M656.26697,152.336c0.1236,0.29645,0.18909,0.61386,0.19305,0.935
	c0.07843,0.32196-0.11896,0.64655-0.44092,0.72501c-0.09332,0.02275-0.19073,0.02275-0.28412,0h-7.573
	c-0.13092-0.32277-0.20178-0.66676-0.20898-1.015c-0.01648-0.18031,0.04504-0.35904,0.16901-0.491
	c0.16064-0.11671,0.35822-0.1711,0.55597-0.153h1.466c0.086-1.49333,0.12903-5.323,0.12903-11.489
	c0-3.298-0.04303-5.69368-0.12903-7.18701h-1.86896c-0.12134-0.32497-0.18658-0.66818-0.19305-1.015
	c-0.01648-0.1803,0.04504-0.35902,0.16901-0.491c0.16071-0.11671,0.35828-0.1711,0.55603-0.153h6.94501
	c3.27667,0,5.60767,0.45134,6.99298,1.354c1.40979,0.94649,2.20343,2.57654,2.07898,4.27c0,2.97533-1.78333,5.00566-5.34998,6.09099
	c0.98993,0.29051,1.85992,0.89224,2.48102,1.716c0.79449,1.11372,1.46698,2.30959,2.00598,3.567
	c0.38922,1.0347,0.9505,1.99623,1.65997,2.84399c0.48895,0.37561,1.10242,0.55115,1.716,0.491
	c0.22534,0.77335,0.19836,1.29701-0.08099,1.57101c-0.6297,0.3598-1.35974,0.50412-2.07898,0.411
	c-0.94574,0.06717-1.89319-0.10478-2.755-0.5c-0.55865-0.33334-1.14136-1.51767-1.74799-3.55301
	c-0.37439-1.53694-1.02716-2.99231-1.92603-4.29399c-0.72882-0.85086-1.81476-1.31033-2.93298-1.241
	c-0.66394-0.00023-1.32678,0.05362-1.98199,0.161c0.0213,3.70599,0.06433,6.18733,0.12897,7.444L656.26697,152.336z
	 M676.086,139.965c-0.95868-0.05504-1.88013,0.37842-2.44897,1.15201c-0.64697,1.08629-0.96576,2.33656-0.91803,3.59999h1.66003
	c1.76196,0,2.96198-0.03333,3.59998-0.09999s1.00867-0.18201,1.112-0.34601c0.12573-0.28239,0.17834-0.5919,0.15302-0.89999
	c0.05396-0.90488-0.23364-1.79706-0.80603-2.5C677.82581,140.23717,676.96521,139.90565,676.086,139.965z M676.698,137.806
	c1.61121-0.13095,3.20905,0.37856,4.44702,1.418c0.96997,0.94533,1.45496,2.504,1.45496,4.67599
	c0.0722,0.70689-0.11078,1.41629-0.51599,2c-0.65277,0.46838-1.45959,0.6701-2.25598,0.56401h-7.12799
	c-0.06006,1.44865,0.30682,2.88304,1.05499,4.125c0.86963,1.08585,2.23413,1.6517,3.617,1.5
	c1.58771,0.00777,3.14612-0.42755,4.5-1.257c0.42133,0.37366,0.67169,0.90326,0.69299,1.466c0,0.72-0.59369,1.22499-1.78101,1.515
	c-1.31787,0.30458-2.66742,0.45061-4.02002,0.435c-2.75,0-4.724-0.58267-5.922-1.748s-1.79797-3.12833-1.79999-5.88901
	c-0.12982-2.31998,0.58893-4.60796,2.02203-6.437c1.41803-1.60921,3.49414-2.48151,5.63599-2.368H676.698z M692.89197,139.965
	c-1.10797-0.09177-2.17908,0.42273-2.79999,1.345c-0.69122,1.44688-0.98853,3.05049-0.862,4.649
	c-0.07214,1.55986,0.2088,3.11591,0.82202,4.552c0.49445,1.06956,1.59497,1.72569,2.771,1.65199
	c0.65137,0.00787,1.29602-0.13269,1.88501-0.411c0.50366-0.21227,0.91699-0.59444,1.16797-1.08
	c0.28503-1.07532,0.39111-2.19022,0.31403-3.29999V140.8c-0.4491-0.24074-0.92151-0.43507-1.40997-0.58
	c-0.61273-0.17892-1.24884-0.26488-1.88702-0.255H692.89197z M696.646,152.711c-0.8576,0.52643-1.77777,0.94334-2.73901,1.241
	c-0.85327,0.24783-1.73749,0.37277-2.62598,0.371c-1.57825,0.09961-3.12012-0.50192-4.21399-1.644
	c-0.98267-1.09599-1.474-2.996-1.474-5.7c0-2.98601,0.65533-5.26067,1.966-6.82401c1.4967-1.64244,3.66479-2.50658,5.88098-2.34399
	c0.52148-0.00897,1.04291,0.02078,1.56,0.08899c0.41864,0.06668,0.81598,0.14734,1.19202,0.242
	c0-0.79466-0.01868-1.646-0.05603-2.554c-0.00439-0.64835-0.0802-1.29424-0.22595-1.92599
	c-0.06494-0.3163-0.27344-0.58432-0.56403-0.72501c-0.32233-0.11739-0.66412-0.17203-1.00702-0.161
	c-0.1347-0.31039-0.20581-0.64465-0.20898-0.983c-0.0351-0.27831,0.13293-0.54216,0.40002-0.62801
	c0.88037-0.12558,1.77057-0.16876,2.659-0.129c0.57733-0.02242,1.1554,0.01817,1.724,0.121
	c0.30066,0.08067,0.47266,0.231,0.51599,0.451c0.05554,0.377,0.07928,0.75801,0.07098,1.13899v11.537
	c-0.09076,2.39371,0.00354,4.79083,0.28198,7.17c0.18799,0.67667,0.48071,0.972,0.87799,0.886
	c0.14117,0.21603,0.21942,0.46706,0.22601,0.72501c0,0.30066-0.3573,0.58533-1.07202,0.854
	c-0.55536,0.23274-1.14667,0.36804-1.74799,0.39999c-0.25531,0.00562-0.50116-0.09679-0.677-0.282
	c-0.30908-0.40448-0.55896-0.85097-0.742-1.326H696.646z M710.97101,137.811c1.13971-0.03641,2.27826,0.1022,3.37598,0.411
	c0.8327,0.274,1.24902,0.717,1.24902,1.32899c-0.02948,0.70569-0.31616,1.37617-0.80603,1.88501
	c-1.5495-0.82394-3.25092-1.3228-5-1.466c-0.65424-0.0468-1.30634,0.11682-1.86096,0.467
	c-0.41821,0.32079-0.65039,0.82784-0.62006,1.354c-0.01276,0.58594,0.24554,1.14499,0.70001,1.515
	c0.88312,0.60812,1.8526,1.08008,2.87604,1.39999c1.41199,0.42393,2.73395,1.10391,3.89996,2.00601
	c0.79126,0.73444,1.21606,1.78189,1.16003,2.86c0.06696,1.40376-0.60272,2.74089-1.76703,3.528
	c-1.5199,0.90529-3.2771,1.33214-5.04297,1.22499c-1.28009,0.03954-2.56012-0.07936-3.81104-0.35399
	c-0.87531-0.23601-1.31299-0.73001-1.31299-1.48201c0.01709-0.5934,0.23895-1.16261,0.62799-1.61099
	c1.59302,0.79965,3.34222,1.23969,5.12402,1.28899c0.76703,0.05298,1.53314-0.11462,2.20801-0.48299
	c0.49811-0.35126,0.7738-0.93944,0.72498-1.54701c0.00116-0.76247-0.42316-1.46187-1.09998-1.81299
	c-1.10815-0.61969-2.26379-1.15036-3.45599-1.58701c-1.19452-0.37714-2.29004-1.01559-3.20703-1.869
	c-0.60382-0.68958-0.92084-1.58409-0.88599-2.5c-0.01788-1.32799,0.64459-2.57292,1.75598-3.3
	c1.55292-0.94061,3.35736-1.38118,5.16901-1.26199L710.97101,137.811z M720.67102,138.211l1.30499-4.576
	c0.40302,0.11876,0.78998,0.2867,1.15198,0.5c0.28778,0.1651,0.52869,0.40086,0.70001,0.68501
	c0.22028,0.89249,0.29657,1.81444,0.22595,2.73099v0.66101h5.30005c0.13,0.36176,0.19537,0.74358,0.19299,1.12799
	c0.02887,0.22223-0.03516,0.4465-0.177,0.62001c-0.21362,0.12627-0.46234,0.17995-0.70898,0.153h-4.60803v7.62199
	c-0.09912,1.21724,0.07166,2.44133,0.5,3.58501c0.29974,0.55457,0.87665,0.90295,1.50702,0.90999
	c0.86572-0.01657,1.71442-0.24342,2.47296-0.661c0.23236,0.34209,0.35577,0.74648,0.354,1.16
	c0.0083,0.56082-0.39087,1.0451-0.94299,1.144c-0.97321,0.23122-1.97339,0.32878-2.97302,0.28999
	c-1.14532,0.09993-2.28796-0.21994-3.21497-0.89999c-0.67133-0.60001-1.00702-1.72266-1.00702-3.368v-3.795
	c0-2.06267-0.05896-4.06067-0.177-5.994H719c-0.12482-0.36311-0.18994-0.74405-0.19299-1.12801
	c-0.01855-0.21144,0.0448-0.42194,0.177-0.588c0.16644-0.14085,0.38312-0.20767,0.59998-0.185L720.67102,138.211z
	 M739.23401,152.16501c1.07715,0.07809,2.10614-0.45828,2.659-1.386c0.63458-1.32965,0.91754-2.7998,0.82196-4.27
	c0.09943-1.68677-0.19-3.37384-0.84595-4.931c-0.55823-1.07195-1.70325-1.70627-2.90802-1.61101
	c-1.07715-0.07809-2.10614,0.45828-2.659,1.386c-0.6355,1.33505-0.91846,2.81058-0.82202,4.28601
	c-0.09863,1.68152,0.19086,3.3632,0.84601,4.91499c0.55878,1.07117,1.70367,1.70465,2.90802,1.60899V152.16501z
	 M738.62201,154.32401c-2.33337,0-4.04669-0.61768-5.14001-1.853c-1.09332-1.23534-1.64136-3.09901-1.64398-5.591
	c-0.14801-2.39417,0.55701-4.76332,1.98999-6.68701c1.44226-1.6412,3.56335-2.52191,5.74402-2.38499
	c2.33331,0,4.04663,0.61766,5.13995,1.853s1.64136,3.10434,1.64404,5.60701c0.14648,2.38904-0.55859,4.75267-1.98999,6.67099
	c-1.44269,1.64049-3.56372,2.52043-5.74402,2.38301V154.32401z M753.849,139.951c0.97284-0.66501,2.03333-1.19171,3.151-1.565
	c0.89545-0.30862,1.83313-0.47726,2.78003-0.5c1.16309-0.0864,2.31628,0.2673,3.23096,0.991
	c0.72534,0.66066,1.08801,1.92033,1.08801,3.77901c0,5.77933,0.08331,8.84099,0.25,9.185
	c0.16669,0.34399,0.55066,0.51067,1.15198,0.5c0.1156,0.29823,0.1756,0.61514,0.177,0.935
	c0.02991,0.23027-0.07715,0.45683-0.27399,0.58c-0.3241,0.12027-0.67023,0.16971-1.01501,0.145
	c-1.49335,0-2.40631-0.01868-2.73895-0.056c-0.26587-0.00186-0.51581-0.12666-0.677-0.33801
	c-0.14062-0.2934-0.20166-0.61859-0.177-0.94299v-6.946c0-2.21266-0.23334-3.68434-0.70001-4.41499
	c-0.49957-0.74986-1.36578-1.17072-2.26398-1.10001c-0.83447-0.01883-1.65027,0.24828-2.31201,0.757
	c-0.73096,0.70653-1.09137,1.71306-0.97504,2.72299v3.40001c0,1.90132,0.03766,3.65233,0.11304,5.25299h1.789
	c0.12927,0.28232,0.19513,0.58951,0.19299,0.89999c0.02606,0.21585-0.03796,0.43288-0.177,0.60001
	c-0.20038,0.13013-0.43951,0.187-0.677,0.161h-6.336c-0.13147-0.3058-0.20245-0.63419-0.20905-0.967
	c-0.01611-0.19165,0.04797-0.38141,0.177-0.524c0.16492-0.12782,0.37225-0.18823,0.58002-0.16899h1.112
	c0.086-1.70801,0.12903-3.80267,0.12903-6.28401c0-3.16866-0.12366-5.00566-0.37103-5.511
	c-0.27203-0.51987-0.83466-0.82019-1.41797-0.75699c-0.13751-0.29254-0.20886-0.61177-0.20905-0.93501
	c-0.03033-0.24138,0.10974-0.47183,0.33801-0.556c1.41742-0.16472,2.84308-0.24818,4.27002-0.25
	c0.06549,0.63332,0.06549,1.2717,0,1.90501V139.951z M775.60199,139.967c-0.95868-0.05504-1.88013,0.37842-2.44897,1.15201
	c-0.64697,1.08629-0.96576,2.33656-0.91803,3.59999h1.66003c1.76196,0,2.96198-0.03333,3.59998-0.09999
	s1.00867-0.18201,1.112-0.34601c0.12579-0.28239,0.17841-0.5919,0.15302-0.89999c0.05402-0.90488-0.23364-1.79706-0.80603-2.5
	c-0.61224-0.63512-1.47375-0.96742-2.354-0.908L775.60199,139.967z M776.21399,137.808
	c1.61121-0.13095,3.20905,0.37856,4.44702,1.418c0.96667,0.94533,1.45001,2.50301,1.45001,4.673
	c0.0722,0.70688-0.11084,1.41628-0.51605,2c-0.65271,0.46838-1.45959,0.67009-2.25598,0.564h-7.12195
	c-0.06006,1.44867,0.30676,2.88304,1.05493,4.125c0.86969,1.08586,2.23413,1.6517,3.61707,1.5
	c1.58771,0.00777,3.14612-0.42755,4.5-1.257c0.42126,0.37367,0.67163,0.90326,0.69299,1.466c0,0.72-0.59369,1.22501-1.78101,1.515
	c-1.31793,0.30458-2.66748,0.45062-4.02002,0.435c-2.75,0-4.724-0.58266-5.922-1.748
	c-1.198-1.16533-1.79803-3.12833-1.80005-5.88899c-0.12976-2.31999,0.58893-4.60796,2.02203-6.437
	c1.41754-1.608,3.49237-2.47984,5.633-2.367V137.808z M669.09302,166.76401c0.69067-0.04825,1.3847-0.00215,2.06299,0.13699
	c0.16132,0.09134,1.24634,3.09367,3.255,9.007s3.36731,9.724,4.07599,11.43199h1.41803
	c0.12354,0.29645,0.18903,0.61386,0.19299,0.935c0.07843,0.32196-0.11896,0.64655-0.44092,0.72501
	c-0.09332,0.02274-0.1908,0.02274-0.28412,0h-6.68597c-0.13092-0.32278-0.20178-0.66676-0.20898-1.01501
	c-0.01648-0.1803,0.04504-0.35902,0.16895-0.491c0.16071-0.11671,0.35828-0.17108,0.55603-0.15298h0.87
	c-0.20398-0.95601-0.71967-2.79301-1.547-5.51102H665.258c-0.75201,2.69601-1.20465,4.53268-1.35797,5.51001h1.5
	c0.12354,0.29645,0.18909,0.61386,0.19299,0.935c0.07843,0.32196-0.11896,0.64655-0.44092,0.72501
	c-0.09332,0.02274-0.19073,0.02274-0.28412,0h-5.92999c-0.12128-0.32498-0.18652-0.66818-0.19299-1.01501
	c-0.01648-0.1803,0.04504-0.35902,0.16901-0.491c0.16064-0.11671,0.35822-0.17108,0.55597-0.15298h0.93506
	c0.70862-1.95534,1.88495-5.48668,3.52899-10.59401c1.64398-5.10733,2.659-8.048,3.04498-8.82201
	C667.37897,167.14117,668.21692,166.68097,669.09302,166.76401z M671.89301,179.75101
	c-1.95532-6.22002-3.00531-9.33-3.15002-9.33002c-0.14465,0.00002-1.11963,3.11-2.92499,9.33002H671.89301z M681.80298,173.851
	c-0.03033-0.24139,0.10974-0.47185,0.33801-0.556c1.41742-0.16472,2.84308-0.24818,4.27002-0.25
	c0.06549,0.65904,0.06549,1.32295,0,1.98199c1.0506-0.73746,2.21173-1.30318,3.44-1.67599
	c0.97559-0.2924,1.98669-0.44954,3.005-0.467c0.20526-0.01968,0.41217,0.0148,0.59998,0.09999
	c0.10199,0.06667,0.15302,0.21967,0.15302,0.459c-0.00592,0.50154-0.07922,1.00002-0.21802,1.48199
	c-0.06293,0.38091-0.24658,0.73149-0.52399,1c-0.3125,0.17621-0.65808,0.28584-1.01501,0.32201
	c-0.27081,0.07034-0.55286,0.08665-0.83002,0.048c-0.27509-0.26845-0.52081-0.56546-0.73297-0.886
	c-0.86676-0.03542-1.7085,0.29475-2.32001,0.91c-0.5907,0.60666-0.88599,1.82866-0.88599,3.66599
	c0.01062,3.298,0.05365,5.74734,0.12897,7.34801h2.27203c0.12921,0.28232,0.19513,0.58951,0.19299,0.90001
	c0.02606,0.21582-0.03796,0.43286-0.177,0.59999c-0.20038,0.13011-0.43951,0.187-0.677,0.161h-6.80701
	c-0.13147-0.3058-0.20245-0.63419-0.20898-0.967c-0.01617-0.19165,0.04791-0.38141,0.177-0.524
	c0.16492-0.12781,0.37219-0.18823,0.57996-0.16901h1.11206c0.08594-1.59999,0.12897-3.69466,0.12897-6.284
	c0-3.16866-0.12366-5.00566-0.37103-5.511c-0.27203-0.51987-0.83459-0.82019-1.41797-0.757
	c-0.13647-0.29037-0.20782-0.60712-0.20898-0.92798L681.80298,173.851z M702.55701,172.804
	c1.13971-0.03641,2.27832,0.1022,3.37598,0.411c0.8327,0.274,1.24902,0.717,1.24902,1.32899
	c-0.02948,0.70567-0.31616,1.37617-0.80603,1.88499c-1.54944-0.82393-3.25092-1.32278-5-1.46599
	c-0.65424-0.04681-1.30634,0.11682-1.86096,0.467c-0.41821,0.32079-0.65039,0.82784-0.62,1.354
	c-0.01282,0.58594,0.24548,1.14499,0.69995,1.515c0.88312,0.60812,1.8526,1.08006,2.87604,1.39999
	c1.41199,0.42393,2.73395,1.1039,3.89996,2.006c0.79126,0.73445,1.21606,1.78191,1.16003,2.86002
	c0.07013,1.40561-0.59869,2.74586-1.76404,3.535c-1.5199,0.90529-3.2771,1.33212-5.04297,1.22499
	c-1.28009,0.03954-2.56012-0.07936-3.81097-0.35399c-0.87537-0.23868-1.31305-0.73401-1.31305-1.48601
	c0.01709-0.5934,0.23895-1.16261,0.62805-1.61101c1.59302,0.79967,3.34216,1.2397,5.12396,1.289
	c0.76703,0.05298,1.53314-0.11462,2.20801-0.483c0.49817-0.35124,0.7738-0.93942,0.72498-1.547
	c0.00116-0.76247-0.42316-1.46187-1.09998-1.81299c-1.10815-0.61969-2.26379-1.15036-3.45599-1.58701
	c-1.19452-0.37715-2.29004-1.01559-3.20703-1.869c-0.60376-0.68958-0.92078-1.58409-0.88599-2.5
	c-0.01788-1.328,0.64459-2.57292,1.75598-3.3c1.55334-0.93922,3.35779-1.37839,5.16901-1.258L702.55701,172.804z M717.54199,174.963
	c-0.9566-0.05217-1.87494,0.38182-2.44202,1.15401c-0.64691,1.08629-0.9657,2.33655-0.91797,3.59999h1.65997
	c1.76202,0,2.96204-0.03333,3.60004-0.09999s1.00867-0.18201,1.112-0.34601c0.12573-0.28239,0.17834-0.59192,0.15302-0.89999
	c0.05396-0.90488-0.23364-1.79707-0.80603-2.5c-0.61292-0.63467-1.47479-0.96625-2.35498-0.90601L717.54199,174.963z
	 M718.15399,172.804c1.61121-0.13095,3.20905,0.37856,4.44702,1.418c0.96667,0.94533,1.45001,2.50299,1.45001,4.67299
	c0.07214,0.70689-0.11084,1.41629-0.51605,2c-0.65271,0.46838-1.45959,0.6701-2.25598,0.56401h-7.117
	c-0.06006,1.44865,0.30682,2.88304,1.05499,4.125c0.86969,1.08585,2.23413,1.6517,3.617,1.5
	c1.58777,0.00777,3.14618-0.42755,4.5-1.257c0.42133,0.37367,0.67169,0.90326,0.69299,1.466c0,0.72-0.59363,1.22501-1.78101,1.515
	c-1.31787,0.30458-2.66742,0.45061-4.01996,0.435c-2.75,0-4.724-0.58266-5.922-1.748
	c-1.198-1.16533-1.79932-3.13033-1.80402-5.89499c-0.12982-2.31999,0.58887-4.60797,2.02197-6.43701
	c1.42017-1.60513,3.49597-2.47325,5.63605-2.35699L718.15399,172.804z M731.65399,174.94699
	c0.97266-0.66422,2.03278-1.19023,3.15002-1.56299c0.89545-0.30862,1.83313-0.47726,2.77997-0.5
	c1.16315-0.0864,2.31635,0.2673,3.23102,0.991c0.72534,0.66066,1.08801,1.92033,1.08801,3.77899
	c0,5.77934,0.08331,8.841,0.25,9.18501c0.16663,0.34401,0.55066,0.51067,1.15198,0.5c0.1156,0.29823,0.1756,0.61513,0.177,0.935
	c0.02991,0.23027-0.07715,0.45683-0.27399,0.58c-0.32184,0.11963-0.66547,0.16939-1.008,0.146
	c-1.49335,0-2.40637-0.01868-2.73901-0.056c-0.26581-0.00185-0.51581-0.12665-0.677-0.338
	c-0.14056-0.29341-0.2016-0.61859-0.177-0.94301V180.718c0-2.21268-0.23334-3.68434-0.70001-4.41501
	c-0.49957-0.74985-1.36572-1.1707-2.26398-1.09999c-0.83447-0.01883-1.65027,0.24828-2.31201,0.75699
	c-0.73096,0.70654-1.09137,1.71307-0.97498,2.72301v3.40001c0,1.90132,0.03766,3.65233,0.11298,5.25299h1.789
	c0.12927,0.28232,0.19513,0.58951,0.19299,0.89999c0.02606,0.21585-0.03796,0.43289-0.177,0.60001
	c-0.20032,0.13013-0.43951,0.187-0.677,0.16101h-6.33301c-0.13147-0.30582-0.20239-0.6342-0.20898-0.96701
	c-0.01617-0.19165,0.04797-0.38141,0.177-0.524c0.16492-0.12782,0.37225-0.18822,0.58002-0.16899h1.112
	c0.086-1.70801,0.12897-3.80267,0.12897-6.28401c0-3.16866-0.12366-5.00566-0.37097-5.511
	c-0.27209-0.51987-0.83466-0.82019-1.41803-0.75699c-0.13751-0.29254-0.20886-0.61177-0.20898-0.93501
	c-0.03033-0.24138,0.10974-0.47185,0.33801-0.556c1.41742-0.16472,2.84308-0.24818,4.26996-0.25
	c0.06488,0.63338,0.06421,1.27177-0.00195,1.90501L731.65399,174.94699z M756.08203,187.709
	c-0.87341,0.51367-1.80719,0.91676-2.78003,1.2c-0.9093,0.26816-1.85199,0.40652-2.79999,0.41101
	c-1.17169,0.0936-2.33368-0.27341-3.23901-1.02301c-0.76093-0.82065-1.14606-1.92093-1.06299-3.037
	c-0.08154-1.47144,0.57733-2.88635,1.75598-3.771c1.17065-0.87,2.98065-1.30499,5.42999-1.30501h2.36902
	c0.05682-1.36285-0.22272-2.71875-0.81403-3.948c-0.58856-0.79492-1.55457-1.21814-2.53796-1.112
	c-0.6228-0.0024-1.24408,0.06232-1.85303,0.19301c-0.15247,0.35056-0.33868,0.68547-0.55597,1
	c-0.30017,0.1209-0.61035,0.21526-0.927,0.282c-0.55865,0.14534-0.948,0.11833-1.16803-0.08099
	c-0.2951-0.31458-0.52515-0.68431-0.677-1.08801c-0.19763-0.39755-0.31519-0.83008-0.34601-1.27299
	c-0.00684-0.20218,0.09448-0.39272,0.26605-0.5c0.70099-0.23604,1.42914-0.3822,2.16699-0.435
	c1.3407-0.17665,2.69171-0.26285,4.04401-0.258c1.47198-0.10913,2.9422,0.23384,4.21399,0.983
	c0.90802,0.65533,1.362,1.85834,1.362,3.60899v4.96301c-0.08044,1.40906,0.02039,2.82262,0.29999,4.20599
	c0.09961,0.43951,0.53662,0.71509,0.9762,0.61551c0.00494-0.00113,0.00989-0.00229,0.01483-0.00351
	c0.12183,0.21098,0.18823,0.4494,0.19299,0.69299c0,0.36533-0.22833,0.64468-0.685,0.83801
	c-0.59021,0.21593-1.21698,0.31444-1.84497,0.28999c-0.2937,0.01421-0.58722-0.03242-0.86206-0.13701
	c-0.40405-0.36203-0.72247-0.80954-0.93201-1.31L756.08203,187.709z M755.76001,182.263
	c-0.94727-0.16321-1.90686-0.24419-2.86804-0.242c-0.90076-0.08629-1.80475,0.12897-2.56995,0.612
	c-0.52637,0.49927-0.7962,1.21132-0.73303,1.93401c-0.05322,0.70891,0.18225,1.40926,0.65302,1.942
	c0.55963,0.47908,1.28778,0.71423,2.02197,0.653c0.68323,0.00546,1.35944-0.1375,1.98199-0.41899
	c0.54474-0.21219,0.98267-0.63245,1.21704-1.168c0.23682-0.7635,0.33838-1.56253,0.29999-2.36101L755.76001,182.263z
	 M764.99298,179.763c0-4.54401-0.0213-7.43634-0.06396-8.677c0.00366-0.81415-0.07471-1.62659-0.23401-2.425
	c-0.06384-0.31436-0.26898-0.5818-0.55597-0.72499c-0.32477-0.11871-0.66949-0.1734-1.01501-0.16101
	c-0.13477-0.31038-0.20581-0.64465-0.20898-0.983c-0.03394-0.2814,0.13953-0.5464,0.41095-0.62799
	c0.87775-0.12502,1.76526-0.1682,2.651-0.129c0.57739-0.02242,1.15546,0.01816,1.724,0.121
	c0.30066,0.08066,0.47272,0.23099,0.51605,0.45099c0.05298,0.37622,0.0744,0.75621,0.06396,1.136V181.233
	c0.01068,2.578,0.05365,4.61366,0.12903,6.10699h1.78998c0.12921,0.28232,0.19513,0.58951,0.19299,0.90001
	c0.02606,0.21584-0.03796,0.43288-0.177,0.59999c-0.20038,0.13013-0.43951,0.18701-0.677,0.16101h-6.409
	c-0.13147-0.30582-0.20245-0.63419-0.20898-0.96701c-0.01617-0.19165,0.04791-0.38141,0.177-0.52399
	c0.16492-0.12784,0.37219-0.18823,0.57996-0.16901H764.87c0.08667-1.494,0.13-4.01868,0.13-7.57401L764.99298,179.763z"/>
<path id="Path_2632" class="st3" d="M346.617,223.636c-0.15399,1.86667-0.23102,3.53867-0.23102,5.01601
	c0,1.034,0.03336,1.87,0.10001,2.508h-0.759c-0.20135-1.88933-0.883-3.69566-1.97998-5.24701
	c-0.94055-1.03918-2.30063-1.5972-3.70001-1.51799h-1.086c-0.50058-0.02269-1.00162,0.03297-1.48499,0.16499
	c-0.30011,0.10182-0.53326,0.34128-0.62701,0.644c-0.13196,0.50011-0.18759,1.01727-0.16501,1.53401v8.31599h1.155
	c1.04974,0.05936,2.05582-0.42723,2.66101-1.287c0.63226-0.92348,1.06482-1.96877,1.26999-3.069h0.759
	c-0.06665,0.924-0.09998,1.95734-0.09998,3.10001v1.584c0,1.12199,0.06665,2.68399,0.19998,4.68599h-0.759
	c-0.46201-2.90399-1.80399-4.35599-4.026-4.35599h-1.16v7.588c-0.03625,0.65598,0.0593,1.31256,0.28101,1.931
	c0.18774,0.40758,0.55307,0.70573,0.98999,0.808c0.74219,0.16229,1.50037,0.23978,2.26001,0.23099V247
	c-2.70599-0.06667-4.71899-0.10001-6.039-0.10001c-1.10001,0-2.48599,0.022-4.15799,0.06601l-1.056,0.034v-0.66
	c0.54315-0.0117,1.08188-0.10059,1.60001-0.26399c0.33823-0.12889,0.59534-0.41048,0.69299-0.759
	c0.14569-0.59343,0.2066-1.20448,0.181-1.815v-16.368c0.0256-0.6105-0.03531-1.22157-0.181-1.815
	c-0.09766-0.34853-0.35477-0.63011-0.69299-0.759c-0.51813-0.16341-1.05685-0.25229-1.60001-0.26399v-0.66
	c2.37601,0.06667,5.96201,0.10001,10.758,0.10001C342.95401,223.73534,345.25299,223.702,346.617,223.636z M355.85699,229.47701
	c2.19296-0.12614,4.34119,0.65575,5.94,2.162c1.42999,1.44066,2.14502,3.72299,2.14502,6.84698
	c0,3.12401-0.71402,5.401-2.14203,6.83101c-1.60379,1.49649-3.75009,2.27155-5.94,2.145
	c-2.1839,0.12042-4.3226-0.65411-5.92297-2.145c-1.44135-1.43001-2.16202-3.707-2.16202-6.83099
	c0-3.12401,0.72067-5.40634,2.16202-6.847C351.53137,230.13864,353.67096,229.35727,355.85699,229.47701z M355.85699,230.13699
	c-0.94598,0-1.69934,0.68767-2.25998,2.063c-0.65796,2.02728-0.9429,4.15706-0.841,6.286
	c-0.10315,2.12375,0.18185,4.2485,0.841,6.27c0.56131,1.364,1.31467,2.04601,2.25998,2.04601
	c0.96802,0,1.72702-0.67633,2.27701-2.02901c0.64911-2.02904,0.92856-4.15817,0.82501-6.286
	c0.104-2.13362-0.18097-4.26837-0.841-6.3C357.55667,230.82033,356.80301,230.13699,355.85699,230.13699z M377.34,229.47701
	c0.84457-0.05968,1.67041,0.26822,2.24402,0.89099c0.50723,0.59787,0.77731,1.36116,0.759,2.145
	c0.03036,0.73332-0.22406,1.44997-0.71002,2c-0.47763,0.51924-1.15897,0.80289-1.86398,0.776
	c-0.64493,0.03468-1.27982-0.1709-1.78201-0.577c-0.44058-0.38568-0.68317-0.94991-0.65997-1.535
	c-0.00256-1.05449,0.54871-2.03288,1.45197-2.577c-0.13162-0.02623-0.26584-0.03731-0.39999-0.033
	c-0.17838-0.00557-0.35651,0.01669-0.52798,0.06599c-0.89642,0.17291-1.6734,0.7269-2.12903,1.51801
	c-0.55585,0.79413-0.86066,1.73677-0.875,2.70599v8.74301c-0.08795,0.78053,0.18573,1.55846,0.74301,2.112
	c0.69922,0.45294,1.52866,0.66179,2.35901,0.59399V247c-0.25342,0.00253-0.50677-0.00848-0.759-0.033
	c-2.24402-0.06667-3.73999-0.09999-4.48801-0.09999c-0.59399,0-1.94699,0.03333-4.05899,0.09999
	c-0.21915,0.02429-0.43954,0.03531-0.66,0.033v-0.69299c0.59711,0.06644,1.19495-0.11871,1.64999-0.51102
	c0.3671-0.54861,0.53055-1.20845,0.46201-1.86499v-10.40001c0.05676-0.76576-0.10336-1.53203-0.46201-2.211
	c-0.39255-0.50156-1.01703-0.76384-1.64999-0.69299v-0.69301c0.70401,0.06667,1.38599,0.10001,2.04599,0.10001
	c1.61853,0.03461,3.23553-0.12045,4.81799-0.46201v3.069c0.39124-0.91159,1.01761-1.70291,1.815-2.293
	C375.43515,229.77213,376.37601,229.46611,377.34,229.47701z M388.09802,229.939h3.89398v0.66h-3.892v13.332
	c-0.04495,0.4924,0.0773,0.9856,0.34698,1.39999c0.28702,0.29745,0.69333,0.44893,1.10501,0.412
	c0.94598,0,1.694-0.65999,2.24402-1.98l0.56097,0.3c-0.836,2.26666-2.34299,3.39999-4.521,3.39999
	c-1.20645,0.08748-2.39691-0.31728-3.29999-1.12199c-0.47037-0.47757-0.79623-1.07831-0.94-1.733
	c-0.18835-0.93918-0.27151-1.89642-0.24802-2.854v-11.15399h-2.77399v-0.66h2.772v-4.35699
	c1.64706,0.04102,3.27917-0.32152,4.754-1.056L388.09802,229.939z M411.20001,224.3
	c-0.58655,0.01031-1.16907,0.09911-1.73203,0.26399c-0.35336,0.1219-0.62863,0.40314-0.74298,0.759
	c-0.15952,0.59114-0.22696,1.20332-0.20001,1.815v16.76199c-0.02267,0.51706,0.03293,1.03458,0.16501,1.535
	c0.08478,0.29103,0.297,0.52789,0.577,0.64401c0.4324,0.13202,0.88449,0.18785,1.336,0.16499h1.617
	c1.53818-0.02029,2.9762-0.76674,3.87799-2.013c1.17749-1.55803,1.91269-3.40497,2.12802-5.34599h0.75897
	c-0.06665,0.74799-0.09998,1.71466-0.09998,2.89999c-0.01691,1.74127,0.06088,3.48218,0.23297,5.215
	c-1.496-0.06667-4.01498-0.10001-7.55698-0.10001c-4.79602,0-8.38202,0.03334-10.75803,0.10001v-0.66
	c0.54315-0.0117,1.08191-0.10059,1.60001-0.26399c0.33823-0.12889,0.59534-0.41048,0.69302-0.759
	c0.146-0.59338,0.20728-1.20444,0.18198-1.815v-16.368c0.0253-0.61057-0.03598-1.22162-0.18198-1.815
	c-0.09769-0.34853-0.3548-0.63011-0.69302-0.759c-0.5181-0.16341-1.05685-0.25229-1.60001-0.26399v-0.66
	c1.12201,0.06667,2.86002,0.10001,5.21402,0.10001c2.24399,0,3.97098-0.03334,5.181-0.10001L411.20001,224.3z M430.34,244.75999
	c1.82706-0.01186,3.50006-1.0258,4.35599-2.64l0.59402,0.20001c-0.42908,1.41266-1.24689,2.67612-2.36002,3.646
	c-1.17432,1.01556-2.68829,1.55116-4.23999,1.5c-2.08908,0.09903-4.11819-0.71394-5.561-2.228
	c-1.37466-1.48534-2.06198-3.67967-2.06198-6.58301c0-2.97,0.737-5.24167,2.211-6.815
	c1.52701-1.59541,3.66766-2.45511,5.87399-2.35899c4.13333,0,6.20001,2.442,6.19998,7.326h-9.27298
	c-0.022,0.32999-0.03302,0.84698-0.03299,1.55099c-0.0379,1.23837,0.16943,2.47202,0.60999,3.63
	c0.31134,0.84308,0.86182,1.57704,1.58398,2.112c0.61572,0.42822,1.34802,0.6572,2.09802,0.65599L430.34,244.75999z M428.952,230.17
	c-0.8858,0.06294-1.65338,0.63707-1.96399,1.46901c-0.62207,1.43286-0.95316,2.97507-0.974,4.53699h5.186
	c0.08005-1.45409-0.09283-2.91104-0.51102-4.306C430.30099,230.73666,429.72202,230.17,428.952,230.17z M445.78198,229.47701
	c2.19299-0.12614,4.34119,0.65575,5.94,2.162c1.42999,1.44066,2.14502,3.72299,2.14502,6.84698
	c0,3.12401-0.71503,5.401-2.14502,6.83101c-3.43726,2.85983-8.42572,2.85983-11.86298,0
	c-1.44135-1.43001-2.16168-3.707-2.16101-6.83099c0.00067-3.12401,0.72101-5.40634,2.16101-6.847
	C441.4541,230.13788,443.59494,229.35643,445.78198,229.47701z M445.78198,230.13699c-0.94598,0-1.69965,0.68767-2.26099,2.063
	c-0.65793,2.02728-0.94287,4.15706-0.841,6.286c-0.10315,2.12375,0.18185,4.2485,0.841,6.27
	c0.56134,1.364,1.315,2.04601,2.26099,2.04601c0.96802,0,1.72699-0.67633,2.27701-2.02901
	c0.64911-2.02904,0.92856-4.15817,0.82498-6.286c0.10403-2.13362-0.18094-4.26837-0.841-6.3
	C447.48102,230.82033,446.72736,230.13699,445.78198,230.13699z M468.189,229.47701c1.3403-0.12506,2.66782,0.3456,3.63,1.287
	c0.3967,0.46321,0.66922,1.01961,0.79202,1.61699c0.17453,0.87987,0.25198,1.77623,0.23099,2.673v8.877
	c-0.07022,0.65894,0.09946,1.32109,0.478,1.86501c0.45148,0.38728,1.0423,0.57204,1.634,0.511V247
	c-2.19998-0.088-3.65201-0.132-4.35599-0.132c-0.66003,0-2.09003,0.04401-4.29001,0.132v-0.69299
	c0.51663,0.05688,1.02994-0.13237,1.38602-0.51102c0.32071-0.56619,0.4603-1.21707,0.39996-1.86499v-10.263
	c0.04529-0.71014-0.10883-1.41881-0.44501-2.04601c-0.37274-0.49834-0.98151-0.76201-1.59998-0.69299
	c-0.89801-0.00218-1.74817,0.4045-2.31,1.105c-0.64539,0.75735-0.98642,1.72742-0.95703,2.722v9.174
	c-0.0603,0.64793,0.07928,1.2988,0.40002,1.86501c0.35602,0.37865,0.86935,0.5679,1.38599,0.511V247
	c-2.02399-0.088-3.388-0.132-4.09198-0.132c-0.66003,0-2.17804,0.04401-4.55402,0.132v-0.69299
	c0.59711,0.06644,1.19495-0.11871,1.64999-0.51102c0.3671-0.54861,0.53055-1.20845,0.46201-1.86499v-10.40001
	c0.05676-0.76576-0.10336-1.53203-0.46201-2.211c-0.39255-0.50156-1.01703-0.76382-1.64999-0.69299v-0.69301
	c0.70398,0.06667,1.38599,0.10001,2.04602,0.10001c1.61853,0.03459,3.23553-0.12047,4.81799-0.46201v2.97
	C463.77002,230.49866,465.57098,229.47701,468.189,229.47701z M480.53101,247.231c-1.15613,0.09142-2.29803-0.30324-3.151-1.089
	c-0.71411-0.78094-1.08832-1.81387-1.04001-2.871c-0.03403-0.88434,0.23987-1.7531,0.77499-2.45799
	c0.50372-0.63759,1.14731-1.1508,1.88098-1.5c0.91956-0.42511,1.86163-0.79967,2.82202-1.12201
	c0.92096-0.29144,1.81091-0.67296,2.65698-1.13899c0.51978-0.27301,0.84412-0.8129,0.841-1.39999v-2.578
	c0.04712-0.77393-0.1806-1.53963-0.64301-2.162c-0.5119-0.55232-1.24957-0.83818-2-0.77501
	c-0.87579-0.06218-1.74097,0.22226-2.409,0.79201c0.56451,0.18385,1.06342,0.5278,1.43604,0.99001
	c0.34204,0.4437,0.52231,0.99088,0.51099,1.55099c0.03003,0.67831-0.24911,1.33365-0.759,1.782
	c-0.51236,0.44237-1.17133,0.6777-1.84799,0.66c-0.67331,0.04034-1.32861-0.22664-1.78201-0.726
	c-0.76364-0.97772-0.8363-2.32799-0.18201-3.382c0.36835-0.49083,0.83493-0.89952,1.37-1.2
	c0.68439-0.38655,1.42447-0.66484,2.194-0.82501c0.93747-0.20631,1.89511-0.30693,2.85498-0.29999
	c0.94391-0.01575,1.88565,0.09525,2.80002,0.32999c0.74683,0.19424,1.4296,0.58115,1.98001,1.12201
	c0.48691,0.48959,0.8244,1.10768,0.97299,1.782c0.18735,0.94505,0.27017,1.90784,0.24698,2.871v8.976
	c-0.02243,0.38,0.0278,0.7608,0.14801,1.12201c0.10187,0.22214,0.33386,0.35481,0.577,0.32999
	c0.44693-0.05124,0.86447-0.24841,1.18802-0.56099l0.32999,0.56099c-1.02585,0.82654-2.31317,1.25955-3.63,1.22101
	c-0.90894,0.09486-1.81937-0.16525-2.54099-0.726c-0.50009-0.52338-0.77295-1.22325-0.75903-1.94701
	C484.37891,246.2796,482.51526,247.30786,480.53101,247.231L480.53101,247.231z M483.07199,245.119
	c0.92941-0.04001,1.77478-0.54971,2.24399-1.35301V237c-0.44586,0.60327-1.02087,1.09933-1.68298,1.452
	c-0.73297,0.44249-1.39032,0.99954-1.94702,1.65001c-0.48322,0.69417-0.71594,1.53204-0.65997,2.37599
	c-0.05859,0.71234,0.1405,1.42203,0.56097,2c0.3725,0.4274,0.91852,0.6631,1.48505,0.64101H483.07199z M504.62097,229.47701
	c0.8446-0.05968,1.67041,0.26822,2.24402,0.89099c0.50723,0.59787,0.77734,1.36116,0.759,2.145
	c0.03036,0.73332-0.22403,1.44998-0.70999,2c-0.47791,0.51952-1.15967,0.80319-1.86502,0.776
	c-0.64493,0.03468-1.27982-0.1709-1.78201-0.577c-0.44058-0.38568-0.68317-0.94991-0.65997-1.535
	c-0.00232-1.05469,0.54935-2.03314,1.453-2.577c-0.13165-0.02623-0.26584-0.03731-0.39999-0.033
	c-0.17838-0.00557-0.35651,0.01669-0.52798,0.06599c-0.89606,0.17317-1.67261,0.72714-2.12802,1.51801
	c-0.55551,0.79425-0.85995,1.73688-0.87399,2.70599v8.74301c-0.0882,0.78036,0.18506,1.55827,0.742,2.112
	c0.69922,0.45294,1.52866,0.66179,2.35901,0.59399V247c-0.25342,0.00253-0.50677-0.00848-0.75903-0.033
	c-2.24396-0.06667-3.73999-0.09999-4.48798-0.09999c-0.59399,0-1.94702,0.03333-4.05902,0.09999
	c-0.21912,0.02429-0.43954,0.03531-0.66,0.033v-0.69299c0.59714,0.06644,1.19495-0.11871,1.64999-0.51102
	c0.3671-0.54861,0.53055-1.20845,0.46201-1.86499v-10.40001c0.05676-0.76576-0.10336-1.53203-0.46201-2.211
	c-0.39258-0.50156-1.01703-0.76382-1.64999-0.69299v-0.69301c0.70401,0.06667,1.38602,0.10001,2.04599,0.10001
	c1.61853,0.03459,3.23553-0.12047,4.81799-0.46201v3.069c0.39124-0.91159,1.01758-1.70291,1.815-2.293
	c0.77289-0.57565,1.71338-0.88165,2.67703-0.87099H504.62097z M524.45398,243.37c-0.05676,0.76578,0.10339,1.53204,0.46204,2.211
	c0.39258,0.50156,1.01703,0.76384,1.64996,0.69301v0.69299c-0.68201-0.06667-1.36401-0.09999-2.04596-0.09999
	c-1.61853-0.03461-3.2356,0.12045-4.81799,0.46201V244.492c-0.57489,1.86021-2.3465,3.08675-4.29004,2.97
	c-1.91003,0.07236-3.74094-0.76682-4.93298-2.261c-1.22131-1.50667-1.82135-3.778-1.79999-6.81401
	c-0.05026-1.68263,0.271-3.35567,0.94098-4.89999c0.54807-1.23907,1.45648-2.28444,2.60699-3
	c1.15277-0.68254,2.47253-1.03119,3.81201-1.007c1.34039-0.09512,2.66211,0.35735,3.66296,1.25401v-5.61002
	c0.05804-0.76784-0.1084-1.53601-0.479-2.211c-0.39001-0.495-1.00598-0.75639-1.633-0.69299v-0.69299
	c0.70404,0.06667,1.38605,0.09999,2.04602,0.09999c1.61835,0.02986,3.2348-0.12514,4.81799-0.46199V243.37z M516.76501,246.043
	c0.72266,0.00125,1.4165-0.28346,1.92999-0.79199c0.58203-0.57112,0.93939-1.33238,1.00702-2.145v-11.55
	c-0.56311-0.75551-1.46838-1.17715-2.40906-1.12199c-1.23254,0.04382-2.30963,0.84509-2.70593,2.013
	c-0.73547,1.91249-1.0506,3.96089-0.92401,6.006c-0.13037,1.96826,0.13306,3.94278,0.77496,5.808
	C514.75867,245.2874,515.69049,246.00098,516.76501,246.043z M413.772,258.73499c1.034,0,1.88101-0.03333,2.54099-0.09998v0.66
	c-0.63116,0.28326-1.18127,0.72025-1.59998,1.271c-0.59967,0.79413-1.04102,1.69617-1.30002,2.65698l-5.81299,18.84302
	c-0.242-0.022-0.62701-0.03299-1.155-0.03299c-0.52802,0-0.91299,0.01099-1.155,0.03299L400.44,267.34799l-4.884,14.71802
	c-0.242-0.022-0.62698-0.03299-1.155-0.03299s-0.91299,0.01099-1.155,0.03299l-7.392-20.65802
	c-0.18463-0.59833-0.51321-1.14224-0.957-1.58398c-0.30356-0.29776-0.69907-0.48389-1.12201-0.52802v-0.66
	c1.32001,0.06668,2.95901,0.10001,4.91699,0.10001c1.84802,0,3.20102-0.03333,4.05899-0.10001v0.66
	c-0.65424,0.01636-1.17139,0.55997-1.15503,1.2142c0.00061,0.02432,0.00195,0.04858,0.00406,0.07281
	c0.03006,0.50659,0.13104,1.00647,0.29999,1.48499l4.81802,13.95901l3.33298-9.83401l-1.68298-5.11499
	c-0.13977-0.50455-0.40701-0.96463-0.776-1.336c-0.29263-0.25131-0.65524-0.40695-1.039-0.44598v-0.66
	c1.23199,0.06665,2.80499,0.09998,4.71899,0.09998c2.15601,0,3.73999-0.03333,4.75198-0.09998v0.66
	c-0.58459-0.01523-1.16678,0.08011-1.716,0.28098c-0.35605,0.17123-0.56702,0.54684-0.52798,0.94
	c0.02725,0.53122,0.13864,1.05472,0.32999,1.55099l4.521,13.79401l3.12802-9.96201c0.42838-1.23486,0.68381-2.5231,0.759-3.828
	c0.06879-0.7572-0.18961-1.50766-0.70999-2.06198c-0.60544-0.4765-1.35776-0.72751-2.12802-0.71002v-0.65997
	C411.17599,258.70334,412.54001,258.73499,413.772,258.73499z M423.11099,264.47699c2.19296-0.12613,4.34119,0.65576,5.94,2.16202
	c1.43268,1.44064,2.14899,3.72299,2.14902,6.84698c-0.00003,3.12399-0.71503,5.401-2.14502,6.83102
	c-3.43744,2.86038-8.42654,2.86038-11.86398,0c-1.44135-1.43002-2.16168-3.707-2.16101-6.83102
	c0.00067-3.12399,0.72101-5.40634,2.16101-6.84698C418.78537,265.13864,420.92496,264.35727,423.11099,264.47699z
	 M423.11099,265.13699c-0.94598,0-1.69934,0.68768-2.25998,2.06302c-0.65796,2.02728-0.9429,4.15704-0.841,6.28598
	c-0.10315,2.12375,0.18185,4.2485,0.841,6.26999c0.56064,1.36401,1.314,2.04602,2.25998,2.04602
	c0.96802,0,1.72702-0.67667,2.27701-2.03c0.64911-2.02905,0.92853-4.15817,0.82501-6.28601
	c0.104-2.13364-0.18097-4.26837-0.841-6.29999C424.81067,265.82001,424.05701,265.13699,423.11099,265.13699z M441.75598,264.47699
	c2.19299-0.12613,4.34119,0.65576,5.94,2.16202c1.42999,1.44064,2.14502,3.72299,2.14502,6.84698s-0.71368,5.401-2.14099,6.83102
	c-3.43744,2.86038-8.42657,2.86038-11.86401,0c-1.44135-1.43002-2.16168-3.707-2.16101-6.83102
	c0.00067-3.12399,0.72101-5.40634,2.16101-6.84698C437.43036,265.13864,439.56995,264.35727,441.75598,264.47699z
	 M441.75598,265.13699c-0.94598,0-1.69931,0.68768-2.25998,2.06302c-0.65793,2.02728-0.9429,4.15704-0.841,6.28598
	c-0.10315,2.12375,0.18185,4.2485,0.841,6.26999c0.56067,1.36401,1.314,2.04602,2.25998,2.04602
	c0.96802,0,1.72699-0.67667,2.27701-2.03c0.64911-2.02905,0.92856-4.15817,0.82498-6.28601
	c0.10373-2.1337-0.18158-4.26843-0.84198-6.29999C443.45532,265.82001,442.702,265.13699,441.75598,265.13699z M468.12299,278.37
	c-0.05676,0.76578,0.10339,1.53204,0.46204,2.211c0.39255,0.50156,1.01703,0.76385,1.64996,0.69299v0.69302
	c-0.68201-0.06668-1.36398-0.10001-2.04599-0.10001c-1.61853-0.03461-3.23553,0.12045-4.81799,0.46201V279.492
	c-0.57486,1.86023-2.34647,3.08673-4.29001,2.97c-1.90988,0.0726-3.74072-0.7662-4.93298-2.26001
	c-1.22131-1.50668-1.82135-3.77798-1.79999-6.814c-0.05026-1.68265,0.271-3.35568,0.94098-4.89999
	c0.54807-1.23907,1.45648-2.28445,2.60699-3c1.15277-0.68256,2.47253-1.03119,3.81201-1.00702
	c1.34039-0.09512,2.66211,0.35736,3.66296,1.254V260.125c0.05804-0.76785-0.1084-1.53601-0.479-2.211
	c-0.39001-0.495-1.00598-0.75641-1.633-0.69299v-0.69302c0.70404,0.06668,1.38602,0.10001,2.04602,0.10001
	c1.61835,0.02985,3.2348-0.12515,4.81799-0.46201V278.37z M460.43402,281.043c0.72266,0.00125,1.4165-0.28348,1.92999-0.79199
	c0.58203-0.57114,0.93939-1.33237,1.00699-2.14499V266.556c-0.56308-0.75552-1.46835-1.17715-2.409-1.12201
	c-1.23254,0.04385-2.30966,0.84509-2.70599,2.013c-0.73541,1.91251-1.05057,3.96091-0.92398,6.00601
	c-0.13037,1.96826,0.13306,3.94278,0.77496,5.80798C458.42767,280.28738,459.3595,281.00098,460.43402,281.043z"/>
<path id="Path_2633" class="st3" d="M139.119,169.82001c0.18874,0.00101,0.36766,0.08426,0.49001,0.228l1.34799,1.452
	c-1.02647,1.19009-2.30186,2.14017-3.73599,2.783c-1.67888,0.7079-3.48965,1.04884-5.311,1
	c-1.67984,0.02272-3.3468-0.29572-4.9-0.936c-1.42821-0.59476-2.71162-1.49004-3.763-2.625
	c-1.06795-1.17514-1.88916-2.55269-2.415-4.05099c-0.58759-1.66988-0.87766-3.42989-0.857-5.2
	c-0.0206-1.77319,0.28201-3.53529,0.893-5.20001c0.55418-1.50905,1.40836-2.89017,2.511-4.06
	c1.09237-1.14082,2.41313-2.03838,3.876-2.634c1.58428-0.63921,3.27976-0.95737,4.988-0.93599
	c1.61639-0.0312,3.22276,0.26048,4.72499,0.85799c1.33105,0.55167,2.55084,1.34047,3.60001,2.328l-1.12,1.55701
	c-0.06821,0.11493-0.16071,0.21356-0.27101,0.289c-0.13377,0.08212-0.28923,0.12186-0.446,0.114
	c-0.2858-0.03119-0.55484-0.15034-0.76999-0.341c-0.38098-0.2774-0.77838-0.53152-1.19-0.761
	c-1.3905-0.76831-2.96211-1.14825-4.55002-1.09999c-1.21713-0.01479-2.42488,0.21439-3.552,0.674
	c-1.05727,0.4377-2.00459,1.10397-2.77399,1.951c-0.80747,0.90564-1.42348,1.96519-1.811,3.11499
	c-0.4492,1.33566-0.66798,2.73799-0.647,4.147c-0.0231,1.42313,0.20506,2.83916,0.674,4.183
	c0.40243,1.14615,1.02702,2.20163,1.838,3.106c0.76388,0.83749,1.70184,1.4976,2.74801,1.93401
	c1.08417,0.44888,2.24759,0.67505,3.42099,0.66499c0.67593,0.00479,1.35133-0.03899,2.021-0.131
	c0.56674-0.07901,1.12375-0.21675,1.662-0.41101c0.498-0.18187,0.97371-0.41972,1.418-0.70898
	c0.46062-0.30521,0.8954-0.64769,1.3-1.024C138.67882,169.92474,138.8929,169.8302,139.119,169.82001z M166.629,162.47
	c0.02264,1.74989-0.28017,3.48877-0.89301,5.12799c-0.55608,1.47913-1.41432,2.8261-2.52,3.955
	c-1.11214,1.1144-2.4464,1.98221-3.91599,2.54701c-1.61096,0.61649-3.32423,0.92189-5.049,0.89999h-9.362v-25.077h9.362
	c1.72476-0.0219,3.43803,0.28349,5.049,0.89999c1.46936,0.56613,2.80223,1.43689,3.911,2.55501
	c1.10461,1.13321,1.96263,2.48288,2.52,3.96399C166.34554,158.98091,166.65004,160.71979,166.629,162.47z M163.146,162.47
	c0.02153-1.40215-0.19141-2.79803-0.63-4.13c-0.37634-1.13872-0.98407-2.18733-1.785-3.08
	c-0.77638-0.84441-1.73357-1.50247-2.8-1.92499c-1.17055-0.457-2.41855-0.68283-3.675-0.66501h-5.967v19.582h5.967
	c1.25645,0.01782,2.50446-0.20801,3.675-0.66499c1.06477-0.42145,2.02156-1.07616,2.8-1.91602
	c0.80191-0.88852,1.40984-1.93442,1.785-3.07098C162.95459,165.26804,163.16753,163.87215,163.146,162.47z M189.116,169.82001
	c0.18875,0.00101,0.36768,0.08426,0.49001,0.228l1.34801,1.452c-1.02647,1.19009-2.30186,2.14017-3.73599,2.783
	c-1.67888,0.7079-3.48964,1.04884-5.311,1c-1.67984,0.02272-3.3468-0.29572-4.89999-0.936
	c-1.42786-0.59488-2.71091-1.49016-3.76199-2.625c-1.06795-1.17514-1.88916-2.55269-2.41499-4.05099
	c-0.58759-1.66988-0.87766-3.42989-0.85699-5.2c-0.02092-1.77313,0.28136-3.53523,0.892-5.20001
	c0.55417-1.50905,1.40836-2.89017,2.511-4.06c1.09238-1.14082,2.41313-2.03838,3.87601-2.634
	c1.58397-0.63907,3.2791-0.95723,4.987-0.93599c1.61639-0.03122,3.22278,0.26048,4.72501,0.85799
	c1.33104,0.55167,2.55084,1.34047,3.60001,2.328l-1.12,1.55701c-0.06819,0.11493-0.16069,0.21356-0.271,0.289
	c-0.13376,0.08212-0.28923,0.12186-0.446,0.114c-0.28578-0.03119-0.55484-0.15033-0.77-0.341
	c-0.38098-0.2774-0.77837-0.53152-1.19-0.761c-1.39049-0.76831-2.96211-1.14825-4.55-1.09999
	c-1.21747-0.01492-2.42557,0.21426-3.55299,0.674c-1.05728,0.4377-2.00461,1.10397-2.774,1.951
	c-0.80746,0.90564-1.42348,1.96519-1.811,3.11499c-0.4492,1.33566-0.66798,2.73799-0.647,4.147
	c-0.0231,1.42313,0.20506,2.83916,0.674,4.183c0.40213,1.14606,1.02638,2.20154,1.83701,3.106
	c0.76358,0.83737,1.70119,1.49748,2.74699,1.93401c1.08418,0.44888,2.2476,0.67505,3.42101,0.66499
	c0.67593,0.00479,1.35133-0.03899,2.021-0.131c0.56676-0.07901,1.12375-0.21675,1.662-0.41101
	c0.49799-0.18187,0.97371-0.41972,1.418-0.70898c0.46062-0.30521,0.89542-0.64769,1.3-1.024
	C188.67287,169.92384,188.88852,169.82922,189.116,169.82001z"/>
<path id="Path_2634" class="st1" d="M681.95898,270.841l7.05798,19.19101h2.22302l7.02502-18.94901
	c1-2.72302,1.41797-3.142,3.38397-3.39999v-0.95102h-6.97601v0.95102c2.51404,0.32199,2.86804,0.806,1.98206,3.33499
	l-5.44702,15.56598L685.633,270.841c-0.82196-2.30002-0.48297-2.85199,1.93402-3.15799v-0.95102h-8.91101v0.95102
	C680.49298,267.909,681.02502,268.34399,681.95898,270.841z M708.62598,287.13199v-8.43198H720.453v8.427
	c0,1.38599-0.27399,1.65997-2.48102,1.91699V290h8.55603v-0.95099c-2.27203-0.258-2.59399-0.56403-2.59399-2V269.681
	c0-1.43399,0.32196-1.73999,2.59399-2v-0.94901h-8.55603v0.95102c2.20801,0.258,2.48102,0.53198,2.48102,1.91699V277.5h-11.82599
	v-7.883c0-1.38602,0.30597-1.67599,2.48102-1.91699v-0.96802h-8.57202v0.95102c2.32001,0.258,2.60999,0.564,2.60999,2v17.37
	c0,1.43399-0.28998,1.73999-2.60999,2V290h8.57202v-0.95099c-2.17505-0.25702-2.48102-0.53101-2.48102-1.91702H708.62598z
	 M747.05603,285.89099l-7.073-19.19098h-2.20801l-6.961,18.94897c-1,2.73901-1.43402,3.142-3.41602,3.40002V290h6.99298v-0.95099
	c-2.48096-0.32202-2.836-0.806-1.966-3.33502l1.354-3.883h8.16901l1.43402,4.04401c0.82196,2.32001,0.48297,2.86801-1.95001,3.17401
	V290h8.91101v-0.95099c-1.82001-0.22501-2.33502-0.67603-3.28601-3.15802H747.05603z M734.20001,280.62201l3.63995-10.422
	l3.69006,10.42499L734.20001,280.62201z M639.46002,322.13199v-8.43198h11.828v8.427c0,1.38599-0.27405,1.65997-2.48102,1.91699V325
	h8.55597v-0.95099c-2.27197-0.258-2.59399-0.56403-2.59399-2V304.681c0-1.43399,0.32202-1.73999,2.59399-2v-0.95099h-8.55695
	v0.95099c2.20795,0.258,2.48096,0.53201,2.48096,1.91699v7.89999h-11.82697V304.617c0-1.38602,0.30597-1.67599,2.48096-1.91699
	V301.733H633.37v0.95099c2.32001,0.25803,2.60999,0.564,2.60999,2v17.37003c0,1.43399-0.28998,1.73999-2.60999,2V325h8.57202
	v-0.95099C639.76697,323.79199,639.46002,323.51801,639.46002,322.13199z M659.94,317.121c0,5.043,3.36798,8.19998,7.87897,8.19998
	c2.23932,0.12555,4.4165-0.76184,5.93005-2.41699V321.953c-1.15662,1.04028-2.66687,1.59937-4.22205,1.56299
	c-3.72198,0-6.19995-2.78799-6.349-7.009h10.862c0.03455-0.33218,0.0506-0.66602,0.04803-1
	c0-4.09299-2.38501-6.75098-6.60602-6.75098C662.96997,308.758,659.94,312.23801,659.94,317.121z M667.44897,310.07901
	c2.32001,0,3.57703,1.89999,3.57703,5v0.306l-7.83099,0.03198C663.38898,311.83499,665.04797,310.07901,667.44897,310.07901z
	 M681.70898,325.32199c2.00079,0.08636,3.92255-0.78793,5.172-2.353c0.30695,1.42471,1.6261,2.39844,3.078,2.272
	c0.90173,0.01559,1.78778-0.23672,2.54602-0.72501v-0.87c-0.2674,0.10175-0.55194,0.151-0.83801,0.14499
	c-0.98297,0-1.75598-0.548-1.75598-1.98199v-8.10898c0-3.41602-2.336-4.94702-5.92999-4.94702
	c-3.56104,0-6.44501,1.51501-6.44501,3.65802c-0.0058,0.95544,0.76404,1.73468,1.71942,1.74048
	c0.01752,0.00009,0.0351-0.00006,0.05255-0.00049c0.93115,0.04642,1.72357-0.67078,1.76996-1.60187
	c0.00122-0.02469,0.00189-0.04941,0.00208-0.07413c0.00903-0.73126-0.44244-1.38931-1.12799-1.64401
	c0.88403-0.49609,1.88678-0.74124,2.89996-0.70898c2.35303,0,3.948,1.03101,3.948,3.97998v1.43402l-3.625,0.78998
	c-4.33398,0.95102-6.13898,2.43301-6.13898,4.979C677.03699,323.67902,679.03503,325.32199,681.70898,325.32199z
	 M680.25903,320.76199c0-1.82098,1.12799-2.86801,4.36694-3.59299l2.17401-0.46899v5.28497
	c-0.78931,1.10895-2.08832,1.74039-3.448,1.67603c-1.55493,0.14703-2.93463-0.99429-3.08167-2.54919
	C680.25934,320.99554,680.25555,320.87872,680.25903,320.76199z M699.16003,301.10001l-5.38202,0.62799v0.83801l1.15997,0.28998
	c0.91803,0.25803,1.047,0.46701,1.047,1.32101v18.37399c0,1.01501-0.27399,1.27301-2.20801,1.5V325h7.573v-0.95099
	c-1.93396-0.22601-2.19098-0.483-2.19098-1.5L699.16003,301.10001z M705.06,320.64499c0,3.513,2.03003,4.673,4.22198,4.673
	c1.44763,0.01212,2.85254-0.49042,3.96399-1.418v-0.95099c-0.68591,0.46109-1.49347,0.70786-2.31995,0.70898
	c-1.547,0-2.69104-0.854-2.69104-3.513v-9.728l4.75299,0.11301v-1.44998l-4.75299,0.14499v-3.19H707.784l-4.84998,3.83499v0.66101
	h2.12701L705.06,320.64499z M719.94897,301.08301l-5.38196,0.64499v0.83801l1.15997,0.28998
	c0.91803,0.25803,1.047,0.46701,1.047,1.32101v18.37399c0,1.01501-0.27399,1.27301-2.20801,1.5V325h7.44403v-0.95099
	c-1.83704-0.22601-2.06201-0.45099-2.06201-1.418v-10.215c0.83752-1.2359,2.26361-1.93985,3.75403-1.85303
	c2.336,0,3.75397,1.38602,3.75397,4.061v8.008c0,0.96701-0.22601,1.19202-2.06201,1.418V325h7.44403v-0.95099
	c-1.966-0.22601-2.19104-0.483-2.19104-1.5v-8.73199c0-3.28702-2.25598-5.06003-5.495-5.06003
	c-2.07837-0.09879-4.05481,0.90576-5.19995,2.64301L719.94897,301.08301z M742.849,325.31699
	c2.2309,0.12369,4.40021-0.75665,5.914-2.39999v-0.96701c-1.14484,1.0274-2.63489,1.58551-4.17303,1.56302
	c-3.60895,0-6.13898-2.707-6.13898-7.04199c0-3.91602,2.19098-6.349,5.25299-6.349c0.95227-0.05438,1.89801,0.18774,2.70703,0.69299
	c-0.81134,0.16031-1.38959,0.88123-1.37,1.70801c-0.01898,0.95966,0.74365,1.75302,1.70331,1.77197
	c0.02289,0.00046,0.04578,0.00046,0.06866,0c0.97699,0.00208,1.77069-0.78824,1.77277-1.76523
	c0.00006-0.01859-0.00018-0.03717-0.00073-0.05576c0-1.98199-1.724-3.72202-5.35004-3.72202
	c-4.41357-0.08429-8.05988,3.42532-8.14417,7.83893c-0.0033,0.17471-0.00092,0.34952,0.0072,0.52408
	c-0.005,4.96802,3.37897,8.207,7.745,8.207L742.849,325.31699z M755.86902,325.31699c2.00079,0.08636,3.92249-0.78793,5.172-2.353
	c0.30695,1.42471,1.6261,2.39844,3.078,2.272c0.90173,0.01559,1.78778-0.23672,2.54602-0.72501v-0.87
	c-0.26746,0.10175-0.552,0.151-0.83801,0.14499c-0.98303,0-1.75598-0.548-1.75598-1.98199v-8.10397
	c0-3.41602-2.33606-4.94702-5.93005-4.94702c-3.56097,0-6.44495,1.51501-6.44495,3.65802
	c-0.00586,0.95544,0.76398,1.73468,1.71942,1.74048c0.01752,0.00009,0.03503-0.00006,0.05255-0.00049
	c0.93109,0.04642,1.72351-0.67078,1.76996-1.60187c0.00122-0.02469,0.00189-0.04941,0.00201-0.07413
	c0.00903-0.73126-0.44244-1.38931-1.12799-1.64401c0.88403-0.49609,1.88678-0.74124,2.90002-0.70898
	c2.35297,0,3.948,1.03101,3.948,3.97998v1.43402l-3.625,0.78998c-4.33405,0.95102-6.13898,2.43301-6.13898,4.979
	c-0.00604,2.37402,1.99194,4.017,4.66699,4.017L755.86902,325.31699z M754.41901,320.75699c0-1.82098,1.12799-2.86801,4.367-3.59299
	l2.17499-0.46701v5.285c-0.78931,1.10895-2.08832,1.74039-3.448,1.67599c-1.5545,0.15088-2.93707-0.98703-3.08795-2.5416
	c-0.01141-0.11774-0.01544-0.23611-0.01208-0.3544L754.41901,320.75699z M773.255,308.914l-5.31702,0.62799V310.38l1.16003,0.28998
	c0.91797,0.258,1.047,0.45102,1.047,1.32101V322.561c0,1.01498-0.242,1.25699-2.20801,1.48199V325h7.79999v-0.95099
	c-2.17499-0.22601-2.41699-0.45099-2.41699-1.67599V313.043c1.26666-1.05685,2.87946-1.60785,4.52802-1.547
	c0.53094-0.01205,1.0614,0.04202,1.57898,0.16101c0.21527-0.34238,0.32709-0.73962,0.32202-1.14401
	c0.07776-0.85748-0.55438-1.61566-1.41187-1.69339c-0.09851-0.00894-0.19769-0.00845-0.29614,0.0014
	c-1.41797,0-2.85199,1.16-4.78601,3.448V308.914z M781.02197,317.11398c0,5.043,3.36804,8.20001,7.87903,8.20001
	c2.23932,0.12552,4.4165-0.76187,5.92999-2.41699v-0.95102c-1.15656,1.04028-2.66687,1.5994-4.22198,1.56302
	c-3.72205,0-6.20001-2.78799-6.349-7.009H795.12c0.03455-0.33218,0.05054-0.66605,0.04797-1
	c0-4.09302-2.38495-6.75101-6.60596-6.75101c-4.51703,0.009-7.54602,3.48901-7.54602,8.37201L781.02197,317.11398z
	 M788.53101,310.07199c2.32001,0,3.57703,1.89999,3.57703,5v0.306l-7.83105,0.03201
	c0.18701-3.57501,1.84705-5.33099,4.24701-5.33099L788.53101,310.07199z"/>
</svg>
