<?xml version="1.0" encoding="utf-8"?>
<!-- Generator: Adobe Illustrator 27.2.0, SVG Export Plug-In . SVG Version: 6.00 Build 0)  -->
<svg version="1.1" id="Layer_1" xmlns="http://www.w3.org/2000/svg" xmlns:xlink="http://www.w3.org/1999/xlink" x="0px" y="0px"
	 viewBox="0 0 855 380" style="enable-background:new 0 0 855 380;" xml:space="preserve">
<style type="text/css">
	.st0{fill:#FFFFFF;}
	.st1{fill:#B7B7B7;}
	.st2{fill:#787878;}
	.st3{fill:#657571;}
	.st4{fill:#CCC8C3;}
</style>
<g id="Group_4810" transform="translate(0 22)">
	<rect id="Rectangle_1034" y="-22" class="st0" width="855" height="380"/>
</g>
<path id="Path_2635" class="st1" d="M683.11798,118.925h7.646v2.754h-2.664v16.567h2.66602V141h-8.30798v-2.754h2.60699v-16.567
	l-7.58698,19.55499h-0.65906l-7.52899-19.55499v16.567h2.43201V141h-7.83801v-2.754h2.68103v-16.567h-2.68103v-2.754h7.57306
	l5.815,15.11699L683.11798,118.925z M698.05902,120.419c0.00494,0.48605-0.19122,0.95255-0.54199,1.289
	c-0.33649,0.35082-0.80298,0.54697-1.289,0.542c-0.48206,0.00664-0.94452-0.19012-1.27405-0.542
	c-0.3429-0.3406-0.53308-0.8057-0.52698-1.289c-0.0061-0.48329,0.18408-0.9484,0.52698-1.289
	c0.32953-0.35188,0.79199-0.54864,1.27405-0.542c0.48737-0.01075,0.95764,0.17989,1.29999,0.527
	C697.87762,119.45761,698.06982,119.92963,698.05902,120.419z M700.22699,138.3v2.7h-7.77802v-2.7h2.40002V128.314h-2.40002V125.6
	h5.435v12.7H700.22699z M713.909,126.718V125.6h2.70001v5.82999H713.909c-0.05768-1.01125-0.54901-1.94839-1.34802-2.571
	c-0.77887-0.59-1.73297-0.90194-2.70996-0.88599c-0.84143-0.01206-1.66663,0.23208-2.36603,0.7
	c-0.703,0.47362-1.26294,1.13072-1.61896,1.89999c-0.38501,0.81998-0.5802,1.71619-0.57104,2.62201
	c-0.06128,1.42848,0.39661,2.83087,1.289,3.948c0.83466,1.00989,2.09064,1.57544,3.40002,1.53099
	c2.0321,0.09438,3.89423-1.1293,4.61401-3.032l2.51996,1.2c-1.19324,2.92589-4.11084,4.77299-7.26599,4.60001
	c-1.43665,0.02589-2.85199-0.3495-4.08698-1.084c-1.18079-0.70726-2.13892-1.73225-2.76501-2.95801
	c-0.6582-1.29718-0.99237-2.7345-0.974-4.189c-0.01807-1.42783,0.32196-2.83742,0.98901-4.10001
	c0.62268-1.19171,1.56305-2.18782,2.71698-2.87799c1.16492-0.69207,2.49811-1.04951,3.85303-1.033
	C711.16321,125.16179,712.70099,125.70164,713.909,126.718z M724.58801,134.81799V138.3h3.354v2.7h-9.448v-2.7h3.091V128.314h-3.091
	V125.6h5.49298v3.491c0.44855-1.17295,1.24921-2.1783,2.29199-2.87801c1.2132-0.6099,2.56537-0.89026,3.92102-0.813h0.68799v3.061
	h-0.659c-1.25433-0.07455-2.50861,0.14638-3.66199,0.645c-0.77698,0.40079-1.35254,1.10634-1.58899,1.948
	c-0.30078,1.23108-0.43231,2.49739-0.39105,3.76399H724.58801z M746.94202,133.32401
	c0.01453,1.43739-0.35449,2.85268-1.06903,4.09999c-1.43054,2.51237-4.10895,4.0536-7,4.028
	c-1.46381,0.02074-2.90613-0.35376-4.17499-1.084c-1.21582-0.69777-2.21655-1.71616-2.89301-2.944
	c-0.69214-1.2547-1.04797-2.66711-1.03296-4.09999c-0.02631-1.46185,0.32794-2.90541,1.02795-4.18901
	c0.67145-1.21336,1.66815-2.21527,2.87799-2.89299c1.28021-0.71077,2.72498-1.07188,4.18903-1.047
	c1.44861-0.01861,2.87421,0.36382,4.11902,1.105c2.47046,1.47444,3.97534,4.14702,3.95496,7.024H746.94202z M738.87,138.50999
	c0.87518,0.00757,1.73431-0.23532,2.47601-0.7c0.74481-0.46103,1.35199-1.1138,1.758-1.89
	c0.42194-0.79868,0.63843-1.68977,0.63-2.593c0.00592-0.89337-0.21063-1.77417-0.63-2.56299
	c-0.40936-0.77966-1.01538-1.43878-1.758-1.912c-1.51923-0.96136-3.45496-0.96719-4.97998-0.015
	c-0.74866,0.47031-1.35986,1.12985-1.77203,1.91199c-0.85919,1.6113-0.85919,3.54472,0,5.15601
	c0.41437,0.78223,1.03162,1.43851,1.78699,1.89999C737.12756,138.27005,737.99048,138.51445,738.87,138.50999z M763.89001,130.644
	V138.3h2.578v2.7h-5.60999v-10.166c0.05585-0.71855-0.0885-1.43852-0.41705-2.08c-0.31305-0.43752-0.83405-0.67708-1.37-0.63
	c-1.69269,0.14192-3.29016,0.8427-4.54095,1.992V138.3h2.651v2.7h-8.35004v-2.7h2.71002V128.314h-2.71002V125.6h5.70001v1.86
	c1.508-1.23362,3.36951-1.95513,5.315-2.06c1.16376-0.09202,2.3006,0.38223,3.05402,1.27399
	c0.75061,1.18143,1.09766,2.57451,0.98901,3.97H763.89001z M666.68201,157.465c-0.43237,1.91199-0.62415,3.87048-0.57098,5.83
	c-0.02258,1.58022,0.09998,3.15916,0.36597,4.717c0.19977,1.15465,0.56488,2.27448,1.08398,3.32501
	c0.90326,1.76166,2.28387,3.23372,3.98401,4.24799v2.461c-2.45111-1.08723-4.5293-2.86989-5.97699-5.12698
	c-1.88171-2.85732-2.81525-6.23491-2.66797-9.65302c-0.07715-3.20934,0.73407-6.37759,2.34399-9.155
	c1.4411-2.49275,3.65161-4.451,6.29999-5.58099v2.43201c-1.17322,0.66011-2.18231,1.57655-2.95203,2.681
	C667.71503,154.78203,667.06647,156.07983,666.68201,157.465z M679.133,151.679v16.567h2.40002V171h-8.13v-2.754h2.388v-16.567
	h-2.38501v-2.754h8.13v2.754H679.133z M702.5,168.3v2.7h-5.789v-2.256c-1.38336,1.60739-3.40131,2.52831-5.52197,2.52
	c-1.38336,0.0273-2.7464-0.33556-3.93304-1.04701c-1.13037-0.68788-2.04938-1.67398-2.65601-2.84999
	c-0.63696-1.23041-0.96149-2.5986-0.94495-3.98401c-0.01428-1.42873,0.32947-2.83829,1-4.09999
	c0.64557-1.22466,1.60675-2.25452,2.784-2.983c1.14752-0.72752,2.47931-1.1113,3.83795-1.106
	c0.97662-0.0042,1.94287,0.20038,2.83405,0.60001c0.97772,0.461,1.8598,1.10219,2.59998,1.88998V151.591h-2.97302v-2.666h5.97705
	V168.3H702.5z M691.763,168.564c0.90051,0.01094,1.78345-0.24934,2.534-0.74699c0.75305-0.4995,1.36365-1.18587,1.77203-1.992
	c0.42816-0.82315,0.64954-1.73816,0.64496-2.666c0.0105-0.91452-0.21143-1.81673-0.64496-2.62201
	c-0.86108-1.60498-2.54797-2.59305-4.36902-2.55899c-0.88385-0.01306-1.75049,0.24522-2.48303,0.74001
	c-0.72961,0.49757-1.32056,1.17281-1.71698,1.96199c-0.84485,1.67046-0.83929,3.64435,0.01501,5.31001
	c0.40656,0.7758,1.01361,1.42844,1.758,1.89c0.74725,0.45992,1.60962,0.69849,2.487,0.68799L691.763,168.564z M717.11902,161.035
	v7.265h2.578v2.7H714.453v-1.89c-1.27155,1.35149-3.03754,2.12856-4.89301,2.153c-1.81311,0.01454-3.50739-0.90018-4.48999-2.424
	c-0.97327-1.5466-0.94464-3.52126,0.073-5.039c0.53302-0.76537,1.26501-1.3705,2.117-1.75
	c0.83795-0.39857,1.75311-0.60851,2.68097-0.61501c1.50171,0.00046,2.96735,0.46037,4.20001,1.31799v-1.65298
	c0.08844-0.92549-0.18463-1.8493-0.76196-2.578c-0.69641-0.58195-1.5965-0.86136-2.5-0.776
	c-0.71252-0.02423-1.4198,0.12939-2.05804,0.44699c-0.57214,0.31764-1.04608,0.78636-1.37,1.35501l-2.89996-0.718
	c0.59021-1.15434,1.51294-2.10526,2.64899-2.73c1.22729-0.62708,2.59222-0.93649,3.96997-0.90001
	c1.63251-0.14281,3.25568,0.36221,4.51904,1.40599c1.05273,1.22552,1.5675,2.82344,1.42798,4.43301L717.11902,161.035z
	 M709.97101,168.935c1.58325-0.04196,3.08496-0.711,4.17499-1.86v-1.8c-1.10651-0.9451-2.50067-1.48726-3.95502-1.53799
	c-0.76062-0.01483-1.49957,0.25394-2.073,0.754c-1.05548,0.91643-1.16827,2.515-0.25183,3.57051
	c0.04523,0.05208,0.09253,0.10228,0.14185,0.1505c0.53162,0.49133,1.23663,0.75139,1.96002,0.72299H709.97101z M731.66498,155.19501
	c2.86139,0,4.29205,1.54799,4.29205,4.644v8.461h2.60699v2.7h-5.64001v-10.078c0.06842-0.80594-0.09686-1.61453-0.47601-2.32899
	c-0.3429-0.46187-0.89832-0.71617-1.47198-0.674c-1.12335,0-2.58331,0.65933-4.38,1.978v8.403h2.66602v2.7H720.81v-2.7h2.75403
	v-16.709H720.81v-2.666h5.78601v8.481c1.38629-1.29515,3.17474-2.07588,5.06702-2.21201L731.66498,155.19501z M756.42102,163.325
	c0.01453,1.43741-0.35449,2.85269-1.06903,4.10001c-1.43054,2.51237-4.10895,4.0536-7,4.028
	c-1.46381,0.02072-2.90613-0.35376-4.17499-1.084c-1.21582-0.69777-2.21655-1.71617-2.89301-2.944
	c-0.69214-1.25471-1.04803-2.66713-1.03302-4.10001c-0.02478-1.46228,0.33124-2.90587,1.03302-4.189
	c0.67145-1.21336,1.66815-2.21529,2.87799-2.89301c1.28021-0.71077,2.72498-1.07187,4.18903-1.047
	c1.44769-0.01776,2.87213,0.36501,4.11597,1.106c2.47052,1.47444,3.9754,4.14702,3.95502,7.02399L756.42102,163.325z
	 M748.35004,168.511c0.87518,0.00755,1.73425-0.23532,2.47595-0.7c0.74487-0.46103,1.35205-1.1138,1.758-1.89
	c0.42194-0.79868,0.63843-1.68979,0.63-2.593c0.00592-0.89337-0.21057-1.77417-0.63-2.563
	c-0.4093-0.77965-1.01538-1.43877-1.758-1.912c-1.51923-0.96133-3.45496-0.96716-4.97998-0.01498
	c-0.7486,0.47031-1.35986,1.12985-1.77197,1.91199c-0.85925,1.61128-0.85925,3.54472,0,5.15601
	c0.41437,0.78223,1.03162,1.43851,1.78699,1.89999c0.74579,0.46414,1.60754,0.70819,2.48596,0.70399L748.35004,168.511z
	 M764.698,154.024c1.69458,2.78862,2.53967,6.01067,2.43201,9.272c0.0957,3.1236-0.6651,6.21384-2.20001,8.93599
	c-1.54272,2.52728-3.79059,4.54849-6.46698,5.815v-2.46201c1.33594-0.75905,2.47113-1.82635,3.31104-3.11299
	c0.82452-1.19444,1.40247-2.5414,1.69995-3.96199c0.17755-0.82039,0.29517-1.65257,0.35205-2.49001
	c0.04865-0.78134,0.073-1.802,0.073-3.062c0-3.68134-0.57135-6.42067-1.71405-8.21802
	c-0.89447-1.55887-2.17609-2.8605-3.72095-3.77899v-2.43201c2.58484,1.15849,4.75751,3.07382,6.23096,5.49301L764.698,154.024z"/>
<path id="Path_2636" class="st2" d="M352.668,239l-8.384-20.7h-0.79999l-8.384,20.7h2.14398l2.30002-5.728h8.608l2.34,5.728H352.668
	z M347.41998,231.51199H340.284l2.46399-6.27199c0.35202-0.92801,0.76801-2.048,1.08801-3.136h0.064
	c0.32001,1.088,0.73599,2.20799,1.08801,3.136L347.41998,231.51199z M367.86798,229.784c0-2.81599-2.20798-5.59999-6.17599-5.59999
	c-4.01212,0.14026-7.15085,3.50642-7.01059,7.51852c0.00076,0.02184,0.00165,0.04366,0.00259,0.06548
	c-0.04874,4.12306,3.25418,7.50497,7.37726,7.55371c0.09024,0.00107,0.18051,0.00049,0.27075-0.00171
	c1.46286,0.07048,2.91589-0.27338,4.19199-0.992L366.78,236.312c-1.25311,0.82213-2.72559,1.24602-4.224,1.216
	c-3.05099,0.12546-5.62604-2.24617-5.7515-5.29716c-0.00372-0.09024-0.00522-0.18054-0.00452-0.27083h9.79202l1.20798-1.18401
	C367.8566,230.44853,367.87939,230.11612,367.86798,229.784z M365.82001,229.81599c0.00638,0.16069-0.00433,0.32159-0.03201,0.48001
	h-8.86398c0.40134-2.41116,2.42322-4.22023,4.86398-4.35201c2.1395-0.0856,3.9433,1.57941,4.0289,3.7189
	C365.81894,229.71391,365.81998,229.76495,365.82001,229.81599z M378.84399,224.5c-0.4473-0.12865-0.91055-0.19328-1.37598-0.192
	c-2.1488-0.10007-4.05017,1.38026-4.48001,3.48801h-0.03201V224.5H370.94V239h2.01599v-7.392
	c0-3.71201,2.048-5.15201,4.28802-5.15201c0.37689,0.00151,0.75247,0.04443,1.12,0.12801L378.84399,224.5z M394.45999,231.76401
	c-0.00067-4.21504-3.41818-7.63145-7.63324-7.63077c-4.21408,0.00069-7.63007,3.41669-7.63077,7.63077
	c0.0007,4.21503,3.41821,7.63144,7.63324,7.63075C391.0433,239.39407,394.45932,235.97806,394.45999,231.76401z
	 M392.41199,231.79601c0.10114,3.08395-2.31696,5.66595-5.40091,5.76706c-3.08395,0.10112-5.66599-2.31697-5.76706-5.40092
	c-0.00403-0.12201-0.00403-0.24413,0-0.36613c-0.11676-3.08397,2.28864-5.67865,5.37259-5.79541
	c3.08395-0.11674,5.67865,2.28865,5.79538,5.3726C392.41733,231.51408,392.41733,231.65512,392.41199,231.79601z M406.332,224.496
	h-5.31201V220.312l-1.98398,1.056v3.132h-2.88v1.664h2.88v9.12c-0.10947,2.01785,1.43759,3.74237,3.45544,3.85182
	c0.16949,0.00919,0.33942,0.00658,0.50854-0.00781c0.54874,0.03432,1.09766-0.0645,1.60001-0.28801l0.224-1.664
	c-0.46262,0.20596-0.96588,0.30443-1.47202,0.28801c-1.13031,0.15981-2.17618-0.62697-2.336-1.75729
	c-0.02713-0.19196-0.02713-0.38676,0-0.5787V226.168h4.92801L406.332,224.496z M420.95599,229.776
	c0-2.81601-2.20801-5.60001-6.17599-5.60001c-4.01212,0.14027-7.15085,3.50644-7.01059,7.51854
	c0.00076,0.02182,0.00162,0.04364,0.00256,0.06546c-0.04871,4.12308,3.25421,7.50499,7.37726,7.55371
	c0.09027,0.00107,0.18054,0.0005,0.27075-0.00171c1.46286,0.07048,2.91589-0.27336,4.19202-0.992l0.25598-2.01599
	c-1.25311,0.82213-2.72559,1.24602-4.224,1.21599c-3.0509,0.12769-5.62766-2.24207-5.75534-5.29298
	c-0.00385-0.09161-0.0054-0.18332-0.00467-0.27501h9.79199l1.216-1.18401c0.05475-0.32497,0.07617-0.65466,0.06403-0.98399V229.776z
	 M418.90799,229.808c0.00638,0.16068-0.00433,0.32159-0.03201,0.48h-8.86398c0.40134-2.41115,2.42322-4.22021,4.86398-4.35199
	c2.13953-0.08562,3.9433,1.57938,4.02893,3.71887c0.00214,0.05368,0.00317,0.10741,0.00311,0.16112L418.90799,229.808z
	 M435.452,225.424c-1.37158-0.75386-2.91501-1.13971-4.47998-1.12c-4.05478-0.16617-7.47656,2.98618-7.64273,7.04095
	c-0.00568,0.13828-0.00745,0.27667-0.00528,0.41504c-0.04941,4.05403,3.19699,7.38051,7.25101,7.4299
	c0.13235,0.00162,0.26474-0.00035,0.397-0.00591c1.3219,0.04114,2.63559-0.2216,3.84-0.76799l0.25598-1.952
	c-1.19882,0.67569-2.5607,1.00784-3.936,0.95999c-3.06412,0.11522-5.64148-2.27533-5.75671-5.33945
	c-0.00366-0.09747-0.00476-0.19502-0.00327-0.29256c-0.07834-3.05035,2.33096-5.58667,5.38135-5.66501
	c0.1062-0.00272,0.21246-0.00238,0.31863,0.00101c1.41129-0.01074,2.7934,0.40166,3.96802,1.18401L435.452,225.424z M450.84399,239
	v-9.75999c0-3.168-2.336-5.056-5.53598-5.056c-2.56,0-4.064,1.056-4.57602,2.27199h-0.03198V216.216h-2.01602V239h2.01602v-9.56799
	c0-2.01601,1.60001-3.48801,4.12799-3.48801c2.56,0,4,1.472,4,3.48801V239H450.84399z"/>
<path id="Path_2637" class="st2" d="M92.635,322.14999h-0.96c-1.17,3.48001-1.65,4.59-5.67,4.59h-1.38
	c-1.77,0-2.28-0.26999-2.28-1.59V312.13c0-2.34,0.51-2.94,2.94-2.94v-0.89999h-8.43V309.19c2.39999,0,2.73,0.60001,2.73,2.91V324.31
	c0,2.34-0.33,2.79001-2.73,2.79001V328h14.88L92.635,322.14999z M95.725,313.06c0.73873-1.49377,2.26354-2.43661,3.93-2.42999
	c1.86,0,3.06,1.01999,3.06,2.79001c-0.05264,2.2662-1.90318,4.07681-4.17,4.07999h-0.57v1.14001h0.6
	c2.88,0,5.43001,1.76999,5.43001,4.43997c0,2.94-1.83,3.81003-3.72,3.81003c-0.86694-0.02802-1.70872-0.29822-2.43-0.78003
	c-1.05-0.53998-1.29-0.69-1.77-0.69c-0.6749,0.0271-1.20004,0.59619-1.17294,1.27109
	c0.00066,0.01633,0.00164,0.03265,0.00294,0.04892c0,0.78,0.66,1.64999,3.36,1.64999c4.38,0,8.18999-2.09998,8.18999-6.20999
	c0-2.66998-2.00999-4.26001-4.41-5.01001v-0.09c1.89-1.19998,3.24-2.31,3.24-4.38c0-2.28-1.77-4.01999-4.82999-4.01999
	c-2.46,0-4.32,1.38-5.43,3.98999L95.725,313.06z M115.165,312.25c0-2.34,0.09-3.06,2.93999-3.06v-0.89999H109.5V309.19
	c2.75999,0,2.91,0.72,2.91,3.06v11.82001c0,2.66998-0.21001,3.03-2.91,3.03V328h8.61v-0.89999c-2.7,0-2.94-0.39001-2.94-3.03
	v-5.61002h9.84v5.61002c0,2.60999-0.24,3.03-2.91,3.03V328h8.57999v-0.89999c-2.73,0-2.93999-0.42001-2.93999-3.03V312.25
	c0-2.37,0.09-3.06,2.93999-3.06v-0.89999H122.1V309.19c2.76,0,2.91,0.72,2.91,3.06v5.04001h-9.84L115.165,312.25z
	 M140.545,326.14001c0.18001,1.31998,0.48,2.00998,1.8,2.00998c1.53,0,2.25-0.63,3.23999-2.07001l-0.44998-0.47998
	c-0.33702,0.44498-0.85266,0.71927-1.41,0.75c-0.63,0-0.90001-0.24002-0.90001-1.47v-6.81c0-3.12-1.23-4.62-4.5-4.62
	s-5.28,1.62-5.28,3.29999c-0.07755,0.71378,0.43822,1.35526,1.15199,1.4328c0.03589,0.00391,0.07191,0.00629,0.108,0.0072
	c0.66232,0.0705,1.25638-0.4093,1.32686-1.07159c0.01093-0.10269,0.00862-0.20633-0.00685-0.30841
	c0-1.79999,0.29999-2.42999,2.00999-2.42999c1.8,0,2.7,0.98999,2.7,3.60001v1.31998c-2.58,0.81-7.89,1.59003-7.89,5.55002
	c-0.07513,1.78836,1.31374,3.29904,3.10211,3.37418c0.1561,0.00656,0.31247,0.00183,0.46788-0.01419c1.92001,0,3-0.84,4.41-2.06998
	H140.545z M140.33499,325.23999c-0.84956,0.77914-1.9397,1.24481-3.09,1.32001c-1.19289,0.00937-2.16751-0.95007-2.17688-2.14297
	c-0.00075-0.09595,0.00488-0.19183,0.01689-0.28702c0-2.34,2.52-3.14999,5.25-3.84L140.33499,325.23999z M151.19501,313.54001h-0.72
	l-3.72,0.89999v0.84c0.30786-0.04507,0.61888-0.06512,0.92999-0.06c1.08,0,1.08,0.54001,1.08,1.62v8.25
	c0,1.67999-0.21001,2.04001-2.19,2.04001V328h7.5v-0.87c-2.25,0-2.81999-0.30002-2.81999-2.19v-6.84
	c0.72-1.20001,1.67999-2.45999,2.37-2.45999c0.36,0,0.95999,1.01999,1.95,1.01999c0.66,0,1.31999-0.48001,1.31999-1.62
	c0.0787-0.85242-0.54849-1.60724-1.40091-1.68594c-0.11292-0.01044-0.22662-0.00845-0.33908,0.00592
	c-1.44,0-2.34,1.05002-3.87,3.27002h-0.09V313.54001z M162.595,313.54001h-0.72l-3.72,0.89999v0.84
	c0.30788-0.04507,0.6189-0.06512,0.92999-0.06c1.08002,0,1.08002,0.54001,1.08002,1.62v8.25c0,1.67999-0.21001,2.04001-2.19,2.04001
	V328h7.5v-0.87c-2.25,0-2.82001-0.30002-2.82001-2.19v-6.84c0.72-1.20001,1.67999-2.45999,2.37-2.45999
	c0.36002,0,0.96001,1.01999,1.95001,1.01999c0.66,0,1.31999-0.48001,1.31999-1.62c0.0787-0.85242-0.54851-1.60724-1.40092-1.68594
	c-0.1129-0.01044-0.22661-0.00845-0.33908,0.00592c-1.44,0-2.34,1.05002-3.87,3.27002h-0.08499L162.595,313.54001z M176.215,327.16
	c-2.00999,0-2.16-0.45001-2.16-2.19v-11.42999h-0.78l-3.78,0.84v0.87c0.24799-0.04016,0.49881-0.06024,0.75-0.06
	c0.87001,0,1.32001,0.12,1.32001,1.41v8.37c0,1.70999-0.09,2.19-2.10001,2.19V328h6.75V327.16z M172.85501,307.81
	c-0.90895-0.03497-1.67416,0.67349-1.70914,1.58243c-0.00125,0.0325-0.00156,0.06503-0.00087,0.09756
	c-0.02122,0.92319,0.70995,1.68878,1.63312,1.71002c0.02562,0.00058,0.05125,0.00058,0.07689,0
	c0.91293,0.03146,1.67853-0.68311,1.70999-1.59604c0.00131-0.03799,0.00131-0.07599,0-0.11398
	c0.01889-0.90939-0.703-1.66196-1.61243-1.68085C172.92004,307.80847,172.88751,307.80875,172.85501,307.81z M178.22501,323.07999
	l0.09,5.16h0.63l0.62999-0.69h0.06c1.06245,0.52634,2.23442,0.79364,3.42,0.78c2.7,0,5.04001-1.07999,5.04001-3.89999
	c0-2.22-1.47-3.32999-4.20001-4.76999c-2.51999-1.29001-3.50999-2.04001-3.50999-3.20999c0-1.35001,1.05-1.98001,2.43001-1.98001
	c1.82999,0,2.94,0.87,3.59999,3.72h0.81l-0.09-4.59H186.535l-0.51001,0.63H186c-0.96849-0.51871-2.05138-0.78687-3.14999-0.78
	c-2.58002,0-4.59001,1.31998-4.59001,3.78c0,2.22,1.23,3.26999,3.96001,4.64999c2.78999,1.38,3.35999,1.94998,3.35999,3.35999
	S184.5,327.22,183,327.22c-2.22,0-3.36002-1.04999-3.99001-4.14001H178.22501z M212.96501,313.69l-0.24001-5.39999h-16.59
	l-0.33,5.39999h0.93001c0.62999-3.26999,1.04999-4.04999,4.34999-4.04999h1.92v14.42999c0,2.72998-0.42,3.03-2.94,3.03V328h8.7
	v-0.89999c-2.58,0-2.97-0.30002-2.97-3.03v-14.42999h1.89c3.33,0,3.69,0.78,4.35001,4.04999H212.96501z M223.79501,323.70999
	c-0.89282,1.52264-2.5569,2.42404-4.32001,2.34c-2.39999,0-4.67999-1.88998-4.67999-6.03h9.48
	c-0.14999-4.19998-2.31-6.56998-5.58-6.56998c-3.50999,0-6.33,2.39999-6.33,7.40997c0,4.83002,2.78999,7.44,6.39,7.44
	c3.09,0,4.53-1.88998,5.61-4.16998L223.79501,323.70999z M214.76501,318.91c0.24001-2.79001,1.44-4.26001,3.48-4.26001
	c2.13,0,3.12,2.04001,3.21001,4.26001H214.76501z M237.50502,323.56c-1.35001,1.73999-2.37,2.48999-4.32001,2.48999
	c-3.09,0-4.56-2.57999-4.56-6.23999c0-3.45001,1.47-5.25,3.89999-5.25c2.58,0,1.59,3.42001,3.81,3.42001
	c0.84,0,1.25999-0.48001,1.25999-1.35001c0-1.73999-1.74001-3.17999-4.56-3.17999c-4.32001,0-6.78,3.06-6.78,7.76999
	c0,4.17001,2.25,7.07999,6,7.07999c3.21001,0,4.67999-1.88998,5.82001-4.31998L237.50502,323.56z M244.13503,317.23001
	c1.47-1.35001,2.55-1.86002,3.72-1.86002c2.42999,0,2.75999,2.07001,2.75999,4.53v5.19c0,1.44-0.12,2.04001-2.19,2.04001V328
	h6.89999v-0.87c-1.89,0-2.22-0.57001-2.22-2.16V319c0-2.45999-0.57001-5.54999-4.02-5.54999c-1.59,0-2.97,0.69-4.86,2.45999h-0.09
	v-9.09h-0.81l-4.02,1.04999v0.84c0.28828-0.03979,0.57896-0.05984,0.87-0.06c0.81,0,1.47,0.14999,1.47,1.20001v15.35999
	c0,1.68002-0.53999,1.92001-2.10001,1.92001V328h6.81v-0.87c-2.07001,0-2.22-0.48001-2.22-2.04001L244.13503,317.23001z
	 M270.38501,318.79001c0-3.45001-1.28998-5.34-4.01999-5.34c-1.88998,0-3.20999,1.07999-4.82999,2.51999h-0.12l0.02997-2.42999
	h-0.69l-3.81,0.87v0.87c0.2677-0.04407,0.53876-0.06415,0.81-0.06c0.81,0,1.26001,0.23999,1.26001,1.32001V324.97
	c0,1.67999-0.09,2.19-2.10001,2.19V328h6.87v-0.84c-2.16,0-2.28-0.51001-2.28-2.19v-7.70999
	c0.92181-1.07349,2.22192-1.7504,3.63-1.89001c1.35001,0,2.76001,0.57001,2.76001,4.17001V324.97
	c0,1.67999-0.09003,2.19-2.22003,2.19V328h6.92999v-0.84c-2.00998,0-2.21997-0.51001-2.21997-2.19V318.79001z M280.97504,313.45001
	c-4.05002,0-6.72003,2.94-6.72003,7.28998c0,4.86002,2.52002,7.56,6.72003,7.56c3.89996,0,6.65997-2.63998,6.65997-7.67999
	c0-4.44-2.54999-7.16998-6.66-7.16998H280.97504z M280.85504,314.59c2.66998,0,4.01999,2.48999,4.01999,6.17999
	c0,4.89001-1.32001,6.33002-3.78,6.33002c-2.58002,0.03-4.04999-1.98001-4.04999-6.75
	c-0.00006-3.84,1.52997-5.76001,3.80994-5.76001H280.85504z M296.45502,327.13c-2.15997,0-2.31-0.42001-2.31-2.16v-18.14999h-0.75
	l-3.95999,1.04999v0.81c0.31854-0.03882,0.6391-0.05884,0.95999-0.06c0.75,0,1.26001,0.06,1.26001,1.29001v15.06
	c0,1.67999-0.12,2.16-2.10001,2.16V328h6.89999V327.13z M304.88504,313.45001c-4.05002,0-6.72,2.94-6.72,7.28998
	c0,4.86002,2.52002,7.56,6.72,7.56c3.89999,0,6.66-2.63998,6.66-7.67999c-0.00006-4.44-2.54504-7.16998-6.66003-7.16998H304.88504z
	 M304.76505,314.59c2.67001,0,4.01999,2.48999,4.01999,6.17999c0,4.89001-1.32001,6.33002-3.77997,6.33002
	c-2.58002,0.03-4.05002-1.98001-4.05002-6.75c-0.00003-3.84,1.52994-5.76001,3.80997-5.76001H304.76505z M316.40503,322.48001
	c-1.40997,1.07999-2.45999,2.34-2.45999,3.41998c0.1149,0.97635,0.76199,1.80832,1.67999,2.16v0.12
	c-1.62,1.56-2.42999,2.58002-2.42999,3.57001c0,1.64999,1.17001,3.29999,5.10001,3.29999c3.78,0,8.22-1.37997,8.22-5.39999
	c0-3.44998-2.88-3.57001-6.66-3.57001c-2.76001,0-3.53998-0.29999-3.53998-1.19998c0.11139-0.71857,0.3775-1.40439,0.77997-2.01001
	c0.82825,0.29538,1.70071,0.44754,2.58002,0.45001c3.14999,0,5.31-1.77002,5.31-4.56c-0.01447-1.12003-0.39362-2.20483-1.08002-3.09
	v-0.15002l2.82001,0.09v-1.62l-3.87,0.21002c-1.0368-0.50485-2.17685-0.7616-3.32999-0.75
	c-3.17999,0-5.42999,1.88998-5.42999,4.88998c-0.07907,1.69116,0.81918,3.27768,2.31,4.08002L316.40503,322.48001z
	 M316.37506,328.29999c0.41998,0,0.98999,0.03,3.38998,0.06h0.26999c2.01001,0.03003,4.95001,0.06,4.95001,2.13
	c0,1.29001-1.41,2.85001-4.95001,2.85001c-3.06,0-4.5-0.87-4.5-2.60999c0.05994-0.87009,0.34979-1.70865,0.83997-2.43002H316.37506z
	 M319.31506,314.53c1.91998,0,3,1.62,3,4.04999c0,2.85001-1.11002,3.69-2.61002,3.69c-1.94998,0-2.97-1.47-2.97-4.04999
	c-0.00006-2.51999,1.01996-3.69,2.57996-3.69H319.31506z M334.79999,327.16c-2.01001,0-2.16-0.45001-2.16-2.19v-11.42999h-0.78
	l-3.78,0.84v0.87c0.24796-0.04016,0.49881-0.06024,0.75-0.06c0.87,0,1.32001,0.12,1.32001,1.41v8.37
	c0,1.70999-0.09,2.19-2.10001,2.19V328h6.75V327.16z M331.44,307.81c-0.90894-0.03497-1.67413,0.67349-1.70914,1.58243
	c-0.00125,0.0325-0.00153,0.06506-0.00085,0.09756c-0.02124,0.92319,0.70993,1.68878,1.63312,1.71002
	c0.02563,0.00058,0.05124,0.00058,0.07687,0c0.91293,0.03146,1.67853-0.68314,1.70999-1.59607
	c0.00131-0.03796,0.00131-0.07596,0-0.11395c0.01901-0.90939-0.70282-1.66205-1.61221-1.68106
	c-0.03427-0.0007-0.06854-0.00037-0.10278,0.00107H331.44z M348.09,323.70999c-0.89297,1.52249-2.55695,2.4238-4.32001,2.34
	c-2.39999,0-4.67999-1.88998-4.67999-6.03h9.48001c-0.14999-4.19998-2.31-6.56998-5.57999-6.56998
	c-3.51001,0-6.32999,2.39999-6.32999,7.40997c0,4.83002,2.79001,7.44,6.39001,7.44c3.09,0,4.53-1.88998,5.60999-4.16998
	L348.09,323.70999z M339.06,318.91c0.23999-2.79001,1.44-4.26001,3.48001-4.26001c2.13,0,3.12,2.04001,3.20999,4.26001H339.06z
	 M350.73001,323.07999l0.09,5.16h0.63l0.63-0.69h0.06c1.06244,0.52634,2.23441,0.79364,3.42001,0.78
	c2.70001,0,5.04001-1.07999,5.04001-3.89999c0-2.22-1.47-3.32999-4.20001-4.76999c-2.51999-1.29001-3.51001-2.04001-3.51001-3.20999
	c0-1.35001,1.04999-1.98001,2.42999-1.98001c1.82999,0,2.94,0.87,3.60001,3.72h0.81l-0.09-4.59h-0.60001l-0.51001,0.63h-0.03
	c-0.96848-0.51871-2.05136-0.78687-3.14999-0.78c-2.57999,0-4.59,1.31998-4.59,3.78c0,2.22,1.23001,3.26999,3.95999,4.64999
	c2.79001,1.38,3.35999,1.94998,3.35999,3.35999S357,327.22,355.5,327.22c-2.22,0-3.35999-1.05002-3.98999-4.14001H350.73001z"/>
<path id="Path_2638" class="st3" d="M463.98001,327.384c5.888,0,10.52798-3.74399,10.52798-12.10001H462.828v4.064h6.20801
	c0,2.17599-2.72,3.552-5.18402,3.552c-3.67828-0.12549-6.55838-3.20908-6.43286-6.88736
	c0.00027-0.00821,0.00055-0.01642,0.00089-0.02463c-0.1413-3.58707,2.65207-6.6095,6.23914-6.75079
	c0.01096-0.00043,0.02188-0.00082,0.03284-0.00122c1.82742-0.00015,3.56128,0.8082,4.73602,2.20801l3.71198-3.10001
	c-2.11545-2.45084-5.21094-3.83441-8.448-3.776c-6.30078,0.05426-11.36459,5.20602-11.31033,11.50684
	c0.05426,6.30078,5.20602,11.36459,11.50681,11.31033C463.91898,327.38489,463.94949,327.38452,463.98001,327.384z
	 M488.42801,313.84799c-1.13965-1.40543-2.86285-2.20801-4.672-2.17599c-4.25601,0-7.20001,3.168-7.20001,7.87201
	c0,4.672,2.944,7.84,7.13602,7.84c1.84732,0.02594,3.60013-0.81494,4.73599-2.272V327h4.73599v-14.944h-4.73599V313.84799z
	 M484.84399,323c-1.8887,0.01999-3.436-1.4949-3.45599-3.38361c-0.00024-0.02414-0.00024-0.04828,0-0.07239
	c-0.05814-1.86749,1.40863-3.4285,3.27609-3.48663c0.04929-0.00153,0.0986-0.00198,0.14792-0.00137
	c1.91754-0.00885,3.47916,1.53848,3.48801,3.45599C488.30884,321.42953,486.76154,322.99115,484.84399,323z M506.284,311.672
	c-2.11859,0.05179-3.94647,1.50104-4.47998,3.552v-3.168h-4.672V327h4.73599v-4.95999c0-4.41602,1.53601-5.98401,3.392-5.98401
	c0.75507-0.01709,1.49915,0.18283,2.14398,0.57599l1.12003-4.51199C507.82382,311.79398,507.05573,311.64035,506.284,311.672z
	 M529.00403,311.672c-2.02148,0.01816-3.88367,1.10052-4.90002,2.84799c-0.86578-1.81216-2.72943-2.93283-4.73602-2.84799
	c-1.78613-0.01245-3.3927,1.08414-4.03198,2.75201V312.056h-4.73599V327h4.73599v-7.80801c0-2.5,1.31201-3.13599,2.59198-3.13599
	c1.18402,0,2.336,0.832,2.336,3.13599V327H525v-7.29999c0-2.62402,1.08801-3.64801,2.56-3.64801
	c1.216,0,2.36798,0.73599,2.36798,3.04001V327h4.73602v-8.03201c0.00403-4.57599-1.91602-7.29599-5.664-7.29599H529.00403z
	 M540.81201,309.81601c1.55408,0.03241,2.8418-1.19803,2.88-2.75201c-0.01562-1.53638-1.27374-2.7692-2.81012-2.75357
	c-0.02332,0.00021-0.04657,0.00076-0.06989,0.00159c-1.56628-0.05923-2.88397,1.16245-2.94324,2.72873
	c-0.00024,0.00775-0.00055,0.0155-0.00073,0.02325C537.93726,308.62949,539.24542,309.85236,540.81201,309.81601
	L540.81201,309.81601z M543.17999,327v-14.944h-4.73596V327H543.17999z M556.172,311.672
	c-1.37598,0-3.71198,0.92801-4.28796,2.97601V312.056h-4.73602V327h4.73602v-7.776c0-2.5,1.59998-3.168,2.88-3.168
	c1.18396,0,2.59198,0.89999,2.59198,3.20001V327h4.73602v-8.03201C562.09198,314.392,560.14001,311.672,556.172,311.672z"/>
<path id="Path_2639" class="st3" d="M109.868,80c-0.42319,0.01863-0.78136-0.30933-0.8-0.73251
	c-0.00099-0.02248-0.00099-0.045,0-0.06749V58.4c-0.01864-0.42319,0.30932-0.78136,0.73251-0.8
	c0.02248-0.00099,0.04501-0.00099,0.06748,0h2.912c0.25378-0.02092,0.50551,0.05963,0.7,0.224
	c0.1124,0.10291,0.20939,0.22146,0.288,0.352L122.316,71.52V58.4c-0.00783-0.21465,0.07321-0.42303,0.224-0.576
	c0.14265-0.14653,0.33952-0.2276,0.544-0.224h3.264c0.42319-0.01863,0.78136,0.30932,0.8,0.73251
	c0.00099,0.02248,0.00099,0.045,0,0.06749v20.8c0.00125,0.20875-0.07913,0.40971-0.224,0.56001
	c-0.14825,0.15953-0.35832,0.24706-0.576,0.24H123.4c-0.25343,0.0248-0.50497-0.06295-0.688-0.24
	c-0.13866-0.16-0.23867-0.272-0.3-0.33601L113.9,66.5v12.7c0.01864,0.42319-0.30932,0.78137-0.73252,0.8
	c-0.02248,0.00099-0.045,0.00099-0.06747,0H109.868z M138.95599,80.32c-2.14038,0.11282-4.23888-0.62309-5.84-2.048
	c-1.53357-1.59463-2.35855-3.74075-2.28799-5.952v-1.376c0.04166-1.48075,0.42496-2.93184,1.12-4.24
	c0.63873-1.16192,1.60754-2.10845,2.784-2.72c1.29883-0.65353,2.7384-0.97771,4.192-0.944c1.57298-0.05772,3.13103,0.32313,4.5,1.1
	c1.18361,0.71231,2.13,1.75891,2.72,3.008c0.62932,1.36866,0.94109,2.86187,0.912,4.368v0.736
	c0.0025,0.20752-0.08504,0.40594-0.23999,0.54401c-0.1503,0.14487-0.35126,0.22525-0.56,0.224h-10.46802v0.256
	c0.01294,0.64378,0.14871,1.27916,0.40001,1.872c0.2249,0.53912,0.5894,1.00855,1.056,1.36
	c0.47795,0.3475,1.05727,0.52747,1.64799,0.512c0.44641,0.01595,0.89139-0.0589,1.308-0.22
	c0.31224-0.13047,0.59923-0.31458,0.84801-0.54401c0.18274-0.16586,0.3501-0.34793,0.5-0.544
	c0.12875-0.16072,0.28604-0.29633,0.46399-0.4c0.17957-0.06332,0.36987-0.09052,0.56-0.08h3.328
	c0.19154-0.00742,0.37923,0.05515,0.52802,0.176c0.1424,0.1242,0.2092,0.31399,0.17599,0.5
	c-0.06778,0.45879-0.2493,0.89333-0.528,1.264c-0.39818,0.5687-0.89059,1.06518-1.45601,1.468
	c-0.72604,0.52383-1.53075,0.92888-2.384,1.2C141.1759,80.17673,140.06812,80.33885,138.95599,80.32z M135.78799,70.112h6.272
	v-0.064c0.01562-0.68484-0.10962-1.36559-0.368-2c-0.22206-0.53662-0.5943-0.99774-1.07201-1.328
	c-1.04007-0.64006-2.3519-0.64006-3.392,0c-0.47769,0.33026-0.84991,0.79138-1.07199,1.328
	c-0.25836,0.63442-0.38364,1.31516-0.368,2L135.78799,70.112z M158.188,80c-1.16499,0.03152-2.32277-0.19239-3.392-0.656
	c-0.91827-0.41785-1.66824-1.13398-2.12801-2.03201c-0.51498-1.07715-0.76199-2.26281-0.72-3.45599v-6.72h-2.5
	c-0.42319,0.01864-0.78136-0.30932-0.79999-0.73251c-0.00101-0.02248-0.00101-0.045,0-0.06749V64.16
	c-0.01865-0.42319,0.30931-0.78137,0.73251-0.8c0.02248-0.00099,0.045-0.00099,0.06747,0h2.5v-5.28
	c-0.00705-0.21767,0.08047-0.42774,0.24001-0.576c0.15028-0.14487,0.35126-0.22525,0.56-0.224h3.136
	c0.42319-0.01863,0.78137,0.30932,0.8,0.73251c0.00099,0.02248,0.00099,0.045,0,0.06749v5.28h4
	c0.20448-0.0036,0.40135,0.07747,0.54399,0.224c0.15079,0.15297,0.23184,0.36135,0.224,0.576V66.336
	c0.00784,0.21465-0.07321,0.42303-0.224,0.576c-0.14264,0.14653-0.33951,0.2276-0.54399,0.224h-4v6.336
	c-0.03496,0.66114,0.11461,1.31898,0.43199,1.9c0.345,0.4873,0.92621,0.75038,1.52,0.688h2.336
	c0.4225-0.00166,0.76634,0.3395,0.76799,0.76199c0.00002,0.00201,0.00002,0.00401,0,0.00601V79.2
	c0.00784,0.21466-0.07321,0.42303-0.224,0.576c-0.14264,0.14654-0.33951,0.2276-0.54399,0.224H158.188z M167.14801,80
	c-0.4232,0.01864-0.78137-0.30932-0.80002-0.73251c-0.00098-0.02248-0.00098-0.045,0-0.06749V67.136h-2.5
	c-0.42319,0.01863-0.78136-0.30932-0.79999-0.73251c-0.00101-0.02248-0.00101-0.045,0-0.06749V64.16
	c-0.01865-0.42319,0.30931-0.78137,0.73251-0.8c0.02248-0.00099,0.045-0.00099,0.06747,0h2.5v-1.152
	c-0.04694-1.16833,0.21814-2.32808,0.76801-3.36c0.51018-0.87313,1.29912-1.54936,2.23999-1.92
	c1.15434-0.43584,2.3826-0.64236,3.616-0.608h2.01601c0.20448-0.0036,0.40135,0.07747,0.54399,0.224
	c0.15079,0.15297,0.23184,0.36135,0.224,0.576v2.18c0.00784,0.21465-0.07321,0.42303-0.224,0.576
	c-0.14264,0.14654-0.33951,0.2276-0.54399,0.224H173.164c-0.60835-0.06858-1.21484,0.14339-1.64801,0.576
	c-0.34354,0.49738-0.50722,1.09705-0.46399,1.7v0.992h6.46399V57.12c-0.00783-0.21465,0.07321-0.42303,0.224-0.576
	c0.14265-0.14653,0.33952-0.2276,0.54401-0.224h3.13599c0.4232-0.01863,0.78137,0.30933,0.8,0.73252
	c0.00099,0.02248,0.00099,0.045,0,0.06748V79.2c0.01863,0.42319-0.30933,0.78137-0.73251,0.8
	c-0.02248,0.00099-0.045,0.00099-0.06749,0h-3.136c-0.20448,0.0036-0.40135-0.07747-0.54399-0.224
	c-0.15079-0.15297-0.23184-0.36135-0.224-0.576V67.136h-6.464V79.2c0.00783,0.21466-0.07321,0.42303-0.224,0.576
	c-0.14265,0.14654-0.33952,0.2276-0.54399,0.224H167.14801z M187.916,80c-0.20448,0.0036-0.40135-0.07746-0.54401-0.224
	c-0.15079-0.15297-0.23183-0.36135-0.224-0.576V64.16c-0.00783-0.21466,0.07321-0.42303,0.224-0.576
	c0.14265-0.14654,0.33952-0.2276,0.54401-0.224h3.2c0.42319-0.01864,0.78137,0.30932,0.8,0.73251
	c0.00099,0.02248,0.00099,0.045,0,0.06749V79.2c0.01863,0.42319-0.30933,0.78137-0.73251,0.8
	c-0.02249,0.00099-0.045,0.00099-0.06749,0H187.916z M187.81599,60.8c-0.20448,0.0036-0.40135-0.07746-0.54401-0.224
	c-0.15079-0.15297-0.23183-0.36135-0.224-0.576v-2.56c-0.00592-0.21908,0.07454-0.43171,0.224-0.592
	c0.13806-0.15496,0.33649-0.2425,0.54401-0.24h3.36c0.45282-0.00668,0.82532,0.355,0.832,0.80782
	c0.00012,0.00806,0.00012,0.01612,0,0.02418V60c0.00706,0.21767-0.08047,0.42774-0.24001,0.576
	c-0.16029,0.14946-0.37291,0.22992-0.592,0.224H187.81599z M195.21201,80c-0.38435-0.00538-0.69463-0.31565-0.7-0.7
	c0.00343-0.08202,0.01964-0.16298,0.048-0.24001c0.03297-0.09785,0.0816-0.18971,0.144-0.272l5.408-7.328l-4.96001-6.88
	c-0.06308-0.07879-0.1143-0.16638-0.15201-0.26c-0.03133-0.08173-0.04759-0.16846-0.048-0.256
	c0.00537-0.38435,0.31564-0.69463,0.7-0.7h3.328c0.21463-0.01405,0.42647,0.05466,0.592,0.192
	c0.11572,0.10297,0.21667,0.22142,0.3,0.352l3.3,4.48l3.3-4.448c0.08533-0.10667,0.192-0.22934,0.32001-0.368
	c0.16411-0.15224,0.38504-0.22782,0.608-0.208h3.168c0.38435,0.00538,0.69463,0.31565,0.7,0.7
	c-0.00011,0.08632-0.01086,0.1723-0.032,0.256c-0.02917,0.09824-0.08447,0.18673-0.16,0.256l-5.056,6.912l5.472,7.3
	c0.05992,0.07806,0.10841,0.16426,0.144,0.256c0.03133,0.08173,0.04759,0.16846,0.048,0.256
	c-0.00537,0.38435-0.31564,0.69462-0.7,0.7H207.5c-0.19713,0.01271-0.39168-0.05023-0.54401-0.176
	c-0.11507-0.10369-0.22205-0.21601-0.32001-0.336l-3.552-4.736l-3.616,4.736c-0.0887,0.11302-0.18491,0.21993-0.28799,0.32
	c-0.1593,0.14-0.36862,0.20929-0.57999,0.192H195.21201z"/>
<path id="Path_2640" class="st4" d="M676.44,327l-3.52002-9.664H670.776V327h-3.71198v-22.65601h6.46399
	c0.87762-0.00876,1.75153,0.1153,2.59198,0.36801c0.75836,0.22745,1.4538,0.6272,2.03198,1.168
	c0.58704,0.5665,1.04065,1.2565,1.328,2.01999c0.34088,0.93207,0.50372,1.91986,0.48004,2.91202
	c0.01312,0.78635-0.10028,1.56967-0.336,2.31998c-0.19336,0.61072-0.47937,1.18811-0.84802,1.71201
	c-0.31189,0.44003-0.69598,0.82413-1.13599,1.13602c-0.37305,0.26755-0.78998,0.4679-1.23199,0.59198L680.47198,327H676.44z
	 M676.18402,311c0.01898-0.58026-0.07892-1.15839-0.28802-1.70001c-0.16254-0.4071-0.42041-0.76923-0.75201-1.056
	c-0.30518-0.25372-0.66113-0.43921-1.04401-0.54398c-0.37494-0.10544-0.76251-0.15927-1.15198-0.16h-2.172v6.97998h2.17603
	c0.86017,0.03064,1.69647-0.28656,2.32001-0.87997C675.92822,312.9241,676.25842,311.96829,676.18402,311z M685.75201,319.76801
	c-0.00348,0.60794,0.06097,1.21436,0.19202,1.80798c0.10931,0.51672,0.29822,1.01331,0.56,1.47202
	c0.22437,0.39209,0.53149,0.73059,0.89996,0.992c0.36212,0.24844,0.79297,0.37717,1.23199,0.36798
	c0.59589,0.02679,1.17401-0.20679,1.58405-0.63998c0.39801-0.43192,0.71747-0.93008,0.94397-1.47202l2.65601,1.53601
	c-0.41852,1.05972-1.10822,1.99084-2,2.70001c-0.95776,0.70181-2.12561,1.05725-3.31201,1.008
	c-1.80005,0.04742-3.50928-0.78928-4.57599-2.24002c-1.2691-1.89359-1.87793-4.15308-1.73199-6.42798
	c-0.01245-1.2041,0.13824-2.40436,0.448-3.56802c0.25861-0.99146,0.69208-1.9288,1.27997-2.76797
	c0.51581-0.73248,1.18976-1.33948,1.97205-1.776c1.63922-0.83716,3.58191-0.83121,5.216,0.01599
	c0.72986,0.42468,1.34283,1.02393,1.784,1.74399c0.48529,0.80402,0.82642,1.68661,1.008,2.608
	c0.22046,1.07385,0.3277,2.16782,0.32001,3.26401v1.37601H685.75201z M690.776,317.14401
	c0.04065-1.01804-0.15662-2.03149-0.57599-2.96002c-0.30859-0.70966-1.01849-1.15967-1.79199-1.13599
	c-0.43719-0.0112-0.86359,0.13663-1.20001,0.41599c-0.3374,0.28604-0.61011,0.64053-0.79999,1.04001
	c-0.39081,0.82651-0.60345,1.72598-0.62402,2.63998L690.776,317.14401z M704.40802,327l-2.52802-5.952L699.28802,327h-3.96802
	l4.224-8.54401l-3.84399-7.776h3.93597l2.27203,5.31201l2.23999-5.31201h3.89996l-3.80798,7.776L708.40802,327H704.40802z
	 M714.39203,310.67999v2.59201h0.06396c0.28925-0.86057,0.80292-1.62833,1.48804-2.224
	c1.52197-1.42807,3.91351-1.35193,5.34161,0.17007c0.26819,0.28586,0.49036,0.61176,0.65839,0.96591
	c0.31421,0.67261,0.51941,1.39093,0.60797,2.12802c0.10742,0.81155,0.16089,1.62933,0.16003,2.448V327h-3.612v-10.23999
	c-0.00037-0.4115-0.02173-0.82269-0.06403-1.23199c-0.03632-0.38968-0.12787-0.77219-0.27197-1.13602
	c-0.12476-0.32224-0.33496-0.60434-0.60803-0.81601c-0.30383-0.21246-0.66968-0.31799-1.03998-0.29999
	c-0.8233,0.00684-1.57239,0.47733-1.93604,1.216c-0.5119,0.94058-0.76068,2.00186-0.71997,3.07199V327h-3.62v-16.32001H714.39203z
	 M738.52002,318.87201c0.0116,1.18723-0.13367,2.37079-0.43201,3.51999c-0.24805,0.97964-0.67084,1.90649-1.24799,2.73599
	c-0.51538,0.73132-1.18781,1.33813-1.96802,1.776c-1.64532,0.85321-3.60272,0.85321-5.24799,0
	c-0.78021-0.43787-1.45264-1.04468-1.96802-1.776c-0.57721-0.8295-1-1.75635-1.24799-2.73599
	c-0.29834-1.1492-0.4436-2.33276-0.43201-3.51999c-0.01215-1.20309,0.13306-2.40259,0.43201-3.56799
	c0.24738-0.987,0.66425-1.92358,1.23199-2.76801c0.50385-0.74149,1.17883-1.35065,1.96796-1.776
	c0.81433-0.42462,1.7218-0.6391,2.64001-0.62402c0.91327-0.01636,1.81586,0.19827,2.62402,0.62402
	c0.78491,0.43121,1.45874,1.03925,1.96796,1.776c0.57733,0.84109,1,1.77844,1.24805,2.76801
	C738.3869,316.46942,738.53217,317.66891,738.52002,318.87201z M734.93604,318.84c0.00409-0.73373-0.04938-1.46664-0.16003-2.19199
	c-0.08905-0.60599-0.25714-1.19769-0.5-1.76001c-0.18787-0.45053-0.4718-0.85458-0.83197-1.18399
	c-0.69641-0.57587-1.70367-0.57587-2.40002,0c-0.35828,0.32764-0.63733,0.73254-0.81598,1.18399
	c-0.23096,0.56497-0.39215,1.15601-0.47998,1.76001c-0.21338,1.44818-0.21338,2.9198,0,4.36798
	c0.08502,0.60458,0.24628,1.19598,0.47998,1.76001c0.18134,0.44537,0.46021,0.84448,0.81598,1.168
	c0.33215,0.28864,0.76013,0.44272,1.20001,0.43201c0.4444,0.00888,0.87677-0.14471,1.216-0.43201
	c0.36414-0.31958,0.64893-0.71942,0.83197-1.168c0.2337-0.56406,0.39496-1.15543,0.48004-1.76001
	C734.88281,320.29599,734.93762,319.56848,734.93604,318.84z M745.59204,313.81601c0.18048-1.01907,0.63391-1.97015,1.31195-2.75201
	c0.54108-0.59409,1.30847-0.93127,2.112-0.92801h0.27203c0.09387,0.0043,0.1861,0.026,0.27197,0.06403l-0.19196,3.71198
	c-0.25043-0.06735-0.50873-0.10098-0.76801-0.09998c-0.45361-0.00546-0.8949,0.14728-1.24805,0.43198
	c-0.38269,0.31232-0.6983,0.6987-0.92798,1.13602c-0.26813,0.50278-0.46216,1.04169-0.57599,1.60001
	c-0.12823,0.59952-0.19263,1.21091-0.19202,1.82401V327h-3.67999v-16.32001h3.552v3.13602H745.59204z M759.57599,327v-2.336
	h-0.06396c-0.21417,0.77579-0.62793,1.48193-1.20001,2.048c-0.67194,0.59344-1.55359,0.89307-2.448,0.832
	c-0.79785,0.01041-1.57965-0.22415-2.23999-0.672c-0.69415-0.48453-1.26422-1.12589-1.664-1.87201
	c-0.47852-0.88297-0.82361-1.83191-1.02399-2.81601c-0.24207-1.15073-0.36005-2.3241-0.35205-3.5
	c-0.00873-1.14996,0.10388-2.29764,0.336-3.42398c0.18842-0.94843,0.52881-1.86017,1.008-2.70001
	c0.40485-0.7113,0.96893-1.31918,1.64801-1.776c0.68225-0.43573,1.4787-0.65854,2.28802-0.63998
	c0.8222-0.02469,1.62683,0.24161,2.27197,0.75198c0.60498,0.48129,1.05103,1.13361,1.28003,1.87201h0.09998v-9.95999h3.552V327
	H759.57599z M759.64001,318.84c0.00452-0.73438-0.05438-1.46774-0.17603-2.19199c-0.09772-0.60547-0.26965-1.19659-0.51196-1.76001
	c-0.19128-0.45691-0.48724-0.86249-0.86401-1.18399c-0.33582-0.28223-0.76135-0.43542-1.20001-0.43201
	c-0.4444-0.00888-0.87677,0.14471-1.216,0.43201c-0.36682,0.32349-0.65192,0.72922-0.83197,1.18399
	c-0.23096,0.56497-0.39215,1.15601-0.47998,1.76001c-0.11066,0.72534-0.16418,1.45825-0.16003,2.19199
	c-0.00336,0.72308,0.05011,1.44531,0.16003,2.16c0.08783,0.604,0.24902,1.19501,0.47998,1.76001
	c0.18005,0.45477,0.46515,0.86047,0.83197,1.18399c0.70831,0.57617,1.72375,0.57617,2.43201,0
	c0.36859-0.32547,0.65851-0.73029,0.84802-1.18399c0.24231-0.56342,0.41425-1.15454,0.51202-1.76001
	C759.58478,320.28641,759.64368,319.56372,759.64001,318.84z"/>
<path id="Path_2641" class="st1" d="M494.332,170.312c0.19717,0.57924,0.52576,1.10497,0.95999,1.536
	c0.28494,0.28386,0.65671,0.46411,1.056,0.51201V173c-1.28-0.06667-2.90134-0.10001-4.86398-0.10001
	c-2.17599,0-3.79733,0.03334-4.86401,0.10001v-0.64c0.58908,0.00122,1.17383-0.1003,1.728-0.3
	c0.33289-0.14589,0.53793-0.48547,0.51202-0.84799c-0.03464-0.53093-0.1647-1.05125-0.384-1.53601l-1.92001-5.24799h-6.97598
	l-0.832,2.20799c-0.50098,1.12379-0.80539,2.32524-0.90002,3.552c-0.06961,0.6382,0.20444,1.26546,0.72,1.64799
	c0.6524,0.35535,1.38516,0.53717,2.12802,0.528V173c-1.45068-0.06667-2.77335-0.10001-3.96802-0.10001
	c-0.98132,0-1.79199,0.03334-2.43201,0.10001v-0.64c1.04535-0.192,1.96268-1.312,2.75201-3.36l7.29999-18.72
	c0.23468,0.02133,0.608,0.032,1.12,0.032c0.51202,0,0.87466-0.01067,1.08801-0.032L494.332,170.312z M486.332,163.784l-3.168-8.64
	l-3.328,8.64H486.332z M512.63202,169.48401c-0.05505,0.74255,0.10022,1.4856,0.448,2.144
	c0.38074,0.48625,0.98621,0.74055,1.59998,0.672v0.672c-0.66132-0.06667-1.32263-0.09999-1.98401-0.09999
	c-1.56946-0.03355-3.13748,0.11681-4.67197,0.448v-2.75201c-0.55838,1.80318-2.2757,2.9921-4.16,2.88
	c-1.85229,0.07054-3.62796-0.74304-4.784-2.192c-1.18402-1.46133-1.76535-3.664-1.74402-6.608
	c-0.04895-1.63177,0.26245-3.25427,0.91202-4.752c0.53094-1.20262,1.41187-2.21738,2.52798-2.912
	c1.1189-0.66231,2.39999-1.00024,3.70001-0.976c1.29977-0.09221,2.58142,0.34656,3.552,1.216v-5.44
	c0.0564-0.74454-0.10483-1.48941-0.46402-2.144c-0.3783-0.48018-0.9758-0.73367-1.58398-0.672V148.3
	c0.68265,0.06667,1.34399,0.09999,1.98401,0.09999c1.56931,0.02896,3.13678-0.12134,4.67197-0.448L512.63202,169.48401z
	 M505.17999,172.07199c0.70096,0.00136,1.37396-0.27475,1.87201-0.76799c0.564-0.55405,0.91034-1.29214,0.97601-2.08v-11.2
	c-0.54636-0.73221-1.42398-1.14098-2.336-1.088c-1.19522,0.04248-2.23969,0.81947-2.62402,1.952
	c-0.71448,1.85425-1.02142,3.84058-0.89999,5.82401c-0.12628,1.90865,0.12936,3.82333,0.75201,5.63199
	C503.23141,171.34047,504.13675,172.0327,505.17999,172.07199z M524.28003,156.008c2.12701-0.12148,4.21027,0.63805,5.75995,2.10001
	c1.38672,1.39999,2.08002,3.61333,2.08002,6.64c0,3.02666-0.6933,5.23466-2.08002,6.62399c-3.33246,2.77122-8.16748,2.77122-11.5,0
	c-1.39996-1.38666-2.09998-3.59467-2.09998-6.62399c0-3.02934,0.70001-5.24268,2.09998-6.64
	c1.54663-1.45659,3.62262-2.21559,5.74402-2.10001H524.28003z M524.28003,156.64799c-0.91736,0-1.64801,0.66667-2.19202,2
	c-0.63867,1.96725-0.91516,4.03406-0.81604,6.10001c-0.09985,2.05942,0.1767,4.11978,0.81604,6.08
	c0.54401,1.32266,1.27466,1.98399,2.19202,1.98399c0.93866,0,1.67462-0.65599,2.20795-1.968
	c0.63-1.96898,0.901-4.03516,0.80005-6.09999c0.10107-2.06996-0.17548-4.14105-0.81604-6.112
	c-0.54132-1.32268-1.27063-1.98401-2.18799-1.98401H524.28003z M545.08002,156.008c1.66443-0.03278,3.23608,0.76503,4.19202,2.12801
	c1.18176,1.8279,1.74286,3.98804,1.59998,6.16c0,3.13333-0.68268,5.44266-2.04797,6.92799
	c-1.35077,1.47687-3.27966,2.28937-5.28003,2.224c-1.28906,0.05865-2.55768-0.3378-3.58398-1.12
	c-0.776-0.06247-1.55676,0.02444-2.29999,0.256c-0.6651,0.18132-1.28589,0.49716-1.82404,0.92799l-0.47998-0.28799
	c0.15588-0.58435,0.2312-1.18726,0.224-1.79199v-19.61601c0.0564-0.74452-0.1048-1.4894-0.46399-2.144
	c-0.3783-0.48018-0.97583-0.73367-1.58405-0.672v-0.672c0.66138,0.06667,1.32269,0.09999,1.98401,0.09999
	c1.56934,0.02896,3.13678-0.12134,4.672-0.448V159.048c0.40594-0.93312,1.08691-1.72015,1.95203-2.25601
	c0.88837-0.53223,1.90857-0.80389,2.94397-0.784H545.08002z M542.552,172.776c1.21191-0.02365,2.271-0.8244,2.62402-1.98401
	c0.67426-1.94167,0.96765-3.99519,0.86395-6.04799c0.10486-1.91194-0.14465-3.82678-0.73596-5.64799
	c-0.49066-1.14134-1.1947-1.71201-2.112-1.71201c-0.69659,0.00536-1.3653,0.274-1.87201,0.752
	c-0.58643,0.53827-0.98462,1.25052-1.13599,2.032v11.744c0.66248,0.56142,1.5036,0.86781,2.37201,0.864H542.552z
	 M562.26404,170.82401c1.77167-0.0114,3.39404-0.99466,4.224-2.56l0.57599,0.19199
	c-0.41589,1.36996-1.20874,2.59531-2.28802,3.53601c-1.13861,0.98543-2.60693,1.50534-4.112,1.45599
	c-2.02551,0.09595-3.99292-0.69218-5.39197-2.16c-1.33337-1.43999-2-3.56799-2-6.38399c0-2.88,0.71466-5.08267,2.14398-6.608
	c1.48163-1.54828,3.55908-2.38219,5.70001-2.28801c4.01068,0,6.01599,2.36667,6.01599,7.10001h-8.992
	c-0.02136,0.32001-0.03198,0.82001-0.03198,1.5c-0.0365,1.20088,0.16467,2.39713,0.59198,3.52
	c0.30188,0.81754,0.83569,1.52927,1.53601,2.04799c0.59497,0.41901,1.30426,0.6452,2.03198,0.64801H562.26404z M560.92401,156.67999
	c-0.85712,0.06282-1.59918,0.61899-1.90002,1.42401c-0.60309,1.38962-0.92395,2.88527-0.94397,4.39999h5.02002
	c0.07629-1.41045-0.09283-2.82344-0.5-4.17599C562.22937,157.22934,561.67065,156.67999,560.92401,156.67999z"/>
<path id="Path_2642" class="st1" d="M269.41199,166h2.944l0.28799-18.81599L277,166h2.048l4.384-18.81599L283.716,166h2.91199
	l-0.47998-25.92h-3.52002l-4.608,21.02l-4.57599-21.02h-3.552L269.41199,166z M290.53198,144.752h3.42401v-3.584h-3.42398
	L290.53198,144.752z M290.53198,166h3.42401v-18.5h-3.42398L290.53198,166z M302.69202,166.256
	c3.96799,0,5.05597-2.20799,5.05597-5.952v-1.28h-3.09998v1.5c0,1.888-0.19202,3.2-1.888,3.2c-1.53601,0-2.048-0.79999-2.048-3.968
	V153.936c0-3.136,0.32001-4.16,2.01599-4.16c1.5,0,1.92001,0.864,1.92001,3.26401v1.12h3.09998v-1.088
	c0-3.808-1.02399-5.82401-5.05597-5.82401c-4.48001,0-5.40802,2.752-5.40802,7.392v4.25999
	C297.284,163.34399,298.14801,166.256,302.69202,166.256z M310.884,166h3.42401v-13.5c0.47623-1.09515,1.55777-1.80254,2.75198-1.8
	c0.64667,0.01903,1.28528,0.14891,1.888,0.384v-3.772c-0.1803-0.02402-0.36212-0.03471-0.54401-0.032
	c-1.37598,0-2.75198,0.608-4.09998,2.84801V147.5H310.884V166z M326.14801,166.256c4.09998,0,5.37598-2.65599,5.37598-6.81599
	V154.064c0-4.16-1.27997-6.81599-5.37598-6.81599c-4.12799,0-5.40802,2.65599-5.40802,6.81599V159.44
	C320.73999,163.60001,322.01999,166.256,326.14801,166.256z M326.14801,163.728c-1.98401,0-1.98401-1.98399-1.98401-4.064v-5.79201
	c0-2.08,0-4.09999,1.98401-4.09999c1.952,0,1.952,2.01599,1.952,4.09999v5.79201
	C328.10001,161.744,328.10001,163.728,326.14801,163.728z M338.948,166.256c3.04001,0,5.12-1.56799,5.12-4.73599
	c0-2.368-1.31198-3.776-2.62399-4.992l-3.26401-3.008c-0.57153-0.44858-0.91205-1.12962-0.92798-1.856
	c-0.04871-0.99292,0.71671-1.83733,1.70963-1.88603c0.03809-0.00186,0.07623-0.00252,0.11435-0.00197
	c1.47202,0,2.01599,1.28,2.272,3.2l2.30002-0.864c-0.224-2.688-1.76001-4.864-4.70001-4.864c-2.88,0-4.76801,1.632-4.76801,4.54401
	c-0.01901,1.78342,0.82791,3.46533,2.27203,4.51199l3.16797,2.72c0.91403,0.62224,1.47238,1.64664,1.5,2.752
	c0.10489,0.97025-0.59662,1.84178-1.56686,1.94666c-0.10666,0.01152-0.21414,0.01331-0.32114,0.00534
	c-1.56799,0-2.336-1.15199-2.65598-3.51999l-2.84799,0.86398C333.98801,164.17599,335.90799,166.256,338.948,166.256z
	 M351.716,166.256c4.10001,0,5.37601-2.65599,5.37601-6.81599V154.064c0-4.16-1.28-6.81599-5.37601-6.81599
	c-4.12799,0-5.40799,2.65599-5.40799,6.81599V159.44C346.30798,163.60001,347.58801,166.256,351.716,166.256z M351.716,163.728
	c-1.98401,0-1.98401-1.98399-1.98401-4.064v-5.79201c0-2.08,0-4.09999,1.98401-4.09999c1.952,0,1.952,2.01599,1.952,4.09999v5.79201
	C353.668,161.744,353.668,163.728,351.716,163.728z M361.31601,166h3.42398v-15.968h2.81601V147.5h-2.81601v-1.532
	c0-1.44,0.19202-2.40001,1.53601-2.40001c0.43127,0.00591,0.86053,0.05957,1.28,0.16v-2.5
	c-0.73618-0.15683-1.48737-0.23195-2.24002-0.224c-3.48798,0-4,2.112-4,5.53601V147.5H359.108v2.528h2.20798L361.31601,166z
	 M374.34003,166.256c0.79321-0.00031,1.58508-0.06451,2.36798-0.192v-2.528c-0.41327,0.06154-0.8302,0.09496-1.24799,0.10001
	c-1.34399,0-1.70001-0.576-1.70001-2.01601V149.776h2.97601V147.5h-2.97601v-5.39999H370.34V147.5h-1.952v2.272h1.952V161.84
	c0,2.688,1.08798,4.416,4,4.416H374.34003z"/>
<path id="Path_2643" class="st1" d="M118.524,250.16c-1.56244,0.02126-3.10931-0.31247-4.524-0.976
	c-1.32181-0.62622-2.5071-1.50703-3.488-2.59201c-1.95531-2.18869-3.0423-5.01714-3.056-7.952
	c-0.00439-1.49214,0.28371-2.97067,0.848-4.35201c0.54768-1.35887,1.33939-2.60608,2.336-3.67999
	c0.99986-1.07233,2.20148-1.93684,3.536-2.54401c1.39469-0.63521,2.91152-0.95741,4.44399-0.944
	c1.55814-0.02007,3.09932,0.32516,4.5,1.00801c1.31876,0.64462,2.49833,1.54153,3.472,2.64
	c0.96309,1.09309,1.72182,2.35042,2.24001,3.71199c0.52573,1.34637,0.79698,2.77864,0.8,4.224
	c0.0056,1.48553-0.27696,2.95805-0.832,4.33601c-0.53549,1.34724-1.31525,2.584-2.3,3.64799
	c-0.99545,1.06619-2.19168,1.92529-3.52,2.528C121.58163,249.85292,120.06052,250.17517,118.524,250.16z M111.932,238.64
	c-0.00226,0.96706,0.14896,1.92834,0.448,2.84801c0.2814,0.88315,0.72199,1.70738,1.3,2.43199
	c0.56621,0.7065,1.27494,1.28575,2.07999,1.7c1.7804,0.85892,3.85652,0.85301,5.632-0.01599
	c0.8092-0.42719,1.51825-1.0217,2.08-1.744c0.56939-0.73305,1.0029-1.56213,1.28-2.448
	c0.28616-0.89481,0.43188-1.82855,0.432-2.76801c0.00213-0.96832-0.15462-1.93044-0.464-2.84799
	c-0.29213-0.88383-0.73909-1.70866-1.32-2.436c-0.56432-0.70319-1.27383-1.27625-2.08-1.68001
	c-1.77964-0.84309-3.84608-0.83131-5.616,0.03201c-0.80998,0.41902-1.51959,1.00854-2.07999,1.728
	c-0.56228,0.72925-0.99029,1.55276-1.264,2.43199C112.0752,236.76701,111.93082,237.70076,111.932,238.64z M142.588,236.94
	c-1.20349,0.00229-2.39264,0.2614-3.48799,0.75999c-0.97285,0.42952-1.75722,1.19684-2.20801,2.16V250h-4.29199v-16.76801h3.94
	v3.584c0.28815-0.55896,0.64417-1.08023,1.06-1.55199c0.39221-0.4467,0.83217-0.84909,1.312-1.20001
	c0.43745-0.32385,0.9164-0.58755,1.424-0.784c0.44366-0.17433,0.91534-0.26651,1.392-0.272h0.528
	c0.11278-0.00044,0.22533,0.01028,0.336,0.032L142.588,236.94z M149.34,250.32001c-0.77539,0.00626-1.54538-0.1293-2.272-0.40001
	c-0.67592-0.24936-1.29584-0.63-1.82401-1.12c-0.508-0.47441-0.91599-1.04561-1.2-1.68001
	c-0.2932-0.66505-0.44051-1.38522-0.43199-2.112c-0.00638-0.76289,0.17496-1.51567,0.528-2.192
	c0.35397-0.67636,0.85738-1.26321,1.472-1.71599c0.68286-0.49417,1.44614-0.86633,2.256-1.10001
	c0.93491-0.27521,1.9055-0.41,2.88-0.39999c0.73491-0.00104,1.46846,0.06322,2.192,0.19199
	c0.65152,0.11047,1.28876,0.29292,1.89999,0.54401v-0.95999c0.06145-0.94843-0.28152-1.87852-0.944-2.56
	c-0.7814-0.65157-1.78529-0.97424-2.79999-0.90001c-0.8965,0.00008-1.78555,0.16272-2.62401,0.48
	c-0.92894,0.36031-1.81018,0.83316-2.62401,1.408l-1.312-2.72c2.05708-1.3994,4.48805-2.14653,6.976-2.144
	c2.02766-0.12648,4.02975,0.50665,5.616,1.776c1.3945,1.33125,2.12698,3.21227,2,5.136v5.21599
	c-0.03033,0.33789,0.05423,0.67615,0.24001,0.96001c0.20497,0.21178,0.48938,0.32787,0.784,0.31999V250
	c-0.62032,0.1373-1.25279,0.21234-1.888,0.224c-0.66576,0.04167-1.32515-0.15076-1.864-0.54401
	c-0.43842-0.3645-0.72859-0.87659-0.81599-1.43999l-0.09999-0.92801c-0.71368,0.95421-1.64665,1.72253-2.72,2.24001
	C151.69568,250.06438,150.52481,250.327,149.34,250.32001z M150.556,247.18401c0.70609,0.00359,1.40646-0.12671,2.064-0.384
	c0.58365-0.21022,1.10594-0.56209,1.52-1.024c0.41515-0.26932,0.67558-0.72174,0.7-1.216v-1.92
	c-0.54099-0.2001-1.09753-0.3553-1.664-0.464c-0.56763-0.11421-1.14499-0.17316-1.724-0.17599
	c-0.9632-0.04181-1.91504,0.22136-2.72,0.752c-0.65375,0.41109-1.05206,1.12776-1.056,1.90001
	c-0.01259,0.69794,0.29372,1.36356,0.832,1.808C149.07724,246.94699,149.80716,247.20503,150.556,247.18401z M162.076,241.616
	c-0.00658-1.13753,0.19965-2.26627,0.608-3.328c0.39369-1.02733,0.99252-1.9637,1.75999-2.752
	c0.79413-0.80711,1.74036-1.44882,2.784-1.88799c1.16568-0.48325,2.41832-0.72151,3.68001-0.70001
	c1.64342-0.05174,3.26857,0.35696,4.692,1.18001c1.24281,0.73524,2.24915,1.81097,2.89999,3.09999l-4.2,1.284
	c-0.34097-0.59724-0.83897-1.08972-1.44-1.424c-0.60725-0.33469-1.29065-0.50691-1.98399-0.5
	c-0.59595-0.00485-1.18575,0.12076-1.728,0.368c-0.52927,0.24236-1.00307,0.59091-1.392,1.024
	c-0.40955,0.46252-0.72479,1.00061-0.92801,1.584c-0.23056,0.65785-0.34428,1.35097-0.336,2.048
	c-0.00842,0.69841,0.11087,1.39249,0.35199,2.048c0.21533,0.58603,0.53517,1.12814,0.944,1.59999
	c0.38538,0.44106,0.85979,0.7955,1.392,1.04001c0.53293,0.24553,1.11325,0.37115,1.70001,0.368
	c0.74507,0.00624,1.47784-0.19009,2.12-0.56799c0.58771-0.31784,1.06274-0.80963,1.36-1.408l4.192,1.28
	c-0.60553,1.30916-1.59821,2.40097-2.84399,3.12801c-1.44412,0.84419-3.0959,1.26685-4.76801,1.22
	c-1.26169,0.0215-2.51431-0.21677-3.67999-0.70001c-2.09512-0.87628-3.74203-2.56943-4.56-4.68799
	C162.28378,243.87619,162.07202,242.75089,162.076,241.616z M181.14801,226.64h4.28799v17.98399
	c-0.0325,0.51872,0.12695,1.03128,0.448,1.44c0.32832,0.35394,0.79816,0.54189,1.28,0.51201
	c0.28711-0.00458,0.57233-0.04762,0.84799-0.12801c0.30157-0.0825,0.59589-0.18953,0.88-0.31999l0.57599,3.26399
	c-0.64192,0.29851-1.31943,0.5136-2.01599,0.64c-0.68465,0.14058-1.38113,0.21559-2.08,0.224
	c-1.14125,0.07237-2.26424-0.31348-3.12001-1.07199c-0.77548-0.8215-1.17401-1.92873-1.09999-3.056L181.14801,226.64z
	 M199.10001,250.32001c-1.24988,0.01816-2.4906-0.21584-3.64801-0.688c-2.08978-0.85081-3.7384-2.52257-4.56-4.62401
	c-0.41714-1.04996-0.62898-2.17021-0.62399-3.29999c-0.00751-1.15323,0.19864-2.29787,0.608-3.37601
	c0.3933-1.037,0.99193-1.98392,1.75999-2.784c0.79478-0.81671,1.74745-1.46317,2.8-1.90001c1.17285-0.48265,2.43188-0.72084,3.7-0.7
	c1.25659-0.02249,2.5042,0.21585,3.664,0.7c1.03404,0.43956,1.96971,1.08148,2.752,1.888
	c0.75769,0.78987,1.34575,1.72641,1.728,2.752c0.39423,1.04294,0.59485,2.14905,0.59201,3.26401
	c0,0.27733-0.00534,0.54401-0.01601,0.8c-0.00542,0.21545-0.03221,0.42984-0.08,0.64h-12.95999
	c0.05017,0.61124,0.21291,1.20792,0.48,1.75999c0.4839,0.99228,1.33003,1.76111,2.364,2.14799
	c0.51154,0.19193,1.05365,0.28949,1.60001,0.28801c0.84543,0.00203,1.67728-0.21281,2.41599-0.62401
	c0.69547-0.34915,1.24518-0.93286,1.552-1.64799l3.68001,1.024c-0.65489,1.31912-1.68459,2.41559-2.96001,3.15199
	C202.47691,249.94241,200.79854,250.36754,199.10001,250.32001z M203.452,240.20801c-0.056-1.14996-0.55484-2.23363-1.392-3.024
	c-1.67908-1.54602-4.26526-1.53905-5.936,0.01599c-0.39297,0.37529-0.71304,0.82013-0.944,1.312
	c-0.25113,0.53392-0.39777,1.11096-0.43199,1.70001L203.452,240.20801z"/>
<path id="Path_2644" class="st1" d="M383.31201,70.976v8.8c-1.12073,0.81622-2.36618,1.44569-3.68802,1.864
	c-1.39349,0.42358-2.84363,0.63132-4.30002,0.616c-1.70251,0.02495-3.39502-0.26527-4.99197-0.856
	c-1.41837-0.52995-2.71201-1.347-3.80002-2.4c-1.06232-1.04659-1.88876-2.30808-2.42401-3.7
	c-0.57913-1.51654-0.86682-3.12875-0.84799-4.752c-0.02057-1.63167,0.25873-3.25324,0.82401-4.784
	c0.51474-1.38331,1.31317-2.64363,2.34399-3.7c1.04865-1.05206,2.31021-1.86764,3.70001-2.392
	c1.5542-0.58377,3.20395-0.8714,4.86398-0.848c0.8468-0.00481,1.6925,0.06209,2.52802,0.2
	c0.73685,0.12212,1.46017,0.31501,2.16,0.576c0.64246,0.24133,1.25891,0.54688,1.84,0.912
	c0.56253,0.35522,1.09262,0.75945,1.58398,1.208l-0.87997,1.408c-0.12015,0.19935-0.31189,0.34529-0.53601,0.408
	c-0.25323,0.0523-0.51685-0.00274-0.728-0.152c-0.25601-0.14933-0.54935-0.33067-0.88-0.544
	c-0.3837-0.24058-0.78793-0.44671-1.20801-0.616c-0.54379-0.21689-1.10608-0.38424-1.67999-0.5
	c-0.75729-0.1494-1.52817-0.21912-2.30002-0.208c-1.19644-0.01646-2.38483,0.19814-3.5,0.632
	c-1.0126,0.39917-1.92487,1.01645-2.672,1.808c-0.7594,0.82014-1.3385,1.79033-1.69998,2.848
	c-0.40973,1.20779-0.60995,2.47673-0.59201,3.752c-0.02054,1.314,0.1879,2.62153,0.616,3.864
	c0.37521,1.08015,0.97507,2.06853,1.76001,2.9c0.7782,0.80495,1.72672,1.42545,2.776,1.816
	c2.09283,0.72916,4.35495,0.82103,6.5,0.264c0.84134-0.24601,1.65396-0.58125,2.42401-1v-5.04h-3.56802
	c-0.17957,0.00845-0.35513-0.05486-0.48798-0.176c-0.12003-0.11125-0.18695-0.26838-0.18402-0.432V70.992L383.31201,70.976z
	 M394.03198,65.536c1.09537-0.01669,2.18311,0.18455,3.20001,0.592c0.92316,0.37656,1.75308,0.94988,2.43201,1.68
	c0.69254,0.76009,1.21848,1.65661,1.54401,2.632c0.37036,1.11124,0.55154,2.27676,0.53598,3.448
	c0.01682,1.17393-0.1644,2.3423-0.53598,3.45599c-0.32684,0.97242-0.85269,1.86607-1.54401,2.62401
	c-0.67786,0.72937-1.50827,1.30026-2.43201,1.672c-1.01819,0.40218-2.10541,0.6006-3.20001,0.584
	c-1.10242,0.01703-2.19757-0.18135-3.224-0.584c-0.92682-0.37026-1.76013-0.94128-2.44-1.672
	c-0.69131-0.75793-1.21716-1.65159-1.54398-2.62401c-0.37161-1.11369-0.55283-2.28206-0.53601-3.45599
	c-0.01556-1.17123,0.16562-2.33676,0.53601-3.448c0.32553-0.9754,0.85144-1.87192,1.54398-2.632
	c0.68091-0.73147,1.51376-1.30491,2.44-1.68C391.83313,65.72008,392.92883,65.51889,394.03198,65.536z M394.03198,80
	c1.38843,0.09714,2.73346-0.50633,3.58401-1.608c0.86368-1.33273,1.27853-2.90671,1.18399-4.492
	c0.09409-1.59153-0.32059-3.17172-1.18399-4.512c-0.84787-1.10583-2.19388-1.71273-3.58398-1.616
	c-0.72849-0.01656-1.45181,0.12539-2.12003,0.416c-0.59137,0.27005-1.10669,0.68231-1.5,1.2
	c-0.42651,0.57565-0.7326,1.23138-0.89999,1.928c-0.20844,0.84526-0.30923,1.71347-0.29999,2.584
	c-0.09393,1.58509,0.32394,3.15841,1.19199,4.488C391.26907,79.49644,392.62958,80.10094,394.03198,80z M412.17599,65.536
	c1.09537-0.01669,2.18311,0.18454,3.19998,0.592c0.92316,0.37656,1.75311,0.94988,2.43201,1.68
	c0.69257,0.76009,1.21851,1.65662,1.54401,2.632c0.37039,1.11124,0.55157,2.27676,0.53601,3.448
	c0.01682,1.17393-0.16437,2.34231-0.53601,3.456c-0.32681,0.97241-0.85266,1.86607-1.54401,2.624
	c-0.67786,0.72938-1.50824,1.30027-2.43201,1.672c-1.01816,0.40219-2.10538,0.6006-3.19998,0.584
	c-1.10245,0.01703-2.1976-0.18135-3.224-0.584c-0.92685-0.37025-1.76016-0.94127-2.44-1.672
	c-0.69131-0.75793-1.21719-1.65159-1.54401-2.624c-0.37161-1.11369-0.55283-2.28207-0.53598-3.456
	c-0.01556-1.17123,0.16559-2.33676,0.53598-3.448c0.32553-0.97539,0.85147-1.87192,1.54401-2.632
	c0.68088-0.73147,1.51373-1.30491,2.44-1.67999C409.97711,65.72008,411.07281,65.51889,412.17599,65.536z M412.17599,80
	c1.3884,0.09714,2.73343-0.50633,3.58401-1.608c0.86282-1.3316,1.27765-2.90405,1.18399-4.488
	c0.09409-1.59153-0.32059-3.17172-1.18399-4.512c-0.8479-1.10583-2.19391-1.71273-3.58401-1.616
	c-0.72845-0.01656-1.45181,0.12539-2.12,0.416c-0.5914,0.27005-1.10672,0.68231-1.5,1.2
	c-0.42654,0.57565-0.73264,1.23138-0.89999,1.928c-0.20844,0.84526-0.30923,1.71347-0.29999,2.584
	c-0.09393,1.58509,0.32391,3.15841,1.19199,4.488C409.41394,79.49893,410.77429,80.10188,412.17599,80z M429.056,74.08
	c0.51682,0.00961,1.03131-0.07162,1.52002-0.24001c0.4097-0.14445,0.78445-0.3734,1.10001-0.672
	c0.29916-0.28876,0.52893-0.64161,0.672-1.032c0.15329-0.42299,0.22919-0.87012,0.224-1.32
	c0.04422-0.88044-0.28217-1.73919-0.89999-2.368c-1.55258-1.17339-3.69547-1.17339-5.24802,0
	c-0.61786,0.62881-0.94421,1.48756-0.89999,2.368c-0.00525,0.45058,0.07343,0.8982,0.23199,1.32
	c0.14795,0.38985,0.38016,0.74223,0.67999,1.032c0.31552,0.2986,0.69031,0.52755,1.10001,0.672
	C428.02472,74.00838,428.53922,74.08961,429.056,74.08z M434.19202,82.88c0.01553-0.3513-0.1048-0.69508-0.336-0.96001
	c-0.24915-0.26179-0.55792-0.45941-0.89999-0.576c-0.42682-0.15104-0.86984-0.25172-1.32001-0.3
	c-0.50134-0.05867-1.03201-0.104-1.59201-0.136l-1.69998-0.10001c-0.57602-0.032-1.13071-0.08533-1.66403-0.16
	c-0.55414,0.2462-1.05231,0.6028-1.46399,1.048c-0.37146,0.40265-0.57471,0.93222-0.56799,1.48
	c-0.00134,0.3579,0.09552,0.70931,0.28,1.016c0.21234,0.33952,0.50671,0.62015,0.85599,0.816
	c0.4516,0.25518,0.94009,0.4387,1.448,0.544c1.36041,0.26944,2.76068,0.26672,4.12003-0.008
	c0.54303-0.11342,1.06433-0.31329,1.54401-0.592c0.38882-0.22508,0.72015-0.53725,0.96799-0.91199
	C434.08273,83.69296,434.19659,83.29018,434.19202,82.88z M437.09201,66.432v1.056c0,0.35201-0.224,0.576-0.672,0.672l-1.84,0.24
	c0.69269,1.40911,0.72491,3.05282,0.08798,4.488c-0.29617,0.63502-0.72437,1.19957-1.25598,1.656
	c-0.56384,0.47557-1.21643,0.8345-1.92001,1.056c-0.78589,0.25137-1.6069,0.3756-2.43201,0.368
	c-0.72354,0.00432-1.44446-0.08714-2.14398-0.272c-0.30035,0.17732-0.56601,0.40773-0.784,0.68
	c-0.16895,0.20578-0.26462,0.46188-0.27203,0.728c-0.01544,0.35545,0.16595,0.69057,0.47202,0.87199
	c0.38168,0.22092,0.80295,0.36497,1.24002,0.424c0.57986,0.09165,1.16513,0.1451,1.75198,0.16
	c0.65601,0.02134,1.328,0.05467,2.01602,0.10001c0.67596,0.04651,1.34891,0.1293,2.01599,0.248
	c0.60983,0.1021,1.20056,0.29631,1.75201,0.576c0.50018,0.2552,0.92697,0.6338,1.23999,1.1
	c0.33591,0.54725,0.50031,1.18252,0.47202,1.82401c-0.00293,0.70479-0.18167,1.39772-0.52002,2.01599
	c-0.37125,0.67848-0.88257,1.27023-1.5,1.73601c-0.72,0.54221-1.52963,0.95379-2.392,1.216
	c-1.03378,0.31718-2.11075,0.47103-3.19199,0.456c-1.04416,0.01593-2.08603-0.10237-3.10001-0.35201
	c-0.78314-0.19036-1.5293-0.50935-2.20801-0.944c-0.54077-0.34666-0.99286-0.81517-1.32001-1.368
	c-0.28687-0.49326-0.43863-1.05341-0.44-1.624c-0.0191-0.7487,0.25012-1.47612,0.75201-2.032
	c0.57214-0.60101,1.27988-1.05637,2.06396-1.328c-0.44562-0.18742-0.83844-0.48135-1.14398-0.856
	c-0.43341-0.63903-0.54434-1.44353-0.29999-2.176c0.0943-0.26801,0.22629-0.52121,0.39197-0.75201
	c0.18671-0.26244,0.40427-0.50148,0.64801-0.712c0.27344-0.23503,0.5759-0.43399,0.89999-0.592
	c-0.77017-0.41949-1.41592-1.0349-1.87198-1.784c-0.45886-0.78252-0.69153-1.67707-0.672-2.584
	c-0.01007-0.74233,0.14569-1.47755,0.45599-2.152c0.29718-0.63647,0.73157-1.19927,1.27197-1.648
	c0.57516-0.47025,1.23505-0.82599,1.94403-1.048c1.44159-0.43925,2.97421-0.48619,4.44-0.136
	c0.58459,0.14507,1.14511,0.37412,1.664,0.68L437.09201,66.432z M442.992,58.432V82h-2.84802V58.432H442.992z M458.448,72.132
	c0.00702-0.61661-0.08759-1.23015-0.28-1.816c-0.1727-0.52506-0.45032-1.00954-0.81601-1.424
	c-0.35931-0.40174-0.80331-0.7187-1.29999-0.92799c-1.69379-0.65073-3.60809-0.31888-4.98401,0.864
	c-0.8457,0.9054-1.36633,2.06629-1.47998,3.3L458.448,72.132z M460.74799,79.732c-0.36072,0.43435-0.78723,0.80956-1.26401,1.112
	c-0.49472,0.31667-1.02335,0.57696-1.57599,0.77599c-0.56384,0.20368-1.14484,0.35629-1.73599,0.45601
	c-0.5867,0.10043-1.18079,0.15128-1.776,0.15199c-1.06027,0.01186-2.11285-0.181-3.10001-0.56799
	c-0.92828-0.36819-1.7641-0.93631-2.448-1.664c-0.7189-0.78224-1.2666-1.70595-1.608-2.71201
	c-0.40289-1.19528-0.59772-2.45083-0.57602-3.712c-0.00873-1.07793,0.16714-2.14941,0.52002-3.168
	c0.32468-0.94225,0.83469-1.80996,1.5-2.55199c0.66364-0.731,1.47665-1.31077,2.384-1.7c1.00174-0.42321,2.08066-0.633,3.168-0.616
	c0.92276-0.00945,1.83893,0.15614,2.69998,0.488c0.8064,0.31207,1.5372,0.79202,2.14401,1.408
	c0.62668,0.64842,1.11041,1.42104,1.42001,2.268c0.35599,0.98714,0.52948,2.03078,0.51199,3.08
	c0.02753,0.3073-0.02197,0.61662-0.14398,0.9c-0.12979,0.16454-0.336,0.24946-0.54401,0.224h-10.836
	c0.01282,0.90636,0.15561,1.8062,0.42401,2.672c0.21631,0.69807,0.57294,1.34462,1.048,1.89999
	c0.43692,0.49883,0.98502,0.88795,1.60001,1.136c0.66251,0.25864,1.36887,0.38632,2.07999,0.376
	c0.62509,0.01252,1.24835-0.07112,1.84802-0.248c0.45923-0.14185,0.90607-0.32111,1.336-0.536
	c0.32123-0.16202,0.63367-0.34093,0.936-0.536c0.18802-0.14259,0.41281-0.22862,0.64798-0.248
	c0.21613-0.00924,0.42175,0.09357,0.54401,0.272L460.74799,79.732z"/>
<path id="Path_2645" class="st3" d="M597.09998,254.776c-0.36261,2.41068-1.09863,4.07468-2.20795,4.992
	c-0.52832,0.4147-1.13116,0.72427-1.776,0.91199c-0.76239,0.23096-1.55548,0.34424-2.35205,0.336
	c-1.15753-0.00089-2.30768-0.18448-3.40796-0.54401c-1.12-0.36264-2.50134-0.90665-4.14404-1.63199l-1.328-0.56
	c-0.47998-0.20001-1.01862-0.41867-1.61597-0.65601l-0.76801-0.224c-0.8327,0.42691-1.75238,0.65683-2.68799,0.672
	c-0.37384,0.01498-0.74609-0.05618-1.08801-0.20798c-0.25372-0.10275-0.41876-0.35028-0.41602-0.62402
	c0-0.57599,0.58667-0.86398,1.76001-0.86398c0.83051,0.00745,1.65338,0.15903,2.43201,0.448
	c0.7851-0.23633,1.55347-0.52496,2.29999-0.864c0.14935-0.06667,0.37335-0.15733,0.672-0.272
	c0.29871-0.11467,0.56537-0.21466,0.79999-0.3c-1.84998-0.14661-3.63568-0.74548-5.19995-1.74399
	c-1.48584-0.97421-2.67139-2.34256-3.42401-3.952c-0.83441-1.8259-1.24469-3.81699-1.20001-5.82401
	c-0.04211-2.16695,0.45258-4.31065,1.44-6.24001c0.91064-1.76297,2.30518-3.22968,4.02002-4.22801
	c1.78668-1.0193,3.81531-1.53752,5.87201-1.5c2.06281-0.04694,4.10419,0.42628,5.93597,1.37601
	c1.6842,0.90543,3.06018,2.29254,3.95203,3.98399c0.98212,1.92439,1.46619,4.06427,1.40796,6.22401
	c0.0365,2.09903-0.42401,4.17694-1.34399,6.064c-0.84528,1.72488-2.1524,3.18153-3.776,4.20799
	c-1.66449,1.03719-3.5755,1.6116-5.53601,1.664c-0.46637,0.05437-0.92694,0.15074-1.37598,0.28801
	c-0.40533,0.12799-0.88531,0.30933-1.44,0.54401c-0.64594,0.28503-1.30847,0.53082-1.98401,0.73599l2.59198,0.224
	c2.70935,0.23465,4.66138,0.35199,5.85602,0.35199c0.80267-0.00089,1.60437-0.05432,2.40002-0.16
	c1.08917-0.0838,2.15295-0.37146,3.13599-0.84799c0.80701-0.45499,1.47174-1.12526,1.91998-1.936L597.09998,254.776z
	 M578.76398,243.73599c-0.03387,1.98254,0.24139,3.95827,0.81604,5.856c0.414,1.45767,1.17108,2.79497,2.20801,3.90001
	c0.79865,0.86055,1.91406,1.35759,3.08795,1.37599c1.18964-0.00876,2.31836-0.52724,3.10004-1.424
	c0.99866-1.1425,1.70673-2.50922,2.06396-3.98399c0.5058-1.91006,0.74805-3.88031,0.72003-5.856
	c0.03394-1.98254-0.24139-3.95825-0.81598-5.856c-0.41406-1.45767-1.17114-2.79497-2.20801-3.89999
	c-0.79865-0.86057-1.91412-1.3576-3.08801-1.37601c-1.18958,0.00876-2.3183,0.52725-3.10004,1.424
	c-0.9986,1.14252-1.70667,2.50923-2.06396,3.98401C578.97821,239.79005,578.73596,241.76031,578.76398,243.73599z
	 M614.15601,251.51199c-0.0564,0.74454,0.1048,1.48941,0.46399,2.14401c0.3783,0.48018,0.97583,0.73367,1.58398,0.672V255
	c-0.66132-0.06667-1.32263-0.10001-1.98401-0.10001c-1.56927-0.02895-3.13678,0.12135-4.672,0.44801v-2.88
	c-0.93628,1.96078-2.98132,3.14461-5.14795,2.98c-1.29102,0.11877-2.56873-0.33784-3.492-1.248
	c-0.36932-0.46306-0.62665-1.00514-0.75201-1.584c-0.17957-0.84645-0.26013-1.71094-0.23999-2.57599V241.94
	c0.0564-0.74454-0.1048-1.48941-0.46399-2.144c-0.37836-0.48019-0.97583-0.73367-1.58405-0.67201v-0.672
	c0.66138,0.06667,1.32269,0.10001,1.98401,0.10001c1.56934,0.02896,3.13678-0.12135,4.672-0.448v13.248
	c-0.04333,0.69528,0.09448,1.38994,0.40002,2.01599c0.34442,0.48662,0.92828,0.74475,1.52002,0.67201
	c0.85657-0.00134,1.66498-0.39668,2.19196-1.07201c0.6167-0.73883,0.94116-1.67807,0.91205-2.64v-8.384
	c0.0564-0.74454-0.10486-1.48941-0.46405-2.144c-0.3783-0.48019-0.97577-0.73367-1.58398-0.67201v-0.672
	c0.68268,0.06667,1.34399,0.10001,1.98401,0.10001c1.56934,0.02895,3.13678-0.12135,4.672-0.448V251.51199z M621.836,255.224
	c-1.12128,0.08875-2.22876-0.29395-3.05597-1.056c-0.69238-0.75735-1.05499-1.75897-1.00806-2.784
	c-0.03296-0.85779,0.23285-1.70041,0.75201-2.384c0.48822-0.61887,1.11237-1.11707,1.82404-1.45599
	c0.89148-0.41222,1.80487-0.77542,2.73596-1.08801c0.8927-0.28119,1.75555-0.64964,2.57599-1.09999
	c0.50488-0.26511,0.8197-0.78976,0.81604-1.36V241.5c0.04639-0.75171-0.17462-1.49561-0.62402-2.10001
	c-0.49554-0.53476-1.20941-0.81204-1.93597-0.752c-0.84924-0.06026-1.68817,0.21556-2.336,0.76801
	c0.54718,0.17836,1.03082,0.51189,1.39197,0.95999c0.33246,0.42857,0.50885,0.95769,0.5,1.5
	c0.02911,0.65776-0.24152,1.29326-0.73596,1.72801c-0.49683,0.429-1.13586,0.65723-1.79199,0.64
	c-0.65228,0.04005-1.28754-0.2173-1.72803-0.70001c-0.74066-0.94826-0.81091-2.25792-0.17603-3.28
	c0.3559-0.47559,0.80676-0.87198,1.32404-1.16399c0.66382-0.37488,1.38165-0.64474,2.12799-0.8
	c0.909-0.19905,1.83746-0.29565,2.76801-0.28801c0.91687-0.01569,1.83179,0.09195,2.71997,0.32001
	c0.72418,0.18839,1.38629,0.56354,1.92004,1.088c0.47229,0.4747,0.79974,1.07407,0.94397,1.728
	c0.18182,0.9164,0.26233,1.85002,0.23999,2.78401v8.7c-0.02167,0.36852,0.02722,0.73781,0.14398,1.088
	c0.09894,0.21553,0.3241,0.34419,0.56,0.32001c0.43292-0.04858,0.83777-0.23836,1.15204-0.54001l0.32001,0.54401
	c-0.99481,0.80144-2.2431,1.22131-3.52002,1.18399c-0.88086,0.09308-1.76361-0.1577-2.46399-0.7
	c-0.48492-0.50752-0.74945-1.1862-0.73596-1.888C625.57397,254.30847,623.76233,255.30363,621.836,255.224z M624.29999,253.17599
	c0.90131-0.03877,1.72107-0.53304,2.17603-1.312V245.3c-0.43243,0.58496-0.98999,1.06599-1.63202,1.408
	c-0.71075,0.42906-1.34814,0.96924-1.888,1.59999c-0.46771,0.67204-0.69336,1.48297-0.63995,2.3
	c-0.05603,0.68962,0.13696,1.37648,0.54395,1.936C623.21924,252.96222,623.74896,253.19472,624.29999,253.17599z M640.716,252.024
	c-0.06641,0.63649,0.0921,1.27614,0.448,1.808c0.4408,0.38153,1.02039,0.56265,1.59998,0.5V255
	c-2.21863-0.08533-3.64795-0.12799-4.28796-0.12799c-0.72534,0-2.19733,0.04266-4.41602,0.12799v-0.672
	c0.57428,0.05811,1.14716-0.12273,1.58398-0.5c0.36719-0.52722,0.53192-1.16914,0.46399-1.808V233.784
	c0.0564-0.74452-0.1048-1.48941-0.46399-2.144c-0.3783-0.48018-0.97577-0.73367-1.58398-0.672V230.3
	c0.68268,0.06667,1.34399,0.09999,1.98401,0.09999c1.56927,0.02896,3.13678-0.12134,4.672-0.448V252.024z M652.14001,238.008
	c0.75415-0.00406,1.50616,0.08189,2.23999,0.25601c0.62091,0.13577,1.21545,0.37224,1.76001,0.7
	c0.53406,0.31931,0.98065,0.76595,1.29999,1.3c0.30798,0.51762,0.46851,1.10968,0.46399,1.71199
	c0.02557,0.68285-0.22705,1.34682-0.70001,1.84c-0.48041,0.48473-1.14197,0.74588-1.82397,0.72
	c-0.65851,0.03221-1.30292-0.19792-1.79199-0.64c-0.45929-0.45438-0.70367-1.08269-0.672-1.728
	c-0.01062-0.61087,0.20605-1.20389,0.60797-1.664c0.39362-0.46187,0.91577-0.79607,1.5-0.95999
	c-0.20233-0.25787-0.47443-0.45224-0.784-0.56c-0.36206-0.14056-0.74756-0.21114-1.13599-0.20801
	c-1.33002,0.0311-2.51062,0.85973-2.992,2.10001c-0.78174,1.72028-1.14886,3.59999-1.07196,5.48799
	c0,2.28267,0.40533,3.92534,1.216,4.92801c0.71735,0.95473,1.84583,1.51155,3.03998,1.49998
	c0.76666-0.01064,1.51917-0.20836,2.19202-0.57599c0.83484-0.48123,1.52545-1.17737,2-2.01601l0.54401,0.192
	c-0.41492,1.36792-1.18829,2.59988-2.23999,3.56799c-1.12921,1.01559-2.6106,1.54959-4.12805,1.48801
	c-2.02002,0.07301-3.9754-0.71846-5.37598-2.17599c-1.39203-1.448-2.08801-3.60266-2.08801-6.464
	c-0.0481-1.65892,0.3031-3.30511,1.02399-4.8c0.61945-1.25575,1.60004-2.29768,2.81598-2.992
	C649.29541,238.32832,650.70886,237.98083,652.14001,238.008z M667.948,238.008c2.12701-0.12148,4.21027,0.63805,5.76001,2.10001
	c1.38666,1.39999,2.08002,3.61333,2.08002,6.64c0,3.02666-0.69336,5.23466-2.08002,6.62399c-3.33252,2.77122-8.16754,2.77122-11.5,0
	c-1.40002-1.38666-2.09998-3.59467-2.09998-6.62399c0-3.02934,0.69995-5.24268,2.09998-6.64
	C663.7536,238.65244,665.828,237.89352,667.948,238.008z M667.948,238.64799c-0.91736,0-1.64801,0.66667-2.19202,2
	c-0.63867,1.96725-0.91516,4.03406-0.81598,6.10001c-0.09985,2.05942,0.17664,4.11978,0.81598,6.08
	c0.54401,1.32266,1.27466,1.98399,2.19202,1.98399c0.93866,0,1.67468-0.65599,2.20801-1.968
	c0.62994-1.96898,0.90094-4.03516,0.79999-6.09999c0.10107-2.06996-0.17542-4.14105-0.81598-6.112
	C669.59601,239.30933,668.86536,238.64799,667.948,238.64799z M703.5,252.024c-0.06787,0.63885,0.09686,1.28078,0.46399,1.808
	c0.43689,0.37727,1.00977,0.55811,1.58405,0.5V255c-2.13336-0.08533-3.54138-0.12799-4.224-0.12799
	c-0.60004,0-1.92267,0.04266-3.96802,0.12799v-0.672c0.4552,0.0515,0.90588-0.12878,1.20001-0.48001
	c0.27692-0.56575,0.39313-1.1967,0.336-1.82399v-9.952c0.04498-0.69026-0.09302-1.38016-0.40002-2
	c-0.35034-0.47798-0.93188-0.72897-1.52002-0.65601c-0.80164,0.00557-1.55884,0.36946-2.06396,0.992
	c-0.59497,0.68037-0.95911,1.53178-1.03998,2.43199v9.18401c-0.06146,0.62981,0.07861,1.26286,0.39996,1.808
	c0.38501,0.37788,0.9201,0.56165,1.45599,0.5V255c-2.04797-0.08533-3.39203-0.12799-4.03198-0.12799
	c-0.60004,0-1.92267,0.04266-3.96802,0.12799v-0.672c0.45935,0.05054,0.91248-0.13826,1.20001-0.5
	c0.27356-0.56116,0.38971-1.18604,0.336-1.808v-9.948c0.04083-0.68503-0.07977-1.37007-0.35199-2
	c-0.29181-0.46797-0.82874-0.72395-1.37604-0.65601c-0.85663,0.00134-1.66498,0.39668-2.19202,1.07201
	c-0.61664,0.73882-0.9411,1.67807-0.91199,2.64v8.89999c-0.05371,0.62196,0.06244,1.24684,0.336,1.808
	c0.28754,0.36174,0.74066,0.55054,1.20001,0.5V255c-1.87732-0.08533-3.13599-0.12799-3.776-0.12799s-2.112,0.04266-4.41595,0.12799
	v-0.672c0.57959,0.06265,1.15918-0.11847,1.59998-0.5c0.3559-0.53186,0.5144-1.17151,0.448-1.808v-10.076
	c0.05505-0.74257-0.10022-1.48561-0.448-2.144c-0.38074-0.48627-0.98621-0.74057-1.59998-0.67201v-0.672
	c0.68262,0.06667,1.34399,0.10001,1.98395,0.10001c1.56952,0.03355,3.13751-0.11681,4.672-0.448v2.88
	c0.86084-1.93829,2.84467-3.12863,4.96002-2.97601c1.29968-0.12128,2.58698,0.33511,3.52002,1.248
	c0.4563,0.54338,0.73547,1.21336,0.79999,1.92c0.44324-1.02873,1.2063-1.88719,2.17603-2.448
	c0.96906-0.49728,2.047-0.74477,3.13599-0.72c1.29968-0.12128,2.58698,0.33511,3.52002,1.248
	c0.37408,0.45195,0.62732,0.99147,0.73596,1.56801c0.16711,0.8535,0.24225,1.72247,0.224,2.592V252.024z M732.46002,252.024
	c-0.06793,0.63885,0.0968,1.28078,0.46399,1.808c0.43683,0.37727,1.0097,0.55811,1.58398,0.5V255
	c-2.1333-0.08533-3.54132-0.12799-4.224-0.12799c-0.59998,0-1.92267,0.04266-3.96802,0.12799v-0.672
	c0.4552,0.0515,0.90588-0.12878,1.20001-0.48001c0.27692-0.56575,0.39319-1.1967,0.336-1.82399v-9.952
	c0.04498-0.69026-0.09296-1.38016-0.39996-2c-0.35034-0.47798-0.93188-0.72897-1.52002-0.65601
	c-0.8017,0.00557-1.55884,0.36946-2.06403,0.992c-0.59497,0.68037-0.95905,1.53178-1.03998,2.43199v9.18401
	c-0.0614,0.62981,0.07867,1.26286,0.40002,1.808c0.38495,0.37788,0.92004,0.56165,1.45599,0.5V255
	c-2.04803-0.08533-3.39203-0.12799-4.03204-0.12799c-0.59998,0-1.92267,0.04266-3.96796,0.12799v-0.672
	c0.45929,0.05054,0.91241-0.13826,1.19995-0.5c0.27356-0.56116,0.38971-1.18604,0.336-1.808v-9.948
	c0.04083-0.68503-0.07971-1.37007-0.35199-2c-0.29181-0.46797-0.82874-0.72395-1.37598-0.65601
	c-0.85663,0.00134-1.66504,0.39668-2.19202,1.07201c-0.6167,0.73882-0.94116,1.67807-0.91199,2.64v8.89999
	c-0.05371,0.62196,0.06244,1.24684,0.336,1.808c0.28754,0.36174,0.74066,0.55054,1.19995,0.5V255
	c-1.87732-0.08533-3.13599-0.12799-3.776-0.12799s-2.112,0.04266-4.41595,0.12799v-0.672
	c0.57965,0.06265,1.15918-0.11847,1.60004-0.5c0.35583-0.53186,0.51434-1.17151,0.448-1.808v-10.076
	c0.05505-0.74257-0.10022-1.48561-0.448-2.144c-0.3808-0.48627-0.98627-0.74057-1.60004-0.67201v-0.672
	c0.68268,0.06667,1.34399,0.10001,1.98401,0.10001c1.56946,0.03355,3.13751-0.11681,4.672-0.448v2.88
	c0.86078-1.93829,2.84467-3.12863,4.96002-2.97601c1.29968-0.12128,2.58698,0.33511,3.51996,1.248
	c0.45636,0.54338,0.73553,1.21336,0.80005,1.92c0.44324-1.02873,1.2063-1.88719,2.17596-2.448
	c0.96912-0.49728,2.04706-0.74477,3.13599-0.72c1.29974-0.12128,2.58698,0.33511,3.52002,1.248
	c0.37408,0.45195,0.62732,0.99147,0.73602,1.56801c0.16711,0.8535,0.24219,1.72247,0.224,2.592V252.024z"/>
<path id="Path_2646" class="st4" d="M81.086,150.672c0.42218-0.0403,0.84676,0.04678,1.219,0.25
	c0.25629,0.26576,0.3771,0.63408,0.328,1c-0.01826,0.69766-0.2234,1.37764-0.594,1.96901
	c-2.60969-0.90366-5.36551-1.31068-8.125-1.20001h-1.359c-0.07267,1.17734-0.109,3.67201-0.109,7.48401h7.719
	c0.13545,0.41338,0.203,0.84599,0.2,1.28099c0.02541,0.20815-0.03046,0.41806-0.156,0.586
	c-0.17904,0.11998-0.39487,0.17242-0.609,0.14801h-7.155c0.01067,4.27066,0.047,7.004,0.109,8.2h2.516
	c0.12002,0.2872,0.18385,0.59476,0.188,0.90601c0.0708,0.3158-0.12781,0.6292-0.4436,0.7
	c-0.08442,0.01892-0.17198,0.01892-0.25639,0h-7.347c-0.12601-0.3131-0.19379-0.64656-0.2-0.98401
	c-0.01619-0.17514,0.04353-0.34882,0.164-0.47699c0.15578-0.11304,0.34734-0.16563,0.539-0.14801H68.87
	c0.07268-1.448,0.10901-5.16165,0.10901-11.14099c0-3.2-0.03633-5.52299-0.10901-6.96899h-1.659
	c-0.12601-0.3131-0.19379-0.64656-0.2-0.98401c-0.01619-0.17516,0.04353-0.34883,0.164-0.47699
	c0.15578-0.11304,0.34734-0.16563,0.539-0.14801L81.086,150.672z M90.57,170.21899c1.04437,0.07568,2.04205-0.44444,2.578-1.34399
	c0.61641-1.2892,0.89185-2.71497,0.8-4.14099c0.09628-1.63544-0.18427-3.27113-0.82-4.78101
	c-0.54138-1.0394-1.65172-1.6544-2.82-1.562c-1.04437-0.07568-2.04205,0.44444-2.578,1.34399
	c-0.61701,1.29434-0.89243,2.7251-0.8,4.15601c-0.09575,1.63052,0.18481,3.26123,0.82,4.76599
	C88.29138,169.69638,89.40172,170.3114,90.57,170.21899z M89.976,172.313c-2.26067,0-3.922-0.60001-4.984-1.8
	c-1.17454-1.55136-1.74081-3.47888-1.592-5.41901c-0.1433-2.3215,0.54048-4.61873,1.93-6.48399
	c1.39912-1.5905,3.45589-2.4435,5.57-2.31c2.26067,0,3.922,0.59999,4.984,1.8c1.062,1.2,1.59333,3.01266,1.594,5.43799
	c0.14009,2.31451-0.54402,4.60384-1.93101,6.46201c-1.39854,1.59161-3.4554,2.44574-5.57,2.313H89.976z M100.276,157.313
	c-0.0294-0.2341,0.10658-0.45755,0.328-0.539c1.37459-0.15961,2.75718-0.2404,4.141-0.242c0.06351,0.6391,0.06351,1.28291,0,1.922
	c1.01884-0.71506,2.1449-1.26357,3.336-1.625c0.94603-0.28362,1.92651-0.43604,2.914-0.45299
	c0.20073-0.01889,0.40289,0.01561,0.586,0.09999c0.09866,0.06667,0.148,0.215,0.148,0.44501
	c-0.00552,0.48662-0.07648,0.97029-0.211,1.438c-0.06087,0.36917-0.239,0.70892-0.508,0.96899
	c-0.30295,0.17097-0.63795,0.27753-0.984,0.313c-0.26105,0.06773-0.53282,0.08369-0.8,0.047
	c-0.26685-0.26025-0.5052-0.54822-0.711-0.85899c-0.84064-0.03419-1.657,0.28618-2.25,0.883
	c-0.57267,0.58867-0.859,1.77367-0.859,3.55499c0.01067,3.2,0.05234,5.575,0.125,7.125h2.2
	c0.12594,0.2744,0.19012,0.57309,0.188,0.875c0.02411,0.20808-0.03805,0.41696-0.172,0.578
	c-0.19401,0.12637-0.42587,0.18152-0.656,0.15601H100.477c-0.12645-0.29652-0.19437-0.6147-0.2-0.93701
	c-0.01553-0.18585,0.04675-0.36981,0.172-0.508c0.16015-0.12396,0.36134-0.18256,0.563-0.164h1.078
	c0.08334-1.552,0.125-3.58333,0.125-6.09399c0-3.07266-0.11967-4.854-0.359-5.34399c-0.26369-0.50424-0.80931-0.7955-1.375-0.73401
	c-0.13537-0.28329-0.2064-0.59303-0.208-0.907H100.276z M115.307,156.688l1.266-4.437
	c0.39078,0.11488,0.76593,0.27744,1.117,0.48399c0.2795,0.15984,0.51356,0.38838,0.68,0.664
	c0.21355,0.86537,0.28748,1.75929,0.219,2.64799v0.64101h5.141c0.1264,0.3508,0.19004,0.72112,0.188,1.09399
	c0.02757,0.21513-0.03463,0.43214-0.172,0.60001c-0.20701,0.12222-0.44802,0.17415-0.687,0.14799h-4.469v7.39099
	c-0.09649,1.1805,0.06878,2.36774,0.484,3.47701c0.29051,0.53781,0.84978,0.87582,1.461,0.883
	c0.84016-0.01576,1.66386-0.23575,2.4-0.64099c0.22559,0.33168,0.34552,0.72386,0.344,1.125
	c0.00804,0.54362-0.37885,1.01305-0.914,1.10899c-0.94378,0.22415-1.9137,0.31868-2.883,0.28101
	c-1.1107,0.09567-2.21835-0.21527-3.117-0.875c-0.65133-0.58334-0.977-1.672-0.977-3.26601v-3.67c0-2-0.05733-3.93733-0.172-5.812
	H113.68c-0.12096-0.35219-0.18411-0.72163-0.187-1.09399c-0.01814-0.20506,0.04346-0.40921,0.172-0.57001
	c0.16035-0.13577,0.36891-0.20073,0.578-0.17999H115.307z M129.073,153.86c-0.53436,0.04311-1.0665-0.1066-1.5-0.422
	c-0.33627-0.31299-0.51398-0.76059-0.484-1.21901c-0.00964-0.52911,0.22001-1.03433,0.625-1.375
	c0.49297-0.37178,1.10278-0.55481,1.719-0.51599c0.55841-0.05334,1.11644,0.10553,1.563,0.44499
	c0.32071,0.31456,0.49142,0.75134,0.46899,1.2c0.01855,0.51865-0.19299,1.019-0.578,1.367
	c-0.521,0.39101-1.16806,0.57584-1.81699,0.519L129.073,153.86z M132.948,170.39099c0.13454,0.2719,0.20306,0.57167,0.2,0.875
	c0.02411,0.20808-0.03804,0.41696-0.172,0.578c-0.20073,0.12807-0.43944,0.18315-0.67599,0.15601h-6.141
	c-0.118-0.2986-0.18134-0.61598-0.187-0.937c-0.01547-0.18446,0.04359-0.36742,0.164-0.50801
	c0.16168-0.12624,0.36595-0.18501,0.57-0.16399h1.156c0.07266-1.44801,0.109-3.14601,0.109-5.09401
	c0-2.37466-0.01833-3.96066-0.055-4.758c0.00465-0.55974-0.08251-1.11646-0.258-1.64799
	c-0.09566-0.26363-0.30505-0.47008-0.57-0.56201c-0.29796-0.0795-0.60571-0.1162-0.914-0.10899
	c-0.13768-0.23132-0.20702-0.4969-0.2-0.76601c-0.03619-0.38063,0.23103-0.72331,0.609-0.78099
	c0.78023-0.12036,1.56999-0.16757,2.35901-0.14101c0.55992-0.02185,1.12056,0.01738,1.672,0.117
	c0.29132,0.078,0.45798,0.224,0.5,0.438c0.05161,0.36426,0.07269,0.73221,0.06299,1.09999V165.3
	c0,1.948,0.03635,3.646,0.10901,5.09399L132.948,170.39099z M140.12,158.375c0.94327-0.64426,1.97142-1.15446,3.05499-1.51601
	c0.86971-0.29939,1.78044-0.46266,2.7-0.48399c1.12787-0.08374,2.24606,0.25925,3.133,0.961
	c0.70332,0.64067,1.05499,1.862,1.05499,3.664c0,5.604,0.08066,8.57266,0.242,8.90601
	c0.16133,0.33333,0.53366,0.49466,1.117,0.48399c0.11214,0.28897,0.17043,0.59604,0.172,0.90601
	c0.02914,0.22354-0.0748,0.44356-0.26601,0.56299c-0.31416,0.11673-0.64969,0.16481-0.98399,0.14101
	c-1.448,0-2.33334-0.01834-2.65601-0.05499c-0.25763-0.00201-0.49983-0.12311-0.65601-0.328
	c-0.13641-0.28435-0.19572-0.59953-0.172-0.914v-6.73401c0-2.146-0.22667-3.573-0.67999-4.28099
	c-0.4863-0.72699-1.32828-1.13344-2.2-1.062c-0.80919-0.01831-1.6003,0.24069-2.242,0.73399
	c-0.70996,0.68434-1.06076,1.66026-0.94897,2.64v3.3c0,1.84399,0.03635,3.54199,0.10901,5.09399h1.73399
	c0.12595,0.2744,0.19012,0.57309,0.188,0.875c0.02411,0.20808-0.03804,0.41696-0.172,0.578
	c-0.19402,0.12637-0.42587,0.18152-0.65601,0.15599h-6.14099c-0.12645-0.29651-0.19437-0.61469-0.2-0.937
	c-0.01553-0.18585,0.04675-0.36981,0.172-0.508c0.16014-0.12396,0.36134-0.18257,0.563-0.164h1.078
	c0.08334-1.65599,0.125-3.68733,0.125-6.09399c0-3.07268-0.11966-4.854-0.35901-5.34401
	c-0.26369-0.50423-0.8093-0.79549-1.375-0.73399c-0.13245-0.28363-0.20074-0.59297-0.19998-0.90601
	c-0.0294-0.2341,0.10657-0.45753,0.328-0.53899c1.37457-0.15961,2.75717-0.24042,4.14099-0.242
	c0.06067,0.61195,0.05832,1.22852-0.00702,1.84H140.12z M161.21399,158.39101c-0.92966-0.05347-1.8233,0.36682-2.375,1.11699
	c-0.62889,1.05328-0.93938,2.26611-0.89398,3.492h1.60899c1.70801,0,2.87201-0.03333,3.492-0.10001
	c0.62001-0.06667,0.97934-0.17867,1.078-0.336c0.12221-0.27455,0.17311-0.57552,0.14799-0.875
	c0.052-0.87663-0.2267-1.74088-0.78101-2.422c-0.59398-0.61342-1.4281-0.9339-2.28-0.87599H161.21399z M161.8,156.3
	c1.56262-0.12729,3.11238,0.36679,4.313,1.375c0.93733,0.91666,1.40601,2.427,1.40601,4.53099
	c0.06975,0.68497-0.10757,1.3723-0.5,1.938c-0.63283,0.45401-1.41495,0.64964-2.187,0.54701h-6.90202
	c-0.05833,1.40477,0.29739,2.79572,1.02299,4c0.8438,1.05252,2.1671,1.60063,3.508,1.45299
	c1.53806,0.00667,3.04752-0.41545,4.35899-1.21899c0.4088,0.36234,0.6516,0.87611,0.672,1.422
	c0,0.698-0.57567,1.18767-1.72701,1.46901c-1.27853,0.29555-2.58783,0.43723-3.89999,0.422
	c-2.66667,0-4.58067-0.56667-5.742-1.70001c-1.16135-1.13333-1.742-3.03699-1.742-5.711
	c-0.12581-2.24973,0.57121-4.4684,1.961-6.24199C157.71719,157.03021,159.72726,156.18871,161.8,156.3z M172.12801,156.69099
	l1.27199-4.44099c0.39078,0.1149,0.76593,0.27745,1.117,0.48399c0.2795,0.15984,0.51355,0.3884,0.67999,0.664
	c0.21355,0.86537,0.28748,1.75931,0.21899,2.64801v0.64099h5.14101c0.1264,0.3508,0.19005,0.72113,0.188,1.09401
	c0.02757,0.21513-0.03464,0.43213-0.172,0.59999c-0.207,0.12224-0.44803,0.17415-0.687,0.14799h-4.46899V165.92
	c-0.09726,1.18141,0.06767,2.36974,0.48299,3.48c0.29051,0.53781,0.84978,0.87582,1.461,0.88301
	c0.84016-0.01576,1.66386-0.23576,2.39999-0.64101c0.22559,0.33168,0.34552,0.72388,0.34399,1.125
	c0.00804,0.54362-0.37886,1.01306-0.914,1.10899c-0.94379,0.22415-1.9137,0.31868-2.883,0.28101
	c-1.1107,0.09567-2.21835-0.21526-3.117-0.875c-0.65134-0.58333-0.97701-1.672-0.97701-3.26601v-3.672
	c0-2-0.05734-3.93733-0.172-5.812h-1.53101c-0.12097-0.35219-0.18411-0.72163-0.187-1.09399
	c-0.01814-0.20506,0.04347-0.40921,0.172-0.57001c0.16035-0.13577,0.36891-0.20073,0.578-0.17999L172.12801,156.69099z"/>
<path id="Path_2647" class="st3" d="M643.32001,63.641c0-3.859-3.03101-6.2-8.90601-6.2h-8.61401v0.922
	c2.25,0.234,2.53101,0.531,2.53101,1.938v16.84c0,1.375-0.28101,1.672-2.53101,1.938V80h8.31305v-0.922
	c-2.10901-0.26601-2.40601-0.53101-2.40601-1.859v-7.188h3.79999L641.02301,80h4.35901v-0.859
	c-0.953-0.25-1.70001-0.828-3.65601-4.344l-3.026-5.531C641.383,68.469,643.336,66.484,643.32001,63.641z M639.836,63.875
	c0,3.25-2.078,4.875-5.875,5l-2.25,0.078V58.516l1.828,0.047C637.914,58.719,639.836,60.7,639.836,63.875z M654.586,80.313
	c4.29694,0.11415,7.8728-3.27664,7.98694-7.57356c0.00446-0.16814,0.00348-0.33636-0.00293-0.50444
	c0.20038-4.20529-3.04626-7.7768-7.25153-7.97718c-0.17639-0.00841-0.35297-0.01068-0.52948-0.00682
	c-4.29199-0.1114-7.86169,3.27767-7.97308,7.56969c-0.00452,0.17477-0.00317,0.34964,0.00409,0.52431
	c-0.19586,4.20108,3.05096,7.76553,7.25208,7.9614C654.24329,80.31438,654.41467,80.31658,654.586,80.313z M654.78601,79.047
	c-2.70001,0-4.625-2.75-4.625-6.96899c0-4.01601,1.64099-6.547,4.422-6.547c2.70001,0,4.625,2.734,4.625,6.953
	c0.00299,4.032-1.638,6.563-4.41901,6.563H654.78601z M677.20001,80h4.21899v-0.859c-1.09399-0.234-1.875-0.828-3.078-2.8
	l-3.875-6.25l1.65601-1.562c2.60901-2.437,3.31299-2.8,4.85901-3.031v-0.937h-6.34399V65.5
	c1.96899,0.234,2.21899,0.641,0.79999,2.141l-3.10901,3.313l-2.125,0.016V56.813l-5.21899,0.625v0.812l1.125,0.281
	c0.89099,0.25,1.01599,0.453,1.01599,1.281v17.813c0,0.984-0.26599,1.234-2.14099,1.453V80h7.216v-0.922
	c-1.78101-0.219-2-0.437-2-1.375v-5.625h2.14099L677.20001,80z M687.10004,64.406l-5.21906,0.609v0.813l1.125,0.281
	c0.875,0.25,1.01605,0.438,1.01605,1.281v7.922c0,3.26601,2.14099,5,5.23395,5c2.02142,0.08756,3.93286-0.92206,5-2.641v2.484
	l5.172-0.625v-0.8l-1.10895-0.3c-0.88904-0.23-1.01904-0.43-1.01904-1.274v-12.75l-5.21899,0.609v0.813l1.125,0.281
	c0.875,0.25,1,0.438,1,1.281v9.375c-0.75079,1.16937-2.06439,1.85411-3.453,1.8c-2.328,0-3.65601-1.359-3.65601-4.01601
	L687.10004,64.406z"/>
</svg>
