<?xml version="1.0" encoding="UTF-8"?>
<svg width="35px" height="35px" viewBox="0 0 35 35" version="1.1" xmlns="http://www.w3.org/2000/svg" xmlns:xlink="http://www.w3.org/1999/xlink">
    <!-- Generator: Sketch 59 (86127) - https://sketch.com -->
    <title>Deadpool/Icons/Dark/Misc/Icons-Misc-ChangSize</title>
    <desc>Created with Sketch.</desc>
    <g id="Deadpool/Icons/Dark/Misc/Icons-Misc-ChangSize" stroke="none" stroke-width="1" fill="none" fill-rule="evenodd">
        <path d="M15.9996166,12 C16.2752416,12 16.5478041,12.1133125 16.7416029,12.3285488 L16.8196166,12.427 L20.3196166,17.427 L20.3296166,17.449 C20.3726166,17.514 20.3946166,17.587 20.4216166,17.659 C20.4396166,17.71 20.4686166,17.757 20.4786166,17.81 C20.4916166,17.873 20.4816166,17.936 20.4816166,18 C20.4816166,18.064 20.4916166,18.128 20.4786166,18.191 C20.4686166,18.243 20.4396166,18.291 20.4216166,18.341 C20.4036166,18.3896667 20.3878388,18.4378889 20.3665796,18.4838889 L20.3296166,18.551 L20.3196166,18.573 L16.8196166,23.573 C16.5036166,24.027 15.8806166,24.136 15.4266166,23.819 C15.0084628,23.5273077 14.8834213,22.9731775 15.115201,22.5341425 L15.1806166,22.427 L17.579,19 L12,19 C11.4871642,19 11.0644928,18.6139598 11.0067277,18.1166211 L11,18 C11,17.4871642 11.3860402,17.0644928 11.8833789,17.0067277 L12,17 L17.579,17 L15.1806166,13.573 C14.8889243,13.1557692 14.9593622,12.5919822 15.3282215,12.2591721 L15.4266166,12.181 C15.6006166,12.059 15.8006166,12 15.9996166,12 Z M23,12 C23.5522847,12 24,12.4310658 24,12.9628125 L24,12.9628125 L24,23.0371875 C24,23.5689342 23.5522847,24 23,24 C22.4477153,24 22,23.5689342 22,23.0371875 L22,23.0371875 L22,12.9628125 C22,12.4310658 22.4477153,12 23,12 Z" id="Combined-Shape" fill="#666666" transform="translate(17.500000, 18.000164) scale(-1, 1) translate(-17.500000, -18.000164) "></path>
    </g>
</svg>