<?xml version="1.0" encoding="UTF-8"?>
<svg xmlns="http://www.w3.org/2000/svg" version="1.1" xmlns:xlink="http://www.w3.org/1999/xlink" viewBox="0 0 37 30.5">
  <defs>
    <style>
      .cls-1 {
        fill: #aebed3;
      }

      .cls-2 {
        fill: none;
      }

      .cls-3 {
        clip-path: url(#clippath);
      }
    </style>
    <clipPath id="clippath">
      <rect class="cls-2" x=".5" width="36.1" height="30.5"/>
    </clipPath>
  </defs>
  <!-- Generator: Adobe Illustrator 28.7.1, SVG Export Plug-In . SVG Version: 1.2.0 Build 142)  -->
  <g>
    <g id="Layer_1">
      <g class="cls-3">
        <g>
          <path class="cls-1" d="M28.5,16.1c0-1-.7-1.8-1.7-1.9-.4,0-.7,0-1.1.3,0,0,0,0,0,0-1.4,1-3.2,1.3-4.9.9,0-.5,0-1.1-.4-1.5-.4-.6-1.1-1-1.8-1.1-.6-2-2-3.7-3.9-4.6h0c-.3-.2-.4-.5-.3-.8,0-.1.2-.2.3-.3,1.2-.6,2.5-.8,3.8-.8h0c.8,0,1.6.3,2.1.9.6.6.9,1.3.8,2.1h0c0,.9-.3,1.8-.7,2.5-.2.3,0,.6.2.8.2,0,.4,0,.6,0h0c0,0,.2-.1.2-.2.5-.9.8-2,.8-3h0c0-1.1-.4-2.2-1.2-3-.8-.8-1.8-1.3-2.9-1.3h0c-1.5,0-3,.3-4.3.9h0c-.9.4-1.3,1.5-.8,2.4.2.4.5.7.8.8h0c1.6.7,2.8,2.1,3.2,3.8-.1,0-.2.1-.3.2-1,.6-1.4,1.9-.9,3-1.5,1.5-2.2,3.6-2,5.7h0c0,.3-.2.6-.6.6-.1,0-.3,0-.4,0h0c-1.1-.8-2-1.8-2.6-2.9h0c-.4-.7-.5-1.5-.2-2.3.2-.8.7-1.4,1.4-1.8h0c.8-.4,1.6-.6,2.5-.7.3,0,.6-.3.6-.6,0-.3-.3-.6-.6-.6,0,0,0,0,0,0-1.1,0-2.1.3-3,.8h0c-1,.5-1.7,1.4-2,2.5-.3,1.1-.2,2.2.4,3.2h0c.7,1.3,1.8,2.4,3,3.3h0c.6.4,1.3.4,1.9,0,0,0,0,0,0,0h0c.6-.4.9-1,.8-1.6h0c-.2-1.7.4-3.4,1.6-4.7.8.6,1.9.5,2.6,0,.2-.2.5-.4.6-.6,2,.5,4.1.2,5.8-.9h0c0,0,.2-.1.2-.2h0c.2-.1.4-.1.6,0,.2.1.3.3.3.6h0c-.1,1.3-.5,2.6-1.2,3.7h0c-.4.7-1.1,1.2-1.9,1.4-.8.2-1.6,0-2.3-.4h0c-.7-.5-1.4-1.1-1.8-1.9-.2-.3-.5-.4-.8-.2,0,0,0,0,0,0-.3.2-.4.5-.2.8,0,0,0,0,0,0,.6.9,1.3,1.7,2.2,2.2h0c.9.6,2.1.8,3.2.5.5-.1.9-.3,1.3-.6.5-.3,1-.8,1.3-1.3h0c.8-1.3,1.2-2.7,1.4-4.2h0M19.1,16.2c-.5.4-1.1.3-1.5-.2,0,0,0,0,0,0h0s0,0,0,0c-.4-.5-.3-1.3.3-1.7.5-.4,1.3-.3,1.7.3s.3,1.3-.3,1.7c0,0,0,0,0,0"/>
          <path class="cls-1" d="M33,15.7h0s0,0,0,0h0s0,0-.1,0c0,0,0,0,0,0h0s0,0,0,0c0,0,0,0,0,0l-3.4-2.9h0c-.2-.3-.2-.7,0-.9.2-.2.6-.2.8,0l2.3,1.9v-.3C31.3,5.7,24.2.3,16.5,1.4c-3.1.4-5.9,1.8-8.1,4.1h0c-1.7,1.7-2.9,3.9-3.5,6.2,0,.3-.4.5-.7.5-.3,0-.5-.4-.5-.7,0,0,0,0,0,0C5.9,3.1,14.3-1.7,22.4.5c2.5.7,4.8,2,6.7,3.8,2.4,2.4,4,5.5,4.4,8.9v.3s1.9-2.2,1.9-2.2c.2-.3.6-.3.9,0,.3.2.3.6,0,.9l-2.9,3.4s0,0,0,0c0,0,0,0,0,0h0s0,0,0,0c0,0,0,0,0,0,0,0,0,0,0,0h0s0,0,0,0c0,0,0,0,0,0,0,0,0,0,0,0"/>
          <path class="cls-1" d="M18.4,30.5c-7.6,0-14.1-5.6-15.1-13.1v-.3s-1.8,2.2-1.8,2.2c-.2.3-.6.3-.9.1,0,0,0,0,0,0,0,0,0,0,0,0-.2-.2-.2-.6,0-.8l2.7-3.5s0,0,0,0c0,0,0,0,0,0h0s0,0,0,0c0,0,0,0,0,0h0s0,0,0,0h0s0,0,0,0h0s0,0,0,0h0s0,0,0,0c0,0,0,0,.1,0,0,0,0,0,.1,0h0s0,0,0,0c0,0,0,0,0,0l3.5,2.7c.1,0,.2.2.2.4,0,.2,0,.3-.1.5-.2.3-.6.3-.9.1,0,0,0,0,0,0l-2.5-1.9v.3c.9,7,6.9,12.3,13.9,12.3,6.3,0,11.9-4.2,13.5-10.4,0-.3.4-.5.8-.4,0,0,0,0,0,0,.3,0,.5.4.4.8,0,0,0,0,0,0h0c-1.8,6.7-7.8,11.3-14.7,11.3h0Z"/>
        </g>
      </g>
    </g>
  </g>
</svg>