<?xml version="1.0" encoding="UTF-8"?>
<svg id="Layer_1" xmlns="http://www.w3.org/2000/svg" version="1.1" viewBox="0 0 126.228 132.95399">
  <!-- Generator: Adobe Illustrator 29.0.1, SVG Export Plug-In . SVG Version: 2.1.0 Build 192)  -->
  <defs>
    <style>
      .st0 {
        isolation: isolate;
      }

      .st1 {
        fill: #778495;
      }

      .st2 {
        fill: #233757;
      }
    </style>
  </defs>
  <path class="st2" d="M59.751,6.72698c11.90559-.02044,23.5433,3.53285,33.40701,10.2,9.60642,6.48473,17.12611,15.61618,21.648,26.288,7.8765,18.60439,5.80449,39.93077-5.506,56.67101-6.48488,9.60605-15.61632,17.12538-26.288,21.647-18.60326,7.87306-39.92663,5.79999-56.665-5.509-9.60605-6.48487-17.12539-15.61631-21.647-26.28799-7.87607-18.6017-5.80638-39.92518,5.5-56.665,6.48611-9.60713,15.61938-17.12689,26.293-21.648,7.35778-3.11412,15.26835-4.71133,23.258-4.696ZM59.751,125.66498c32.68863-.00055,59.18755-26.50037,59.187-59.189-.00055-32.68863-26.50037-59.18755-59.189-59.187-32.68863.00055-59.18755,26.50037-59.187,59.18899.03692,32.67371,26.51529,59.15163,59.189,59.188v-.001Z"/>
  <path class="st1" d="M59.75199,132.95497c-13.24839.02309-26.1985-3.93236-37.173-11.354l7.846-11.613c24.0288,16.1917,56.63397,9.83847,72.82566-14.19033,16.1917-24.02881,9.83847-56.63397-14.19033-72.82567-8.66035-5.83574-18.86527-8.95414-29.30833-8.956V.00098c36.71423.00831,66.47026,29.77781,66.46196,66.49203-.00831,36.70248-29.75948,66.45366-66.46196,66.46196Z"/>
  <g class="st0">
    <g class="st0">
      <path class="st1" d="M46.48682,70.19629c0,1.08789-.20801,2.10645-.62402,3.05566s-.9917,1.78125-1.72803,2.49609c-.73584.71484-1.59473,1.27441-2.57568,1.67969-.98145.40527-2.04834.6084-3.2002.6084-1.21582,0-2.33105-.22461-3.34375-.67188-1.01367-.44824-1.8833-1.09375-2.6084-1.93652s-1.28516-1.86621-1.67969-3.07227c-.39502-1.20508-.59229-2.5752-.59229-4.11133,0-2.24023.20264-4.19727.6084-5.87207.40479-1.6748.98096-3.07227,1.72754-4.19238s1.64258-1.95703,2.68799-2.51172,2.20801-.83203,3.48828-.83203c1.47217,0,2.81055.35156,4.01611,1.05566,1.20508.7041,2.14893,1.69629,2.83203,2.97656l-1.72803,1.69531c-.46973-1.00195-1.16309-1.79688-2.08008-2.38379-.91748-.58594-1.94141-.87988-3.07227-.87988-.875,0-1.66357.19727-2.36768.5918-.7041.39551-1.31201.97656-1.82422,1.74414-.51172.76855-.90674,1.70117-1.18408,2.7998-.27734,1.09961-.42676,2.35254-.44775,3.76074.46875-1.10938,1.22656-1.99512,2.27197-2.65625,1.04492-.66113,2.23975-.99219,3.58398-.99219,1.08789,0,2.11182.19727,3.07178.5918.95996.39551,1.79199.93945,2.49609,1.63184.7041.69336,1.25879,1.50391,1.66406,2.43262.40479.92773.60791,1.9248.60791,2.99219ZM38.39111,75.60352c.72461,0,1.41846-.14355,2.07959-.43164s1.2373-.67676,1.72803-1.16797c.49072-.49023.88037-1.06152,1.16797-1.71191.28809-.65039.43213-1.34961.43213-2.0957,0-.72559-.14404-1.41895-.43213-2.08008-.2876-.66113-.67725-1.23242-1.16797-1.71191-.49072-.48047-1.06689-.86426-1.72803-1.15234s-1.35498-.43262-2.07959-.43262c-.74707,0-1.4458.14453-2.09619.43262-.65088.28809-1.22168.67188-1.71191,1.15234-.49121.47949-.87988,1.05078-1.16797,1.71191s-.43213,1.35449-.43213,2.08008c0,.74609.14404,1.44531.43213,2.0957s.67676,1.22168,1.16797,1.71191c.49023.49121,1.06104.87988,1.71191,1.16797.65039.28809,1.34912.43164,2.09619.43164Z"/>
      <path class="st1" d="M65.81445,68.33984c0,1.4082-.20312,2.7041-.60742,3.8877-.40527,1.18457-.97168,2.20801-1.69629,3.07227-.72559.86426-1.58398,1.53613-2.57617,2.01562-.99219.48047-2.06396.7207-3.21582.7207-1.17383,0-2.25635-.24023-3.24805-.7207-.99219-.47949-1.8457-1.15137-2.56006-2.01562-.71533-.86426-1.2749-1.8877-1.68018-3.07227-.40527-1.18359-.60791-2.47949-.60791-3.8877s.20264-2.7041.60791-3.8877c.40527-1.18457.96484-2.20801,1.68018-3.07227.71436-.86426,1.56787-1.54102,2.56006-2.03223.9917-.49023,2.07422-.73535,3.24805-.73535,1.15186,0,2.22363.24512,3.21582.73535.99219.49121,1.85059,1.16797,2.57617,2.03223.72461.86426,1.29102,1.8877,1.69629,3.07227.4043,1.18359.60742,2.47949.60742,3.8877ZM62.96631,68.33984c0-1.04492-.12793-2.00488-.38379-2.87988s-.61914-1.62695-1.08789-2.25586c-.46973-.62891-1.02393-1.11523-1.66406-1.45605s-1.34424-.5127-2.11182-.5127c-.78955,0-1.50977.17188-2.16016.5127-.65088.34082-1.20557.82715-1.66406,1.45605-.45898.62891-.81592,1.38086-1.07178,2.25586-.25635.875-.38428,1.83496-.38428,2.87988,0,1.06738.12793,2.03223.38428,2.89551.25586.86426.61279,1.60645,1.07178,2.22461.4585.61914,1.01318,1.09863,1.66406,1.43945.65039.3418,1.37061.5127,2.16016.5127.76758,0,1.47168-.1709,2.11182-.5127.64014-.34082,1.19434-.82031,1.66406-1.43945.46875-.61816.83203-1.36035,1.08789-2.22461.25586-.86328.38379-1.82812.38379-2.89551Z"/>
      <path class="st1" d="M73.6543,64.01953c-.68262,0-1.32227-.12207-1.91992-.36816-.59668-.24414-1.12012-.5752-1.56738-.99121-.44824-.41602-.7998-.91211-1.05664-1.48828-.25586-.57617-.38379-1.18359-.38379-1.82422,0-.63965.12793-1.24805.38379-1.82422.25684-.5752.6084-1.07129,1.05664-1.4873.44727-.41602.9707-.74707,1.56738-.99219.59766-.24512,1.2373-.36816,1.91992-.36816s1.32324.12305,1.9209.36816c.59668.24512,1.11914.57617,1.56738.99219s.7998.91211,1.05566,1.4873c.25684.57617.38477,1.18457.38477,1.82422,0,.64062-.12793,1.24805-.38477,1.82422-.25586.57617-.60742,1.07227-1.05566,1.48828s-.9707.74707-1.56738.99121c-.59766.24609-1.23828.36816-1.9209.36816ZM69.81445,76.66016l8.95996-10.78418,8.57617-11.04004,1.37598,1.18359-8.86426,10.7207-8.70312,11.13574-1.34473-1.21582ZM73.6543,62.4834c.40527,0,.78418-.08496,1.13672-.25586.35156-.16992.65527-.39941.91211-.6875.25586-.28809.45801-.61914.60742-.99219s.22461-.77344.22461-1.2002-.08008-.83203-.24023-1.21582-.36816-.71973-.62402-1.00781-.56055-.51172-.91211-.67188c-.35254-.16016-.71973-.24023-1.10449-.24023-.40527,0-.7832.08496-1.13574.25586-.35156.1709-.65625.40039-.91211.68848-.25586.28711-.45898.62402-.60742,1.00781-.14941.38379-.22461.77832-.22461,1.18359,0,.42676.0752.83203.22461,1.21582.14844.38477.35645.7207.62402,1.00879.2666.28711.5752.51172.92773.67188.35156.16016.71973.23926,1.10352.23926ZM84.88672,78.03613c-.68262,0-1.32324-.12305-1.91992-.36816-.59766-.24512-1.12012-.57617-1.56836-.99219-.44727-.41602-.7998-.91211-1.05566-1.48828-.25586-.5752-.38379-1.18359-.38379-1.82324,0-.64062.12793-1.24805.38379-1.82422s.6084-1.07227,1.05566-1.48828c.44824-.41602.9707-.74609,1.56836-.99219.59668-.24512,1.2373-.36816,1.91992-.36816s1.32227.12305,1.91992.36816c.59668.24609,1.12012.57617,1.56836.99219.44727.41602.7998.91211,1.05566,1.48828s.38379,1.18359.38379,1.82422c0,.63965-.12793,1.24805-.38379,1.82324-.25586.57617-.6084,1.07227-1.05566,1.48828-.44824.41602-.97168.74707-1.56836.99219-.59766.24512-1.2373.36816-1.91992.36816ZM84.88672,76.5c.40527,0,.78418-.08496,1.13574-.25586.35254-.1709.65625-.40039.91211-.68848s.45898-.61816.6084-.99219c.14844-.37305.22363-.77246.22363-1.19922s-.08008-.83203-.24023-1.2168c-.15918-.38379-.36719-.71973-.62402-1.00781-.25586-.28809-.55957-.51172-.91113-.67188-.35254-.16016-.7207-.24023-1.10449-.24023-.40527,0-.78418.08594-1.13574.25586-.35254.17188-.65625.40039-.91211.68848s-.45898.62402-.6084,1.00781-.22363.7793-.22363,1.18457c0,.42676.07422.83203.22363,1.21582s.35742.71973.62402,1.00781.57617.51172.92871.67188c.35156.16016.71973.24023,1.10352.24023Z"/>
    </g>
  </g>
</svg>