<?xml version="1.0" encoding="UTF-8"?>
<svg xmlns="http://www.w3.org/2000/svg" version="1.1" xmlns:xlink="http://www.w3.org/1999/xlink" viewBox="0 0 37 31.1">
  <defs>
    <style>
      .cls-1 {
        fill: #aebed3;
      }

      .cls-2 {
        fill: none;
      }

      .cls-3 {
        clip-path: url(#clippath);
      }
    </style>
    <clipPath id="clippath">
      <rect class="cls-2" x="3.7" width="29.7" height="31.1"/>
    </clipPath>
  </defs>
  <!-- Generator: Adobe Illustrator 28.7.1, SVG Export Plug-In . SVG Version: 1.2.0 Build 142)  -->
  <g>
    <g id="Layer_1">
      <g class="cls-3">
        <g>
          <path class="cls-1" d="M33.2.2c0,0-.2-.2-.4-.2H4.2c-.3,0-.5.2-.5.5,0,0,0,0,0,0v30.1c0,.3.2.5.5.5h14.1c.3,0,.5-.2.5-.5s-.2-.5-.5-.5h-2.9v-7.7h2.8c.3,0,.5-.2.5-.5s-.2-.5-.5-.5h-2.8v-1.9c0-.3-.2-.5-.5-.5s-.5.2-.5.5v10.6H4.7V1h9.7v10.7c0,.3.2.5.5.5s.5-.2.5-.5v-2.2h8.1c.3,0,.5-.2.5-.5s-.2-.5-.5-.5h-8.1V1h16.9v7.5h-2.9c-.3,0-.5.2-.5.5s.2.5.5.5h2.9v11.8h-8.2c-.3,0-.5.2-.5.5s.2.5.5.5h8.2v7.7h-8c-.3,0-.5.2-.5.5s.2.5.5.5h8.6c.3,0,.5-.2.5-.5V.5c0-.1,0-.3-.2-.4"/>
          <path class="cls-1" d="M11.5,4.3h-.3c-.1-.9-.8-1.5-1.6-1.6v-.3c0-.1,0-.2-.2-.2-.1,0-.2,0-.2.2,0,0,0,0,0,0v.3c-.9.1-1.5.8-1.6,1.6h-.3c-.1,0-.2,0-.2.2,0,.1,0,.2.2.2,0,0,0,0,0,0h.3c.1.9.8,1.5,1.6,1.6v.3c0,.1,0,.2.2.2.1,0,.2,0,.2-.2,0,0,0,0,0,0v-.3c.9-.1,1.5-.8,1.6-1.6h.3c.1,0,.2,0,.2-.2,0-.1,0-.2-.2-.2,0,0,0,0,0,0M9.6,4.3v-.5c.2,0,.4.2.5.5h-.5ZM10.5,4.3c0-.5-.5-.8-.9-.9v-.3c.6,0,1.1.6,1.2,1.2h-.3ZM10,4.8c0,.2-.2.4-.5.5v-.5h.5ZM9.6,6v-.3c.5,0,.8-.5.9-.9h.3c0,.6-.6,1.1-1.2,1.2M9.1,3.9v.5h-.5c0-.2.2-.4.5-.5M9.1,4.8v.5c-.2,0-.4-.2-.5-.5h.5ZM9.1,3.1v.3c-.5,0-.8.5-.9.9h-.3c0-.6.6-1.1,1.2-1.2M8.2,4.8c0,.5.5.8.9.9v.3c-.6,0-1.1-.6-1.2-1.2h.3Z"/>
          <path class="cls-1" d="M9.3,28c.1,0,.2,0,.2-.2h0v-.3c.9-.1,1.5-.8,1.6-1.6h.3c.1,0,.2-.1.2-.2,0-.1,0-.2-.2-.2h-.3c-.1-.9-.8-1.5-1.6-1.6v-.3c0-.1-.1-.2-.2-.2-.1,0-.2,0-.2.2v.3c-.9.1-1.5.8-1.6,1.6h-.3c-.1,0-.2.1-.2.2,0,.1,0,.2.2.2h.3c.1.9.8,1.5,1.6,1.6v.3c0,.1,0,.2.2.2h0M9.1,25v.5h-.5c0-.2.2-.4.5-.5M9.1,25.9v.5c-.2,0-.4-.2-.5-.5h.5ZM9.1,24.2v.3c-.5,0-.8.5-.9.9h-.3c0-.6.6-1.1,1.2-1.2M8.2,25.9c0,.5.5.8.9.9v.3c-.6,0-1.1-.6-1.2-1.2h.3ZM9.5,25.5v-.5c.2,0,.4.2.5.5h-.5ZM9.5,26.4v-.5h.5c0,.2-.2.4-.5.5M9.5,27.1v-.3c.5,0,.8-.5.9-.9h.3c0,.6-.6,1.1-1.2,1.2M10.5,25.5c0-.5-.5-.8-.9-.9v-.3c.6,0,1.1.6,1.2,1.2h-.3Z"/>
          <path class="cls-1" d="M28.5,13.2c-.1,0-.2,0-.2.2h0v.3c-.9.1-1.5.8-1.6,1.6h-.3c-.1,0-.2,0-.2.2,0,.1,0,.2.2.2,0,0,0,0,0,0h.3c.1.9.8,1.5,1.6,1.6v.3c0,.1.1.2.2.2.1,0,.2,0,.2-.2v-.3c.9-.1,1.5-.8,1.6-1.6h.3c.1,0,.2-.1.2-.2,0-.1,0-.2-.2-.2h-.3c-.1-.9-.8-1.5-1.6-1.6v-.3c0-.1,0-.2-.2-.2h0M28.7,15.3v-.5c.2,0,.4.2.5.5h-.5ZM29.1,15.8c0,.2-.2.4-.5.5v-.5h.5ZM28.7,17v-.3c.5,0,.8-.5.9-.9h.3c0,.6-.6,1.1-1.2,1.2M29.6,15.3c0-.5-.5-.8-.9-.9v-.3c.6,0,1.1.6,1.2,1.2h-.3ZM28.2,14.9v.5h-.5c0-.2.2-.4.5-.5M28.2,15.8v.5c-.2,0-.4-.2-.5-.5h.5ZM28.2,14.1v.3c-.5,0-.8.5-.9.9h-.3c0-.6.6-1.1,1.2-1.2M27.3,15.8c0,.5.5.8.9.9v.3c-.6,0-1.1-.6-1.2-1.2h.3Z"/>
          <path class="cls-1" d="M28.5,24.2c-.1,0-.2,0-.2.2h0v.3c-.9.1-1.5.8-1.6,1.6h-.3c-.1,0-.2,0-.2.2,0,.1,0,.2.2.2,0,0,0,0,0,0h.3c.1.9.8,1.5,1.6,1.6v.3c0,.1.1.2.2.2.1,0,.2,0,.2-.2v-.3c.9-.1,1.5-.8,1.6-1.6h.3c.1,0,.2-.1.2-.2,0-.1,0-.2-.2-.2h-.3c-.1-.9-.8-1.5-1.6-1.6v-.3c0-.1,0-.2-.2-.2h0M28.7,26.3v-.5c.2,0,.4.2.5.5h-.5ZM29.1,26.8c0,.2-.2.4-.5.5v-.5h.5ZM28.7,28v-.3c.5,0,.8-.5.9-.9h.3c0,.6-.6,1.1-1.2,1.2M29.6,26.3c0-.5-.5-.8-.9-.9v-.3c.6,0,1.1.6,1.2,1.2h-.3ZM28.2,25.8v.5h-.5c0-.2.2-.4.5-.5M28.2,26.7v.5c-.2,0-.4-.2-.5-.5h.5ZM28.2,25.1v.3c-.5,0-.8.5-.9.9h-.3c0-.6.6-1.1,1.2-1.2M27.3,26.7c0,.5.5.8.9.9v.3c-.6,0-1.1-.6-1.2-1.2h.3Z"/>
          <path class="cls-1" d="M19,6.9c.1,0,.2,0,.2-.2h0v-.3c.9-.1,1.5-.8,1.6-1.6h.3c.1,0,.2,0,.2-.2,0-.1,0-.2-.2-.2,0,0,0,0,0,0h-.3c-.1-.9-.8-1.5-1.6-1.6v-.3c0-.1-.1-.2-.2-.2-.1,0-.2,0-.2.2v.3c-.9.1-1.5.8-1.6,1.6h-.3c-.1,0-.2,0-.2.2,0,.1,0,.2.2.2,0,0,0,0,0,0h.3c.1.9.8,1.5,1.7,1.6v.3c0,.1,0,.2.2.2h0M18.8,3.9v.5h-.5c0-.2.2-.4.5-.5M18.8,4.8v.5c-.2,0-.4-.2-.5-.5h.5ZM18.8,3.1v.3c-.5,0-.8.5-.9.9h-.3c0-.6.6-1.1,1.2-1.2M17.9,4.8c0,.5.5.8.9.9v.3c-.6,0-1.1-.6-1.2-1.2h.3ZM19.3,4.3v-.5c.2,0,.4.2.5.5h-.5ZM19.3,5.2v-.5h.5c0,.2-.2.4-.5.5M19.3,6v-.3c.5,0,.8-.5.9-.9h.3c0,.6-.6,1.1-1.2,1.2M20.2,4.3c0-.5-.5-.8-.9-.9v-.3c.6,0,1.1.6,1.2,1.2h-.3Z"/>
        </g>
      </g>
    </g>
  </g>
</svg>