<?xml version="1.0" encoding="UTF-8"?>
<svg xmlns="http://www.w3.org/2000/svg" version="1.1" xmlns:xlink="http://www.w3.org/1999/xlink" viewBox="0 0 37 33.7">
  <defs>
    <style>
      .cls-1 {
        fill: none;
      }

      .cls-2 {
        fill: #aebed3;
        fill-rule: evenodd;
      }

      .cls-3 {
        clip-path: url(#clippath);
      }
    </style>
    <clipPath id="clippath">
      <rect class="cls-1" x="1.7" width="33.6" height="33.7"/>
    </clipPath>
  </defs>
  <!-- Generator: Adobe Illustrator 28.7.1, SVG Export Plug-In . SVG Version: 1.2.0 Build 142)  -->
  <g>
    <g id="Layer_1">
      <g class="cls-3">
        <path class="cls-2" d="M7.2,5.6c-6.2,6.2-6.2,16.3,0,22.5,9.9,9.9,27.2,3,27.2-11.3,0-14.2-17.3-21.2-27.2-11.3ZM33.2,15c-1.7-3.5-7.2-3.8-10.5-2-.4-.4-.8-.7-1.3-1,.5-1.3,1.2-2.5,2.2-3.6.6-.6.9-1.4,1-2.2,0-1.7-1.1-3.1-2.6-3.8,6,1.4,10.5,6.5,11.3,12.6h0ZM17.9,30.9c-1.9-.1-4.2-1.3-4.2-3.4,0-.6.3-1.1.7-1.5,1-1.1,1.8-2.4,2.4-3.8,1.6.5,3.3.3,4.7-.5,1.6,3.3,1.3,9.3-3.5,9.2ZM21.7,20h0c-4.4,4.1-10.5-2-6.4-6.4,4.4-4.1,10.5,2,6.4,6.4ZM13.6,19.7c-3.3,1.6-9.3,1.2-9.2-3.5.1-1.9,1.3-4.2,3.4-4.2.6,0,1.1.3,1.5.7,1.1,1,2.4,1.8,3.8,2.4-.5,1.6-.3,3.3.5,4.7h0ZM19.1,2.8c1.9.1,4.2,1.3,4.2,3.4,0,.6-.3,1.1-.7,1.5-1.1,1.1-1.9,2.4-2.4,3.9-1.6-.6-3.3-.4-4.7.5-1.6-3.3-1.2-9.3,3.5-9.2h0ZM23.3,13.9c3.3-1.6,9.3-1.2,9.2,3.5-.1,1.9-1.3,4.2-3.4,4.2-.6,0-1.1-.3-1.5-.7-1.1-1-2.4-1.8-3.8-2.4.2-.6.3-1.2.3-1.8,0-1-.3-2-.8-2.9h0ZM16.7,2.1c-3.5,1.7-3.8,7.2-2,10.5,0,0-.1.1-.2.2-.4.3-.7.7-.9,1.1-1.3-.5-2.5-1.2-3.5-2.1-.6-.6-1.4-.9-2.2-1-1.7,0-3.1,1.1-3.8,2.6,1.4-6,6.5-10.6,12.6-11.3ZM3.8,18.6c1.6,3.6,7.2,3.8,10.5,2,0,0,.1.1.2.2.3.3.7.6,1.1.9-.5,1.3-1.2,2.5-2.2,3.5-.6.6-.9,1.4-1,2.2,0,1.6,1,3,2.5,3.7-6-1.4-10.5-6.5-11.2-12.6ZM29,27.3c-2.3,2.4-5.4,3.9-8.7,4.2,3.6-1.6,3.8-7.2,2-10.6.4-.4.8-.8,1.1-1.3,1.3.5,2.5,1.2,3.5,2.2.6.6,1.4.9,2.2,1,1.7,0,3.2-1.1,3.8-2.7-.6,2.7-2,5.2-4,7.2h0ZM15.2,16.8c0,1.8,1.5,3.2,3.2,3.2s3.2-1.5,3.2-3.2-1.5-3.2-3.2-3.2-3.2,1.5-3.2,3.2M20,18.3c-.8.8-2.2.8-3,0-.8-.8-.8-2.1,0-3,.8-.8,2.2-.8,3,0,.8.8.8,2.1,0,3"/>
      </g>
    </g>
  </g>
</svg>