<svg xmlns="http://www.w3.org/2000/svg" width="87.639" height="87.639" viewBox="0 0 87.639 87.639"><g transform="translate(6.496 7.007)"><g transform="translate(0)"><path d="M36.812-.282A37.1,37.1,0,0,1,51.251,70.99,37.1,37.1,0,0,1,22.373,2.634,36.861,36.861,0,0,1,36.812-.282Zm0,73.624A36.531,36.531,0,1,0,.281,36.812,36.572,36.572,0,0,0,36.812,73.343Z" transform="translate(0 0)" fill="#233757"/><path d="M340.861,87.954a43.825,43.825,0,0,1-21.62-81.942L326.165,18.2a29.816,29.816,0,1,0,14.7-3.867V.314a43.82,43.82,0,1,1,0,87.639Z" transform="translate(-303.538 -7.322)" fill="#778495"/><text transform="translate(37.41 42.422)" fill="#778495" font-size="19" font-family="Raleway-Medium, Raleway" font-weight="500"><tspan x="-18.24" y="0">89%</tspan></text></g></g></svg>