<svg xmlns="http://www.w3.org/2000/svg" width="83.194" height="83.194" viewBox="0 0 83.194 83.194"><g transform="translate(0.5 7.007)"><path d="M186.29,6.508A38.353,38.353,0,0,1,201.214,80.18a38.353,38.353,0,0,1-29.85-70.659A38.1,38.1,0,0,1,186.29,6.508Zm0,75.686a37.343,37.343,0,1,0-37.344-37.343A37.385,37.385,0,0,0,186.29,82.194Z" transform="translate(-148.446 -7.007)" fill="#aebed3"/><path d="M236.628,73.124l-10.875-8.84a30.481,30.481,0,0,0,6.893-19.434A30.87,30.87,0,0,0,201.81,14.015V0a44.853,44.853,0,0,1,34.818,73.124Z" transform="translate(-163.966 -7.007)" fill="#778495"/><text transform="translate(15.782 44.263)" fill="#778495" font-size="23" font-family="Raleway-SemiBold, Raleway" font-weight="600"><tspan x="0" y="0">29%</tspan></text></g></svg>