<svg xmlns="http://www.w3.org/2000/svg" width="164.356" height="164.356" viewBox="0 0 164.356 164.356"><g transform="translate(0.5 7.007)"><path d="M226.871,6.508a79.5,79.5,0,0,1,15.905,1.6A78.494,78.494,0,0,1,271,19.987,79.153,79.153,0,0,1,299.592,54.71a78.529,78.529,0,0,1,4.6,14.815,79.689,79.689,0,0,1,0,31.811,78.493,78.493,0,0,1-11.876,28.222,79.153,79.153,0,0,1-34.724,28.594,78.53,78.53,0,0,1-14.815,4.6,79.689,79.689,0,0,1-31.811,0,78.5,78.5,0,0,1-28.222-11.876,79.152,79.152,0,0,1-28.594-34.723,78.526,78.526,0,0,1-4.6-14.815,79.689,79.689,0,0,1,0-31.811A78.493,78.493,0,0,1,161.425,41.3,79.153,79.153,0,0,1,196.15,12.71a78.531,78.531,0,0,1,14.816-4.6A79.506,79.506,0,0,1,226.871,6.508Zm0,156.847a77.923,77.923,0,1,0-77.925-77.923A78.012,78.012,0,0,0,226.871,163.355Z" transform="translate(-148.446 -7.006)" fill="#2f466a"/><path d="M268.134,139.284l-10.875-8.84A71.42,71.42,0,0,0,201.81,14.015V0a85.435,85.435,0,0,1,66.324,139.284Z" transform="translate(-123.385 -7.007)" fill="#778495"/><text transform="translate(43.157 87.969)" fill="#778495" font-size="39" font-family="Raleway-SemiBold, Raleway" font-weight="600"><tspan x="0" y="0">29%</tspan></text></g></svg>