<?xml version="1.0" encoding="UTF-8"?>
<svg xmlns="http://www.w3.org/2000/svg" version="1.1" viewBox="0 0 66 66">
  <!-- Generator: Adobe Illustrator 28.7.1, SVG Export Plug-In . SVG Version: 1.2.0 Build 142)  -->
  <g>
    <g id="Layer_1">
      <g>
        <path d="M17.2,40.9C8,40.9.5,33.4.5,24.2S8,7.5,17.2,7.5s16.7,7.5,16.7,16.7c0,9.2-7.5,16.7-16.7,16.7ZM17.2,9.8c-7.9,0-14.4,6.4-14.4,14.4s6.4,14.4,14.4,14.4,14.4-6.4,14.4-14.4h0c0-7.9-6.4-14.3-14.4-14.4Z"/>
        <path d="M36.9,58.5c-6.1,0-11.1-5-11.1-11.1s5-11.1,11.1-11.1,11.1,5,11.1,11.1h0c0,6.1-5,11.1-11.1,11.1ZM36.9,38.7c-4.8,0-8.8,3.9-8.8,8.8s3.9,8.8,8.8,8.8,8.8-3.9,8.8-8.8h0c0-4.8-3.9-8.8-8.8-8.8h0Z"/>
        <path d="M46.8,26.9c-3.7,0-6.6-3-6.6-6.6s3-6.6,6.6-6.6c3.6,0,6.6,3,6.6,6.6,0,3.7-3,6.6-6.6,6.6ZM46.8,16c-2.4,0-4.3,1.9-4.3,4.3,0,2.4,1.9,4.3,4.3,4.3,2.4,0,4.3-1.9,4.3-4.3,0-2.4-1.9-4.3-4.3-4.3h0Z"/>
        <path d="M57.5,46.7c-2.9,0-5.3-2.4-5.3-5.3,0-2.9,2.4-5.3,5.3-5.3s5.3,2.4,5.3,5.3h0c0,2.9-2.4,5.2-5.3,5.3ZM57.5,38.5c-1.6,0-2.9,1.3-2.9,2.9s1.3,2.9,2.9,2.9,2.9-1.3,2.9-2.9h0c0-1.6-1.3-2.9-2.9-2.9h0Z"/>
        <path d="M17.3,55.2c-2.3,0-4.1-1.8-4.1-4.1s1.8-4.1,4.1-4.1,4.1,1.8,4.1,4.1h0c0,2.3-1.8,4.1-4.1,4.1ZM17.3,49.4c-1,0-1.8.8-1.8,1.8s.8,1.8,1.8,1.8,1.8-.8,1.8-1.8c0-1-.8-1.8-1.8-1.8h0Z"/>
        <path d="M62.1,25.5c-1.9,0-3.4-1.5-3.4-3.4,0-1.9,1.5-3.4,3.4-3.4s3.4,1.5,3.4,3.4-1.5,3.4-3.4,3.4h0ZM62.1,21c-.6,0-1.1.5-1.1,1.1,0,.6.5,1.1,1.1,1.1s1.1-.5,1.1-1.1c0-.6-.5-1.1-1.1-1.1,0,0,0,0,0,0Z"/>
      </g>
    </g>
  </g>
</svg>