<?xml version="1.0" encoding="UTF-8"?>
<svg xmlns="http://www.w3.org/2000/svg" version="1.1" xmlns:xlink="http://www.w3.org/1999/xlink" viewBox="0 0 37 26.2">
  <defs>
    <style>
      .cls-1 {
        fill: #aebed3;
      }

      .cls-2 {
        fill: none;
      }

      .cls-3 {
        clip-path: url(#clippath);
      }
    </style>
    <clipPath id="clippath">
      <rect class="cls-2" x="1.1" width="34.7" height="26.2"/>
    </clipPath>
  </defs>
  <!-- Generator: Adobe Illustrator 28.7.1, SVG Export Plug-In . SVG Version: 1.2.0 Build 142)  -->
  <g>
    <g id="Layer_1">
      <g class="cls-3">
        <g>
          <path class="cls-1" d="M26.8,26.2H10.2c-5,0-9.1-4.1-9.1-9.1,0-4.5,3.3-8.3,7.8-9C9.8,2.8,14.8-.8,20.1.1c4.1.7,7.3,3.9,8,8,5,.8,8.4,5.4,7.6,10.4-.7,4.4-4.5,7.7-8.9,7.7M18.5,1.3c-.3,0-.6,0-1,0-3.9.4-7,3.5-7.4,7.4v.5c0,0-.6,0-.6,0-4.3.4-7.4,4.2-7,8.4.4,4,3.7,7.1,7.7,7.1h16.5c4.3,0,7.8-3.4,7.8-7.7,0-4-3.1-7.4-7.1-7.8h-.5s0-.6,0-.6c-.5-4.2-4.1-7.4-8.3-7.5"/>
          <path class="cls-1" d="M9.5,15c0-.9.4-1.8,1-2.5.3-.4.7-.6,1.2-.8,1.1-.5,2.4-.4,3.4.1.5.3.9.7,1.2,1.2l-1.5,1.1c0-.2-.2-.3-.3-.4-.1-.1-.2-.2-.4-.3-.1,0-.3-.1-.4-.1-.1,0-.3,0-.4,0-.3,0-.5,0-.8.2-.2.1-.4.3-.5.4-.1.2-.2.4-.3.6,0,.2,0,.5-.1.7,0,.3,0,.5.1.7,0,.2.2.4.3.6.1.2.3.3.5.4.2.1.5.2.7.2.1,0,.3,0,.4,0,.1,0,.3,0,.4-.2.1,0,.3-.2.4-.3.1-.1.2-.3.3-.4l1.6,1c-.1.3-.3.5-.5.7-.2.2-.5.4-.8.5-.3.1-.6.3-.9.3-.3,0-.6.1-1,.1-.5,0-1-.1-1.5-.3-.4-.2-.8-.5-1.2-.9-.3-.4-.6-.8-.8-1.2-.2-.4-.3-.9-.3-1.4"/>
          <path class="cls-1" d="M20.2,18.9c-.5,0-1-.1-1.5-.3-.4-.2-.8-.5-1-.9-.3-.4-.5-.8-.6-1.2-.1-.4-.2-.8-.2-1.3,0-.9.3-1.8.9-2.5.3-.4.6-.7,1-.9.9-.5,2-.4,2.8,0,.4.2.8.5,1,.9.3.4.5.8.6,1.2.4,1.3.2,2.7-.7,3.8-.3.4-.6.6-1,.9-.4.2-.9.3-1.4.3M18.9,15.1c0,.2,0,.5,0,.7,0,.2.1.4.2.6,0,.2.2.3.4.5.4.2.8.2,1.2,0,.2-.1.3-.3.4-.5.1-.2.2-.4.2-.6,0-.4,0-.9,0-1.3,0-.2-.1-.4-.2-.6,0-.2-.2-.3-.4-.5-.4-.2-.8-.2-1.2,0-.2.1-.3.3-.4.5-.1.2-.2.4-.2.6,0,.2,0,.4,0,.6"/>
          <path class="cls-1" d="M24.1,21.5c0-.2,0-.5,0-.7,0-.2.1-.4.2-.5,0-.2.2-.3.4-.4.2-.1.4-.3.5-.4.3-.1.5-.3.7-.4.2,0,.3-.2.4-.2,0,0,.1,0,.2-.1,0,0,0,0,0-.1,0-.1,0-.2-.1-.3-.1,0-.2-.1-.3,0-.2,0-.3,0-.5.1-.2.1-.3.3-.5.4l-.9-1.1c.1-.1.2-.2.4-.3.2,0,.3-.2.5-.2.2,0,.4-.1.6-.2.2,0,.4,0,.7,0,.5,0,1,0,1.4.4.3.2.5.6.5,1,0,.3,0,.5-.2.8,0,.1-.2.2-.3.3,0,0-.2.2-.3.2-.1,0-.3.2-.4.3s-.3.2-.4.3h1.7v1.3h-4.1Z"/>
        </g>
      </g>
    </g>
  </g>
</svg>