<svg xmlns="http://www.w3.org/2000/svg" width="126.228" height="132.954" viewBox="0 0 126.228 132.954"><g transform="translate(-686.382 -3707.982)"><path d="M59.751,6.726a59.473,59.473,0,0,1,33.407,10.2,59.924,59.924,0,0,1,21.648,26.288A59.672,59.672,0,0,1,109.3,99.885a59.924,59.924,0,0,1-26.288,21.647,59.674,59.674,0,0,1-56.665-5.509A59.924,59.924,0,0,1,4.7,89.735,59.672,59.672,0,0,1,10.2,33.07,59.925,59.925,0,0,1,36.493,11.422,59.379,59.379,0,0,1,59.751,6.726Zm0,118.938A59.188,59.188,0,1,0,.562,66.477,59.255,59.255,0,0,0,59.751,125.665Z" transform="translate(686.382 3707.983)" fill="#233757"/><path d="M57.059,132.954A66.152,66.152,0,0,1,19.886,121.6l7.846-11.613A52.464,52.464,0,1,0,57.059,14.015V0a66.477,66.477,0,0,1,0,132.954Z" transform="translate(689.075 3707.983)" fill="#778495"/><text transform="translate(746.133 3785.698)" fill="#778495" font-size="32" font-family="Raleway-Medium, Raleway" font-weight="500"><tspan x="-31.248" y="0">60%</tspan></text></g></svg>