<svg xmlns="http://www.w3.org/2000/svg" width="58.388" height="92.736" viewBox="0 0 58.388 92.736"><path d="M321.229,86.592a6.769,6.769,0,0,0-3.312.8v-.8a6.439,6.439,0,0,0-6.624-6.624,6.73,6.73,0,0,0-3.38.848,6.605,6.605,0,0,0-13.116,0,6.725,6.725,0,0,0-3.377-.848,6.436,6.436,0,0,0-6.624,6.624v31.2l-1.744-5.225c-1.055-3.166-2.789-5.326-5.009-6.247a6.566,6.566,0,0,0-5.579.321c-4.377,2.188-2.726,9.353-2.538,10.087l4.968,24.84a1.6,1.6,0,0,0,.1.326l4.615,10.765a4.949,4.949,0,0,0-1.436,3.486v6.624a4.974,4.974,0,0,0,4.968,4.968h36.432a4.974,4.974,0,0,0,4.968-4.968v-6.624a4.949,4.949,0,0,0-1.436-3.486l4.612-10.765a1.605,1.605,0,0,0,.136-.652V93.216a6.441,6.441,0,0,0-6.626-6.624Zm0,76.176a1.658,1.658,0,0,1-1.656,1.656H283.141a1.656,1.656,0,0,1-1.656-1.656v-6.624a1.655,1.655,0,0,1,1.656-1.656h36.432a1.658,1.658,0,0,1,1.656,1.656Zm3.312-21.867-4.428,10.33a4.938,4.938,0,0,0-.54-.055H283.141a4.917,4.917,0,0,0-.543.055l-4.493-10.484L273.154,116c-.417-1.671-.8-5.6.793-6.4a3.3,3.3,0,0,1,2.83-.224c1.29.535,2.406,2.039,3.138,4.235l4.968,14.9a.288.288,0,0,0,.033.053,1.5,1.5,0,0,0,.177.311,1.579,1.579,0,0,0,.159.238,1.806,1.806,0,0,0,.242.187,1.667,1.667,0,0,0,.272.18,1.618,1.618,0,0,0,.268.076,1.654,1.654,0,0,0,.356.071.358.358,0,0,0,.062.015,1.565,1.565,0,0,0,.265-.053,1.524,1.524,0,0,0,.258-.033c.02-.007.033-.023.051-.031a1.578,1.578,0,0,0,.316-.18,1.611,1.611,0,0,0,.234-.157,1.653,1.653,0,0,0,.2-.257,1.912,1.912,0,0,0,.172-.252,1.83,1.83,0,0,0,.081-.29,1.678,1.678,0,0,0,.068-.338c0-.023.013-.041.013-.065v-41.4a3.312,3.312,0,0,1,6.624,0v34.776a1.656,1.656,0,1,0,3.312,0V81.624a3.312,3.312,0,1,1,6.624,0v39.744a1.656,1.656,0,0,0,3.312,0V86.592a3.312,3.312,0,0,1,6.624,0v34.776a1.656,1.656,0,0,0,3.312,0V93.216a3.312,3.312,0,1,1,6.624,0Z" transform="translate(-269.467 -75)" fill="#778495"/></svg>