<?xml version="1.0" encoding="UTF-8"?>
<svg xmlns="http://www.w3.org/2000/svg" version="1.1" xmlns:xlink="http://www.w3.org/1999/xlink" viewBox="0 0 37 26.2">
  <defs>
    <style>
      .cls-1 {
        fill: #aebed3;
      }

      .cls-2 {
        fill: none;
      }

      .cls-3 {
        clip-path: url(#clippath);
      }
    </style>
    <clipPath id="clippath">
      <rect class="cls-2" x="2" width="32.9" height="26.2"/>
    </clipPath>
  </defs>
  <!-- Generator: Adobe Illustrator 28.7.1, SVG Export Plug-In . SVG Version: 1.2.0 Build 142)  -->
  <g>
    <g id="Layer_1">
      <g id="Layer_1-2" data-name="Layer_1">
        <g class="cls-3">
          <path class="cls-1" d="M14.7,11.1c.4-.4.9-.7,1.4-1v9.9c0,1.8-1.1,3.4-2.7,4.1-1.9.8-3.8,1.4-5.8,1.9-.4.1-.8.2-1.1.1-1,0-1.9-.3-2.6-.9-1.1-.8-1.7-2-1.8-3.3,0-2.3.1-4.6.6-6.8C4.5,6,9,1.5,12.5,1.9c1.6.1,3.4,1.5,3.6,4.8-.4.2-.9.4-1.4.7h0c0-2.4-.9-3.9-2.4-4.1h-.3c-1.3,0-2.8,1-4.1,2.6-1.2,1.6-3,4.5-4,9.6-.5,2.1-.7,4.3-.6,6.5,0,.9.5,1.8,1.2,2.3s1.7.7,2.6.5c1.9-.5,3.8-1.1,5.6-1.9,1.1-.5,1.9-1.6,1.9-2.8v-8.9h0ZM34.4,15.2c-1.8-9.2-6.3-13.6-9.9-13.3-1.6.1-3.4,1.5-3.6,4.8.4.2.9.4,1.4.7h0c0-2.4.9-3.9,2.4-4.1h.3c1.3,0,2.8,1,4.1,2.6,1.2,1.6,3,4.5,4,9.6.5,2.1.7,4.3.6,6.5,0,.9-.5,1.8-1.2,2.3s-1.7.7-2.6.5c-1.9-.5-3.8-1.1-5.6-1.9-1.1-.5-1.9-1.6-1.9-2.8v-9c-.4-.4-.9-.7-1.4-1v9.9c0,1.8,1.1,3.4,2.7,4.1,1.9.8,3.8,1.4,5.8,1.9.4.1.8.2,1.1.1,1,0,1.9-.3,2.6-.9,1.1-.8,1.7-2,1.8-3.3,0-2.3,0-4.6-.6-6.8h0ZM22.5,10.2c.4.3.9.7,1.2,1.1,1.1,1.4,1.1,3.4,0,4.8-.3.3-.2.7,0,1h0c.1.1.3.2.4.2.2,0,.4,0,.5-.3.6-.8,1-1.7,1.2-2.7,1.8,2.2,3.5,2.3,3.6,2.3h0c.4,0,.7-.3.7-.7s-.3-.7-.7-.7h0s-1.8-.2-3.4-3c-.3-.5-.6-1-1-1.5,1-.4,1.8-1.1,2.2-2,.2-.3,0-.7-.3-.9h0c-.3-.2-.7,0-.9.3h0c-.3.6-.8,1-1.4,1.2-.5.1-1,0-1.4-.4-.9-.7-2-1.3-3.1-1.7-.6-.3-1.1-.9-1.1-1.6V.7c0-.4-.2-.7-.6-.8-.4,0-.7.2-.8.6v5.3c0,.7-.4,1.3-1.1,1.6-1.1.4-2.1,1-3.1,1.7-.4.3-.9.4-1.4.4-.6-.2-1.1-.7-1.4-1.3-.2-.3-.6-.5-.9-.3-.3.2-.5.6-.3.9.5.9,1.3,1.6,2.2,2-.4.5-.7,1-1.1,1.5-1.7,2.9-3.4,3-3.5,3-.4,0-.7.4-.7.7s.3.7.7.7h0c1.4-.3,2.7-1.1,3.6-2.3.1,1,.5,1.9,1.2,2.7.1.1.3.2.5.3.2,0,.3,0,.4-.2.3-.3.3-.7,0-1h0c-1.1-1.4-1.2-3.4,0-4.8.4-.4.8-.8,1.2-1.1.8-.6,1.7-1.1,2.7-1.5.5-.2.9-.5,1.2-.9.3.4.8.7,1.2.9,1,.3,2,.9,2.8,1.5h.7Z"/>
        </g>
      </g>
    </g>
  </g>
</svg>