<svg xmlns="http://www.w3.org/2000/svg" width="58" height="58" viewBox="0 0 58 58"><g transform="translate(-335 -10755)"><circle cx="29" cy="29" r="29" transform="translate(335 10755)" fill="#aebed3"/><path d="M19.17-3.6V0H3.015V-3.6h6.39V-21.15A5.7,5.7,0,0,1,8.145-20a13.668,13.668,0,0,1-1.912,1.125A16.171,16.171,0,0,1,4.05-18a6.614,6.614,0,0,1-1.98.36v-3.78a5.32,5.32,0,0,0,2.205-.562,16.707,16.707,0,0,0,2.318-1.3,18.157,18.157,0,0,0,1.89-1.44,4.661,4.661,0,0,0,.923-.968h4.05V-3.6Z" transform="translate(355 10796)" fill="#fff"/></g></svg>