<?xml version="1.0" encoding="UTF-8"?>
<svg xmlns="http://www.w3.org/2000/svg" version="1.1" viewBox="0 0 66 66">
  <!-- Generator: Adobe Illustrator 28.7.1, SVG Export Plug-In . SVG Version: 1.2.0 Build 142)  -->
  <g>
    <g id="Layer_1">
      <path d="M29.9,19.1h4.6c.6,0,1.1.3,1.4.9l2.7,5.3h2.1c.9,0,1.6.7,1.6,1.5,0,0,0,0,0,0v37.1c0,.9-.7,1.5-1.5,1.5H15.9c-.9,0-1.5-.7-1.5-1.5V26.8c0-.9.7-1.5,1.5-1.5,0,0,0,0,0,0h2.1l2.7-5.3c.3-.5.8-.9,1.4-.9h4.6v-3.1h-1.5c-.9,0-1.5-.7-1.6-1.5,0,0,0,0,0,0v-6.2c0-.9.7-1.5,1.5-1.5h6.2c.9,0,1.5.7,1.6,1.5,0,0,0,0,0,0h0v6.2c0,.9-.7,1.5-1.5,1.5,0,0,0,0,0,0h-1.6v3.1ZM21.5,25.3h13.6l-1.5-3.1h-10.5l-1.5,3.1M39.1,28.4h-21.7v34h21.7V28.4ZM26.8,12.9h3.1v-3.1h-3.1v3.1ZM41.4,8.1c-.7.4-1.7.2-2.1-.6-.4-.7-.2-1.7.6-2.1,0,0,.1,0,.2,0L49.3.7c.7-.4,1.7-.2,2.1.6.4.7.2,1.7-.6,2.1,0,0-.1,0-.2,0l-9.3,4.6ZM50.7,19.3c.8.3,1.1,1.2.8,2-.3.8-1.2,1.1-2,.8h0c0,0-.1,0-.2,0l-9.3-4.6c-.8-.3-1.1-1.2-.8-2,.3-.8,1.2-1.1,2-.8,0,0,.1,0,.2,0l9.3,4.6ZM50,9.8c.9,0,1.6.6,1.6,1.5,0,.9-.6,1.6-1.5,1.6,0,0,0,0-.1,0h-9.3c-.9,0-1.5-.7-1.5-1.6,0-.8.7-1.5,1.5-1.5h9.3Z"/>
    </g>
  </g>
</svg>