<?xml version="1.0" encoding="UTF-8"?>
<svg xmlns="http://www.w3.org/2000/svg" version="1.1" xmlns:xlink="http://www.w3.org/1999/xlink" viewBox="0 0 37 31.6">
  <defs>
    <style>
      .cls-1 {
        fill: #aebed3;
      }

      .cls-2 {
        fill: none;
      }

      .cls-3 {
        clip-path: url(#clippath);
      }
    </style>
    <clipPath id="clippath">
      <rect class="cls-2" x="2.6" width="31.7" height="31.6"/>
    </clipPath>
  </defs>
  <!-- Generator: Adobe Illustrator 28.7.1, SVG Export Plug-In . SVG Version: 1.2.0 Build 142)  -->
  <g>
    <g id="Layer_1">
      <g class="cls-3">
        <path class="cls-1" d="M18.5,31.6c-1.3,0-2.3-1-2.3-2.3v-1.3c0-1.5-1.2-2.7-2.7-2.7-.7,0-1.4.3-1.9.8l-.9.9c-.9.9-2.4.9-3.3,0-.9-.9-.9-2.3,0-3.2h0s.9-.9.9-.9c1.1-1.1,1.1-2.8,0-3.9-.5-.5-1.2-.8-1.9-.8h-1.3c-1.3,0-2.3-1.1-2.3-2.4,0-1.3,1.1-2.3,2.3-2.3h1.3c1.5,0,2.7-1.2,2.7-2.7,0-.7-.3-1.4-.8-1.9l-.9-.9c-.9-.9-.9-2.4,0-3.3.9-.9,2.4-.9,3.3,0h0s.9.9.9.9c1.1,1.1,2.8,1.1,3.9,0,.5-.5.8-1.2.8-1.9v-1.3c0-1.3,1-2.3,2.3-2.3h0c1.3,0,2.3,1,2.3,2.3v1.3c0,1.5,1.2,2.7,2.7,2.7.7,0,1.4-.3,1.9-.8l.9-.9c.9-.9,2.4-.9,3.3,0,.9.9.9,2.4,0,3.3h0s-.9.9-.9.9c-1.1,1.1-1.1,2.8,0,3.9.5.5,1.2.8,1.9.8h1.4c1.3,0,2.3,1.1,2.3,2.4,0,1.3-1.1,2.3-2.3,2.3h-1.3c-1.5,0-2.7,1.2-2.7,2.7,0,.7.3,1.4.8,1.9l.9.9c.9.9.9,2.4,0,3.3-.9.9-2.3.9-3.2,0h0s-.9-.9-.9-.9c-1.1-1.1-2.8-1.1-3.9,0-.5.5-.8,1.2-.8,1.9v1.3c0,1.3-1,2.3-2.3,2.3M13.4,24c.5,0,1.1.1,1.6.3,1.5.6,2.5,2.1,2.5,3.7v1.3c0,.6.5,1,1,1s1-.5,1-1h0v-1.3c0-2.2,1.8-4,4-4,1.1,0,2.1.4,2.8,1.2l.9.9c.4.4,1.1.4,1.5,0,.4-.4.4-1,0-1.4l-.9-.9c-1.6-1.6-1.6-4.1,0-5.7.8-.8,1.8-1.2,2.8-1.2h1.3c.6,0,1-.4,1.1-1s-.4-1-1-1.1h0v-.5s0,.5,0,.5h-1.3c-2.2,0-4-1.8-4-4,0-1.1.4-2.1,1.2-2.8l.9-.9c.4-.4.4-1.1,0-1.5-.4-.4-1-.4-1.4,0l-.9.9c-1.6,1.6-4.1,1.6-5.7,0-.7-.8-1.2-1.8-1.2-2.8v-1.3c0-.6-.5-1-1-1h0c-.6,0-1,.5-1,1v1.3c0,2.2-1.8,4-4,4-1.1,0-2.1-.4-2.9-1.2l-.9-.9c-.4-.4-1.1-.4-1.5,0-.4.4-.4,1,0,1.4l.9.9c1.6,1.6,1.6,4.1,0,5.7-.8.8-1.8,1.2-2.8,1.2h-1.3c-.6,0-1,.4-1.1,1,0,.6.4,1,1,1.1h1.3c2.2,0,4,1.8,4,4,0,1.1-.4,2.1-1.2,2.8l-.9.9c-.4.4-.4,1.1,0,1.5.4.4,1,.4,1.4,0l.9-.9c.7-.8,1.8-1.2,2.8-1.2M21.7,21.2c-1.2,0-2.2-1-2.2-2.2s1-2.2,2.2-2.2,2.2,1,2.2,2.2c0,1.2-1,2.2-2.2,2.2M21.7,18.1c-.5,0-.9.4-.9.9,0,.5.4.9.9.9.5,0,.9-.4.9-.9h0c0-.5-.4-.9-.9-.9M16.4,17.5c-2.1,0-3.8-1.7-3.8-3.8s1.7-3.8,3.8-3.8,3.8,1.7,3.8,3.8c0,2.1-1.7,3.8-3.8,3.8M16.4,11.3c-1.4,0-2.5,1.1-2.5,2.5,0,1.4,1.1,2.5,2.5,2.5s2.5-1.1,2.5-2.5h0c0-1.4-1.1-2.5-2.5-2.5"/>
      </g>
    </g>
  </g>
</svg>