<svg xmlns="http://www.w3.org/2000/svg" width="58" height="58" viewBox="0 0 58 58"><g transform="translate(-335 -10755)"><circle cx="29" cy="29" r="29" transform="translate(335 10755)" fill="#aebed3"/><path d="M12.645-14.13a11.278,11.278,0,0,1,4.118.742,9.791,9.791,0,0,1,3.307,2.093,9.849,9.849,0,0,1,2.2,3.24,10.4,10.4,0,0,1,.81,4.14A10.5,10.5,0,0,1,22.208.427,10.033,10.033,0,0,1,19.8,3.78a10.872,10.872,0,0,1-3.6,2.16,12.62,12.62,0,0,1-4.41.765,11.9,11.9,0,0,1-6.165-1.62A10.609,10.609,0,0,1,1.485.765L3.96-1.395a9.758,9.758,0,0,0,3.352,3.33A8.612,8.612,0,0,0,11.835,3.2a7.8,7.8,0,0,0,2.857-.518,6.933,6.933,0,0,0,2.295-1.44A6.433,6.433,0,0,0,18.5-.99a7.462,7.462,0,0,0,.54-2.88,6.9,6.9,0,0,0-.54-2.745,6.624,6.624,0,0,0-1.462-2.16,6.478,6.478,0,0,0-2.183-1.4,7.317,7.317,0,0,0-2.7-.495,7.9,7.9,0,0,0-3.623.855A7.318,7.318,0,0,0,5.76-7.38H2.2q.045-.225.225-1.148t.45-2.25q.27-1.327.585-2.948t.63-3.285q.765-3.87,1.71-8.685H21.33v3.645H8.73L6.795-11.88A7.076,7.076,0,0,1,9.27-13.523,8.849,8.849,0,0,1,12.645-14.13Z" transform="translate(352 10794)" fill="#fff"/></g></svg>