<?xml version="1.0" encoding="UTF-8"?>
<svg id="Layer_1" xmlns="http://www.w3.org/2000/svg" version="1.1" viewBox="0 0 164.356 164.356">
  <!-- Generator: Adobe Illustrator 29.0.1, SVG Export Plug-In . SVG Version: 2.1.0 Build 192)  -->
  <defs>
    <style>
      .st0 {
        isolation: isolate;
      }

      .st1 {
        fill: #778495;
      }

      .st2 {
        fill: #2f466a;
      }
    </style>
  </defs>
  <path class="st2" d="M78.925,6.50901c5.34195-.00239,10.67055.53366,15.905,1.6,10.09662,2.06835,19.6871,6.10482,28.224,11.879,12.68799,8.56584,22.61972,20.62725,28.59201,34.723,2.01852,4.77441,3.55939,9.73695,4.60001,14.815,2.13794,10.4959,2.13794,21.31509,0,31.811-2.06766,10.09572-6.10309,19.68547-11.87601,28.222-8.56583,12.68886-20.62762,22.62132-34.724,28.59399-4.77441,2.01852-9.73695,3.55937-14.815,4.60001-10.49591,2.13794-21.31509,2.13794-31.811,0-10.09566-2.06784-19.68538-6.10326-28.222-11.87601-12.68875-8.56552-22.62122-20.62697-28.59399-34.723-2.01855-4.77441-3.5594-9.73695-4.60001-14.815-2.13794-10.4959-2.13794-21.31509,0-31.811,2.06674-10.09739,6.10185-19.68889,11.875-28.22699,8.56667-12.68753,20.62877-22.61858,34.72499-28.59,4.77473-2.01858,9.73761-3.55943,14.81599-4.6,5.23439-1.06698,10.56299-1.60369,15.90501-1.602ZM78.925,163.356c43.03568-.00111,77.92209-34.88933,77.92099-77.925-.0011-43.03568-34.88931-77.9221-77.925-77.92099-43.0349.00111-77.92099,34.88809-77.92099,77.923.04906,43.01614,34.90887,77.87505,77.925,77.923Z"/>
  <path class="st1" d="M145.249,139.284l-10.875-8.84c24.85779-30.6257,20.18198-75.60395-10.44373-100.46174-12.7253-10.32867-28.61581-15.96641-45.00528-15.96726V0c47.18445.00229,85.43314,38.2547,85.43085,85.43915-.00095,19.60914-6.74734,38.62113-19.10684,53.84485Z"/>
  <g class="st0">
    <g class="st0">
      <path class="st1" d="M45.21729,94.97559c0-1.0918.09082-2.10645.27295-3.04199.18164-.93555.50684-1.81348.9751-2.63281.46777-.81836,1.10449-1.59863,1.91113-2.33984.80518-.74121,1.8457-1.46191,3.11963-2.16406.91016-.49414,1.76807-.94922,2.57422-1.36523.80566-.41602,1.51416-.8252,2.12549-1.22852.61035-.40283,1.09814-.83154,1.4624-1.28662.36377-.4541.5459-.98145.5459-1.5791,0-.83203-.35742-1.58008-1.07227-2.24316-.71533-.66309-1.74902-.99414-3.10059-.99414-.70215,0-1.3457.09766-1.93066.29199-.58496.19531-1.11816.44336-1.59863.74121-.48145.2998-.90381.63086-1.26758.99512-.36475.36426-.68945.71484-.9751,1.05273l-2.72998-3.15918c.25977-.28613.66895-.64355,1.22852-1.07227.55859-.42871,1.23438-.83887,2.02783-1.22852.79297-.38965,1.69678-.72168,2.71045-.99414,1.01416-.27344,2.11914-.41016,3.31494-.41016,1.24805,0,2.37256.16309,3.37354.4873,1.00098.32617,1.84619.77441,2.53516,1.3457.68848.57227,1.21533,1.25488,1.57959,2.04785.36377.79297.5459,1.64453.5459,2.55469,0,.96191-.19482,1.82031-.58496,2.57324-.39014.75439-.87158,1.41748-1.44287,1.98877-.57227.57227-1.19629,1.05957-1.87207,1.46289-.67627.40332-1.30029.74707-1.87207,1.0332-.5459.25977-1.16406.56543-1.85254.91699-.68896.35059-1.35889.75391-2.0083,1.20898-.65039.45508-1.23535.94238-1.75537,1.46191-.52002.52051-.88379,1.0918-1.0918,1.71582h12.90918v3.86133h-18.05713Z"/>
      <path class="st1" d="M66.39404,82.30078c0-1.32568.25928-2.57373.77979-3.74365.52002-1.16992,1.22852-2.19043,2.12549-3.06152s1.95605-1.55371,3.17871-2.04785c1.22168-.49316,2.53467-.74023,3.93896-.74023,1.50732,0,2.88574.2793,4.13379.83789,1.24805.55957,2.31348,1.36523,3.19824,2.41797.88281,1.05273,1.56543,2.33984,2.04688,3.86133.48145,1.52051.72168,3.24268.72168,5.1665,0,2.65234-.25391,4.97266-.76074,6.96191s-1.21582,3.65234-2.125,4.99219c-.91016,1.33887-2.02197,2.3457-3.33447,3.02246-1.31299.67578-2.7627,1.01367-4.34863,1.01367-1.76807,0-3.38672-.40332-4.85547-1.20898-1.46924-.80566-2.65869-1.9502-3.56836-3.43164l2.53516-2.65234c.59766,1.0918,1.42334,1.95605,2.47607,2.59375,1.05322.63672,2.21631.95508,3.49072.95508,1.9502,0,3.50342-.8252,4.66064-2.47656,1.15625-1.65039,1.76074-3.9707,1.81348-6.96094-.5459,1.16992-1.39795,2.09277-2.55469,2.76855-1.15723.67676-2.47656,1.01465-3.9585,1.01465-1.35205,0-2.61279-.24023-3.78271-.72168-1.17041-.48145-2.18408-1.1377-3.04199-1.96973-.8584-.83203-1.53467-1.81348-2.02832-2.94434-.49414-1.13086-.74072-2.34668-.74072-3.64648ZM76.37793,76.37354c-.80615,0-1.56689.15527-2.28174.46777-.71533.31152-1.33936.74121-1.87158,1.28711-.5332.5459-.95557,1.17676-1.26758,1.8916s-.46826,1.47559-.46826,2.28076c0,.80566.15625,1.55957.46826,2.26172s.73438,1.32031,1.26758,1.85254c.53223.5332,1.15625.95508,1.87158,1.26758.71484.31152,1.47559.46777,2.28174.46777.80566,0,1.56592-.15625,2.28125-.46777.71484-.3125,1.33887-.73438,1.87207-1.26758.53271-.53223.95557-1.15039,1.26758-1.85254.31152-.70215.46777-1.45605.46777-2.26172,0-.80518-.15625-1.56592-.46777-2.28076-.31201-.71484-.73486-1.3457-1.26758-1.8916-.5332-.5459-1.15723-.97559-1.87207-1.28711-.71533-.3125-1.47559-.46777-2.28125-.46777Z"/>
      <path class="st1" d="M95.64355,78.479c-.8584,0-1.66406-.14941-2.41797-.44824-.75488-.29883-1.41113-.70801-1.96973-1.22852-.55957-.51953-1.00098-1.13086-1.32617-1.83301s-.4873-1.45605-.4873-2.26172.16211-1.56055.4873-2.2627.7666-1.31934,1.32617-1.85254c.55859-.53223,1.21484-.94824,1.96973-1.24805.75391-.29785,1.55957-.44824,2.41797-.44824.85742,0,1.66309.15039,2.41797.44824.75391.2998,1.41016.71582,1.96973,1.24805.55859.5332,1,1.15039,1.3252,1.85254s.48828,1.45703.48828,2.2627-.16309,1.55957-.48828,2.26172-.7666,1.31348-1.3252,1.83301c-.55957.52051-1.21582.92969-1.96973,1.22852-.75488.29883-1.56055.44824-2.41797.44824ZM91.19727,93.41602l10.95898-12.98682,10.2959-13.37695,2.02832,1.75488-10.76367,12.83105-10.53027,13.57178-1.98926-1.79395ZM95.64355,76.25635c.44141,0,.85059-.09766,1.22852-.29297.37598-.19434.70801-.4541.99414-.78027.28613-.32422.51367-.70117.68262-1.13086.16895-.42871.25391-.87695.25391-1.34473,0-.49414-.08496-.96191-.25391-1.4043s-.39648-.8252-.68262-1.15039-.62402-.57812-1.01367-.76074c-.39062-.18164-.79395-.27344-1.20898-.27344-.88477,0-1.63184.3584-2.24316,1.07324-.61035.71484-.91602,1.55371-.91602,2.51562,0,.49414.08398.95508.25391,1.38379.16797.42969.39551.80664.68164,1.13086.28613.32617.61816.5791.99512.76074.37598.18262.78613.27344,1.22852.27344ZM109.99512,95.36523c-.85742,0-1.66406-.14941-2.41797-.44824s-1.41016-.71484-1.96973-1.24805c-.55859-.53223-1.00098-1.15039-1.3252-1.85254-.32617-.70215-.48828-1.45605-.48828-2.26172s.16211-1.56055.48828-2.26172c.32422-.70215.7666-1.3125,1.3252-1.83301.55957-.52051,1.21582-.92969,1.96973-1.22852s1.56055-.44922,2.41797-.44922c.8584,0,1.66406.15039,2.41797.44922s1.41016.70801,1.96973,1.22852c.55859.52051,1.00098,1.13086,1.32617,1.83301.3252.70117.4873,1.45605.4873,2.26172s-.16211,1.55957-.4873,2.26172-.76758,1.32031-1.32617,1.85254c-.55957.5332-1.21582.94922-1.96973,1.24805s-1.55957.44824-2.41797.44824ZM109.99512,93.14258c.88379,0,1.63184-.35059,2.24316-1.05273.61035-.70215.91602-1.54688.91602-2.53516,0-.49414-.08496-.95605-.25391-1.38477s-.40332-.80566-.70117-1.13086c-.2998-.3252-.6377-.57812-1.01465-.76074-.37695-.18164-.77344-.27246-1.18945-.27246-.44238,0-.85156.09766-1.22852.29199-.37695.19531-.70801.45508-.99414.78027s-.51367.70215-.68262,1.13086-.25391.87793-.25391,1.3457c0,.49414.08496.96191.25391,1.4043s.39648.8252.68262,1.15039.61719.5791.99414.75977c.37695.18262.78613.27344,1.22852.27344Z"/>
    </g>
  </g>
</svg>