<?xml version="1.0" encoding="UTF-8"?>
<svg xmlns="http://www.w3.org/2000/svg" version="1.1" xmlns:xlink="http://www.w3.org/1999/xlink" viewBox="0 0 37 28.5">
  <defs>
    <style>
      .cls-1 {
        fill: #aebed3;
      }

      .cls-2 {
        fill: none;
      }

      .cls-3 {
        clip-path: url(#clippath);
      }
    </style>
    <clipPath id="clippath">
      <rect class="cls-2" x="5.4" width="26.1" height="28.5"/>
    </clipPath>
  </defs>
  <!-- Generator: Adobe Illustrator 28.7.1, SVG Export Plug-In . SVG Version: 1.2.0 Build 142)  -->
  <g>
    <g id="Layer_1">
      <g class="cls-3">
        <g>
          <path class="cls-1" d="M30.5,0H13.2c-.3,0-.5.2-.5.5s.2.5.5.5h17.3s0,0,0,0v1.4s0,0,0,0H6.5s0,0,0,0c0,0,0,0,0,0v-1.4s0,0,0,0h6.7c.3,0,.5-.2.5-.4,0-.3-.2-.5-.4-.5,0,0,0,0,0,0h-6.7c-.6,0-1,.4-1,1v1.4c0,.6.5,1,1,1h.6v24.1c0,.6.5,1,1,1h21c.6,0,1-.5,1-1V3.4h.6c.6,0,1-.5,1-1v-1.4c0-.6-.5-1-1-1ZM20.5,27.6h-1.5v-4.6h1.5v4.6ZM15.4,22.1c0,0-.1,0-.1-.1,0,0,0,0,0,0v-1.3c0,0,0-.1.1-.1,0,0,0,0,0,0h6.2c0,0,.1,0,.1.1,0,0,0,0,0,0v1.3c0,0,0,.1-.1.1,0,0,0,0,0,0h-6.2ZM18,27.6h-1.5v-4.6h1.5v4.6ZM29.1,27.5c0,0,0,.1-.1.1h-7.6v-4.6h.2c.6,0,1-.5,1-1v-1.3c0-.6-.5-1-1-1h-6.2c-.6,0-1,.5-1,1v1.3c0,.6.5,1,1,1h.2v4.6h-7.6c0,0,0,0,0-.1h0V3.4h21.2v24.1ZM10.5,8.3h1.3c.6,0,1-.5,1-1v-1.3c0-.6-.5-1-1-1h-1.3c-.6,0-1,.5-1,1v1.3c0,.6.5,1,1,1M10.4,6c0,0,0-.1.1-.1,0,0,0,0,0,0h1.3c0,0,.1,0,.1.1,0,0,0,0,0,0v1.3c0,0,0,.1-.1.1,0,0,0,0,0,0h-1.3c0,0-.1,0-.1-.1,0,0,0,0,0,0v-1.3ZM15.4,8.3h1.3c.6,0,1-.5,1-1v-1.3c0-.6-.5-1-1-1h-1.3c-.6,0-1,.5-1,1v1.3c0,.6.5,1,1,1M15.3,6c0,0,0-.1.1-.1,0,0,0,0,0,0h1.3c0,0,.1,0,.1.1,0,0,0,0,0,0v1.3c0,0,0,.1-.1.1,0,0,0,0,0,0h-1.3c0,0-.1,0-.1-.1,0,0,0,0,0,0v-1.3ZM20.3,8.3h1.3c.6,0,1-.5,1-1v-1.3c0-.6-.5-1-1-1h-1.3c-.6,0-1,.5-1,1v1.3c0,.6.5,1,1,1M20.2,6c0,0,0-.1.1-.1,0,0,0,0,0,0h1.3c0,0,.1,0,.1.1,0,0,0,0,0,0v1.3c0,0,0,.1-.1.1,0,0,0,0,0,0h-1.3c0,0-.1,0-.1-.1,0,0,0,0,0,0v-1.3ZM25.2,8.3h1.3c.6,0,1-.5,1-1v-1.3c0-.6-.5-1-1-1h-1.3c-.6,0-1,.5-1,1v1.3c0,.6.5,1,1,1M25.1,6c0,0,0-.1.1-.1,0,0,0,0,0,0h1.3c0,0,.1,0,.1.1,0,0,0,0,0,0v1.3c0,0,0,.1-.1.1,0,0,0,0,0,0h-1.3c0,0-.1,0-.1-.1,0,0,0,0,0,0v-1.3ZM10.5,13.2h1.3c.6,0,1-.5,1-1v-1.3c0-.6-.5-1-1-1h-1.3c-.6,0-1,.5-1,1v1.3c0,.6.5,1,1,1M10.4,10.9c0,0,0-.1.1-.1,0,0,0,0,0,0h1.3c0,0,.1,0,.1.1,0,0,0,0,0,0v1.3c0,0,0,.1-.1.1,0,0,0,0,0,0h-1.3c0,0-.1,0-.1-.1,0,0,0,0,0,0v-1.3ZM15.4,13.2h1.3c.6,0,1-.5,1-1v-1.3c0-.6-.5-1-1-1h-1.3c-.6,0-1,.5-1,1v1.3c0,.6.5,1,1,1M15.3,10.9c0,0,0-.1.1-.1,0,0,0,0,0,0h1.3c0,0,.1,0,.1.1,0,0,0,0,0,0v1.3c0,0,0,.1-.1.1,0,0,0,0,0,0h-1.3c0,0-.1,0-.1-.1,0,0,0,0,0,0v-1.3ZM20.3,13.2h1.3c.6,0,1-.5,1-1v-1.3c0-.6-.5-1-1-1h-1.3c-.6,0-1,.5-1,1v1.3c0,.6.5,1,1,1M20.2,10.9c0,0,0-.1.1-.1,0,0,0,0,0,0h1.3c0,0,.1,0,.1.1,0,0,0,0,0,0v1.3c0,0,0,.1-.1.1,0,0,0,0,0,0h-1.3c0,0-.1,0-.1-.1,0,0,0,0,0,0v-1.3ZM25.2,13.2h1.3c.6,0,1-.5,1-1v-1.3c0-.6-.5-1-1-1h-1.3c-.6,0-1,.5-1,1v1.3c0,.6.5,1,1,1M25.1,10.9c0,0,0-.1.1-.1,0,0,0,0,0,0h1.3c0,0,.1,0,.1.1,0,0,0,0,0,0v1.3c0,0,0,.1-.1.1,0,0,0,0,0,0h-1.3c0,0-.1,0-.1-.1,0,0,0,0,0,0v-1.3ZM10.5,18.1h1.3c.6,0,1-.5,1-1v-1.3c0-.6-.5-1-1-1h-1.3c-.6,0-1,.5-1,1v1.3c0,.6.5,1,1,1M10.4,15.8c0,0,0-.1.1-.1,0,0,0,0,0,0h1.3c0,0,.1,0,.1.1,0,0,0,0,0,0v1.3c0,0,0,.1-.1.1,0,0,0,0,0,0h-1.3c0,0-.1,0-.1-.1,0,0,0,0,0,0v-1.3ZM15.4,18.1h1.3c.6,0,1-.5,1-1v-1.3c0-.6-.5-1-1-1h-1.3c-.6,0-1,.5-1,1v1.3c0,.6.5,1,1,1M15.3,15.8c0,0,0-.1.1-.1,0,0,0,0,0,0h1.3c0,0,.1,0,.1.1,0,0,0,0,0,0v1.3c0,0,0,.1-.1.1,0,0,0,0,0,0h-1.3c0,0-.1,0-.1-.1,0,0,0,0,0,0v-1.3ZM20.3,18.1h1.3c.6,0,1-.5,1-1v-1.3c0-.6-.5-1-1-1h-1.3c-.6,0-1,.5-1,1v1.3c0,.6.5,1,1,1M20.2,15.8c0,0,0-.1.1-.1,0,0,0,0,0,0h1.3c0,0,.1,0,.1.1,0,0,0,0,0,0v1.3c0,0,0,.1-.1.1,0,0,0,0,0,0h-1.3c0,0-.1,0-.1-.1,0,0,0,0,0,0v-1.3ZM25.2,18.1h1.3c.6,0,1-.5,1-1v-1.3c0-.6-.5-1-1-1h-1.3c-.6,0-1,.5-1,1v1.3c0,.6.5,1,1,1M25.1,15.8c0,0,0-.1.1-.1,0,0,0,0,0,0h1.3c0,0,.1,0,.1.1,0,0,0,0,0,0v1.3c0,0,0,.1-.1.1,0,0,0,0,0,0h-1.3c0,0-.1,0-.1-.1,0,0,0,0,0,0v-1.3ZM10.5,23h1.3c.6,0,1-.5,1-1v-1.3c0-.6-.5-1-1-1h-1.3c-.6,0-1,.5-1,1v1.3c0,.6.5,1,1,1M10.4,20.7c0,0,0-.1.1-.1,0,0,0,0,0,0h1.3c0,0,.1,0,.1.1,0,0,0,0,0,0v1.3c0,0,0,.1-.1.1,0,0,0,0,0,0h-1.3c0,0-.1,0-.1-.1,0,0,0,0,0,0v-1.3ZM25.2,23h1.3c.6,0,1-.5,1-1v-1.3c0-.6-.5-1-1-1h-1.3c-.6,0-1,.5-1,1v1.3c0,.6.5,1,1,1M25.1,20.7c0,0,0-.1.1-.1,0,0,0,0,0,0h1.3c0,0,.1,0,.1.1,0,0,0,0,0,0v1.3c0,0,0,.1-.1.1,0,0,0,0,0,0h-1.3c0,0-.1,0-.1-.1,0,0,0,0,0,0v-1.3Z"/>
          <path class="cls-1" d="M6.5-.2h24.1c.7,0,1.2.5,1.2,1.2v1.4c0,.7-.5,1.2-1.2,1.2h-.4v23.9c0,.7-.5,1.2-1.2,1.2H8c-.7,0-1.2-.5-1.2-1.2V3.6h-.4c-.7,0-1.2-.5-1.2-1.2v-1.4c0-.7.5-1.2,1.2-1.2ZM12.6.2h-6.2c-.4,0-.8.4-.8.8v1.4c0,.4.4.8.8.8h.8v24.3c0,.5.4.8.8.8h21c.5,0,.8-.4.8-.8V3.2h.8c.4,0,.8-.4.8-.8v-1.4c0-.4-.3-.8-.8-.8H13.8c0,0,0,.2,0,.3,0,0,0,.2,0,.3h16.8c.2,0,.3.1.3.3v1.4c0,.2-.1.3-.3.3H6.5c-.2,0-.3-.1-.3-.3,0,0,0,0,0,0v-1.4c0-.2.1-.3.3-.3h6.2c0,0,0-.2,0-.3,0,0,0-.2,0-.3h0ZM13.2.7c.1,0,.2-.2.2-.3,0-.1-.1-.2-.2-.2-.1,0-.2.2-.2.3,0,.1.1.2.2.2h0ZM30.4,1.1H6.6v1.1h23.9v-1.1ZM7.7,3.2h21.6v24.3c0,.2-.1.3-.3.3h-7.8v-5h.4c.5,0,.8-.4.8-.8,0,0,0,0,0,0v-1.3c0-.5-.4-.8-.8-.8h-6.2c-.5,0-.8.4-.8.8v1.3c0,.5.4.8.8.8h.4v5h-7.8c-.2,0-.3-.1-.3-.3V3.2ZM28.9,3.6H8.1v23.8h7.3v-4.2c-.7,0-1.2-.6-1.2-1.2v-1.3c0-.7.6-1.2,1.2-1.2h6.2c.7,0,1.2.6,1.2,1.2h0v1.3c0,.7-.5,1.2-1.2,1.2v4.2h7.3V3.6ZM10.5,4.7h1.3c.7,0,1.2.6,1.2,1.2v1.3c0,.7-.6,1.2-1.2,1.2h-1.3c-.7,0-1.2-.6-1.2-1.2v-1.3c0-.7.6-1.2,1.2-1.2ZM11.8,8.1c.5,0,.8-.4.8-.8v-1.3c0-.5-.4-.8-.8-.8h-1.3c-.5,0-.8.4-.8.8v1.3c0,.5.4.8.8.8h1.3ZM15.4,4.7h1.3c.7,0,1.2.6,1.2,1.2v1.3c0,.7-.6,1.2-1.2,1.2h-1.3c-.7,0-1.2-.6-1.2-1.2v-1.3c0-.7.6-1.2,1.2-1.2ZM16.7,8.1c.5,0,.8-.4.8-.8v-1.3c0-.5-.4-.8-.8-.8h-1.3c-.5,0-.8.4-.8.8v1.3c0,.5.4.8.8.8h1.3ZM20.3,4.7h1.3c.7,0,1.2.6,1.2,1.2v1.3c0,.7-.6,1.2-1.2,1.2h-1.3c-.7,0-1.2-.6-1.2-1.2v-1.3c0-.7.6-1.2,1.2-1.2ZM21.6,8.1c.5,0,.8-.4.8-.8v-1.3c0-.5-.4-.8-.8-.8h-1.3c-.5,0-.8.4-.8.8v1.3c0,.5.4.8.8.8h1.3ZM25.2,4.7h1.3c.7,0,1.2.6,1.2,1.2v1.3c0,.7-.6,1.2-1.2,1.2h-1.3c-.7,0-1.2-.6-1.2-1.2v-1.3c0-.7.6-1.2,1.2-1.2ZM26.5,8.1c.5,0,.8-.4.8-.8v-1.3c0-.5-.4-.8-.8-.8h-1.3c-.5,0-.8.4-.8.8v1.3c0,.5.4.8.8.8h1.3ZM10.5,5.6h1.3c.2,0,.3.1.3.3v1.3c0,.2-.1.3-.3.3h-1.3c-.2,0-.3-.1-.3-.3v-1.3c0-.2.1-.3.3-.3h0ZM11.7,6h-1.1v1.1h1.1v-1.1ZM15.4,5.6h1.3c.2,0,.3.1.3.3v1.3c0,.2-.1.3-.3.3h-1.3c-.2,0-.3-.1-.3-.3v-1.3c0-.2.1-.3.3-.3h0ZM16.6,6h-1.1v1.1h1.1v-1.1ZM20.3,5.6h1.3c.2,0,.3.1.3.3h0v1.3c0,.2-.1.3-.3.3h-1.3c-.2,0-.3-.1-.3-.3v-1.3c0-.2.1-.3.3-.3h0ZM21.5,6h-1.1v1.1h1.1v-1.1ZM25.2,5.6h1.3c.2,0,.3.1.3.3h0v1.3c0,.2-.1.3-.3.3h-1.3c-.2,0-.3-.1-.3-.3h0v-1.3c0-.2.1-.3.3-.3h0ZM26.4,6h-1.1v1.1h1.1v-1.1ZM10.5,9.6h1.3c.7,0,1.2.6,1.2,1.2v1.3c0,.7-.6,1.2-1.2,1.2h-1.3c-.7,0-1.2-.6-1.2-1.2v-1.3c0-.7.6-1.2,1.2-1.2ZM11.8,13c.5,0,.8-.4.8-.8v-1.3c0-.5-.4-.8-.8-.8h-1.3c-.5,0-.8.4-.8.8v1.3c0,.5.4.8.8.8h1.3ZM15.4,9.6h1.3c.7,0,1.2.6,1.2,1.2v1.3c0,.7-.6,1.2-1.2,1.2h-1.3c-.7,0-1.2-.6-1.2-1.2v-1.3c0-.7.6-1.2,1.2-1.2ZM16.7,13c.5,0,.8-.4.8-.8v-1.3c0-.5-.4-.8-.8-.8h-1.3c-.5,0-.8.4-.8.8v1.3c0,.5.4.8.8.8h1.3ZM20.3,9.6h1.3c.7,0,1.2.6,1.2,1.2h0v1.3c0,.7-.6,1.2-1.2,1.2h-1.3c-.7,0-1.2-.6-1.2-1.2v-1.3c0-.7.6-1.2,1.2-1.2ZM21.6,13c.5,0,.8-.4.8-.8,0,0,0,0,0,0v-1.3c0-.5-.4-.8-.8-.8h-1.3c-.5,0-.8.4-.8.8v1.3c0,.5.4.8.8.8h1.3ZM25.2,9.6h1.3c.7,0,1.2.6,1.2,1.2v1.3c0,.7-.6,1.2-1.2,1.2h-1.3c-.7,0-1.2-.6-1.2-1.2v-1.3c0-.7.6-1.2,1.2-1.2ZM26.5,13c.5,0,.8-.4.8-.8v-1.3c0-.5-.4-.8-.8-.8h-1.3c-.5,0-.8.4-.8.8v1.3c0,.5.4.8.8.8h1.3ZM10.5,10.5h1.3c.2,0,.3.1.3.3v1.3c0,.2-.1.3-.3.3h-1.3c-.2,0-.3-.1-.3-.3v-1.3c0-.2.1-.3.3-.3h0ZM11.7,10.9h-1.1v1.1h1.1v-1.1ZM15.4,10.5h1.3c.2,0,.3.1.3.3v1.3c0,.2-.1.3-.3.3h-1.3c-.2,0-.3-.1-.3-.3v-1.3c0-.2.1-.3.3-.3h0ZM16.6,10.9h-1.1v1.1h1.1v-1.1ZM20.3,10.5h1.3c.2,0,.3.1.3.3h0v1.3c0,.2-.1.3-.3.3h-1.3c-.2,0-.3-.1-.3-.3v-1.3c0-.2.1-.3.3-.3h0ZM21.5,10.9h-1.1v1.1h1.1v-1.1ZM25.2,10.5h1.3c.2,0,.3.1.3.3h0v1.3c0,.2-.1.3-.3.3h-1.3c-.2,0-.3-.1-.3-.3h0v-1.3c0-.2.1-.3.3-.3h0ZM26.4,10.9h-1.1v1.1h1.1v-1.1ZM10.5,14.5h1.3c.7,0,1.2.6,1.2,1.2v1.3c0,.7-.6,1.2-1.2,1.2h-1.3c-.7,0-1.2-.6-1.2-1.2v-1.3c0-.7.6-1.2,1.2-1.2ZM11.8,17.9c.5,0,.8-.4.8-.8v-1.3c0-.5-.4-.8-.8-.8h-1.3c-.5,0-.8.4-.8.8v1.3c0,.5.4.8.8.8h1.3ZM15.4,14.5h1.3c.7,0,1.2.6,1.2,1.2v1.3c0,.7-.6,1.2-1.2,1.2h-1.3c-.7,0-1.2-.6-1.2-1.2v-1.3c0-.7.6-1.2,1.2-1.2ZM16.7,17.9c.5,0,.8-.4.8-.8v-1.3c0-.5-.4-.8-.8-.8h-1.3c-.5,0-.8.4-.8.8v1.3c0,.5.4.8.8.8h1.3ZM20.3,14.5h1.3c.7,0,1.2.6,1.2,1.2v1.3c0,.7-.6,1.2-1.2,1.2h-1.3c-.7,0-1.2-.6-1.2-1.2v-1.3c0-.7.6-1.2,1.2-1.2ZM21.6,17.9c.5,0,.8-.4.8-.8,0,0,0,0,0,0v-1.3c0-.5-.4-.8-.8-.8h-1.3c-.5,0-.8.4-.8.8v1.3c0,.5.4.8.8.8h1.3ZM25.2,14.5h1.3c.7,0,1.2.6,1.2,1.2v1.3c0,.7-.6,1.2-1.2,1.2h-1.3c-.7,0-1.2-.6-1.2-1.2v-1.3c0-.7.6-1.2,1.2-1.2ZM26.5,17.9c.5,0,.8-.4.8-.8v-1.3c0-.5-.4-.8-.8-.8h-1.3c-.5,0-.8.4-.8.8v1.3c0,.5.4.8.8.8h1.3ZM10.5,15.4h1.3c.2,0,.3.1.3.3v1.3c0,.2-.1.3-.3.3h-1.3c-.2,0-.3-.1-.3-.3h0v-1.3c0-.2.1-.3.3-.3h0ZM11.7,15.8h-1.1v1.1h1.1v-1.1ZM15.4,15.4h1.3c.2,0,.3.1.3.3v1.3c0,.2-.1.3-.3.3h-1.3c-.2,0-.3-.1-.3-.3h0v-1.3c0-.2.1-.3.3-.3h0ZM16.6,15.8h-1.1v1.1h1.1v-1.1ZM20.3,15.4h1.3c.2,0,.3.1.3.3h0v1.3c0,.2-.1.3-.3.3h-1.3c-.2,0-.3-.1-.3-.3h0v-1.3c0-.2.1-.3.3-.3h0ZM21.5,15.8h-1.1v1.1h1.1v-1.1ZM25.2,15.4h1.3c.2,0,.3.1.3.3h0v1.3c0,.2-.1.3-.3.3h-1.3c-.2,0-.3-.1-.3-.3h0v-1.3c0-.2.1-.3.3-.3h0ZM26.4,15.8h-1.1v1.1h1.1v-1.1ZM10.5,19.4h1.3c.7,0,1.2.6,1.2,1.2v1.3c0,.7-.6,1.2-1.2,1.2h-1.3c-.7,0-1.2-.6-1.2-1.2v-1.3c0-.7.6-1.2,1.2-1.2ZM11.8,22.8c.5,0,.8-.4.8-.8v-1.3c0-.5-.4-.8-.8-.8h-1.3c-.5,0-.8.4-.8.8v1.3c0,.5.4.8.8.8h1.3ZM25.2,19.4h1.3c.7,0,1.2.6,1.2,1.2v1.3c0,.7-.6,1.2-1.2,1.2h-1.3c-.7,0-1.2-.6-1.2-1.2v-1.3c0-.7.6-1.2,1.2-1.2ZM26.5,22.8c.5,0,.8-.4.8-.8v-1.3c0-.5-.4-.8-.8-.8h-1.3c-.5,0-.8.4-.8.8v1.3c0,.5.4.8.8.8h1.3ZM15.4,20.3h6.2c.2,0,.3.1.3.3h0v1.3c0,.2-.1.3-.3.3h-6.2c-.2,0-.3-.1-.3-.3h0v-1.3c0-.2.1-.3.3-.3h0ZM21.5,20.7h-6v1.1h6v-1.1ZM10.5,20.3h1.3c.2,0,.3.1.3.3h0v1.3c0,.2-.1.3-.3.3h-1.3c-.2,0-.3-.1-.3-.3h0v-1.3c0-.2.1-.3.3-.3h0,0ZM11.7,20.7h-1.1v1.1h1.1v-1.1ZM25.2,20.3h1.3c.2,0,.3.1.3.3h0v1.3c0,.2-.1.3-.3.3h-1.3c-.2,0-.3-.1-.3-.3h0v-1.3c0-.2.1-.3.3-.3h0,0ZM26.4,20.7h-1.1v1.1h1.1v-1.1ZM16.3,22.8h1.9v5h-1.9v-5ZM17.8,23.2h-1.1v4.2h1.1v-4.2ZM18.8,22.8h1.9v5h-1.9v-5ZM20.3,23.2h-1.1v4.2h1.1v-4.2Z"/>
        </g>
      </g>
    </g>
  </g>
</svg>