<?xml version="1.0" encoding="UTF-8"?>
<svg xmlns="http://www.w3.org/2000/svg" version="1.1" xmlns:xlink="http://www.w3.org/1999/xlink" viewBox="0 0 37 31.2">
  <defs>
    <style>
      .cls-1 {
        fill: #aebed3;
      }

      .cls-2 {
        fill: none;
      }

      .cls-3 {
        clip-path: url(#clippath);
      }
    </style>
    <clipPath id="clippath">
      <rect class="cls-2" x="2.5" width="32" height="31.2"/>
    </clipPath>
  </defs>
  <!-- Generator: Adobe Illustrator 28.7.1, SVG Export Plug-In . SVG Version: 1.2.0 Build 142)  -->
  <g>
    <g id="Layer_1">
      <g class="cls-3">
        <path class="cls-1" d="M24.7,1.8l.7,1.6c.2.6.8.9,1.4.9h1.8c1.7,0,3.1,1.4,3,3.1,0,.2,0,.4,0,.6l-.4,1.8c0,.3,0,.6,0,.9h0c.1.3.3.5.5.7l1.4,1.1c1.4,1,1.7,2.9.7,4.3-.1.2-.3.3-.4.5l-1.3,1.2c-.5.4-.6,1-.4,1.6l.5,1.7c.5,1.6-.4,3.3-2,3.8-.2,0-.4.1-.6.1l-1.8.2c-.6,0-1.1.5-1.3,1.1l-.6,1.7c-.3.9-1,1.6-1.8,1.9,0,0,0,0,0,0-.8.3-1.8.2-2.5-.2l-1.6-.9c-.5-.3-1.2-.3-1.7,0l-1.5,1c-1.4,1-3.3.7-4.3-.7-.1-.2-.2-.3-.3-.5l-.7-1.6c-.2-.6-.8-.9-1.4-.9h-1.8c-.5,0-.9-.1-1.3-.3-.4-.2-.8-.5-1-.8-.6-.7-.8-1.6-.6-2.5l.4-1.8c0-.3,0-.6,0-.9h0c-.1-.3-.3-.5-.5-.7l-1.4-1.1c-1.4-1-1.7-2.9-.7-4.3.1-.2.3-.3.4-.5l1.3-1.2c.5-.4.6-1,.4-1.6l-.5-1.7c-.4-1.3.1-2.8,1.3-3.5,0,0,0,0,0,0,.4-.2.8-.4,1.2-.4l1.8-.2c.6,0,1.1-.5,1.3-1.1l.6-1.7c.3-.9,1-1.6,1.8-1.9h0c.9-.3,1.8-.3,2.6.2l1.6.9c.3.1.6.2.9.2.3,0,.6-.1.8-.3l1.5-1c1.4-1,3.3-.7,4.3.7.1.2.2.3.3.5ZM18.5,6.8c-4.9,0-8.8,3.9-8.8,8.8,0,4.9,3.9,8.8,8.8,8.8,4.9,0,8.8-3.9,8.8-8.8,0-2.3-.9-4.6-2.6-6.2-1.7-1.7-3.9-2.6-6.2-2.6M11.2,8.3c4-4,10.6-4,14.6,0,4,4,4,10.6,0,14.6-4,4-10.6,4-14.6,0-1.9-1.9-3-4.6-3-7.3,0-2.7,1.1-5.4,3-7.3ZM12.5,15.7c-.3-.3-.3-.8,0-1.1.3-.3.7-.3,1,0l4,4,5.8-7.7c.2-.3.7-.4,1-.2.3.2.4.7.2,1.1l-6.3,8.4h0s0,0,0,0c-.3.3-.8.3-1.1,0l-4.6-4.6h0ZM24,4.1l-.7-1.6c-.3-.8-1.3-1.1-2.1-.8-.1,0-.2.1-.3.2l-1.5,1c-1,.7-2.3.8-3.3.2l-1.6-.9c-.4-.2-.9-.3-1.3,0h0c-.4.2-.8.5-.9,1l-.6,1.7c-.4,1.1-1.4,1.9-2.6,2.1l-1.8.2c-.2,0-.4,0-.6.2h0c-.2.1-.4.3-.5.5-.1.2-.2.4-.2.6,0,.2,0,.5,0,.7l.5,1.7c.4,1.1,0,2.4-.9,3.2l-1.3,1.2c-.2.2-.3.3-.4.6-.2.4-.1.9,0,1.3.1.2.3.4.5.5l1.4,1.1c.5.3.8.8,1,1.3,0,0,0,0,0,0,.2.5.3,1.1.1,1.7l-.4,1.8c-.2.8.4,1.7,1.2,1.9.1,0,.2,0,.3,0h1.8c1.2,0,2.3.7,2.8,1.8l.7,1.6c.3.8,1.3,1.1,2.1.8.1,0,.2-.1.3-.2l1.5-1c1-.7,2.3-.8,3.3-.2l1.6.9c.2.1.4.2.7.2.2,0,.4,0,.6,0h0c.4-.2.8-.5.9-1l.6-1.7c.4-1.1,1.4-1.9,2.6-2.1l1.8-.2c.5,0,.9-.3,1.1-.7.1-.2.2-.4.2-.6,0-.2,0-.5,0-.7l-.5-1.7c-.4-1.1,0-2.4.9-3.2l1.3-1.2c.2-.2.3-.3.4-.6,0-.2.1-.5.1-.7,0-.5-.2-.9-.6-1.2l-1.4-1.1c-.4-.3-.8-.8-1-1.3,0,0,0,0,0,0-.2-.5-.3-1.1-.1-1.7l.4-1.8c.1-.5,0-.9-.3-1.3-.1-.2-.3-.3-.5-.4-.2,0-.4-.2-.7-.2h-1.8c-1.2,0-2.3-.7-2.8-1.8h0Z"/>
      </g>
    </g>
  </g>
</svg>