<svg xmlns="http://www.w3.org/2000/svg" width="81.693" height="81.696" viewBox="0 0 81.693 81.696"><g transform="translate(-788.885 -5027.02)"><path d="M2.011,40.352a1.005,1.005,0,1,1-2.011,0A40.351,40.351,0,0,1,74.7,19.177l.962-4.1a1,1,0,1,1,1.95.459l-1.543,6.57a1.008,1.008,0,0,1-.979.771,1.084,1.084,0,0,1-.234-.026l-6.57-1.543a1,1,0,0,1,.459-1.95l4.325,1.014A38.338,38.338,0,0,0,2.011,40.352Zm77.677-1.006a1.006,1.006,0,0,0-1.006,1.006A38.341,38.341,0,0,1,6.7,58.736l4.273,1.222a1,1,0,0,0,.555-1.924L5.033,56.17a1.014,1.014,0,0,0-.763.087.993.993,0,0,0-.477.6L1.93,63.347a1,1,0,0,0,.685,1.239,1.031,1.031,0,0,0,.277.043,1,1,0,0,0,.962-.728l1.161-4.048a40.35,40.35,0,0,0,75.678-19.5,1.006,1.006,0,0,0-1.006-1.006Zm-39.342-21.5a22.5,22.5,0,1,1-22.5,22.5A22.532,22.532,0,0,1,40.345,17.851Zm0,2.011a20.49,20.49,0,1,0,20.49,20.49,20.514,20.514,0,0,0-20.49-20.49M31.469,38.653a1.005,1.005,0,1,0-1.421,1.421l6.96,6.96a1,1,0,0,0,1.421,0l12.2-12.2a1.005,1.005,0,0,0-1.421-1.421L37.719,44.9Z" transform="translate(789.385 5027.516)" fill="#778495"/><path d="M40.348-.5a40.9,40.9,0,0,1,34.134,18.4l.691-2.946a1.5,1.5,0,1,1,2.923.691l-1.542,6.567a1.508,1.508,0,0,1-1.466,1.157,1.587,1.587,0,0,1-.342-.038H74.74L68.17,21.8a1.508,1.508,0,0,1-.933-.672,1.479,1.479,0,0,1-.184-1.137,1.5,1.5,0,0,1,1.808-1.114l3.13.734A37.837,37.837,0,0,0,2.511,40.352v.5H2.426a1.505,1.505,0,0,1-2.926-.5A40.836,40.836,0,0,1,40.348-.5Zm34.56,20.965-.636-1.03A40.147,40.147,0,0,0,40.348.5,39.836,39.836,0,0,0,.5,40.352a.505.505,0,1,0,1.011,0v-.5h0A38.841,38.841,0,0,1,73.5,20.112l.623,1.02-5.489-1.287a.5.5,0,0,0-.118-.015.509.509,0,0,0-.486.391.486.486,0,0,0,.061.374.511.511,0,0,0,.316.228l6.563,1.541a.585.585,0,0,0,.124.014.509.509,0,0,0,.494-.39l1.542-6.565a.5.5,0,0,0-.376-.6.489.489,0,0,0-.115-.014.51.51,0,0,0-.486.391ZM40.345,17.351a23,23,0,1,1-23,23A23.027,23.027,0,0,1,40.345,17.351Zm0,45a22,22,0,1,0-22-22A22.026,22.026,0,0,0,40.345,62.353Zm0-42.992a20.99,20.99,0,1,1-20.99,20.99A21.014,21.014,0,0,1,40.345,19.361Zm0,40.981a19.99,19.99,0,1,0-19.99-19.99A20.013,20.013,0,0,0,40.345,60.342Zm9.578-27.726a1.5,1.5,0,0,1,1.064,2.567l-12.2,12.2a1.5,1.5,0,0,1-2.129,0l-6.96-6.96A1.505,1.505,0,0,1,31.823,38.3l5.9,5.9,11.14-11.14A1.5,1.5,0,0,1,49.923,32.617Zm-12.2,14.213a.5.5,0,0,0,.357-.148l12.2-12.2a.512.512,0,0,0,0-.714.51.51,0,0,0-.714,0L37.719,45.609l-6.6-6.6a.51.51,0,0,0-.714,0,.512.512,0,0,0,0,.714l6.96,6.96A.5.5,0,0,0,37.719,46.829Zm41.969-7.983a1.507,1.507,0,0,1,1.506,1.506A40.857,40.857,0,0,1,18.819,75.075,41.076,41.076,0,0,1,5.169,61.131l-.834,2.907A1.5,1.5,0,0,1,2.892,65.13a1.517,1.517,0,0,1-.408-.061A1.5,1.5,0,0,1,1.45,63.208l1.863-6.489a1.5,1.5,0,0,1,.715-.9,1.53,1.53,0,0,1,1.134-.133l.009,0,6.492,1.864a1.5,1.5,0,0,1,1.028,1.857,1.5,1.5,0,0,1-1.86,1.028l-3.1-.885a37.841,37.841,0,0,0,70.446-19.2,1.508,1.508,0,0,1,1.234-1.481l.018-.025Zm.017,1h-.017a.506.506,0,0,0-.506.506A38.83,38.83,0,0,1,6.258,58.976l-.574-1.05,5.423,1.551a.5.5,0,0,0,.62-.338v-.005a.5.5,0,0,0-.043-.384.486.486,0,0,0-.3-.234L4.9,56.653a.517.517,0,0,0-.387.041.493.493,0,0,0-.238.294v0L2.41,63.485a.5.5,0,0,0,.042.386.486.486,0,0,0,.3.234.549.549,0,0,0,.143.025.5.5,0,0,0,.48-.36l0-.006,1.495-5.21.585,1.059A39.839,39.839,0,0,0,40.345,80.2,39.837,39.837,0,0,0,80.193,40.352.506.506,0,0,0,79.7,39.846Z" transform="translate(789.385 5027.516)" fill="#778495"/></g></svg>