<svg xmlns="http://www.w3.org/2000/svg" width="58" height="58" viewBox="0 0 58 58"><g transform="translate(-335 -10755)"><circle cx="29" cy="29" r="29" transform="translate(335 10755)" fill="#aebed3"/><path d="M16.11-10.62a7.1,7.1,0,0,1,4.567,2.655A8.433,8.433,0,0,1,22.365-2.61,9.153,9.153,0,0,1,21.6,1.17a8.234,8.234,0,0,1-2.183,2.925,9.926,9.926,0,0,1-3.4,1.867,14.037,14.037,0,0,1-4.41.653A13.365,13.365,0,0,1,5.6,5.332,9.636,9.636,0,0,1,1.575,1.71L4.23-.945a7.744,7.744,0,0,0,2.79,2.9,8.811,8.811,0,0,0,4.59,1.058,7.715,7.715,0,0,0,4.883-1.4A5.046,5.046,0,0,0,18.27-2.61a5.73,5.73,0,0,0-1.912-4.523A8.153,8.153,0,0,0,10.8-8.82H9.63v-3.33h1.26A7.209,7.209,0,0,0,15.862-13.7a5.056,5.056,0,0,0,1.733-3.937,4.053,4.053,0,0,0-1.665-3.555,7.1,7.1,0,0,0-4.185-1.17A8.662,8.662,0,0,0,7.4-21.308,7.415,7.415,0,0,0,4.5-18.36L2.07-20.88a7.36,7.36,0,0,1,1.6-2.048,10.55,10.55,0,0,1,2.34-1.6,12.613,12.613,0,0,1,2.88-1.035,14.4,14.4,0,0,1,3.263-.36,12.39,12.39,0,0,1,3.892.585,9.593,9.593,0,0,1,3.06,1.62,7.051,7.051,0,0,1,1.98,2.52,7.631,7.631,0,0,1,.7,3.285,8.492,8.492,0,0,1-.383,2.565,7.3,7.3,0,0,1-1.125,2.2,6.489,6.489,0,0,1-1.8,1.642A6.581,6.581,0,0,1,16.11-10.62Z" transform="translate(353 10794)" fill="#fff"/></g></svg>