<?xml version="1.0" encoding="UTF-8"?>
<svg xmlns="http://www.w3.org/2000/svg" version="1.1" viewBox="0 0 66 66">
  <defs>
    <style>
      .cls-1 {
        fill: none;
      }
    </style>
  </defs>
  <!-- Generator: Adobe Illustrator 28.7.1, SVG Export Plug-In . SVG Version: 1.2.0 Build 142)  -->
  <g>
    <g id="Layer_1">
      <g>
        <rect class="cls-1" x=".5" y="8.5" width="65" height="49"/>
        <path d="M48.5,57.5h-31c-9.4,0-17-7.6-17-17,0-8.4,6.2-15.6,14.5-16.8,1.7-9.9,11.1-16.6,21-14.9,7.6,1.3,13.6,7.3,14.9,14.9,9.3,1.4,15.7,10,14.3,19.3-1.2,8.3-8.4,14.5-16.8,14.5M33,11c-.6,0-1.2,0-1.8.1-7.3.8-13,6.6-13.9,13.9v1c-.1,0-1.1,0-1.1,0-8,.7-13.9,7.8-13.2,15.7.7,7.5,6.9,13.3,14.5,13.2h30.9c8,0,14.5-6.5,14.6-14.5,0-7.5-5.7-13.8-13.2-14.5h-1c0,0-.1-1.1-.1-1.1-.9-7.9-7.6-13.9-15.6-14"/>
        <path d="M16.2,36.6c0-1.7.7-3.4,1.9-4.7.6-.7,1.4-1.2,2.2-1.6,2.1-.9,4.4-.8,6.4.2.9.5,1.7,1.3,2.2,2.2l-2.9,2.1c-.1-.3-.3-.6-.5-.8-.2-.2-.4-.4-.7-.5-.3-.1-.5-.2-.8-.3-.3,0-.5,0-.8,0-.5,0-1,0-1.4.3-.4.2-.7.5-1,.8-.3.4-.4.7-.6,1.2-.1.4-.2.9-.2,1.3,0,.5,0,.9.2,1.4.1.4.3.8.6,1.2.3.3.6.6,1,.8.4.2.9.3,1.3.3.3,0,.5,0,.8,0,.3,0,.5-.2.8-.3.3-.1.5-.3.7-.5.2-.2.4-.5.5-.8l3.1,1.8c-.2.5-.5,1-.9,1.4-.4.4-.9.7-1.4,1-.5.3-1.1.5-1.7.6-.6.1-1.2.2-1.8.2-1,0-1.9-.2-2.8-.6-.8-.4-1.6-.9-2.2-1.6-.6-.7-1.1-1.4-1.4-2.3-.3-.8-.5-1.7-.5-2.6"/>
        <path d="M36.1,43.8c-.9,0-1.9-.2-2.7-.7-.8-.4-1.4-1-2-1.7-.5-.7-.9-1.4-1.2-2.3-.3-.8-.4-1.6-.4-2.4,0-1.7.6-3.4,1.7-4.8.5-.7,1.2-1.2,2-1.6,1.7-.8,3.7-.8,5.3,0,.8.4,1.4,1,2,1.7.5.7.9,1.4,1.2,2.3.8,2.4.3,5.1-1.3,7.1-.5.7-1.2,1.2-2,1.6-.8.4-1.7.6-2.6.6M33.7,36.8c0,.4,0,.9.1,1.3,0,.4.2.8.4,1.2.2.3.4.6.7.9.7.4,1.6.4,2.2,0,.3-.2.6-.5.7-.9.2-.4.3-.8.4-1.2.2-.8.2-1.7,0-2.5,0-.4-.2-.8-.4-1.2-.2-.3-.4-.6-.7-.9-.7-.4-1.6-.4-2.2,0-.3.2-.6.5-.7.9-.2.4-.3.8-.4,1.2,0,.4-.1.8-.1,1.2"/>
        <path d="M43.5,48.8c0-.4,0-.9.1-1.3,0-.4.2-.7.4-1,.2-.3.4-.6.7-.8.3-.3.7-.5,1-.7.5-.3.9-.5,1.2-.7.3-.2.5-.3.7-.4.1,0,.2-.2.3-.3,0,0,0-.2,0-.2,0-.2,0-.4-.2-.5-.2-.1-.4-.2-.6-.2-.3,0-.6,0-.9.2-.3.2-.6.5-.9.8l-1.7-2c.2-.2.4-.4.7-.6.3-.2.6-.3,1-.4.4-.1.7-.2,1.1-.3.4,0,.8-.1,1.2-.1.9,0,1.8.2,2.5.7.6.5.9,1.2.9,1.9,0,.5-.1,1-.4,1.4-.1.2-.3.4-.5.5-.2.2-.4.3-.6.4-.2.2-.5.3-.8.5-.3.2-.5.3-.8.5h3.2v2.5h-7.7Z"/>
      </g>
    </g>
  </g>
</svg>