<svg xmlns="http://www.w3.org/2000/svg" width="87.369" height="61.052" viewBox="0 0 87.369 61.052"><g transform="translate(-537.947 -3229.75)"><path d="M118.35,51.827,159.619,3.781l-.987-.849L117.365,50.98ZM80.374,56.61l37.561-4.56-.156-1.291L80.217,55.32Zm-.333-.047.508-1.2ZM117.857,51.4l.078.646.251-.031.164-.191ZM80.3,55.965l-.255.6.16.069.173-.022Z" transform="translate(462.009 3231.042)" fill="#aebed3"/><g transform="translate(537.947 3229.75)"><path d="M60.626,44.69A4.224,4.224,0,1,1,56.4,40.467a4.224,4.224,0,0,1,4.223,4.223" transform="translate(-52.178 12.137)" fill="#778495"/><path d="M89.841,41.44a4.224,4.224,0,1,1-4.223-4.223,4.224,4.224,0,0,1,4.223,4.223" transform="translate(-43.416 11.162)" fill="#778495"/><path d="M121.338,4.223A4.224,4.224,0,1,1,117.115,0a4.224,4.224,0,0,1,4.223,4.223" transform="translate(-33.969)" fill="#778495"/></g></g></svg>