<svg xmlns="http://www.w3.org/2000/svg" width="131.649" height="131.65" viewBox="0 0 131.649 131.65"><g transform="translate(6.191 7.008)"><path d="M58.817-.282A58.824,58.824,0,0,1,91.86,9.812a59.27,59.27,0,0,1,21.411,26,59.021,59.021,0,0,1-5.449,56.047,59.27,59.27,0,0,1-26,21.411,59.021,59.021,0,0,1-56.047-5.449,59.27,59.27,0,0,1-21.411-26A59.021,59.021,0,0,1,9.812,25.774a59.27,59.27,0,0,1,26-21.411A58.729,58.729,0,0,1,58.817-.282Zm0,117.634A58.536,58.536,0,1,0,.281,58.817,58.6,58.6,0,0,0,58.817,117.353Z" transform="translate(0 0)" fill="#233757"/><path d="M362.866,131.964A65.833,65.833,0,0,1,330.392,8.87l6.924,12.185a51.827,51.827,0,1,0,25.551-6.726V.315a65.825,65.825,0,1,1,0,131.649Z" transform="translate(-303.232 -7.322)" fill="#778495"/><text transform="translate(58.817 65.826)" fill="#778495" font-size="32" font-family="Raleway-Medium, Raleway" font-weight="500"><tspan x="-30.72" y="0">89%</tspan></text></g></svg>