<svg xmlns="http://www.w3.org/2000/svg" width="73.459" height="73.43" viewBox="0 0 73.459 73.43"><path d="M59.386,57.242a2.508,2.508,0,1,1,2.166-2.476,2.342,2.342,0,0,1-2.166,2.476m6.482,7.479a2.518,2.518,0,1,1,2.166-2.493,2.354,2.354,0,0,1-2.166,2.493m-12.963,0a2.518,2.518,0,1,1,2.166-2.493A2.342,2.342,0,0,1,52.9,64.721m-12.963,0a2.52,2.52,0,1,1,2.149-2.493,2.327,2.327,0,0,1-2.149,2.493m6.482-7.479a2.508,2.508,0,1,1,2.166-2.476,2.327,2.327,0,0,1-2.166,2.476m-12.946.017a2.509,2.509,0,0,1-.017-4.969,2.509,2.509,0,0,1,.017,4.969m-6.482,7.462a2.518,2.518,0,0,1,0-4.986,2.342,2.342,0,0,1,2.166,2.493,2.377,2.377,0,0,1-2.166,2.493m-12.963,0a2.518,2.518,0,0,1,0-4.986,2.518,2.518,0,0,1,0,4.986m6.482-7.479a2.354,2.354,0,0,1-2.166-2.493,2.327,2.327,0,0,1,2.166-2.476,2.508,2.508,0,0,1,0,4.969m-12.946,0a2.508,2.508,0,0,1,0-4.969,2.508,2.508,0,0,1,0,4.969M54.211,26.106a2.686,2.686,0,0,1-.739,3.4,2.013,2.013,0,0,1-2.785-.533,1.189,1.189,0,0,1-.172-.327,15.617,15.617,0,0,1,0-15.009,9.946,9.946,0,0,0,0-9.886A2.713,2.713,0,0,1,51.254.334a2.013,2.013,0,0,1,2.785.533,1.189,1.189,0,0,1,.172.327,15.617,15.617,0,0,1,0,15.009,10.064,10.064,0,0,0,0,9.9m-30.225,0a2.713,2.713,0,0,1-.739,3.421,2.013,2.013,0,0,1-2.785-.533,1.189,1.189,0,0,1-.172-.327,15.617,15.617,0,0,1,0-15.009,9.946,9.946,0,0,0,0-9.886A2.713,2.713,0,0,1,21.029.351a2.013,2.013,0,0,1,2.785.533,1.96,1.96,0,0,1,.172.327,15.617,15.617,0,0,1,0,15.009,9.946,9.946,0,0,0,0,9.886M39.1,26.089a2.713,2.713,0,0,1-.739,3.421,2.013,2.013,0,0,1-2.785-.533,1.96,1.96,0,0,1-.172-.327,15.617,15.617,0,0,1,0-15.009,9.946,9.946,0,0,0,0-9.886A2.713,2.713,0,0,1,36.142.334a2.013,2.013,0,0,1,2.785.533,1.96,1.96,0,0,1,.172.327,15.617,15.617,0,0,1,0,15.009,9.946,9.946,0,0,0,0,9.886M2.169,48.542a2.518,2.518,0,0,1,0-4.986h69.1a2.518,2.518,0,0,1,0,4.986Zm0,24.878a2.518,2.518,0,0,1,0-4.986h69.1a2.514,2.514,0,0,1,0,4.986Z" transform="translate(0.003 0.01)" fill="#778495"/></svg>