<?xml version="1.0" encoding="UTF-8"?>
<svg xmlns="http://www.w3.org/2000/svg" version="1.1" viewBox="0 0 66 66">
  <!-- Generator: Adobe Illustrator 28.7.1, SVG Export Plug-In . SVG Version: 1.2.0 Build 142)  -->
  <g>
    <g id="Layer_1">
      <path d="M33,65.5c-2.6,0-4.8-2.1-4.8-4.8v-2.6c0-3.1-2.5-5.6-5.6-5.6-1.5,0-2.9.6-4,1.6l-1.9,1.9c-1.9,1.8-5,1.7-6.8-.3-1.7-1.8-1.7-4.7,0-6.5h0s1.9-1.9,1.9-1.9c2.2-2.2,2.2-5.7,0-7.9-1-1-2.5-1.6-4-1.6h-2.8c-2.6,0-4.7-2.3-4.7-4.9,0-2.6,2.2-4.7,4.8-4.7h2.6c3.1,0,5.6-2.5,5.6-5.6,0-1.5-.6-2.9-1.6-4l-1.9-1.9c-1.8-1.9-1.7-5,.2-6.8,1.8-1.7,4.7-1.7,6.5,0h0s1.9,1.9,1.9,1.9c2.2,2.2,5.7,2.2,7.9,0,1-1,1.6-2.5,1.6-4v-2.6c0-2.6,2.1-4.8,4.8-4.8h0c2.6,0,4.8,2.1,4.8,4.8v2.6c0,3.1,2.5,5.6,5.6,5.6,1.5,0,2.9-.6,4-1.6l1.9-1.9c1.9-1.9,4.9-1.9,6.8,0s1.9,4.9,0,6.8h0s-1.9,1.9-1.9,1.9c-2.2,2.2-2.2,5.7,0,7.9,1,1,2.5,1.6,4,1.6h2.8c2.6,0,4.7,2.2,4.7,4.9,0,2.6-2.2,4.7-4.9,4.7h-2.6c-3.1,0-5.6,2.5-5.6,5.6,0,1.5.6,2.9,1.6,3.9l1.9,1.9c1.8,1.9,1.7,5-.3,6.8-1.8,1.7-4.7,1.7-6.5,0h0s-1.9-1.9-1.9-1.9c-2.2-2.2-5.7-2.2-7.9,0-1.1,1.1-1.7,2.5-1.6,4v2.6c0,2.6-2.1,4.8-4.8,4.8M22.5,49.8c1.1,0,2.2.2,3.2.6,3.1,1.2,5.1,4.3,5.1,7.6v2.6c0,1.2.8,2.2,2,2.3,1.2,0,2.2-.8,2.3-2,0,0,0-.2,0-.3v-2.6c0-4.6,3.7-8.2,8.2-8.2,2.2,0,4.3.9,5.8,2.4l1.8,1.8c.9.8,2.3.6,3-.3.7-.8.7-2,0-2.8l-1.8-1.8c-3.2-3.2-3.2-8.4,0-11.7,1.5-1.5,3.6-2.4,5.8-2.4h2.6c1.2,0,2.2-.8,2.3-2,0-1.2-.8-2.2-2-2.3,0,0-.2,0-.3,0h0v-1.1s0,1.1,0,1.1h-2.6c-4.6,0-8.2-3.7-8.2-8.2,0-2.2.9-4.3,2.4-5.8l1.8-1.8c.8-.9.7-2.2-.1-3-.8-.8-2.1-.8-2.9,0l-1.8,1.8c-3.2,3.2-8.4,3.2-11.7,0-1.5-1.5-2.4-3.6-2.4-5.8v-2.6c0-1.2-1-2.1-2.1-2.1h0c-1.2,0-2.1,1-2.1,2.1h0v2.6c0,4.6-3.7,8.2-8.2,8.2-2.2,0-4.3-.9-5.8-2.4l-1.8-1.8c-.9-.8-2.2-.7-3,.2-.7.8-.7,2,0,2.8l1.8,1.8c3.2,3.2,3.2,8.4,0,11.7-1.5,1.5-3.6,2.4-5.8,2.4h-2.6c-1.2-.1-2.2.7-2.4,1.9-.1,1.2.7,2.2,1.9,2.4.1,0,.3,0,.4,0h2.7c4.6,0,8.2,3.7,8.2,8.2,0,2.2-.9,4.3-2.4,5.8l-1.8,1.8c-.8.9-.6,2.3.3,3,.8.7,2,.7,2.8,0l1.8-1.8c1.5-1.6,3.6-2.4,5.8-2.4M39.5,44c-2.5,0-4.5-2-4.5-4.5s2-4.5,4.5-4.5,4.5,2,4.5,4.5c0,2.5-2,4.5-4.5,4.5M39.5,37.6c-1,0-1.9.8-1.9,1.9s.8,1.9,1.9,1.9,1.9-.8,1.9-1.9c0-1-.8-1.9-1.9-1.9M28.7,36.5c-4.3,0-7.8-3.5-7.8-7.8s3.5-7.8,7.8-7.8,7.8,3.5,7.8,7.8h0c0,4.3-3.5,7.8-7.8,7.8M28.7,23.7c-2.8,0-5.1,2.3-5.1,5.1s2.3,5.1,5.1,5.1,5.1-2.3,5.1-5.1c0-2.8-2.3-5.1-5.1-5.1"/>
    </g>
  </g>
</svg>