<?xml version="1.0" encoding="UTF-8"?>
<svg id="Layer_1" xmlns="http://www.w3.org/2000/svg" version="1.1" viewBox="0 0 131.649 131.64999">
  <!-- Generator: Adobe Illustrator 29.0.1, SVG Export Plug-In . SVG Version: 2.1.0 Build 192)  -->
  <defs>
    <style>
      .st0 {
        isolation: isolate;
      }

      .st1 {
        fill: #778495;
      }

      .st2 {
        fill: #233757;
      }
    </style>
  </defs>
  <path class="st2" d="M65.008,6.726c11.77642-.01876,23.28738,3.49762,33.043,10.094,9.50114,6.41377,16.93848,15.44515,21.411,26,7.78758,18.40032,5.73707,39.49134-5.449,56.047-6.41377,9.50114-15.44515,16.93849-26,21.411-18.40032,7.78758-39.49134,5.73707-56.047-5.449-9.50114-6.41377-16.93849-15.44515-21.411-26-7.78788-18.40015-5.73774-39.49117,5.448-56.04701,6.41377-9.50114,15.44515-16.93849,26-21.411,7.27771-3.08038,15.10225-4.66025,23.005-4.645ZM65.008,124.36c32.32854,0,58.536-26.20746,58.536-58.536S97.33654,7.288,65.008,7.288,6.472,33.49546,6.472,65.824c0,.00033,0,.00066,0,.001.03527,32.31392,26.22208,58.50072,58.536,58.536v-.00099Z"/>
  <path class="st1" d="M65.82501,131.64999C29.46646,131.64488-.00385,102.16631.00125,65.80775.00458,42.11275,12.7413,20.24755,33.35101,8.55599l6.92401,12.185C15.36642,34.84252,6.60556,66.46647,20.70709,91.37506s45.72549,33.66945,70.63409,19.56792c24.90857-14.10153,33.66943-45.72549,19.5679-70.63408-9.19611-16.24378-26.41684-26.28747-45.08307-26.29392V.00099c36.35388-.14089,65.93872,29.21553,66.07962,65.5694.14087,36.35387-29.21555,65.93872-65.56943,66.07961-.17004.00066-.34012.00066-.51019,0h-.00101Z"/>
  <g class="st0">
    <g class="st0">
      <path class="st1" d="M51.85596,66.40234c0,1.02344-.21875,1.94629-.65576,2.76758-.4375.82129-1.02393,1.52051-1.76025,2.0957-.73584.57617-1.58936,1.02441-2.56006,1.34473-.9707.31934-2,.47949-3.08789.47949-1.13086,0-2.18164-.17578-3.15186-.52832-.97119-.35156-1.80811-.83105-2.51221-1.43945-.70361-.6084-1.25879-1.32812-1.66406-2.16016s-.60791-1.72754-.60791-2.6875c0-.7041.12793-1.35449.38428-1.95215.25586-.59766.58105-1.13086.97607-1.60059.39404-.46875.84766-.87988,1.35986-1.23145.51172-.35254,1.02393-.62402,1.53613-.81641-.46973-.19141-.91748-.44238-1.34424-.75195-.42676-.30859-.7998-.66113-1.12012-1.05566-.31982-.39453-.5708-.82715-.75195-1.2959-.18164-.46973-.27197-.9707-.27197-1.50391,0-.95996.21875-1.80859.65625-2.54395.43701-.73633,1.00244-1.36035,1.6958-1.87207.69287-.5127,1.46631-.89648,2.31982-1.15234.85303-.25586,1.70654-.38379,2.56006-.38379.85303,0,1.71191.12793,2.57617.38379.86377.25586,1.64258.63477,2.33594,1.13574.69287.50195,1.2583,1.12012,1.6958,1.85645.43701.73535.65625,1.58398.65625,2.54395,0,1.06641-.35205,2.00488-1.05615,2.81543-.7041.81152-1.53564,1.41895-2.49609,1.82422.57617.23535,1.125.5332,1.64844.89648.52246.3623.97559.7832,1.35986,1.26367.38379.48047.69287,1.01855.92773,1.61621s.35205,1.24805.35205,1.95215ZM49.0083,66.20996c0-.68262-.15527-1.2959-.46436-1.83984-.30957-.54395-.70947-1.00293-1.19971-1.37598-.49121-.37305-1.04541-.65625-1.66406-.84863-.61914-.19141-1.23779-.28711-1.85596-.28711-.64014,0-1.26416.10156-1.87207.30371-.60791.20312-1.15186.49609-1.63184.87988-.48047.38379-.86426.84766-1.15234,1.3916s-.43164,1.14746-.43164,1.80859c0,.68262.1543,1.29102.46387,1.82422.30908.5332.70898.98145,1.19971,1.34375.49072.36328,1.04004.64551,1.64795.84766.6084.20312,1.22119.30371,1.84033.30371.64014,0,1.26367-.10645,1.87207-.31934.60791-.21289,1.15186-.51172,1.63184-.89648.47998-.38379.86914-.8418,1.16797-1.37598.29834-.5332.44824-1.12012.44824-1.75977ZM39.47217,56.16211c0,.57617.13281,1.08301.3999,1.51953.2666.4375.61279.80566,1.04004,1.10449.42627.29883.896.52246,1.4082.67188.51172.14941,1.02393.22363,1.53564.22363.51221,0,1.02393-.08008,1.53613-.23926.51221-.16016.98096-.38965,1.4082-.68848.42627-.29883.77295-.67188,1.03955-1.12012s.40039-.95996.40039-1.53613c0-.53223-.12305-1.0127-.36816-1.43945-.24561-.42676-.5708-.78906-.97607-1.08789s-.875-.52832-1.40771-.68848c-.53369-.16016-1.08838-.24023-1.66406-.24023-.57617,0-1.12549.08008-1.64795.24023-.52295.16016-.98145.39551-1.37598.7041-.39502.30957-.71533.68262-.96045,1.12012s-.36768.92285-.36768,1.45605Z"/>
      <path class="st1" d="M54.57568,62.40234c0-1.08789.20801-2.10645.62402-3.05664.41602-.94824.99219-1.78027,1.72803-2.49609.73633-.71387,1.59473-1.27441,2.57617-1.67969.98096-.40527,2.04785-.6084,3.19971-.6084,1.21631,0,2.33057.22461,3.34424.67285,1.0127.44727,1.88184,1.09277,2.60742,1.93555s1.28516,1.86719,1.68066,3.07227c.39453,1.20508.5918,2.57617.5918,4.11133,0,2.24023-.20312,4.19824-.6084,5.87207-.40527,1.67578-.98145,3.07227-1.72754,4.19238-.74707,1.12012-1.64307,1.95703-2.68799,2.51172-1.04541.55469-2.20801.83203-3.48779.83203-1.47217,0-2.81104-.35156-4.01611-1.05566-1.20557-.7041-2.14941-1.69629-2.83203-2.97559l1.72803-1.69629c.46875,1.00195,1.1626,1.79688,2.08008,2.38379.91699.58691,1.94092.87988,3.07178.87988,1.74902,0,3.14648-.7793,4.19189-2.33594,1.04492-1.55664,1.58887-3.74414,1.63184-6.55957-.46973,1.10938-1.22656,1.99512-2.27148,2.65527-1.0459.66211-2.24023.99219-3.58398.99219-1.08838,0-2.1123-.19727-3.07227-.5918s-1.79199-.93262-2.49609-1.61621c-.70361-.68262-1.25879-1.49316-1.66406-2.43164s-.60791-1.94141-.60791-3.00781ZM62.67188,56.99414c-.74707,0-1.44531.14355-2.09619.43164s-1.22119.67773-1.71191,1.16797c-.49072.49121-.87988,1.06152-1.16797,1.71191-.28809.65137-.43213,1.34961-.43213,2.09668s.14404,1.44531.43213,2.0957c.28809.65137.67725,1.21582,1.16797,1.69629.49072.47949,1.06104.86328,1.71191,1.15137s1.34912.43262,2.09619.43262c.74658,0,1.44482-.14453,2.09619-.43262.65039-.28809,1.2207-.67188,1.71191-1.15137.49023-.48047.87939-1.04492,1.16748-1.69629.28809-.65039.43164-1.34863.43164-2.0957,0-.72559-.14355-1.41895-.43164-2.08008s-.67725-1.2373-1.16748-1.72852c-.49121-.49023-1.06738-.87988-1.72803-1.16797-.66162-.28809-1.35498-.43164-2.08008-.43164Z"/>
      <path class="st1" d="M78.38281,59.1377c-.68262,0-1.32227-.12207-1.91992-.36816-.59668-.24414-1.12012-.5752-1.56738-.99121-.44824-.41602-.7998-.91211-1.05664-1.48828-.25586-.57617-.38379-1.18359-.38379-1.82422,0-.63965.12793-1.24805.38379-1.82422.25684-.5752.6084-1.07129,1.05664-1.4873.44727-.41602.9707-.74707,1.56738-.99219.59766-.24512,1.2373-.36816,1.91992-.36816s1.32324.12305,1.9209.36816c.59668.24512,1.11914.57617,1.56738.99219s.7998.91211,1.05566,1.4873c.25684.57617.38477,1.18457.38477,1.82422,0,.64062-.12793,1.24805-.38477,1.82422-.25586.57617-.60742,1.07227-1.05566,1.48828s-.9707.74707-1.56738.99121c-.59766.24609-1.23828.36816-1.9209.36816ZM74.54297,71.77832l8.95996-10.78418,8.57617-11.04004,1.37598,1.18359-8.86426,10.7207-8.70312,11.13574-1.34473-1.21582ZM78.38281,57.60156c.40527,0,.78418-.08496,1.13672-.25586.35156-.16992.65527-.39941.91211-.6875.25586-.28809.45801-.61914.60742-.99219s.22461-.77344.22461-1.2002-.08008-.83203-.24023-1.21582-.36816-.71973-.62402-1.00781-.56055-.51172-.91211-.67188c-.35254-.16016-.71973-.24023-1.10449-.24023-.40527,0-.7832.08496-1.13574.25586-.35156.1709-.65625.40039-.91211.68848-.25586.28711-.45898.62402-.60742,1.00781-.14941.38379-.22461.77832-.22461,1.18359,0,.42676.0752.83203.22461,1.21582.14844.38477.35645.7207.62402,1.00879.2666.28711.5752.51172.92773.67188.35156.16016.71973.23926,1.10352.23926ZM89.61523,73.1543c-.68262,0-1.32324-.12305-1.91992-.36816-.59766-.24512-1.12012-.57617-1.56836-.99219-.44727-.41602-.7998-.91211-1.05566-1.48828-.25586-.5752-.38379-1.18359-.38379-1.82324,0-.64062.12793-1.24805.38379-1.82422s.6084-1.07227,1.05566-1.48828c.44824-.41602.9707-.74609,1.56836-.99219.59668-.24512,1.2373-.36816,1.91992-.36816s1.32227.12305,1.91992.36816c.59668.24609,1.12012.57617,1.56836.99219.44727.41602.7998.91211,1.05566,1.48828s.38379,1.18359.38379,1.82422c0,.63965-.12793,1.24805-.38379,1.82324-.25586.57617-.6084,1.07227-1.05566,1.48828-.44824.41602-.97168.74707-1.56836.99219-.59766.24512-1.2373.36816-1.91992.36816ZM89.61523,71.61816c.40527,0,.78418-.08496,1.13574-.25586.35254-.1709.65625-.40039.91211-.68848s.45898-.61816.6084-.99219c.14844-.37305.22363-.77246.22363-1.19922s-.08008-.83203-.24023-1.2168c-.15918-.38379-.36719-.71973-.62402-1.00781-.25586-.28809-.55957-.51172-.91113-.67188-.35254-.16016-.7207-.24023-1.10449-.24023-.40527,0-.78418.08594-1.13574.25586-.35254.17188-.65625.40039-.91211.68848s-.45898.62402-.6084,1.00781-.22363.7793-.22363,1.18457c0,.42676.07422.83203.22363,1.21582s.35742.71973.62402,1.00781.57617.51172.92871.67188c.35156.16016.71973.24023,1.10352.24023Z"/>
    </g>
  </g>
</svg>