<svg xmlns="http://www.w3.org/2000/svg" xmlns:xlink="http://www.w3.org/1999/xlink" width="86.245" height="78.94" viewBox="0 0 86.245 78.94"><defs><clipPath id="a"><rect width="86.245" height="78.94" fill="#778495"/></clipPath></defs><g clip-path="url(#a)"><path d="M0,39.565a2.106,2.106,0,0,1,2.106-2.106H21.866l5.45-9.655a2.1,2.1,0,0,1,3.92.707l2.17,14.543,3.964-9.485a2.109,2.109,0,0,1,3.869-.055l1.917,4.217H51.3l3.351-9.592a2.107,2.107,0,0,1,4.015.107l3.92,13.436.865-2.529a2.107,2.107,0,0,1,1.992-1.423h18.7a2.108,2.108,0,0,1,0,4.217H66.949l-2.541,7.378,0,0a2.106,2.106,0,0,1-4.015-.095L56.465,35.738l-1.687,4.786a2.1,2.1,0,0,1-1.98,1.411h-11a2.1,2.1,0,0,1-1.917-1.245l-.486-1.055L34.385,51.649v0a2.107,2.107,0,0,1-1.936,1.3,1.477,1.477,0,0,1-.265,0,2.109,2.109,0,0,1-1.822-1.77L27.968,35.253l-3.035,5.386a2.107,2.107,0,0,1-1.842,1.055H2.107A2.105,2.105,0,0,1,0,39.564Zm3.952-6.248a2.114,2.114,0,0,0,1.814-2.363C4.237,19.244,11.7,6.717,21.427,4.606,33.714,2.013,41.1,11.984,41.452,12.446l0,0a2.106,2.106,0,0,0,3.426.008c.316-.431,7.714-10.445,20.025-7.852C74.625,6.712,82.086,19.193,80.56,30.953h0a2.108,2.108,0,0,0,1.814,2.363h.273a2.109,2.109,0,0,0,2.106-1.834C86.583,17.51,77.718,3.029,65.78.52c-11.5-2.391-19.369,4.047-22.657,7.513C39.835,4.567,31.963-1.863,20.551.54,8.619,3.057-.24,17.53,1.581,31.5a2.11,2.11,0,0,0,2.371,1.814ZM41.784,78.463a2.119,2.119,0,0,0,2.679,0c.17-.138,16.958-14.017,28.379-26.545v0a2.127,2.127,0,0,0-3.162-2.845c-9.307,10.243-22.34,21.467-26.557,25-4.217-3.521-17.243-14.752-26.608-25.019a2.108,2.108,0,1,0-3.11,2.845C24.831,64.426,41.618,78.3,41.784,78.463Z" transform="translate(0 0)" fill="#778495"/></g></svg>