<svg xmlns="http://www.w3.org/2000/svg" width="41.737" height="40.369" viewBox="0 0 41.737 40.369"><path d="M54.994,108.674l-.014.126a7.631,7.631,0,0,0-.323,2.1,5.534,5.534,0,0,0,.286,1.77,5.62,5.62,0,0,0,.9,1.634v.014a6.746,6.746,0,0,0-.323,1.971,4.506,4.506,0,0,0,2.594,4.167,7.3,7.3,0,0,0,2.894.73c.861.052,1.714.066,2.561.066,1.3,0,2.584-.033,3.849-.033.267,0,.534,0,.8,0h.295a16.143,16.143,0,0,0,9.884-3.1,11.5,11.5,0,0,1,4.289-1.995V119.2a1.2,1.2,0,0,0,1.194,1.194H93.931a1.2,1.2,0,0,0,1.194-1.194V94.983a1.2,1.2,0,0,0-1.194-1.194H83.878a1.2,1.2,0,0,0-1.194,1.194v.932a8.926,8.926,0,0,1-.721-.6,44.245,44.245,0,0,1-3.2-3.306,14.689,14.689,0,0,1-2.112-3.071,8.7,8.7,0,0,1-.927-3.446,4.927,4.927,0,0,0-1.475-3.339,4.6,4.6,0,0,0-3.2-1.269,5.316,5.316,0,0,0-2.94.922,5.665,5.665,0,0,0-1.775,1.849,5.272,5.272,0,0,0-.707,2.435c0,.094,0,.192,0,.286a13.278,13.278,0,0,0,.89,4.073,18.547,18.547,0,0,1,.651,2.271c-.946.042-2.046.08-3.16.117-1.643.056-3.3.117-4.579.229a5.924,5.924,0,0,0-3.619,1.5A4.953,4.953,0,0,0,54.3,98.1v.126a6.943,6.943,0,0,0,.29,1.835c.094.351.192.684.276,1a8.121,8.121,0,0,0-.96,1.5,5.05,5.05,0,0,0-.515,2.168,5.2,5.2,0,0,0,.468,2.1,8.964,8.964,0,0,0,1.138,1.84Zm.127.164M92.741,118H85.072V96.177h7.669ZM56.689,98.172a2.554,2.554,0,0,1,.759-1.868,3.552,3.552,0,0,1,2.182-.852c1.175-.1,2.814-.164,4.448-.22s3.263-.1,4.476-.192l1.11-.08V93.846a13.355,13.355,0,0,0-.89-4.148,11.1,11.1,0,0,1-.768-3.32c0-.061,0-.122,0-.178a2.847,2.847,0,0,1,.389-1.339,3.212,3.212,0,0,1,1.03-1.063,2.921,2.921,0,0,1,1.62-.524,2.22,2.22,0,0,1,1.55.6,2.518,2.518,0,0,1,.735,1.737A11.047,11.047,0,0,0,74.5,89.992a17.257,17.257,0,0,0,2.444,3.568,46.645,46.645,0,0,0,3.376,3.488,25.737,25.737,0,0,0,2.36,1.826v14.791a13.854,13.854,0,0,0-5.708,2.524,13.7,13.7,0,0,1-8.461,2.636h-.262c-.276,0-.557,0-.829,0-1.3,0-2.584.033-3.849.033-.819,0-1.625-.014-2.421-.061a4.418,4.418,0,0,1-2.411-.763,2.029,2.029,0,0,1-.6-.716,2.314,2.314,0,0,1-.225-1.03,4.437,4.437,0,0,1,.243-1.358,1.882,1.882,0,0,0,.089-.59,2.522,2.522,0,0,0-.126-.773,2.272,2.272,0,0,0-.375-.712,3.118,3.118,0,0,1-.538-.96,3.048,3.048,0,0,1-.159-1,5.369,5.369,0,0,1,.229-1.442,2.957,2.957,0,0,0,.112-.819,2.41,2.41,0,0,0-.066-.585,1.749,1.749,0,0,0-.342-.712,6.528,6.528,0,0,1-.936-1.47,2.767,2.767,0,0,1-.262-1.128,2.582,2.582,0,0,1,.281-1.138,6.416,6.416,0,0,1,1.007-1.442l.407-.459-.136-.6c-.141-.627-.318-1.175-.449-1.657a4.876,4.876,0,0,1-.206-1.217Z" transform="translate(-53.388 -80.886)" fill="#778495"/></svg>