<svg xmlns="http://www.w3.org/2000/svg" width="81.73" height="88.456" viewBox="0 0 81.73 88.456"><g transform="translate(0.282 7.007)"><path d="M37.5,6.727A37.511,37.511,0,0,1,52.1,78.782,37.511,37.511,0,0,1,22.9,9.674,37.269,37.269,0,0,1,37.5,6.727Zm0,74.44A36.938,36.938,0,1,0,.562,44.228,36.98,36.98,0,0,0,37.5,81.166Z" transform="translate(-0.281 -7.007)" fill="#233757"/><path d="M44.619,88.455A44.015,44.015,0,0,1,19.886,80.9l7.846-11.613a30.214,30.214,0,1,0,16.887-55.27V0a44.228,44.228,0,0,1,0,88.456Z" transform="translate(-7.399 -7.007)" fill="#778495"/><text transform="translate(35.818 42.478)" fill="#778495" font-size="18" font-family="Raleway-Medium, Raleway" font-weight="500"><tspan x="-17.577" y="0">60%</tspan></text></g></svg>