<svg xmlns="http://www.w3.org/2000/svg" xmlns:xlink="http://www.w3.org/1999/xlink" width="123" height="123" viewBox="0 0 123 123"><defs><clipPath id="a"><rect width="85.394" height="82.838" fill="#fff"/></clipPath></defs><g transform="translate(-110.008 -6049.731)"><circle cx="61.5" cy="61.5" r="61.5" transform="translate(110.008 6049.731)" fill="#aebed3"/><g transform="translate(128.812 6069.812)"><g clip-path="url(#a)"><path d="M257.731,214.164a21.7,21.7,0,0,1,16.582,8,21.428,21.428,0,0,1,1.987,25.55,26.209,26.209,0,0,1-2.788,3.511,27.653,27.653,0,0,0-2.115,2.59,10.035,10.035,0,0,0-1.851,6.2v9.517a2.042,2.042,0,0,1,0,.318v.074a2.128,2.128,0,0,1-.074.211c-1.057,2.115-3.7,4.453-7.824,6.927h0a7.4,7.4,0,0,1-7.675,0c-4.123-2.474-6.746-4.8-7.824-6.927h0a2.112,2.112,0,0,1-.074-.211v-.074a2.034,2.034,0,0,1,0-.318v-9.517a10.033,10.033,0,0,0-1.83-6.2,27.67,27.67,0,0,0-2.115-2.59,26.207,26.207,0,0,1-2.788-3.511,22.206,22.206,0,0,1,18.4-33.546Zm-2.379,60.521a4.62,4.62,0,0,0,4.759,0,29.419,29.419,0,0,0,5.085-3.7H250.267a29.419,29.419,0,0,0,5.085,3.7Zm-6.589-11.327h7.4v0a1.427,1.427,0,0,1,1.086,2.474,1.43,1.43,0,0,1-1.086.368h-7.4v1.933H266.74v-6.7H248.763Zm-9.77-23.794v0a19.023,19.023,0,0,0,2.578,6.63,23.773,23.773,0,0,0,2.507,3.173,32.707,32.707,0,0,1,2.346,2.834,12.6,12.6,0,0,1,2.276,6.419h18.06a12.6,12.6,0,0,1,2.276-6.419,32.7,32.7,0,0,1,2.346-2.834,23.77,23.77,0,0,0,2.507-3.173,18.952,18.952,0,1,0-34.9-6.63Z" transform="translate(-215.034 -195.291)" fill="#fff"/><path d="M534.979,304.131a1.428,1.428,0,1,1,.921,2.7,10.79,10.79,0,0,0-6.812,7.626,1.42,1.42,0,0,1-1.384,1.057h-.326a1.424,1.424,0,0,1-1.057-1.7,13.507,13.507,0,0,1,8.658-9.679Z" transform="translate(-497.941 -277.231)" fill="#fff"/><path d="M469.71,12.719a1.44,1.44,0,0,1-1.429-1.425V1.425a1.429,1.429,0,0,1,2.859,0v9.868a1.44,1.44,0,0,1-1.429,1.425" transform="translate(-427.013)" fill="#fff"/><path d="M234.991,74.335a1.418,1.418,0,0,1-1.227-2.115l4.928-8.567a1.422,1.422,0,0,1,2.466,1.417l-4.928,8.555A1.427,1.427,0,0,1,234.991,74.335Z" transform="translate(-176.539 -57.396)" fill="#fff"/><path d="M63.294,240.451l8.543-4.94v0a1.427,1.427,0,0,1,1.429,2.462l-8.555,4.94a1.422,1.422,0,0,1-1.417-2.466Z" transform="translate(5.99 -214.629)" fill="#fff"/><path d="M0,471.093a1.414,1.414,0,0,1,1.417-1.417h9.877a1.426,1.426,0,0,1,0,2.842H1.417A1.41,1.41,0,0,1,0,471.093Z" transform="translate(72.795 -428.286)" fill="#fff"/><path d="M64.72,648.42l8.555,4.94a1.427,1.427,0,0,1-1.429,2.462l-8.543-4.94a1.42,1.42,0,1,1,1.417-2.462Z" transform="translate(5.98 -591.105)" fill="#fff"/><path d="M648.447,63.079a1.43,1.43,0,0,1,1.946.529l4.928,8.547a1.428,1.428,0,0,1-2.466,1.425l-4.928-8.555a1.421,1.421,0,0,1,.521-1.946Z" transform="translate(-627.151 -57.349)" fill="#fff"/><path d="M788.067,242a1.42,1.42,0,0,1-.711-.19l-8.555-4.94a1.432,1.432,0,0,1-.611-2,1.424,1.424,0,0,1,2.041-.463l8.543,4.94v0a1.421,1.421,0,0,1-.706,2.656Z" transform="translate(-772.662 -213.523)" fill="#fff"/><path d="M828.613,469.674h9.877a1.426,1.426,0,0,1,0,2.842h-9.877a1.426,1.426,0,0,1,0-2.842" transform="translate(-827.308 -428.284)" fill="#fff"/><path d="M778.659,653.373l8.555-4.961a1.42,1.42,0,1,1,1.417,2.462l-8.543,4.94a1.427,1.427,0,0,1-1.429-2.462Z" transform="translate(-772.516 -591.098)" fill="#fff"/></g></g></g></svg>