<?xml version="1.0" encoding="UTF-8"?>
<svg id="Layer_1" xmlns="http://www.w3.org/2000/svg" version="1.1" viewBox="0 0 220 124.788">
  <!-- Generator: Adobe Illustrator 29.0.1, SVG Export Plug-In . SVG Version: 2.1.0 Build 192)  -->
  <defs>
    <style>
      .st0 {
        isolation: isolate;
      }

      .st1 {
        fill: #778495;
      }
    </style>
  </defs>
  <g class="st0">
    <g class="st0">
      <path class="st1" d="M19.21191,118.92383c-1.34961,0-2.57812-.27441-3.68506-.82324-1.10742-.54883-2.05664-1.27832-2.84863-2.1875-.79248-.9082-1.4043-1.94727-1.83594-3.11816-.43213-1.16992-.64795-2.36621-.64795-3.59082,0-1.27832.22949-2.50195.68848-3.67188s1.09326-2.20508,1.90332-3.10547c.81006-.89941,1.76855-1.61523,2.87549-2.14648,1.10693-.53027,2.30859-.7959,3.60449-.7959,1.3501,0,2.57373.2832,3.67188.85059,1.09766.56641,2.04297,1.30957,2.83496,2.22754s1.4043,1.95703,1.83594,3.11816c.43213,1.16113.64844,2.34473.64844,3.55078,0,1.27832-.22949,2.50195-.68848,3.67188-.45947,1.16992-1.08936,2.2002-1.89014,3.09082-.80127.8916-1.75488,1.60254-2.8623,2.13379-1.10693.53125-2.30811.7959-3.60449.7959ZM12.65088,109.2041c0,.97168.15771,1.91309.47266,2.82129.31494.90918.76025,1.71484,1.33643,2.41699s1.26904,1.25977,2.0791,1.67383,1.70996.62109,2.7002.62109c1.02588,0,1.94385-.2207,2.75391-.66211.81006-.44043,1.49854-1.0166,2.06543-1.72754s.99902-1.5166,1.2959-2.41699c.29736-.89941.4458-1.80859.4458-2.72656,0-.97168-.1582-1.91211-.47266-2.82129-.31494-.90918-.76514-1.70996-1.3501-2.40332-.58496-.69238-1.27832-1.24609-2.0791-1.66016s-1.6875-.62109-2.65918-.62109c-1.02637,0-1.94434.21582-2.75391.64746-.81006.43262-1.49854.99902-2.06592,1.70117-.56689.70215-1.00342,1.50293-1.30908,2.40332-.30664.90039-.45947,1.81836-.45947,2.75391Z"/>
      <path class="st1" d="M32.00977,106.55762h-1.91699v-1.8623h1.91699v-.1084c0-.57617.09473-1.14746.28369-1.71387.18896-.56738.47266-1.07617.85059-1.52637.37793-.44922.84131-.81348,1.39014-1.09277.54932-.2793,1.18359-.41895,1.90381-.41895.64795,0,1.2373.07227,1.76855.21582.53076.14453,1.00293.31543,1.41748.51367.43213-.52246.98535-.94531,1.66016-1.26953.67529-.32422,1.47168-.48633,2.38965-.48633.9541,0,1.81348.1582,2.57861.47266.76465.31543,1.39062.62598,1.87646.93164l-1.02588,1.75488c-.34229-.30566-.80566-.56641-1.39062-.78223-.58496-.2168-1.19287-.32422-1.82227-.32422-.54004,0-1.00391.10352-1.39062.31055-.38721.20703-.70215.47266-.94531.7959-.24268.32422-.41846.69336-.52637,1.10742s-.16211.82812-.16211,1.24219v.37793h7.20898v14.09375h-2.37598v-12.23145h-4.83301v12.23145h-2.37598v-12.23145h-4.104v12.23145h-2.37598v-12.23145ZM38.48975,104.69531c0-.3418.03613-.74316.1084-1.20215.07129-.45898.17969-.83203.32373-1.12012-.28809-.19824-.62549-.32812-1.0127-.3916-.38721-.0625-.7334-.09473-1.03906-.09473-.4502,0-.83301.07715-1.14746.22949-.31543.15332-.57178.35645-.76953.60742-.19873.25293-.34229.54004-.43213.86426-.09033.32422-.13525.64844-.13525.97266v.13477h4.104Z"/>
      <path class="st1" d="M50.96387,111.71484c0-.98926.1709-1.92578.5127-2.80762s.82764-1.65137,1.45801-2.30859c.62988-.65723,1.38135-1.17871,2.25439-1.56641.87305-.38672,1.84961-.58008,2.92969-.58008,1.40381,0,2.61426.31055,3.63135.93164s1.78662,1.45312,2.30859,2.49707l-2.32178.72949c-.36035-.66602-.86426-1.18359-1.51221-1.55273s-1.36816-.55371-2.15967-.55371c-.64844,0-1.26025.13086-1.83643.3916s-1.0708.62598-1.48486,1.09375-.74268,1.0166-.98535,1.64648c-.24316.63086-.36475,1.32324-.36475,2.0791,0,.73828.12598,1.43164.37793,2.0791.25195.64844.58936,1.21094,1.0127,1.6875.42285.47754.91797.85059,1.48486,1.12109.56738.26953,1.1748.4043,1.82275.4043.41357,0,.82324-.05762,1.22852-.1748.40479-.11719.77344-.27441,1.10693-.47266.33301-.19824.625-.42773.87744-.68848.25195-.26074.43213-.54492.54004-.85059l2.32178.70215c-.21582.52148-.51758.99902-.9043,1.43066-.38721.43164-.8418.80078-1.36328,1.10742-.52246.30566-1.10303.54883-1.7417.72852-.63916.17969-1.30957.26953-2.01172.26953-1.06201,0-2.03418-.19824-2.91602-.59375s-1.6377-.92676-2.26758-1.59277c-.63037-.66602-1.12061-1.44434-1.47168-2.33594-.35107-.89062-.52637-1.83105-.52637-2.82129Z"/>
      <path class="st1" d="M72.96826,119.05859c-1.06201,0-2.03418-.19336-2.91602-.58008s-1.6377-.91309-2.26758-1.5791c-.63037-.66602-1.12061-1.44531-1.47168-2.33594s-.52637-1.83105-.52637-2.82129.17529-1.92578.52637-2.80859c.35107-.88086.8457-1.65527,1.48486-2.32129.63867-.66602,1.39941-1.19238,2.28174-1.58008.88135-.38672,1.85352-.58008,2.91602-.58008,1.06152,0,2.0293.19824,2.90234.59375.87305.39648,1.61523.92285,2.22754,1.58008.61182.65723,1.08398,1.42188,1.41748,2.29492.33301.87305.49951,1.77734.49951,2.71289,0,.19824-.00488.37793-.01367.54004-.00928.16211-.02246.28809-.04053.37793h-11.69092c.0542.70215.21631,1.3418.48633,1.91699.26953.57617.62061,1.07129,1.05273,1.48535s.92236.73828,1.47168.97168c.54883.23438,1.12939.35156,1.74121.35156.43213,0,.85498-.05859,1.26904-.17578s.80078-.27441,1.16113-.47266c.35986-.19727.6792-.44043.9585-.72852.27881-.28809.49023-.6123.63428-.97266l2.05225.56738c-.23438.52246-.55371.99902-.9585,1.43066-.40527.43262-.87354.80566-1.4043,1.12109-.53076.31445-1.12012.5625-1.76807.74219-.64844.17969-1.32324.26953-2.02539.26953ZM77.80127,110.79688c-.05371-.66602-.22021-1.28223-.49951-1.84961-.2793-.56641-.62988-1.04785-1.05273-1.44434-.42334-.39551-.91406-.70605-1.47168-.93164-.55811-.22461-1.15186-.33691-1.78174-.33691-.63037,0-1.22461.1123-1.78223.33691-.55811.22559-1.04883.54004-1.47119.94531-.42334.40527-.76562.88672-1.02637,1.44434-.26123.55859-.41846,1.16992-.47217,1.83594h9.55762Z"/>
      <path class="st1" d="M95.97314,99.72754h2.29492l2.53809,6.66895,2.56445-6.66895h2.29492l-3.32129,8.34277,3.29492,7.91113,6.479-16.3623h2.64648l-8.01904,19.16992h-2.10547l-3.80762-9.04492-3.83398,9.04492h-2.10547l-7.99219-19.16992h2.61914l6.50684,16.3623,3.2666-7.91113-3.32031-8.34277Z"/>
      <path class="st1" d="M121.2168,119.05859c-1.0625,0-2.03027-.19824-2.90234-.59375-.87402-.39551-1.62012-.92676-2.24121-1.59277s-1.10254-1.43945-1.44434-2.32227c-.34277-.88184-.51367-1.80859-.51367-2.78027,0-.99023.17578-1.92676.52637-2.80859.35156-.88184.83789-1.65527,1.45801-2.32227.62109-.66504,1.36816-1.19629,2.24121-1.59277.87305-.39551,1.83203-.59375,2.87598-.59375s2.00684.19824,2.88867.59375c.88184.39648,1.63379.92773,2.25488,1.59277.62109.66699,1.10645,1.44043,1.45801,2.32227.35059.88184.52637,1.81836.52637,2.80859,0,.97168-.17188,1.89844-.5127,2.78027-.34277.88281-.8291,1.65625-1.45801,2.32227-.63086.66602-1.38184,1.19727-2.25488,1.59277s-1.84082.59375-2.90234.59375ZM116.5459,111.7959c0,.73828.12109,1.42188.36426,2.05176.24316.63086.57617,1.17969.99902,1.64746s.91797.83691,1.48535,1.10742c.56641.26953,1.17383.4043,1.82227.4043.64746,0,1.25488-.13477,1.82227-.4043.56738-.27051,1.06641-.64355,1.49805-1.12109.43262-.47656.76953-1.03516,1.0127-1.67383s.36523-1.32715.36523-2.06543c0-.71973-.12207-1.39941-.36523-2.03906-.24316-.63867-.58008-1.19629-1.0127-1.67383-.43164-.47656-.93066-.85059-1.49805-1.12012-.56738-.27051-1.1748-.40527-1.82227-.40527-.64844,0-1.25586.13965-1.82227.41895-.56738.2793-1.0625.65723-1.48535,1.13379-.42285.47754-.75586,1.03516-.99902,1.67383-.24316.63965-.36426,1.32812-.36426,2.06543Z"/>
      <path class="st1" d="M138.68652,106.77441c-1.18848.03613-2.2373.3418-3.14551.91797-.90918.57617-1.55273,1.37695-1.93066,2.40234v8.69434h-2.37598v-14.09375h2.21387v3.2666c.48633-.97168,1.125-1.75879,1.91699-2.3623.79199-.60254,1.6377-.94043,2.53809-1.0127h.45898c.12598,0,.2334.00977.32422.02734v2.16016Z"/>
      <path class="st1" d="M150.96973,118.78906l-4.85938-6.88477-2.7002,2.53809v4.34668h-2.37598v-19.70996h2.37598v12.95996l7.23633-7.31738h2.61914l-5.61621,5.83203,5.88574,8.23535h-2.56543Z"/>
      <path class="st1" d="M161.0957,119.05859c-1.0625,0-2.03418-.19336-2.91602-.58008-.88281-.38672-1.63867-.91309-2.26855-1.5791s-1.12012-1.44531-1.47168-2.33594c-.35059-.89062-.52637-1.83105-.52637-2.82129s.17578-1.92578.52637-2.80859c.35156-.88086.84668-1.65527,1.48535-2.32129s1.39941-1.19238,2.28125-1.58008c.88184-.38672,1.85449-.58008,2.91602-.58008,1.0625,0,2.0293.19824,2.90332.59375.87207.39648,1.61523.92285,2.22656,1.58008.6123.65723,1.08496,1.42188,1.41797,2.29492s.49902,1.77734.49902,2.71289c0,.19824-.00391.37793-.0127.54004-.00977.16211-.02344.28809-.04102.37793h-11.69043c.05371.70215.21582,1.3418.48535,1.91699.27051.57617.62109,1.07129,1.05371,1.48535.43164.41406.92188.73828,1.4707.97168.54883.23438,1.12988.35156,1.74219.35156.43164,0,.85449-.05859,1.26855-.17578s.80078-.27441,1.16113-.47266c.35938-.19727.67871-.44043.95801-.72852s.49023-.6123.63477-.97266l2.05176.56738c-.2334.52246-.55273.99902-.95801,1.43066-.40527.43262-.87305.80566-1.4043,1.12109-.53125.31445-1.12012.5625-1.76855.74219-.64746.17969-1.32227.26953-2.02441.26953ZM165.92871,110.79688c-.05469-.66602-.2207-1.28223-.5-1.84961-.2793-.56641-.62988-1.04785-1.05273-1.44434-.42285-.39551-.91406-.70605-1.47168-.93164-.55762-.22461-1.15234-.33691-1.78223-.33691s-1.22363.1123-1.78125.33691c-.55859.22559-1.04883.54004-1.47168.94531-.42383.40527-.76562.88672-1.02637,1.44434-.26074.55859-.41797,1.16992-.47266,1.83594h9.55859Z"/>
      <path class="st1" d="M178.26758,106.77441c-1.18848.03613-2.2373.3418-3.14551.91797-.90918.57617-1.55273,1.37695-1.93066,2.40234v8.69434h-2.37598v-14.09375h2.21387v3.2666c.48633-.97168,1.125-1.75879,1.91699-2.3623.79199-.60254,1.6377-.94043,2.53809-1.0127h.45898c.12598,0,.2334.00977.32422.02734v2.16016Z"/>
      <path class="st1" d="M185.55762,119.05859c-1.13477,0-2.25098-.1748-3.34863-.52637-1.09766-.35059-2.04297-.85938-2.83496-1.52539l1.02637-1.59277c.82715.62988,1.65527,1.10254,2.4834,1.41797.82812.31445,1.70117.47168,2.61914.47168,1.02637,0,1.84082-.20215,2.44336-.60742.60352-.4043.90527-.97559.90527-1.71387,0-.3418-.08105-.63477-.24316-.87793s-.40527-.4541-.72949-.63477c-.32324-.17969-.73828-.3418-1.24121-.48535-.50488-.14453-1.08984-.29688-1.75586-.45898-.8457-.2168-1.5752-.42285-2.18652-.62109-.6123-.19824-1.11621-.43262-1.51172-.70215-.39648-.27051-.68457-.59375-.86426-.97168-.18066-.37793-.27051-.84668-.27051-1.4043,0-.70215.13965-1.32715.41895-1.87695.27832-.54883.66113-1.00781,1.14746-1.37695.48633-.36816,1.05762-.64746,1.71484-.83691.65625-.18848,1.36328-.2832,2.11914-.2832,1.06152,0,2.05176.1709,2.96973.5127.91797.34277,1.69238.79297,2.32227,1.35059l-1.08008,1.43066c-.59375-.52148-1.25977-.91309-1.99805-1.1748-.73828-.26074-1.49414-.3916-2.26758-.3916-.86426,0-1.59766.18555-2.20117.55371-.60254.36914-.9043.95898-.9043,1.76855,0,.32422.05859.59375.17578.81055.11719.21582.31055.4043.58008.56641.27051.16211.61621.30664,1.04004.43262.42285.12598.93164.26074,1.52539.4043.93555.21582,1.75.43652,2.44336.66211.69238.22461,1.26855.49023,1.72852.7959.45898.30664.7998.66602,1.02539,1.08008.22461.41406.33789.91797.33789,1.51172,0,1.31445-.50488,2.3584-1.5127,3.13281-1.00781.77344-2.36719,1.16016-4.07617,1.16016Z"/>
    </g>
  </g>
  <g class="st0">
    <g class="st0">
      <path class="st1" d="M8.89404,73.98047h11.39795v-32.39062l1.22998-5.57617-3.93604,4.83789-7.29834,5.00195-4.50977-6.14941,18.6958-15.08789h5.98633v49.36426h11.15186v9.01953H8.89404v-9.01953Z"/>
      <path class="st1" d="M51.53271,54.70996h20.58154v9.42969h-20.58154v-9.42969Z"/>
      <path class="st1" d="M80.72314,30.43848c0-1.58496.58691-2.93848,1.76367-4.05957,1.1748-1.12012,2.80078-1.68066,4.87891-1.68066,2.07715,0,3.75781.56055,5.04297,1.68066,1.2832,1.12109,1.92676,2.47461,1.92676,4.05957,0,1.58594-.64355,2.91016-1.92676,3.97656-1.28516,1.06641-2.96582,1.59863-5.04297,1.59863-2.07812,0-3.7041-.53223-4.87891-1.59863-1.17676-1.06641-1.76367-2.39062-1.76367-3.97656ZM82.28174,42h10.66016v41h-10.66016v-41Z"/>
      <path class="st1" d="M128.44727,83v-23.28809c0-3.33398-.47852-5.74023-1.43457-7.21582-.95703-1.47656-2.58301-2.21387-4.87891-2.21387-2.02344,0-3.73145.58789-5.125,1.7627-1.39453,1.17578-2.39258,2.6377-2.99316,4.38672v26.56836h-10.66064v-41h8.44678l1.22949,5.41211h.32812c1.25684-1.74902,2.92383-3.28027,5.00195-4.5918,2.07715-1.3125,4.75586-1.96875,8.03613-1.96875,2.02246,0,3.82617.27441,5.41211.82031,1.58496.54688,2.92383,1.44922,4.01855,2.70605,1.09277,1.25781,1.91211,2.96582,2.45996,5.125.54492,2.16016.81934,4.8252.81934,7.99512v25.50195h-10.66016Z"/>
      <path class="st1" d="M147.7998,54.70996h20.58203v9.42969h-20.58203v-9.42969Z"/>
      <path class="st1" d="M192.65234,75.12793c3.38965,0,5.97266-.90234,7.74902-2.70605s2.66504-3.98926,2.66504-6.55957c0-3.11621-.92969-5.41211-2.78809-6.88867-1.8584-1.47559-4.78418-2.21387-8.77344-2.21387h-5.9043v-5.6582l9.92188-13.5293,4.67383-3.69043-6.47754.73828h-13.77637v-9.02051h31.32422v5.82227l-11.56152,15.49805-3.6084,2.21387v.41016l3.44434-.49219c1.91211.16406,3.73047.60254,5.45215,1.3125,1.72266.71094,3.22559,1.73535,4.51074,3.0752,1.2832,1.33984,2.30859,2.99219,3.0752,4.96094.76465,1.96777,1.14746,4.23633,1.14746,6.80566,0,3.22656-.5332,6.01367-1.59863,8.36426-1.06641,2.35059-2.54199,4.31836-4.42871,5.90332-1.88574,1.58691-4.08691,2.76172-6.60059,3.52637-2.51465.76465-5.2207,1.14844-8.11816,1.14844-2.40625,0-4.89258-.21973-7.46191-.65625-2.57031-.43848-4.64746-1.06641-6.23145-1.88574l2.86914-8.85645c1.4209.71094,2.99316,1.28516,4.71582,1.72168,1.72168.43848,3.64844.65625,5.78027.65625Z"/>
    </g>
  </g>
</svg>