<svg xmlns="http://www.w3.org/2000/svg" width="63.286" height="66.802" viewBox="0 0 63.286 66.802"><g transform="translate(-262.5 -225)"><path d="M399.616,262.218v-33.7a3.516,3.516,0,0,0-7.032,0v33.7l-11.577-11.577a3.516,3.516,0,1,0-4.972,4.972L396.1,275.679l20.066-20.066a3.516,3.516,0,1,0-4.973-4.972Z" transform="translate(-101.957)" fill="#778495"/><path d="M266.016,712.5a3.516,3.516,0,0,1,3.516,3.516v5.625a4.922,4.922,0,0,0,4.922,4.922h39.378a4.922,4.922,0,0,0,4.922-4.922v-5.625a3.516,3.516,0,1,1,7.032,0v5.625A11.954,11.954,0,0,1,313.832,733.6H274.454A11.954,11.954,0,0,1,262.5,721.641v-5.625A3.516,3.516,0,0,1,266.016,712.5Z" transform="translate(0 -441.793)" fill="#778495"/></g></svg>