<?xml version="1.0" encoding="utf-8"?>
<!-- Generator: Adobe Illustrator 27.2.0, SVG Export Plug-In . SVG Version: 6.00 Build 0)  -->
<svg version="1.1" id="Layer_1" xmlns="http://www.w3.org/2000/svg" xmlns:xlink="http://www.w3.org/1999/xlink" x="0px" y="0px"
	 viewBox="0 0 27.78 26.54" style="enable-background:new 0 0 27.78 26.54;" xml:space="preserve">
<style type="text/css">
	.st0{fill:#E2E2E2;}
	.st1{fill:none;stroke:#E2E2E2;stroke-width:2;stroke-linecap:round;stroke-miterlimit:10;}
</style>
<path id="HidePassword1" class="st0" d="M13.89,22.23c5.43,0.01,10.5-2.76,13.42-7.34c0.64-0.99,0.64-2.26,0-3.25
	C22.56,4.24,12.7,2.08,5.29,6.83c0,0,0,0,0,0c-1.93,1.24-3.57,2.88-4.81,4.81c-0.64,0.99-0.64,2.26,0,3.25
	C3.4,19.47,8.46,22.24,13.89,22.23z M25.63,12.72c0.22,0.33,0.22,0.77,0,1.1c-2.42,3.76-6.49,6.13-10.95,6.37
	c3.82-0.46,6.55-3.93,6.09-7.75c0,0,0,0,0,0c-0.38-3.19-2.9-5.71-6.09-6.09C19.14,6.57,23.23,8.94,25.63,12.72z M2.15,12.72
	C4.57,8.96,8.64,6.6,13.1,6.35c-3.82,0.46-6.55,3.93-6.09,7.75c0,0,0,0,0,0c0.38,3.19,2.9,5.7,6.09,6.09
	c-4.46-0.25-8.53-2.62-10.95-6.37C1.96,13.48,1.96,13.06,2.15,12.72z"/>
<line class="st1" x1="1.62" y1="1" x2="26.16" y2="25.54"/>
</svg>
