<svg id="Group_4859" data-name="Group 4859" xmlns="http://www.w3.org/2000/svg" xmlns:xlink="http://www.w3.org/1999/xlink" width="46.895" height="45.066" viewBox="0 0 46.895 45.066">
  <defs>
    <clipPath id="clip-path">
      <rect id="Rectangle_885" data-name="Rectangle 885" width="46.895" height="45.066" fill="none"/>
    </clipPath>
  </defs>
  <g id="Group_4857" data-name="Group 4857" clip-path="url(#clip-path)">
    <path id="Path_2245" data-name="Path 2245" d="M163.7,589.32a.665.665,0,1,1,0-1.331h8.057a.665.665,0,1,1,0,1.331Z" transform="translate(-154.662 -557.806)"/>
    <path id="Path_2246" data-name="Path 2246" d="M2.221,45.066A2.215,2.215,0,0,1,0,42.86V2.205A2.215,2.215,0,0,1,2.221,0H35.459A2.215,2.215,0,0,1,37.68,2.205V9.891l.1.078a11.39,11.39,0,0,1,1.588,16.174l-.152.182,7.359,7.315.128.128a.661.661,0,0,1,0,.94.675.675,0,0,1-.951,0l-7.479-7.434-.181.158-.119.106c-.066.059-.128.115-.192.167l-.1.078V42.86a2.216,2.216,0,0,1-2.221,2.205Zm0-43.736a.888.888,0,0,0-.878.875V42.86a.888.888,0,0,0,.878.875H35.461a.888.888,0,0,0,.878-.875V28.71l-.381.2a11.535,11.535,0,0,1-14.839-3.453l-.077-.108h-12a.665.665,0,1,1,0-1.331h11.2l-.173-.369a11.275,11.275,0,0,1-1.05-4.216L19,19.193H9.039a.665.665,0,1,1,0-1.331h9.984l.024-.232a11.283,11.283,0,0,1,1.308-4.216l.207-.382H9.039a.665.665,0,1,1,0-1.331H21.5l.078-.095A11.565,11.565,0,0,1,35.957,8.757l.381.2V2.2a.888.888,0,0,0-.878-.875ZM23.13,25.791A10.2,10.2,0,0,0,26.422,28.1a10.188,10.188,0,0,0,9.8-.908l.113-.077V10.558l-.113-.077a10.178,10.178,0,0,0-12.434.768l-.519.453H28.25a.665.665,0,1,1,0,1.331h-6.08l-.077.112a10.073,10.073,0,0,0-1.681,4.426l-.037.291H28.25a.665.665,0,1,1,0,1.331H20.339l.017.275A9.919,9.919,0,0,0,21.7,23.895l.075.128H28.25a.671.671,0,0,1,.476.2.658.658,0,0,1,.2.47.669.669,0,0,1-.671.665H22.712Zm14.55.222.452-.511a10.012,10.012,0,0,0,0-13.331l-.452-.511Z"/>
  </g>
</svg>
