<?xml version="1.0" encoding="UTF-8"?><svg id="a" xmlns="http://www.w3.org/2000/svg" width="156.43" height="132.5" viewBox="0 0 156.43 132.5"><g id="b"><g id="c"><path id="d" d="m0,132.5V23.91h154.63v108.58H0" fill="#fff"/><path id="e" d="m4.71,127.76c-.01-1.58-.15-2.47-.43-2.68-.34-.23-.74-.34-1.15-.32-.47-.05-.94.08-1.31.37-.32.84-.44,1.74-.33,2.63,0,1.88.18,2.89.49,3.08.34.18.71.27,1.09.25h.28c.35.02.7-.11.96-.36.28-.27.41-1.26.41-2.97h0Zm1.12,0c.08,1.2-.11,2.39-.55,3.51h0c-.27.54-.83.89-1.44.88h-1.51c-.62.03-1.2-.32-1.46-.89-.38-1.12-.54-2.3-.48-3.48v-.22c-.1-1.06.09-2.12.56-3.08.52-.61,1.31-.93,2.11-.84,1.2,0,1.95.34,2.26,1.01.38.99.55,2.05.5,3.12h0Z" fill="#1a1818"/><path id="f" d="m12.32,125.51V23.91h1.37v101.59h-1.37" fill="#1a1818"/><path id="g" d="m15.05,125.51V23.91h1.37v101.59h-1.37" fill="#1a1818"/><path id="h" d="m20.53,125.51V23.91h2.74v101.59h-2.74" fill="#1a1818"/><path id="i" d="m24.63,125.51V23.91h1.37v101.59h-1.37" fill="#1a1818"/><path id="j" d="m33.78,128.07c.45,0,.67.24.67.71,0,.51-.22.76-.67.76h-.91v2.01c0,.39-.24.59-.7.59-.51,0-.78-.24-.78-.7v-1.91h-3.61c-.31.05-.61-.16-.65-.47,0-.05,0-.1,0-.16v-.71c0-.28.1-.55.26-.78h0s2.99-6.35,2.99-6.35c.1-.26.35-.42.62-.42.15,0,.3.03.43.09.22.1.36.32.36.57,0,.14-.03.27-.08.4l-3.03,6.36h2.71v-1.83c0-.38.25-.58.74-.59.49.01.74.21.74.59v1.83h.91Z" fill="#1a1818"/><path id="k" d="m27.37,118.67V23.91h1.37v94.75h-1.37" fill="#1a1818"/><path id="l" d="m32.84,118.67V23.91h2.74v94.75h-2.74" fill="#1a1818"/><path id="m" d="m44.07,128.21c0,1.2-.53,2.34-1.46,3.09-.89.6-1.94.91-3.02.87-.96.06-1.91-.19-2.71-.72-.14-.15-.22-.34-.22-.54,0-.18.06-.35.17-.49.12-.17.31-.26.51-.26.19.01.37.06.53.16.55.26,1.16.39,1.76.37,1.46.18,2.79-.86,2.97-2.32,0-.05.01-.1.01-.16-.01-.55-.27-1.07-.71-1.41-.76-.45-1.65-.64-2.53-.55-.47,0-.71-.2-.71-.59-.01-.29.13-.56.37-.71l2.59-2.75h-4.32c-.41,0-.62-.26-.63-.78.01-.45.22-.67.66-.67h5.57c.46,0,.68.22.68.66v.58c0,.19-.08.37-.21.51l-2.4,2.54c.86.12,1.66.51,2.29,1.11.51.57.79,1.3.79,2.07h0Z" fill="#1a1818"/><path id="n" d="m36.95,118.67V23.91h5.47v94.75h-5.47" fill="#1a1818"/><path id="o" d="m43.79,118.67V23.91h1.37v94.75h-1.37" fill="#1a1818"/><path id="p" d="m51.63,123.46c.01-.43-.18-.84-.51-1.11-.33-.28-.74-.43-1.17-.42-.87-.08-1.63.55-1.72,1.42,0,.04,0,.07,0,.11v.08c.01.4.18.77.47,1.04.34.3.78.47,1.24.46h.05c.41,0,.81-.15,1.12-.42.35-.28.54-.71.53-1.16h0Zm.5,5.1c0-.55-.27-1.08-.7-1.42-.39-.38-.91-.6-1.45-.62-.57.01-1.12.23-1.54.62-.45.34-.72.87-.72,1.43,0,.55.21,1.09.59,1.49.44.41,1.01.63,1.61.63h.11c.52,0,1.03-.18,1.43-.5.47-.39.72-.98.67-1.58v-.05h0Zm1.5.08c.01.97-.38,1.9-1.09,2.57-.67.64-1.56.98-2.49.95h-.12c-.97.02-1.91-.33-2.62-.99-.72-.66-1.11-1.59-1.08-2.57.08-1.19.75-2.27,1.79-2.86-.41-.28-.75-.65-1-1.08-.18-.37-.26-.78-.25-1.18.02-.77.34-1.51.91-2.04,1.17-1.27,3.15-1.36,4.42-.19.63.58,1,1.39,1.01,2.25-.09.87-.51,1.66-1.17,2.23,1.04.58,1.69,1.68,1.7,2.87v.04h0Z" fill="#1a1818"/><path id="q" d="m46.42,118.67V23.91h2.84v94.75h-2.84" fill="#1a1818"/><path id="r" d="m50.53,118.67V23.91h4.21v94.75h-4.21" fill="#1a1818"/><path id="s" d="m62.62,128.12c0,1.2-.58,2.32-1.57,3-1.03.55-2.16.89-3.32,1h-.57c-.53,0-.79-.24-.79-.71,0-.51.21-.78.63-.78.25.03.5.05.75.04,2.12-.32,3.37-1.16,3.37-2.58.11-.89-.46-1.72-1.33-1.93-.64-.16-1.3-.24-1.96-.22-.21,0-.42,0-.63.01-.42-.01-.63-.41-.64-.87l.16-3.7c0-.32.24-.59.56-.6.03,0,.06,0,.1,0h4.73c.34,0,.53.22.55.66,0,.49-.17.75-.53.78h-4l-.09,2.26c.46,0,.92.03,1.38.11,2.13.39,3.2,1.57,3.2,3.53h0Z" fill="#1a1818"/><path id="t" d="m56.11,118.67V23.91h2.74v94.75h-2.74" fill="#1a1818"/><path id="u" d="m62.95,118.67V23.91h1.37v94.75h-1.37" fill="#1a1818"/><path id="v" d="m71.31,124.17c0-.56-.22-1.09-.62-1.49-.4-.42-.95-.65-1.53-.64-.61-.01-1.21.23-1.63.67-.4.44-.63,1.01-.63,1.61-.03.6.21,1.19.64,1.61.43.38.99.58,1.57.57.6,0,1.18-.24,1.59-.68.39-.43.61-1,.61-1.58v-.05h0Zm1.46.37c-.21,1.49-.75,2.92-1.59,4.17-.69,1.06-1.49,2.03-2.4,2.91-.22.26-.52.42-.86.45-.18,0-.36-.08-.47-.22-.13-.11-.2-.27-.21-.43.03-.27.16-.52.36-.7.17-.14.41-.37.71-.67.3-.3.57-.61.82-.91.22-.3.53-.76.84-1.29-.3.06-.6.09-.9.09-.96,0-1.88-.37-2.57-1.03-.7-.66-1.09-1.59-1.05-2.55-.03-.97.33-1.92.99-2.63.68-.76,1.66-1.17,2.67-1.13.59,0,1.18.15,1.7.42.52.27.96.67,1.28,1.16.49.69.73,1.53.68,2.37h0Z" fill="#1a1818"/><path id="w" d="m68.42,118.67V23.91h1.37v94.75h-1.37" fill="#1a1818"/><path id="x" d="m71.16,118.67V23.91h2.74v94.75h-2.74" fill="#1a1818"/><path id="y" d="m75.26,125.51V23.91h1.37v101.59h-1.37" fill="#1a1818"/><path id="z" d="m78,125.51V23.91h1.37v101.59h-1.37" fill="#1a1818"/><path id="aa" d="m88.7,121.3v.88c-.24.72-.62,1.38-1.12,1.95-.57.7-1.11,1.4-1.67,2.15-.82,1.08-1.26,2.41-1.25,3.77v1.4c-.04.47-.24.71-.7.71-.51,0-.78-.22-.78-.66v-.53c-.01-.12-.02-.24-.01-.36-.08-1.65.33-3.28,1.17-4.7.05-.09.47-.66,1.3-1.67.54-.64,1.02-1.32,1.45-2.04h-4.02c-.36.05-.69-.2-.74-.56,0-.06,0-.12,0-.18,0-.49.25-.72.75-.72h4.97c.43,0,.64.18.64.57h0Z" fill="#1a1818"/><path id="ab" d="m80.74,118.67V23.91h1.26v94.75h-1.26" fill="#1a1818"/><path id="ac" d="m86.21,118.67V23.91h1.27v94.75h-1.26" fill="#1a1818"/><path id="ad" d="m98.28,121.3v.88c-.24.72-.62,1.38-1.12,1.95-.57.7-1.11,1.4-1.67,2.15-.82,1.08-1.26,2.41-1.25,3.77v1.4c-.04.47-.24.71-.7.71-.51,0-.78-.22-.78-.66v-.53c-.01-.12-.02-.24-.01-.36-.08-1.65.33-3.28,1.17-4.7.05-.09.47-.66,1.3-1.67.54-.64,1.02-1.32,1.45-2.04h-4.01c-.36.05-.69-.2-.74-.56,0-.06,0-.12,0-.18,0-.49.25-.72.75-.72h4.96c.43,0,.64.18.64.57h0Z" fill="#1a1818"/><path id="ae" d="m90.32,118.67V23.91h1.26v94.75h-1.26" fill="#1a1818"/><path id="af" d="m95.79,118.67V23.91h1.26v94.75h-1.26" fill="#1a1818"/><path id="ag" d="m106.87,126.12c-.01-2.17-.21-3.4-.59-3.69-.46-.31-1.02-.47-1.58-.43-.64-.07-1.29.12-1.8.51-.3.33-.46,1.54-.46,3.61,0,2.58.25,3.98.67,4.23.46.24.98.36,1.5.34h.38c.49.03.96-.15,1.32-.49.38-.37.57-1.73.57-4.08h0Zm1.54,0c-.04,2.42-.27,3.98-.75,4.82h0c-.36.74-1.13,1.22-1.97,1.21h-2.07c-.85.04-1.64-.45-2-1.22-.52-1.54-.75-3.16-.66-4.78v-.3c0-2.08.25-3.49.76-4.23.72-.84,1.8-1.28,2.9-1.16,1.65,0,2.67.46,3.11,1.38.52,1.36.75,2.82.68,4.28h0Z" fill="#1a1818"/><path id="ah" d="m99.89,118.67V23.91h4.11v94.75h-4.11" fill="#1a1818"/><path id="ai" d="m106.74,118.67V23.91h1.37v94.75h-1.37" fill="#1a1818"/><path id="aj" d="m117.36,128.12c0,1.2-.58,2.32-1.57,3-1.03.55-2.16.89-3.32,1h-.57c-.53,0-.79-.24-.79-.71,0-.51.21-.78.63-.78.25.03.5.05.75.04,2.12-.32,3.37-1.16,3.37-2.58.11-.89-.46-1.72-1.33-1.93-.64-.16-1.3-.24-1.96-.22-.21,0-.42,0-.63.01-.42-.01-.63-.41-.64-.87l.16-3.7c0-.32.24-.59.56-.6.03,0,.06,0,.1,0h4.73c.34,0,.53.22.55.66,0,.49-.17.75-.53.78h-4l-.09,2.26c.46,0,.92.03,1.38.11,2.13.39,3.2,1.57,3.2,3.53h0Z" fill="#1a1818"/><path id="ak" d="m109.47,118.67V23.91h1.37v94.75h-1.37" fill="#1a1818"/><path id="al" d="m113.58,118.67V23.91h4.11v94.75h-4.11" fill="#1a1818"/><path id="am" d="m126.94,128.12c0,1.2-.58,2.32-1.57,3-1.03.55-2.16.89-3.32,1h-.56c-.53,0-.79-.24-.79-.71,0-.51.21-.78.63-.78.25.03.5.05.75.04,2.12-.32,3.37-1.16,3.37-2.58.11-.89-.46-1.72-1.33-1.93-.64-.16-1.3-.24-1.96-.22-.21,0-.42,0-.63.01-.42-.01-.63-.41-.64-.87l.16-3.7c0-.32.24-.59.56-.6.03,0,.06,0,.1,0h4.73c.34,0,.53.22.55.66,0,.49-.17.75-.53.78h-4l-.09,2.26c.46,0,.92.03,1.38.11,2.13.39,3.2,1.57,3.2,3.53h0Z" fill="#1a1818"/><path id="an" d="m119.05,118.67V23.91h1.37v94.75h-1.37" fill="#1a1818"/><path id="ao" d="m123.16,118.67V23.91h4.11v94.75h-4.11" fill="#1a1818"/><path id="ap" d="m128.63,125.51V23.91h1.26v101.59h-1.26" fill="#1a1818"/><path id="aq" d="m134.11,125.51V23.91h1.26v101.59h-1.26" fill="#1a1818"/><path id="ar" d="m138.21,125.51V23.91h1.37v101.59h-1.37" fill="#1a1818"/><path id="as" d="m140.95,125.51V23.91h1.37v101.59h-1.37" fill="#1a1818"/><path id="at" d="m154.18,124.25v.64c-.18.52-.45,1-.82,1.42-.41.51-.8,1.02-1.22,1.56-.59.79-.91,1.75-.91,2.74v1.02c-.03.35-.17.52-.51.52-.37,0-.57-.16-.57-.48v-.39c0-.09-.01-.17,0-.26-.06-1.2.24-2.39.85-3.42.04-.07.35-.48.95-1.22.39-.47.74-.96,1.05-1.49h-2.92c-.26.04-.5-.15-.54-.41,0-.04,0-.09,0-.13,0-.35.18-.53.55-.53h3.61c.32,0,.47.14.47.41h0Z" fill="#1a1818"/></g><g id="au" isolation="isolate"><text transform="translate(42.93 14.56)" font-family="Arial-BoldMT, Arial" font-size="13" font-weight="700" isolation="isolate"><tspan x="0" y="0">CRC30100</tspan></text></g><g id="av"><line id="aw" x1="121.45" y1="9.8" x2="154.93" y2="9.8" fill="none" stroke="#fdb913" stroke-linecap="round" stroke-width="3"/><line id="ax" x1="121.45" y1="9.8" x2="128.15" y2="18.1" fill="none" stroke="#fdb913" stroke-linecap="round" stroke-width="3"/><line id="ay" x1="121.45" y1="9.8" x2="128.15" y2="1.5" fill="none" stroke="#fdb913" stroke-linecap="round" stroke-width="3"/></g></g></svg>