<svg id="Group_5078" data-name="Group 5078" xmlns="http://www.w3.org/2000/svg" xmlns:xlink="http://www.w3.org/1999/xlink" width="46.128" height="47.191" viewBox="0 0 46.128 47.191">
  <defs>
    <clipPath id="clip-path">
      <rect id="Rectangle_918" data-name="Rectangle 918" width="46.128" height="47.191" fill="none"/>
    </clipPath>
  </defs>
  <g id="Group_5078-2" data-name="Group 5078" clip-path="url(#clip-path)">
    <path id="Path_2372" data-name="Path 2372" d="M165.555,176.705a.668.668,0,0,1-.245-.048l-6.46-2.713-6.467,2.716a.6.6,0,0,1-.579-.066.57.57,0,0,1-.236-.518l.572-7-4.583-5.316a.575.575,0,0,1-.105-.558l0-.015a.577.577,0,0,1,.423-.388l6.828-1.607,3.63-6a.629.629,0,0,1,.513-.29.587.587,0,0,1,.509.284l3.633,6,6.847,1.607a.6.6,0,0,1,.425.4.638.638,0,0,1-.125.57l-4.58,5.312.59,6.994a.625.625,0,0,1-.254.528.573.573,0,0,1-.341.112m-6.7-3.949a1.161,1.161,0,0,1,.432.087l5.6,2.351-.512-6.05a1.524,1.524,0,0,1,.059-.444.959.959,0,0,1,.206-.363l3.968-4.615-5.912-1.392a1.251,1.251,0,0,1-.4-.184,1.009,1.009,0,0,1-.272-.3l-3.167-5.209-3.137,5.194a1.383,1.383,0,0,1-.308.326,1.118,1.118,0,0,1-.4.178l-5.911,1.392,3.967,4.614a.96.96,0,0,1,.207.365,1.087,1.087,0,0,1,.061.426l-.513,6.067,5.623-2.352a1.006,1.006,0,0,1,.409-.086" transform="translate(-135.79 -142.682)"/>
    <path id="Path_2373" data-name="Path 2373" d="M23.064,47.191a2.424,2.424,0,0,1-1.625-.627L18.9,44.271a1.106,1.106,0,0,0-1.047-.239l-3.286.962a2.444,2.444,0,0,1-.687.1,2.415,2.415,0,0,1-2.241-1.51l-1.3-3.169a1.109,1.109,0,0,0-.84-.67L6.12,39.187a2.421,2.421,0,0,1-2.027-2.541L4.3,33.227a1.094,1.094,0,0,0-.466-.968l-2.8-1.969A2.421,2.421,0,0,1,.31,27.122l1.669-2.989a1.108,1.108,0,0,0,0-1.074L.31,20.069A2.421,2.421,0,0,1,1.033,16.9l2.8-1.969a1.109,1.109,0,0,0,.466-.968l-.207-3.418A2.421,2.421,0,0,1,6.12,8L9.5,7.445a1.109,1.109,0,0,0,.84-.67l1.3-3.169A2.415,2.415,0,0,1,13.875,2.1a2.446,2.446,0,0,1,.687.1l3.286.962A1.106,1.106,0,0,0,18.9,2.92L21.439.627a2.421,2.421,0,0,1,3.25,0L27.232,2.92a1.1,1.1,0,0,0,.736.284,1.11,1.11,0,0,0,.312-.045L31.566,2.2a2.447,2.447,0,0,1,.688-.1,2.415,2.415,0,0,1,2.241,1.51l1.3,3.169a1.094,1.094,0,0,0,.84.67L40.008,8a2.421,2.421,0,0,1,2.027,2.541l-.207,3.418a1.094,1.094,0,0,0,.466.968L45.1,16.9a2.421,2.421,0,0,1,.723,3.169l-1.67,2.989a1.109,1.109,0,0,0,0,1.074l1.669,2.989a2.421,2.421,0,0,1-.723,3.169l-2.8,1.969a1.094,1.094,0,0,0-.466.968l.207,3.418a2.421,2.421,0,0,1-2.027,2.541l-3.378.558a1.1,1.1,0,0,0-.84.67l-1.3,3.169a2.415,2.415,0,0,1-2.241,1.51h0a2.447,2.447,0,0,1-.688-.1l-3.286-.962a1.1,1.1,0,0,0-1.048.239l-2.543,2.293a2.424,2.424,0,0,1-1.625.627m-4.913-4.527a2.432,2.432,0,0,1,1.633.623l2.543,2.293a1.1,1.1,0,0,0,1.475,0l2.543-2.293a2.415,2.415,0,0,1,1.618-.626,2.448,2.448,0,0,1,.689.1l3.286.962a1.1,1.1,0,0,0,1.329-.64l1.3-3.169a2.411,2.411,0,0,1,1.85-1.476l3.378-.558a1.1,1.1,0,0,0,.92-1.154L40.5,33.308a2.411,2.411,0,0,1,1.027-2.132l2.8-1.969a1.1,1.1,0,0,0,.328-1.438l-1.669-2.989a2.443,2.443,0,0,1,0-2.367l1.669-2.989a1.1,1.1,0,0,0-.328-1.438l-2.8-1.969A2.443,2.443,0,0,1,40.5,13.883l.207-3.418a1.1,1.1,0,0,0-.92-1.154l-3.378-.559a2.443,2.443,0,0,1-1.85-1.476l-1.3-3.169a1.1,1.1,0,0,0-1.329-.64l-3.286.962a2.45,2.45,0,0,1-.689.1A2.415,2.415,0,0,1,26.345,3.9L23.8,1.611a1.1,1.1,0,0,0-1.475,0L19.784,3.9a2.432,2.432,0,0,1-1.633.623,2.4,2.4,0,0,1-.675-.1L14.19,3.468a1.1,1.1,0,0,0-1.329.64l-1.3,3.169A2.443,2.443,0,0,1,9.714,8.753l-3.378.559a1.1,1.1,0,0,0-.92,1.154l.207,3.418A2.443,2.443,0,0,1,4.6,16.015L1.8,17.984a1.1,1.1,0,0,0-.328,1.438l1.67,2.989a2.443,2.443,0,0,1,0,2.367l-1.67,2.989A1.1,1.1,0,0,0,1.8,29.206l2.8,1.969a2.411,2.411,0,0,1,1.027,2.132l-.207,3.418a1.1,1.1,0,0,0,.92,1.154l3.378.558a2.443,2.443,0,0,1,1.851,1.476l1.3,3.169a1.1,1.1,0,0,0,1.329.64l3.286-.962a2.4,2.4,0,0,1,.675-.1" transform="translate(0)"/>
  </g>
</svg>
