<svg xmlns="http://www.w3.org/2000/svg" xmlns:xlink="http://www.w3.org/1999/xlink" width="40.356" height="48.321" viewBox="0 0 40.356 48.321">
  <defs>
    <clipPath id="clip-path">
      <rect id="Rectangle_876" data-name="Rectangle 876" width="40.356" height="48.321" fill="none"/>
    </clipPath>
  </defs>
  <g id="Group_4776" data-name="Group 4776" clip-path="url(#clip-path)">
    <path id="Path_2204" data-name="Path 2204" d="M39.709,0H16.085a.518.518,0,0,1-.078.078.379.379,0,0,0,0,.1.468.468,0,0,0,0,.112V6.711H.559A.559.559,0,0,0,0,7.271V47.539a.559.559,0,0,0,.559.559H26.074a.559.559,0,0,0,.559-.559V41.387H39.709a.559.559,0,0,0,.559-.559V.559A.559.559,0,0,0,39.709,0M16.991,1.678l7.3,5.034h-7.3Zm8.523,9.452V46.98H1.119V7.83h24.4ZM39.15,40.268H26.633v-7.1H31.7a.559.559,0,0,0,0-1.119H26.633V28.691h6.186a.559.559,0,0,0,0-1.119H26.633V24.217H31.7a.559.559,0,0,0,0-1.119H26.633V19.743h6.186a.559.559,0,0,0,0-1.119H26.633V14.642H33a1.678,1.678,0,0,0,1.678-1.678V12.2A1.678,1.678,0,0,0,33,10.526H26.633V7.271a.313.313,0,0,0,0-.112v-.1l-.056-.089L26.5,6.89,18.21,1.119H39.15ZM26.633,13.523V11.644H33a.559.559,0,0,1,.559.559v.761a.559.559,0,0,1-.559.559Z" transform="translate(0 0)"/>
    <path id="Path_2205" data-name="Path 2205" d="M18.807,28.88H6.648A1.678,1.678,0,0,0,4.97,30.558v.761A1.678,1.678,0,0,0,6.648,33H18.807a1.678,1.678,0,0,0,1.678-1.678v-.761a1.678,1.678,0,0,0-1.678-1.678m.559,2.438a.57.57,0,0,1-.559.559H6.648a.57.57,0,0,1-.559-.559v-.761A.559.559,0,0,1,6.648,30H18.807a.559.559,0,0,1,.559.559Z" transform="translate(0.589 3.424)"/>
    <path id="Path_2206" data-name="Path 2206" d="M18.165,34.74H6.979a.57.57,0,0,0-.559.559.559.559,0,0,0,.559.559H18.165a.559.559,0,0,0,.559-.559.57.57,0,0,0-.559-.559" transform="translate(0.761 4.119)"/>
    <path id="Path_2207" data-name="Path 2207" d="M18.165,37.79H6.979a.559.559,0,0,0-.559.559.57.57,0,0,0,.559.559H18.165a.57.57,0,0,0,.559-.559.559.559,0,0,0-.559-.559" transform="translate(0.761 4.481)"/>
    <path id="Path_2208" data-name="Path 2208" d="M20.5,24.583H5.262V9.343H20.5ZM6.382,23.465h13v-13h-13Z" transform="translate(0.624 1.108)"/>
  </g>
</svg>
