<svg id="Group_5066" data-name="Group 5066" xmlns="http://www.w3.org/2000/svg" xmlns:xlink="http://www.w3.org/1999/xlink" width="53.645" height="40.369" viewBox="0 0 53.645 40.369">
  <defs>
    <clipPath id="clip-path">
      <rect id="Rectangle_914" data-name="Rectangle 914" width="53.645" height="40.369" fill="none"/>
    </clipPath>
  </defs>
  <g id="Group_5064" data-name="Group 5064" clip-path="url(#clip-path)">
    <path id="Path_2349" data-name="Path 2349" d="M21.753,40.207a7.853,7.853,0,0,1-1.2.153A7.746,7.746,0,0,1,12.774,34.1l-.642-3.078L6.165,32.264a3.5,3.5,0,0,1-4.133-2.707L.075,20.169a3.5,3.5,0,0,1,2.707-4.133l6.563-1.368L30.412.589a3.494,3.494,0,0,1,5.357,2.177L41.7,31.232a3.491,3.491,0,0,1-4.037,4.15L27.778,33.6l-.113.6a7.5,7.5,0,0,1-2.034,3.885A7.6,7.6,0,0,1,21.753,40.207Zm-7.5-6.417a6.23,6.23,0,0,0,6.232,5.065,6.27,6.27,0,0,0,.949-.123,6.619,6.619,0,0,0,4.89-5.1l.034-.174-.653-.229L13.682,31.067ZM31.95,1.545a1.994,1.994,0,0,0-.7.3L10.482,15.719,13.35,29.476,37.932,33.9a2.015,2.015,0,0,0,.763-.01,1.991,1.991,0,0,0,1.533-2.351L34.3,3.088A1.957,1.957,0,0,0,33.1,1.654a1.978,1.978,0,0,0-1.153-.109M3.089,17.512a1.989,1.989,0,0,0-1.539,2.35L3.507,29.25a1.989,1.989,0,0,0,2.35,1.539l5.968-1.244L9.057,16.268ZM52.1,31.083a.749.749,0,0,1-.567-.107L45.049,26.73a.753.753,0,0,1,.825-1.261l6.483,4.246a.753.753,0,0,1-.259,1.368M45,17.17a.753.753,0,0,1-.308-1.475l8.047-1.678a.753.753,0,1,1,.308,1.475ZM41.7,8.062a.753.753,0,0,1-.784-1.15L45.163.429a.753.753,0,0,1,1.26.825L42.177,7.737a.748.748,0,0,1-.476.325" transform="translate(-0.001 0)"/>
  </g>
</svg>
