<svg id="Group_5059" data-name="Group 5059" xmlns="http://www.w3.org/2000/svg" xmlns:xlink="http://www.w3.org/1999/xlink" width="38.564" height="46.014" viewBox="0 0 38.564 46.014">
  <defs>
    <clipPath id="clip-path">
      <rect id="Rectangle_913" data-name="Rectangle 913" width="38.564" height="46.014" transform="translate(0 0)" fill="none"/>
    </clipPath>
  </defs>
  <g id="Group_5059-2" data-name="Group 5059" clip-path="url(#clip-path)">
    <path id="Path_2342" data-name="Path 2342" d="M37.912,0H.646A.648.648,0,0,0,0,.65V45.861l30.46.153h.008c.016,0,.029-.008.044-.009a.669.669,0,0,0,.2-.043c.019-.008.033-.024.051-.033a.625.625,0,0,0,.153-.1l7.452-7.452c.006-.006.008-.015.014-.021a.645.645,0,0,0,.177-.445V.644A.648.648,0,0,0,37.912,0M29.8,44.71H1.3V1.3H37.252V37.258H30.444a.648.648,0,0,0-.644.652Zm6.543-6.148-5.231,5.231V38.562Z"/>
    <path id="Path_2343" data-name="Path 2343" d="M19.282,23.658a9.967,9.967,0,1,1,9.967-9.967,9.967,9.967,0,0,1-9.967,9.967m0-18.63a8.663,8.663,0,1,0,8.663,8.663,8.664,8.664,0,0,0-8.663-8.663"/>
    <path id="Path_2344" data-name="Path 2344" d="M22.077,14.342h-2.8a.648.648,0,0,1-.652-.644V8.1a.652.652,0,0,1,1.3-.1.579.579,0,0,1,0,.1v4.94h2.142a.652.652,0,1,1,.1,1.3.579.579,0,0,1-.1,0Z"/>
    <path id="Path_2345" data-name="Path 2345" d="M6.776,28.469a.582.582,0,1,1,0-1.165H31.387a.582.582,0,0,1,0,1.165Z"/>
    <path id="Path_2346" data-name="Path 2346" d="M6.2,38.818h0a.583.583,0,0,1,.582-.582h13.5a.583.583,0,1,1,0,1.165H6.78a.584.584,0,0,1-.582-.582"/>
    <path id="Path_2347" data-name="Path 2347" d="M6.776,33.935a.583.583,0,1,1,0-1.165H31.387a.583.583,0,0,1,0,1.165Z"/>
  </g>
</svg>
