<svg id="Group_5070" data-name="Group 5070" xmlns="http://www.w3.org/2000/svg" xmlns:xlink="http://www.w3.org/1999/xlink" width="38.564" height="46.014" viewBox="0 0 38.564 46.014">
  <defs>
    <clipPath id="clip-path">
      <rect id="Rectangle_915" data-name="Rectangle 915" width="38.564" height="46.014" transform="translate(0 0)" fill="none"/>
    </clipPath>
  </defs>
  <g id="Group_5067" data-name="Group 5067" clip-path="url(#clip-path)">
    <path id="Path_2350" data-name="Path 2350" d="M37.912,0H.646A.648.648,0,0,0,0,.65V45.861l30.46.153h.008c.016,0,.029-.008.044-.009a.669.669,0,0,0,.2-.043c.019-.008.033-.024.051-.033a.625.625,0,0,0,.153-.1l7.452-7.452c.006-.006.008-.015.014-.021a.645.645,0,0,0,.177-.445V.644A.648.648,0,0,0,37.912,0M29.8,44.71H1.3V1.3H37.252V37.258H30.444a.648.648,0,0,0-.644.652Zm6.543-6.148-5.231,5.231V38.562Z"/>
    <path id="Path_2351" data-name="Path 2351" d="M14.776,33.846a.583.583,0,1,1,0-1.165H32.387a.583.583,0,0,1,0,1.165Z"/>
    <path id="Path_2352" data-name="Path 2352" d="M32.387,31.471H14.776a.583.583,0,1,1,0-1.165H32.387a.583.583,0,0,1,0,1.165"/>
    <path id="Path_2353" data-name="Path 2353" d="M9.78,34.52H6.537a.823.823,0,0,1-.823-.822V30.454a.823.823,0,0,1,.823-.822H9.78a.823.823,0,0,1,.823.822V33.7a.823.823,0,0,1-.823.822m-3.066-1H9.6V30.631H6.714Z"/>
    <path id="Path_2354" data-name="Path 2354" d="M14.776,25.747a.582.582,0,1,1,0-1.165H32.387a.582.582,0,0,1,0,1.165Z"/>
    <path id="Path_2355" data-name="Path 2355" d="M32.387,23.372H14.776a.582.582,0,1,1,0-1.165H32.387a.582.582,0,0,1,0,1.165"/>
    <path id="Path_2356" data-name="Path 2356" d="M9.78,26.421H6.537a.823.823,0,0,1-.823-.822V22.355a.824.824,0,0,1,.823-.823H9.78a.824.824,0,0,1,.823.823V25.6a.823.823,0,0,1-.823.822m-3.066-1H9.6V22.532H6.714Z"/>
    <path id="Path_2357" data-name="Path 2357" d="M14.776,17.647a.582.582,0,1,1,0-1.165H32.387a.582.582,0,0,1,0,1.165Z"/>
    <path id="Path_2358" data-name="Path 2358" d="M32.387,15.272H14.776a.583.583,0,1,1,0-1.165H32.387a.583.583,0,0,1,0,1.165"/>
    <path id="Path_2359" data-name="Path 2359" d="M9.78,18.322H6.537a.824.824,0,0,1-.823-.823V14.255a.823.823,0,0,1,.823-.822H9.78a.823.823,0,0,1,.823.822V17.5a.824.824,0,0,1-.823.823m-3.066-1H9.6V14.433H6.714Z"/>
    <path id="Path_2360" data-name="Path 2360" d="M14.776,9.548a.583.583,0,1,1,0-1.165H32.387a.583.583,0,0,1,0,1.165Z"/>
    <path id="Path_2361" data-name="Path 2361" d="M32.387,7.173H14.776a.583.583,0,1,1,0-1.165H32.387a.583.583,0,0,1,0,1.165"/>
    <path id="Path_2362" data-name="Path 2362" d="M9.78,10.222H6.537A.823.823,0,0,1,5.714,9.4V6.156a.823.823,0,0,1,.823-.822H9.78a.823.823,0,0,1,.823.822V9.4a.823.823,0,0,1-.823.822m-3.066-1H9.6V6.333H6.714Z"/>
  </g>
</svg>
