<svg xmlns="http://www.w3.org/2000/svg" xmlns:xlink="http://www.w3.org/1999/xlink" width="46.011" height="46.011" viewBox="0 0 46.011 46.011">
  <defs>
    <clipPath id="clip-path">
      <rect id="Rectangle_882" data-name="Rectangle 882" width="46.011" height="46.011" fill="none"/>
    </clipPath>
  </defs>
  <g id="Group_4853" data-name="Group 4853" clip-path="url(#clip-path)">
    <path id="Path_2238" data-name="Path 2238" d="M2.188,34A2.188,2.188,0,0,1,0,31.812V2.187A2.188,2.188,0,0,1,2.188,0H31.813A2.188,2.188,0,0,1,34,2.187V31.812A2.188,2.188,0,0,1,31.813,34ZM1.172,31.812a1.016,1.016,0,0,0,1.015,1.015H31.813a1.015,1.015,0,0,0,1.015-1.015V27.6H1.172Zm0-14.413V26.43H32.821v-7.87l-5.4-3.93-4.928,7.3a.585.585,0,0,1-.485.258h-.028a.613.613,0,0,1-.487-.243L12.334,9.612ZM12.466,8.205a.6.6,0,0,1,.488.25L22,20.592l4.809-7.124a.586.586,0,0,1,.827-.142l5.2,3.786V2.187a1.015,1.015,0,0,0-1.015-1.015H2.019l-.035.02a1.019,1.019,0,0,0-.813.995V15.979L12.14,8.3a.6.6,0,0,1,.326-.1" transform="translate(0 0.001)"/>
    <path id="Path_2239" data-name="Path 2239" d="M537.135,99.926a3.166,3.166,0,0,1-3.24-3.266,3.173,3.173,0,0,1,3.241-3.278,3.3,3.3,0,0,1,2.427,1.052,3.454,3.454,0,0,1,0,4.439,3.3,3.3,0,0,1-2.427,1.052m-.044-5.371a2.1,2.1,0,0,0,0,4.2l.045,0,.045,0a2.1,2.1,0,0,0,0-4.2l-.045,0Z" transform="translate(-511.096 -89.394)"/>
    <path id="Path_2240" data-name="Path 2240" d="M283.433,315.245a2.188,2.188,0,0,1-2.187-2.187v-6.406a.586.586,0,0,1,1.172,0v1.023h31.656V283.419a1.021,1.021,0,0,0-1-1h-6.418a.586.586,0,0,1,0-1.172h6.435a2.188,2.188,0,0,1,2.158,2.187v29.626a2.188,2.188,0,0,1-2.187,2.188Zm-1.015-2.175a1.021,1.021,0,0,0,1,1h29.65a1.02,1.02,0,0,0,1-1v-4.222H282.418Z" transform="translate(-269.236 -269.234)"/>
  </g>
</svg>
