<svg id="Group_5052" data-name="Group 5052" xmlns="http://www.w3.org/2000/svg" xmlns:xlink="http://www.w3.org/1999/xlink" width="38.564" height="46.014" viewBox="0 0 38.564 46.014">
  <defs>
    <clipPath id="clip-path">
      <rect id="Rectangle_912" data-name="Rectangle 912" width="38.564" height="46.014" transform="translate(0 0)" fill="none"/>
    </clipPath>
  </defs>
  <g id="Group_5054" data-name="Group 5054" clip-path="url(#clip-path)">
    <path id="Path_2336" data-name="Path 2336" d="M37.912,0H.646A.648.648,0,0,0,0,.65V45.861l30.46.153h.008c.016,0,.029-.008.044-.009a.669.669,0,0,0,.2-.043c.019-.008.033-.024.051-.033a.625.625,0,0,0,.153-.1l7.452-7.452c.006-.006.008-.015.014-.021a.645.645,0,0,0,.177-.445V.644A.648.648,0,0,0,37.912,0M29.8,44.71H1.3V1.3H37.252V37.258H30.444a.648.648,0,0,0-.644.652Zm6.543-6.148-5.231,5.231V38.562Z"/>
    <path id="Path_2337" data-name="Path 2337" d="M6.776,26.752a.583.583,0,1,1,0-1.165H31.387a.583.583,0,0,1,0,1.165Z"/>
    <path id="Path_2338" data-name="Path 2338" d="M6.776,33.076a.583.583,0,1,1,0-1.165H31.387a.583.583,0,0,1,0,1.165Z"/>
    <path id="Path_2339" data-name="Path 2339" d="M6.194,7.2a.584.584,0,0,1,.582-.582h13.5a.583.583,0,1,1,0,1.165H6.776A.584.584,0,0,1,6.194,7.2"/>
    <path id="Path_2340" data-name="Path 2340" d="M31.387,14.1H6.776a.583.583,0,1,1,0-1.165H31.387a.583.583,0,0,1,0,1.165"/>
    <path id="Path_2341" data-name="Path 2341" d="M31.387,20.427H6.776a.583.583,0,1,1,0-1.165H31.387a.583.583,0,0,1,0,1.165"/>
  </g>
</svg>
