<svg xmlns="http://www.w3.org/2000/svg" width="56.399" height="58.279" viewBox="0 0 56.399 58.279">
  <g id="noun-archive-1098690" transform="translate(-240 -228)">
    <path id="Path_2228" data-name="Path 2228" d="M296.4,270.3V237.4A9.428,9.428,0,0,0,287,228H249.4a9.428,9.428,0,0,0-9.4,9.4v39.48a9.428,9.428,0,0,0,9.4,9.4H287a9.428,9.428,0,0,0,9.4-9.4Zm-47-38.54H287a5.656,5.656,0,0,1,5.64,5.64v17.86H243.76V237.4A5.656,5.656,0,0,1,249.4,231.76Zm43.24,45.12a5.656,5.656,0,0,1-5.64,5.64H249.4a5.656,5.656,0,0,1-5.64-5.64V259.02h48.88Z"/>
    <path id="Path_2229" data-name="Path 2229" d="M483.76,380.46h11.28a3.771,3.771,0,0,0,3.76-3.76v-2.82a1.88,1.88,0,1,0-3.76,0v2.82H483.76v-2.82a1.88,1.88,0,1,0-3.76,0v2.82A3.771,3.771,0,0,0,483.76,380.46Z" transform="translate(-221.2 -132.72)"/>
    <path id="Path_2230" data-name="Path 2230" d="M496.92,708a1.886,1.886,0,0,0-1.88,1.88v2.82H483.76v-2.82a1.88,1.88,0,1,0-3.76,0v2.82a3.771,3.771,0,0,0,3.76,3.76h11.28a3.771,3.771,0,0,0,3.76-3.76v-2.82A1.886,1.886,0,0,0,496.92,708Z" transform="translate(-221.2 -442.4)"/>
  </g>
</svg>
