<?xml version="1.0" encoding="utf-8"?>
<!-- Generator: Adobe Illustrator 27.2.0, SVG Export Plug-In . SVG Version: 6.00 Build 0)  -->
<svg version="1.1" id="Layer_1" xmlns="http://www.w3.org/2000/svg" xmlns:xlink="http://www.w3.org/1999/xlink" x="0px" y="0px"
	 viewBox="0 0 8.9 8.1" style="enable-background:new 0 0 8.9 8.1;" xml:space="preserve">
<style type="text/css">
	.st0{fill-rule:evenodd;clip-rule:evenodd;fill:#7C7C80;stroke:#707070;stroke-width:0.2;}
</style>
<path class="st0" d="M2.8,4.2c-0.1-0.1-0.1-0.3,0-0.4c0.1-0.1,0.3-0.1,0.4,0l1.2,1.3V0.4c0-0.1,0.1-0.3,0.3-0.3
	c0.1,0,0.3,0.1,0.3,0.3v4.8l1.2-1.3c0.1-0.1,0.3-0.1,0.4,0c0.1,0.1,0.1,0.3,0,0.4L4.8,6C4.7,6.1,4.6,6.1,4.5,6c0,0,0,0,0,0l0,0
	L2.8,4.2z"/>
<path class="st0" d="M8.6,4.8c-0.1,0-0.3,0.1-0.3,0.3v2.4H0.6V5.1c0-0.1-0.1-0.3-0.3-0.3c-0.1,0-0.3,0.1-0.3,0.3v2.7
	C0.1,7.9,0.2,8,0.4,8h8.2c0.1,0,0.3-0.1,0.3-0.3c0,0,0,0,0,0l0,0V5.1C8.8,4.9,8.7,4.8,8.6,4.8C8.6,4.8,8.6,4.8,8.6,4.8z"/>
</svg>
