<svg xmlns="http://www.w3.org/2000/svg" width="37.709" height="37.709" viewBox="0 0 37.709 37.709">
  <g id="Group_5034" data-name="Group 5034" transform="translate(0 -0.003)">
    <path id="Path_2292" data-name="Path 2292" d="M1.3,3.132l33.28,33.28H1.3ZM0,0V37.712H37.709Z"/>
    <path id="Path_2293" data-name="Path 2293" d="M235.79,507.9v16.179h16.179Zm1.284,3.129,11.767,11.751H237.074Z" transform="translate(-228.226 -491.606)"/>
    <rect id="Rectangle_901" data-name="Rectangle 901" width="3.029" height="1.299" transform="translate(1.459 12.555)"/>
    <rect id="Rectangle_902" data-name="Rectangle 902" width="1.866" height="1.299" transform="translate(1.459 17.21)"/>
    <rect id="Rectangle_903" data-name="Rectangle 903" width="3.029" height="1.299" transform="translate(1.459 21.865)"/>
    <rect id="Rectangle_904" data-name="Rectangle 904" width="1.866" height="1.299" transform="translate(1.459 26.52)"/>
    <rect id="Rectangle_905" data-name="Rectangle 905" width="3.029" height="1.299" transform="translate(1.459 31.175)"/>
    <path id="Path_2294" data-name="Path 2294" d="M345.976,31.06,344.5,25.21,322.988,3.7,318.582,8.1,340.1,29.615Zm-1.8-1.752-3.435-.89-16.892-16.84,2.571-2.571L343.29,25.873ZM322.91,5.493l2.6,2.6-2.573,2.573-2.6-2.591Z" transform="translate(-308.362 -3.574)"/>
  </g>
</svg>
