<?xml version="1.0" encoding="UTF-8"?><svg id="a" xmlns="http://www.w3.org/2000/svg" width="34" height="34" viewBox="0 0 34 34"><circle id="b" cx="17" cy="17" r="17" fill="#f6f5f3"/><g><path d="m11.4,14.3c-.7,0-1.09-.39-1.09-1.1v-1.59c0-.71.39-1.1,1.09-1.1h1.62c.7,0,1.08.39,1.08,1.1v1.59c0,.71-.38,1.1-1.08,1.1h-1.62Z"/><path d="m11.4,18.89c-.7,0-1.09-.39-1.09-1.09v-1.59c0-.71.39-1.09,1.09-1.09h1.62c.7,0,1.08.39,1.08,1.09v1.59c0,.71-.38,1.09-1.08,1.09h-1.62Z"/><path d="m11.39,23.49c-.7,0-1.09-.39-1.09-1.1v-1.58c0-.71.39-1.11,1.09-1.11h1.62c.7,0,1.08.39,1.08,1.11v1.58c0,.71-.38,1.1-1.08,1.1h-1.62Z"/><path d="m16.19,14.3c-.7,0-1.08-.39-1.08-1.1v-1.59c0-.71.38-1.1,1.08-1.1h1.62c.7,0,1.08.39,1.08,1.1v1.59c0,.71-.38,1.1-1.08,1.1h-1.62Z"/><path d="m16.19,18.89c-.7,0-1.08-.39-1.08-1.09v-1.59c0-.71.38-1.09,1.08-1.09h1.62c.7,0,1.08.39,1.08,1.09v1.59c0,.71-.38,1.09-1.08,1.09h-1.62Z"/><path d="m16.19,23.49c-.7,0-1.08-.39-1.08-1.1v-1.58c0-.71.38-1.11,1.08-1.11h1.62c.7,0,1.08.39,1.08,1.11v1.58c0,.71-.38,1.1-1.08,1.1h-1.62Z"/><path d="m20.99,14.3c-.7,0-1.09-.39-1.09-1.1v-1.59c0-.71.39-1.1,1.09-1.1h1.62c.7,0,1.09.39,1.09,1.1v1.59c0,.71-.39,1.1-1.09,1.1h-1.62Z"/><path d="m20.99,18.89c-.7,0-1.09-.39-1.09-1.09v-1.59c0-.71.39-1.09,1.09-1.09h1.62c.7,0,1.09.39,1.09,1.09v1.59c0,.71-.39,1.09-1.09,1.09h-1.62Z"/><path d="m20.99,23.49c-.7,0-1.09-.39-1.09-1.1v-1.58c0-.71.39-1.11,1.09-1.11h1.62c.7,0,1.09.39,1.09,1.11v1.58c0,.71-.39,1.1-1.09,1.1h-1.62Z"/></g></svg>