<?xml version="1.0" encoding="UTF-8"?><svg id="a" xmlns="http://www.w3.org/2000/svg" width="55" height="55" viewBox="0 0 55 55"><g id="b"><g><g><path d="m49.18,27.57c1.21-1.21,2.18-2.64,2.86-4.24s1.05-3.35,1.05-5.19-.37-3.6-1.05-5.19-1.65-3.03-2.86-4.24-2.64-2.18-4.24-2.86-3.35-1.05-5.19-1.05-3.6.37-5.19,1.05-3.03,1.65-4.24,2.86-2.14,2.64-2.82,4.24c-.68-1.6-1.61-3.03-2.82-4.24s-2.64-2.18-4.24-2.86-3.35-1.05-5.19-1.05-3.6.37-5.19,1.05-3.03,1.65-4.24,2.86-2.18,2.64-2.86,4.24-1.05,3.35-1.05,5.19.37,3.6,1.05,5.19,1.65,3.03,2.86,4.24l21.95,21.95,21.41-21.95Z" fill="#ffffff"/><path d="m27.79,51.8L4.69,28.7c-1.37-1.37-2.45-2.97-3.2-4.75-.78-1.84-1.17-3.8-1.17-5.82s.4-3.97,1.17-5.82c.75-1.78,1.83-3.38,3.2-4.75,1.37-1.37,2.97-2.45,4.75-3.2,3.69-1.56,7.95-1.56,11.63,0,1.78.75,3.38,1.83,4.75,3.2.62.62,1.18,1.3,1.68,2.03.5-.74,1.06-1.42,1.68-2.03,1.37-1.37,2.97-2.45,4.75-3.2,3.69-1.56,7.95-1.56,11.63,0,1.78.75,3.38,1.83,4.75,3.2,1.37,1.37,2.45,2.97,3.2,4.75.78,1.84,1.18,3.8,1.18,5.82s-.4,3.97-1.18,5.82c-.75,1.78-1.83,3.37-3.2,4.74l-22.53,23.11ZM15.25,6.4c-1.59,0-3.12.31-4.57.92-1.4.59-2.65,1.44-3.73,2.52-1.08,1.08-1.93,2.33-2.52,3.73-.61,1.45-.92,2.98-.92,4.57s.31,3.12.92,4.57c.59,1.4,1.44,2.65,2.52,3.73l20.81,20.81,20.29-20.81c1.08-1.08,1.93-2.33,2.52-3.73.61-1.45.92-2.98.92-4.57s-.31-3.12-.92-4.57c-.59-1.4-1.44-2.65-2.52-3.73-1.08-1.08-2.33-1.93-3.73-2.52-2.89-1.22-6.25-1.22-9.14,0-1.4.59-2.65,1.44-3.73,2.52-1.03,1.03-1.86,2.28-2.47,3.73l-1.47,3.48-1.47-3.48c-.61-1.45-1.45-2.7-2.47-3.73-1.08-1.08-2.33-1.93-3.73-2.52-1.45-.61-2.98-.92-4.57-.92Z"/></g><path d="m21.87,33.05c-.67,0-1.33-.28-1.8-.81-.03-.04-3.43-3.89-6.7-6.7-4.3-3.7-3.52-10.61-3.42-11.38.18-1.31,1.38-2.24,2.69-2.07,1.31.17,2.24,1.38,2.07,2.69-.18,1.4-.2,5.4,1.8,7.12,3.52,3.04,7.02,7,7.17,7.17.88,1,.78,2.51-.22,3.39-.46.4-1.02.6-1.59.6Z" fill="#ffffff"/></g></g></svg>
