<svg xmlns="http://www.w3.org/2000/svg" width="27.783" height="17.92" viewBox="0 0 27.783 17.92">
  <path id="HidePassword1" d="M-50.216-17.748A15.861,15.861,0,0,0-36.8-25.086a2.987,2.987,0,0,0,0-3.246,15.931,15.931,0,0,0-22.01-4.814,15.93,15.93,0,0,0-4.814,4.814,2.987,2.987,0,0,0,0,3.246A15.861,15.861,0,0,0-50.216-17.748Zm11.74-9.509a1,1,0,0,1,0,1.1,13.94,13.94,0,0,1-10.953,6.373,6.97,6.97,0,0,0,6.089-7.752,6.97,6.97,0,0,0-6.089-6.089A13.761,13.761,0,0,1-38.476-27.257Zm-23.479,0A13.941,13.941,0,0,1-51-33.629a6.97,6.97,0,0,0-6.089,7.752A6.97,6.97,0,0,0-51-19.789a13.94,13.94,0,0,1-10.953-6.373A1.146,1.146,0,0,1-61.955-27.257Z" transform="translate(64.108 35.668)" fill="#e2e2e2"/>
</svg>
