<svg xmlns="http://www.w3.org/2000/svg" xmlns:xlink="http://www.w3.org/1999/xlink" width="39.138" height="49.076" viewBox="0 0 39.138 49.076">
  <defs>
    <clipPath id="clip-path">
      <rect id="Rectangle_900" data-name="Rectangle 900" width="39.138" height="49.076" transform="translate(0 0)" fill="none"/>
    </clipPath>
  </defs>
  <g id="Group_5032" data-name="Group 5032" transform="translate(0 -0.005)">
    <g id="Group_5031" data-name="Group 5031" transform="translate(0 0.005)" clip-path="url(#clip-path)">
      <path id="Path_2291" data-name="Path 2291" d="M19.576,49.081a3.225,3.225,0,0,1-3.225-3.225v-.5l-.206-.072A1.936,1.936,0,0,1,14.9,43.005l.073-.305-.306-.067a1.939,1.939,0,0,1-.58-3.56l.959-.572h-.817V37.048a6.894,6.894,0,0,0-2.5-5.453,12.011,12.011,0,0,1,7.846-21.106h.088A12.012,12.012,0,0,1,27.424,31.6a6.893,6.893,0,0,0-2.5,5.453v1.566c0,.053,0,.108-.007.169l-.016.191.165.1a1.94,1.94,0,0,1-.583,3.56l-.306.067.073.305a1.937,1.937,0,0,1-1.245,2.276l-.206.072v.5a3.225,3.225,0,0,1-3.225,3.225m-2.054-3.224a2.055,2.055,0,0,0,4.11,0v-.466h-4.11Zm-.744-3.177a.772.772,0,0,0,0,1.542h5.588a.774.774,0,0,0,.771-.767v-.008a.773.773,0,0,0-.767-.768H16.778Zm7.31-1.17a.767.767,0,0,0,.536-.217.772.772,0,0,0,0-1.11.768.768,0,0,0-.536-.217H15.067a.772.772,0,1,0,0,1.543h9.023M21.036,27.7a.585.585,0,0,1,.585.585V38.8h2.137v-1.75a8.135,8.135,0,0,1,2.9-6.332l-.454-.407.456.405a10.842,10.842,0,1,0-14.159,0,8.136,8.136,0,0,1,2.9,6.33V38.8h2.137V28.287a.585.585,0,0,1,1.17,0V38.8h1.746V28.287a.585.585,0,0,1,.585-.585M.585,34.051a.585.585,0,0,1-.282-1.1l4.748-2.741a.586.586,0,0,1,.8.215h0a.585.585,0,0,1-.216.8L.888,33.967a.585.585,0,0,1-.3.085m37.968-.009a.586.586,0,0,1-.293-.078l-4.744-2.738a.585.585,0,0,1,.284-1.1.585.585,0,0,1,.3.082l4.745,2.74a.585.585,0,0,1,.216.8.584.584,0,0,1-.506.292M19.579,25.535a5.461,5.461,0,0,1-3.515-1.284.585.585,0,1,1,.752-.9,4.288,4.288,0,0,0,5.526,0,.584.584,0,0,1,.375-.136l.051,0a.585.585,0,0,1,.326,1.03,5.461,5.461,0,0,1-3.515,1.284M33.811,14.868a.583.583,0,0,1-.151-.02.589.589,0,0,1-.356-.273.585.585,0,0,1,.215-.8L37.8,11.305l.462-.266a.585.585,0,0,1,.585,1.013L34.1,14.79a.586.586,0,0,1-.292.078m-28.467,0a.585.585,0,0,1-.292-.078L.309,12.049a.585.585,0,1,1,.585-1.013l4.744,2.74a.585.585,0,0,1,.231.764l-.019.032a.586.586,0,0,1-.507.293M19.578,6.653a.585.585,0,0,1-.585-.585V.59a.585.585,0,1,1,1.17,0V6.068a.585.585,0,0,1-.585.585" transform="translate(0 -0.005)"/>
    </g>
  </g>
</svg>
