<?xml version="1.0" encoding="UTF-8"?><svg id="a" xmlns="http://www.w3.org/2000/svg" width="34" height="34" viewBox="0 0 34 34"><circle id="b" cx="17" cy="17" r="17" fill="#f6f5f3"/><g><path d="m11.22,14.18c-.64,0-1.17-.53-1.17-1.17,0-.65.52-1.17,1.17-1.18.64,0,1.17.53,1.17,1.18,0,.64-.52,1.17-1.17,1.17Z"/><path d="m14.76,13.86c-.45,0-.83-.37-.83-.82,0-.49.37-.87.83-.87h9.21c.47,0,.84.37.85.82,0,.49-.38.87-.85.87h-9.2Z"/><path d="m11.22,18.51c-.64,0-1.17-.53-1.17-1.17,0-.64.52-1.17,1.17-1.17.64,0,1.17.53,1.17,1.17,0,.64-.52,1.17-1.17,1.17Z"/><path d="m14.76,18.19c-.45,0-.83-.37-.83-.82,0-.25.08-.46.24-.62.16-.16.36-.25.59-.25h9.21c.47,0,.84.37.85.82,0,.25-.08.46-.24.62s-.36.25-.59.25h-9.22Z"/><path d="m11.22,22.84c-.64,0-1.17-.53-1.17-1.17,0-.65.52-1.17,1.17-1.17.64,0,1.17.53,1.17,1.17,0,.64-.52,1.17-1.17,1.17Z"/><path d="m14.76,22.52c-.45,0-.83-.37-.83-.82,0-.49.36-.87.82-.87h9.21c.47,0,.84.37.85.82,0,.49-.38.87-.85.87h-9.2Z"/></g></svg>