<svg xmlns="http://www.w3.org/2000/svg" width="55.47" height="47.536" viewBox="0 0 55.47 47.536">
  <path id="Path_2348" data-name="Path 2348" d="M10.412,29.494l11.744,2.349V30.483L10.412,28.135Zm22.906.99v1.359l11.744-2.349V28.135ZM10.412,23.247,22.156,25.6V24.236L10.412,21.888Zm22.906.99V25.6l11.744-2.349V21.888ZM10.412,17l11.744,2.349V17.989L10.412,15.64Zm22.906.99v1.359L45.062,17V15.64ZM10.412,10.753,22.156,13.1V11.742L10.412,9.393Zm22.906.99V13.1l11.744-2.349V9.393ZM1.333,40.9V6.292H4.165V37.824l22.906,4.581v3.639ZM28.4,42.4l22.9-4.58V6.292h2.832V40.9L28.4,46.043ZM5.5,36.732V1.626L27.067,5.94V41.045ZM28.4,5.94l21.57-4.314V36.732L28.4,41.045ZM4.165,0V4.959H0V41.988l27.735,5.547L55.47,41.988V4.959H51.305V0L27.735,4.714Z"/>
</svg>
