<svg xmlns="http://www.w3.org/2000/svg" xmlns:xlink="http://www.w3.org/1999/xlink" width="15.57" height="20" viewBox="0 0 15.57 20">
  <defs>
    <clipPath id="clip-path">
      <rect id="Rectangle_508" data-name="Rectangle 508" width="15.57" height="20" transform="translate(0 0)" fill="none"/>
    </clipPath>
  </defs>
  <g id="Group_3461" data-name="Group 3461" transform="translate(0 0.002)">
    <g id="Group_3459" data-name="Group 3459" transform="translate(0 -0.002)" clip-path="url(#clip-path)">
      <path id="Path_1750" data-name="Path 1750" d="M145.852,165.388c-.426-.475-.847-1.005-1.225-1.483-.179-.226-.35-.441-.509-.636l-.012-.014a6.69,6.69,0,0,0,.4-1.622,2.826,2.826,0,0,0-.356-2.055.784.784,0,0,0-.834-.208,1.1,1.1,0,0,0-.674.777,4.2,4.2,0,0,0,.579,3.228,23.821,23.821,0,0,1-1.241,2.679,5.889,5.889,0,0,0-2.191,1.268c-.691.675-.972,1.344-.771,1.837a.79.79,0,0,0,.766.487,1.444,1.444,0,0,0,.775-.258,9.411,9.411,0,0,0,1.968-2.68,12.2,12.2,0,0,1,2.361-.463c.215-.021.429-.037.635-.049a4.314,4.314,0,0,0,2.142,1.459,2.061,2.061,0,0,0,.376.035,1.26,1.26,0,0,0,1.131-.546.809.809,0,0,0-.008-.826c-.348-.6-1.4-.935-2.959-.935-.112,0-.228,0-.348.005Zm-5.731,3.335a.7.7,0,0,1-.341.129.156.156,0,0,1-.035,0c-.016-.079.041-.421.594-.962a4.184,4.184,0,0,1,.978-.691A5.89,5.89,0,0,1,140.121,168.723Zm3.271-8.331c.058-.177.129-.257.174-.272h0c.043.048.226.325.144,1.456a4.048,4.048,0,0,1-.143.743,3.138,3.138,0,0,1-.178-1.926Zm1.415,5.063a13.454,13.454,0,0,0-1.78.294c.278-.555.535-1.117.75-1.638l.228.287c.259.327.55.694.852,1.053Zm3.665,1.258c.012.02.012.029.009.034a.55.55,0,0,1-.446.149,1.272,1.272,0,0,1-.231-.022,2.632,2.632,0,0,1-1.163-.689C147.874,166.244,148.373,166.541,148.473,166.713Z" transform="translate(-136.329 -156.32)"/>
      <path id="Path_1751" data-name="Path 1751" d="M206.076,750.251a.831.831,0,0,0-.331-.177,2.054,2.054,0,0,0-.533-.054h-.758a.461.461,0,0,0-.323.1.422.422,0,0,0-.108.32v2.249a.438.438,0,0,0,.1.3.351.351,0,0,0,.51,0,.442.442,0,0,0,.1-.307v-.769h.485a1.305,1.305,0,0,0,.854-.243.888.888,0,0,0,.3-.719,1.053,1.053,0,0,0-.072-.4.806.806,0,0,0-.213-.3Zm-.49.94a.351.351,0,0,1-.185.123,1.147,1.147,0,0,1-.332.041h-.341v-.778h.341c.308,0,.432.061.482.111a.384.384,0,0,1,.1.276A.375.375,0,0,1,205.587,751.191Z" transform="translate(-200.174 -735.869)"/>
      <path id="Path_1752" data-name="Path 1752" d="M350.477,750.287a1.009,1.009,0,0,0-.413-.221,2.156,2.156,0,0,0-.53-.057h-.77a.365.365,0,0,0-.419.419v2.139a.921.921,0,0,0,.027.245.281.281,0,0,0,.132.17.525.525,0,0,0,.272.057h.77a2.359,2.359,0,0,0,.37-.026,1.241,1.241,0,0,0,.314-.094,1.072,1.072,0,0,0,.271-.179,1.281,1.281,0,0,0,.256-.326,1.484,1.484,0,0,0,.147-.407,2.389,2.389,0,0,0,.047-.491,1.538,1.538,0,0,0-.475-1.229Zm-.515,2.046a.426.426,0,0,1-.137.079.677.677,0,0,1-.159.037c-.054.005-.13.008-.226.008h-.391v-1.867h.334a1.529,1.529,0,0,1,.445.056.526.526,0,0,1,.289.249,1.226,1.226,0,0,1,.122.617,1.034,1.034,0,0,1-.277.821Z" transform="translate(-341.773 -735.857)"/>
      <path id="Path_1753" data-name="Path 1753" d="M509.174,750.018h-1.393a.544.544,0,0,0-.23.042.29.29,0,0,0-.146.145.543.543,0,0,0-.043.232v2.245a.442.442,0,0,0,.1.309.356.356,0,0,0,.509,0,.444.444,0,0,0,.1-.31v-.9h.917a.35.35,0,0,0,.238-.074.259.259,0,0,0,.087-.2.263.263,0,0,0-.085-.2.346.346,0,0,0-.24-.076h-.917v-.633h1.108a.357.357,0,0,0,.248-.078.29.29,0,0,0,0-.414.36.36,0,0,0-.248-.077Z" transform="translate(-497.789 -735.867)"/>
      <path id="Path_1754" data-name="Path 1754" d="M.95,20a.951.951,0,0,1-.95-.95V.948A.951.951,0,0,1,.95,0H11.124L15.57,4.444v14.6a.951.951,0,0,1-.95.95Zm-.189-.762H14.808V5.316H11.2a.951.951,0,0,1-.95-.95V.76H.761ZM11.014,4.554H14.6L11.014.964Z" transform="translate(0 0.002)"/>
    </g>
  </g>
</svg>
