<svg id="Group_3233" data-name="Group 3233" xmlns="http://www.w3.org/2000/svg" xmlns:xlink="http://www.w3.org/1999/xlink" width="47" height="55.358" viewBox="0 0 47 55.358">
  <defs>
    <clipPath id="clip-path">
      <rect id="Rectangle_665" data-name="Rectangle 665" width="47" height="55.358" fill="none"/>
    </clipPath>
  </defs>
  <g id="Group_3233-2" data-name="Group 3233" clip-path="url(#clip-path)">
    <path id="Path_1798" data-name="Path 1798" d="M62.834,86.74h1.372V84.549a3.468,3.468,0,0,0,.473.027,2.84,2.84,0,0,0,1.99-.645,1.957,1.957,0,0,0,.563-1.454,1.791,1.791,0,0,0-.654-1.418,2.939,2.939,0,0,0-1.872-.491,11.327,11.327,0,0,0-1.872.127Zm1.372-5.072a2.361,2.361,0,0,1,.573-.054c.691,0,1.082.336,1.082.9,0,.627-.455,1-1.191,1a2.117,2.117,0,0,1-.464-.036Z" transform="translate(-54.676 -70.108)"/>
    <path id="Path_1799" data-name="Path 1799" d="M107.907,86.012a3.107,3.107,0,0,0,1.018-2.481,2.711,2.711,0,0,0-1.036-2.309,3.941,3.941,0,0,0-2.509-.654,12.367,12.367,0,0,0-1.872.127h0v6.017a11.969,11.969,0,0,0,1.572.091,4.4,4.4,0,0,0,2.827-.791m-3.009-.318V81.686a2.883,2.883,0,0,1,.627-.055,1.757,1.757,0,0,1,1.927,1.945,1.9,1.9,0,0,1-2.072,2.145,2.549,2.549,0,0,1-.482-.027Z" transform="translate(-90.069 -70.108)"/>
    <path id="Path_1800" data-name="Path 1800" d="M153.625,84.581h2.2V83.454h-2.2v-1.4h2.354V80.918h-3.745v6.126h1.391Z" transform="translate(-132.469 -70.412)"/>
    <path id="Path_1801" data-name="Path 1801" d="M140.882,207.809a24.631,24.631,0,0,0-4.251.3,21.725,21.725,0,0,1-3.488-4.6,20.382,20.382,0,0,0,1.079-5.381c-.049-2.076-.548-3.272-2.142-3.255s-1.827,1.412-1.617,3.489a16.116,16.116,0,0,0,1.152,4.051s-.737,2.292-1.711,4.573-1.639,3.477-1.639,3.477a16.683,16.683,0,0,0-4.722,2.43c-1.429,1.329-2.009,2.35-1.257,3.372.647.88,2.917,1.079,4.944-1.578a39.107,39.107,0,0,0,2.94-4.318s3.092-.847,4.054-1.079,2.124-.416,2.124-.416,2.824,2.84,5.547,2.74,2.591-1.627,2.574-1.794-.166-2.092-3.588-2.009m-17.887,8c-1.694-1.013,3.554-4.135,4.5-4.235,0,0-2.728,5.3-4.5,4.235m8.055-18.219c0-1.644.532-2.092.947-2.092s.88.2.9,1.627a18.681,18.681,0,0,1-.9,4.219,7.674,7.674,0,0,1-.947-3.754m2.187,11.261a13.08,13.08,0,0,0-2.552.847l.7-1.561c.7-1.561,1.412-3.687,1.412-3.687a24.616,24.616,0,0,0,2.874,3.9,22.623,22.623,0,0,0-2.43.5m4.085-.144s5.525-1,5.525.885-3.421,1.119-5.525-.885" transform="translate(-106.122 -169.57)"/>
    <path id="Path_1802" data-name="Path 1802" d="M46.618,8.115,39.079.609A1.3,1.3,0,0,0,37.98,0h-.012a1.3,1.3,0,0,0-.336.049H6.492a1.3,1.3,0,0,0-1.3,1.3V5.372H1.3A1.3,1.3,0,0,0,0,6.67V20.433a1.3,1.3,0,0,0,1.3,1.3h3.9V54.06a1.3,1.3,0,0,0,1.3,1.3H45.7a1.3,1.3,0,0,0,1.3-1.3V9.035a1.3,1.3,0,0,0-.382-.92M42.56,7.739l-3.222,0-.03-3.24ZM2.6,7.969H28.953V19.134H2.6ZM7.79,52.761V21.731H30.251a1.3,1.3,0,0,0,1.3-1.3V6.67a1.3,1.3,0,0,0-1.3-1.3H7.79V2.645h28.9l.059,6.407a1.3,1.3,0,0,0,1.3,1.286h0l6.351,0V52.761Z"/>
  </g>
</svg>
