<svg id="Group_5072" data-name="Group 5072" xmlns="http://www.w3.org/2000/svg" xmlns:xlink="http://www.w3.org/1999/xlink" width="38.564" height="46.014" viewBox="0 0 38.564 46.014">
  <defs>
    <clipPath id="clip-path">
      <rect id="Rectangle_916" data-name="Rectangle 916" width="38.564" height="46.014" transform="translate(0 0)" fill="none"/>
    </clipPath>
  </defs>
  <g id="Group_5072-2" data-name="Group 5072" clip-path="url(#clip-path)">
    <path id="Path_2363" data-name="Path 2363" d="M37.912,0H.646A.648.648,0,0,0,0,.65V45.861l30.46.153h.008c.016,0,.029-.008.044-.009a.641.641,0,0,0,.2-.043c.019-.008.033-.024.051-.033a.625.625,0,0,0,.153-.1l7.452-7.452c.006-.006.008-.014.014-.021a.645.645,0,0,0,.177-.445V.644A.648.648,0,0,0,37.912,0m-6.8,43.793V38.562h5.231Zm6.14-6.535H30.444a.648.648,0,0,0-.644.652v6.8H1.3V1.3H37.252Z"/>
    <path id="Path_2364" data-name="Path 2364" d="M14.776,33.984H32.387a.583.583,0,0,0,0-1.165H14.776a.583.583,0,1,0,0,1.165"/>
    <path id="Path_2365" data-name="Path 2365" d="M6.537,35.846H9.78a.824.824,0,0,0,.823-.823V31.779a.823.823,0,0,0-.823-.822H6.537a.823.823,0,0,0-.823.822v3.244a.824.824,0,0,0,.823.823m.177-3.889H9.6v2.889H6.714Z"/>
    <path id="Path_2366" data-name="Path 2366" d="M14.776,26.607H32.387a.583.583,0,0,0,0-1.165H14.776a.583.583,0,1,0,0,1.165" transform="translate(0 1)"/>
    <path id="Path_2367" data-name="Path 2367" d="M6.537,28.468H9.78a.823.823,0,0,0,.823-.822V24.4a.823.823,0,0,0-.823-.822H6.537a.823.823,0,0,0-.823.822v3.244a.823.823,0,0,0,.823.822m.177-3.888H9.6v2.889H6.714Z" transform="translate(0 1)"/>
    <path id="Path_2368" data-name="Path 2368" d="M14.776,19.229H32.387a.583.583,0,0,0,0-1.165H14.776a.583.583,0,1,0,0,1.165" transform="translate(0 2)"/>
    <path id="Path_2369" data-name="Path 2369" d="M6.537,21.091H9.78a.823.823,0,0,0,.823-.822V17.025A.824.824,0,0,0,9.78,16.2H6.537a.824.824,0,0,0-.823.823v3.244a.823.823,0,0,0,.823.822M6.714,17.2H9.6v2.889H6.714Z" transform="translate(0 2)"/>
    <path id="Path_2370" data-name="Path 2370" d="M19.672,13.8h-.029a1.322,1.322,0,0,1-1.292-1.356.63.63,0,1,0-1.26,0,2.593,2.593,0,0,0,1.952,2.5v.746a.632.632,0,0,0,.63.631v0a.632.632,0,0,0,.63-.631v-.747a2.591,2.591,0,0,0,1.952-2.5c0-1.98-1.458-2.331-2.436-2.566-1.088-.259-1.469-.431-1.469-1.335a1.32,1.32,0,0,1,1.292-1.292h.032a1.323,1.323,0,0,1,1.321,1.289.63.63,0,1,0,1.26,0A2.591,2.591,0,0,0,20.3,6.035V5.288a.63.63,0,1,0-1.26,0v.748a2.589,2.589,0,0,0-1.952,2.5c0,1.98,1.458,2.331,2.436,2.566,1.087.259,1.469.431,1.469,1.344v.059A1.326,1.326,0,0,1,19.672,13.8" transform="translate(-0.39 0.118)"/>
  </g>
</svg>
