<svg xmlns="http://www.w3.org/2000/svg" xmlns:xlink="http://www.w3.org/1999/xlink" width="46.36" height="44.028" viewBox="0 0 46.36 44.028">
  <defs>
    <clipPath id="clip-path">
      <rect id="Rectangle_880" data-name="Rectangle 880" width="46.36" height="44.028" transform="translate(0 0)" fill="none"/>
    </clipPath>
  </defs>
  <g id="Group_4862" data-name="Group 4862" transform="translate(0 0)">
    <g id="Group_4850" data-name="Group 4850" transform="translate(0 0)" clip-path="url(#clip-path)">
      <path id="Path_2222" data-name="Path 2222" d="M23.18,44.027a.59.59,0,0,1-.5-.268L16.6,34.452H4.153A4.158,4.158,0,0,1,0,30.3V4.152A4.158,4.158,0,0,1,4.153,0H42.207A4.157,4.157,0,0,1,46.36,4.152V30.3a4.158,4.158,0,0,1-4.153,4.153H29.761l-6.085,9.306a.59.59,0,0,1-.5.269M4.153,1.185A2.97,2.97,0,0,0,1.187,4.151V30.3a2.97,2.97,0,0,0,2.966,2.966H16.919a.59.59,0,0,1,.5.268l5.765,8.816,5.764-8.815a.59.59,0,0,1,.5-.269H42.207A2.97,2.97,0,0,0,45.173,30.3V4.151a2.97,2.97,0,0,0-2.966-2.966Z" transform="translate(0 0.001)"/>
      <path id="Path_2223" data-name="Path 2223" d="M489.529,571.121a1.3,1.3,0,1,1,1.314-1.3,1.3,1.3,0,0,1-1.314,1.3" transform="translate(-466.789 -543.557)"/>
      <path id="Path_2224" data-name="Path 2224" d="M396.542,165.359a.761.761,0,0,1-.776-.858,4.713,4.713,0,0,1,.552-2.519,9.8,9.8,0,0,1,2.446-2.522c2.022-1.614,2.671-2.674,2.671-4.36a3.558,3.558,0,0,0-1.24-2.733,4.69,4.69,0,0,0-3.083-1.052,4.837,4.837,0,0,0-3.057.919,5.12,5.12,0,0,0-1.651,2.417c-.287.716-.49.769-.766.769-.52,0-.6-.435-.6-.695a4.553,4.553,0,0,1,1.811-3.38,6.412,6.412,0,0,1,4.228-1.306,6.567,6.567,0,0,1,4.328,1.408,4.662,4.662,0,0,1,1.645,3.669c0,1.887-.826,3.253-3.047,5.04-2.181,1.741-2.55,2.521-2.687,4.3-.063.791-.411.9-.777.9" transform="translate(-373.867 -143.45)"/>
    </g>
  </g>
</svg>
