<svg xmlns="http://www.w3.org/2000/svg" xmlns:xlink="http://www.w3.org/1999/xlink" width="38.564" height="46.016" viewBox="0 0 38.564 46.016">
  <defs>
    <clipPath id="clip-path">
      <rect id="Rectangle_886" data-name="Rectangle 886" width="38.564" height="46.016" fill="none"/>
    </clipPath>
  </defs>
  <g id="Group_4863" data-name="Group 4863" clip-path="url(#clip-path)">
    <path id="Path_2247" data-name="Path 2247" d="M0,45.861V.65A.648.648,0,0,1,.652,0h37.26a.648.648,0,0,1,.652.652V37.91a.648.648,0,0,1-.652.652h-6.8v6.8a.648.648,0,0,1-.652.652S0,47.223,0,45.861ZM1.3,44.71h28.5v-6.8a.648.648,0,0,1,.652-.652h6.8V1.3H1.3Z" transform="translate(0 0.002)"/>
    <path id="Path_2248" data-name="Path 2248" d="M750.6,946.422a.688.688,0,0,1-.466-.186.658.658,0,0,1,0-.922l7.452-7.452a.652.652,0,0,1,.922.922l-7.452,7.452a.649.649,0,0,1-.456.186" transform="translate(-720.135 -900.406)"/>
    <path id="Path_2249" data-name="Path 2249" d="M425.062,657.562H399.386c-.527,0-.946-.289-.946-.652s.419-.652.946-.652h25.676c.527,0,.946.289.946.652s-.419.652-.946.652" transform="translate(-392.768 -630.176)"/>
    <path id="Path_2250" data-name="Path 2250" d="M425.062,751.312H399.386c-.527,0-.946-.289-.946-.652s.419-.652.946-.652h25.676c.527,0,.946.289.946.652s-.419.652-.946.652" transform="translate(-392.768 -720.2)"/>
    <path id="Path_2251" data-name="Path 2251" d="M425.062,845.062H399.386c-.527,0-.946-.289-.946-.652s.419-.652.946-.652h25.676c.527,0,.946.289.946.652s-.419.652-.946.652" transform="translate(-392.768 -810.223)"/>
    <path id="Path_2252" data-name="Path 2252" d="M409.338,938.812H399.092a.652.652,0,1,1,0-1.3h10.246a.652.652,0,1,1,0,1.3" transform="translate(-392.768 -900.248)"/>
    <path id="Path_2253" data-name="Path 2253" d="M409.338,1032.6H399.092a.652.652,0,1,1,0-1.3h10.246a.652.652,0,1,1,0,1.3" transform="translate(-392.768 -990.31)"/>
    <path id="Path_2254" data-name="Path 2254" d="M103.723,113.694a9.967,9.967,0,1,1,9.967-9.967A9.978,9.978,0,0,1,103.723,113.694Zm0-18.63a8.663,8.663,0,1,0,8.663,8.663A8.671,8.671,0,0,0,103.723,95.064Z" transform="translate(-84.441 -90.034)"/>
    <path id="Path_2255" data-name="Path 2255" d="M331.575,194.4H328.78a.648.648,0,0,1-.652-.652V188.16a.652.652,0,1,1,1.3,0V193.1h2.142a.652.652,0,1,1,0,1.3Z" transform="translate(-309.498 -180.056)"/>
  </g>
</svg>
