<?xml version="1.0" encoding="UTF-8"?><svg id="a" xmlns="http://www.w3.org/2000/svg" width="34" height="34" viewBox="0 0 34 34"><path d="m31.25,32.25c-.27,0-.52-.1-.71-.29l-11.38-11.38-.52.38c-1.82,1.34-3.99,2.04-6.27,2.04-5.86,0-10.63-4.77-10.63-10.62S6.52,1.75,12.38,1.75s10.63,4.77,10.63,10.63c0,2.27-.71,4.44-2.04,6.27l-.38.52,11.38,11.38c.39.39.39,1.03,0,1.42-.19.19-.44.29-.71.29ZM12.38,3.75C7.62,3.75,3.75,7.62,3.75,12.37s3.87,8.62,8.63,8.62,8.63-3.87,8.63-8.62S17.13,3.75,12.38,3.75Z"/></svg>