<svg id="Group_5049" data-name="Group 5049" xmlns="http://www.w3.org/2000/svg" xmlns:xlink="http://www.w3.org/1999/xlink" width="45.055" height="46.014" viewBox="0 0 45.055 46.014">
  <defs>
    <clipPath id="clip-path">
      <rect id="Rectangle_910" data-name="Rectangle 910" width="45.055" height="46.014" transform="translate(0 0)" fill="none"/>
    </clipPath>
  </defs>
  <g id="Group_5051" data-name="Group 5051" clip-path="url(#clip-path)">
    <path id="Path_2320" data-name="Path 2320" d="M12.886,7.2a.584.584,0,0,1,.582-.582h13.5a.583.583,0,1,1,0,1.165h-13.5a.584.584,0,0,1-.582-.582"/>
    <path id="Path_2321" data-name="Path 2321" d="M38.079,13.244H13.468a.583.583,0,0,1,0-1.165H38.079a.583.583,0,1,1,0,1.165"/>
    <path id="Path_2322" data-name="Path 2322" d="M38.657,23.594a.584.584,0,0,1-.582.582h-13.5a.583.583,0,1,1,0-1.165h13.5a.583.583,0,0,1,.582.582"/>
    <path id="Path_2323" data-name="Path 2323" d="M24.575,29.642a.583.583,0,1,1,0-1.165h13.5a.583.583,0,1,1,0,1.165Z"/>
    <path id="Path_2324" data-name="Path 2324" d="M9.967,41.1a9.967,9.967,0,1,1,9.967-9.967A9.967,9.967,0,0,1,9.967,41.1m0-18.63a8.663,8.663,0,1,0,8.663,8.663,8.664,8.664,0,0,0-8.663-8.663"/>
    <path id="Path_2325" data-name="Path 2325" d="M9.961,38.4a.584.584,0,0,1-.582-.582V36.673A3.093,3.093,0,0,1,6.872,33.64a.582.582,0,1,1,1.165,0,1.925,1.925,0,0,0,3.849.088c0-.03,0-.059,0-.088,0-1.385-.707-1.618-2.06-1.94-1.247-.3-2.954-.7-2.954-3.074a3.093,3.093,0,0,1,2.507-3.033V24.451a.583.583,0,1,1,1.165,0v1.141A3.093,3.093,0,0,1,13.05,28.63a.583.583,0,0,1-1.165,0,1.925,1.925,0,0,0-3.849,0c0,1.385.707,1.618,2.06,1.94,1.247.3,2.954.7,2.954,3.074a3.093,3.093,0,0,1-2.507,3.033v1.141a.583.583,0,0,1-.582.582"/>
    <path id="Path_2326" data-name="Path 2326" d="M38.079,18.71H13.468a.582.582,0,0,1,0-1.165H38.079a.582.582,0,1,1,0,1.165"/>
    <path id="Path_2327" data-name="Path 2327" d="M44.4,0H7.137a.648.648,0,0,0-.646.65V20.336a11.066,11.066,0,0,1,1.3-.309V1.3H43.743V37.258H36.935a.648.648,0,0,0-.644.652v6.8H7.791V42.152a11.067,11.067,0,0,1-1.3-.308v4.017l30.46.153h.008c.016,0,.029-.008.044-.009a.641.641,0,0,0,.205-.043.554.554,0,0,0,.051-.033.625.625,0,0,0,.153-.1l7.452-7.452c.006-.006.008-.014.014-.021a.645.645,0,0,0,.177-.445V.644A.648.648,0,0,0,44.4,0M37.6,43.793V38.562h5.231Z"/>
  </g>
</svg>
