<svg id="Group_4860" data-name="Group 4860" xmlns="http://www.w3.org/2000/svg" xmlns:xlink="http://www.w3.org/1999/xlink" width="48.529" height="45.494" viewBox="0 0 48.529 45.494">
  <defs>
    <clipPath id="clip-path">
      <rect id="Rectangle_466" data-name="Rectangle 466" width="48.529" height="45.494" fill="none"/>
    </clipPath>
  </defs>
  <g id="Group_1450" data-name="Group 1450">
    <g id="Group_1449" data-name="Group 1449" clip-path="url(#clip-path)">
      <path id="Path_259" data-name="Path 259" d="M45.035,0H14.723a3.5,3.5,0,0,0-3.494,3.494V17.905a11.811,11.811,0,0,0,0,23.593V42a3.5,3.5,0,0,0,3.494,3.494H40.482a.579.579,0,0,0,.412-.171l7.465-7.465a.581.581,0,0,0,.171-.412V3.494A3.5,3.5,0,0,0,45.035,0M1.165,29.7A10.646,10.646,0,1,1,11.811,40.348,10.659,10.659,0,0,1,1.165,29.7M12.393,42v-.5a11.811,11.811,0,0,0,0-23.593V3.494a2.332,2.332,0,0,1,2.329-2.329H45.035a2.332,2.332,0,0,1,2.329,2.329V36.873a.584.584,0,0,0-.093-.008H43.394A3.5,3.5,0,0,0,39.9,40.359V44.33H14.723A2.332,2.332,0,0,1,12.393,42M46.54,38.03l-5.476,5.476V40.359a2.332,2.332,0,0,1,2.329-2.329ZM16.991,7.928a.583.583,0,0,1,.582-.582h13.5a.582.582,0,1,1,0,1.165h-13.5a.583.583,0,0,1-.582-.582m25.193,6.579H17.573a.582.582,0,0,1,0-1.165H42.184a.582.582,0,0,1,0,1.165m.582,5.415a.583.583,0,0,1-.582.582H28.68a.582.582,0,0,1,0-1.165h13.5a.583.583,0,0,1,.582.582m0,6.4a.583.583,0,0,1-.582.582H28.68a.582.582,0,0,1,0-1.165h13.5a.582.582,0,0,1,.582.582M28.68,32.375a.582.582,0,1,1,0-1.165h13.5a.582.582,0,0,1,0,1.165ZM11.811,36.966a.583.583,0,0,1-.582-.582V35.243A3.094,3.094,0,0,1,8.722,32.21a.582.582,0,1,1,1.165,0,1.925,1.925,0,1,0,3.849,0c0-1.385-.707-1.618-2.06-1.94-1.247-.3-2.954-.7-2.954-3.074a3.093,3.093,0,0,1,2.507-3.033V23.021a.582.582,0,1,1,1.165,0v1.141A3.093,3.093,0,0,1,14.9,27.2a.582.582,0,1,1-1.165,0,1.925,1.925,0,0,0-3.849,0c0,1.385.707,1.618,2.06,1.94,1.247.3,2.954.7,2.954,3.074a3.093,3.093,0,0,1-2.507,3.033v1.141a.582.582,0,0,1-.582.582"/>
    </g>
  </g>
</svg>
