<?xml version="1.0" encoding="UTF-8"?><svg id="a" xmlns="http://www.w3.org/2000/svg" width="19" height="18.999999999999091" viewBox="0 0 19 18.999999999999091"><path d="m9.499939281087791,18.999853262629586C4.261658031087791,18.999853262629586-.000060718912209,14.738134512629586-.000060718912209,9.499853262629586S4.261658031087791-.000146737370414,9.499939281087791-.000146737370414s9.5,4.26171875,9.5,9.5-4.26171875,9.5-9.5,9.5ZM9.499939281087791.999853262629586C4.812927562337791.999853262629586.999939281087791,4.812841543879586.999939281087791,9.499853262629586c0,4.6865234375,3.81298828125,8.5,8.5,8.5,4.6865234375,0,8.5-3.8134765625,8.5-8.5C17.999939281087791,4.812841543879586,14.186462718587791.999853262629586,9.499939281087791.999853262629586Z"/><path id="b" d="m6.000976085662842,6.793991088867188c.163726806640625-1.815185546875,1.7679443359375-3.1539306640625,3.583099365234375-2.990203857421875,1.815185546875.163726806640625,3.1539306640625,1.7679443359375,2.990203857421875,3.5831298828125-.099945068359375,1.108154296875-.751617431640625,2.091339111328125-1.733306884765625,2.615081787109375-.31610107421875.156585693358466-.511566162109375.483428955077216-.5.835998535155341v.23199462890625c0,.110443115234375-.08953857421875.20001220703125-.199981689453125.20001220703125h-1.7080078125c-.110443115234375,0-.20001220703125-.08953857421875-.20001220703125-.199981689453125v-.232025146484375c-.0093994140625-1.132141113280341.615203857421875-2.174438476561591,1.618011474609375-2.700012207030341.1898193359375-.102203369140625.34844970703125-.25390625.459014892578125-.438995361328125.334869384765625-.56292724609375.14996337890625-1.290771484375-.4129638671875-1.6256103515625-.562957763671875-.334869384765625-1.290771484375-.149993896484375-1.625640869140625.4129638671875-.0667724609375.112274169921875-.11456298828125.23480224609375-.141387939453125.362640380859375-.018463134765625.095428466796875-.10284423828125.16375732421875-.20001220703125.1619873046875h-1.7239990234375c-.110443115234375.00067138671875-.200531005859375-.08831787109375-.20123291015625-.198760986328125-.000030517578125-.00775146484375.0003662109375-.0155029296875.001220703125-.023223876953125"/><path id="c" d="m9.286986827850342,12.000976562499091c.70196533203125,0,1.27099609375.56903076171875,1.27099609375,1.27099609375s-.56903076171875,1.27099609375-1.27099609375,1.27099609375-1.27099609375-.56903076171875-1.27099609375-1.27099609375h0c0-.70196533203125.56903076171875-1.27099609375,1.27099609375-1.27099609375"/></svg>