<?xml version="1.0" encoding="UTF-8"?><svg id="a" xmlns="http://www.w3.org/2000/svg" width="19" height="18.999999999999091" viewBox="0 0 19 18.999999999999091"><path d="m9.499939281087791,18.909032950129586C4.311736172149722,18.909032950129586.090759593587791,14.688056371568564.090759593587791,9.499853262629586.090759593587791,4.311650153691517,4.311736172149722.090673575129586,9.499939281087791.090673575129586c5.188203108938978,0,9.4091796875,4.220976578561931,9.4091796875,9.4091796875,0,5.188203108938978-4.220976578561022,9.4091796875-9.4091796875,9.4091796875Zm0-17.827919407895024C4.857735548546771,1.081113542234561,1.081199560692767,4.857649530088565,1.081199560692767,9.499853262629586c0,4.641720119276215,3.776535987854004,8.418739720395024,8.418739720395024,8.418739720395024,4.641720119276215,0,8.418739720395024-3.777019601118809,8.418739720395024-8.418739720395024,0-4.64220373254102-3.777019601118809-8.418739720395024-8.418739720395024-8.418739720395024Z" fill="#fff"/><path id="b" d="m6.034426288908435,6.819859220257058c.162161572983678-1.797832313336585,1.751042729930305-3.12377898316663,3.548844817437384-2.961617410182953,1.797832313336585.162161572983678,3.12377898316754,1.751042729929395,2.961617410183862,3.548875043266889-.09898959021848,1.097560305343904-.744431944271128,2.071345840629874-1.716736413931358,2.590081519201703-.31307913755154.155088728978626-.506675572771201.478807358364975-.495219983551578.828006361659391v.229776752623366c0,.109387275419067-.088682582504589.198100083751342-.198069857924565.198100083751342h-1.691679201628176c-.109387275419067,0-.198100083752252-.088682582503679-.198100083752252-.198069857922746v-.229806978451961c-.009309555354776-1.121317806995648.609322488307953-2.153650773198024,1.602543231688287-2.674200001514691.188004656841258-.101226301570023.345118516369439-.251478897897869.454626695104707-.434798551233143.331668022432495-.557545643104277.148529724072432-1.278431666524739-.409015919031845-1.610069463127729-.557575868932872-.331668022431586-1.278431666524739-.148559949900118-1.610099688957234.409015919032754-.066134114013948.111200825163905-.113467762344044.232557528897814-.140036266100651.359173526889208-.018286626589543.094516167515394-.101861043980534.162191798813183-.198100083752252.160438700726445h-1.707517536063278c-.109387275419977.000664968240017-.198613922846562-.087473549340757-.199309116916083-.196860824760734-.000030225828596-.007677360585149.000362709949513-.015354721169388.001209033162922-.023001855925031" fill="#fff"/><path id="c" d="m9.289022660308547,11.977065741478327c.695254520365779,0,1.258845329284668.563590808918889,1.258845329284668,1.258845329284668s-.563590808918889,1.258845329284668-1.258845329284668,1.258845329284668c-.695254520366689,0-1.258845329284668-.563590808918889-1.258845329284668-1.258845329284668h0c0-.695254520365779.563590808917979-1.258845329284668,1.258845329284668-1.258845329284668" fill="#fff"/></svg>