<svg xmlns="http://www.w3.org/2000/svg" width="7.999" height="4.504" viewBox="0 0 7.999 4.504">
  <path id="Path_2446" data-name="Path 2446" d="M3.689,4.37.124.723A.425.425,0,0,1,.032.587.4.4,0,0,1,0,.424.425.425,0,0,1,.055.208.409.409,0,0,1,.2.055.415.415,0,0,1,.419,0a.419.419,0,0,1,.3.119L4.246,3.726H3.753L7.281.119A.43.43,0,0,1,7.58,0a.415.415,0,0,1,.215.055.409.409,0,0,1,.149.152A.425.425,0,0,1,8,.424a.4.4,0,0,1-.124.295L4.31,4.37a.4.4,0,0,1-.141.1A.423.423,0,0,1,4,4.5a.44.44,0,0,1-.313-.134"/>
</svg>
