<svg id="Group_5039" data-name="Group 5039" xmlns="http://www.w3.org/2000/svg" xmlns:xlink="http://www.w3.org/1999/xlink" width="45.406" height="46.246" viewBox="0 0 45.406 46.246">
  <defs>
    <clipPath id="clip-path">
      <rect id="Rectangle_906" data-name="Rectangle 906" width="45.406" height="46.246"/>
    </clipPath>
  </defs>
  <g id="Group_5038" data-name="Group 5038" clip-path="url(#clip-path)">
    <path id="Path_2295" data-name="Path 2295" d="M45.289,30.894h0l-2.127-6.237a2.178,2.178,0,0,0-.084-2.49L39.13,16.9c0-.01,0-.019,0-.029a2.185,2.185,0,0,0-.657-1.53h0L36.6,13.527l-.3-.4a2.156,2.156,0,0,0-.771-.643l-1.486-1.443a2.181,2.181,0,0,0-.961-2L26.44,4.618a2.2,2.2,0,0,0-1.449-1.382h0L14.144.09A2.134,2.134,0,0,0,12.58.223H2.159A2.162,2.162,0,0,0,0,2.383V44.073A2.165,2.165,0,0,0,2.159,46.23H12.895l-.022.016H43.06a2.18,2.18,0,0,0,2.177-2.162V32.8a2.162,2.162,0,0,0-.022-.307,2.175,2.175,0,0,0,.074-1.594m-1.05,1.248-.014.026a1.124,1.124,0,0,1-.628.517l-20,6.82-.026.009L42.331,25.44l1.976,5.806a1.143,1.143,0,0,1-.068.9M42.477,23.51a1.145,1.145,0,0,1-.283.711,1.172,1.172,0,0,1-.173.16L20.42,40.586h0l-4.773,3.58v-.931l.521-1.793L18.634,38.9,38.517,18.428a2.413,2.413,0,0,0,.24-.3h0l3.492,4.649a1.145,1.145,0,0,1,.228.73M38.093,17.02q0,.048-.013.1a1.13,1.13,0,0,1-.3.589L16.784,39.312l.946-3.257,13.19-19.826,2.742-4.118,4.091,3.98a1.134,1.134,0,0,1,.341.93m-5.149-6.584a1.143,1.143,0,0,1,.049.68,1.186,1.186,0,0,1-.076.221l-.092-.04.076.074a1.2,1.2,0,0,1-.068.123h0L18.691,32.742l7.782-26.8c0-.014.007-.028.011-.042L32.517,9.9a1.143,1.143,0,0,1,.427.532M15.487,1.568,24.694,4.23a1.152,1.152,0,0,1,.773.755l.019.079a1.1,1.1,0,0,1-.012.584h0l-9.83,33.834V2.381a2.176,2.176,0,0,0-.158-.814ZM1.46,44.959a1.126,1.126,0,0,1-.4-.627,1.03,1.03,0,0,1-.031-.258V2.383A1.126,1.126,0,0,1,2.159,1.257H13.487a1.126,1.126,0,0,1,1.124,1.126V43.032l-.005.017.005-.005v1.038a1.127,1.127,0,0,1-.32.782l-.024.024-.022.02a1.1,1.1,0,0,1-.085.069h0l-.057.042a1.126,1.126,0,0,1-.615.185H2.159a1.125,1.125,0,0,1-.7-.245m42.409-.082a1.148,1.148,0,0,1-.808.336H15.972l.128-.1,4.79-3.6,23.04-7.864a2.175,2.175,0,0,0,.274-.115V44.069a1.148,1.148,0,0,1-.336.808" transform="translate(0 0)"/>
    <path id="Path_2296" data-name="Path 2296" d="M95.081,647.227a2.621,2.621,0,1,0,1.854.769,2.622,2.622,0,0,0-1.854-.769m1.122,3.748a1.588,1.588,0,1,1-1.12-2.712h0a1.588,1.588,0,0,1,1.12,2.712" transform="translate(-87.484 -612.402)"/>
  </g>
</svg>
