<svg xmlns="http://www.w3.org/2000/svg" xmlns:xlink="http://www.w3.org/1999/xlink" width="45.909" height="43.98" viewBox="0 0 45.909 43.98">
  <defs>
    <clipPath id="clip-path">
      <rect id="Rectangle_917" data-name="Rectangle 917" width="45.909" height="43.98" fill="none"/>
    </clipPath>
  </defs>
  <g id="Group_5074" data-name="Group 5074" transform="translate(0 0)">
    <g id="Group_5073" data-name="Group 5073" transform="translate(0 0)" clip-path="url(#clip-path)">
      <path id="Path_2371" data-name="Path 2371" d="M23.914,43.98a21.918,21.918,0,0,1-15-5.917l-.145-.134-.166.107C6.032,39.7,3.357,41.258.645,42.68L0,41.445C2.558,40.1,5.083,38.631,7.511,37.08l.253-.161-.2-.222A22,22,0,1,1,23.917,43.98ZM11.209,38.206A20.589,20.589,0,0,0,23.9,42.6h.031a20.588,20.588,0,0,0,12.688-4.4l.576-.454H10.634Zm7.868-7.887c-2.335,1.958-4.784,3.836-7.278,5.576l-.663.463H38.671l.075-.079a20.663,20.663,0,0,0,3.873-5.659l.167-.361H19.148ZM17.866,2.294A20.722,20.722,0,0,0,9.617,7.181l-.078.074v28.5l.4-.27c2.8-1.909,5.549-3.984,8.168-6.172l.091-.077V2.193ZM7.691,9.314a20.494,20.494,0,0,0,0,25.366l.454.578V8.736ZM29.16,20.665c-1.047,1.15-2.129,2.282-3.213,3.367-1.509,1.509-3.078,2.984-4.663,4.385l-.5.445H43.335l.059-.172A20.462,20.462,0,0,0,44.517,22c0-.394-.014-.785-.035-1.175l-.014-.24H29.235ZM23.913,1.394a20.787,20.787,0,0,0-4.121.413l-.2.042,0,26.2.421-.368c1.7-1.485,3.367-3.045,4.956-4.635,1.086-1.093,2.166-2.226,3.206-3.364l.067-.073V1.849l-.2-.042a20.776,20.776,0,0,0-4.119-.413m14.963,6.92a105.861,105.861,0,0,1-8.021,10.45l-.368.42H44.325l-.045-.292a20.488,20.488,0,0,0-5-10.608l-.218-.242ZM29.63,18.057l.446-.514A103.546,103.546,0,0,0,37.938,7.211l.12-.18L37.9,6.884A20.729,20.729,0,0,0,29.958,2.3l-.328-.1Z" transform="translate(0 0)"/>
    </g>
  </g>
</svg>
