<?xml version="1.0" encoding="UTF-8"?><svg id="a" xmlns="http://www.w3.org/2000/svg" width="16" height="18.29" viewBox="0 0 16 18.29"><path d="m9.71,10.86h-3.43c-3.47,0-6.29,2.81-6.29,6.29,0,.63.51,1.14,1.14,1.14h13.71c.63,0,1.14-.51,1.14-1.14,0-3.47-2.81-6.29-6.29-6.29ZM1.14,17.29c-.08,0-.14-.06-.14-.14,0-2.91,2.37-5.29,5.29-5.29h3.43c2.91,0,5.29,2.37,5.29,5.29,0,.08-.06.14-.14.14H1.14Z"/><path d="m8,9.14c2.52,0,4.57-2.05,4.57-4.57S10.52,0,8,0,3.43,2.05,3.43,4.57s2.05,4.57,4.57,4.57Zm0-1c-1.97,0-3.57-1.6-3.57-3.57S6.03,1,8,1s3.57,1.6,3.57,3.57-1.6,3.57-3.57,3.57Z"/></svg>