<svg xmlns="http://www.w3.org/2000/svg" xmlns:xlink="http://www.w3.org/1999/xlink" width="46.685" height="46.684" viewBox="0 0 46.685 46.684">
  <defs>
    <clipPath id="clip-path">
      <rect id="Rectangle_919" data-name="Rectangle 919" width="46.685" height="46.684" fill="none"/>
    </clipPath>
  </defs>
  <g id="Group_5080" data-name="Group 5080" transform="translate(0 0)">
    <g id="Group_5080-2" data-name="Group 5080" transform="translate(0 0)" clip-path="url(#clip-path)">
      <path id="Path_2374" data-name="Path 2374" d="M41.687,20.268a.594.594,0,0,0,.594-.595v-2.34H46.1a.6.6,0,0,0,.585-.595V13.76a.6.6,0,0,0-.3-.517L23.627.072a.569.569,0,0,0-.2-.067L23.36,0H23.3a.6.6,0,0,0-.253.078L.3,13.243a.6.6,0,0,0-.3.517v2.979a.6.6,0,0,0,.6.595H4.4v2.34a.6.6,0,0,0,.6.595H5.87V36.689H5a.6.6,0,0,0-.6.594v2.341H3.52a.6.6,0,0,0-.585.595v2.34H.6a.6.6,0,0,0-.6.6v2.935a.6.6,0,0,0,.6.595H46.089a.6.6,0,0,0,.595-.595V43.155a.6.6,0,0,0-.595-.6H43.75v-2.34a.6.6,0,0,0-.6-.595h-.873V37.283a.6.6,0,0,0-.594-.594h-.874V20.268ZM1.19,43.752h44.3V45.5H1.19Zm2.937-1.191V40.817H42.56l0,1.745Zm19.4-41.173L43.508,12.954l1.986,1.518v1.675H1.19V14.1L23.274,1.322l.394-.224ZM13.207,19.082H5.593V17.337h7.614Zm14.54,17.61h-.873V20.271h.873a.594.594,0,0,0,.594-.595V17.715l0-.378h3.949v2.339a.6.6,0,0,0,.6.595h.872V36.692h-.872a.6.6,0,0,0-.6.595v2.341H28.34V37.287a.594.594,0,0,0-.594-.595m-.6,2.936H19.534V37.882H27.15ZM21,20.271h4.68V36.692H21Zm-1.466-2.934H27.15v1.745H19.535ZM13.8,36.692H12.93V20.271H13.8a.6.6,0,0,0,.595-.595V17.717l0-.38h3.941v2.339a.6.6,0,0,0,.595.595h.873V36.692h-.873a.6.6,0,0,0-.595.595v2.341H14.4V37.287a.6.6,0,0,0-.595-.595m19.673,1.188h7.614v1.746H33.477Zm1.466-17.61h4.68V36.692h-4.68Zm6.149-1.188H33.478V17.337h7.614ZM11.741,36.692H7.061V20.271h4.68ZM5.593,37.881h7.614v1.746H5.593ZM23.305.1Z" transform="translate(0 0)"/>
    </g>
  </g>
</svg>
