<svg id="Group_4861" data-name="Group 4861" xmlns="http://www.w3.org/2000/svg" xmlns:xlink="http://www.w3.org/1999/xlink" width="53.336" height="48.544" viewBox="0 0 53.336 48.544">
  <defs>
    <clipPath id="clip-path">
      <rect id="Rectangle_879" data-name="Rectangle 879" width="53.336" height="48.544" fill="none"/>
    </clipPath>
  </defs>
  <g id="Group_4849" data-name="Group 4849" clip-path="url(#clip-path)">
    <path id="Path_2219" data-name="Path 2219" d="M102.544,814.562h5.44v1.6a.646.646,0,0,0,1.293,0v-1.6h33.544a.646.646,0,1,0,0-1.293H109.276v-1.606a.646.646,0,0,0-1.293,0v1.606h-5.439a.646.646,0,0,0,0,1.293" transform="translate(-96.963 -771.738)"/>
    <path id="Path_2220" data-name="Path 2220" d="M53.336,7.8A7.8,7.8,0,0,0,39.25,3.191H.646A.647.647,0,0,0,0,3.838V47.9a.647.647,0,0,0,.646.646H50.793a.647.647,0,0,0,.646-.646V12.89a7.765,7.765,0,0,0,1.9-5.092m-7.8-6.7a6.7,6.7,0,1,1-6.7,6.7,6.7,6.7,0,0,1,6.7-6.7m4.607,46.149H1.29V37.1H50.145ZM31.158,23.5a2.8,2.8,0,0,1,2.8,2.8v9.512H17.476V26.3a2.8,2.8,0,0,1,2.8-2.8ZM20.493,16.981A5.225,5.225,0,1,1,25.717,22.2a5.231,5.231,0,0,1-5.224-5.224m14.759,18.83V26.3A4.1,4.1,0,0,0,31.158,22.2H29.6a6.518,6.518,0,1,0-7.759,0H20.277A4.1,4.1,0,0,0,16.184,26.3v9.512H1.29V4.484H38.48a7.795,7.795,0,0,0,11.665,9.6V35.811Z"/>
    <path id="Path_2221" data-name="Path 2221" d="M889.277,86.823a.551.551,0,0,0,.554,0l5.79-3.423a.552.552,0,0,0,0-.95l-5.79-3.423A.552.552,0,0,0,889,79.5v6.846a.552.552,0,0,0,.278.479m.825-6.359,4.154,2.456L890.1,85.377Z" transform="translate(-845.943 -75.123)"/>
  </g>
</svg>
